<svg width="284" height="284" viewBox="0 0 284 284" fill="none" xmlns="http://www.w3.org/2000/svg">
<rect width="283.5" height="283.5" fill="#96033A"/>
<path d="M85.2515 130.197H107.829V152.774H39.9946V130.197H62.5722V107.517H39.9946V84.9398H85.2515V130.197ZM153.09 152.778H130.411V130.201H107.833V107.517H130.411V84.9398H153.09V107.517H175.667V130.197H153.09V152.778ZM220.928 130.197H243.506V152.774H175.667V130.197H198.245V107.517H175.667V84.9398H220.924V130.197H220.928Z" fill="white"/>
<path d="M243.506 173.227H39.9946V198.56H243.506V173.227Z" fill="white"/>
<path d="M54.3872 174.517H59.3977C59.7233 174.517 59.9512 174.668 60.0815 174.973L66.9805 191.995L73.8795 174.973C74.0098 174.668 74.2377 174.517 74.5633 174.517H79.4435C79.8343 174.517 80.0296 174.713 80.0296 175.103V196.716C80.0296 197.107 79.8343 197.302 79.4435 197.302H76.5455C76.1548 197.302 75.9594 197.107 75.9594 196.716V179.402L68.8976 196.847C68.7673 197.152 68.5394 197.302 68.2138 197.302H65.6414C65.3158 197.302 65.0878 197.152 64.9576 196.847L57.8632 179.402V196.716C57.8632 197.107 57.6678 197.302 57.2771 197.302H54.3791C53.9883 197.302 53.793 197.107 53.793 196.716V175.103C53.8011 174.713 53.9965 174.517 54.3872 174.517Z" fill="#96033A"/>
<path d="M92.7243 174.485H96.3713C96.6969 174.485 96.9248 174.635 97.0551 174.941L105.875 196.619C105.961 196.814 105.961 196.977 105.875 197.107C105.79 197.237 105.635 197.302 105.419 197.302H102.098C101.793 197.302 101.577 197.152 101.447 196.847L99.7536 192.455H89.11L87.4168 196.847C87.2865 197.152 87.0708 197.302 86.7655 197.302H83.6396C83.4239 197.302 83.2692 197.237 83.1837 197.107C83.0983 196.977 83.0983 196.814 83.1837 196.619L92.0365 174.941C92.1708 174.639 92.3987 174.485 92.7243 174.485ZM90.3514 189.166H98.5203L94.4176 178.425L90.3514 189.166Z" fill="#96033A"/>
<path d="M109.034 196.716V175.103C109.034 174.713 109.229 174.517 109.62 174.517H119.547C121.977 174.517 123.914 175.136 125.355 176.373C126.8 177.611 127.521 179.292 127.521 181.416V182.165C127.521 184.27 126.8 185.947 125.355 187.192C123.91 188.442 121.977 189.064 119.547 189.064H113.202V196.712C113.202 197.103 113.006 197.298 112.615 197.298H109.62C109.229 197.302 109.034 197.107 109.034 196.716ZM123.288 182.169V181.518C123.288 180.411 122.901 179.54 122.132 178.897C121.362 178.258 120.312 177.936 118.989 177.936H113.198V185.715H118.989C120.337 185.715 121.387 185.401 122.148 184.77C122.909 184.143 123.288 183.276 123.288 182.169Z" fill="#96033A"/>
<path d="M136.406 174.485H140.053C140.379 174.485 140.606 174.635 140.737 174.941L149.557 196.619C149.642 196.814 149.642 196.977 149.557 197.107C149.471 197.237 149.317 197.302 149.101 197.302H145.78C145.474 197.302 145.259 197.152 145.128 196.847L143.435 192.455H132.792L131.098 196.847C130.968 197.152 130.752 197.302 130.447 197.302H127.321C127.106 197.302 126.951 197.237 126.865 197.107C126.78 196.977 126.78 196.814 126.865 196.619L135.718 174.941C135.852 174.639 136.08 174.485 136.406 174.485ZM134.029 189.166H142.198L138.095 178.425L134.029 189.166Z" fill="#96033A"/>
<path d="M163.709 174.192H166.77C167.16 174.192 167.356 174.387 167.356 174.778V177.122H171.129C173.909 177.122 176.131 177.822 177.8 179.222C179.469 180.623 180.307 182.483 180.307 184.803V186.756C180.307 189.076 179.473 190.941 177.8 192.341C176.131 193.741 173.905 194.441 171.129 194.441H167.356V197.046C167.356 197.437 167.16 197.632 166.77 197.632H163.709C163.318 197.632 163.123 197.437 163.123 197.046V194.441H159.378C156.598 194.441 154.376 193.741 152.707 192.341C151.034 190.941 150.2 189.081 150.2 186.756V184.803C150.2 182.483 151.034 180.619 152.707 179.222C154.376 177.822 156.602 177.122 159.378 177.122H163.123V174.778C163.127 174.387 163.318 174.192 163.709 174.192ZM159.61 191.055H163.127V180.509H159.61C157.937 180.509 156.659 180.895 155.772 181.665C154.88 182.434 154.437 183.537 154.437 184.97V186.598C154.437 188.03 154.88 189.129 155.772 189.903C156.659 190.668 157.937 191.055 159.61 191.055ZM176.078 186.594V184.966C176.078 183.533 175.626 182.434 174.727 181.661C173.827 180.891 172.541 180.505 170.868 180.505H167.356V191.051H170.868C172.537 191.051 173.823 190.668 174.727 189.895C175.63 189.129 176.078 188.026 176.078 186.594Z" fill="#96033A"/>
<path d="M193.849 197.726C190.552 197.726 187.931 196.81 185.989 194.974C184.048 193.143 183.075 190.672 183.075 187.571V184.249C183.075 181.188 184.056 178.734 186.022 176.878C187.984 175.022 190.593 174.094 193.849 174.094C197.146 174.094 199.767 175.01 201.709 176.846C203.65 178.681 204.623 181.148 204.623 184.249V187.571C204.623 190.631 203.642 193.09 201.68 194.942C199.714 196.798 197.105 197.726 193.849 197.726ZM189.034 192.418C190.186 193.57 191.79 194.144 193.853 194.144C195.913 194.144 197.52 193.57 198.672 192.418C199.82 191.27 200.398 189.65 200.398 187.571V184.249C200.398 182.165 199.824 180.549 198.672 179.402C197.52 178.254 195.917 177.676 193.853 177.676C191.794 177.676 190.186 178.25 189.034 179.402C187.886 180.553 187.308 182.169 187.308 184.249V187.571C187.308 189.654 187.882 191.27 189.034 192.418Z" fill="#96033A"/>
<path d="M213.118 175.103V183.924H224.022V175.103C224.022 174.713 224.217 174.517 224.608 174.517H227.669C228.06 174.517 228.255 174.713 228.255 175.103V196.716C228.255 197.107 228.06 197.302 227.669 197.302H224.608C224.217 197.302 224.022 197.107 224.022 196.716V187.636H213.118V196.716C213.118 197.107 212.922 197.302 212.532 197.302H209.471C209.08 197.302 208.885 197.107 208.885 196.716V175.103C208.885 174.713 209.08 174.517 209.471 174.517H212.532C212.922 174.517 213.118 174.713 213.118 175.103Z" fill="#96033A"/>
</svg>
