<svg width="284" height="284" viewBox="0 0 284 284" fill="none" xmlns="http://www.w3.org/2000/svg">
<rect width="283.5" height="283.5" fill="#C70025"/>
<path d="M44.9634 190.492C43.1474 190.492 42.2754 189.814 42.2754 188.679V164.221H43.5231C45.3454 164.221 46.2111 164.898 46.2111 166.034V190.492H44.9634ZM65.6102 190.492C63.7903 190.492 62.768 189.814 62.768 188.679V176.865C62.768 174.978 61.3277 173.843 59.5063 173.843H56.668C54.852 173.843 53.7913 174.978 53.7913 176.865V190.492H53.0297C51.2137 190.492 50.1914 189.814 50.1914 188.679V170.753H51.364C52.4239 170.753 53.4109 171.39 53.4109 172.528C54.661 171.315 56.4034 170.753 58.5998 170.753H59.1297C63.6744 170.753 66.3656 173.28 66.3656 178.566V190.493H65.6102V190.492ZM78.2259 190.492C73.6773 190.492 71.3658 189.136 71.3658 183.851V173.843H68.2575V173.166C68.2575 171.619 68.825 170.752 69.8136 170.752H71.365V165.58C71.365 165.168 71.7063 164.823 72.1251 164.823H74.2072C74.6229 164.823 74.9626 165.167 74.9626 165.58V170.752H81.4024V171.43C81.4024 172.98 80.8372 173.843 79.8525 173.843H74.9634V184.792C74.9634 186.678 76.024 187.436 77.8463 187.436H80.1578C81.1394 187.436 81.7061 188.304 81.7061 189.849V190.492H78.2259ZM98.4869 182.076H87.3897V184.413C87.3897 186.304 88.83 187.436 90.646 187.436H98.1863C99.1326 187.436 99.7784 188.114 99.7784 189.624V190.492H91.0248C86.4809 190.492 83.7898 188.004 83.7898 182.718V178.566C83.7898 173.28 86.4809 170.752 91.0248 170.752H92.7719C97.3158 170.752 100.003 173.28 100.003 178.566V180.565C100.004 181.282 99.2868 182.076 98.4869 182.076ZM96.4047 176.865C96.4047 174.978 94.9644 173.843 93.1484 173.843H90.646C88.83 173.843 87.3897 174.978 87.3897 176.865V179.393H96.4055L96.4047 176.865ZM114.548 173.843H110.307C108.485 173.843 107.39 174.978 107.39 176.865V190.492H106.628C104.812 190.492 103.79 189.814 103.79 188.679V170.753H104.962C106.022 170.753 107.007 171.39 107.007 172.528C107.878 171.619 108.789 170.753 110.682 170.753H116.1V171.431C116.101 172.98 115.533 173.843 114.548 173.843ZM133.79 190.492C131.974 190.492 130.949 189.814 130.949 188.679V176.865C130.949 174.978 129.512 173.843 127.69 173.843H124.849C123.032 173.843 121.972 174.978 121.972 176.865V190.492H121.215C119.394 190.492 118.373 189.814 118.373 188.679V170.753H119.547C120.609 170.753 121.591 171.39 121.591 172.528C122.841 171.315 124.587 170.753 126.78 170.753H127.31C131.858 170.753 134.545 173.28 134.545 178.566V190.493H133.79V190.492ZM152.201 190.492C151.143 190.492 150.153 189.471 150.153 188.339C149.362 189.589 147.351 190.492 145.344 190.492H144.397C139.849 190.492 137.202 188.077 137.202 184.226V183.772C137.202 180.001 139.85 177.847 144.397 177.847H149.776V176.301C149.776 174.412 148.339 173.809 146.899 173.809H140.42C139.435 173.809 138.869 172.941 138.869 171.39V170.753H146.52C151.063 170.753 153.375 172.147 153.375 177.435V190.492H152.201ZM149.777 180.6H144.018C142.202 180.6 140.8 181.735 140.8 183.622V184.413C140.8 186.304 142.202 187.436 144.018 187.436H146.9C148.713 187.436 149.778 186.304 149.778 184.413L149.777 180.6ZM165.23 190.492C160.682 190.492 158.374 189.136 158.374 183.851V173.843H155.267V173.166C155.267 171.619 155.833 170.752 156.824 170.752H158.373V165.58C158.373 165.168 158.715 164.823 159.131 164.823H161.215C161.631 164.823 161.972 165.167 161.972 165.58V170.752H168.412V171.43C168.412 172.98 167.842 173.843 166.857 173.843H161.973V184.792C161.973 186.678 163.034 187.436 164.851 187.436H167.162C168.147 187.436 168.714 188.304 168.714 189.849V190.492H165.23ZM174.738 168.033H172.164C171.405 168.033 170.8 167.427 170.8 166.678V165.581C170.8 164.824 171.405 164.221 172.164 164.221H174.738C175.498 164.221 176.103 164.824 176.103 165.581V166.678C176.104 167.426 175.498 168.033 174.738 168.033ZM174.588 190.492C172.767 190.492 171.746 189.814 171.746 188.679V170.753H172.92C174.738 170.753 175.347 171.431 175.347 172.563V190.492H174.588ZM188.073 190.492H186.328C181.783 190.492 179.131 188.004 179.131 182.718V178.566C179.131 173.28 181.784 170.752 186.328 170.752H188.073C192.617 170.752 195.305 173.28 195.305 178.566V182.718C195.305 188.004 192.617 190.492 188.073 190.492ZM191.71 176.865C191.71 174.978 190.305 173.843 188.489 173.843H185.952C184.13 173.843 182.73 174.978 182.73 176.865V184.413C182.73 186.304 184.13 187.436 185.952 187.436H188.489C190.305 187.436 191.71 186.304 191.71 184.413V176.865ZM213.754 190.492C211.938 190.492 210.911 189.814 210.911 188.679V176.865C210.911 174.978 209.474 173.843 207.653 173.843H204.811C202.995 173.843 201.934 174.978 201.934 176.865V190.492H201.179C199.357 190.492 198.336 189.814 198.336 188.679V170.753H199.51C200.573 170.753 201.554 171.39 201.554 172.528C202.805 171.315 204.55 170.753 206.743 170.753H207.273C211.821 170.753 214.509 173.28 214.509 178.566V190.493H213.754V190.492ZM232.164 190.492C231.103 190.492 230.117 189.471 230.117 188.339C229.323 189.589 227.315 190.492 225.308 190.492H224.358C219.813 190.492 217.162 188.077 217.162 184.226V183.772C217.162 180.001 219.814 177.847 224.358 177.847H229.736V176.301C229.736 174.412 228.3 173.809 226.859 173.809H220.383C219.398 173.809 218.829 172.941 218.829 171.39V170.753H226.48C231.029 170.753 233.334 172.147 233.334 177.435V190.492H232.164ZM229.736 180.6H223.981C222.161 180.6 220.76 181.735 220.76 183.622V184.413C220.76 186.304 222.161 187.436 223.981 187.436H226.859C228.676 187.436 229.736 186.304 229.736 184.413V180.6ZM239.965 190.492C238.147 190.492 237.126 189.814 237.126 188.679V163.468H237.923C239.739 163.468 240.724 164.146 240.724 165.278V190.492H239.965ZM86.3306 92.5082H42.3192V114.735H64.328V136.97H42.3192V159.214H108.342V136.97H86.3306V92.5082ZM152.355 114.736V92.5082H130.354V114.735H108.343L108.342 136.97H130.354V159.214H152.355V136.97H174.37V114.736H152.355ZM218.377 136.97V92.5082H174.369V114.735H196.372V136.97H174.37V159.214H240.388V136.97H218.377Z" fill="white"/>
</svg>
