<?xml version="1.0" encoding="utf-8"?>
<!-- Generator: Adobe Illustrator 28.0.0, SVG Export Plug-In . SVG Version: 6.00 Build 0)  -->
<svg version="1.1" id="Vrstva_1" xmlns="http://www.w3.org/2000/svg" xmlns:xlink="http://www.w3.org/1999/xlink" x="0px" y="0px"
	 viewBox="0 0 283.5 283.5" style="enable-background:new 0 0 283.5 283.5;" xml:space="preserve">
<style type="text/css">
	.st0{fill:#0055B8;}
	.st1{fill:#FFFFFF;}
	.st2{fill-rule:evenodd;clip-rule:evenodd;fill:#FFFFFF;}
</style>
<rect x="0" y="0" class="st0" width="283.5" height="283.5"/>
<g>
	<path class="st1" d="M143.9,137.9l-14.8-17.7c2.6-2.1,5.3-4.5,8.2-7.3c2.9-2.7,5.8-5.5,8.6-8.4c2.8-2.9,5.2-5.6,7.3-8h28.1v91.7
		h-25.5v-60.6c-1.5,1.8-3.3,3.6-5.4,5.4C148.2,134.7,146.1,136.4,143.9,137.9L143.9,137.9z"/>
	<path class="st1" d="M204.6,137.9l-14.8-17.7c2.6-2.1,5.3-4.5,8.2-7.3c2.9-2.7,5.8-5.5,8.6-8.4c2.8-2.9,5.2-5.6,7.3-8H242v91.7
		h-25.5v-60.6c-1.5,1.8-3.3,3.6-5.4,5.4C209,134.7,206.8,136.4,204.6,137.9L204.6,137.9z"/>
	<path class="st2" d="M110,188.2l-4.5-13.1H72.5l-4.3,13.1H42l32.5-91.7h30.6l32.9,91.7H110z M98,152.8l-9.1-27l-9.1,27H98z"/>
</g>
</svg>
