<?xml version="1.0" encoding="UTF-8"?>
<svg xmlns="http://www.w3.org/2000/svg" version="1.1" viewBox="0 0 283.5 283.5">
  <defs>
    <style>
      .cls-1 {
        fill: #fff;
      }

      .cls-2 {
        fill: #fa9000;
      }
    </style>
  </defs>
  <!-- Generator: Adobe Illustrator 28.7.1, SVG Export Plug-In . SVG Version: 1.2.0 Build 142)  -->
  <g>
    <g id="Vrstva_1">
      <rect class="cls-2" width="283.5" height="283.5"/>
      <path class="cls-1" d="M158.1,213.6c-.2.1-.4.7-.2,1.3l1.3,3.5c.8,2.1,2.1,4.6,3.8,5.8,1.9,1.3,2.8.9,3.3.8.3-.2,1.4-.9,1.1-2.7-.2-1.2-.5-2.3-1.1-3.4-.4-.7-.9-1.2-1.2-1.1-.2,0,0,.7,0,1.1,0,.8-.3,1.3-.9,1.6-.5.2-1.9.8-3-1.1-.9-1.5-1.6-3.5-2-4.3-.2-.5-.7-1.3-1-1.3h-.2v-.2ZM128.4,219.1l6.3,5.3,6.1-7.4-6.3-5.3-6.1,7.4ZM129.7,206l6.3,5.3,6.2-7.4-6.3-5.3-6.2,7.4ZM170.2,187.8l7.4,3.5,4.2-8.8-7.4-3.5-4.2,8.8ZM131.7,181.5c3,7.1,7.6,13.3,13.3,18.5.5-3.8,1.2-6.6,1.8-8.5-5.6-3.9-9.5-8.3-12.1-12.7l-3,2.7ZM145.8,172.2l7.4,3.5,4.2-8.8-7.4-3.5-4.2,8.8ZM109.9,137.3s-4.7,3.3-6.6,7.7c-1,2.2-1.2,4.7-.4,7,.7,1.4,2.2,2.7,4.2,1.1,1.4-1.1,2-2.7,2.3-4,.2-.8.2-1.3.2-1.8s-.2-.9-.5-.8c-1.3.4-.5,2.3-1.5,3.2-.7.4-2.6.2-3-1.6-.4-1.9,1.1-4.3,2.4-5.9s3.6-3.7,3.6-3.7c0,0,1.6-1.3,1.1-2h-.2c-.3,0-1.5.9-1.5.9h0ZM155.6,132.5l-5.7,6.2-4.9,5.4c-1.1,1.2-1.6,2.4-1.5,3.1l.7,3.3c.2-.5.9-1.8,1.6-2.5.5-.5,3.2-3.5,5.8-6.3l4.9-5.4c1.1-1.2,1.6-2.4,1.5-3.1l-.7-3.2c-.3.5-1,1.6-1.8,2.5h0ZM93.7,179.7c.9-2.8,2.5-5.5,5.4-7.1,4.7-2.2,6.6,3.4,6.6,3.4-.3,3.8-3.2,5.8-6.5,5.8s-3.8-.7-5.5-2.1h0ZM128.6,88.5c-4.2.1-6.8,4.6-5,8.3,1.9,3.7,6.9,4.4,9.6,1.2v-.2c.8,4.6-1.4,8.3-6.6,12.6-5.3,4.5-17.5,10.2-26.3,17.1-13.1,9.5-18.9,26.3-14.7,41.9.9,3.4,2,6.6,3.4,9.7-.4,7.9.8,15.6,3.5,23.1,4.3,9.6,12,17.5,23.1,15.2,11.2-2.6,12.5-20.8,13.7-34,.3-2.2.7-2.5,1.3-3.2,1.8-1.5,6.1-5.6,8.2-7.4,1.3-1.2,2.4-2.3,3.2-3.7.9-1.8.4-4,.4-4l-1.2-8.8c-.3,1.2-1.9,3-3.9,5.1-2.2,2.2-8.2,7.3-8.8,7.9s-2.4,2-3.3,8.6c-2.2,18.2-5.7,26.7-12.1,29.7-1.8.8-3.6,1.2-5.7,1.2-11.7-.1-14.9-14.4-14.8-22.3,0-.4,0-1,.1-1.3,2.7,3.7,6.8,7.3,11.7,6.6,8-1.2,5.5-14.7,4.3-17.7-1.1-3.1-4.2-12.5-10.8-12-4.7.3-6.9,5.9-7.9,10.5-1-3.7-1.3-7.6-1.1-11.4.7-8.1,3.5-18.3,15.2-28.2,8.3-7.1,17.9-12.3,23.2-16.3,2.8-2.2,5.1-5.1,6.6-8.4-.3,3.1-1.1,6.1-2.3,9-4.9,12.9-19.7,34.1-19.9,64.1,0,9.2.9,17.2,2.3,24,.8-.5,1.5-1.3,2.3-2.1-1.1-4.9-1.6-10.3-1.6-16.1,0-30,14.7-51.1,19.5-64,2.5-6.8,2.5-11.7,2.5-16.5s-1.3-12.3-2.5-14.7c-1.4-2.3-3-3.4-5.5-3.4h-.1ZM143,47.5c-3,2.1-5.5,6.8-5.5,13.9s1.3,9.7,4.7,15.6c-4.6,6.2-5.4,11.9-3.5,17.4,1.4,4.2,2.2,5.3,3,7.8,1.6,6.3-.2,13.9-5.1,25.7-4,9.5-9.4,19.6-9.4,31.8s.2,5.6.7,8.2c.4-.4,1.4-1.4,2.6-2.5-.5-9.5,3.2-19.1,7.9-27.8,6.8-12.6,7.7-25.5,6.3-32.5,4.8,5.1,12.8,12.8,17.5,20.6,1.5,2.6,2.5,5.1,2.7,7.7.3,5.6-1.8,10.9-5.6,15-3.2,3.6-2.1,6.9-2,7.6.3,1,1.6,5,2.5,7.7,3.6-7,13.3-10.8,17.8-16.6,1,7.1-4.4,13.9-8.3,18.5-.9,1-2,2.1-3.2,3.2-7.6,7.2-12.5,12.3-15.1,16.9-.7,1-1.8,3.3-2.3,5-.8,2.2-1.8,6-2.6,12.6-.5,3.5-1.1,7-1.5,10.6-.5,4.7-2,12.1-7.8,14.3-.2.1-.7.2-.9.2h0c-5.6,1.2-11.2-3.4-15.2-11.7-.9.7-1.9,1.2-2.8,1.6,5.6,13.1,13.9,19.1,21.2,19.1s10-2.7,11.4-10.9c.7-4.2,1.2-8.6,1.8-13.1.2-2.1,1.3-14.1,3.2-18.5,2.4-4.9,7.7-9.6,15.4-17.6,4.8-4.9,7.4-9.2,8.8-12.5,4.6-8.3-1.1-28-2.2-31.6,0-.1,0-.2-.1-.2s-.1,0-.2.2h0c-2,3.4-5.6,6.3-9,8.8,1.9-5.1,1.4-9.1.7-12.4l-.2-.7c-3.4-13.1-16.7-24.7-22.9-31.5-7.9-8.8-5.1-14.3-2.3-17.9l1.8,2.5c10.7,14.6,30.9,37.5,41.5,59.4,2.5,5.1,4.5,10.6,5.8,16.2,4.2,22.8-11.7,45.7-35.5,39.3h-.4c-.7,1.9-1.2,5.1-1.9,9.5,3.6,1.5,7.4,2.5,11.3,2.6h.9c19.5.2,34.8-14.3,32-45,0,0-1.2-12.8-7.8-26.3-10.6-23.5-30.1-46.9-42.1-62-3.2-3.7-5.6-8-7.2-12.5-2.2-7-.8-12.4,2.1-14.8.7-.5,1.4-1.1,2.1-1.4.4-.2.2-.7,0-.8h-.3c0-.1-.9.1-2.5,1.3h0ZM121.2,98.5c-3.2.1-5.7,2.7-5.6,6,.1,3.2,2.8,5.7,6,5.6s5.7-2.8,5.6-6c-.1-3.1-2.6-5.6-5.8-5.6h-.2Z"/>
    </g>
  </g>
</svg>