<?xml version="1.0" encoding="UTF-8"?>
<svg xmlns="http://www.w3.org/2000/svg" xmlns:xlink="http://www.w3.org/1999/xlink" version="1.1" viewBox="0 0 283.5 283.5">
  <defs>
    <style>
      .cls-1 {
        fill: url(#Nepojmenovaný_přechod_5-4);
      }

      .cls-2 {
        fill: url(#Nepojmenovaný_přechod_5-2);
      }

      .cls-3 {
        fill: url(#Nepojmenovaný_přechod_5-3);
      }

      .cls-4 {
        fill: url(#Nepojmenovaný_přechod_5-5);
      }

      .cls-5 {
        fill: url(#Nepojmenovaný_přechod_27-3);
      }

      .cls-6 {
        fill: url(#Nepojmenovaný_přechod_27-2);
      }

      .cls-7 {
        fill: url(#Nepojmenovaný_přechod_27-4);
      }

      .cls-8 {
        fill: url(#Nepojmenovaný_přechod_20-2);
      }

      .cls-9 {
        fill: url(#Nepojmenovaný_přechod_20-4);
      }

      .cls-10 {
        fill: url(#Nepojmenovaný_přechod_20-5);
      }

      .cls-11 {
        fill: url(#Nepojmenovaný_přechod_20-3);
      }

      .cls-12 {
        fill: url(#Nepojmenovaný_přechod_20-8);
      }

      .cls-13 {
        fill: url(#Nepojmenovaný_přechod_20-7);
      }

      .cls-14 {
        fill: url(#Nepojmenovaný_přechod_20-6);
      }

      .cls-15 {
        fill: url(#Nepojmenovaný_přechod_20-9);
      }

      .cls-16 {
        fill: url(#Nepojmenovaný_přechod_10-2);
      }

      .cls-17 {
        fill: url(#Nepojmenovaný_přechod_27);
      }

      .cls-18 {
        fill: url(#Nepojmenovaný_přechod_20);
      }

      .cls-19 {
        fill: url(#Nepojmenovaný_přechod_22);
      }

      .cls-20 {
        fill: url(#Nepojmenovaný_přechod_24);
      }

      .cls-21 {
        fill: url(#Nepojmenovaný_přechod_10);
      }

      .cls-22 {
        fill: #16387d;
      }

      .cls-23 {
        fill: url(#Nepojmenovaný_přechod_20-10);
      }

      .cls-24 {
        fill: url(#Nepojmenovaný_přechod_20-11);
      }

      .cls-25 {
        fill: url(#Nepojmenovaný_přechod_7);
      }

      .cls-26 {
        fill: url(#Nepojmenovaný_přechod_6);
      }

      .cls-27 {
        fill: url(#Nepojmenovaný_přechod_5);
      }

      .cls-28 {
        fill: url(#Nepojmenovaný_přechod_8);
      }
    </style>
    <linearGradient id="Nepojmenovaný_přechod_5" data-name="Nepojmenovaný přechod 5" x1="124" y1="159.1" x2="127.2" y2="175.2" gradientTransform="translate(0 286) scale(1 -1)" gradientUnits="userSpaceOnUse">
      <stop offset="0" stop-color="#e6e6e6"/>
      <stop offset=".3" stop-color="#e1e1e1"/>
      <stop offset=".6" stop-color="#d4d4d4"/>
      <stop offset=".7" stop-color="#cfcfcf"/>
      <stop offset="1" stop-color="#e6e6e6"/>
    </linearGradient>
    <linearGradient id="Nepojmenovaný_přechod_5-2" data-name="Nepojmenovaný přechod 5" x1="139.2" y1="160" x2="140.8" y2="174.1" xlink:href="#Nepojmenovaný_přechod_5"/>
    <linearGradient id="Nepojmenovaný_přechod_5-3" data-name="Nepojmenovaný přechod 5" x1="151.1" y1="158.7" x2="155.1" y2="172" xlink:href="#Nepojmenovaný_přechod_5"/>
    <linearGradient id="Nepojmenovaný_přechod_5-4" data-name="Nepojmenovaný přechod 5" x1="166.3" y1="158.9" x2="170" y2="174.1" xlink:href="#Nepojmenovaný_přechod_5"/>
    <linearGradient id="Nepojmenovaný_přechod_5-5" data-name="Nepojmenovaný přechod 5" x1="181.4" y1="157.8" x2="187.8" y2="172.9" xlink:href="#Nepojmenovaný_přechod_5"/>
    <linearGradient id="Nepojmenovaný_přechod_6" data-name="Nepojmenovaný přechod 6" x1="86.8" y1="99.5" x2="103.1" y2="164.3" gradientTransform="translate(0 286) scale(1 -1)" gradientUnits="userSpaceOnUse">
      <stop offset="0" stop-color="#1a1a1a"/>
      <stop offset=".1" stop-color="#1e1e1e"/>
      <stop offset=".2" stop-color="#2c2c2c"/>
      <stop offset=".4" stop-color="#424242"/>
      <stop offset=".5" stop-color="#616161"/>
      <stop offset=".6" stop-color="#888"/>
      <stop offset="1" stop-color="#000"/>
    </linearGradient>
    <linearGradient id="Nepojmenovaný_přechod_7" data-name="Nepojmenovaný přechod 7" x1="111.4" y1="107.7" x2="138.5" y2="171.6" gradientTransform="translate(0 286) scale(1 -1)" gradientUnits="userSpaceOnUse">
      <stop offset="0" stop-color="#1a1a1a"/>
      <stop offset="0" stop-color="#222"/>
      <stop offset=".2" stop-color="#3b3b3b"/>
      <stop offset=".3" stop-color="#626262"/>
      <stop offset=".5" stop-color="#888"/>
      <stop offset=".5" stop-color="#737373"/>
      <stop offset=".6" stop-color="#4a4a4a"/>
      <stop offset=".7" stop-color="#292929"/>
      <stop offset=".8" stop-color="#121212"/>
      <stop offset=".9" stop-color="#040404"/>
      <stop offset="1" stop-color="#000"/>
    </linearGradient>
    <linearGradient id="Nepojmenovaný_přechod_8" data-name="Nepojmenovaný přechod 8" x1="150.7" y1="107.3" x2="161.3" y2="165.9" gradientTransform="translate(0 286) scale(1 -1)" gradientUnits="userSpaceOnUse">
      <stop offset="0" stop-color="#1a1a1a"/>
      <stop offset=".5" stop-color="#888"/>
      <stop offset="1" stop-color="#000"/>
    </linearGradient>
    <linearGradient id="Nepojmenovaný_přechod_10" data-name="Nepojmenovaný přechod 10" x1="181.8" y1="113.7" x2="189.2" y2="165.8" gradientTransform="translate(0 286) scale(1 -1)" gradientUnits="userSpaceOnUse">
      <stop offset="0" stop-color="#1a1a1a"/>
      <stop offset=".5" stop-color="#888"/>
      <stop offset="1" stop-color="#000"/>
    </linearGradient>
    <linearGradient id="Nepojmenovaný_přechod_10-2" data-name="Nepojmenovaný přechod 10" x1="202.2" y1="120.3" x2="210" y2="162" xlink:href="#Nepojmenovaný_přechod_10"/>
    <linearGradient id="Nepojmenovaný_přechod_20" data-name="Nepojmenovaný přechod 20" x1="124" y1="159.1" x2="127.2" y2="175.2" gradientTransform="translate(0 286) scale(1 -1)" gradientUnits="userSpaceOnUse">
      <stop offset="0" stop-color="#e6e6e6"/>
      <stop offset=".7" stop-color="#b3b3b3"/>
      <stop offset="1" stop-color="#e6e6e6"/>
    </linearGradient>
    <linearGradient id="Nepojmenovaný_přechod_20-2" data-name="Nepojmenovaný přechod 20" x1="138.5" y1="153.7" x2="141.8" y2="182.9" xlink:href="#Nepojmenovaný_přechod_20"/>
    <linearGradient id="Nepojmenovaný_přechod_20-3" data-name="Nepojmenovaný přechod 20" x1="150.2" y1="155.7" x2="159.6" y2="187.2" xlink:href="#Nepojmenovaný_přechod_20"/>
    <linearGradient id="Nepojmenovaný_přechod_20-4" data-name="Nepojmenovaný přechod 20" x1="164.5" y1="151.3" x2="172.7" y2="185.3" xlink:href="#Nepojmenovaný_přechod_20"/>
    <linearGradient id="Nepojmenovaný_přechod_20-5" data-name="Nepojmenovaný přechod 20" x1="181.4" y1="157.8" x2="189.3" y2="176.4" xlink:href="#Nepojmenovaný_přechod_20"/>
    <linearGradient id="Nepojmenovaný_přechod_20-6" data-name="Nepojmenovaný přechod 20" x1="82.7" y1="115.6" x2="104.3" y2="150.2" xlink:href="#Nepojmenovaný_přechod_20"/>
    <linearGradient id="Nepojmenovaný_přechod_20-7" data-name="Nepojmenovaný přechod 20" x1="117.7" y1="127.1" x2="134.7" y2="159.1" xlink:href="#Nepojmenovaný_přechod_20"/>
    <linearGradient id="Nepojmenovaný_přechod_20-8" data-name="Nepojmenovaný přechod 20" x1="154.8" y1="135.2" x2="165.1" y2="163.5" xlink:href="#Nepojmenovaný_přechod_20"/>
    <linearGradient id="Nepojmenovaný_přechod_20-9" data-name="Nepojmenovaný přechod 20" x1="178" y1="122.9" x2="198.8" y2="177" xlink:href="#Nepojmenovaný_přechod_20"/>
    <linearGradient id="Nepojmenovaný_přechod_20-10" data-name="Nepojmenovaný přechod 20" x1="200.9" y1="124.4" x2="221.8" y2="198.5" xlink:href="#Nepojmenovaný_přechod_20"/>
    <linearGradient id="Nepojmenovaný_přechod_20-11" data-name="Nepojmenovaný přechod 20" x1="220.4" y1="136.5" x2="253.9" y2="204.1" xlink:href="#Nepojmenovaný_přechod_20"/>
    <linearGradient id="Nepojmenovaný_přechod_22" data-name="Nepojmenovaný přechod 22" x1="54.7" y1="148.2" x2="130.8" y2="128.2" gradientTransform="translate(0 286) scale(1 -1)" gradientUnits="userSpaceOnUse">
      <stop offset="0" stop-color="#333"/>
      <stop offset=".3" stop-color="#999"/>
    </linearGradient>
    <linearGradient id="Nepojmenovaný_přechod_27" data-name="Nepojmenovaný přechod 27" x1="48.6" y1="133" x2="64.2" y2="108.7" gradientTransform="translate(0 286) scale(1 -1)" gradientUnits="userSpaceOnUse">
      <stop offset="0" stop-color="#333"/>
      <stop offset=".3" stop-color="#999"/>
    </linearGradient>
    <linearGradient id="Nepojmenovaný_přechod_24" data-name="Nepojmenovaný přechod 24" x1="51.1" y1="129" x2="46" y2="137.2" gradientTransform="translate(0 286) scale(1 -1)" gradientUnits="userSpaceOnUse">
      <stop offset="0" stop-color="#333"/>
      <stop offset="1" stop-color="#1a1a1a"/>
    </linearGradient>
    <linearGradient id="Nepojmenovaný_přechod_27-2" data-name="Nepojmenovaný přechod 27" x1="47" y1="160.2" x2="63.4" y2="103.9" xlink:href="#Nepojmenovaný_přechod_27"/>
    <linearGradient id="Nepojmenovaný_přechod_27-3" data-name="Nepojmenovaný přechod 27" x1="49.4" y1="130.1" x2="57.2" y2="184.6" xlink:href="#Nepojmenovaný_přechod_27"/>
    <linearGradient id="Nepojmenovaný_přechod_27-4" data-name="Nepojmenovaný přechod 27" x1="40.4" y1="154.1" x2="85.8" y2="200" xlink:href="#Nepojmenovaný_přechod_27"/>
  </defs>
  <!-- Generator: Adobe Illustrator 28.7.1, SVG Export Plug-In . SVG Version: 1.2.0 Build 142)  -->
  <g>
    <g id="Vrstva_1">
      <rect class="cls-22" width="283.5" height="283.5"/>
      <g>
        <g id="ARENA_SPORT_iv">
          <g id="arena">
            <path class="cls-27" d="M124.9,119c1.6,0,2.8.5,3.5,1.5l.3-1.2h4.2l-3.6,12.2h-4.2l.4-1.4h0c-1.2,1-2.8,1.7-4.5,1.7-3.6,0-5.2-2.9-4.1-6.4s4.4-6.5,8-6.5c0,0,0,0,0,0ZM123.4,128.3c1.6,0,3.2-1.2,3.7-2.8.5-1.7-.4-2.9-2-2.9s-3.2,1.2-3.7,2.9c-.5,1.7.3,2.8,2,2.8Z"/>
            <path class="cls-2" d="M135.8,119.3h4.2l-.5,1.8h0s2-2.1,4.4-2.1,2.4.8,2.4.8l-2.8,3.6s-.6-.7-2-.7c-2.2,0-3.1,2.2-3.2,2.5l-1.9,6.4h-4.2l3.6-12.2h0Z"/>
            <path class="cls-3" d="M149.3,126c-.6,1.9.8,2.5,1.9,2.5s2-.3,3.4-1.4l2.6,1.5c-2.1,2.3-4.6,3.2-7.3,3.2s-5.8-2.9-4.8-6.4c1.1-3.6,4.9-6.5,8.6-6.5s5.9,2.2,4.6,6.5c0,.2-.1.4-.2.6h-8.8s0,0,0,0ZM154.7,123.7c.2-1.3-.5-2-1.7-2s-2.5.9-2.9,2h4.6Z"/>
            <path class="cls-1" d="M162.1,119.3h4.2l-.4,1.3h0c1.2-.9,2.6-1.6,4-1.6,2.2,0,5,1.1,4,4.5l-2.4,8h-4.2l2.1-6.9c.4-1.2-.1-2.4-1.5-2.4s-2.8,1.2-3.2,2.4l-2.1,6.9h-4.2l3.6-12.2h0Z"/>
            <path class="cls-4" d="M183.1,119c1.6,0,2.8.5,3.5,1.5l.3-1.2h4.2l-3.6,12.2h-4.2l.4-1.4h0c-1.2,1-2.8,1.7-4.5,1.7-3.6,0-5.2-2.9-4.1-6.4s4.4-6.5,8-6.5h0ZM181.6,128.3c1.6,0,3.2-1.2,3.7-2.8.5-1.7-.4-2.9-2-2.9s-3.2,1.2-3.7,2.9c-.5,1.7.3,2.8,2,2.8Z"/>
          </g>
          <g id="sport">
            <path class="cls-26" d="M110.4,135l-4.4,5.5s-2.4-1.5-4.9-1.5-2.7.3-3,1.5c-.4,1.3,1.2,1.7,3.1,2.3,2.9,1,6.5,2.8,5,7.8-2.1,7.2-9,8.3-13.9,8.3s-8.4-3.3-8.4-3.3l5.1-5.7s2.5,2.8,5.1,2.8,2.6-.1,3.1-1.8c.5-1.8-2.1-1.9-4.4-3.3-2.1-1.3-4-3-2.9-6.6,1.5-5,6.5-7.8,12.9-7.8s7.5,1.9,7.5,1.9h0Z"/>
            <path class="cls-25" d="M124.1,158.9c-3.2,0-5.6-1.1-7-3l-4.4,14.7h-8.3l10.9-36.7h8.2l-.8,2.8h0c2.4-2,5.6-3.5,8.9-3.5,7.1,0,10.3,5.7,8.2,12.9-2.1,7.1-8.8,12.9-15.8,12.9ZM127.1,140.2c-3.2,0-6.3,2.4-7.3,5.7-1,3.4.8,5.7,3.9,5.7s6.4-2.4,7.4-5.7c1-3.3-.6-5.7-4-5.7,0,0,0,0,0,0Z"/>
            <path class="cls-28" d="M160.5,133.1c8,0,12.8,5.3,10.6,12.9-2.2,7.5-9.9,12.9-18.2,12.9s-13-5.4-10.7-12.9c2.3-7.6,10.2-12.9,18.4-12.9h0ZM154.9,151.7c3.2,0,6.3-2.4,7.3-5.7,1-3.4-.8-5.7-3.9-5.7s-6.4,2.4-7.4,5.7c-1,3.3.6,5.7,4,5.7,0,0,0,0,0,0Z"/>
            <path class="cls-21" d="M178.7,133.8h8.3l-1,3.5h0s3.9-4.2,8.6-4.2,4.8,1.5,4.8,1.5l-5.6,7.1s-1.2-1.3-3.9-1.3c-4.3,0-6.2,4.3-6.4,4.9l-3.8,12.8h-8.3l7.2-24.4s0,0,0,0Z"/>
            <path class="cls-16" d="M206.2,124.7h8.3l-2.7,9.1h5.1l-1.9,6.4h-5.1l-2.3,7.7c-.7,2.3-.4,3.4.9,3.4s2.3-.8,2.3-.8v6.8c0,0-3.1,1.5-6.5,1.5-6.6,0-6.8-5-5.5-9.3l2.8-9.4h-3.5l1.9-6.4h3.5l2.7-9.1h0Z"/>
          </g>
        </g>
        <g id="ARENA_SPORT_bk">
          <g id="arena-2">
            <path class="cls-18" d="M124.9,119c1.6,0,2.8.5,3.5,1.5l.3-1.2h4.2l-3.6,12.2h-4.2l.4-1.4h0c-1.2,1-2.8,1.7-4.5,1.7-3.6,0-5.2-2.9-4.1-6.4s4.4-6.5,8-6.5c0,0,0,0,0,0ZM123.4,128.3c1.6,0,3.2-1.2,3.7-2.8.5-1.7-.4-2.9-2-2.9s-3.2,1.2-3.7,2.9c-.5,1.7.3,2.8,2,2.8Z"/>
            <path class="cls-8" d="M135.8,119.3h4.2l-.5,1.8h0s2-2.1,4.4-2.1,2.4.8,2.4.8l-2.8,3.6s-.6-.7-2-.7c-2.2,0-3.1,2.2-3.2,2.5l-1.9,6.4h-4.2l3.6-12.2h0Z"/>
            <path class="cls-11" d="M149.3,126c-.6,1.9.8,2.5,1.9,2.5s2-.3,3.4-1.4l2.6,1.5c-2.1,2.3-4.6,3.2-7.3,3.2s-5.8-2.9-4.8-6.4c1.1-3.6,4.9-6.5,8.6-6.5s5.9,2.2,4.6,6.5c0,.2-.1.4-.2.6h-8.8s0,0,0,0ZM154.7,123.7c.2-1.3-.5-2-1.7-2s-2.5.9-2.9,2h4.6Z"/>
            <path class="cls-9" d="M162.1,119.3h4.2l-.4,1.3h0c1.2-.9,2.6-1.6,4-1.6,2.2,0,5,1.1,4,4.5l-2.4,8h-4.2l2.1-6.9c.4-1.2-.1-2.4-1.5-2.4s-2.8,1.2-3.2,2.4l-2.1,6.9h-4.2l3.6-12.2h0Z"/>
            <path class="cls-10" d="M183.1,119c1.6,0,2.8.5,3.5,1.5l.3-1.2h4.2l-3.6,12.2h-4.2l.4-1.4h0c-1.2,1-2.8,1.7-4.5,1.7-3.6,0-5.2-2.9-4.1-6.4s4.4-6.5,8-6.5h0ZM181.6,128.3c1.6,0,3.2-1.2,3.7-2.8.5-1.7-.4-2.9-2-2.9s-3.2,1.2-3.7,2.9c-.5,1.7.3,2.8,2,2.8Z"/>
          </g>
          <g id="sport-2">
            <path class="cls-14" d="M110.4,135l-4.4,5.5s-2.4-1.5-4.9-1.5-2.7.3-3,1.5c-.4,1.3,1.2,1.7,3.1,2.3,2.9,1,6.5,2.8,5,7.8-2.1,7.2-9,8.3-13.9,8.3s-8.4-3.3-8.4-3.3l5.1-5.7s2.5,2.8,5.1,2.8,2.6-.1,3.1-1.8c.5-1.8-2.1-1.9-4.4-3.3-2.1-1.3-4-3-2.9-6.6,1.5-5,6.5-7.8,12.9-7.8s7.5,1.9,7.5,1.9h0Z"/>
            <path class="cls-13" d="M124.1,158.9c-3.2,0-5.6-1.1-7-3l-4.4,14.7h-8.3l10.9-36.7h8.2l-.8,2.8h0c2.4-2,5.6-3.5,8.9-3.5,7.1,0,10.3,5.7,8.2,12.9-2.1,7.1-8.8,12.9-15.8,12.9ZM127.1,140.2c-3.2,0-6.3,2.4-7.3,5.7-1,3.4.8,5.7,3.9,5.7s6.4-2.4,7.4-5.7c1-3.3-.6-5.7-4-5.7,0,0,0,0,0,0Z"/>
            <path class="cls-12" d="M160.5,133.1c8,0,12.8,5.3,10.6,12.9-2.2,7.5-9.9,12.9-18.2,12.9s-13-5.4-10.7-12.9c2.3-7.6,10.2-12.9,18.4-12.9h0ZM154.9,151.7c3.2,0,6.3-2.4,7.3-5.7,1-3.4-.8-5.7-3.9-5.7s-6.4,2.4-7.4,5.7c-1,3.3.6,5.7,4,5.7,0,0,0,0,0,0Z"/>
            <path class="cls-15" d="M178.7,133.8h8.3l-1,3.5h0s3.9-4.2,8.6-4.2,4.8,1.5,4.8,1.5l-5.6,7.1s-1.2-1.3-3.9-1.3c-4.3,0-6.2,4.3-6.4,4.9l-3.8,12.8h-8.3l7.2-24.4s0,0,0,0Z"/>
            <path class="cls-23" d="M206.2,124.7h8.3l-2.7,9.1h5.1l-1.9,6.4h-5.1l-2.3,7.7c-.7,2.3-.4,3.4.9,3.4s2.3-.8,2.3-.8v6.8c0,0-3.1,1.5-6.5,1.5-6.6,0-6.8-5-5.5-9.3l2.8-9.4h-3.5l1.9-6.4h3.5l2.7-9.1h0Z"/>
          </g>
        </g>
        <polygon id="_1" class="cls-24" points="218.8 132.6 221.6 122.9 236.2 115 240.9 115 228 158.1 218.2 158.1 227.2 128.1 218.8 132.6"/>
        <g id="i_BK">
          <rect id="PASIK" class="cls-19" x="68.4" y="103.7" width="2.3" height="76.1"/>
          <g id="I">
            <path class="cls-17" d="M52.1,160.1h1.4c.2,0,.3-.2.4-.3v-8.4l-8.5,6.3c1.7,1.5,4.1,2.4,6.8,2.4Z"/>
            <path class="cls-20" d="M45.4,157.7l8.5-6.3v-.4l-9.7,5.5c.3.4.7.8,1.2,1.2h0Z"/>
            <path class="cls-6" d="M53.3,129.6c0,0-.2,0-.3,0l-8.5,4.8c0,0-.2.1-.2.2-.2.3,0,.6.2.8l8.5,4.8c0,0,.2,0,.3,0,.3,0,.6-.3.6-.6v-9.7c0-.1,0-.2,0-.3-.1-.2-.3-.3-.5-.3h0Z"/>
            <path class="cls-5" d="M59.8,146.6l-9.4-5.4-6.9-3.9c0,0-.2,0-.3,0h0s0,0-.1,0c-.3,0-.5.3-.5.6v14.1c0,.8.1,1.7.4,2.4,0,.1.1.3.2.4,0,0,0,0,0,0,0,.1.1.3.2.4,0,0,0,0,0,0,.2.4.5.9.8,1.3h0s9.7-5.5,9.7-5.5l5.9-3.4c0,0,.2-.1.2-.2.2-.3,0-.6-.2-.8h0Z"/>
            <path class="cls-7" d="M47.3,129.6c3.1.5,6-1.6,6.5-4.7.5-3.1-1.6-6-4.7-6.5-.3,0-.6,0-.9,0-2.7,0-5.1,2-5.6,4.8-.5,3.1,1.6,6,4.7,6.5Z"/>
          </g>
        </g>
      </g>
    </g>
  </g>
</svg>