<?xml version="1.0" encoding="UTF-8"?>
<svg xmlns="http://www.w3.org/2000/svg" version="1.1" viewBox="0 0 1024 1024">
  <defs>
    <style>
      .cls-1 {
        fill: #fa481c;
      }

      .cls-2 {
        fill: #333;
      }
    </style>
  </defs>
  <!-- Generator: Adobe Illustrator 28.7.1, SVG Export Plug-In . SVG Version: 1.2.0 Build 142)  -->
  <g>
    <g id="Vrstva_1">
      <g id="Vrstva_1-2" data-name="Vrstva_1">
        <g id="Vrstva_1-2">
          <g id="Vrstva_1-2-2" data-name="Vrstva_1-2">
            <g id="Vrstva_1-2-2">
              <rect class="cls-2" width="1024" height="1024"/>
            </g>
          </g>
        </g>
      </g>
      <path class="cls-1" d="M451,778.5c.1-41.9,11.4-93.5,53.1-93.5h99.6v73.8h-42.9c-.1,0,6.3,18,10.5,31.6,2.6,9.3,7.8,16.2,17.3,16.8,7.9.8,15.3-8.3,15.3-8.3v72.3c0,.1-5.9,16.1-23.1,15.6-33-1.5-45-27.1-52.4-90.3-4.2-34.1-7.5-37.8-16.1-38-7.1,0-15,4.2-15.3,23.4,0,27.8,18.8,25.8,18.8,25.8v70.8c0,.3-64.8-.4-64.8-100.2h0ZM452.5,554.5c3.6,24.6,23.9,33.1,23.9,33.1h-21.1v68.9h148.5v-75h-71.1c-12.6-.1-18.1-3.6-22.6-8.3-5.3-5.3-9-14.3-9-24.3v-21.1h-45.8c0,.1-4.9,10.9-2.7,26.7h0ZM420.1,404.8v74.3h35.1v30.9h45.8v-30.9h60.6c13.1,0,23.7.1,34.1-9.3,8.6-8.4,8.3-19.4,8.3-32.4v-32.4h-102.9v-44.6h-45.8v44.6h-35.1v-.2ZM452,242.6c1.4-124.5,114-104.4,114.2-104.4v132.9h37.5v54.3c0-.1-20.3,22.4-60.2,21.9-93.2-.8-91.5-100.8-91.5-104.7ZM528.7,210.2c-.1.1-30.5-3.1-30.5,32.4-.1,34.2,30.3,30.5,30.5,30.5v-62.9h0Z"/>
    </g>
  </g>
</svg>