<?xml version="1.0" encoding="UTF-8"?>
<svg xmlns="http://www.w3.org/2000/svg" version="1.1" viewBox="0 0 283.5 283.5">
  <defs>
    <style>
      .cls-1 {
        fill: #a70000;
      }

      .cls-2 {
        fill: #fff;
      }
    </style>
  </defs>
  <!-- Generator: Adobe Illustrator 28.7.1, SVG Export Plug-In . SVG Version: 1.2.0 Build 142)  -->
  <g>
    <g id="Vrstva_1">
      <rect class="cls-2" width="283.5" height="283.5"/>
      <g>
        <path class="cls-1" d="M175,211h-66.1l-24.8-24.8v-79.5h-9.3v-34.2h60.3v34.2h-9.3v65.6l4.4,4.4h23.2l4.6-4.6v-65.5h-9.1v-34.2h60.3v34.3h-9.2v79.3l-25,25h0ZM110.1,208.3h63.8l23.4-23.4v-80.9h9.2v-28.9h-55v28.9h9.1v69.2l-6.2,6.2h-25.4l-6-6v-69.4h9.3v-28.9h-54.9v28.9h9.3v81l23.3,23.3h0ZM172.1,204h-60.2l-20.7-20.7v-83.6h-9.3v-20.2h46.2v20.2h-9.3v75.6l8.6,8.6h29l8.8-8.8v-75.4h-9.1v-20.1h46.3v20.2h-9.2v83.5l-20.8,20.8h0ZM113,201.3h58l19.3-19.3v-85h9.2v-14.9h-40.9v14.8h9.1v79.2l-10.3,10.3h-31.2l-10.1-10.1v-79.3h9.3v-14.8h-40.9v14.8h9.3v85.2l19.2,19.2h0Z"/>
        <path d="M200.9,80.8v17.5h-9.2v84.2l-20.1,20.1h-59.1l-19.9-19.9v-84.4h-9.3v-17.5h43.5v17.5h-9.3v77.4l9.3,9.3h30.1l9.5-9.5v-77.3h-9.1v-17.5h43.6M207.9,73.8h-57.7v31.5h9.1v67.3l-5.4,5.4h-24.3l-5.2-5.2v-67.5h9.3v-31.6h-57.6v31.6h9.3v80.3l2.1,2.1,19.9,19.9,2.1,2.1h64.9l2.1-2.1,20.1-20.1,2.1-2.1v-80.1h9.2v-31.6h0Z"/>
        <polygon class="cls-2" points="83.2 80.8 126.7 80.8 126.7 98.3 117.4 98.3 117.4 175.8 126.8 185.1 156.9 185.1 166.4 175.6 166.4 98.3 157.3 98.3 157.3 80.8 200.9 80.8 200.9 98.4 191.6 98.4 191.6 182.6 171.6 202.6 112.5 202.6 92.5 182.7 92.5 98.3 83.2 98.3 83.2 80.8"/>
        <polygon points="224.1 112.9 140.2 112.8 140.2 134.1 142.9 134.1 142.9 149.2 142.5 149.2 136.2 133.7 136.2 112.8 100.5 112.8 100.5 132.7 95.9 144.1 95.9 141.7 95 140.8 96 139.9 96 123.4 85.3 112.8 48.6 112.8 48.6 134 51.4 134 51.4 149.2 48.6 149.2 48.6 170.5 85.1 170.5 89.3 166.4 89.3 170.5 224.1 170.6 234.8 159.9 234.9 123.6 224.1 112.9"/>
        <path class="cls-2" d="M129.9,119.1v8.7h-2.9l11.2,27.7h2.5v8.7h-16.2v-8.7h1.8l-1.3-4h-13.8l-1.5,4h1.9v8.7h-16.2v-8.7h2.6l11.1-27.7h-2.4v-8.7h23.1M113.9,144.3h8.5l-4.2-10.7-4.2,10.7M133.1,116h-29.5v15h.9l-8.5,21.4h-3.6v15h22.5v-12.7h6.5v12.7h22.5v-15h-3.5l-8.6-21.4h1.3v-15h0Z"/>
        <path class="cls-2" d="M188.5,119.1v8.7h-2.6v27.8h2.6v8.6h-13.9l-14.1-23.5v14.9h2.8v8.6h-16.6v-8.6h2.7v-27.8h-2.7v-8.6h13.8l14.4,23.9v-15.4h-2.9v-8.6h16.6M191.6,116h-22.9v11l-5.7-9.5-.9-1.5h-18.7v14.9h2.7v21.5h-2.7v14.9h23v-10.6l5.5,9.1.9,1.5h18.9v-14.9h-2.6v-21.5h2.6v-15h0Z"/>
        <path class="cls-2" d="M221.5,119.2l7.1,7.1v9h-11.1v-5.4l-2-2h-7.6l-2.1,2.1v23.5l2,2h7.7l2.1-2.1v-6.2h-3.5v-6.5h14.6v16.6l-7,7h-19.9l-6.9-6.9v-31.3l6.9-6.9h19.9M222.8,116h-22.5l-.9.9-6.9,6.9-.9.9v33.9l.9.9,6.9,6.9.9.9h22.5l.9-.9,7-7,.9-.9v-20.2h0v-13.5l-.9-.9-7.1-7.1-.9-.9h0ZM209.1,131h5l.2.2v6.4h-3.5v12.8h3.5v1.8l-.3.3h-5.1l-.2-.2v-20.9l.3-.3h0Z"/>
        <path class="cls-2" d="M82.7,119.1l6.9,6.9v11.2l-3.6,3.6,3.5,3.5v12.8l-7.1,7.1h-27.6v-8.7h2.8v-27.7h-2.8v-8.7h27.8M68.8,136.3h7.7l2-2v-4.5l-2-2h-7.7v8.5M68.8,155.5h7.7l2-2v-6.2l-2-2h-7.7v10.2M84,116h-32.2v14.9h2.8v21.5h-2.8v15h32l.9-.9,7.1-7.1.9-.9v-15.4l-.9-.9-1.3-1.3,1.3-1.3.9-.9v-13.8l-.9-.9-6.9-6.9-.9-.9h0ZM72,131h3.2l.2.2v1.9h-.1c0,.1-3.3.1-3.3.1v-2.2h0ZM72,148.4h3.2l.2.2v3.6h-.1c0,.1-3.3.1-3.3.1v-3.9h0Z"/>
        <g>
          <path class="cls-1" d="M138.2,155.5l-11.2-27.7h2.9v-8.7h-23.1v8.7h2.4l-11.1,27.7h-2.6v8.7h16.2v-8.7h-1.9l1.5-4h13.8l1.3,4h-1.8v8.7h16.2v-8.7s-2.5,0-2.5,0ZM113.9,144.3l4.2-10.7,4.2,10.7h-8.5Z"/>
          <path d="M129.9,119.1v8.7h-2.9l11.2,27.7h2.5v8.7h-16.2v-8.7h1.8l-1.3-4h-13.8l-1.5,4h1.9v8.7h-16.2v-8.7h2.6l11.1-27.7h-2.4v-8.7h23.1M113.9,144.3h8.5l-4.2-10.7-4.2,10.7M131.6,117.4h-26.5v12.1h1.6l-9.7,24.3h-3.1v12.1h19.6v-12.1h-1.2l.2-.6h11.3l.2.6h-1.1v12.1h19.6v-12.1h-3l-9.8-24.3h2v-12.1h0ZM116.4,142.6l1.7-4.4,1.7,4.4h-3.5,0Z"/>
        </g>
        <g>
          <polygon class="cls-1" points="146.5 164.2 146.5 155.6 149.2 155.6 149.2 127.8 146.5 127.8 146.5 119.1 160.3 119.1 174.7 143.1 174.7 127.7 171.8 127.7 171.8 119.1 188.5 119.1 188.5 127.8 185.8 127.8 185.8 155.7 188.5 155.7 188.5 164.2 174.5 164.2 160.4 140.7 160.4 155.6 163.2 155.6 163.2 164.2 146.5 164.2"/>
          <path d="M188.5,119.1v8.7h-2.6v27.8h2.6v8.6h-13.9l-14.1-23.5v14.9h2.8v8.6h-16.6v-8.6h2.7v-27.8h-2.7v-8.6h13.8l14.4,23.9v-15.4h-2.9v-8.6h16.6M190.2,117.4h-20v12h2.9v7.6l-11.2-18.7-.5-.8h-16.4v12h2.7v24.4h-2.7v12h20v-12h-2.8v-7.1l11,18.3.5.8h16.6v-12h-2.6v-24.4h2.6v-12.1h0Z"/>
        </g>
        <g>
          <polygon class="cls-1" points="213.9 140.7 228.5 140.7 228.5 157.3 221.5 164.3 201.6 164.3 194.6 157.4 194.6 126.1 201.6 119.2 221.5 119.2 228.6 126.2 228.6 135.3 217.4 135.3 217.4 129.9 215.4 127.8 207.8 127.8 205.7 130 205.7 153.5 207.7 155.5 215.4 155.5 217.5 153.4 217.5 147.2 213.9 147.2 213.9 140.7"/>
          <path d="M221.5,119.2l7.1,7.1v9h-11.1v-5.4l-2-2h-7.6l-2.1,2.1v23.5l2,2h7.7l2.1-2.1v-6.2h-3.5v-6.5h14.6v16.6l-7,7h-19.9l-6.9-6.9v-31.3l6.9-6.9h19.9M222.2,117.5h-21.3l-.5.5-6.9,6.9-.5.5v32.7l.5.5,6.9,6.9.5.5h21.3l.5-.5,7-7,.5-.5v-19h-18v9.9h3.5v3.8l-1.1,1.1h-6.3l-1-1v-22.1l1.1-1.1h6.2l1,1v6.4h14.5v-11.4l-.5-.5-7.1-7.1-.5-.5h0Z"/>
        </g>
        <g>
          <path class="cls-1" d="M89.7,126.1l-6.9-6.9h-27.8v8.6h2.8v27.8h-2.8v8.7h27.6l7.1-7.1v-12.8l-3.5-3.5,3.6-3.6s0-11.2,0-11.2ZM78.5,153.5l-2,2h-7.7v-10.2h7.7l2,2v6.2h0ZM78.5,134.4l-2,2h-7.7v-8.5h7.7l2,2v4.5h0Z"/>
          <path d="M82.7,119.1l6.9,6.9v11.2l-3.6,3.6,3.5,3.5v12.8l-7.1,7.1h-27.6v-8.7h2.8v-27.7h-2.8v-8.7h27.8M68.8,136.3h7.7l2-2v-4.5l-2-2h-7.7v8.5M68.8,155.5h7.7l2-2v-6.2l-2-2h-7.7v10.2M83.4,117.4h-30.2v12h1.7s1.1,0,1.1,0v24.4h-2.8v12.1h30l.5-.5,7.1-7.1.5-.5v-14.2l-.5-.5-2.3-2.3,2.4-2.4.5-.5v-12.6l-.5-.5-6.9-6.9-.5-.5h0ZM70.5,129.5h5.3l1,1v3.1l-1,1h-5.3v-5.1h0ZM70.5,147h5.3l1,1v4.8l-1,1h-5.3v-6.8h0Z"/>
        </g>
      </g>
    </g>
  </g>
</svg>