<?xml version="1.0" encoding="UTF-8"?>
<svg xmlns="http://www.w3.org/2000/svg" xmlns:xlink="http://www.w3.org/1999/xlink" version="1.1" viewBox="0 0 283.5 283.5">
  <defs>
    <style>
      .cls-1 {
        fill: #0289c8;
      }

      .cls-2 {
        fill: #046ea5;
      }

      .cls-3 {
        fill: #013d66;
      }

      .cls-4 {
        fill: #01365e;
      }

      .cls-5 {
        fill: #014974;
      }

      .cls-6 {
        fill: #fcfdfe;
      }

      .cls-7 {
        fill: #fff;
      }

      .cls-8 {
        fill: #015584;
      }

      .cls-9 {
        fill: url(#Nepojmenovaný_přechod_3);
      }

      .cls-10 {
        fill: #016296;
      }

      .cls-11 {
        fill: #023359;
      }

      .cls-12 {
        fill: #004b78;
      }

      .cls-13 {
        fill: #014874;
      }

      .cls-14 {
        fill: #015a8c;
      }
    </style>
    <linearGradient id="Nepojmenovaný_přechod_3" data-name="Nepojmenovaný přechod 3" x1="0" y1="144.2" x2="283.5" y2="144.2" gradientTransform="translate(0 286) scale(1 -1)" gradientUnits="userSpaceOnUse">
      <stop offset="0" stop-color="#050d18"/>
      <stop offset="1" stop-color="#103c59"/>
    </linearGradient>
  </defs>
  <!-- Generator: Adobe Illustrator 28.7.1, SVG Export Plug-In . SVG Version: 1.2.0 Build 142)  -->
  <g>
    <g id="Vrstva_1">
      <g id="Vrstva_1-2-2">
        <rect class="cls-9" width="283.5" height="283.5"/>
      </g>
      <g>
        <path class="cls-7" d="M242.1,138.6c-.5,1.3-.8,2.7-1.4,4-2.5,5.5-7.1,8.4-12.9,9.3-4.4.7-8.7.2-12.7-2-5.2-2.9-7.9-7.4-8.4-13.3-.4-5.3,1.1-9.9,4.9-13.8,2.5-2.5,5.7-3.8,9.2-4.5,4.2-.8,8.3-.4,12.2,1.5,5,2.4,8,6.3,9.1,11.7,0,.1.1.3.2.4v6.5ZM232.2,135.2c0-.3,0-.6,0-.9-.3-3.3-1.8-5.7-5-6.8-3.2-1.1-6.2-.6-8.6,1.9-1.8,1.9-2.2,4.3-2.1,6.8.3,4.6,4.7,8.1,9.3,7.2,4-.8,6.5-3.9,6.5-8.2Z"/>
        <path class="cls-1" d="M72.2,169.5c-.5-.4-.9-.8-1.4-1.1.8,0,1.7,0,1.9-1.1.1-.6.1-1.3.2-2,.2-.8.3-1.6.5-2.3.1-.8.2-1.6.3-2.3.3-1.5.5-2.9.8-4.4,0-.2,0-.3,0-.5,0-.2.1-.4.2-.6.9-4,1.8-8,2.7-12,.3-1.2.9-2.1,2.1-2.2,3.1-.4,6.2-.7,9.3-1-.5.6-1.2,1.1-1.4,1.8-.5,1.5-.7,3.1-1.1,4.7-.2,1-.4,2-.7,3-.7,3.6-1.4,7.3-2.1,10.9-.3,1.7-.6,3.5-.9,5.2-.3,1.5-1,2.3-2.5,2.6-2.2.4-4.3.8-6.5,1.2,0,0-.2.1-.2.2h-1.2Z"/>
        <path class="cls-7" d="M192.9,169.5c-.1,0-.2-.2-.3-.2-2.4-1-3.6-3.2-3-5.8.5-2.2,2.8-3.9,5.2-3.7,2.1.2,3.8,1,4.5,3.1.7,2,.4,3.9-1.2,5.4-.5.5-1.3.8-1.9,1.2h-3.3ZM196.8,164.7c0-1.3-.9-2.3-2.2-2.3-1.3,0-2.3,1-2.2,2.4,0,1.4.9,2.3,2.3,2.3,1.2,0,2.2-1,2.2-2.3Z"/>
        <path class="cls-7" d="M179.2,169.5v-9.4c2.1,0,4.1-.3,6,.3,2,.6,3.1,2.6,2.9,5.1-.2,2-1.6,3.6-3.6,3.9-.1,0-.3.1-.4.2h-4.9ZM182,166.8c1.2.3,2.4,0,2.9-.7.5-.7.6-1.9,0-2.7-.8-1.1-1.9-.9-3-.8v4.2Z"/>
        <path class="cls-7" d="M148,169.5c0-.7,0-1.4,0-2.2,0-2.4,0-4.8,0-7.3,1.3,0,2.5,0,3.7,0,.5,0,1.1,0,1.6,0,1.4.1,2.3.8,2.8,2.2.5,1.5,0,2.9-1,3.8-.1,0-.2.2-.4.3.4.8.9,1.6,1.3,2.4.1.2,0,.5,0,.8h-2.7c-.3-.6-.6-1.3-.9-1.9-.3-.8-.8-1-1.5-.7,0,.9-.2,1.8-.3,2.7h-2.5ZM150.7,164.6c.9,0,1.9.3,2.5-.6.2-.3.2-.9,0-1.2-.6-.9-1.6-.4-2.5-.6v2.3Z"/>
        <path class="cls-7" d="M168.5,169.5v-9.4c1.1-.2,2-.2,2.8.9.8,1.2,1.8,2.2,2.9,3.5v-4.5h2.7v5.5c0,1,0,2,0,3,0,.3-.1.6-.2.9h-1.7c-1.2-1.5-2.5-3-3.8-4.6,0,1.1,0,1.9,0,2.8,0,.6-.1,1.2-.2,1.9h-2.5Z"/>
        <path class="cls-7" d="M137.7,169.5v-9.3c2,0,3.9-.1,5.8,0,1.2,0,2,1,2.3,2.2.3,1.3.2,2.5-.8,3.5-.2.2-.4.3-.6.5.4.8.9,1.6,1.3,2.3.1.2,0,.5,0,.8h-2.7c-.3-.6-.7-1.3-.9-1.9-.3-.8-.8-1-1.6-.7,0,.6,0,1.1,0,1.7,0,.3-.2.6-.3.9h-2.5ZM140.4,164.6c.9-.2,2,.4,2.5-.6.2-.3.1-1-.1-1.3-.6-.8-1.6-.4-2.4-.4v2.3Z"/>
        <path class="cls-7" d="M117.6,169.5v-9.3c2,0,4,0,6,0,.9,0,1.5.7,1.7,1.6.2.9,0,1.8-.7,2.4-.1,0-.2.2-.4.3.9.5,1.4,1.2,1.4,2.3,0,1.2-.7,2.1-1.9,2.5-.2,0-.3.1-.5.2h-.3c-.8,0-1.5-.2-2.3-.2-.9,0-1.8,0-2.8.2h-.3ZM120.4,165.6v1.9c.6,0,1.1,0,1.6,0,.6,0,1-.5.9-1,0-.4-.5-.8-.9-.9-.4-.2-1,0-1.6,0ZM120.4,163.8c.8,0,1.7.3,2.2-.5.1-.2.1-.8,0-1-.6-.6-1.4-.4-2.2-.4v1.9Z"/>
        <path class="cls-7" d="M126.6,169.5c0-.3,0-.6.1-.8,1.1-2.6,2.2-5.3,3.2-7.9.2-.5.4-.7,1-.7.3,0,.7,0,1,0,.5,0,.7.1.9.6,1.1,2.7,2.2,5.3,3.2,8,0,.2,0,.5,0,.8h-2.5q-.4-1.3-1.8-1.3c0,0-.2,0-.2,0-1,0-2-.2-2.2,1.1,0,0,0,.1-.1.2h-2.5ZM132.4,166.1c-.3-.9-.7-1.8-1-2.8-.4,1-.7,1.9-1.1,2.8h2.1Z"/>
        <path class="cls-7" d="M157.3,169.5c0-.3.1-.6.3-1,1-2.6,2.1-5.2,3.2-7.8.2-.5.5-.7,1.1-.7,1.5,0,1.6,0,2.1,1.4,1,2.4,1.9,4.7,2.9,7.1.1.3,0,.6,0,1h-2.5c-.1-.3-.2-.6-.3-.8-.1-.2-.4-.5-.6-.5-.9,0-1.9,0-2.7,0-.3.5-.6.9-.8,1.3h-2.5ZM163.2,166.1c-.4-.9-.7-1.8-1.1-2.8-.4,1-.7,1.9-1.1,2.8h2.1Z"/>
        <path class="cls-7" d="M203.8,169.5c-1.2-3.1-2.5-6.2-3.8-9.4,1,0,1.8,0,2.6,0,.2,0,.5.3.6.6.6,1.5,1.1,3.1,1.7,4.8.2-.4.3-.7.4-1,.5-1.3.9-2.6,1.3-3.8.1-.4.3-.6.8-.6.7,0,1.5,0,2.3,0,0,.3,0,.5-.2.7-1.1,2.7-2.1,5.4-3.2,8-.1.2-.3.5-.4.7h-2.2Z"/>
        <path class="cls-7" d="M117.9,169.5c.9,0,1.8-.1,2.8-.2.8,0,1.5,0,2.3.2h-5Z"/>
        <path class="cls-7" d="M179.5,169.5h4-4Z"/>
        <path class="cls-7" d="M191.1,134.4v-.9c0-4.6,0-9.1,0-13.7,0-1.1,0-1.1,1.1-1.1,2.5,0,5,0,7.5,0,.7,0,.9.2.9.9,0,10.3,0,20.6,0,31,0,.7-.3,1-1,1-1.6,0-3.1,0-4.7,0-.7,0-1.2-.2-1.6-.8-3.9-4.8-7.8-9.5-11.7-14.3-.2-.3-.5-.6-.9-.8v.9c0,4.6,0,9.1,0,13.7,0,1.2,0,1.2-1.2,1.2-2.4,0-4.9,0-7.3,0-.7,0-1-.2-1-1,0-10.3,0-20.6,0-30.9,0-.9.2-1,1.1-1,1.5,0,3.1,0,4.6,0,.7,0,1.1.2,1.6.7,3.8,4.6,7.5,9.2,11.3,13.7.4.4.7.9,1.1,1.3,0,0,.1,0,.2,0Z"/>
        <path class="cls-7" d="M117.7,135c0-4.9,0-9.9,0-14.8q0-1.5,1.5-1.5c2.4,0,4.7,0,7.1,0,.8,0,1.1.3,1,1.1,0,3.1,0,6.3,0,9.4,0,1,.2,1.2,1.2,1.2,3.1,0,2.2.5,3.8-2.1,1.7-2.8,3.3-5.7,5-8.5.4-.7.9-1.1,1.8-1,2.9,0,5.7,0,8.6,0,.2,0,.6.1.6.3,0,.2,0,.5-.2.7-2.3,3.7-4.5,7.5-6.8,11.2-.6,1-1.2,2-1.9,3-.4.6-.4,1,0,1.6,3,4.9,6,9.9,9,14.8.2.3.4.8.2.9-.2.2-.6.3-.9.3-2.8,0-5.7,0-8.5,0-.7,0-1.1-.3-1.5-.8-2-3.4-4-6.8-6-10.3-.4-.7-.9-1-1.7-.9-.6,0-1.2,0-1.8,0-.7,0-.9.2-.9.9,0,3.3,0,6.5,0,9.8,0,1.4,0,1.4-1.3,1.4-2.5,0-4.9,0-7.4,0-.7,0-1-.2-1-.9,0-5.2,0-10.5,0-15.7,0,0,0,0,0,0Z"/>
        <path class="cls-7" d="M163.4,135.2c0,5.1,0,10.1,0,15.2,0,1.2,0,1.2-1.2,1.2-2.5,0-5,0-7.4,0-.7,0-1-.3-1-1,0-10.3,0-20.6,0-30.9,0-.8.3-1,1.1-1,2.5,0,5,0,7.5,0,1,0,1.1.1,1.1,1.1,0,5.1,0,10.2,0,15.4Z"/>
        <path class="cls-1" d="M62,153.4c-2.6.6-5.2,1.2-7.8,2-2.5.7-5,1.5-7.5,2.3-1.8.6-2.8.2-3.5-1.6-.6-1.5-1.1-3-1.7-4.4-.4-1.1-.3-2.1.5-3,0,.2,0,.4,0,.7,0,.6.4,1,1,.8,1.5-.5,3-1.2,4.5-1.8,1.3-.4,2.7-.9,4-1.3.5-.1.9-.2,1.4-.4,0,0,0-.1.1-.2,0,0,0,0,0,0,.2,0,.5,0,.7-.1,3.7-.9,7.4-1.9,11.1-2.8,1.4-.3,2.4,0,3.1,1.2,1.3,2.3,2.6,4.6,3.9,6.9,0,.1,0,.3,0,.4-.5-.1-1.1-.3-1.6-.3-1.3,0-2.5.3-3.8.5-1.6.3-3.2.8-4.7,1.1Z"/>
        <path class="cls-1" d="M90.7,130.2c3.5,1.8,6.9,3.7,10.4,5.6,1.6.9,3.2,1.9,4.8,2.8,1.3.7,1.8,1.8,1.5,3.3-.3,1.5-.6,2.9-1,4.4-.2.8-.7,1.4-1.5,1.6,0-.7-.2-1.2-.9-1.5-.5-.2-.9-.5-1.3-.8-.8-.5-1.6-1-2.3-1.5-.7-.4-1.3-.8-2-1.2-.6-.3-1.1-.7-1.7-1-.6-.3-1.2-.6-1.8-.9-.7-.4-1.4-.8-2.1-1.2-.2-.1-.4-.2-.6-.3-1.2-.7-2.5-1.5-3.7-2.1-2-1-4-2-6-3-1.5-.8-2.1-1.8-1.6-3.2.6-1.9,1.3-3.8,1.9-5.6,0,.2.1.5.2.7.2.7.9.9,1.5,1,.7.3,1.4.6,2,1,.6.3,1.2.6,1.8.9l2.4,1.2Z"/>
        <path class="cls-1" d="M70.2,122.1c2.2-1.2,4.3-2.5,6.6-3.7,2.8-1.4,5.8-2.7,8.6-3.9,1.3-.6,2.6-.6,4,0,1.5.6,3,1.1,4.4,1.8,1,.4,1.3,1.1,1,2.2,0-.1-.1-.3-.2-.4-.4,0-.9-.2-1.2,0-3.1,1.4-6.2,2.8-9.2,4.2-.2.1-.4.3-.6.5-.3.1-.6.2-.8.3-3,1.8-6,3.6-9,5.4-1.1.7-2.2,1.1-3.5.8-2.6-.8-5.3-1.7-7.9-2.6.3,0,.6-.1.9-.2.7-.3,1.3-.7,2-1,.7-.5,1.4-1,2.2-1.5.9-.6,1.8-1.2,2.7-1.8Z"/>
        <path class="cls-1" d="M54.2,134.7c-.5-2.6-1-5.3-1.6-7.9-.4-1.7,0-3.1,1.6-4.1,1.1-.7,2.1-1.6,3.3-2.3.6-.4,1.5-.4,2.2-.6-.6.3-1.5.5-1.3,1.4.4,1.6.9,3.2,1.4,4.8.1.4.2.8.3,1.2.9,2.3,1.8,4.6,2.8,7,.4,1.1.5,2.1-.4,2.9-2.1,2-4.2,3.9-6.3,5.8,0-.1,0-.2,0-.3.7-1.2,0-2.2-.5-3.2-.5-1.6-1-3.1-1.5-4.7Z"/>
        <path class="cls-12" d="M74.5,156.3c-.3,1.5-.5,2.9-.8,4.4-1.2-.2-2.3-.4-3.5-.6-1.7-.3-3.3-.5-5-.8-.9-1.5-1.7-3.1-2.6-4.6.3,0,.5-.2.8-.2,2.1.3,4.1.7,6.2,1.1,1.6.3,3.3.5,4.9.7Z"/>
        <path class="cls-4" d="M74.5,156.3c-1.6-.2-3.3-.4-4.9-.7-2.1-.3-4.1-.7-6.2-1.1-.2,0-.5.1-.8.2-.2-.4-.5-.8-.7-1.2,1.6-.4,3.1-.8,4.7-1.1,1.2-.2,2.5-.4,3.8-.5.5,0,1.1.2,1.6.3.8,1.2,1.6,2.5,2.5,3.7,0,.2,0,.3,0,.5Z"/>
        <path class="cls-13" d="M94.9,141.1c.6.3,1.2.6,1.8.9-.2.3-.3.6-.6.8-2,2.1-4.1,4.1-6.1,6.2-1,0-2,.2-3,.3.2-.3.3-.6.5-.8,2.3-2.3,4.5-4.5,6.8-6.8.2-.2.4-.3.6-.5Z"/>
        <path class="cls-8" d="M53,146.6l-1.4.4c-.2-.2-.3-.5-.5-.7-1.1-.7-2.3-1.3-3.4-2-.5-.3-.9-.8-1.4-1.2.6-.7,1.2-1.4,1.8-2,2.1,1.2,4.3,2.5,6.4,3.7-.5.6-.9,1.1-1.4,1.7,0,0,0,0,0,0,0,0,0,.1-.1.2Z"/>
        <path class="cls-3" d="M94.9,141.1c-.2.2-.4.3-.6.5-2.3,2.3-4.6,4.5-6.8,6.8-.2.2-.3.5-.5.8-.4,0-.9.1-1.3.2.2-1,.4-2,.7-3,.3-.1.6-.2.8-.4,1.8-1.8,3.6-3.6,5.4-5.4.2-.2.3-.5.4-.8.7.4,1.4.8,2.1,1.2Z"/>
        <path class="cls-5" d="M54.5,144.8c-2.1-1.2-4.3-2.5-6.4-3.7.6-.7,1.2-1.3,1.8-2,2.1,1.2,4.2,2.4,6.3,3.5,0,.1,0,.2,0,.3-.6.6-1.1,1.2-1.7,1.8Z"/>
        <path class="cls-10" d="M46.3,143.1c.5.4.9.9,1.4,1.2,1.1.7,2.3,1.3,3.4,2,.2.1.4.4.5.7-1.3.4-2.7.9-4,1.3-1.2-.7-2.5-1.5-3.7-2.2.8-1,1.6-2,2.4-3Z"/>
        <path class="cls-14" d="M65.2,159.3c1.7.3,3.3.5,5,.8,1.2.2,2.3.4,3.5.6-.1.8-.2,1.6-.3,2.3-.5,0-.9-.2-1.4-.3-1.7-.2-3.5-.5-5.2-.7l-1.6-2.7Z"/>
        <path class="cls-8" d="M90,148.9c2-2.1,4.1-4.1,6.1-6.2.2-.2.4-.5.6-.8.6.3,1.1.7,1.7,1-.2.3-.3.7-.5.9-1.3,1.3-2.7,2.7-4,4-.2.2-.4.5-.5.8-1.1,0-2.2.2-3.4.3Z"/>
        <path class="cls-3" d="M94.7,118c0,.1.1.3.2.4-.2.6-.5,1.2-.7,1.8-.3,0-.6.1-.9.3-2.4,1.4-4.8,2.8-7.1,4.1-1.1.6-2.2,1.1-3.2,1.7,0-.2-.1-.5-.2-.7,0-.3.2-.5.3-.8.4-.2.9-.3,1.3-.5,2.5-1.4,5-2.9,7.5-4.3,1-.6,1.9-1.2,2.8-1.8Z"/>
        <path class="cls-13" d="M82.9,126.2c1.1-.5,2.2-1.1,3.2-1.7,2.4-1.3,4.8-2.7,7.1-4.1.3-.1.6-.2.9-.3-.3.7-.6,1.4-.8,2.2-.3,0-.6.1-.9.3-1.6.9-3.2,1.9-4.8,2.8-1.1.6-2.2,1.2-3.2,1.8-.6-.1-1.3-.3-1.5-1Z"/>
        <path class="cls-3" d="M56.2,142.6c-2.1-1.2-4.2-2.4-6.3-3.5.6-.7,1.3-1.3,1.9-2,0,.2.1.4.3.5,1.2.6,2.4,1.2,3.6,1.9.5,1,1.2,2,.5,3.2Z"/>
        <path class="cls-11" d="M59.8,126c-.5-1.6-1-3.2-1.4-4.8-.2-.9.6-1.1,1.3-1.4.5,0,1.1.1,1.6.2,0,1.7,0,3.4,0,5.1,0,.4-.1.8-.2,1.1-.5,0-.9-.2-1.4-.2Z"/>
        <path class="cls-14" d="M93.3,148.6c.2-.3.3-.6.5-.8,1.3-1.3,2.7-2.7,4-4,.2-.2.3-.6.5-.9.7.4,1.3.8,2,1.2-.2.2-.3.5-.5.7-.9.9-1.8,1.8-2.7,2.7-.2.2-.4.6-.6.8-1.1,0-2.1.1-3.2.2Z"/>
        <path class="cls-8" d="M84.4,127.2c1.1-.6,2.2-1.2,3.2-1.8,1.6-.9,3.2-1.9,4.8-2.8.3-.1.6-.2.9-.3-.3.8-.6,1.6-.9,2.3-1.2.6-2.4,1.1-3.5,1.8-.9.5-1.7,1.1-2.5,1.7-.7-.3-1.4-.6-2-1Z"/>
        <path class="cls-10" d="M66.8,162c1.7.2,3.5.5,5.2.7.5,0,.9.2,1.4.3-.2.8-.3,1.6-.5,2.3-1.5-.2-3-.4-4.5-.7-.5-.9-1.1-1.8-1.6-2.6Z"/>
        <path class="cls-10" d="M96.5,148.4c.2-.3.4-.6.6-.8.9-.9,1.8-1.8,2.7-2.7.2-.2.3-.5.5-.7.8.5,1.6,1,2.3,1.5-.2.3-.5.5-.7.8-.5.6-1,1.2-1.5,1.8-1.3,0-2.7.1-4,.2Z"/>
        <path class="cls-5" d="M61.2,126.3c0-.4.2-.8.2-1.1,0-1.7,0-3.4,0-5.1.7.1,1.3.2,2,.4,0,2,0,4,0,6-.3,0-.6.1-.9.2-.4-.1-.9-.2-1.3-.3Z"/>
        <path class="cls-2" d="M43.9,146.1c1.2.7,2.5,1.5,3.7,2.2-1.5.6-3,1.2-4.5,1.8-.6.2-1-.1-1-.8,0-.2,0-.4,0-.7.6-.8,1.2-1.7,1.8-2.5Z"/>
        <path class="cls-8" d="M63.4,126.4c0-2,0-4,0-6,.7.1,1.3.3,2,.4,0,1.5,0,3,0,4.5-.7.3-1.3.7-2,1Z"/>
        <path class="cls-2" d="M68.4,164.6c1.5.2,3,.4,4.5.7,0,.7,0,1.3-.2,2-.2,1-1.1,1.1-1.9,1.1-.8-1.2-1.6-2.5-2.4-3.7Z"/>
        <path class="cls-10" d="M86.5,128.2c.8-.6,1.6-1.2,2.5-1.7,1.1-.7,2.3-1.2,3.5-1.8-.3.8-.6,1.7-.9,2.5-1.1.6-2.2,1.2-3.3,1.8-.6-.3-1.2-.6-1.8-.9Z"/>
        <path class="cls-11" d="M55.7,139.4c-1.2-.6-2.4-1.2-3.6-1.9-.1,0-.2-.3-.3-.5.8-.8,1.6-1.6,2.3-2.3.5,1.6,1,3.1,1.5,4.7Z"/>
        <path class="cls-10" d="M65.4,125.4c0-1.5,0-3,0-4.5.7.2,1.3.3,2,.5,0,.9.1,1.7.2,2.6-.7.5-1.4,1-2.2,1.5Z"/>
        <path class="cls-2" d="M100.5,148.2c.5-.6,1-1.2,1.5-1.8.2-.3.5-.5.7-.8.4.3.9.5,1.3.8.6.3.9.8.9,1.5-1.5.1-2.9.2-4.4.3Z"/>
        <path class="cls-2" d="M88.3,129.1c1.1-.6,2.2-1.2,3.3-1.8-.3,1-.6,2-.9,3-.8-.4-1.6-.8-2.4-1.2Z"/>
        <path class="cls-2" d="M67.5,123.9c0-.9-.1-1.7-.2-2.6.9.2,1.9.5,2.8.7-.9.6-1.8,1.2-2.7,1.8Z"/>
        <path class="cls-11" d="M88.8,139.9c1.1-.1,2.3-.3,3.4-.4.2.1.4.2.6.3-.1.3-.2.6-.4.8-1.8,1.8-3.6,3.6-5.4,5.4-.2.2-.5.3-.8.4.3-1.6.6-3.2,1.1-4.7.2-.7.9-1.2,1.4-1.8Z"/>
        <path class="cls-6" d="M53,146.6c0,0,0-.1.1-.2,0,0,0,.1-.1.2Z"/>
        <path class="cls-11" d="M83,124.7c.2-.7.4-1.4.7-2,.2-.2.4-.4.6-.5,3.1-1.4,6.1-2.8,9.2-4.2.3-.1.8,0,1.2,0-.9.6-1.9,1.3-2.8,1.8-2.5,1.5-5,2.9-7.5,4.3-.4.2-.9.3-1.3.5Z"/>
      </g>
    </g>
  </g>
</svg>