<?xml version="1.0" encoding="UTF-8"?>
<svg xmlns="http://www.w3.org/2000/svg" xmlns:xlink="http://www.w3.org/1999/xlink" version="1.1" viewBox="0 0 283.5 283.5">
  <defs>
    <style>
      .cls-1 {
        fill: #551f38;
      }

      .cls-2 {
        fill: #8d1432;
      }

      .cls-3 {
        fill: #b60d2c;
      }

      .cls-4 {
        fill: #6c1d36;
      }

      .cls-5 {
        fill: #761a35;
      }

      .cls-6 {
        fill: #811732;
      }

      .cls-7 {
        fill: #8d1332;
      }

      .cls-8 {
        fill: #fff;
      }

      .cls-9 {
        fill: #b50c2c;
      }

      .cls-10 {
        fill: url(#Nepojmenovaný_přechod_3);
      }

      .cls-11 {
        fill: #601e37;
      }

      .cls-12 {
        fill: #b60c2c;
      }
    </style>
    <linearGradient id="Nepojmenovaný_přechod_3" data-name="Nepojmenovaný přechod 3" x1="0" y1="495.8" x2="283.5" y2="495.8" gradientTransform="translate(0 -354)" gradientUnits="userSpaceOnUse">
      <stop offset="0" stop-color="#160017"/>
      <stop offset="1" stop-color="#a8001b"/>
    </linearGradient>
  </defs>
  <!-- Generator: Adobe Illustrator 28.7.1, SVG Export Plug-In . SVG Version: 1.2.0 Build 142)  -->
  <g>
    <g id="Vrstva_1">
      <g id="Vrstva_1-2-2">
        <rect class="cls-10" width="283.5" height="283.5"/>
      </g>
      <g>
        <path class="cls-8" d="M242.3,150.7c-2.5,0-5.1,0-7.6,0-.7,0-.9-.2-.9-.9,0-9.3,0-18.6,0-27.9,0-.7.3-.9.9-.9,2.5,0,5.1,0,7.6,0v29.7Z"/>
        <path class="cls-9" d="M68.9,166.8c-.3-.3-.7-.7-1-1,1.6,0,1.6,0,1.9-1.7,0-.6.2-1.1.3-1.7.2-1.1.3-2.1.5-3.2.2-.9.3-1.8.5-2.7.1-.7.2-1.4.3-2,0-.3.1-.7.2-1,.8-3.5,1.6-7,2.3-10.5.2-1,.8-1.8,1.8-1.9,2.8-.4,5.6-.6,8.4-1-.5.6-1.1,1.2-1.4,1.9-.4,1.2-.6,2.6-.8,3.9-.2.9-.4,1.8-.6,2.7-.9,4.9-1.8,9.9-2.7,14.8-.2,1.1-.9,1.8-2,2.1-1.8.3-3.6.7-5.3,1-.1,0-.2.1-.3.2h-2Z"/>
        <path class="cls-12" d="M60,152.4c-2.9.7-5.8,1.5-8.7,2.3-1.7.5-3.4,1.1-5.1,1.6-1.7.6-2.5.2-3.1-1.4-.6-1.6-1.2-3.2-1.8-4.8,0-.2,0-.4,0-.7.2-.4.4-.8.7-1.2,0,1,.4,1.4,1.2,1.1,1.2-.4,2.5-1,3.7-1.5,1.3-.4,2.6-.9,3.9-1.3.5-.2.9-.4,1.4-.5.3,0,.6,0,.9-.1,3.3-.8,6.5-1.7,9.8-2.5,1.2-.3,2.1,0,2.7.9,1.3,2.2,2.5,4.5,3.8,6.8-1.1-.4-2.2-.3-3.3,0-1.9.5-3.9.9-5.8,1.4Z"/>
        <path class="cls-3" d="M67.2,124c.3-.1.6-.2.8-.4,4.1-2.5,8.3-4.7,12.8-6.4.5-.2,1.1-.4,1.6-.6.3,0,.7,0,1,0,1.7.7,3.4,1.3,5.1,2,1.1.5,1.4,1,1,2.2,0-.1,0-.3,0-.4-.4,0-.8-.3-1.1-.2-2.8,1.2-5.7,2.5-8.5,3.8-.2,0-.3.3-.5.4-.2,0-.4.1-.6.3-2.7,1.6-5.4,3.3-8.1,4.9-1,.6-1.9,1.1-3.1.7-2.4-.7-4.8-1.6-7.2-2.4.5-.2,1.1-.4,1.6-.6.7-.5,1.4-.9,2.2-1.4,1-.7,2-1.5,3-2.2Z"/>
        <path class="cls-8" d="M177.6,166.8c0,0-.2-.2-.3-.2-2.5-1.1-3-4.3-1.7-6.4,1.3-2.1,4.6-2.7,6.8-1.2,2,1.3,2.4,4.3.9,6.3-.5.6-1.2,1-1.8,1.5h-3.9ZM181.5,162.6c0-1.2-.8-2.1-2-2.1-1.2,0-2,.8-2,2.1,0,1.3.8,2.1,2.1,2.1,1.1,0,1.9-.9,1.9-2.1Z"/>
        <path class="cls-8" d="M165.7,166.8v-8.4c1.6,0,3.1,0,4.6,0,1.8.1,3.1,1.5,3.4,3.4.3,2.1-.5,3.9-2.2,4.6-.2.1-.5.2-.7.4h-5ZM168.2,160.7v3.9c1,0,2.1.1,2.7-.9.4-.7.4-1.5,0-2.2-.6-1-1.6-.9-2.7-.8Z"/>
        <path class="cls-8" d="M156,166.8v-8.3c1.1-.3,2,0,2.6.9.7,1,1.5,1.9,2.4,3v-4h2.5v8.4h-1.8c-1-1.3-2-2.6-3.2-4.1v4.1h-2.5Z"/>
        <path class="cls-8" d="M110.1,166.8v-8.4c1.1,0,2.2,0,3.2,0,.5,0,.9,0,1.4,0,1.2,0,1.9.5,2.3,1.4.4,1,.1,1.8-.6,2.5.4.7.9,1.4,1,2.1.2,1.2-.6,1.9-1.6,2.5h-5.7ZM112.7,165.1c.5,0,1,.1,1.4,0,.3-.1.7-.5.8-.8,0-.2-.4-.7-.7-.8-.4-.1-1,0-1.5,0v1.7ZM112.7,161.9c.7-.2,1.4-.3,2-.6.1,0,.1-.7,0-.9-.5-.6-1.3-.4-2-.3v1.8Z"/>
        <path class="cls-8" d="M128.2,166.8v-8.4c1.8,0,3.5,0,5.1,0,1.1,0,1.9.8,2.2,1.8.3,1.2.2,2.3-.7,3.3-.2.2-.4.3-.6.5.5.9,1,1.8,1.5,2.7h-2.7c-.3-.5-.6-1.1-.8-1.6-.3-.7-.7-.9-1.5-.6v2.3h-2.5ZM130.7,162.5c.8-.2,1.7.4,2.3-.5.2-.3.1-.9,0-1.1-.6-.7-1.4-.3-2.2-.4v2.1Z"/>
        <path class="cls-8" d="M137.6,166.8v-8.4c1.7,0,3.3,0,5,0,1.1,0,1.8.8,2.2,1.8.4,1.2.2,2.3-.6,3.3-.2.2-.4.3-.6.5.5.9.9,1.8,1.4,2.7h-2.7c-.3-.6-.6-1.1-.8-1.7-.3-.7-.7-.8-1.4-.6,0,.8,0,1.5-.1,2.3h-2.3ZM140,162.4c.8,0,1.7.4,2.2-.4.2-.3.2-.9,0-1.1-.6-.7-1.4-.4-2.2-.4v2Z"/>
        <path class="cls-8" d="M118.1,166.8c1.1-2.7,2.1-5.4,3.2-8,0-.2.4-.3.6-.4.4,0,.8,0,1.2,0,.2,0,.5.2.5.4,1.1,2.7,2.2,5.3,3.2,8h-2.7c0-.8-.3-1.2-1.2-1.1-.4,0-.8,0-1.3,0-.9,0-1.1.3-1.1,1.1h-2.7ZM122.6,161.3c-.3.9-.6,1.7-.9,2.5h1.9c-.3-.9-.6-1.6-1-2.5Z"/>
        <path class="cls-8" d="M145.9,166.8c.3-.9.6-1.7.9-2.6.7-1.7,1.4-3.3,2-5,.2-.6.5-1,1.3-.8.4.1,1.2,0,1.3.3,1.1,2.6,2.2,5.3,3.2,7.9,0,0,0,.1,0,.2h-2.5c0-.9-.5-1.3-1.4-1.1-.3,0-.6,0-.8,0-.9-.2-1.4.2-1.4,1.1h-2.5ZM149.3,163.8h1.9c-.3-.8-.6-1.6-1-2.5-.4.9-.6,1.7-1,2.5Z"/>
        <path class="cls-8" d="M187.8,166.8c-1.1-2.8-2.2-5.5-3.4-8.4,1,0,1.7,0,2.5,0,.1,0,.3.4.4.6.5,1.4,1,2.7,1.5,4.3.5-1.5,1-2.8,1.4-4.1.2-.6.4-.9,1.1-.8.6,0,1.1,0,1.9,0-1.1,2.9-2.2,5.6-3.3,8.4h-2.2Z"/>
        <path class="cls-8" d="M217.3,135.3c-1.6,2.6-3.2,4.9-4.4,7.3-1,2.1-2.4,2.9-4.7,2.7-1.5-.1-2.3-.5-3-1.8-1.5-2.7-3.3-5.4-5.1-8-.1.9-.3,1.8-.4,2.7-.5,3.8-1.1,7.6-1.5,11.4,0,.8-.4,1.1-1.2,1.1-2.2,0-4.4,0-6.5,0-1,0-1.1,0-1-1.1.7-4.5,1.3-9,2-13.6.7-4.7,1.4-9.4,2.1-14.1,0-.7.3-.9,1-.9,1.4,0,2.8,0,4.2,0,.7,0,1.1.2,1.5.8,2.6,4.3,5.3,8.6,8,12.9.2.3.3.5.6.8,1.3-2.2,2.6-4.2,3.9-6.3,1.5-2.4,3-4.9,4.5-7.3.4-.6.8-.9,1.6-.9,1.4,0,2.8,0,4.2,0,.6,0,.9.2,1,.8.7,4.8,1.4,9.6,2.1,14.4.7,4.4,1.3,8.8,2,13.1.2,1.3.1,1.3-1.1,1.3-2.1,0-4.2,0-6.4,0-.7,0-1-.2-1.1-1-.6-4.6-1.2-9.1-1.9-13.7,0-.2,0-.4-.2-.9Z"/>
        <path class="cls-8" d="M142.3,135.8c0-4.6,0-9.2,0-13.7,0-.8.2-1.1,1-1,4.8,0,9.6,0,14.4,0,6.6,0,10.9,4.4,10.4,11.6-.2,3.3-1.7,6-4.5,7.8-.6.4-.3.7-.1,1,1.4,2.6,2.9,5.1,4.3,7.7.8,1.4.7,1.5-.9,1.5-2.2,0-4.5,0-6.7,0-.8,0-1.2-.3-1.6-1-1.1-2.3-2.3-4.5-3.4-6.8-.3-.6-.7-.9-1.4-.8-.7,0-1.5,0-2.2,0-.6,0-.8.2-.8.8,0,2.3,0,4.6,0,6.9,0,.7-.1.9-.9.9-2.3,0-4.6,0-6.9,0-.8,0-.9-.4-.9-1,0-4.6,0-9.3,0-13.9ZM150.8,131.8s0,0,0,0c0,1,0,2.1,0,3.1,0,.4.1.7.6.7,1.6,0,3.2,0,4.8,0,2-.1,3.2-1.5,3.3-3.5,0-2-1-3.5-3-3.7-1.7-.2-3.5-.1-5.3-.1-.2,0-.5.4-.5.7,0,1,0,2,0,3Z"/>
        <path class="cls-8" d="M110.1,136c0-4.5,0-9,0-13.5,0-1.3.2-1.5,1.4-1.5,2.1,0,4.3,0,6.4,0,.7,0,.9.2.9.9,0,2.9,0,5.8,0,8.7,0,.7.2,1.1,1,1,.2,0,.4,0,.6,0,1.5.4,2.2-.5,2.9-1.7,1.5-2.7,3.1-5.3,4.6-8,.3-.6.8-.8,1.5-.8,2.5,0,5.1,0,7.6,0,.3,0,.6.1.8.2,0,.3-.1.6-.3.9-2.5,4.1-5,8.3-7.6,12.4-.4.7-.5,1.2,0,2,2.7,4.4,5.3,8.8,8,13.1.1.2.2.6.3.8-.3,0-.6.2-.9.3-2.5,0-5.1,0-7.6,0-.7,0-1.1-.3-1.5-.9-1.8-3.1-3.6-6.1-5.4-9.2-.4-.7-.8-1-1.6-.8-.5,0-1,0-1.5,0-.6,0-.9.2-.8.8,0,3,0,6,0,9,0,1.1,0,1.1-1.1,1.1-2.2,0-4.4,0-6.6,0-.9,0-1-.3-1-1.1,0-4.5,0-9.1,0-13.6Z"/>
        <path class="cls-8" d="M174.7,135.7c0-4.6,0-9.2,0-13.7,0-.7.2-1,.9-.9,2.3,0,4.6,0,6.9,0,.7,0,1,.3,1,1,0,9.2,0,18.5,0,27.7,0,.8-.3,1-1,1-2.3,0-4.5,0-6.8,0-.7,0-1-.3-1-1,0-4.7,0-9.4,0-14.1,0,0,0,0,0,0Z"/>
        <path class="cls-9" d="M85.8,131.3c.6.4,1.2.7,1.8,1.1,3.9,2.1,7.7,4.3,11.6,6.4,1.8,1,2.1,1.8,1.6,3.7-.2,1.1-.5,2.2-.7,3.3-.2.8-.6,1.4-1.5,1.6-.2-.4-.2-1-.5-1.2-1.2-.8-2.6-1.6-3.9-2.3-1.2-.7-2.4-1.4-3.5-2.2-.9-.5-1.8-.9-2.6-1.4-.3-.2-.6-.3-.9-.5-.3-.2-.7-.5-1-.7-2.6-1.3-5.2-2.7-7.8-4-1.2-.6-1.8-1.5-1.5-2.5.5-1.8,1.2-3.6,1.8-5.4.2.3.3.6.5.8.6.3,1.2.7,1.9,1,.7.3,1.5.7,2.2,1,.9.4,1.8.8,2.7,1.2Z"/>
        <path class="cls-11" d="M88,140.3c.9.5,1.8.9,2.6,1.4-.2.2-.3.5-.5.7-1.7,1.7-3.4,3.3-5,5-.2.2-.3.6-.5.9-1.1.1-2.2.2-3.3.4.2-.9.4-1.8.6-2.7.3-.2.6-.3.8-.5,1.8-1.7,3.5-3.4,5.3-5.2Z"/>
        <path class="cls-5" d="M84.6,148.4c.2-.3.3-.7.5-.9,1.7-1.7,3.3-3.4,5-5,.2-.2.3-.5.5-.7,1.2.7,2.4,1.4,3.5,2.2-.4.5-.8,1-1.2,1.5-.8.9-1.6,1.7-2.5,2.6-2,.2-3.9.3-5.9.5Z"/>
        <path class="cls-2" d="M90.5,147.9c.8-.8,1.7-1.7,2.5-2.6.4-.5.8-1,1.2-1.5,1.3.8,2.6,1.5,3.9,2.3.3.2.3.8.5,1.2-1,0-2.1.2-3.1.3-1.6,0-3.3.1-4.9.2Z"/>
        <path class="cls-4" d="M80.9,129.1c-.6-.3-1.2-.7-1.9-1,.2-.2.5-.4.7-.5,2.5-1.4,4.9-2.9,7.4-4.3.5-.3,1.1-.4,1.6-.6-.3.7-.6,1.5-.8,2.2-.2,0-.5,0-.7.2-1.5.8-2.9,1.7-4.4,2.5-.7.4-1.3,1-1.9,1.4Z"/>
        <path class="cls-11" d="M88.8,122.7c-.5.2-1.1.3-1.6.6-2.5,1.4-4.9,2.8-7.4,4.3-.3.2-.5.4-.7.5-.2-.3-.3-.6-.5-.8,0-.3.2-.6.3-.8.3,0,.6,0,.9-.2,1.8-1.1,3.7-2.1,5.5-3.2,1.4-.8,2.8-1.6,4.2-2.5,0,.1,0,.3,0,.4-.2.6-.5,1.2-.7,1.8Z"/>
        <path class="cls-6" d="M80.9,129.1c.6-.5,1.3-1,1.9-1.4,1.4-.9,2.9-1.7,4.4-2.5.2-.1.5-.1.7-.2-.3.9-.7,1.9-1,2.8-1.3.7-2.5,1.4-3.8,2.1,0,0,0,.2,0,.2-.7-.3-1.5-.7-2.2-1Z"/>
        <path class="cls-2" d="M83.1,130.1c0,0,0-.2,0-.2,1.3-.7,2.5-1.4,3.8-2.1-.4,1.2-.8,2.4-1.1,3.5-.9-.4-1.8-.8-2.7-1.2Z"/>
        <path class="cls-3" d="M52.8,135.5c-.4-2.1-.9-4.2-1.3-6.3-.1-.7-.2-1.3-.2-2,0-.8.2-1.4.8-1.9,1.3-1,2.5-1.9,3.8-2.8.5-.3,1.2-.3,1.9-.5-.6.3-1.3.6-1.1,1.4.3,1.5.8,2.9,1.3,4.3,0,.3.1.6.2.9.8,2.1,1.7,4.3,2.5,6.4.4,1,.4,2-.5,2.8-1.8,1.7-3.7,3.4-5.5,5.1,0-.8.4-1.7-.3-2.4-.6-1.7-1.1-3.3-1.7-5Z"/>
        <path class="cls-5" d="M52,146c-.5.2-.9.4-1.4.5-.2-.2-.3-.5-.5-.6-.8-.5-1.7-.9-2.5-1.4-.7-.4-1.3-.9-2-1.4.8-.9,1.6-1.8,2.3-2.7.1.2.2.5.4.6,1.7,1,3.5,2,5.2,3-.6.7-1.1,1.3-1.7,2Z"/>
        <path class="cls-11" d="M53.7,144c-1.7-1-3.5-2-5.2-3-.2-.1-.3-.4-.4-.6.7-.8,1.5-1.6,2.2-2.3.7.5,1.5,1,2.3,1.5.6.4,1.3.6,2,.9.7.7.3,1.6.3,2.4-.4.4-.7.8-1.1,1.2Z"/>
        <path class="cls-6" d="M45.7,143.1c.7.5,1.3.9,2,1.4.8.5,1.7.9,2.5,1.4.2.1.3.4.5.6-1.3.4-2.6.9-3.9,1.3-1.1-.7-2.1-1.3-3.2-2,.7-.9,1.5-1.8,2.2-2.7Z"/>
        <path class="cls-1" d="M58,127.7c-.4-1.4-.9-2.8-1.3-4.3-.2-.7.6-1,1.1-1.4.6,0,1.2.1,1.8.2,0,.2.2.4.2.6,0,1.7,0,3.4,0,5.1-.6-.1-1.2-.2-1.8-.3Z"/>
        <path class="cls-4" d="M59.8,128c0-1.7,0-3.4,0-5.1,0-.2-.1-.4-.2-.6.8.2,1.6.3,2.3.5,0,1.6,0,3.3,0,4.9-.5.2-1.1.4-1.6.6-.2,0-.4,0-.6-.1Z"/>
        <path class="cls-1" d="M54.5,140.5c-.7-.3-1.4-.5-2-.9-.8-.4-1.5-1-2.3-1.5.9-.9,1.7-1.8,2.6-2.6.6,1.7,1.1,3.3,1.7,5Z"/>
        <path class="cls-7" d="M43.6,145.8c1.1.7,2.1,1.3,3.2,2-1.2.5-2.4,1-3.7,1.5-.8.3-1.1,0-1.2-1.1.6-.8,1.1-1.6,1.7-2.4Z"/>
        <path class="cls-6" d="M62,127.6c0-1.6,0-3.3,0-4.9.7.2,1.5.3,2.2.5,0,1,0,2,0,3-.7.5-1.4.9-2.2,1.4Z"/>
        <path class="cls-2" d="M64.2,126.3c0-1,0-2,0-3,1,.3,2,.5,3,.8-1,.7-2,1.5-3,2.2Z"/>
        <path class="cls-4" d="M71,156.6c-.2.9-.3,1.8-.5,2.7-.9-.1-1.8-.3-2.7-.4-1.6-.2-3.2-.5-4.7-.7-.6-1-1.1-2-1.7-3,1.6.2,3.2.5,4.8.7,1.6.2,3.2.5,4.8.7Z"/>
        <path class="cls-11" d="M71,156.6c-1.6-.2-3.2-.5-4.8-.7-1.6-.2-3.2-.5-4.8-.7-.4-.8-.8-1.6-1.2-2.4.4,0,.8,0,1.2,0,2.9.5,5.8,1.1,8.7,1.6.3,0,.6-.1.8-.2l.4.4c-.1.7-.2,1.4-.3,2Z"/>
        <path class="cls-1" d="M70.9,154.2c-.3,0-.6.2-.8.2-2.9-.5-5.8-1.1-8.7-1.6-.4,0-.8,0-1.2,0,0-.1-.1-.2-.2-.3,1.9-.5,3.9-.9,5.8-1.4,1.1-.3,2.2-.4,3.3,0,.6,1,1.2,2.1,1.9,3.1Z"/>
        <path class="cls-6" d="M63.1,158.1c1.6.2,3.2.5,4.7.7.9.1,1.8.3,2.7.4-.2,1.1-.3,2.1-.5,3.2-.2,0-.4,0-.7,0-1.4-.2-2.7-.4-4.1-.5,0,0,0,0,0,0,0,0,0-.1-.1-.2-.7-1.2-1.4-2.3-2.1-3.5Z"/>
        <path class="cls-7" d="M65.3,161.8c1.4.2,2.7.4,4.1.5.2,0,.4,0,.7,0-.1.6-.2,1.1-.3,1.7-.2,1.6-.3,1.7-1.9,1.7-.8-1.3-1.7-2.7-2.5-4Z"/>
        <path class="cls-7" d="M65.2,161.6c0,0,0,.1.1.2,0,0,0-.1-.1-.2Z"/>
        <path class="cls-1" d="M84.1,140.2c1-.1,2-.3,3-.4.3.2.6.3.9.5-1.8,1.7-3.5,3.5-5.3,5.2-.2.2-.5.4-.8.5.3-1.3.4-2.6.8-3.9.2-.7.9-1.3,1.4-1.9Z"/>
        <path class="cls-1" d="M78.9,126.4c.2-.6.4-1.2.5-1.8.2-.1.3-.3.5-.4,2.8-1.3,5.6-2.6,8.5-3.8.3-.1.7.1,1.1.2-1.4.8-2.8,1.6-4.2,2.5-1.8,1.1-3.7,2.2-5.5,3.2-.2.1-.6.1-.9.2Z"/>
      </g>
    </g>
  </g>
</svg>