<?xml version="1.0" encoding="UTF-8"?>
<svg id="Vrstva_1" data-name="Vrstva 1" xmlns="http://www.w3.org/2000/svg" version="1.1" viewBox="0 0 283.5 283.5">
  <defs>
    <style>
      .cls-1 {
        fill: #79aebc;
      }

      .cls-1, .cls-2 {
        stroke-width: 0px;
      }

      .cls-2 {
        fill: #fff;
      }
    </style>
  </defs>
  <rect class="cls-1" width="283.5" height="283.5"/>
  <g>
    <path id="path6041" class="cls-2" d="M59.6,83.7v46.1h46.1v-46.1h-46.1ZM117.2,83.7v46.1h46.1v-46.1h-46.1ZM174.7,83.7v46.1h46.1v-46.1h-46.1ZM199.7,93.5c1.4,0,2.8.1,4.1.4,1.3.3,2.4.7,3.6,1.3v5c-1-.7-2.1-1.2-3.3-1.5-1.2-.4-2.4-.5-3.7-.5-1.8,0-3.3.3-4.5,1-1.2.6-2.2,1.7-2.9,2.9-.7,1.3-1,2.8-1,4.6s.3,3.4,1,4.6c.6,1.3,1.6,2.2,2.8,2.9,1.2.7,2.7,1,4.5,1,2.7,0,5.1-.7,7.4-2.1v5h0c-1.1.6-2.3,1.1-3.7,1.4-1.4.4-2.9.5-4.5.5s-3.9-.3-5.6-.9c-1.6-.6-3-1.5-4.2-2.6-1.2-1.1-2-2.5-2.6-4.2-.6-1.7-.9-3.5-.9-5.6s.3-3.8.9-5.5c.6-1.6,1.6-3,2.7-4.2,1.2-1.2,2.6-2.1,4.3-2.6,1.6-.6,3.5-.9,5.6-.9h0ZM130.3,93.9h9.7c2.8,0,5.1.6,6.6,1.7,1.6,1.2,2.4,2.8,2.4,4.9s-.3,2.3-.8,3.2c-.6.9-1.4,1.6-2.5,2.1,1.5.5,2.7,1.3,3.5,2.4.8,1.1,1.2,2.4,1.2,4,0,1.6-.4,2.9-1.2,4-.8,1.1-1.9,2-3.3,2.5-1.5.6-3.2.9-5.2.9h-10.3v-25.8ZM135.5,98v6.5h4c1.4,0,2.4-.3,3.1-.9.7-.6,1.1-1.4,1.1-2.5,0-2.3-1.4-3.2-4.2-3.2h-4ZM135.5,108.5v7.1h4.5c1.6,0,2.8-.3,3.6-.9.8-.6,1.3-1.4,1.3-2.5,0-2.5-1.8-3.6-4.8-3.6h-4.6ZM72.8,93.9h9.7c2.8,0,5.1.6,6.6,1.7,1.6,1.2,2.4,2.8,2.4,4.9s-.3,2.3-.8,3.2c-.6.9-1.4,1.6-2.5,2.1,1.5.5,2.7,1.3,3.5,2.4.8,1.1,1.2,2.4,1.2,4,0,1.6-.4,2.9-1.2,4-.8,1.1-1.9,2-3.3,2.5-1.5.6-3.2.9-5.2.9h-10.3v-25.8ZM78,98v6.5h4c1.4,0,2.4-.3,3.1-.9.7-.6,1.1-1.4,1.1-2.5,0-2.3-1.4-3.2-4.2-3.2h-4ZM78,108.5v7.1h4.5c1.6,0,2.8-.3,3.6-.9.8-.6,1.3-1.4,1.3-2.5,0-2.5-1.8-3.6-4.8-3.6h-4.6Z"/>
    <path id="path8337" class="cls-2" d="M172.6,199.8c-2.8,0-5.7-.3-8.5-.9-2.8-.6-5.4-1.6-8-3v-10c5.2,3.1,10.6,4.7,16.4,4.7s5.8-.6,7.5-1.7c1.7-1.1,2.6-2.7,2.6-4.6,0-1.5-.4-2.7-1.3-3.5-.8-.9-1.9-1.5-3.3-2-1.4-.5-3-1-4.7-1.4-2.8-.7-5.4-1.4-7.5-2.3-2.2-.9-4-1.9-5.5-3-1.5-1.2-2.6-2.6-3.4-4.3-.8-1.7-1.2-3.7-1.2-6,0-3.3.8-6.1,2.5-8.5,1.7-2.4,4.1-4.2,7.1-5.4,3-1.3,6.7-2,10.9-2s5.5.3,8.1.9c2.7.6,5,1.5,7.2,2.5v9.8c-2.1-1.3-4.5-2.3-7.2-3-2.7-.7-5.3-1.1-8-1.1s-5.2.5-6.9,1.5c-1.6,1-2.4,2.5-2.4,4.3s.4,2.4,1.2,3.3c.8.8,1.9,1.4,3.3,2,1.4.5,3.1,1,5.1,1.4,2.5.6,4.8,1.3,6.9,2.1,2.1.7,4,1.7,5.6,2.8,1.6,1.2,2.9,2.6,3.8,4.4.9,1.8,1.4,4,1.4,6.6s-.8,6.4-2.5,8.8c-1.7,2.4-4.1,4.3-7.3,5.6-3.2,1.3-7,1.9-11.5,1.9h0Z"/>
    <path id="path8339" class="cls-2" d="M198,147h43.7v9.7h-16.3v42h-11.2v-42h-16.3v-9.7Z"/>
    <path id="path8362" class="cls-2" d="M41.8,147h34.5v9.3h-23.4v12.7h20.6v9.3h-20.6v20.5h-11.2v-51.7Z"/>
    <path id="path8364" class="cls-2" d="M85.3,147h11.2v51.7h-11.2v-51.7Z"/>
    <path id="path8366" class="cls-2" d="M119.1,179.9v18.8h-11v-51.7h18.9c6.8,0,12,1.4,15.6,4.3,3.7,2.8,5.5,6.9,5.5,12.2s-.8,6.3-2.5,8.7c-1.6,2.4-3.9,4.3-6.9,5.6,2.2,3.4,4.3,6.9,6.4,10.3,2.1,3.4,4.2,6.9,6.4,10.6h-12.8c-3.5-6.4-7.1-12.6-10.8-18.8h-8.9ZM119.1,171.1h7.2c3.4,0,6-.6,7.8-1.8,1.8-1.3,2.7-3.2,2.7-5.9s-.9-4.6-2.7-5.9c-1.7-1.3-4.3-1.9-7.7-1.9h-7.3v15.4Z"/>
  </g>
</svg>