<?xml version="1.0" encoding="UTF-8"?>
<svg xmlns="http://www.w3.org/2000/svg" version="1.1" viewBox="0 0 283.5 283.5">
  <defs>
    <style>
      .cls-1 {
        fill: #eb0000;
      }

      .cls-2 {
        fill: #fff;
      }
    </style>
  </defs>
  <!-- Generator: Adobe Illustrator 28.7.1, SVG Export Plug-In . SVG Version: 1.2.0 Build 142)  -->
  <g>
    <g id="Vrstva_1">
      <rect class="cls-1" width="283.5" height="283.5"/>
      <g>
        <path class="cls-2" d="M44.5,79.5v54.9h54.9v-54.9h-54.9ZM82.8,118.2c-1,1.4-2.4,2.4-4,3.1-2,.7-4.1,1.1-6.2,1.1h-12.4v-30.8h11.6c3.4,0,6,.7,7.9,2.1,1.9,1.4,2.8,3.4,2.8,5.9,0,1.4-.3,2.7-1,3.8-.7,1.1-1.7,2-3,2.6,1.7.5,3.1,1.5,4.2,2.9,1,1.4,1.5,3.1,1.4,4.8.1,1.7-.4,3.4-1.3,4.7h0ZM75,103.2c.9-.7,1.4-1.8,1.3-3,0-2.4-1.7-3.7-5-3.7h-4.7v7.7h4.7c1.6,0,2.8-.3,3.7-1ZM72,109.1h-5.5v8.3h5.5c1.9,0,3.3-.4,4.3-1.1,1-.7,1.6-1.8,1.5-3.1,0-2.9-1.9-4.3-5.7-4.2h0ZM113.1,79.5v54.9h54.9v-54.9h-54.9ZM151.4,118.2c-1,1.4-2.4,2.4-4,3.1-2,.7-4.1,1.1-6.3,1.1h-12.3v-30.8h11.6c3.4,0,6,.7,8,2.1,1.9,1.4,2.8,3.4,2.8,5.9,0,1.4-.3,2.7-1,3.8-.7,1.1-1.7,2-3,2.6,1.7.5,3.1,1.5,4.2,2.9,1,1.4,1.5,3.1,1.4,4.8,0,1.7-.4,3.4-1.4,4.7h0ZM143.6,103.2c.9-.7,1.4-1.8,1.3-3,0-2.4-1.7-3.7-5-3.7h-4.7v7.7h4.7c1.6,0,2.8-.3,3.7-1h0ZM140.6,109.1h-5.5v8.3h5.5c1.9,0,3.3-.4,4.3-1.1,1-.7,1.6-1.8,1.5-3.1,0-2.9-1.9-4.3-5.7-4.2h0ZM181.7,134.4h54.9v-54.9h-54.9v54.9h0ZM221.1,120.4c-1.4.7-2.9,1.3-4.4,1.7s-3.5.6-5.3.6c-2.2,0-4.5-.3-6.7-1.1-1.9-.7-3.6-1.7-5-3.1-1.4-1.4-2.5-3.1-3.1-5-.7-2.1-1.1-4.4-1.1-6.6,0-2.2.4-4.4,1.1-6.5.7-1.9,1.8-3.5,3.2-5,1.5-1.4,3.2-2.5,5.1-3.2,2.1-.7,4.4-1.1,6.7-1.1s3.2.2,4.9.5c1.5.3,2.9.9,4.2,1.6v6c-1.2-.8-2.5-1.4-3.9-1.8-1.4-.4-2.9-.6-4.4-.6-1.9,0-3.7.4-5.4,1.2-1.5.7-2.7,2-3.4,3.4-.9,1.7-1.2,3.5-1.2,5.5,0,1.9.3,3.8,1.2,5.5.7,1.5,1.9,2.7,3.4,3.4,1.7.8,3.5,1.2,5.4,1.2,3.1,0,6.2-.9,8.8-2.5v5.9h0Z"/>
        <g>
          <polygon class="cls-2" points="106 194.4 130 194.4 130 203 95.7 203 95.7 154.9 128.7 154.9 128.7 163.5 106 163.5 106 174 126.2 174 126.2 182.6 106 182.6 106 194.4"/>
          <path class="cls-2" d="M188.5,154.9h11.1c-1.9,8.1-3.9,16.2-6,24.3-2.1,8-4.3,15.9-6.6,23.8h-11c-3.1-10.8-5.9-21.7-8.7-32.5-2.7,10.9-5.5,21.7-8.6,32.5h-11c-2.3-7.9-4.5-15.8-6.6-23.8-2.1-8-4.1-16.1-6-24.3h11.3c1.1,6.2,2.3,12.5,3.5,18.7s2.6,12.3,4,18.4c3-11.6,5.9-23.3,8.5-35h10.1c2.7,11.5,5.5,22.8,8.5,34.2,1.4-6,2.7-12,3.9-18,1.2-6.1,2.4-12.2,3.5-18.3Z"/>
          <path class="cls-2" d="M239,188.9c0,3.2-.8,5.9-2.4,8.2s-3.9,4-6.8,5.2c-3,1.2-6.5,1.8-10.7,1.8s-5.3-.3-7.8-.9c-2.6-.6-5.1-1.5-7.4-2.7v-9.3c4.6,2.9,9.8,4.4,15.3,4.4s5.4-.5,7-1.6c1.5-.9,2.4-2.6,2.4-4.3,0-1.4-.4-2.5-1.2-3.2-.9-.9-1.9-1.5-3.1-1.9-1.4-.5-2.9-.9-4.4-1.3-2.4-.6-4.7-1.2-7-2.2-1.8-.7-3.5-1.7-5.1-2.9-1.4-1.1-2.4-2.4-3.2-4-.7-1.7-1.1-3.7-1.1-5.5,0-3.1.7-5.7,2.3-7.8,1.7-2.3,3.9-4,6.5-5,2.8-1.2,6.2-1.8,10.1-1.8s5,.3,7.5.9c2.3.5,4.5,1.3,6.7,2.4v9.2c-2.1-1.2-4.4-2.2-6.7-2.8-2.4-.7-5-1-7.5-1s-4.9.5-6.3,1.4c-1.4.8-2.3,2.4-2.2,4,0,1.1.3,2.2,1.1,3,.9.8,1.9,1.4,3.1,1.8,1.3.5,2.9.9,4.7,1.4,2.3.6,4.4,1.2,6.3,1.9,1.9.6,3.6,1.6,5.2,2.7,1.5,1.1,2.7,2.5,3.5,4.1.8,1.6,1.2,3.5,1.2,6Z"/>
          <path class="cls-2" d="M86.2,154.9v48.1h-10.5c-3.5-5.6-7-11.2-10.6-16.8-3.5-5.5-7-11-10.6-16.4v33.2h-10v-48.1h10.5c3.6,5.4,7.2,10.8,10.7,16.3s7,11,10.5,16.6v-32.9h10Z"/>
        </g>
      </g>
    </g>
  </g>
</svg>