<?xml version="1.0" encoding="UTF-8"?>
<svg xmlns="http://www.w3.org/2000/svg" version="1.1" viewBox="0 0 283.5 283.5">
  <defs>
    <style>
      .cls-1 {
        fill: #fff;
      }
    </style>
  </defs>
  <!-- Generator: Adobe Illustrator 28.7.1, SVG Export Plug-In . SVG Version: 1.2.0 Build 142)  -->
  <g>
    <g id="Vrstva_1">
      <rect width="283.5" height="283.5"/>
      <g>
        <path class="cls-1" d="M47,126h4.3c4,0,5.7,1.2,5.7,3.8s-1.7,3.7-5.2,3.7h-4.7v-7.5h0ZM41.8,150.9h10.6c5.5,0,11.1-2,11.1-8.4s-2.7-6.7-6.3-7.1h0c3-1,5.1-3.2,5.1-6.5,0-5.3-4.5-7.4-9-7.4h-11.5v29.3ZM47,138h5c4.2,0,6.2,1.1,6.2,4.2s-3.7,4.3-6.4,4.3h-4.8v-8.5Z"/>
        <path class="cls-1" d="M66.9,120.9h5v30h-5v-30h0Z"/>
        <path class="cls-1" d="M80.2,141c0-3.1,2.2-6,5.8-6s5.8,2.9,5.8,6-2.2,6-5.8,6c-3.6,0-5.8-2.8-5.8-6ZM75.2,141c0,6.2,4.8,10.5,10.8,10.5s10.8-4.2,10.8-10.5-4.8-10.5-10.8-10.5c-6,0-10.8,4.2-10.8,10.5h0Z"/>
        <path class="cls-1" d="M104.1,141c0-3.1,2.2-6,5.8-6s5.8,2.9,5.8,6-2.2,6-5.8,6c-3.7,0-5.8-2.8-5.8-6ZM99.1,141c0,6.2,4.8,10.5,10.8,10.5s10.8-4.2,10.8-10.5-4.8-10.5-10.8-10.5c-6,0-10.8,4.2-10.8,10.5Z"/>
        <path class="cls-1" d="M123.8,131h4.7v3.1h0c.9-1.9,2.8-3.6,6.1-3.6s5.2,1.2,6.2,3.7c1.5-2.5,3.6-3.7,6.5-3.7,5.3,0,7.2,3.8,7.2,8.5v11.9h-5v-11.3c0-2.5-.7-4.6-3.7-4.6s-4.3,2.6-4.3,5.1v10.8h-5v-11.9c0-2.5-1-4.1-3.4-4.1s-4.5,2.4-4.5,5v10.9h-5v-19.9h0Z"/>
        <path class="cls-1" d="M175.1,141c0,3.1-2.2,6-5.8,6s-5.8-2.9-5.8-6,2.2-6,5.8-6,5.8,2.9,5.8,6ZM158.6,150.9h4.7v-3h0c1.5,2.4,4.1,3.5,6.8,3.5,6.1,0,9.8-4.5,9.8-10.5s-4-10.5-9.6-10.5-5.7,1.7-6.7,3h-.1v-12.7h-5v30Z"/>
        <path class="cls-1" d="M187.3,139c.4-2.9,2.2-4.7,5.1-4.7s5,1.8,5,4.7h-10.2,0ZM202.5,142.7v-1.4c0-6.9-3.8-10.8-9.3-10.8s-10.8,4.2-10.8,10.5,4.8,10.5,10.8,10.5,6.1-1.1,8.4-4l-3.6-2.7c-1.2,1.5-2.9,2.7-5.3,2.7s-5-1.8-5.3-4.7h15.2,0Z"/>
        <path class="cls-1" d="M205.7,131h5v3.2h0c1.1-2.3,3.3-3.7,5.9-3.7s1.2.1,1.8.3v4.8c-.8-.2-1.6-.4-2.4-.4-4.7,0-5.3,4-5.3,5v10.7h-5v-19.9h0Z"/>
        <path class="cls-1" d="M229.6,135c3.6,0,5.9,2.4,5.9,5.8s-2.2,5.8-5.9,5.8-5.8-2.6-5.8-5.7,2.4-5.9,5.9-5.9h0ZM235.5,131v3h0c-1.5-2.4-4.1-3.5-6.8-3.5-6.1,0-9.8,4.6-9.8,10.5s4,10.2,9.9,10.2,5-1,6.5-2.9h0v1.5c0,4-1.5,6.7-6.3,6.7s-4.8-1-6.8-2.9l-3,4.1c2.8,2.5,6.2,3.3,9.9,3.3,7.7,0,11.2-4.5,11.2-11.7v-18.1h-4.7,0Z"/>
      </g>
    </g>
  </g>
</svg>