<?xml version="1.0" encoding="UTF-8"?>
<svg xmlns="http://www.w3.org/2000/svg" version="1.1" viewBox="0 0 1024 1024">
  <defs>
    <style>
      .cls-1 {
        fill: #1c1c1c;
      }

      .cls-2 {
        fill: #00ff91;
      }

      .cls-3 {
        fill: #fff;
      }

      .cls-4 {
        fill: #0f4c11;
      }
    </style>
  </defs>
  <!-- Generator: Adobe Illustrator 28.7.1, SVG Export Plug-In . SVG Version: 1.2.0 Build 142)  -->
  <g>
    <g id="Vrstva_1">
      <g id="Vrstva_1-2" data-name="Vrstva_1">
        <rect class="cls-1" width="1024" height="1024"/>
      </g>
      <g>
        <path id="path4" d="M119,550.6h784.9v-196.2H119v196.2Z"/>
        <path id="path5" class="cls-3" d="M870.4,461.1s-.2.3-.6.3h-42.4c-.7,0-1,.4-1,.4,0,0-.5.2-.5,1v45.1c0,.7-.3.8-.3.8,0,0-.2.3-.7.3h-33.6c-.5,0-.8-.3-.8-.3,0,0-.1-.2-.1-1v-45.1c0-.5-.5-.8-.5-.8,0,0-.2-.4-.7-.4h-43.3c-.8,0-1-.1-1-.1,0,0-.3-.4-.3-1.4v-33c0-.4.3-.9.3-.9,0,0,.2-.1.5-.1h44.3c.4,0,.4-.2.4-.2,0,0,.4-.2.4-.5v-39.6c0-.4.1-.8.1-.8,0,0,.3-.2,1.3-.2h32.9c.7,0,.9.2.9.2,0,0,.3.4.3,1v39.7h43c1.1,0,1.5.2,1.5.2,0,0,.5.2.5,1.2v33.4c0,.4-.5.8-.5.8"/>
        <path id="path6" class="cls-3" d="M739.3,507.9c-.2,1-.4,1.3-.4,1.3,0,0-.2.4-1,.4h-68.1c-2,0-2.5-.5-2.5-.5,0,0-.3-.7-.2-2.2l16.9-117.4c.1-1.5.5-2,.5-2h32.7c.8,0,1.2.2,1.2.2,0,0,.1.5,0,1.1l-12.8,91.8c-.2,1,.3,1.1.3,1.1,0,0,.4.2,1.6.2h33.7c.7,0,1,.3,1,.3,0,0,.2.2.2,1l-3.3,24.7ZM652.4,509.6h-30.2c-.7.4-1.2-.3-1.2-.3,0,0-.2-.2-.3-1.1l-4-18.7c-.3-1-.7-1.5-.7-1.5,0,0-.8-.5-1.8-.5h-39.4c-.8,0-1.3.5-1.3.5,0,0-.7.7-1,1.6l-9,19c-.2.5-.5.7-.5.7,0,0-.7.2-1,.2h-34.1c-.8.1-1.1-.4-1.1-.4,0,0-.2-.3.3-1l60-119.9c.3-.2.7-.6.7-.6,0,0,.4-.2,1.3-.2h37.2c.8,0,1.3.5,1.3.5,0,0,.2.2.3.7l25,120.4c0,.3-.2.5-.2.5,0,0,0,.1-.5.1M510.7,509.5h-31.3s-.2-.2-.3-.4l-42-74.6c-.4-.4-.5-.4-.5-.4,0,0-.3,0-.3.5l-10.4,73.3c-.2.8-.4,1-.4,1,0,0-.4.2-.8.2h-30.1c-.5,0-.8-.3-.8-.3,0,0-.7-.7-.6-1.3l16.6-118.6c.2-.7.5-.8.5-.8,0,0,.5-.5,1-.5h33.6c.5,0,.8.3.8.3,0,0,.4.2.5.7l37.9,66.4c.7,1.4,1.1,1.2,1.1,1.2,0,0,.6,0,.9-1.5l9.6-66.1c0-.5.4-.7.4-.7,0,0,.2-.3.6-.3l31.6.3c.6,0,.8.2.8.2,0,0,.1.2.1.5l-17,119.5c-.2.7-.5,1.1-.5,1.1,0,0-.2.2-1,.2M378.4,509.1l-29.5.2c-.7,0-1.1-.3-1.1-.3,0,0-.2-.2-.4-1.3l-4.6-19c0-.5-.4-.7-.4-.7h-41.9c-.9,0-1.3.7-1.3.7,0,0-.7.5-1.2,1.7l-8.2,17.7c-.4.6-.5.8-.5.8,0,0-.5.3-1,.3h-34.3c-1,.2-1.1-.3-1.1-.3,0,0-.2-.6.2-1.2l59.4-119.4c.4-.6.8-.8.8-.8h39.1c.6,0,1.1.5,1.1.5,0,0,.2.2.3.7l25.5,119.6c0,.6-.3.7-.3.7,0,0-.2.2-.5.2M602.7,422s-.2,0-.3.6l-16.5,37.5c-.4,1.1-.2,1.3-.2,1.3,0,0,.5.3.9.3l24.5-.2h.3s.2-.2,0-.6l-8.3-38.4c-.2-.5-.3-.5-.3-.5M328.1,422.5s-.2,0-.4.4l-16.4,37.5c-.4.6-.3.9-.3.9,0,0,.3.2,1,.2l24.3.2c.2,0,.3-.2.3-.2,0,0,.2-.2,0-.6l-8.4-37.9c0-.4-.2-.4-.2-.4M243.4,505c-.2,1.3-.8,2.3-.8,2.3,0,0-.7.7-1.9.9-15.9,6.5-33.5,4.3-33.5,4.3-28.6-3.1-46.8-20.7-52.7-43.3-8.6-33.9,8.4-58.1,12.6-63.2,10.1-12.1,25.9-20.7,41.2-22.7,19.7-2.8,34.3,1.8,40.2,3.8,0,0,6.6,2.2,11.6,5.5,2.5,1.7,2.7,2.4,2.7,2.4,0,0,.2.3-.5,2.9l-4.6,24.3c-.2,1-.8,1.5-.8,1.5,0,0-.4.1-2.6-1.4-14.9-10.6-32.3-9.2-32.3-9.2-13.2.8-28.6,7.8-33.3,25.3-4.1,15.6.2,28.6,9.4,36.4,6.3,5.4,16.1,8.2,26.3,7.7,11.2-.8,20.1-5.3,19.5-5,0,0,.5-.2,1-.3,2.3-1.2,2.8-1,2.8-1,0,0,.5.5.2,2.1l-4.6,26.6Z"/>
        <path id="path7" class="cls-4" d="M323.9,550.8v117.9h383.1v-117.9h-383.1Z"/>
        <path id="path8" class="cls-2" d="M392.9,587.5c-4-3.3-8.2-5-12.5-5s-3.9.5-5.5,1.5c-1.9,1.2-2.7,2.8-2.7,4.8s1.4,3.8,4,5.1c.8.4,3.9,1.5,9.3,3.1,6,1.9,10.5,4.3,13.4,7.4,3.1,3.3,4.7,7.8,4.7,13.2s-.9,9.8-2.7,13.4c-2.3,4.3-5.9,7.7-11.1,10-4.4,2-9.4,2.9-14.9,2.9s-10.9-1.2-16.7-3.6c-2.9-1.2-5.2-2.3-6.6-3.3-.7-.5-1.4-1-2.3-1.5l8.1-15.4c5.8,5,11.4,7.5,17,7.5s4.7-.6,6.4-1.7c1.9-1.3,2.9-3.1,2.9-5.6s-1-3.8-3.1-5.3c-1-.7-2.4-1.3-4.5-2-.7-.2-2-.6-3.9-1.2l-3.9-1.2c-2.5-.7-4.8-1.7-7.3-2.9-5.8-3-8.7-8.5-8.7-16.5s2.4-13.4,7-18c4.6-4.6,10.7-6.9,18.1-6.9s15.9,2,23.4,6l-7.7,14.9Z"/>
        <path id="path9" class="cls-2" d="M446.3,568.3c7.9,0,14,2.1,18.4,6.2,4.8,4.5,7.2,10.7,7.2,18.3,0,16.5-8.3,24.8-24.9,24.8h-12v24.5h-19.2v-73.8h30.5ZM441.3,602.2c7,0,10.5-3,10.5-9.1s-3.5-9.3-10.5-9.3h-6.4v18.4h6.3Z"/>
        <path id="path10" class="cls-2" d="M548.6,633.8c-7.9,7.4-17.5,11-29,11s-21.3-3.8-29.2-11.1c-7.8-7.5-11.7-16.6-11.7-27.6s2.2-15.9,6.5-22.5c4.3-6.6,10.4-11.5,17.9-14.5,4.9-2,10.3-3,16-3,12,0,21.8,3.8,29.6,11.1,7.8,7.4,11.7,16.8,11.7,28.2s-3.9,21-11.9,28.3M534.3,590.8c-4-4-9-6-14.7-6s-10.5,2.1-14.7,6.1c-4,4-6.1,8.8-6.1,14.4s2,10.8,6,14.8c4,4.1,8.9,6.1,14.7,6.1s10.7-2.1,14.7-6.1c4-4,6.1-9,6.1-14.6s-2.1-10.7-6.1-14.7"/>
        <path id="path11" class="cls-2" d="M608.3,642.2l-17.6-29.3-3.6,29.3h-18.7l9.1-73.8h24c17.5,0,26.1,7.4,26.1,22.5s-2,13.1-6.5,17.4c-2.3,2.3-4.3,3.3-9.1,5.3l18.1,28.6h-21.7ZM595.3,601c7.9,0,13.3-3.7,13.3-9.3s-3.9-7.5-10.7-7.5h-3.6l-2.4,16.8h3.3Z"/>
        <path id="path12" class="cls-2" d="M670,584.6v57.6h-19.2v-57.6h-15.5v-16.2h50.7v16.2h-16Z"/>
        <rect class="cls-2" x="706.7" y="550.8" width="117.9" height="117.9"/>
        <path id="_6" class="cls-4" d="M770.3,590.6c-3.8,0-6.9.8-10.1,2.1l-.2-.2,20.6-24h-21.4l-15.7,20c-6.3,8-11.6,18-11.6,28.3s3.9,14.8,9.8,19.5c5.6,4.4,13.7,6.1,20.7,6.1,16.6,0,31.3-9.4,31.3-26.8s-9.1-24.9-23.4-24.9h0ZM762.4,627.9c-6.6,0-12-5.3-12-11.7s5.4-11.6,12-11.6,11.6,5.2,11.6,11.6-5.1,11.7-11.6,11.7Z"/>
      </g>
    </g>
  </g>
</svg>