<svg width="284" height="284" viewBox="0 0 284 284" fill="none" xmlns="http://www.w3.org/2000/svg">
<rect width="283.5" height="283.5" fill="#F81D28"/>
<g clip-path="url(#clip0_16_388)">
<path d="M197.178 69.5466C193.776 68.2525 189.905 69.3113 187.559 72.1349L139.47 129.899C137.358 132.487 136.889 136.135 138.297 139.193C139.704 142.252 142.754 144.252 146.155 144.252L185.565 144.369V154.487C185.565 159.31 189.436 163.193 194.245 163.193C199.054 163.193 202.925 159.31 202.925 154.487V144.252H208.32C213.129 144.252 217 140.369 217 135.545C217 130.722 213.129 126.84 208.32 126.84H202.807V77.6643C202.925 74.0172 200.696 70.8408 197.178 69.5466ZM185.565 126.84H164.688L185.565 101.664V126.84Z" fill="white"/>
<path d="M70.0323 147.31C67.2172 149.663 66.2789 153.546 67.569 156.957C68.8592 160.369 72.0263 162.605 75.6622 162.605L127.74 162.37C132.549 162.37 136.42 158.487 136.42 153.663C136.42 148.84 132.549 144.957 127.74 144.957L99.2381 145.075C107.918 137.546 117.184 129.31 120.468 126.017C131.259 114.84 132.667 105.311 132.667 98.3701C132.667 94.0171 131.025 87.3115 126.567 81.429C122.814 76.4879 115.659 70.488 103.461 70.0175C79.1811 69.0761 71.0877 87.3113 70.7361 88.0172C70.2671 89.0757 70.0323 90.2524 70.0323 91.4286C70.0323 96.252 73.903 100.134 78.712 100.134C82.3479 100.134 85.3975 97.8992 86.8052 94.7228C87.7435 93.0757 91.966 86.9582 102.757 87.3113C114.604 87.7817 115.307 98.2523 115.307 98.3699C115.307 102.252 114.721 106.958 107.918 113.899C102.874 119.075 78.8293 139.781 70.0323 147.31Z" fill="white"/>
<path d="M205.942 172.134H78.3266C72.353 172.134 67.4658 176.982 67.4658 183.027V204.107C67.4658 210.098 72.299 215 78.3266 215H205.942C211.915 215 216.803 210.152 216.803 204.107V183.027C216.803 177.037 211.969 172.134 205.942 172.134Z" fill="white"/>
<path d="M176.78 204.815L175.748 201.057H167.983L166.951 204.815H160.761L166.463 186.187C167.277 183.463 169.558 182.156 171.839 182.156C174.12 182.156 176.401 183.463 177.215 186.187L182.917 204.815H176.78Z" fill="#F81D28"/>
<path d="M149.791 204.815L147.727 200.621C146.967 199.095 146.098 198.551 144.143 198.551H143.057L143.003 204.76H137.029V182.647H146.316C151.528 182.647 155.547 185.098 155.547 189.999C155.547 192.941 153.918 195.337 151.311 196.155C152.397 196.863 153.157 198.17 154.135 200.185L156.416 204.869H149.791V204.815Z" fill="#F81D28"/>
<path d="M119.164 205.305C125.612 205.305 130.839 200.135 130.839 193.758C130.839 187.38 125.612 182.211 119.164 182.211C112.716 182.211 107.488 187.38 107.488 193.758C107.488 200.135 112.716 205.305 119.164 205.305Z" fill="#F81D28"/>
<path d="M146.369 188.202H143.111L143.057 193.158H146.315C148.107 193.158 149.302 192.178 149.302 190.599C149.302 188.965 148.053 188.202 146.369 188.202Z" fill="white"/>
<path d="M119.164 199.586C122.163 199.586 124.594 196.977 124.594 193.758C124.594 190.539 122.163 187.93 119.164 187.93C116.165 187.93 113.733 190.539 113.733 193.758C113.733 196.977 116.165 199.586 119.164 199.586Z" fill="white"/>
<path d="M171.947 187.603C171.838 187.603 171.73 187.712 171.676 187.93L169.558 195.665H174.283L172.164 187.93C172.11 187.712 172.056 187.603 171.947 187.603Z" fill="white"/>
<path d="M101.298 204.815H95.2699V196.536H86.5813V204.815H80.5537V182.647H86.5813V190.98H95.2699V182.647H101.298V204.815Z" fill="#F81D28"/>
<path d="M196.275 205.305C192.093 205.305 188.835 203.562 187.314 200.294L192.365 197.788C192.962 199.15 194.211 199.75 196.275 199.75C197.904 199.75 199.098 199.259 199.098 198.224C199.098 196.917 197.795 196.699 195.786 196.427C192.473 195.936 187.64 194.629 187.64 189.346C187.64 185.261 191.279 182.156 196.166 182.156C200.021 182.156 203.28 183.899 204.801 187.167L199.75 189.673C199.153 188.583 197.958 187.712 195.895 187.712C194.429 187.712 193.668 188.148 193.668 189.074C193.668 190.327 195.135 190.708 197.252 191.035C200.511 191.525 205.127 192.778 205.127 198.115C205.127 202.201 201.162 205.305 196.275 205.305Z" fill="#F81D28"/>
</g>
<defs>
<clipPath id="clip0_16_388">
<rect width="150" height="146" fill="white" transform="translate(67 69)"/>
</clipPath>
</defs>
</svg>
