<?xml version="1.0" encoding="UTF-8"?>
<svg xmlns="http://www.w3.org/2000/svg" version="1.1" viewBox="0 0 1024 1024">
  <defs>
    <style>
      .cls-1 {
        fill: #fff;
      }

      .cls-1, .cls-2 {
        fill-rule: evenodd;
      }

      .cls-3 {
        fill: #ce0000;
      }

      .cls-4 {
        fill: #1c1c1c;
      }

      .cls-2 {
        fill: #f1f0d7;
      }

      .cls-5 {
        fill: #020407;
      }
    </style>
  </defs>
  <!-- Generator: Adobe Illustrator 28.7.1, SVG Export Plug-In . SVG Version: 1.2.0 Build 142)  -->
  <g>
    <g id="Vrstva_1">
      <rect class="cls-4" width="1024" height="1024"/>
      <g>
        <path id="Path_1202" class="cls-5" d="M93.9,344.2h835.1v208.6H93.9v-208.6Z"/>
        <path id="Path_1204" class="cls-1" d="M893.4,457.7s-.2.3-.7.3h-45c-.8,0-1.1.5-1.1.5,0,0-.5.2-.5,1v48.1c0,.7-.3.8-.3.8,0,0-.3.3-.8.3h-35.8c-.5,0-.8-.3-.8-.3,0,0-.2-.2-.2-1v-48.1c0-.5-.5-.8-.5-.8,0,0-.2-.5-.8-.5h-47.1s-.3-.5-.3-1.6v-35c0-.5.3-1,.3-1,0,0,.2-.2.5-.2h47.2c.3,0,.3-.2.3-.2,0,0,.3-.2.3-.5v-42.2c0-.3.2-.8.2-.8,0,0,.3-.2,1.5-.2h35c.7,0,1,.2,1,.2,0,0,.3.5.3,1.1v42.2h45.8c1.1,0,1.5.2,1.5.2,0,0,.5.2.5,1.3v35.5c0,.3-.5.8-.5.8h0ZM754,507.6c-.3,1-.5,1.3-.5,1.3,0,0-.2.3-1,.3h-72.4c-2.1,0-2.8-.5-2.8-.5,0,0-.3-.8-.2-2.3l18-124.9c.2-1.5.7-2.1.7-2.1h34.8c.8,0,1.1.2,1.1.2,0,0,.2.7,0,1.3l-13.6,97.6c-.2,1.1.3,1.1.3,1.1,0,0,.3.3,1.6.3h36c.8,0,1.1.3,1.1.3,0,0,.2.2.2,1l-3.4,26.3ZM629.4,509.4c-.7.5-1.3-.3-1.3-.3,0,0-.2,0-.3-1.1l-4.3-19.8c-.3-1.1-.7-1.6-.7-1.6,0,0-1-.5-2-.5h-41.9c-.8,0-1.5.5-1.5.5,0,0-.7.7-1,1.6l-9.6,20.3c-.2.7-.3.7-.3.7,0,0-.8.3-1.1.3h-36.3c-.8,0-1.1-.3-1.1-.3,0,0-.2-.5.3-1.1l63.9-127.5c.2-.2.7-.7.7-.7,0,0,.3-.2,1.5-.2h39.6c.8,0,1.5.5,1.5.5,0,0,.2.2.2.7l26.6,128.2c0,.2-.2.5-.2.5h-32.7,0ZM510.7,509.4h-33.2s-.2-.3-.3-.3l-44.8-79.5c-.3-.3-.5-.3-.5-.3,0,0-.3,0-.3.5l-11.1,78c-.2.8-.3,1.1-.3,1.1,0,0-.3.2-.8.2h-32c-.7,0-.8-.5-.8-.5,0,0-.8-.7-.7-1.3l17.7-126.2c.2-.7.5-.8.5-.8,0,0,.5-.5,1.1-.5h35.6c.5,0,.8.3.8.3,0,0,.3.2.7.7l40.2,70.8c.7,1.5,1.1,1.1,1.1,1.1,0,0,.7,0,1-1.6l10.1-70.3c0-.5.5-.7.5-.7,0,0,.2-.3.7-.3l33.7.3c.7,0,.8.2.8.2v.5l-18,127.2c-.2.7-.5,1.1-.5,1.1,0,0-.2.3-1.1.3ZM369.9,509h-31.4c-.7,0-1.1-.2-1.1-.2,0,0-.3-.3-.3-1.5l-4.9-20.3c0-.5-.5-.7-.5-.7h-44.5c-1,0-1.5.7-1.5.7,0,0-.8.5-1.3,1.8l-8.8,18.8c-.3.7-.5.8-.5.8,0,0-.5.5-1,.5h-36.5c-1.1,0-1.1-.5-1.1-.5,0,0-.3-.5,0-1.1l63.3-127c.3-.7.8-.8.8-.8h41.5c.7,0,1.1.5,1.1.5,0,0,.3.2.5.7l27.1,127.4c0,.5-.5.8-.5.8,0,0-.2.2-.5.2ZM608.5,416.2l-.2.7-17.7,39.9c-.3,1.3-.2,1.3-.2,1.3,0,0,.5.5,1,.5l26-.2h.3s.2-.3,0-.7l-8.8-41c-.2-.5-.5-.5-.5-.5h0ZM316.5,416.7s-.3,0-.5.5l-17.5,39.9c-.3.7-.2,1-.2,1h1.1l25.8.3c.2,0,.3-.3.3-.3,0,0,.2,0,0-.7l-9-40.2c0-.5-.2-.5-.2-.5h0ZM226.2,504.6c-.2,1.3-.8,2.5-.8,2.5,0,0-.7.7-1.8,1-17,6.9-35.8,4.6-35.8,4.6-30.4-3.3-49.7-22.1-55.9-46.1-9.2-36,8.8-61.6,13.2-67.2,10.8-12.8,27.5-21.9,43.8-24,20.9-3.1,36.5,1.8,42.8,4.1,0,0,7.2,2.3,12.4,5.7,2.6,1.8,2.9,2.6,2.9,2.6,0,0,0,.2-.5,3.1l-5.1,25.8c-.2,1-.8,1.6-.8,1.6,0,0-.3,0-2.8-1.6-15.9-11.3-34.3-9.8-34.3-9.8-14.1,1-30.4,8.3-35.3,27-4.4,16.5.2,30.4,10,38.7,6.7,5.7,17.2,8.7,28,8.3,11.9-1,21.4-5.7,20.9-5.4,0,0,.3-.2,1-.3,2.5-1.3,2.9-1.1,2.9-1.1,0,0,.5.7.2,2.3l-5.1,28.3Z"/>
        <path id="Path_1205" class="cls-3" d="M357.2,552.9h489v125.9h-489v-125.9Z"/>
        <path id="ACTION" class="cls-2" d="M445.4,652.6l-5.2-13.9h-28.6l-5.6,13.9h-21.9l30.7-79.8h22.6l30.1,79.8h-22.1ZM426.2,597.5l-8.8,25.3h17.3l-8.5-25.3ZM531.4,649c0,1.3-1,2.3-2.9,2.9-5.6,2-10.8,2.9-15.7,2.9-7.4,0-14.4-1.8-21.3-5.6-13.6-7.5-21.1-20.3-21.1-36s2.3-16.3,6.9-23.4c4.7-7,11-12.3,18.8-15.5,5.1-2.3,10.6-3.3,16.3-3.3s8.3.7,12.9,1.8c1.3.3,2.5.7,3.3,1.1l1.3.5c.8.5,1.5,1.1,1.5,2.1v20.6c0,.5-.3.8-.7.8,0,0-.3-.3-.8-.7-1.6-1.5-4.1-2.8-7-3.9-3.4-1.1-6.4-1.6-8.8-1.6-9.3,0-17.2,4.9-20.6,13.1-1.1,2.6-1.8,5.6-1.8,8.7,0,6,2.3,11,6.7,14.7,4.3,3.6,9.3,5.4,15.4,5.4s12.3-2,16.2-5.9c.3-.5.7-.7.8-.7.5,0,.7.7.7,2v19.8ZM579.7,590.5v62.3h-20.8v-62.3h-16.8v-17.7h54.8v17.7h-17.2ZM607.6,652.8v-79.9h20.8v79.9h-20.8ZM811.8,652.8h-22.2l-21.3-35.8c-1-1.8-2.1-3.8-3.4-6.4-2.6-4.9-3.8-7.2-6.4-13.4v3.6c0,5.9-.2,10.1-.8,15l-4.4,36.9h-20.3l9.8-79.9h21.7l22.9,38.6,3.3,6.4,3.1,6.2,1.6,2.9c0-1.5,0-2.6.2-3.3,0-3.1.3-7,.8-10.5l4.9-40.4h20.3l-9.8,79.9ZM683.2,655.4c-25,0-43-17.2-43-41.5s19-43.8,44.6-43.8,42,16.7,42,40.9-18.1,44.5-43.7,44.5ZM684.5,589.2c-13.6,0-23.7,10.5-23.7,24.2s9.5,22.9,22.2,22.9,23.2-10.1,23.2-23.7-9.3-23.4-21.7-23.4h0Z"/>
      </g>
    </g>
  </g>
</svg>