<?xml version="1.0" encoding="UTF-8"?>
<svg xmlns="http://www.w3.org/2000/svg" version="1.1" viewBox="0 0 1024 1024">
  <defs>
    <style>
      .cls-1 {
        fill: #1c1c1c;
      }

      .cls-2 {
        fill: #00ff91;
      }

      .cls-3 {
        fill: #fff;
      }

      .cls-4 {
        fill: #0f4c11;
      }
    </style>
  </defs>
  <!-- Generator: Adobe Illustrator 28.7.1, SVG Export Plug-In . SVG Version: 1.2.0 Build 142)  -->
  <g>
    <g id="Vrstva_1">
      <g id="Vrstva_1-2" data-name="Vrstva_1">
        <rect class="cls-1" width="1024" height="1024"/>
      </g>
      <g>
        <rect x="119.5" y="354.8" width="784.9" height="196.2"/>
        <g>
          <path class="cls-3" d="M870.9,461.5s-.1.3-.6.3h-42.4c-.7,0-1,.3-1,.3,0,0-.4.2-.4,1v45.1c0,.7-.3.8-.3.8,0,0-.2.3-.7.3h-33.5c-.5,0-.8-.3-.8-.3,0,0-.1-.2-.1-1v-45.1c0-.5-.5-.8-.5-.8,0,0-.2-.3-.7-.3h-43.4c-.8,0-1-.2-1-.2,0,0-.3-.4-.3-1.4v-33c0-.4.3-.8.3-.8,0,0,.2-.1.5-.1h44.3c.4,0,.4-.2.4-.2,0,0,.3-.2.3-.5v-39.5c0-.5.1-.8.1-.8,0,0,.3-.2,1.3-.2h32.9c.7,0,.8.2.8.2,0,0,.3.4.3,1v39.7h43c1.1,0,1.5.2,1.5.2,0,0,.5.2.5,1.1v33.4c0,.3-.5.8-.5.8"/>
          <path class="cls-3" d="M243.9,505.4c-.2,1.3-.8,2.3-.8,2.3,0,0-.7.7-1.8,1-15.8,6.5-33.5,4.3-33.5,4.3-28.6-3.1-46.9-20.6-52.7-43.3-8.6-33.9,8.5-58,12.6-63.1,10.1-12.1,25.8-20.6,41.2-22.7,19.6-2.8,34.2,1.8,40.2,3.8,0,0,6.6,2.2,11.6,5.5,2.5,1.7,2.8,2.3,2.8,2.3,0,0,.2.3-.5,3l-4.7,24.3c-.2,1-.8,1.5-.8,1.5,0,0-.4.1-2.6-1.4-14.9-10.6-32.3-9.2-32.3-9.2-13.2.8-28.6,7.8-33.3,25.3-4.1,15.5.2,28.6,9.4,36.4,6.3,5.4,16.1,8.2,26.3,7.7,11.3-.8,20.2-5.3,19.5-5,0,0,.5-.1,1-.3,2.3-1.2,2.8-1,2.8-1,0,0,.5.5.2,2l-4.6,26.6h0ZM328.6,422.9s-.2,0-.3.3l-16.5,37.5c-.3.5-.2.8-.2.8,0,0,.2.2,1,.2l24.3.2c.2,0,.3-.2.3-.2,0,0,.2-.2,0-.6l-8.4-37.9c0-.3-.2-.3-.2-.3M603.1,422.5s-.1,0-.3.6l-16.5,37.4c-.4,1.1-.2,1.3-.2,1.3,0,0,.5.3.9.3h24.5c0-.1.3-.1.3-.1,0,0,.2-.2,0-.7l-8.3-38.4c-.1-.5-.3-.5-.3-.5M378.9,509.6h-29.4c-.7.1-1.2-.2-1.2-.2,0,0-.2-.2-.3-1.3l-4.6-19c0-.5-.3-.7-.3-.7h-42c-.9,0-1.3.7-1.3.7,0,0-.7.5-1.2,1.7l-8.2,17.7c-.3.6-.5.8-.5.8,0,0-.5.3-1,.3h-34.3c-.9.1-1.1-.3-1.1-.3,0,0-.2-.5.2-1.2l59.3-119.4c.3-.7.8-.8.8-.8h39.1c.6,0,1.1.5,1.1.5,0,0,.2.1.3.7l25.5,119.7c0,.5-.3.7-.3.7,0,0-.2.2-.5.2M511.2,509.9h-31.3s-.2-.2-.3-.3l-42-74.6c-.3-.3-.5-.3-.5-.3,0,0-.3,0-.3.5l-10.4,73.3c-.2.8-.4,1-.4,1,0,0-.4.2-.8.2h-30.1c-.5,0-.8-.3-.8-.3,0,0-.7-.7-.5-1.3l16.6-118.6c.2-.7.5-.8.5-.8,0,0,.5-.5,1-.5h33.6c.5,0,.8.3.8.3,0,0,.3.1.5.7l37.9,66.4c.6,1.4,1.1,1.2,1.1,1.2,0,0,.5,0,.8-1.5l9.6-66.1c0-.5.4-.7.4-.7,0,0,.2-.3.6-.3l31.6.3c.7,0,.8.1.8.1,0,0,.1.2.1.5l-17,119.5c-.2.7-.5,1.1-.5,1.1,0,0-.2.2-1,.2M652.9,510h-30.3c-.6.4-1.2-.3-1.2-.3,0,0-.2-.1-.3-1.1l-4-18.6c-.3-1-.7-1.5-.7-1.5,0,0-.8-.5-1.8-.5h-39.4c-.8,0-1.3.5-1.3.5,0,0-.7.7-1,1.7l-8.9,19c-.2.5-.5.7-.5.7,0,0-.7.2-1,.2h-34.1c-.8.1-1.1-.3-1.1-.3,0,0-.2-.3.3-1l60-119.9c.3-.2.7-.7.7-.7,0,0,.3-.2,1.3-.2h37.2c.8,0,1.4.5,1.4.5,0,0,.2.1.3.7l24.9,120.4c0,.3-.1.5-.1.5,0,0,0,.1-.5.1M739.8,508.3c-.2,1-.3,1.3-.3,1.3,0,0-.2.3-1,.3h-68.1c-2,0-2.5-.5-2.5-.5,0,0-.3-.7-.1-2.2l16.9-117.4c.1-1.5.5-2,.5-2h32.7c.8,0,1.2.2,1.2.2,0,0,.2.5,0,1.1l-12.8,91.8c-.2,1,.3,1.1.3,1.1,0,0,.4.2,1.6.2h33.7c.7,0,1,.3,1,.3,0,0,.2.2.2,1l-3.3,24.6h0Z"/>
        </g>
        <rect class="cls-4" x="441.8" y="551" width="384.7" height="118.2"/>
        <g>
          <path class="cls-2" d="M509.5,589.8c-4-3.3-8.2-5-12.5-5s-3.9.5-5.5,1.6c-1.9,1.2-2.8,2.8-2.8,4.8s1.4,3.8,4,5.1c.8.4,3.8,1.5,9.3,3.2,6,1.9,10.5,4.3,13.4,7.4,3.1,3.3,4.7,7.8,4.7,13.2s-.9,9.8-2.8,13.4c-2.3,4.3-5.9,7.7-11.1,10-4.4,2-9.4,3-14.9,3s-10.9-1.2-16.7-3.5c-2.9-1.2-5.1-2.3-6.6-3.3-.7-.5-1.5-1-2.4-1.6l8.2-15.4c5.8,5,11.4,7.5,16.9,7.5s4.7-.6,6.4-1.7c1.9-1.3,2.9-3.2,2.9-5.6s-1-3.8-3-5.3c-1-.7-2.5-1.3-4.5-2-.7-.2-2-.6-3.9-1.2l-3.9-1.2c-2.5-.7-4.8-1.7-7.3-3-5.8-3-8.7-8.5-8.7-16.4s2.4-13.5,7-18c4.6-4.6,10.7-6.9,18.1-6.9s15.9,2,23.4,6l-7.7,15h0Z"/>
          <path class="cls-2" d="M557.9,604.5c7,0,10.5-3,10.5-9.2s-3.4-9.3-10.4-9.3h-6.4v18.4h6.3,0ZM562.9,570.6c7.9,0,14,2.1,18.4,6.2,4.8,4.5,7.2,10.6,7.2,18.3,0,16.5-8.3,24.8-24.9,24.8h-12v24.5h-19.2v-73.8h30.5Z"/>
          <path class="cls-2" d="M650.9,593.1c-4-4-9-6-14.7-6s-10.5,2.1-14.7,6.1c-4,4-6.1,8.8-6.1,14.4s2,10.8,6,14.9c4,4,9,6.1,14.8,6.1s10.6-2.1,14.7-6.1c4-4,6.1-9,6.1-14.7s-2.1-10.6-6.1-14.7M665.2,636.1c-7.9,7.4-17.5,11-28.9,11s-21.3-3.7-29.1-11.1c-7.8-7.5-11.7-16.6-11.7-27.6s2.2-15.9,6.5-22.4c4.3-6.6,10.3-11.5,17.9-14.6,4.9-2,10.2-3,16-3,11.9,0,21.8,3.7,29.5,11.1,7.8,7.4,11.7,16.8,11.7,28.2s-3.9,21-11.9,28.4"/>
          <path class="cls-2" d="M711.9,603.3c7.9,0,13.3-3.7,13.3-9.4s-3.8-7.5-10.7-7.5h-3.5l-2.4,16.8h3.3ZM724.9,644.5l-17.6-29.2-3.5,29.2h-18.7l9.1-73.8h24c17.5,0,26.1,7.4,26.1,22.4s-2,13.2-6.5,17.4c-2.4,2.3-4.3,3.3-9.2,5.3l18.1,28.7h-21.8,0Z"/>
        </g>
        <polygon class="cls-2" points="786.5 586.9 786.5 644.5 767.3 644.5 767.3 586.9 751.8 586.9 751.8 570.6 802.5 570.6 802.5 586.9 786.5 586.9"/>
      </g>
    </g>
  </g>
</svg>