<svg width="500" height="500" viewBox="0 0 500 500" fill="none" xmlns="http://www.w3.org/2000/svg">
<g clip-path="url(#clip0_8_186)">
<rect width="500" height="500" fill="white"/>
<rect width="500" height="500" fill="#2ECCF2"/>
<path d="M226.201 233.311C224.681 211.099 214.853 189.637 196.318 178.017C176.007 165.293 144.385 164.45 123.931 176.872C100.214 191.255 87.6141 220.007 90.3754 248.456C92.9417 274.997 104.958 300.381 130.316 308.895C153.437 316.672 183.916 316.264 204.467 301.381C225.52 286.143 227.903 258.103 226.201 233.311Z" fill="white"/>
<path d="M336.618 168.682C315.808 169.274 295.327 178.762 283.639 198C270.832 219.094 268.619 252.781 279.285 275.205C291.642 301.167 317.9 315.958 344.593 314.326C369.489 312.826 393.729 301.18 402.838 274.52C411.133 250.202 412.142 217.66 399.177 195.025C385.908 171.865 359.836 168.011 336.618 168.682Z" fill="white"/>
<path d="M166.6 197.361C165.165 197.045 163.754 196.848 162.367 196.729C148.624 195.19 134.832 198.558 126.817 211.888C119.264 224.482 118.315 243.535 122.633 257.418C127.608 273.433 140.293 284.75 156.42 285.46C170.248 286.065 186.655 281.223 193.904 267.841C200.143 256.353 200.411 238.102 197.079 225.588C193.15 210.837 180.441 200.479 166.6 197.361Z" fill="black"/>
<path d="M377.447 214.928C370.029 202.69 356.2 197.756 343.283 196.835C340.863 196.664 338.455 196.625 336.022 196.844C323.799 197.962 312.257 204.278 306.383 216.779C297.577 235.544 300.022 263.046 316.149 275.85C331.462 287.983 358.693 291.707 373.057 275.64C386.35 260.784 387.81 232.022 377.447 214.928Z" fill="black"/>
<path d="M251.04 332.179H250.931C250.444 332.179 249.945 332.179 249.459 332.171C248.997 332.141 248.522 332.121 248.06 332.092C248.035 332.092 247.997 332.092 247.976 332.083C247.234 332.043 246.492 331.977 245.762 331.885C245.312 331.836 244.886 331.767 244.449 331.714C244.266 331.675 244.071 331.645 243.877 331.626C232.517 329.81 226.618 324.164 226.631 324.164C225.159 322.927 223.894 321.612 222.921 320.217C220.562 316.835 220.014 312.098 221.632 309.308C223.055 306.874 225.755 305.597 228.65 306.242C228.65 306.242 228.881 306.282 229.282 306.427C229.307 306.436 229.345 306.436 229.379 306.456C229.708 306.574 230.133 306.772 230.656 307.061C230.79 307.14 230.924 307.206 231.046 307.285C231.654 307.64 232.359 308.141 233.138 308.759C233.138 308.759 233.222 308.838 233.381 308.983C233.49 309.072 233.588 309.141 233.697 309.233C233.697 309.233 233.843 309.364 234.062 309.561C235.217 310.522 237.309 312.167 239.583 313.443C242.636 315.049 246.479 316.391 250.773 316.312H251.174C255.468 316.391 259.311 315.049 262.351 313.443C264.638 312.167 266.73 310.522 267.885 309.561C268.104 309.364 268.25 309.233 268.25 309.246C268.359 309.14 268.456 309.075 268.566 308.982C268.724 308.837 268.809 308.758 268.784 308.797C269.575 308.139 270.28 307.639 270.888 307.284C271.022 307.205 271.156 307.139 271.278 307.06C271.813 306.771 272.239 306.574 272.567 306.455C272.605 306.446 272.63 306.446 272.664 306.426C273.054 306.281 273.297 306.241 273.297 306.281C276.191 305.597 278.891 306.873 280.314 309.307C281.932 312.097 281.385 316.834 279.025 320.216C278.052 321.611 276.787 322.927 275.328 324.163C275.328 324.163 269.429 329.809 258.057 331.625C257.875 331.654 257.681 331.674 257.486 331.714C257.06 331.763 256.635 331.832 256.185 331.884C255.455 331.973 254.713 332.042 253.971 332.082C253.946 332.091 253.908 332.091 253.886 332.091C253.388 332.13 252.901 332.14 252.403 332.17C251.952 332.178 251.49 332.179 251.04 332.179Z" fill="#ED1C99"/>
</g>
<defs>
<clipPath id="clip0_8_186">
<rect width="500" height="500" fill="white"/>
</clipPath>
</defs>
</svg>
