<svg width="284" height="284" viewBox="0 0 284 284" fill="none" xmlns="http://www.w3.org/2000/svg">
<rect width="283.5" height="283.5" fill="#BFAE62"/>
<path d="M80.0907 154.403L84.0013 165.225C84.0013 165.225 75.0644 170.783 63.571 170.783C43.4752 170.783 33 156.857 33 142.135C33 127.368 43.7537 113.017 64.107 113.017C75.2955 113.017 83.612 118.086 83.612 118.086L78.2894 128.307C78.2894 128.307 72.1692 124.765 64.805 124.765C53.3987 124.765 46.3062 132.142 46.3062 142.005C46.3062 151.188 52.8355 158.983 64.5004 158.983C72.8412 158.983 80.0907 154.403 80.0907 154.403ZM85.59 142.07C85.59 125.964 97.8346 113 116.765 113C128.188 113 137.315 117.948 137.315 117.948L132.049 128.047C132.049 128.047 125.308 124.781 117.413 124.781C105.165 124.781 98.9231 132.564 98.9231 142.311C98.9231 151.772 105.356 158.994 117.096 158.994C122.309 158.994 126.347 156.963 126.347 156.963V141.486H137.887C138.226 141.486 138.505 141.737 138.505 142.105V164.185C138.505 164.185 130.879 170.748 116.261 170.748C98.5728 170.748 85.59 158.839 85.59 142.07ZM159.731 169.963V124.565H141.39V113.732H190.847V124.565H172.816V169.963H159.731ZM196.411 169.963V113.732H206.232C207.515 113.732 207.807 114.404 208.363 115.073L237.007 148.681V113.732H249.783V169.963H239.901C238.736 169.963 238.4 169.367 237.625 168.518L209.064 134.47V169.963H196.411Z" fill="white"/>
</svg>
