<?xml version="1.0" encoding="UTF-8"?>
<svg xmlns="http://www.w3.org/2000/svg" version="1.1" viewBox="0 0 640 640">
  <defs>
    <style>
      .cls-1 {
        fill: #fb6c02;
      }

      .cls-2 {
        fill: #fafafa;
      }

      .cls-3 {
        fill: #fcfcfc;
      }

      .cls-4 {
        fill: #fdfdfd;
      }
    </style>
  </defs>
  <!-- Generator: Adobe Illustrator 28.7.1, SVG Export Plug-In . SVG Version: 1.2.0 Build 142)  -->
  <g>
    <g id="Vrstva_1">
      <rect width="640" height="640"/>
      <g id="HVf04g.tif">
        <g>
          <path d="M280.1,331.9h0c1.5,4.1,4.9,4.4,8.5,4.4,16.8,0,33.7.2,50.5,0,4.4,0,4.7,1.9,4.8,5.4,0,3.7-.7,5.3-4.9,5.2-16.7-.2-33.3-.2-50,0-12.5.1-11.1-2.4-11.3,11.8,0,3.1,1.1,4.4,4.3,4.4,22.9,0,45.7,0,68.6-.1,6.6,0,10.3-4.1,10.4-10.8.1-6.2,0-12.3,0-18.5,0-8.4-3.9-12.3-12.3-12.3-16.5,0-33,0-49.5,0-3.3,0-4.6-.9-4.8-4.4-.3-4.5.7-6.1,5.7-6.1,18.3.3,36.5.1,54.8,0,2.3,0,5.1.9,6-2.7,2.4-10,0-13.1-10-13.1-3,0-6,0-9,0-17.7,0-35.5,0-53.2,0-7.8,0-11,3.3-11,10.9,0,6.9,0,13.8,0,20.6,0,2-.4,4.4,2.4,5.3ZM414.5,316.6c0,11.1,0,22.2,0,33.3,0,9,3.1,12.2,11.9,12.3,17.7,0,35.5-.2,53.2.2,7.3.2,5.5-4.5,5.8-8.4.4-4.6-.9-6.7-6.1-6.6-14.5.3-29.1,0-43.6.2-4,0-5.3-1.3-5.2-5.2.2-9,.2-18,0-27,0-3.8,1.3-4.8,4.9-4.8,13.7.2,27.3.2,41,0,3.5,0,5.4,1.2,7,4.2,7.9,14.1,16.1,28,23.9,42.2,2.1,3.9,4.6,5.5,9.1,5.5,4.5,0,6.6-2.1,8.5-5.6,9.4-16.9,18.9-33.7,28.4-50.6,6.1-10.8,6.1-10.6-6.1-10.8-4,0-6.4,1.1-8.4,4.8-6.2,11.6-12.9,23-19.4,34.4-.9,1.6-1.2,4.2-3.6,4.2-2,0-2.3-2.5-3.1-3.9-6.7-11.6-13.3-23.2-19.5-34.9-1.8-3.3-3.8-4.4-7.5-4.4-15.6.2-31.2,0-46.8,0-9.8,0-8.3.6-8.5-8.6-.2-11.8,2.3-10.6-11.3-10.7-3.6,0-5,1-4.9,4.8.2,11.8,0,23.6,0,35.5ZM125.2,295.6c-10.8,0-21.6,0-32.4,0-6.3,0-9.9,3.5-10,9.8-.1,15.7-.1,31.4,0,47.1,0,5.8,3.4,9.5,9.1,9.6,22,.2,44,.1,65.9.2,2.6,0,4-1.1,3.9-3.8,0-1.6-.1-3.2,0-4.8.5-4.7-1.2-6.5-6.3-6.4-17,.3-34,0-51,.2-4,0-5.8-.9-5.6-5.3.3-9,.2-18,0-27,0-3.8,1.2-4.8,4.9-4.8,16.1.2,32.3.1,48.4,0,10.8,0,9.3,1.8,9.7-9.5.2-4.7-1.6-5.6-5.8-5.5-10.3.2-20.6,0-30.8,0ZM215.6,311.5c1.2-1.6,2.9-1,4.4-1,8.5,0,17,.2,25.5-.1,4.2-.1,5,1.5,4.9,5.2-.2,12-.2,24,0,36,.2,12.1-2.5,10.5,11.1,10.8,3.6,0,5-1.3,5-5-.1-17.1,0-34.2,0-51.3,0-7.6-3.1-10.5-10.7-10.5-23.7,0-47.5,0-71.2,0-7.4,0-10.5,3.2-10.6,10.6,0,15.5,0,31,0,46.5,0,10.7-1.5,9.2,9.6,9.7,5.2.2,6.7-1.7,6.6-6.7-.3-13.2,0-26.4-.2-39.7,0-4.5,1.5-6,5.8-5.6,4.1.3,8.2.3,12.2,0,3.5-.2,4.5.9,4.4,4.5-.2,12.3-.2,24.7,0,37,.1,11.5-2.5,10.3,10.9,10.4,3.9,0,5.3-1.5,5.2-5.3-.2-9.2-.6-18.4,0-27.5.5-7.6-1.2-12.9-9.1-15.4-1.2-.4-3-.9-3.7-2.6ZM371.6,347.6c0,9.1,6.4,15.9,15.2,16,9.4.1,16.7-6.9,16.6-16,0-8.3-7.6-15.7-16-15.7-8.8,0-15.8,6.9-15.8,15.6ZM371.6,309.3c-.1,9.3,6.4,16.1,15.6,16.2,9,.1,16.3-6.9,16.3-15.8,0-8.3-7.3-15.7-15.8-15.9-8.7-.2-15.9,6.8-16,15.4Z"/>
          <path class="cls-4" d="M414.5,316.6c0-11.8.1-23.6,0-35.5,0-3.8,1.3-4.9,4.9-4.8,13.5.2,11.1-1,11.3,10.7.2,9.2-1.3,8.6,8.5,8.6,15.6,0,31.2,0,46.8,0,3.6,0,5.7,1.1,7.5,4.4,6.3,11.8,12.9,23.4,19.5,34.9.8,1.4,1,3.9,3.1,3.9,2.4,0,2.7-2.5,3.6-4.2,6.5-11.4,13.2-22.8,19.4-34.4,2-3.7,4.3-4.9,8.4-4.8,12.2.2,12.2,0,6.1,10.8-9.5,16.8-19,33.7-28.4,50.6-1.9,3.5-4,5.6-8.5,5.6-4.5,0-6.9-1.6-9.1-5.5-7.8-14.2-16-28-23.9-42.2-1.7-3-3.5-4.3-7-4.2-13.7.2-27.3.2-41,0-3.7,0-5,1-4.9,4.8.2,9,.2,18,0,27,0,3.9,1.2,5.3,5.2,5.2,14.5-.2,29.1.1,43.6-.2,5.2-.1,6.5,2,6.1,6.6-.4,4,1.5,8.6-5.8,8.4-17.7-.4-35.5,0-53.2-.2-8.9,0-11.9-3.2-11.9-12.3,0-11.1,0-22.2,0-33.3Z"/>
          <path class="cls-3" d="M125.2,295.6c10.3,0,20.6.2,30.8,0,4.2,0,6,.9,5.8,5.5-.5,11.2,1.1,9.4-9.7,9.5-16.1,0-32.3.1-48.4,0-3.7,0-5,1-4.9,4.8.2,9,.3,18,0,27-.1,4.4,1.6,5.3,5.6,5.3,17-.2,34,.1,51-.2,5.1,0,6.8,1.7,6.3,6.4-.2,1.6,0,3.2,0,4.8,0,2.7-1.3,3.8-3.9,3.8-22,0-44,0-65.9-.2-5.7,0-9.1-3.8-9.1-9.6-.1-15.7-.1-31.4,0-47.1,0-6.3,3.7-9.7,10-9.8,10.8,0,21.6,0,32.4,0Z"/>
          <path class="cls-2" d="M215.6,311.5c.6,1.7,2.5,2.2,3.7,2.6,7.9,2.5,9.6,7.8,9.1,15.4-.6,9.1-.3,18.3,0,27.5,0,3.9-1.3,5.4-5.2,5.3-13.4-.2-10.7,1.1-10.9-10.4-.2-12.3-.2-24.7,0-37,0-3.5-.9-4.7-4.4-4.5-4.1.2-8.2.3-12.2,0-4.3-.3-5.9,1.1-5.8,5.6.3,13.2-.1,26.5.2,39.7.1,5-1.3,6.9-6.6,6.7-11.1-.4-9.6,1-9.6-9.7,0-15.5,0-31,0-46.5,0-7.4,3.1-10.6,10.6-10.6,23.7,0,47.5,0,71.2,0,7.6,0,10.7,2.9,10.7,10.5.1,17.1,0,34.2,0,51.3,0,3.7-1.4,5-5,5-13.5-.3-10.9,1.4-11.1-10.8-.2-12-.2-24,0-36,0-3.8-.8-5.4-4.9-5.2-8.5.3-17,0-25.5.1-1.5,0-3.2-.6-4.4,1ZM264.2,330.5c0-7.8,0-15.5,0-23.3,0-7.2-2.9-10.3-10.2-10.3-22.9,0-45.7,0-68.6,0-4.7,0-7,3-7.2,6.7-.3,6.3-1.5,12.5-1.3,18.9.3,11,.2,22,0,33.1,0,3.6.9,5.2,4.7,4.9,3.3-.2,6.2.4,6.1-4.7-.3-13.9,0-27.9-.2-41.8-.1-5.1,1.6-6.7,6.7-6.6,16.1.3,32.3,0,48.4.1,2.9,0,5.9-2.5,8.7,0,3,2.7,0,5.6,0,8.4-.2,13.3,1.2,26.6.1,40-.4,5.3,3,4.6,6.1,4.5,3.1-.1,7,1.4,6.8-4.4-.3-8.5,0-16.9,0-25.4Z"/>
          <path class="cls-1" d="M371.6,347.6c0-8.7,7-15.6,15.8-15.6,8.4,0,16,7.4,16,15.7,0,9.1-7.2,16.1-16.6,16-8.8-.1-15.3-7-15.2-16Z"/>
          <path class="cls-1" d="M371.6,309.3c.1-8.6,7.4-15.6,16-15.4,8.5.2,15.8,7.6,15.8,15.9,0,8.8-7.3,15.9-16.3,15.8-9.2-.1-15.7-6.9-15.6-16.2Z"/>
          <path class="cls-4" d="M264.2,330.5c0,8.5-.3,16.9,0,25.4.2,5.8-3.7,4.3-6.8,4.4-3.2.1-6.6.8-6.1-4.5,1.1-13.3-.3-26.6-.1-40,0-2.8,3-5.7,0-8.4-2.8-2.5-5.8,0-8.7,0-16.1,0-32.3.1-48.4-.1-5.1,0-6.8,1.5-6.7,6.6.3,13.9-.1,27.9.2,41.8.1,5.1-2.8,4.5-6.1,4.7-3.9.3-4.8-1.3-4.7-4.9.2-11,.3-22.1,0-33.1-.2-6.4,1-12.6,1.3-18.9.2-3.7,2.5-6.7,7.2-6.7,22.9,0,45.7,0,68.6,0,7.3,0,10.1,3.1,10.2,10.3,0,7.8,0,15.5,0,23.3Z"/>
          <path class="cls-4" d="M280.1,331.9c-2.1-9-1-18.2-1-27.3,0-4.9,3.7-7.9,8.8-7.9,22.2,0,44.3.1,66.5-.1,5.3,0,4.4,3.2,4.4,6.2,0,3.3.8,6.7-4.7,6.7-18.3-.2-36.5,0-54.8,0-2.2,0-5.2-.8-6.1,1.9-1.1,3.3-1.2,7,.2,10.3.9,2.2,3.3,1.6,5.2,1.6,16.5,0,33,0,49.5,0,9.2,0,10.8,1.6,10.8,10.8,0,6.4,0,12.7,0,19.1-.1,5.2-2.6,7.9-7.9,7.9-22.7.1-45.4,0-68.1.1-3.1,0-4.2-1.1-3.9-4.1.1-1.2.2-2.5,0-3.7-.6-3.9,1.3-4.7,4.8-4.7,17.7.1,35.5,0,53.2,0,7.8,0,10.5-3.8,8.1-11.4-1-3-3.4-2.6-5.7-2.6-15.1,0-30.1-.1-45.2,0-5,0-9.8-.4-14.2-3,0,0,0,0,0,0Z"/>
        </g>
      </g>
    </g>
  </g>
</svg>