<svg width="284" height="284" viewBox="0 0 284 284" fill="none" xmlns="http://www.w3.org/2000/svg">
<rect width="283.5" height="283.5" fill="black"/>
<g clip-path="url(#clip0_16_372)">
<path d="M141.493 76.4623C138.328 68.5725 130.619 60.0515 116.18 61.2221C97.786 63.2187 92.0541 80.8197 94.8343 91.32C87.5083 86.3668 75.0518 84.1888 64.1792 93.4884C50.1408 107.54 57.6498 126.543 65.3671 131.101C56.8619 130.315 43.4196 136.053 40.4459 151.065C37.2825 169.703 51.5115 180.568 65.3671 180.568H219.01C235.032 180.568 243.921 166.728 242.924 153.675C241.353 136.64 225.741 130.104 217.225 131.504C224.34 127.541 233.842 108.922 219.393 94.2847C207.924 83.3914 193.303 87.3551 188.162 92.1061C190.933 83.0061 186.389 64.1952 167.786 61.22C166.5 61.0763 165.262 60.9994 164.083 60.9994C149.882 61.0014 143.497 71.3665 141.493 76.4623Z" fill="white"/>
<path d="M66.7377 96.4543C58.6261 103.787 55.6738 120.4 70.2965 130.112L128.633 170.076L100.347 105.37C94.4202 90.1006 78.2053 86.7709 66.7377 96.4543Z" fill="#F37021"/>
<path d="M116.954 64.9941C107.472 65.187 93.2328 76.4624 99.5696 93.6802L128.824 162.573L139.104 90.111C141.483 72.1059 127.837 63.7943 116.954 64.9941Z" fill="#CC004C"/>
<path d="M143.669 87.3474H149.201C149.201 87.3474 152.155 87.3474 152.557 88.7389C150.38 90.5139 144.455 90.7364 145.242 100.218L154.541 162.563L183.596 93.4896C189.539 78.0668 177.064 65.1865 165.999 64.7928C165.482 64.7558 164.963 64.7257 164.426 64.7257C154.494 64.7254 143.113 71.933 143.669 87.3474Z" fill="#6460AA"/>
<path d="M182.427 105.957L154.945 169.887L213.264 129.712C226.708 120.191 224.54 104.969 217.014 97.4447C213.86 93.9032 208.067 91.1676 201.931 91.1676C194.682 91.1662 186.924 95.0055 182.427 105.957Z" fill="#0089D0"/>
<path d="M206.734 138.808L151.966 177.007H219.402C233.237 177.007 242.128 162.763 238.176 149.692C235.529 141.476 227.697 135.027 218.606 135.017C214.779 135.019 210.721 136.17 206.734 138.808Z" fill="#0DB14B"/>
<path d="M65.1664 177.007H131.607L76.8249 138.808C64.1688 130.689 49.938 135.44 44.8005 148.914C40.4457 164.338 51.3189 177.007 65.1664 177.007Z" fill="#FCB711"/>
<path d="M40.2139 204.653C40.2139 211.158 45.54 223 65.8769 223C84.627 223 90.5489 214.409 90.5489 210.47H76.0329C76.0329 210.47 75.3435 215.674 67.1549 215.674C58.9611 215.674 56.7451 208.845 56.7451 204.896C56.7451 200.962 58.9611 194.502 67.1549 194.502C75.3435 194.502 76.0329 199.033 76.0329 199.033H90.5489C90.5489 195.089 86.2039 186.619 65.8769 186.619C45.54 186.619 40.2139 199.23 40.2139 204.653Z" fill="white"/>
<path d="M192.45 204.653C192.45 211.158 197.782 223 218.113 223C236.862 223 242.786 214.409 242.786 210.47H228.28C228.28 210.47 227.587 215.674 219.397 215.674C211.202 215.674 208.984 208.845 208.984 204.896C208.984 200.962 211.202 194.502 219.397 194.502C227.587 194.502 228.28 199.033 228.28 199.033H242.786C242.786 195.089 238.445 186.619 218.113 186.619C197.782 186.619 192.45 199.23 192.45 204.653Z" fill="white"/>
<path d="M130.222 187.226V209.249L113.328 187.226H94.3242V222.109H107.353V199.833L123.95 222.109H143.251V187.226H130.222Z" fill="white"/>
<path d="M171.97 213.775V213.821H161.115V207.416H171.97V207.437C174.288 207.437 176.161 208.86 176.161 210.611C176.161 212.359 174.288 213.775 171.97 213.775ZM161.214 194.011H171.674V194.026C173.446 194.026 174.883 195.19 174.883 196.623C174.883 198.061 173.446 199.215 171.674 199.215V199.231H161.214V194.011ZM182.632 203.564C185.004 203.564 189.963 200.815 189.963 195.489C189.963 187.905 175.819 187.226 173.65 187.226H147.591V222.109H173.65C186.183 222.109 191.218 218.155 191.218 211.553C191.218 204.951 182.632 203.564 182.632 203.564Z" fill="white"/>
</g>
<defs>
<clipPath id="clip0_16_372">
<rect width="203" height="162" fill="white" transform="translate(40 61)"/>
</clipPath>
</defs>
</svg>
