<?xml version="1.0" encoding="UTF-8"?>
<svg xmlns="http://www.w3.org/2000/svg" xmlns:xlink="http://www.w3.org/1999/xlink" version="1.1" viewBox="0 0 283.5 283.5">
  <defs>
    <style>
      .cls-1 {
        fill: url(#Nepojmenovaný_přechod_17);
      }

      .cls-2 {
        fill: #fac02b;
      }

      .cls-3 {
        fill: #fff;
      }

      .cls-4 {
        fill: #dde21e;
      }
    </style>
    <linearGradient id="Nepojmenovaný_přechod_17" data-name="Nepojmenovaný přechod 17" x1="295.4" y1="438.4" x2="578.9" y2="438.4" gradientTransform="translate(580.2 -295.3) rotate(90)" gradientUnits="userSpaceOnUse">
      <stop offset="0" stop-color="#7b1610"/>
      <stop offset=".8" stop-color="#000"/>
    </linearGradient>
  </defs>
  <!-- Generator: Adobe Illustrator 28.7.1, SVG Export Plug-In . SVG Version: 1.2.0 Build 142)  -->
  <g>
    <g id="Vrstva_1">
      <rect class="cls-1" x="0" y="0" width="283.5" height="283.5"/>
      <g id="Layer_2">
        <g id="JOJ_Group">
          <g id="csfilm">
            <g id="logo">
              <path class="cls-2" d="M103.4,70.2c-2.7-1.4-5.7-2.4-8.8-2.8l-6.3-1.2c-2.1-.3-4-.9-5.9-1.9-1.1-.5-1.9-1.5-2.1-2.7v-.9c-.3-1.3.4-2.6,1.5-3.3,1.3-.9,3.2-1.4,5.9-1.4,2.2,0,4.3.2,6.5.7,3.1.7,6,1.8,8.8,3.3,0,.4.2.9.2.9.2.9,1,6.8,1.5,10.1-.4-.3-.8-.6-1.2-.8M100.3,83.5c-1.5,1.3-3.8,2.2-7.1,2.8-2.3.4-4.6.3-6.9-.1-3.1-.8-6-2.1-8.7-3.9l-4.5,3.5c3.7,2.6,7.8,4.6,12.1,5.9-4,.2-7.5.4-11.4.6,1.3-.7,2.4-1.5,3.5-2.4-1.8-1-3.6-2.1-5.3-3.3-2.5,1.9-5.5,3.2-8.7,3.6-3.4.6-6.2.1-8-1.5s-3-4.2-3.2-7.9l-.9-12.5c-.2-3.7.4-6.6,2.1-8.6s4-3,7.2-3c1.7,0,3.4.2,5.1.8,2.2.8,4.2,1.8,6.2,3,0-2,.7-4,2-5.5-1.6-1.2-3.3-2.1-5.2-2.8,7-1,13.1-2,21.7-3.1,4-.4,7.9,1.1,10.5,4.2-4.2-1.6-8.7-2.4-13.2-2.3-2.8,0-5.6.5-8.2,1.4-2,.7-3.8,2-5,3.7-1,1.5-1.5,3.4-1.2,5.2l.2,1.4c.6,4.9,4.7,8,12.2,9.4l7.1,1.2c2.1.2,4.1.7,6,1.6,1.1.6,3,2.1,3.3,3.4l.2,1.2c.3,1.3-.3,2.6-1.8,3.9M109.8,78.9c-.9-6.2-2-11.8-2.7-17.9-1-9-8.6-15.7-17-14.7-12.7,1.5-19.7,3-32.4,4.5-8.3,1-15.2,7.9-15.2,15.4v15.3c0,7.7,7.7,14.4,16.5,14,6.3-.3,32.7-1.6,37.5-2,9-.8,14.5-5.2,13.2-14.6"/>
              <path class="cls-3" d="M118.1,48h26.7v9.2h-15.5v6.9h13.7v9.5h-13.7v16.9h-11.2v-42.5ZM149.1,48h11.2v42.5h-11.1v-42.5ZM165.2,48h11.2v31.3h15.3v11.2h-26.5v-42.5h0ZM218.6,63.8l17.3-15.8h5v42.5h-11.2v-21.8l-11.1,10.2-11.2-10.1v21.8h-11.2v-42.5h5.1l17.3,15.8Z"/>
            </g>
          </g>
        </g>
      </g>
      <g id="Layer_2-2" data-name="Layer_2">
        <g id="JOJ_Group-2" data-name="JOJ_Group">
          <g id="cshorror">
            <g id="logo-2" data-name="logo">
              <path class="cls-4" d="M82.8,212.1c-1.8-1-3.8-1.6-5.8-1.9l-4.2-.8c-1.4-.2-2.7-.6-3.9-1.2-.7-.3-1.2-1-1.4-1.8v-.6c-.2-.9.2-1.7,1-2.2,1.2-.7,2.6-1,4-.9,1.4,0,2.9.1,4.3.4,2,.4,4,1.2,5.8,2.2,0,.3.1.6.1.6,0,.6.6,4.5,1,6.7-.3-.2-.5-.4-.8-.5M80.8,220.9c-1.4,1-3,1.7-4.7,1.8-1.5.3-3.1.2-4.6,0-2-.5-4-1.4-5.7-2.6l-3,2.3c2.4,1.7,5.1,3.1,8,3.9-2.7.2-4.9.3-7.5.4.8-.4,1.6-1,2.3-1.6-1.2-.6-2.4-1.4-3.5-2.2-1.7,1.3-3.7,2.1-5.7,2.4-2.3.4-4.1,0-5.3-1s-2-2.8-2.2-5.2l-.6-8.2c-.3-2,.2-4,1.4-5.7,1.2-1.4,3-2.1,4.8-2,1.1,0,2.3.2,3.4.5,1.4.5,2.8,1.2,4.1,2,0-1.3.5-2.6,1.3-3.6-1-.8-2.2-1.4-3.4-1.8,4.6-.7,8.6-1.4,14.3-2,2.6-.3,5.2.8,6.9,2.8-1-.4-2-.7-3-.9-1.9-.4-3.8-.7-5.8-.6-1.9,0-3.7.4-5.5,1-1.3.5-2.5,1.3-3.3,2.4-.7,1-1,2.3-.8,3.5v.9c.5,3.2,3.2,5.3,8.2,6.2l4.7.8c1.4.1,2.7.5,4,1,.8.4,2,1.4,2.2,2.3l.2.8c0,1-.4,1.9-1.2,2.5M87.1,217.9c-.6-4.1-1.3-7.8-1.8-11.9-.7-6-5.7-10.3-11.2-9.7-8.4,1-13,1.9-21.4,3-5.5.7-10.1,5.2-10.1,10.2v10.1c0,5.1,5.1,9.5,10.9,9.3,4.2-.2,21.7-1.1,24.9-1.3,6-.5,9.6-3.5,8.7-9.7"/>
              <path class="cls-3" d="M108.9,210v-10.1h6.8v26.1h-6.8v-10.7h-9.8v10.7h-6.8v-26.1h6.8v10.1h9.8Z"/>
              <path class="cls-3" d="M124,212.6c-.3,4.1,2.8,7.6,6.9,7.9,4.1.3,7.6-2.8,7.9-6.9,0-.3,0-.6,0-.9,0-3.6-3.3-6.9-7.4-6.9s-7.4,3.3-7.4,6.9M145.8,212.6c0,8.4-6,14.4-14.4,14.4s-14.4-5.9-14.4-14.4,6.9-13.4,14.4-13.4,14.4,5.5,14.4,13.4M153.9,211.7h.7c2.2,0,4.7-.4,4.7-3.2s-2.5-3.3-4.7-3.3h-.7v6.5ZM168.8,226.1h-8.4l-6.4-10h0v10h-6.8v-26.1h10.1c5.2,0,9.1,2.5,9.1,8s-2,6.7-5.7,7.4l8.1,10.7Z"/>
              <path class="cls-3" d="M175.5,211.7h.7c2.2,0,4.7-.4,4.7-3.2s-2.5-3.3-4.7-3.3h-.7v6.5ZM190.4,226.1h-8.4l-6.4-10h0v10h-6.8v-26.1h10.1c5.1,0,9.1,2.5,9.1,8s-2,6.7-5.7,7.4l8.2,10.7Z"/>
              <path class="cls-3" d="M196.2,212.6c-.3,4.1,2.8,7.6,6.9,7.9,4.1.3,7.6-2.8,7.9-6.9,0-.3,0-.6,0-.9,0-3.6-3.3-6.9-7.4-6.9s-7.4,3.3-7.4,6.9M218,212.6c0,8.4-6.1,14.4-14.4,14.4s-14.4-5.9-14.4-14.4,6.9-13.4,14.4-13.4,14.5,5.5,14.5,13.4M226.1,211.7h.7c2.2,0,4.7-.4,4.7-3.2s-2.5-3.3-4.7-3.3h-.7v6.5ZM241,226.1h-8.5l-6.4-10h-.1v10h-6.8v-26.1h10.1c5.2,0,9.1,2.5,9.1,8s-2,6.7-5.7,7.4l8.3,10.7Z"/>
            </g>
          </g>
        </g>
      </g>
    </g>
  </g>
</svg>