<?xml version="1.0" encoding="UTF-8"?>
<svg xmlns="http://www.w3.org/2000/svg" version="1.1" viewBox="0 0 283.5 283.5">
  <defs>
    <style>
      .cls-1 {
        isolation: isolate;
      }

      .cls-2 {
        fill: #ed1c24;
      }

      .cls-3 {
        fill: #fff;
      }
    </style>
  </defs>
  <!-- Generator: Adobe Illustrator 28.7.1, SVG Export Plug-In . SVG Version: 1.2.0 Build 142)  -->
  <g>
    <g id="Vrstva_1">
      <rect class="cls-2" width="283.5" height="283.5"/>
      <g id="logo-2">
        <path class="cls-3" d="M176.3,141.7c0-6.9-.5-13.7-1.6-20.5-3-17.6-7.6-21.6-32.1-23.6-8.9-.7-18.6-1.1-26.4-1.2v11.6c3.7,0,7.9.4,11.8.8,13.7,1.5,16.2,4.4,17.9,17.6.6,5.1.9,10.2.9,15.3s-.3,10.2-.9,15.2c-1.7,13.2-4.2,16.1-17.9,17.6-3.9.4-8,.7-11.8.8v11.6c7.8-.1,17.5-.5,26.4-1.2,24.6-2,29.1-6,32.1-23.6,1.1-6.8,1.6-13.6,1.6-20.5M76.3,97.8c-24.6,2-29.1,5.9-32.1,23.6-2.1,13.6-2.1,27.4,0,40.9,3,17.6,7.5,21.6,32.1,23.6,8.9.7,18.6,1.1,26.4,1.2v-11.7c-3.7-.1-7.9-.4-11.8-.8-13.7-1.5-16.3-4.4-17.9-17.6-1.2-10.1-1.2-20.4,0-30.5,1.7-13.2,4.2-16.1,17.9-17.6,3.9-.4,8-.7,11.8-.8v-11.6c-7.8,0-17.5.5-26.4,1.2M206.2,133.2l-6.8-16.2,23-14.2h18.5v74.3h-20.8v-52.3l-13.9,8.4Z"/>
      </g>
      <g class="cls-1">
        <path class="cls-3" d="M211.3,210.3l.3-3.1c.7.2,1.4.2,2.1.2,1,0,1.5-.4,1.5-1.3v-11.4h4.1v11.5c0,1.6-.4,2.8-1.1,3.6-.7.8-1.9,1.1-3.6,1.1s-2.2-.2-3.3-.6Z"/>
        <path class="cls-3" d="M233.7,208.4h-4l-3-8.8h0l-.4,10.9h-3.7l.9-15.8h4.9l3.3,9.3h0l3.3-9.3h4.8l1,15.8h-3.8l-.4-10.9h0l-2.9,8.8Z"/>
      </g>
    </g>
  </g>
</svg>