<?xml version="1.0" encoding="utf-8"?>
<!-- Generator: Adobe Illustrator 28.0.0, SVG Export Plug-In . SVG Version: 6.00 Build 0)  -->
<svg version="1.1" id="Vrstva_1" xmlns="http://www.w3.org/2000/svg" xmlns:xlink="http://www.w3.org/1999/xlink" x="0px" y="0px"
	 viewBox="0 0 1024 1024" style="enable-background:new 0 0 1024 1024;" xml:space="preserve">
<style type="text/css">
	.st0{fill:#E6D2BC;}
	.st1{clip-path:url(#SVGID_00000112621438030838320020000013899523294778779032_);}
	.st2{fill:#FC7922;}
	.st3{fill:#07E830;}
	.st4{fill:#ACF7BA;}
	.st5{fill:#FFFFFF;}
</style>
<g>
	<path class="st0" d="M137.8,460.4c0.4-0.6,0.9-1.3,1.5-1.8l0,0l0.1-0.1l0.1-0.1l0,0c0.9-0.8,1.9-1.4,2.9-1.8c0,0,0.1,0,0.2,0
		c0,0,0,0,0.1,0c1.3-0.5,2.7-0.7,4-0.7l0,0c0.1,0,0.1,0,0.2,0h0.1h0.1c0.1,0,0.1,0,0.2,0l0,0c1.3,0.1,2.7,0.4,3.9,1.1c0,0,0,0,0.1,0
		l0.1,0.1c1,0.5,2,1.2,2.8,2.1l0,0l0.1,0.1l0.1,0.1l0,0c0.5,0.6,1,1.2,1.3,1.9l36.4,63c11.8-11.6,26.3-20.1,43.7-20
		c19.1-0.1,36.3,10.7,49.4,24.4c0.9-5.4,1.4-10.9,1.4-16.6c0.1-52.9-42.8-95.8-95.7-95.8s-95.8,42.9-95.8,95.8
		c0,3.2,0.2,6.4,0.5,9.5L137.8,460.4z"/>
	<path class="st0" d="M278.4,550.7c0,0-0.1-0.1-0.1-0.2l-0.8-1c-7.5-9.2-17-17.8-28.1-22.3c-4.8-1.9-9.4-2.7-14.4-2.4
		c-15.2,0.8-26.7,12.4-35.8,23.9c-0.6,0.8-1.3,1.5-2.2,2.1c-6,4.7-13.7,1.4-16.3-4.3L146,486.4l-43,62.7
		c14.5,34.4,48.6,58.6,88.3,58.6c38.9,0,72.5-23.2,87.4-56.6C278.6,551,278.5,550.9,278.4,550.7"/>
	<path class="st0" d="M366.8,509l22.1-19.9c-2.2-0.7-3.6-1.6-4.5-2.8c-0.8-1.2-1.2-3.1-1.2-5.6c0-4.3,0.9-7.2,2.8-9
		c1.9-1.7,5.2-2.6,10-2.6h23.1c4.7,0,8.1,0.9,10.1,2.6c2,1.8,3,4.7,3,8.8c0,3.1-0.6,5.3-1.7,6.7c-1.1,1.4-3.5,2.4-7.1,3.1
		c-3.3,0.6-6.2,1.7-8.7,3.1s-5.5,3.9-8.9,7.3l-7.4,7.8l27.6,34.3h2.6c4,0,7.1,0.9,9.1,2.8c2,1.9,3,4.7,3,8.5c0,4.1-1,7.1-3,8.9
		c-2,1.8-5.4,2.7-10.3,2.7h-25.7c-4.5,0-7.8-0.8-9.8-2.3s-3-4-3-7.3c0-2.5,0.6-4.5,1.8-6c1.2-1.5,3.1-2.8,5.9-3.8l-17.1-20.8
		l-12.9,11.8v21.5c0,2.7-0.5,4.5-1.4,5.4c-0.9,1-2.5,1.4-4.9,1.4h-18.8c-4.6,0-7.9-0.9-9.9-2.7s-3-4.8-3-8.9c0-3.7,0.9-6.5,2.8-8.4
		s4.7-2.9,8.4-2.9h1.7V452h-1.7c-3.7,0-6.5-1-8.5-3.1c-2-2-2.9-4.9-2.9-8.6c0-4,1-7,3-8.9c2-1.8,5.4-2.8,10-2.8h18.8
		c2.4,0,4,0.5,4.9,1.4c0.9,1,1.4,2.8,1.4,5.4V509H366.8z"/>
	<path class="st0" d="M627.3,542.9h22.5c4.8,0,8.2,0.9,10.3,2.6c2,1.8,3,4.7,3,8.7c0,4.1-1,7.1-3.1,8.9c-2.1,1.8-5.4,2.7-10.2,2.7
		H579c-4.7,0-8.1-0.9-10.2-2.7c-2.1-1.8-3.1-4.8-3.1-8.9c0-4,1-6.9,3-8.7c2-1.7,5.4-2.6,10.3-2.6h22.5v-50.8h-11.8
		c-4.7,0-8-0.9-10-2.7c-2-1.8-3-4.7-3-8.9c0-4.1,1-7.1,2.9-8.8c2-1.7,5.3-2.6,10.1-2.6h31.5c2,0,3.4,0.4,4.5,1.2
		c1.1,0.8,1.6,1.9,1.6,3.3V542.9L627.3,542.9z M612.3,421.8c5.1,0,8.5,1,10.1,2.9c1.7,2,2.5,6.6,2.5,14c0,7.1-0.7,11.5-2.2,13.2
		s-5.1,2.5-10.6,2.5c-5.4,0-8.9-0.8-10.5-2.4s-2.4-4.8-2.4-9.6c0-8.9,0.8-14.6,2.4-17.1C603.2,423,606.7,421.8,612.3,421.8z"/>
	<path class="st0" d="M892.7,543.3h22.5c4.8,0,8.2,0.9,10.3,2.6c2,1.8,3,4.7,3,8.7c0,4.1-1,7.1-3.1,8.9c-2.1,1.8-5.4,2.7-10.2,2.7
		h-70.7c-4.7,0-8.1-0.9-10.2-2.7c-2.1-1.8-3.1-4.8-3.1-8.9c0-4,1-6.9,3-8.7c2-1.7,5.4-2.6,10.3-2.6H867v-50.9h-11.8
		c-4.7,0-8-0.9-10-2.7c-2-1.8-3-4.7-3-8.9c0-4.1,1-7.1,2.9-8.8c2-1.7,5.3-2.6,10.1-2.6h31.5c2,0,3.4,0.4,4.5,1.2
		c1.1,0.8,1.6,1.9,1.6,3.3L892.7,543.3L892.7,543.3z M877.7,422.3c5.1,0,8.5,1,10.1,2.9c1.7,2,2.5,6.6,2.5,14
		c0,7.1-0.7,11.5-2.2,13.2s-5.1,2.5-10.6,2.5c-5.4,0-8.9-0.8-10.5-2.4s-2.4-4.8-2.4-9.6c0-8.9,0.8-14.6,2.4-17.1
		C868.7,423.4,872.2,422.3,877.7,422.3z"/>
	<path class="st0" d="M818.9,545.8c-1.6-1.9-4.1-2.9-7.4-2.9h-1.4v-45.3c0-21.3-8.8-31.3-27.4-31.3c-10.7,0-20,5.4-26.3,12.1
		c-4.1-8.2-11.9-12.1-23.6-12.1c-10.5,0-18.9,4.8-25.3,11.8v-3c0-4.8-1-6-5.2-6l0,0h-18.1c-4.1,0-7.1,0.9-8.9,2.7
		c-1.8,1.8-2.7,4.7-2.7,8.7c0,3.7,0.9,6.5,2.5,8.5c1.7,2,4.2,3,7.5,3h1.4v50.8h-0.1h-1.4c-3.3,0-5.8,0.9-7.4,2.9
		c-1.6,1.9-2.5,4.7-2.5,8.4c0,4.1,0.9,7.1,2.6,8.9c1.7,1.8,4.6,2.7,8.7,2.7h5.2h15.7h5.3c4,0,6.9-0.9,8.7-2.7
		c1.7-1.8,2.6-4.8,2.6-8.9c0-3.7-0.8-6.5-2.5-8.4c-1.6-1.9-4.1-2.9-7.4-2.9h-1.4H710v-43.1c4.1-4.2,9.1-7.2,14.8-7.2
		c6.4,0,9.1,3.2,9.1,13.7v53.4c0,4.8,1,6,5.2,6h4.9h11h5.2c4,0,6.9-0.9,8.7-2.7c1.7-1.8,2.6-4.8,2.6-8.9c0-3.7-0.8-6.5-2.5-8.4
		c-1.6-1.9-4.1-2.9-7.4-2.9h-1.4v-43.1c4.1-4.2,9.1-7.2,14.8-7.2c6.4,0,9.1,3.2,9.1,13.7v53.4c0,4.8,1,6,5.2,6h4.9H805h5.2l0,0
		c4,0,6.9-0.9,8.7-2.7c1.7-1.8,2.6-4.8,2.6-8.9C821.4,550.5,820.5,547.7,818.9,545.8z"/>
	<path class="st0" d="M498,509v33.9h24.7c4.7,0,8.1,0.9,10.1,2.6c2,1.8,3,4.7,3,8.7c0,4.1-1,7.1-3,8.9c-2,1.8-5.4,2.7-10.1,2.7
		h-58.5c-4.8,0-8.2-0.9-10.3-2.7c-2-1.8-3-4.8-3-8.9c0-4,1-6.9,3-8.7c2-1.7,5.4-2.6,10.3-2.6h8V492h-4.5c-4.8,0-8.1-0.9-10.1-2.7
		c-2-1.8-3-4.7-3-8.9c0-4.1,0.9-7.1,2.9-8.8c1.9-1.7,5.3-2.6,10.2-2.6H490c1.9,0,3.4,0.4,4.4,1.2c1.1,0.8,1.6,1.9,1.6,3.3V489
		c7.6-8.1,14.7-14,21.3-17.5s13.7-5.2,21.3-5.2c6.9,0,12.4,1.6,16.4,4.7s6.1,7.3,6.1,12.5c0,4-1.4,7.4-4.2,10s-6.4,3.9-10.8,3.9
		c-3.1,0-6.9-1.1-11.1-3.4c-4.3-2.3-7.3-3.4-8.9-3.4c-3.3,0-7.3,1.5-11.8,4.5C509.6,498.1,504.2,502.7,498,509z"/>
</g>
<g>
	<defs>
		<rect id="SVGID_1_" y="0" width="1024" height="1024"/>
	</defs>
	<clipPath id="SVGID_00000122705130754030436070000015457828608900684435_">
		<use xlink:href="#SVGID_1_"  style="overflow:visible;"/>
	</clipPath>
	<g style="clip-path:url(#SVGID_00000122705130754030436070000015457828608900684435_);">
		<g>
			<path class="st2" d="M580.4-5.2c166.6,0,333.1,0,500,0c0,95.3,0,190.7,0,286c-15.4-0.4-30.6,1.5-45.7,4.5
				c-37.1,7.6-70.7,23-100.7,46.3c-29.4,22.9-52.5,50.9-68.9,84.3c-22.3,45.4-29.6,93.3-22.4,143.4c0.6,4.1,0.6,4.2-3.6,4.2
				c-10.9,0.1-21.8,0-32.7,0c-5.3,0-5.3,0-4.4,5.1c2.5,13.7,6.2,27,11.1,40c18.2,47.6,48,86.2,90.1,115
				c51.2,35,107.8,48.1,169.3,40.7c2.6-0.3,5.1-1.2,7.8-0.5c0,96,0,192,0,288c-1.6,0.1-3.3,0.2-4.9,0.2c-177,0-354.1,0-531.1,0
				c-2.1,0-4.3-0.2-6.4-0.3c-0.9-1.8-2.6-3-4-4.3c-41.4-40.1-77.6-84.4-108.6-133c-23.5-36.9-43.6-75.7-60.1-116.3
				c-10.9-26.7-20.1-54-27.8-81.9c-9.1-33.1-15.7-66.7-20-100.8c-2-15.5-3.3-31.1-4.4-46.8c-0.3-4.8-0.2-4.9,4.2-4.9
				c8.1,0,16.2,0,24.2,0c3.3,0,6.6-0.1,9.9,0c2.4,0.1,3.9-0.6,3.5-3.4c-0.1-0.6,0-1.3-0.1-2c-1.8-36.1-0.8-72.2,2.8-108.2
				c4-40.3,11.4-79.9,22-119c16.3-59.8,39.9-116.5,70.8-170.3C485,100.9,527.2,47,577-1.1C578.3-2.3,580-3.2,580.4-5.2z"/>
			<path class="st3" d="M580.4-5.2c-0.3,2-2.1,2.9-3.4,4.1c-49.8,48.1-92,102-126.5,162c-30.9,53.7-54.5,110.5-70.8,170.3
				c-10.6,39-18,78.7-22,119c-3.6,36-4.6,72-2.8,108.2c0,0.7,0,1.3,0.1,2c0.4,2.8-1.1,3.4-3.5,3.4c-3.3-0.1-6.6,0-9.9,0
				c-8.1,0-16.2,0-24.2,0c-4.5,0-4.6,0.1-4.2,4.9c1.1,15.6,2.4,31.2,4.4,46.8c4.3,34.1,11,67.7,20,100.8
				c7.6,27.9,16.9,55.1,27.8,81.9c16.5,40.6,36.6,79.3,60.1,116.3c31,48.6,67.2,92.9,108.6,133c1.4,1.4,3.1,2.5,4,4.3
				c-2.8,0.1-5.6,0.2-8.4,0.2c-191.6,0-383.2,0-574.8,0c-2.8,0-5.6-0.1-8.4-0.2c-9-18.9-17.7-37.9-25.8-57.2
				c-15.4-36.5-28.9-73.7-40.6-111.5c-13.7-44.1-24.7-88.9-33.2-134.3c-5.4-28.5-9.7-57.2-13-86c-3.6-31.3-6-62.7-7-94.2
				c-0.2-4.7-0.1-4.8,4.9-4.8c10.7,0,21.4,0,32.2,0c5,0,5,0,4.8-4.9c-1.9-70.7,1.9-141.1,12.2-211.1c7.9-54.2,19.3-107.7,34.5-160.3
				C-66.8,124.8-44,64-16.1,5.2c1.6-3.4,3.7-6.6,4.4-10.4C185.6-5.2,383-5.2,580.4-5.2z"/>
			<path class="st2" d="M-11.7-5.2c-0.6,3.8-2.8,7-4.4,10.4C-44,64-66.8,124.8-84.8,187.3c-15.2,52.7-26.6,106.1-34.5,160.3
				c-10.2,70-14,140.4-12.2,211.1c0.1,4.9,0.2,4.9-4.8,4.9c-10.7,0-21.4,0-32.2,0c-5,0-5,0-4.9,4.8c1,31.5,3.4,62.9,7,94.2
				c3.3,28.8,7.6,57.5,13,86c8.5,45.4,19.5,90.2,33.2,134.3c11.7,37.8,25.2,75,40.6,111.5c8.1,19.3,16.8,38.3,25.8,57.2
				c-2,0.1-3.9,0.3-5.9,0.3c-170.5,0-340.9,0-511.4,0c-2,0-3.9-0.2-5.9-0.3c-0.4-1.6-0.7-3.2-1.2-4.8c-9-28.1-17.4-56.4-25-84.9
				c-16.8-63.5-30-127.7-39.4-192.7c-5.8-40.3-10.2-80.8-13.2-121.4c-2-26.5-3.2-53-3.9-79.5c-0.1-4.6-0.1-4.7,4.5-4.7
				c10.9,0,21.8,0,32.7,0c4.9,0,4.9,0,4.9-4.9c0-0.5,0-1,0-1.5c-0.7-50,0.2-99.9,3.6-149.8c2.8-40.6,6.9-81.1,12.5-121.5
				c5.4-39.2,12.3-78.1,20.6-116.8c10.3-48.4,22.7-96.3,37.1-143.6c3.1-10.2,6.8-20.3,9.4-30.7C-360.3-5.2-186-5.2-11.7-5.2z"/>
			<path class="st3" d="M-534.5-5.2c-2.6,10.4-6.3,20.5-9.4,30.7c-14.4,47.3-26.8,95.2-37.1,143.6c-8.2,38.7-15.1,77.6-20.6,116.8
				c-5.6,40.3-9.7,80.8-12.5,121.5c-3.4,49.9-4.3,99.8-3.6,149.8c0,0.5,0,1,0,1.5c0,4.9,0,4.9-4.9,4.9c-10.9,0-21.8,0-32.7,0
				c-4.6,0-4.6,0.1-4.5,4.7c0.7,26.5,2,53,3.9,79.5c3,40.6,7.4,81.1,13.2,121.4c9.4,65,22.6,129.2,39.4,192.7
				c7.6,28.5,16,56.8,25,84.9c0.5,1.6,0.8,3.2,1.2,4.8c-2,0.1-4,0.2-5.9,0.2c-164.4,0-328.8,0-493.1,0c-2,0-4-0.1-5.9-0.2
				c-2.5-10.3-5-20.5-7.4-30.8c-8.6-36.4-16.1-73.1-22.7-109.9c-5.8-32.5-10.8-65-15.2-97.7c-4.6-34.5-8.3-69.1-11.3-103.7
				c-2.5-29.7-4.5-59.5-5.7-89.3c-0.7-17.5-1.2-34.9-1.6-52.4c-0.1-4.1,0-4.2,4.1-4.2c10.7,0,21.4,0,32.2,0c6.2,0,5.9,0.6,5.8-5.9
				c-0.9-67,0.9-133.9,6-200.6c2.7-35.7,6.3-71.2,10.7-106.8c4.8-38.6,10.6-77.1,17.5-115.3c8.2-45.6,17.8-90.9,28.9-135.8
				c0.3-1.4,1.1-2.8,0.2-4.3C-871.8-5.2-703.2-5.2-534.5-5.2z"/>
			<path class="st2" d="M-1040.5-5.2c0.9,1.5,0.1,2.9-0.2,4.3c-11.2,45-20.8,90.3-28.9,135.8c-6.9,38.3-12.7,76.7-17.5,115.3
				c-4.4,35.5-8,71.1-10.7,106.8c-5.1,66.8-6.9,133.7-6,200.6c0.1,6.5,0.5,5.9-5.8,5.9c-10.7,0-21.4,0-32.2,0c-4,0-4.2,0.1-4.1,4.2
				c0.5,17.5,1,34.9,1.6,52.4c1.1,29.8,3.1,59.6,5.7,89.3c2.9,34.7,6.7,69.2,11.3,103.7c4.4,32.7,9.4,65.3,15.2,97.7
				c6.6,36.8,14,73.5,22.7,109.9c2.4,10.3,4.9,20.5,7.4,30.8c-2,0.1-3.9,0.3-5.9,0.3c-162.2,0-324.4,0-486.6,0c-2,0-3.9-0.2-5.9-0.3
				c-0.1-0.8-0.1-1.6-0.3-2.4c-5-25.1-9.6-50.2-13.9-75.4c-4-23.9-7.8-47.8-11.2-71.8c-4.1-28.7-7.6-57.5-10.8-86.4
				c-4.3-39-7.6-78.1-10.2-117.3c-1.4-21.6-2.5-43.1-3.3-64.7c-0.9-21.8-1.6-43.5-1.9-65.3c0-4.6,0-4.7,4.6-4.7
				c10.6-0.1,21.1,0,31.7,0c6.3,0,5.8,0.2,5.8-6c-0.6-54.8,0.3-109.5,2.9-164.2c1.7-35.1,4.1-70.1,7.1-105.1
				c2.3-26.4,5-52.9,8.1-79.2c3.8-32.1,8.1-64.1,13-96c5.9-38,12.5-75.8,20-113.5c0.3-1.6,1.1-3.2,0.2-4.8
				C-1372.5-5.2-1206.5-5.2-1040.5-5.2z"/>
			<path class="st3" d="M-1538.5-5.2c0.8,1.6,0.1,3.2-0.2,4.8c-7.5,37.7-14.1,75.5-20,113.5c-5,31.9-9.2,64-13,96
				c-3.1,26.4-5.9,52.8-8.1,79.2c-3,35-5.4,70-7.1,105.1c-2.6,54.7-3.5,109.4-2.9,164.2c0.1,6.2,0.6,6-5.8,6c-10.6,0-21.1,0-31.7,0
				c-4.6,0-4.6,0.1-4.6,4.7c0.2,21.8,1,43.5,1.9,65.3c0.9,21.6,1.9,43.2,3.3,64.7c2.5,39.2,5.9,78.3,10.2,117.3
				c3.2,28.8,6.7,57.6,10.8,86.4c3.4,24,7.2,47.9,11.2,71.8c4.3,25.2,9,50.3,13.9,75.4c0.2,0.8,0.2,1.6,0.3,2.4
				c-1.6,0.1-3.3,0.2-4.9,0.2c-85.6,0-171.2,0-256.9,0c-1,0-2-0.1-3,0c-2,0.1-3.1-0.6-3-2.8c0.1-1.8,0-3.6,0-5.4
				c0-347.1,0-694.2,0-1041.3c0-2.5-0.2-4.9-0.3-7.4C-1745.1-5.2-1641.8-5.2-1538.5-5.2z"/>
			<path class="st3" d="M1080.4,763.8c-2.7-0.7-5.2,0.2-7.8,0.5c-61.5,7.5-118.1-5.7-169.3-40.7c-42.1-28.8-71.9-67.4-90.1-115
				c-4.9-13-8.7-26.3-11.1-40c-0.9-5-0.9-5,4.4-5.1c10.9,0,21.8,0,32.7,0c4.1,0,4.2-0.1,3.6-4.2c-7.1-50.1,0.1-98,22.4-143.4
				c16.4-33.4,39.5-61.4,68.9-84.3c29.9-23.3,63.5-38.7,100.7-46.3c15-3.1,30.3-5,45.7-4.5C1080.4,441.8,1080.4,602.8,1080.4,763.8z
				"/>
			<path class="st4" d="M-1848.4-5.2c0.1,2.5,0.3,4.9,0.3,7.4c0,347.1,0,694.2,0,1041.3c0,1.8,0.1,3.6,0,5.4c-0.1,2.2,1,2.9,3,2.8
				c1-0.1,2,0,3,0c85.6,0,171.2,0,256.9,0c1.6,0,3.3-0.1,4.9-0.2c2,0.1,3.9,0.3,5.9,0.3c162.2,0,324.4,0,486.6,0
				c2,0,3.9-0.2,5.9-0.3c2,0.1,4,0.2,5.9,0.2c164.4,0,328.8,0,493.1,0c2,0,4-0.1,5.9-0.2c2,0.1,3.9,0.3,5.9,0.3
				c170.5,0,340.9,0,511.4,0c2,0,3.9-0.2,5.9-0.3c2.8,0.1,5.6,0.2,8.4,0.2c191.6,0,383.2,0,574.8,0c2.8,0,5.6-0.1,8.4-0.2
				c2.1,0.1,4.3,0.3,6.4,0.3c177,0,354.1,0,531.1,0c1.6,0,3.3-0.1,4.9-0.2c-0.2,0.3,0.5,1-0.5,1c-1.3,0-2.6,0-4,0
				c-975,0-1950,0-2925.4,0c0-1.7,0-3.4,0-5.1c0-349.5,0-698.9,0.1-1048.4C-1849.4-2.2-1850.5-4.1-1848.4-5.2z"/>
		</g>
	</g>
</g>
<g>
	<path class="st5" d="M435.4,460.5c12,0,22.6,3.9,27.8,10.4h0.8c0-0.8-0.2-2.3-0.2-8.3v-46.2h35.6v155.4h-33.1v-3.3
		c0-3.1,0.2-5.6,0.4-7h-0.8c-6.8,8.9-18.4,13.7-32.1,13.7c-29.6,0-51-23.2-51-57.2C382.8,483.7,405.2,460.5,435.4,460.5 M465,517.2
		c0-15.3-9.7-25.3-23.2-25.3c-13.3,0-22.8,9.9-22.8,25.3c0,15.5,9.5,25.7,22.8,25.7C455.3,542.9,465,532.8,465,517.2"/>
	<path class="st5" d="M570.3,460.5c13.9,0,24.4,4.8,30.5,12.6h0.8c-0.2-1-0.4-2.5-0.4-5.8v-3.5h32.9v107.9h-32.9v-3.9
		c0-2.9,0.2-5,0.4-6.4h-0.8c-6.6,8.7-18,13.7-32.1,13.7c-29.6,0-51-23.2-51-57.2C517.6,483.7,540.2,460.5,570.3,460.5 M599.9,517.2
		c0-15.3-9.7-25.5-23.2-25.5c-13.3,0-22.8,10.2-22.8,25.5c0,15.7,9.5,26.1,22.8,26.1C590.1,543.3,599.9,533,599.9,517.2"/>
	<path class="st5" d="M639.6,619.4v-31.3h18.2V463.8h36v155.6H639.6z M655.2,432.3c0-11.4,9.1-20.7,20.7-20.7
		c11.6,0,21.1,9.3,21.1,20.7c0,11.8-9.5,20.9-21.1,20.9C664.3,453.2,655.2,444.1,655.2,432.3"/>
	<polygon class="st5" points="722.5,494.7 713.6,494.7 713.6,463.8 722.5,463.8 722.5,437.1 758.5,437.1 758.5,463.8 779.3,463.8 
		779.3,494.7 758.5,494.7 758.5,540.4 776.2,540.4 776.2,571.7 722.5,571.7 	"/>
	<path class="st5" d="M790.4,517.9c0-33.6,24.2-57.4,58.2-57.4c34,0,58.2,23.8,58.2,57.4c0,33.4-24.2,57.2-58.2,57.2
		C814.7,575,790.4,551.2,790.4,517.9 M870.8,517.2c0-15.3-8.7-25.5-22.2-25.5c-13.5,0-22.2,10.2-22.2,25.5
		c0,15.7,8.7,26.1,22.2,26.1C862.1,543.3,870.8,533,870.8,517.2"/>
	<path class="st5" d="M163.8,453.4c0.5-0.7,1-1.4,1.6-2c0,0,0,0,0.1-0.1c0,0,0.1-0.1,0.1-0.1c0,0,0.1-0.1,0.1-0.1c0,0,0,0,0.1-0.1
		c1-0.9,2.1-1.6,3.3-2c0.1,0,0.1,0,0.2-0.1c0,0,0.1,0,0.1,0c1.4-0.6,2.9-0.8,4.4-0.8h0c0.1,0,0.1,0,0.2,0c0,0,0.1,0,0.1,0
		c0,0,0.1,0,0.1,0c0.1,0,0.1,0,0.2,0c0,0,0,0,0,0c1.5,0.1,3,0.5,4.3,1.2c0,0,0.1,0,0.1,0c0,0,0.1,0,0.1,0.1c1.1,0.6,2.2,1.4,3.1,2.3
		c0,0,0,0,0.1,0.1c0,0,0.1,0.1,0.1,0.1c0,0,0.1,0.1,0.1,0.1c0,0,0,0,0.1,0.1c0.6,0.7,1.1,1.4,1.5,2.1l40.1,69.4
		c13-12.7,29-22.1,48.1-22c21-0.1,40,11.8,54.4,26.9c1-5.9,1.6-12,1.6-18.3c0-58.3-47.3-105.6-105.6-105.6
		c-58.3,0-105.6,47.3-105.6,105.6c0,3.5,0.2,7,0.5,10.5L163.8,453.4z"/>
	<path class="st5" d="M318.7,552.9c0,0-0.1-0.1-0.1-0.2l-0.9-1.1c-8.2-10.2-18.8-19.7-30.9-24.5c-5.3-2.1-10.4-2.9-15.8-2.6
		c-16.8,0.9-29.5,13.7-39.5,26.3c-0.7,0.9-1.5,1.7-2.4,2.3c-6.6,5.1-15.1,1.5-18-4.8l-38.3-66.2l-47.4,69.1
		c16,38,53.6,64.6,97.3,64.6c42.9,0,79.9-25.6,96.4-62.4C318.9,553.2,318.8,553,318.7,552.9"/>
</g>
</svg>
