<svg width="284" height="284" viewBox="0 0 284 284" fill="none" xmlns="http://www.w3.org/2000/svg">
<rect width="283.5" height="283.5" fill="#C978E1"/>
<path d="M153.823 136.158C153.193 130.508 150.763 125.708 146.883 121.618C142.173 116.678 136.293 113.708 129.753 111.978C123.403 110.288 116.943 109.788 110.383 110.078C106.673 110.228 103.023 110.588 99.3729 111.258C93.5529 112.318 87.9829 114.108 82.7029 116.788C75.8229 120.288 69.9129 124.978 65.0829 131.008C62.8929 133.728 60.9729 136.638 59.4529 139.788C59.1129 140.488 58.7329 141.198 59.2629 141.978C59.4729 142.168 59.6629 142.378 59.8929 142.548C60.2929 142.838 60.7129 143.158 61.2429 142.838C61.5629 141.998 61.9629 141.188 62.3829 140.408C67.3229 131.308 74.5129 124.478 83.5929 119.618C92.6229 114.788 102.353 112.798 112.503 112.448C115.353 112.348 118.183 112.448 121.033 112.678C125.573 113.078 130.043 113.918 134.343 115.488C138.943 117.178 143.083 119.608 146.333 123.358C151.393 129.178 152.663 135.908 150.833 143.278C149.443 148.868 146.403 153.558 142.433 157.648C137.743 162.518 132.183 166.108 125.873 168.538C123.803 169.338 121.693 170.058 119.483 170.478C119.143 170.538 118.873 170.608 118.513 170.688C116.103 171.218 113.573 171.488 111.103 171.598C109.333 171.678 107.703 171.868 105.783 171.868C104.153 171.888 102.453 171.698 99.7029 171.258C96.1829 170.668 92.7229 169.848 89.4429 168.408C86.9129 167.288 84.5229 165.898 82.7329 163.728C81.4429 162.148 80.6429 160.368 81.0029 158.268C81.4029 155.908 82.5029 153.878 84.1629 152.168C86.4029 149.868 89.2029 148.578 92.3029 147.868C94.7529 147.318 97.2029 147.378 99.6929 147.408C99.7329 147.408 100.173 147.408 100.343 147.448C102.623 147.618 104.833 148.148 106.973 148.908C107.483 149.098 107.433 149.328 107.163 149.688C104.863 152.768 102.623 155.868 100.723 159.188C100.133 160.308 99.5629 161.448 99.3529 162.708C99.2229 163.548 99.4529 163.958 100.133 164.168C100.853 164.248 101.543 164.038 102.203 163.788C102.683 163.618 102.773 163.308 102.563 162.898C102.273 162.308 101.883 161.798 101.273 161.548C100.783 161.358 100.913 161.228 101.163 160.938C102.363 159.528 103.543 158.128 104.733 156.718C106.463 154.688 108.193 152.648 109.923 150.618C110.193 150.298 110.413 150.198 110.813 150.428C113.243 151.798 115.393 153.508 117.143 155.708C118.073 156.888 118.663 158.278 119.533 159.468C119.803 159.618 120.043 159.788 120.333 159.948C120.583 160.078 120.823 160.098 121.053 159.868C121.263 159.658 121.203 159.448 121.113 159.218C121.013 159.028 120.923 158.838 120.843 158.648C118.883 154.598 115.823 151.558 112.083 149.178C111.623 148.888 111.553 148.738 111.933 148.318C114.293 145.598 116.593 142.848 118.943 140.108C119.403 139.578 119.433 139.138 119.073 138.588C118.863 138.268 118.613 137.978 118.293 137.768C117.783 137.428 117.323 137.328 116.753 137.788C115.403 138.838 113.993 139.798 112.633 140.808C111.833 141.378 111.763 141.698 112.383 142.478C112.703 142.858 112.573 143.088 112.343 143.368C111.523 144.418 110.693 145.438 109.873 146.488C109.033 147.568 109.053 147.548 107.823 147.038C105.543 146.088 103.323 145.228 100.833 145.008C100.833 145.008 99.6329 144.898 99.5229 144.878C95.9329 144.498 92.3729 144.668 88.9129 145.788C84.6929 147.158 81.2929 149.548 79.3929 153.738C78.3829 155.938 78.1029 158.228 78.9129 160.558C79.8629 163.278 81.6329 165.408 83.8729 167.168C87.1829 169.768 90.9629 171.428 94.9929 172.548C98.8129 173.668 103.583 174.178 105.393 174.258C109.213 174.428 113.013 174.358 116.813 173.748C121.903 172.948 126.793 171.508 131.433 169.258C135.233 167.418 138.713 165.118 141.883 162.318C146.163 158.558 149.653 154.238 151.863 148.938C153.533 144.818 154.293 140.558 153.803 136.128L153.823 136.158Z" fill="white"/>
<path d="M195.813 142.698C197.673 142.718 199.123 141.348 199.143 139.558C199.313 137.928 197.703 136.328 195.893 136.328C194.083 136.328 192.583 137.768 192.583 139.538C192.583 141.308 194.013 142.678 195.813 142.698Z" fill="white"/>
<path d="M224.323 157.558C224.133 156.758 223.943 155.958 223.733 155.088C223.443 155.258 223.223 155.388 223.013 155.548C221.343 156.748 219.593 157.868 217.843 158.928C216.003 160.068 214.083 161.038 212.003 161.668C211.373 161.858 210.713 161.938 210.253 161.328C209.723 160.628 210.293 158.568 211.093 158.168C213.733 156.878 216.283 155.408 218.693 153.718C219.943 152.848 221.163 151.928 222.023 150.638C222.693 149.628 222.723 148.528 222.153 147.468C221.583 146.408 220.673 145.818 219.433 145.838C217.763 145.838 216.353 146.538 215.063 147.508C212.383 149.508 210.333 152.048 208.653 154.938C208.403 155.378 208.233 155.888 207.783 156.208C205.753 157.688 203.753 159.208 201.643 160.558C200.923 161.018 200.203 161.528 199.213 161.658C199.233 161.318 199.363 161.128 199.503 160.938C200.303 159.798 201.173 158.698 202.163 157.708C203.783 156.078 205.413 154.438 207.033 152.808C207.713 152.108 208.343 151.368 208.093 150.258C207.983 149.768 208.153 149.118 207.583 148.868C207.033 148.638 206.613 149.138 206.233 149.478C205.343 150.318 204.313 150.848 203.063 150.918C202.703 150.938 202.393 150.958 202.203 150.598C201.973 150.238 202.263 150.048 202.453 149.818C203.483 148.658 204.123 147.348 203.973 145.748C203.873 144.778 203.233 144.438 202.373 144.928C202.053 145.118 201.763 145.388 201.483 145.628C200.473 146.518 199.623 147.568 199.223 148.838C199.013 149.508 198.733 150.018 198.253 150.488C195.843 152.918 193.103 154.958 190.233 156.798C188.443 157.938 186.713 159.228 184.853 160.278C184.703 160.358 184.513 160.548 184.343 160.388C184.193 160.258 184.263 160.028 184.343 159.858C184.633 159.158 184.893 158.448 185.233 157.768C187.113 154.118 189.603 150.908 192.223 147.788C192.813 147.108 193.443 146.438 194.123 145.678H190.153C189.883 145.678 189.713 145.758 189.543 145.968C187.303 148.628 185.153 151.368 183.323 154.348C183.093 154.728 182.943 155.208 182.583 155.468C181.363 156.328 180.113 157.158 178.893 157.998C178.623 158.168 178.513 158.188 178.413 157.828C178.223 157.128 177.803 156.558 177.333 156.008C176.743 155.308 176.093 154.638 175.713 153.768C175.483 153.238 175.483 152.758 175.963 152.358C176.973 151.488 177.963 150.588 178.833 149.598C179.613 148.728 180.463 147.868 180.883 146.728C181.173 145.948 181.413 145.098 180.693 144.488C180.013 143.898 179.253 144.298 178.563 144.638C177.533 145.188 176.663 145.948 175.823 146.768C174.583 147.968 173.673 149.428 172.493 150.668C168.403 154.998 163.563 158.288 158.233 160.878C157.413 161.278 156.543 161.618 155.613 161.748C154.813 161.858 154.373 161.598 154.153 160.928C153.863 160.038 154.513 158.478 155.353 158.058C157.803 156.838 160.163 155.488 162.423 153.948C163.773 153.018 165.123 152.088 166.053 150.698C166.733 149.668 166.853 148.568 166.263 147.468C165.653 146.368 164.703 145.778 163.413 145.818C161.573 145.878 160.053 146.748 158.663 147.848C156.153 149.848 154.213 152.298 152.653 155.068C151.683 156.798 150.863 158.568 150.943 160.618C151.023 162.808 152.123 164.328 154.003 164.688C154.953 164.858 155.883 164.748 156.813 164.518C159.593 163.838 161.983 162.408 164.303 160.828C166.943 159.018 169.703 157.408 172.073 155.218C172.203 155.108 172.393 154.818 172.583 155.138C173.193 156.218 174.143 157.038 174.693 158.158C175.263 159.318 175.053 160.208 173.993 160.938C173.123 161.528 171.963 161.738 171.143 160.688C170.473 159.828 169.493 159.628 168.443 159.738C167.553 159.838 166.923 160.578 167.053 161.388C167.153 161.998 167.373 162.568 167.813 163.038C168.933 164.218 170.363 164.518 171.903 164.478C173.913 164.418 175.633 163.448 177.303 162.468C178.383 161.818 179.433 161.098 180.533 160.378C180.533 160.928 180.513 161.408 180.533 161.858C180.593 163.478 181.713 164.448 183.313 164.268C183.843 164.208 184.323 164.018 184.793 163.788C186.733 162.878 188.483 161.658 190.193 160.368C193.253 158.088 196.423 155.978 199.333 153.488C199.463 153.378 199.653 153.008 199.903 153.318C200.203 153.678 200.623 153.808 201.023 153.988C200.963 154.278 200.773 154.368 200.623 154.518C199.653 155.468 198.683 156.398 197.833 157.468C196.883 158.668 196.083 159.938 195.833 161.498C195.583 163.118 196.553 164.478 198.153 164.748C198.973 164.878 199.693 164.648 200.413 164.328C202.423 163.418 204.233 162.138 206.063 160.888C206.803 160.378 206.783 160.378 206.883 161.308C207.093 163.398 208.533 164.688 210.623 164.728C212.353 164.748 213.933 164.198 215.473 163.488C218.533 162.078 221.233 160.108 223.973 158.188C224.273 157.998 224.393 157.808 224.313 157.518L224.323 157.558ZM219.173 148.608C219.003 149.848 215.813 152.598 213.903 153.208C214.473 151.938 217.613 149.158 219.173 148.608ZM163.363 148.708C162.203 150.898 160.153 152.058 157.983 153.328C158.653 151.888 161.953 149.018 163.363 148.708Z" fill="white"/>
</svg>
