<?xml version="1.0" encoding="UTF-8"?>
<svg xmlns="http://www.w3.org/2000/svg" version="1.1" viewBox="0 0 283.5 283.5">
  <defs>
    <style>
      .cls-1 {
        fill: #05b2fc;
      }

      .cls-2 {
        fill: #fff;
      }
    </style>
  </defs>
  <!-- Generator: Adobe Illustrator 28.7.1, SVG Export Plug-In . SVG Version: 1.2.0 Build 142)  -->
  <g>
    <g id="Vrstva_1">
      <g id="Vrstva_1-2" data-name="Vrstva_1">
        <rect class="cls-1" width="283.5" height="283.5"/>
      </g>
      <path id="path2987" class="cls-2" d="M99,84.5c-31.6,0-57.3,25.6-57.3,57.3s25.6,57.3,57.3,57.3,32.3-7.4,42.7-19.2c10.5,11.8,25.8,19.2,42.7,19.2,31.6,0,57.3-25.6,57.3-57.3s-25.6-57.3-57.3-57.3-32.3,7.4-42.7,19.2c-10.5-11.8-25.8-19.2-42.7-19.2ZM99,97c24.7,0,44.7,20,44.7,44.7s-20,44.7-44.7,44.7-44.7-20-44.7-44.7,20-44.7,44.7-44.7ZM74.7,120v44.2h29.4c13.4,0,24-8.3,24-22.1,0-13.8-11.1-22.1-24-22.1h-29.4ZM154.5,123.1h13.2l5.9,20.5,7.4-20.5h10l7.4,20.6,5.9-20.6h13.2l-12.4,39.2h-11.3l-7.9-19.1-8,19.1h-11.1l-12.4-39.2ZM88.7,132.8h13.3c7.1,0,11.2,3.4,11.2,9.4,0,6-3.8,9.1-11,9.1h-13.5v-18.6Z"/>
    </g>
  </g>
</svg>