<svg xmlns="http://www.w3.org/2000/svg" viewBox="0 0 283.46 283.46"><defs><style>.cls-1{fill:#fff;}</style></defs><g id="Layer_2" data-name="Layer 2"><g id="Discovery_Group" data-name="Discovery Group"><g id="discovery"><rect width="283.46" height="283.46"/><g id="logo"><path id="path1847" class="cls-1" d="M73.89,124.46a3.27,3.27,0,1,0,3.23-3.26,3.27,3.27,0,0,0-3.23,3.26m6.75,6.29h-7v22.77h7Zm146.29,31.52,14-31.52h-7.37l-5,12.19L223,130.75H215.2l9.57,19.7-5.17,11.82Zm-12.69-31.52a6.83,6.83,0,0,0-1.84-.23c-1.83,0-4.72.73-5.9,3.3v-3.07h-6.74v22.77h7v-9.94c0-4.54,2.51-6.19,5.31-6.19a9.69,9.69,0,0,1,2.2.23Zm-32.94,8.66a4.33,4.33,0,0,1,4.53-3.85c3.3,0,4.49,2.11,4.58,3.85Zm9.62,5.91a4.39,4.39,0,0,1-4.58,3,4.93,4.93,0,0,1-5.18-4.39H197a13.81,13.81,0,0,0,.14-2.15c0-7.33-4.36-11.69-11.41-11.69-5.91,0-11.37,4.67-11.37,12,0,7.64,5.59,12.13,11.87,12.13,5.78,0,9.4-3.29,10.5-7.23Zm-15.68-14.57h-7.33l-4.86,14.15-5.27-14.15h-7.55l9.34,22.77h7Zm-36,17c-2.61,0-5.13-1.88-5.13-5.68s2.52-5.63,5.13-5.63,5.14,1.79,5.14,5.63-2.48,5.68-5.14,5.68m0-17.73a12.07,12.07,0,1,0,12.1,12.05,11.77,11.77,0,0,0-12.1-12.05m-24.18,6.42a4.48,4.48,0,0,1,4.58,3.38L125.9,138c-1-4.08-4.67-7.93-11-7.93a11.75,11.75,0,0,0-12,12.1,11.87,11.87,0,0,0,12.23,12A10.78,10.78,0,0,0,126,146.28l-6.14-1.88a4.69,4.69,0,0,1-4.72,3.39c-2.89,0-5.32-2-5.32-5.63s2.34-5.68,5.23-5.68M82.66,147.06c.18,2.52,2.47,7.14,9.62,7.14,6.09,0,9.07-3.8,9.07-7.69,0-3.35-2.29-6.19-7-7.15l-3-.59c-1-.19-1.78-.73-1.78-1.7a2.21,2.21,0,0,1,2.47-2,3,3,0,0,1,3.25,2.8l5.78-1.06c-.23-2.65-2.52-6.78-9.12-6.78-5.09,0-8.75,3.39-8.75,7.56,0,3.21,1.92,6,6.78,7l2.61.59c1.7.37,2.25,1.06,2.25,1.89,0,1-.87,2-2.66,2A3.24,3.24,0,0,1,88.57,146Z"/><path id="path1410" class="cls-1" d="M51.73,138.63a.31.31,0,0,0,0,.18.31.31,0,0,1,.05.1s0,.05,0,.05,0,0,0-.12a.33.33,0,0,1,0-.16c0-.15,0-.18,0-.05m-.29-4.28s-.08,0-.08,0,0,0,.06,0l.07,0s0,0-.05,0m0-1.72c.06,0,.05-.06,0-.1s-.07-.05-.08,0,0,.13.09.12m.22-.07s0-.05,0-.08,0,0,0,0,0,0,0,0,0,0,0,.08,0,0,0,0m1.61,1.55s0-.05,0-.08a.13.13,0,0,1,0-.08s0,0,0,0-.11.09-.09.18,0,.06.11.09.06,0,0,0a.06.06,0,0,1,0-.06m-1.39,4s0,0,0,0,0,0,0,0,0,0,0,0,0,0,0,0M53,134.53l0,0s0,0,0,0,0,0,0,0a0,0,0,0,0,0,0s0,0,0-.07-.05,0-.08,0,0,0,0,0,0-.05,0-.05a.49.49,0,0,1-.09-.1c0-.05-.06-.09-.05-.09a0,0,0,0,0,0,0s0,0,0,0,0,0,0-.09-.11-.08-.2,0-.12.13-.07.21l0,.08a.89.89,0,0,0,.08.13l.08.11a.22.22,0,0,1,0,.08.28.28,0,0,0,0,.13c0,.09.22.17.29.13a.28.28,0,0,0,0-.21.06.06,0,0,1,0,0m-1.21,0s0,0,0,0,0,0,0,0,0,0,0,0,0,0,0,0m.08-1.73a.05.05,0,0,0,0-.05s0,0,0,0,.07.1.06.05m.61.34a.11.11,0,0,0,0-.05s0,0,0,0,0,.15,0,.12a0,0,0,0,0,0,0s0,0,0-.06m.06,1.5v0s0,0,0,0,0,0,0,0l0,0m.2-1.81s0,0,0,0a0,0,0,0,0,0,0v0a0,0,0,0,0,0,0m-.34,1.75s0,0,0,0a0,0,0,0,0,0,0h0M52,134a.25.25,0,0,1-.09-.07h0s0-.07,0-.09,0,0,0,0l0,0h0l-.07,0-.1.05c-.06,0-.07,0,0,.06a.08.08,0,0,0,.08,0s0,0,0,0,0,0,0,0l-.07,0s0,0-.07,0,0-.06,0-.08,0,0,0,0-.06,0-.06,0-.12,0-.14.11,0,0,0,0-.08.21-.07.26.2.1.29,0,.13,0,.23,0,.28.08.32,0-.14-.25-.22-.31m3-1.8s0,0,0,0l0,0s0,0,0,0l0,0m-.16,1.42s0,0,0,0,0,0,0,0l0-.05m-.28,0s0,0,0,0l0,0s0,0,0,0l0,0m2.91,4.8v0a0,0,0,0,0,0,0v0m0,.07a0,0,0,0,0,0,0s0,0,0,0,0,0,0,0m-.05-.46a0,0,0,0,0,0,0s0,0,0,0h0m0,.05h0s0,0,0,0h0m0-.2h0s0,.08,0,.07V138m0-.11h0v0h0v0m0,.07a.15.15,0,0,1,0,.06l0,0h0a1.17,1.17,0,0,0,.05-.11s0,0,0,0m-.09,1c0-.07,0-.06,0,0s0,0,0,0v-.06m0-.64h0s0,0,0,0,0-.05,0,0h0v-.06s0-.08,0-.09a.08.08,0,0,0,0,0s0,0,0,0a.17.17,0,0,0-.06-.11s-.06,0-.06-.06,0,0-.05.06,0,.08,0,.05v-.08a.22.22,0,0,1,0-.06s0,0-.07,0l0,0h0l0,0s0,0,0,0h0s0,0,0,0V138s0,0,0,0,0,0,0,0,0,0,0,0,0,.1,0,.13,0,0,0,0l0,0s0,0,0,0,0,0,0,0,.05,0,.07,0a.14.14,0,0,1,0-.06s0,0,0,.06,0,.06,0,.06m-.27-.14s0-.07,0-.07v0l0,.06s0,0,0,0m-.06.48v0s0,0,0,0v0m.17-.13c0-.11,0-.13,0-.09l-.08.26a1.31,1.31,0,0,1,0,.15c0,.06,0,.07,0,0l0,0c0-.07,0-.07,0-.14a.25.25,0,0,1,0-.07l0,0s0,0,0,0,0,0,0,0,0,0,0,0,0,.06,0,.07a.06.06,0,0,0-.05.05l0,.06a.14.14,0,0,0,0,.06.05.05,0,0,1,0,0s0,0,0,0v0s0,0,0,0a0,0,0,0,1,0,0,.23.23,0,0,0-.06.11l0,0s0,0,0,0,0,0,0,0v0s0,0,0,.07a.44.44,0,0,1-.08.15l-.09.07a.58.58,0,0,0-.11.1s0,0,0,0v0l0,0s-.08.17-.09.23,0,.05,0,.07,0,0,0,.12,0,.12,0,.15a.23.23,0,0,0,0,.07.64.64,0,0,1-.06.16s0,0,0,.07,0,0,.1,0a.23.23,0,0,1,.11-.07s.06,0,.07-.05.08-.1.22-.19.05,0,.05,0h0s0,.1,0,.14,0,0,.06-.06.06-.08,0,0,0,.1,0,0,0,0,0,0,0,0,0,0,0,0,0,.06,0,.08,0,.08h0l0,0s0,0,0,0,0,0,0,0,0-.06.06-.06a.11.11,0,0,0,0-.05l.17-.34.05-.1,0-.12a.61.61,0,0,0,0-.11l0-.1a.43.43,0,0,0,0-.12v-.09a0,0,0,0,0,0,0,.32.32,0,0,1,0-.07.28.28,0,0,0,0-.1.11.11,0,0,1,0-.08.31.31,0,0,0,0-.09s0-.05,0-.08,0,0,0-.06,0,0,0-.12m0,1.44h0s0,0,0,0v0s0,0,0,0l0-.07s0,0,0,0,0,0,0,0a.68.68,0,0,1,0,.15l0,0s0,0,0,.05,0,0,0,0a.13.13,0,0,0,0,.05.76.76,0,0,0,.08-.16l0,0s0-.06,0-.1m-.17.28a0,0,0,0,1,0,0s0,0,0,.07l-.1.15-.12.18s0,0,0,0,.05,0,.09-.12l.06-.1s0,0,0,0l0-.08c0-.07.05-.11,0-.1m-.39.19,0,0v.07c0,.08,0,.11,0,.06l0,0,0,0c.05-.1.05-.11,0-.09m-.1-.25h0s0,0,0,0m-.41-6.54,0,0s0,0,0,0l0,0h0m.41-.12,0,0h0s0,0,0,0h0M51,132.77s0,0,0,0,0,0,0,0,0,0,0,0m-.25.1s0,0,0,0,0,0,0,0l0,0s0,0,0,0m-.41.18s.06,0,.06-.06,0,0-.05,0,0,.05,0,.07m-.07,0,0,0s0,0,0,0,0,0,0,0m1.54,1.92s.06,0,.06,0,0,0,0,0l-.06,0s0,0,0,0m-.56-.05a.08.08,0,0,0,.07,0s0,0,0,0-.06,0,0,0m-.82-.21.08,0s0,0,0-.07,0-.06-.09-.06-.1,0-.1,0,0,0,.08.06m-.3-.4s0,0,0-.05,0-.07-.05,0,0,.09,0,.09m-.06.15a.23.23,0,0,0,0,.09c.05,0,.08,0,.09-.11s0-.09-.06-.08,0,0,0,.1m-.39,0s0,0,0,0,0,0,0,0,0,0,0,0m6,2.17.08.18a.84.84,0,0,1,.07.27c0,.1.05.19.05.19s.11.16.12.21.07.3.12.29,0,0,0-.06a.66.66,0,0,1,0-.14c0-.07-.09-.19-.14-.21a.09.09,0,0,1,0-.06.31.31,0,0,0,0-.1c0-.06,0-.08-.06-.23s0-.19,0-.11l0,0L56,137a.39.39,0,0,0,.08.09.24.24,0,0,1,0,.07l0,.06s0-.09,0-.11,0,0,0,0,0,0,0,0a.34.34,0,0,0,0-.17,1.15,1.15,0,0,0-.16-.31c-.1-.13-.11-.18-.09-.28s.07-.11.09,0l0,.07s0,0,0,0,0,.09,0,.12,0,0,0-.06a.14.14,0,0,0,0-.07c0-.06,0-.11,0-.14s0,0,0-.08,0,0,0,0,.08,0,.1-.08a.38.38,0,0,0,0-.17v-.12c0-.14,0-.21,0-.22h0v0s0-.1-.07-.2a.92.92,0,0,0-.09-.15s0-.15,0-.16,0-.05,0-.07,0,0,0,0,0,0,0,0l0,0s-.06-.08,0-.07,0,0,0-.08,0-.06,0-.05,0,0,0,.06,0,.09,0,.06,0,0,0,0a.09.09,0,0,1,.05.07c0,.07,0,.09,0,.09a.06.06,0,0,1,0,.07,1.84,1.84,0,0,0,.06.18s0,0,0,0,0,0,0-.1a.43.43,0,0,0-.09-.18l-.06-.11a.16.16,0,0,0,0-.12.13.13,0,0,1,0-.09s0,0,0,0,.06,0,.05-.22a.73.73,0,0,0-.05-.28.79.79,0,0,1,0-.12c0-.1-.13-.27-.14-.2s0,0,0,0,0-.05,0,0,0,0,0,0a.07.07,0,0,0,0,0h0v0a.24.24,0,0,0,0-.08c0-.18-.05-.21,0-.17s0,0,0,0,.07,0,.07.05l0,0h0s0,0,0,0,0,0,0-.08,0-.06,0,0,0,0,0,0,0,.06,0,0,0,0,0,0,0,0,0,0a.1.1,0,0,1,0,0,.21.21,0,0,1,0,.15v.08a.07.07,0,0,1,0,.05.3.3,0,0,0,0,.18,1.22,1.22,0,0,0,.08.17l.07.14s0,0,0-.08,0,0,0,0a.13.13,0,0,0,0-.05s0,0,0,0,0,0,0-.05,0-.08,0-.06,0,0,0,0,0,0,0,0l0,0a.11.11,0,0,0,0,0s0,0,0-.09,0-.05,0-.05h0s0,0,0,0,0,0,0,0h0a6.87,6.87,0,0,0-.48-.68l0,0h0v0h0s0,0,0,0h0l0-.06-.09-.05c-.09,0,0,0-.08-.07s-.12-.09-.1-.05h0s0,0-.06-.05l-.07,0h0s0,0,0,0,0,0,0,0h0s0,0,0,0l-.08,0s-.06,0-.06,0,0,0-.09-.07,0,0,0,0,0,0,0,0,0,0,0,0,0,0,0,0l-.09,0s-.06,0,0,0,0,0,0,0l-.09,0a.67.67,0,0,0-.12-.06l-.15-.06s-.05,0,0,0,0,0,0,0-.08,0,0,0l0,0,.06,0s0,0,0-.07l0,0-.05,0-.08,0c-.06,0-.13-.05-.13-.07a.11.11,0,0,0-.13,0s0,0,0,0,0,0,0,0,0,0,0,0,0,0-.06,0-.32,0-.34,0v0l0,0s0,0-.09,0h-.12s0,.09.09.11,0,0,0,0,0,0-.07,0l-.1-.06s0,0,0,0,0,0,0,0-.06,0,0,0,0,0,0,0,0,0-.06-.06a.24.24,0,0,0,0-.07s0,0,0,0,0,0,0,0a0,0,0,0,0,0,0s0,0,0,.06,0,0,0,.06a.09.09,0,0,0,.09.1c.07,0,.12,0,.12.1s0,0,0,0a.13.13,0,0,0-.1-.08s0,0,0,.06,0,.06,0,.09a.1.1,0,0,1-.16,0s0,0,0,0,.06,0,.07-.05,0-.07,0-.1a.19.19,0,0,1,0-.11l0-.09a.06.06,0,0,1,0-.06.08.08,0,0,0-.07-.08s0,0,0,0,0,0,0,0,0,0,0,0,0,0,0,0,0,0,0,0a.08.08,0,0,1,0,.07s0,0,0,0,0,0,0,0,0,0,0,0l.06,0c.1.09.07.11,0,0a.69.69,0,0,0-.2-.09l-.13-.05s0,0,0,0,.08.08.06.11,0,0,0,0,0,0-.12,0-.1,0-.12,0,0,0,0,0l-.06,0c-.07,0-.15,0-.15.08s-.07,0-.11,0,0-.06,0-.06,0,0,0-.06-.12,0-.1,0a.11.11,0,0,1,0,.06.08.08,0,0,0,0,0s0,.09,0,.06a.15.15,0,0,0-.09,0c-.06,0-.06,0,0,.09s0,0,0,0l-.09,0s0,0,0,0a.1.1,0,0,0,0,.05s0,.05,0,.05a.29.29,0,0,1-.15-.09.24.24,0,0,1,0-.08.06.06,0,0,0,0,0c-.08,0,0,0,.12,0s.15,0,.18,0a.07.07,0,0,0,0-.06.56.56,0,0,0-.15-.11,1.24,1.24,0,0,0-.36-.13c-.07,0-.08,0-.06,0s0,0,0,0-.06,0-.07,0,0,0,0,0,0,0,0,0l-.06,0s0,0,0,0,0,0,0,0l0,0s0,0,0,0l-.07.05h0a.07.07,0,0,0-.07,0,.07.07,0,0,1-.06,0s0,0,0,0,0,0,0,0h0s0,0,0,0,0,.06-.06,0,0,0,0,0,0,0,0,0,0,0,0,0,0,0,.05,0,0,0-.06.09a.5.5,0,0,0-.12.14.1.1,0,0,1-.05.07s0,0,0,0,0,0,0,0a.09.09,0,0,0-.06,0,.09.09,0,0,1-.06,0s0,0,0,0,0,0,0,0l-.09,0c-.07.05-.1.12-.06.18a.06.06,0,0,1,0,.07s0,0,0,0,0,0,0,0,0,.05,0,.08.07,0,.13,0,.07-.06.07-.08,0,0,0,0a.19.19,0,0,1,0,.07s0,0,0,0,0,0,0,0a.16.16,0,0,0,0,.08s0,.05,0,.05a.15.15,0,0,0,0,.06s.09,0,.09,0,0,0,0,0,.1,0,.1-.12a.09.09,0,0,1,0-.11l.07-.06s0,0,0-.07l0,0s0,0,0,0a.21.21,0,0,1,.12-.19c.08-.05.11-.08.1-.11s.06-.09.13-.08.1,0,.05.08-.19.16-.17.2,0,.06,0,.09.08.12.2.1l.14,0s.1,0,.08.06,0,0-.12,0-.18,0-.18.05a.05.05,0,0,0,0,.05s0,0,0,.06,0,.08-.07,0-.12,0-.11.13,0,.08,0,.08l0,0s-.07,0-.09,0-.06,0-.14,0-.13,0-.14,0l-.12,0c-.1,0-.15,0-.13-.1s0-.05,0-.05,0,0,0,0a.17.17,0,0,1,0-.07s0,0-.06,0,0,0-.05,0,0,0,0,.08,0,.2,0,.2-.14,0-.15.07,0,0,0,0,0,0-.06,0a.33.33,0,0,1-.11.1.13.13,0,0,0-.07.05l-.07.08s-.07,0-.09,0,0,0,0,0,0,0-.05,0-.13,0-.13,0,0,0,0,0,.15.12.14.21,0,.1,0,.13,0,.07-.19.06l-.18,0s0,0-.07,0,0,0,0,.14a1,1,0,0,1-.05.2c0,.06,0,.09,0,.11a.17.17,0,0,1,0,.1c0,.05,0,.06.06,0s.06,0,.09,0,0,.05.08,0l.13,0s.08,0,.09,0a0,0,0,0,1,0,0s.09-.1.09-.16a.35.35,0,0,1,.17-.2.09.09,0,0,0,.07-.1c0-.08.09-.12.15-.08s.06,0,.14,0a.31.31,0,0,1,.12-.07.37.37,0,0,1,.1.11.8.8,0,0,0,.21.2c.13.08.17.14.14.25s0,0,0,0,.06-.08,0-.1,0,0,0-.05,0,0,.07,0a.06.06,0,0,0,0,0s-.12-.12-.15-.12a0,0,0,0,1,0,0,0,0,0,0,0,0,0s-.07,0-.11-.1a.3.3,0,0,0-.09-.1s0,0,0-.07.08-.11.09,0a0,0,0,0,0,0,0s0,0,.06.07a.18.18,0,0,0,.08.09.38.38,0,0,1,.13.08.2.2,0,0,1,.09.14.28.28,0,0,0,.08.17c0,.05.07.1.06.11s.07.13.1.13,0,0,0,0,0,0,0-.07.05-.1,0-.08,0,0,0,0a.07.07,0,0,0,0,0s0-.07,0-.05a.07.07,0,0,0,.06,0c0-.08.19,0,.17.06s0,0,0,0,0,0,0,.06,0,.07,0,.07,0,0,0,0a.1.1,0,0,0,.06.07l.1.06a.05.05,0,0,0,.08,0s0,0,.08,0,.15.06.16,0l.07,0H52v.11a1.21,1.21,0,0,1,0,.25c0,.17-.1.22-.19.16s-.06,0-.11,0a.21.21,0,0,1-.22,0l-.2-.06c-.06,0-.12,0-.12-.06l0,0a.13.13,0,0,0-.17.1.17.17,0,0,1,0,.1s0,0-.12,0a.39.39,0,0,0-.14,0,.08.08,0,0,1-.07-.05c0-.05-.17-.12-.2-.1s-.21-.08-.21-.11l0-.06s0,0,0-.09,0-.05,0-.09,0,0,0,0,0,0,0,0,0,0-.08,0l-.29,0a.87.87,0,0,0-.46.15.32.32,0,0,1-.25,0s0,0-.07.06a.28.28,0,0,1-.11.13.42.42,0,0,0-.18.28.34.34,0,0,1-.18.23.81.81,0,0,0-.23.28l0,.09a.83.83,0,0,0-.11.17c-.06.1-.06.12,0,.16s0,.1,0,.25a1,1,0,0,1-.11.29s0,0,0,.07a.53.53,0,0,1,0,.13c0,.06,0,.07,0,.09s0,0,0,0,0,.07.06.13a.67.67,0,0,1,.06.16c0,.12.18.25.27.34s.07.05.27,0a.31.31,0,0,1,.19,0,.3.3,0,0,0,.23,0,.48.48,0,0,1,.42-.06.15.15,0,0,1,.05.08c0,.07,0,.1.16.08a.14.14,0,0,1,.17.05s.07.08.06.1,0,.1,0,.17a.51.51,0,0,1,0,.16s0,.12.15.26a1,1,0,0,1,.25.48l0,.18c0,.07,0,.1,0,.14a.68.68,0,0,0-.1.35,1,1,0,0,0,.2.37.53.53,0,0,1,.06.19.49.49,0,0,0,.12.29.71.71,0,0,1,.16.31s0,.12.09.14a.1.1,0,0,0,.09,0,.45.45,0,0,1,.16,0,.63.63,0,0,0,.49-.25l.13-.15a.26.26,0,0,0,.07-.16c0-.1,0-.11.11-.15s.1-.05.11-.13a.91.91,0,0,0,0-.17c0-.08,0-.09,0-.13a.5.5,0,0,0,.11-.1.41.41,0,0,1,.13-.1.28.28,0,0,0,.11-.08c0-.06.06-.08.08-.26s0-.21,0-.23a.22.22,0,0,1,0-.14.44.44,0,0,0,0-.17s0-.07.05-.18l.13-.2.18-.21A1.26,1.26,0,0,1,53,138a.76.76,0,0,0,.26-.45,1.47,1.47,0,0,1,0-.19.68.68,0,0,0,0-.15c0-.12,0-.13,0-.11a1,1,0,0,1-.22.08l-.2.06-.06-.07s-.05-.07,0-.08-.12-.19-.23-.27a.26.26,0,0,1-.12-.17.37.37,0,0,0-.1-.16.34.34,0,0,1-.08-.18.46.46,0,0,0-.09-.2.34.34,0,0,1-.07-.11.48.48,0,0,0-.06-.14l-.09-.19a1.4,1.4,0,0,1-.09-.17s-.05-.09,0-.09,0,0,.07.09.1.13.09,0,0-.05,0,0l.11.18a.68.68,0,0,1,.1.17s0,0,.05.07a.47.47,0,0,1,.13.24.23.23,0,0,0,.08.14s.09.08.09.1a.34.34,0,0,0,.08.14.59.59,0,0,1,.08.16.89.89,0,0,0,.11.31s0,0,.08,0l.07,0,.07,0,0,0,.05,0,.11-.08a.22.22,0,0,0,.1-.09.16.16,0,0,1,.1-.08s.07,0,.06-.05,0,0,0,0a0,0,0,0,0,0,0,.07.07,0,0,1,0-.05.09.09,0,0,0,0-.05s0-.11,0-.11,0,0,0-.08l0-.08,0-.06a.17.17,0,0,0-.1-.07c-.06,0-.08-.06-.11-.15s0-.05,0-.08l0,.09c-.08.14-.23.14-.24,0s0-.1,0,0,0,.05-.05,0a.26.26,0,0,0-.07-.11.58.58,0,0,1-.08-.12c0-.1,0-.1,0-.13s.1,0,.16.08.19.25.31.22,0,0,0,0,0,0,0,0,0,0,0,0l.05.08a.76.76,0,0,0,.47,0s0,0,.08.08.17.18.19.16,0,0,0,0a0,0,0,0,1,0,0s0,0,0,.07.12.09.12,0,0,0,0,0a.93.93,0,0,1,0,.1,1.66,1.66,0,0,0,.17.47l.07.14a.62.62,0,0,0,.06.14,1.74,1.74,0,0,1,.1.19c0,.13.08.14.11,0a.7.7,0,0,0,0-.43c0-.1,0-.12,0-.14s0,0,0,0,0,0,0,0,0-.09.09-.22,0-.08,0-.08,0-.05,0-.1a.07.07,0,0,1,0,0h.06l.06,0s0,0,0-.05,0,0,.07.08a.41.41,0,0,0,.09.12s0,0,0,.06,0,0,0,0,.07.12.07.18,0,0,0,.06.05,0,.06,0l0-.06a.42.42,0,0,0,0,.1m-.57.67c-.05-.1-.07-.11-.07-.06a.92.92,0,0,0,.06.25s0,0,.05,0,0-.09,0-.2m-.94,5.51h0m-.67-5.8s0,0,0,0,0,0,0,0,0,0,0,0m-.09,2.83s0,0,0,0a0,0,0,0,0,0,0,0,0,0,0,0,0,0s0,0,0,0m-.05,2.34s0,0,.06,0,0,0,0,0,0,0,0,0m-.66-2.31a.25.25,0,0,0-.05.17c0,.14,0,.18.12.16l.08,0a2.62,2.62,0,0,0,.24-.56l0-.07a.08.08,0,0,0,0-.07s0,0,0,0,0,0,0-.07,0-.21,0-.21l0,0s0,0,0,0a.13.13,0,0,1,0,.07l-.08.09a.29.29,0,0,1-.1.09.21.21,0,0,0-.15.24.16.16,0,0,1,0,.16m-2.75,4.27s0,0,0,0a0,0,0,0,0,0,0v0s0,0,0,0m-.67.13s0,0,0,0,0,0,0,0v0h0m5.36-1s-.06,0-.07,0h0s0,0,0,0h0l0,0s0,0,0,0h0s-.07,0-.06,0,0,0,0,0l-.11,0-.08,0s0,0,0,0,0,0,0,0,0,0,0,0,0,0-.07,0l-.07,0s-.07,0-.07,0h0a1,1,0,0,1-.21.08s-.09,0-.09,0-.08,0-.11,0,0,0-.12,0-.11,0-.15,0l0,0h0l0,0a.51.51,0,0,0-.18.06l-.05,0-.08.06-.13.07-.1,0,0,0,0,0c0,.05-.11.1-.13.09s0-.05,0-.06l0,0s0,0,0,0,0,0,0,0h0s.09-.07.09-.1h-.09a.69.69,0,0,1-.29,0s0,0,0,0-.2,0-.21.05,0,0,0,0h0s0,0,0,0h-.08l-.08,0a.33.33,0,0,0-.17.08s-.07,0-.07,0h0l0,0s0,0,0,0a.47.47,0,0,1-.24.09,1,1,0,0,1-.24,0,1.22,1.22,0,0,0-.33,0,0,0,0,0,1,0,0,1.13,1.13,0,0,0-.32,0,.35.35,0,0,1-.21,0c-.07,0-.11,0-.11,0s0,0-.07,0,0,0-.05,0,0,0-.06,0h-.05s0,0,0,.05h-.08s0,0,0,0,0,0,0,0,0,0,0,0,0,0,0,0-.07,0-.07.05,0,0-.07,0-.56,0-.58.06l.16.08H49c.06,0,.06,0,0,0l0,0h0l0,0h0a6.88,6.88,0,0,0,1.29.12,7.32,7.32,0,0,0,4.32-1.41m-6.08-.73-.05,0s0,0,0,0,.08,0,.06,0m-.09,1.84,0,0s-.12-.08-.19-.07a.07.07,0,0,0,0,0s0,0-.06,0h0l.3.09h.06s0,0,0,0m-.38-11.87s0,0,0,0,0,0,0,0l0,0s0,0,0,0,.05,0,.09-.09a.25.25,0,0,0,0-.11l.06-.06c.07-.05.08-.08.06-.09s0,0,0,0,0,0,0,0,0,0,.06-.05a.21.21,0,0,0,.1-.06s0,0,0,0,0,0,0,0l.09,0a.21.21,0,0,0,.12-.07s-.2-.06-.19-.06a1.35,1.35,0,0,0,.29,0s0,0,0,0,.2,0,.35-.08.11,0,.08-.07l-.08,0s0,0,0,0,0,0,0,0,0,0,0,0l0,0s.11,0,.12,0,0-.11-.08-.12-.07-.09,0-.09,0,0,0,0,.07.08.09.06,0,0,0-.08,0,0,0,0,0,0,0,0,.13,0,.14,0,0,0,0,0l0,0h0s0,0,0,0l0,0a.07.07,0,0,0-.06-.08c-.06,0,0,0,0,0h0s.06,0,.05,0,0,0,0,0,0-.06,0-.06l0,0s0,0,0,0l0,0,0-.05s0,0,0,0a.05.05,0,0,0,0,0s0,0,0,0,0,0,0,0a.7.7,0,0,1,.17-.09l.08,0-.07,0a.22.22,0,0,0-.14,0,.18.18,0,0,1-.1,0,.16.16,0,0,0-.09,0s-.06,0-.06,0,0,0,0,0l0,0s0,0,0,0-.07,0-.06,0,0,0,.07,0,.06,0,.06,0,0,0,0,0l-.09,0a1.3,1.3,0,0,0-.44,0s-.08,0-.08,0l-.16,0c-.09,0-.14,0-.11,0s.05,0,0,0,0,0,0,0,0,0-.11,0-.12,0-.12,0,0,0-.06,0,0,0,0,0,0,0,0,0-.28,0-.3.08,0,0-.06,0a.59.59,0,0,0-.21.1s0,0,0,0,0,0,0,0,0,0-.14.07-.2.07-.21.09.11,0,.13,0h0s0,0-.07,0,0,0,0,0l0,0s.05,0,.14,0,.24,0,.25,0a0,0,0,0,0,0,0s0,0,0,.08,0,.09,0,.11-.05.08,0,.06a.09.09,0,0,1,.09,0s0,.09,0,.07l-.06,0s0,0,0,0h0a0,0,0,0,0,0,0v0s0,0,0,0,0,.06.07,0l0,0v0s0,0,0,0,0,0,0,0,0,0,0,0,0,0,0,0,0,.07-.06.07A.15.15,0,0,0,48,132s-.06.06,0,.08,0,0,0,0,0,0,0,.07a.11.11,0,0,1,0,.08s0,0,.05,0,0,0,0,0,0,.05,0,.16.06.14.12.12m-.24,11.74v0s0,0,0,0h0l.06,0m-.24-.9h0s0,0,0,0h0l0,0m.12.52,0,0,0,0s0,0,0,0l0,0a.05.05,0,0,0,0-.05l0,0a.28.28,0,0,0-.13-.11l0,0,0,0s0-.05.07,0,0,0,0,0a.07.07,0,0,1,.1,0s0,0,0,0l0,0h-.09l-.14,0-.05,0s0,0,0,0l0,0s0,0,0,0,0,.05,0,0,0,0,.05.11l0,.07s0,0-.14,0-.11,0-.13-.05,0,0,0,0,0,0,0,0l0,0s0,0,0,0l-.07,0-.06,0s0,0,0,0,0,0-.08,0l-.09,0-.06,0-.06,0s0,0,0,0a2.14,2.14,0,0,1-.44-.18h0l.06,0,.07,0s0,0-.05,0,0,0,0,0l0,0,0,0s0,0,0,0a7.08,7.08,0,0,0,.89.51s0,0,0,0l-.08,0-.06,0s0,0,0,0a.94.94,0,0,0,.25.09s0,0-.05,0-.18-.1-.16-.11l.09,0a.48.48,0,0,0,.24.09h.12c.05,0,.08,0,.08,0s0,0,0,0,0,0,0,0,0,0,0,0l0,0h0l0,0m-.27.19h0l0,0h0s0,0-.06,0m-1.23-.74s-.08,0-.06,0l0,0,0,0,.08,0c.09,0,0,0-.08-.05m0-1.75s0,0,0,0l0,0s0,0,0,0,0,0,0,0m.29,1.89h0s0,0,0,0l0,0s0,0,0,0m.1-1.22s0,0,0,0,0,0,0,0,0,0,0,0m.09,0,0,0s0,0,0,0,.06,0,0,0m.27,1.35h0s0,0,0,0h0s0,0,0,0m.27-.16a0,0,0,0,0,0,0s0,0,0,0,0,0,0,0m-.21.06h0s0,0,0,0,0,0,0,0m0,0s0,0,0,0,.05,0,0,0,0,0,0,0m.2.12s0,0,0,0,.12,0,0-.13-.08-.09-.11-.08,0,0,0,0a.06.06,0,0,1,0,0s0,0,0,0,0,0,0,0h-.09s0,0,0,0l.06,0a.06.06,0,0,1,.06,0s0,0,0,0m.14-.35s0,0,0,0h0s0,0,0,0m-2-6.92s.12.06.15,0l.08,0h.07l0-.06c0-.07-.18-.1-.17,0s0,.1-.06.08,0,0,0,0m0-.55,0,0s0,0,0,0a0,0,0,0,0,0,0,0,0,0,0,0,0,0m-.13.56s-.08,0-.08,0,0,0,0,0,0,0,0,0m0-.19s0,0,0,0,.12,0,.08-.06l-.06-.07c-.13-.17-.17-.19-.25-.17l-.08.06s0,0,0,0l.06,0s.07,0,.05,0,0,0,0,0l0,0a0,0,0,0,0,0,0,0,0,0,0,1,0,0s0,0,0,0,0,0,0,0m.49.21,0,0a0,0,0,0,0,0,0l0,0a0,0,0,0,0,0,0m.07.72s0,0,0,0,0,0,0,0l0,0s0,0,0,0M46.86,134s0,0,0,0,0,0,0,0a0,0,0,0,0,0,0s0,0,0,0m.14-.26s-.06-.05-.06,0l0,0s0,0,0,0m.39,0s0,0,0,0,0,0,0,0,0,0,.06-.1,0,0-.07,0a.59.59,0,0,0-.08.11s0,0,0,0a.07.07,0,0,0,0,0l0,0s0,0,0,0,0,0,.1,0,.11,0,.08,0,0,0,.08,0l.06-.06s0,0,0,0,0-.06,0,0m0,.14s0,0,0,0,0,.05,0,.07,0,0,0,0a0,0,0,0,0,0,0s0,0,0,0m-1.1-.45h0v0s0,0,0,0,0,0,0,0m.22-.27a0,0,0,0,0,0,0s0,0,0,0l0,0h0m.14-.52a.05.05,0,0,0,0,0s0,0,0,0l.05,0s0,0,0,0m.1,0,0,0s0,0,0,0l0,0s0,0,0,0m0-.12s0,0,0,0,0,0,0,0,0-.05-.07-.06,0,0,0,0l0,0h0a.23.23,0,0,0-.07.07.35.35,0,0,1-.07.09s0,0,0,0a0,0,0,0,1,0,0s0,0,.06,0,.06,0,.08,0,0,0,.07,0m.09,0h0s0,0,0,0,0,0,0,0m.22-.46s0,0,0,0l0,0s0,0,0,0m.11.1h0s0,0,0,0,0,0,0,0m0-.06-.05,0c-.06,0-.11.1-.06.1s.06,0,.09-.08l0,0m-2.67,1.52,0-.06s0,0,0,0l0,0s0,.08,0,.08m-.14-.29s0,0,0,0l0,0s0,0,0,0,0,.05,0,0,.07,0,.06,0,0,0,0,0m1.68,9s0-.05,0-.05,0,0,0,0,0,0,0,0,0,0,0,0,0,0,0,0h0s0,0,0,0,0,0,0,0,0,0,0,0,0,0,0,0,0,0,0,0a.15.15,0,0,0,.08,0c.07,0,.09,0,0,0a.4.4,0,0,1-.16-.12s0,0-.05-.05,0,0,0,0,0,0,0-.05,0-.09,0-.08,0,0,0,0a.07.07,0,0,1,0-.06s0-.09,0-.09-.11-.13,0-.14,0,0,0,0a.39.39,0,0,0,0-.11s0,0,0,0,0,0,0,0,0,0-.05-.07,0-.05.05,0,.07,0,.07,0a.08.08,0,0,0,0-.07s0,0,.05,0,.16,0,.19,0,0-.1,0-.11,0,0,0,0a.12.12,0,0,0,0-.07s0,0,0-.05,0,0,0,0a.27.27,0,0,0,.12.06c.08,0,.1,0,.13,0a.61.61,0,0,0,.05-.12c0-.09,0-.15,0-.13s0,0,0,0,0,0,0,0a.48.48,0,0,1,0-.11.27.27,0,0,0,0-.16.28.28,0,0,1,0-.14.42.42,0,0,1,.28-.14s.12-.05.12-.08,0-.06,0-.11a.42.42,0,0,0,0-.09.16.16,0,0,1,0-.1,1,1,0,0,0,0-.24.27.27,0,0,1,0-.19,1,1,0,0,0,.2-.37.52.52,0,0,0,0-.17c0-.09,0-.11-.08-.11a.5.5,0,0,1-.17-.13c-.1-.09-.14-.12-.2-.12l-.13,0a.08.08,0,0,0-.08,0s0,0,0,0,0-.07-.12-.12a.41.41,0,0,0-.11-.07.25.25,0,0,1,0,.07s0,.07,0,.05,0,0,0-.06,0-.1,0-.13,0,0-.08,0,0,.06,0,0a.35.35,0,0,1,0-.13c0-.07,0-.08,0-.12a.44.44,0,0,1-.06-.12.71.71,0,0,0-.08-.18.2.2,0,0,0-.16-.13c-.11,0-.12,0-.16-.14s-.06-.13-.09-.13,0,0,0,0,0-.06,0-.07,0,0,0-.07,0,0-.08,0-.08,0-.09,0a.07.07,0,0,0-.06,0s-.06,0-.06,0a.15.15,0,0,0,0-.06,0,0,0,0,1,0,0h0s0,0,0,0l-.06,0s0,0,0-.06,0-.08,0,0-.07.05-.08,0l0,0,0,0h0a.07.07,0,0,0,0,0l-.07.11c-.06.07-.06.07-.08,0s0-.1-.12-.06-.06,0-.07,0a.2.2,0,0,1,0-.11.49.49,0,0,1,.06-.23c.07-.15.07-.17.06-.21s0-.05-.09-.06-.12,0-.09,0l.06-.12c0-.05,0-.08,0-.07s0,0,0-.06l.06-.1c.06-.09.06-.1,0-.09a.16.16,0,0,0-.15.11c0,.06-.09.15-.1.12h0c-.08,0-.1,0-.09-.17a.83.83,0,0,1,.07-.27,1,1,0,0,1,.08-.16.26.26,0,0,0,0-.09c0-.08.1-.19.13-.19l.06,0a.16.16,0,0,1,.19,0s0,0,.06,0,0,0,.09,0,.08,0,.08,0,0,0,0,0,.07.07,0,.14a.17.17,0,0,0,0,.1v.08s0,.09,0,.09,0,0,0-.06a1.06,1.06,0,0,0,.08-.31.41.41,0,0,1,0-.1c0-.05.09-.16.11-.16a.22.22,0,0,0,.07-.06l.07-.06.05,0,0,0s0,0,0,0,0,0,0,0,0,0,0,0,0,0,0,0,0,0,0,0a.21.21,0,0,0,0-.06.4.4,0,0,1,.07-.18s0,0,0,0,0,.08,0,0a.23.23,0,0,0,0-.09s0,0,0,0,0,0,.07-.06,0-.07.07-.07,0,0,0,0,0,0,.07,0,.08,0,.08,0a.27.27,0,0,1,.15-.19l.11-.06,0,0,.07,0s0,0,0,0a.11.11,0,0,1-.05,0s0,.07,0,.09,0,0,.07,0l.08,0a.32.32,0,0,0,.17-.11s0,0,0,0,0,0,0,0,0,0,0,0,0,0,0,0,0,0,0,0-.06.07-.1.06-.08-.07-.05-.13,0,0,0-.06,0,0,0,0,0,0,.06-.05,0,0,0,0a.42.42,0,0,0-.26.14s0,0,0,0l.13-.12.11-.07a.22.22,0,0,1,.18,0c.11,0,.13,0,.19,0a.5.5,0,0,1,.14-.08c.06,0,.07,0,.1-.1s0-.07,0-.1,0,0,0-.05,0,0,0,0,0,0,0,0h0s0,0,0,0a.08.08,0,0,0,0,0,.09.09,0,0,1,0-.07.46.46,0,0,0,0-.17v-.14l-.07.08c-.08.09-.15.12-.16.08s0,0,0,0,0,0,0-.08,0-.08,0-.09l0,0s0-.08-.07-.07h-.08a.06.06,0,0,0-.06,0l0,.12a.66.66,0,0,1-.09.15s0,0,0,.07,0,.11-.05.17a.47.47,0,0,1-.1.09l-.08,0s0,.05,0,.09a.35.35,0,0,1-.1.18s0,0-.06-.05a.25.25,0,0,1,0-.1c.08-.16.08-.16,0-.16s-.06,0-.05,0l0,0s0,0,0,0a.09.09,0,0,0-.08,0c-.05,0-.05,0,0-.05s0-.06,0-.07,0-.05.09-.16.17-.18.21-.18l0,0a.15.15,0,0,1,.11-.08s.21-.18.2-.2,0,0,0,0a0,0,0,0,1,0,0h0s0,0,0,0l.07,0,0,0v0s0-.07,0-.06l0,0a0,0,0,0,0,0,0l0,0H47c.08,0,.11,0,.12,0s0,0,0,0a0,0,0,0,1,0,.05h0s0,0,0,0a.05.05,0,0,0,0,0c.06,0,0,.12-.06.17s0,0,0,0,0,0-.05,0-.06,0-.07,0-.07,0-.1.07,0,0,.09,0,.1,0,.1,0l0,0s0,0,0,0,0,.08,0,.06,0,0,0,0l0,0,.05,0s0,0,0-.09,0-.08,0,0,0,0,.08,0a.1.1,0,0,0,0-.09s0-.05,0-.05,0,0,0,0,0,0,0-.07.06,0,.07,0,.05.05.07,0l0,0,.06-.05.06,0h0s0,0,0,0l0,0c-.09,0-.11-.08,0-.1s0,0,0,0,0,0,0,0l0,0s0,0,0,0,0,0,0,0,0,0,0,0,0,0,0,0,0,0-.06,0,0,0,0,0,0-.06,0-.05,0,0,0,0,0-.06-.07,0-.06,0-.07,0,0,0,0,0,0,0-.06,0-.13.06-.15.11a.1.1,0,0,0,0,0s0,0,0,0,0,0,0,0,0,0,0-.05a.08.08,0,0,0,0,0l0,0s0,0,0,0a.26.26,0,0,0-.17.12s-.06,0-.06.1,0,0,.07.05h0s0,.06,0,.06l0,0s0,.05-.06,0,0,0,0,0,0,.05,0,0,0,0,0-.05,0,0,0,0,0,0-.06,0,0,.05,0,0,0,0,0,0,0,0,0,0,0-.12,0-.11,0,0,0,0l.06,0s.12-.07.14-.1a.59.59,0,0,0-.19.05s0,0,0,.06a.19.19,0,0,1-.08.11.22.22,0,0,0-.06.07s0,.06,0,.06a.08.08,0,0,1,0,0v0s0,0-.06.05,0,0,0,.06,0,0,0,0,0,0,0,0l0-.05a0,0,0,0,1,0,0h0s0,0,0,0,0-.05-.09,0,0,0,0,0,0,0,0,.05-.19.06-.21,0-.1,0-.11,0,0,0,0,0l0,0s0,0,0,0a.14.14,0,0,0-.07.06s0,.05,0,.06,0,0,0,0,0,0-.12,0h-.07l0,0s0,0,0,0h-.08a.08.08,0,0,0-.08,0s0,0,0,0h0s-.05,0,0,0,0,0,0,0a.1.1,0,0,1-.07,0,.57.57,0,0,0-.18.1.07.07,0,0,1-.07,0s0-.06-.11,0h-.14l0,0-.08.06a2,2,0,0,0-.19.22h0s0,0,0,0l0,0-.07.09,0,0s0,0,0,0l0,0-.06.06c-.06.07-.11.15-.16.22s0,0,0,0,0,0,0,0,0,0,0,0h0l0,0s0,0,0,0l-.09.1-.07.07h0l0,0,0,0,0,0,.08-.07.06-.05,0,0,0-.05.08-.06s0,0,0,0,0,0,0,0l0,0a.47.47,0,0,1,.11-.1s0,0,0,0-.1.1-.09.1,0,0,0,0l0,0,0,0s0,0,0,0,0,0,0,0,0,0,0,0,0,0,0,.07,0,0,.05,0l0,0a.4.4,0,0,0-.06.13.34.34,0,0,0,.06-.12h0s0,0,0,0h0v0l0,0s0,0,0,0l0,0,0,0s0,.07,0,.08l0,0s0,0,0,0,0,0,0,0a.17.17,0,0,0,0,.07s0,0,0,0l0,0s0,0,0,0,0,0,0,0,0,0,0,0,0,.11,0,.09,0,0,0,.07,0,.09,0,0,0,0,0,0,0,.05,0,0,0,0,0,0l0,.05s0,.05,0,0,0,0,0,0,0,0,0,0h0s0,.17,0,.16a0,0,0,0,0,0,0s0-.09,0-.09,0,0,0,0a0,0,0,0,0,0,0s0,0,0,.1,0,0-.06,0,0,0,0,.05a.83.83,0,0,1-.1.2,3.11,3.11,0,0,0-.22.4.06.06,0,0,1,0,0s0,.13,0,.11,0,0,0,0a.5.5,0,0,0,0,.13l0,.11a0,0,0,0,0,0,0s0,.07,0,.22a1.36,1.36,0,0,0,0,.2.09.09,0,0,1,0,.09s0,0,0,.14a.12.12,0,0,1,0,.08s0,.2,0,.18,0-.08,0-.09a.34.34,0,0,1,0-.11l0-.1a.8.8,0,0,0,0-.11l0-.13a.58.58,0,0,1,0-.1c0-.07,0-.07,0-.05s0,.05,0,.11a1.23,1.23,0,0,0,0,.2.35.35,0,0,1,0,.13v.14a.64.64,0,0,1,0,.31.11.11,0,0,0,0,.06.31.31,0,0,0,0,.17.13.13,0,0,1,0,.05l.07.1c.06.07.06.08.11.05s.06,0,.08.09a.24.24,0,0,0,.15.17s0,0,0,0a.39.39,0,0,0,0,.09.28.28,0,0,1,0,.13.21.21,0,0,0,0,.06.08.08,0,0,1,0,.09s0,0,0,.06,0,0,0,.05.05.06.06,0,.07-.12.08-.1a.35.35,0,0,1,0,.12c0,.11,0,.43-.08.45s0,0,0,.07a.22.22,0,0,1,0,.06s0,.2,0,.27,0,.06,0,.06,0,.06,0,.1a.28.28,0,0,0,.05.28s.07.14.11.23a2.13,2.13,0,0,0,.12.29.64.64,0,0,1,.06.15.66.66,0,0,0,.2.24.51.51,0,0,1,.2.36,3.47,3.47,0,0,1,.08.55.41.41,0,0,0,0,.14s0,0,0,0,0,.05,0,.1a.72.72,0,0,1,0,.34.47.47,0,0,0,0,.17s0,.07,0,.08a.41.41,0,0,0,0,.1.6.6,0,0,1,0,.12s0,0,0,0,0,0,0-.06,0-.05,0-.05,0,.06,0,.17,0,.05,0,.08,0,.06,0,.05a0,0,0,0,0,0,0s0,0,0,0,.08,0,.1.15l0,0,0,0s0,0,0,0a.22.22,0,0,1,0,.08s0,.05,0,0,0,0,0,0,0,.08,0,.1,0,0,0,0,0,0,.08.09,0,.09,0,.09,0,0,0,0a0,0,0,0,0,0,0s0,0,0,0l0,0s0,0,0,0M44.23,138v0s0,0,0,0,0,0,0,0v0m-1-1.92s0,0,0,0,0,0,0,0,0,0,0,0a0,0,0,0,0,0,0m2.28-3.94h0s.09,0,.12,0a.37.37,0,0,1,.11-.09l0,0-.05.05,0,0h0s0,0,0,0a0,0,0,0,0,0,0h.16l0,0a.13.13,0,0,0-.08,0l-.06,0v0h0s0,0,0,0,.16,0,.22-.07,0,0,.05,0,.15,0,.13,0,0,0,0,0h0v0l0,0s0,0,0-.07a.17.17,0,0,1,0-.09l0,0-.08,0a0,0,0,0,1,0,0s0,0,0,.05,0,.07,0,0,0,0-.05,0,0,0,0,0,0,0,0,0-.05,0,0,0,0,0,0,0,0,0,0,0,0,0,0,0h-.07l-.08,0,0,0s0,0-.06.07l-.06.07m.27-.3h0l.06,0h0l0,0s0,0,0,0,.06,0,.09,0-.07,0-.17.07l-.08.06m.12,0h0l0,0s0,0,0,0m.13-.08a.3.3,0,0,0-.1.07l0,0h.06l0,0h0l0,0s0,0,0,0,0,0,.08,0a.36.36,0,0,1,.13,0,.23.23,0,0,0,.11-.08s0,0,0,0,0,0,0,0,0,0,0,0a.06.06,0,0,0,0,.05s0,0,0,0a0,0,0,0,1,0,0H46m.06-.09h0m.07,0,.07,0s0,0,0,0l-.07,0h0m.06-.07s.06,0,.05,0h0l0,0s0,0,0,0m.08.16s0,0,0,0l0,0s0,0,0,0m0,.1s0,0,0,0,0,0,0,0,0,0,0,0,0,0,0,0,0,0,0,0a0,0,0,0,0,0,0s0,0,0,0,.08-.07,0-.08,0,0,0,0,0,0,0,0l-.1,0s-.06.06,0,.05m0-.19s0,0,0,0l0,0h0s0,0,0,0,0,0,0,0a.21.21,0,0,0,.11-.1s0,0,0,0l-.05,0s0,0,0,0,0,0,0,0,0,0,0,0,0,0,0,0m0,0s0,0,0,0,0,0,0,0,0,0,0,0m.09-.12h0s0,0,0,0,.07,0,.06,0,0,0,.05,0,0-.06,0,0h-.07l-.05,0s0,0,0,0m.2.14s0,0-.06,0l0,0h0s.09,0,.08,0m0-.06s0,0,0,0,0,0,0,0v0s0,0,.19,0l.24-.06,0,0v0s-.06,0-.17,0-.16,0-.16,0,0,0-.08,0h-.11s0,0,0,0m0-.09h0s0,0,0,0,0,0,0,0,0,0,0,0h0l0,0s0,0,0,0m0-.11s0,0,0,0,0,0,0,0h0m.2.13s0,0,0,0,0,0,0,0v0s0,0,0,0m0,0s0,0,0,0,0,0,0,0,0,0,0,0m0-.12s0,0,0,0,0,0,0,0,.06,0,.17-.06h0s0,0,0,0h0a0,0,0,0,0,0,0H47s-.06,0-.05,0,0,0,0,0-.06.06.12,0,.26-.06.23-.07,0,0,0,0l0,0s0,0,.05,0l.08,0s0,0,0,0,0,0,0,0a1.23,1.23,0,0,0,.26-.11l.13-.07.06,0s0,0,.08,0a.22.22,0,0,0,.1,0,1.24,1.24,0,0,0-.63.09l-.14.06-.06,0a.1.1,0,0,0-.07,0l-.1,0c-.07,0-.09,0-.07.07s.07,0,.09,0l0,0,0,0s0,0,0,0,.15,0,.13,0l-.1,0-.11,0s0,0,0,0,0,0,0,0h0a.13.13,0,0,0-.1,0c-.06,0-.08,0-.08,0l0,0,0,0s0,0,.06,0m1.75-.65s.07,0,.08,0,0,0,0,0h0m1.49,1.49s-.1-.12-.12-.12l0,0s0,0-.09,0a.21.21,0,0,0-.11,0,0,0,0,0,1-.05,0s0,0,0,0-.08.06,0,.06,0,0,0,0,0,0,0,0,0,0,0,.06l.08,0c.12,0,.34,0,.37-.14m-.77.66,0,0s0,0,0,0a0,0,0,0,0,0,0s0,0,0,0m0,.38a.08.08,0,0,1,0-.05.11.11,0,0,0,0-.06c0-.06-.12-.06-.14,0a.08.08,0,0,1-.06,0s0,0,0,.05a.06.06,0,0,0,0,.06s0,0,0,.05,0,0,0,.07a.06.06,0,0,0,.06,0l.09,0a.17.17,0,0,0,.08-.14m.41.13s0-.09,0-.09,0,0,0-.06,0-.07,0-.08,0,0,0-.06,0-.06,0-.06,0,0,0-.06,0-.11,0-.1-.07,0,0,0,0,0,0,0l-.06,0-.06.1c0,.07,0,.09,0,.08s0,0,0,0,0,0,0,0,0,0,0,0,0,.06,0,0,.05,0,.05,0,0,0,0,0,0,0,0,0a.07.07,0,0,1-.05,0s0,0,0,0,0,0,0,.06a0,0,0,0,0,0,0s0,0,0,0h.06s0,0,0,0a.13.13,0,0,0-.09.06s0,.05,0,0l.13,0,.15,0,.07,0s0,0,0,0a.11.11,0,0,1,0-.06m.43-2.48,0,0s0,0,0,0,.08.06.12,0,0,0,.06,0,0,0,0,0-.07,0,0,0,0,0,0,0,0,0,0,0,.07,0,.08,0a0,0,0,0,1,0,0s0,0,0-.05l0,0s.08,0,.07.07.11,0,.13,0,0,0,0,0,0,0-.08,0l-.11-.06s0,0,0,0a0,0,0,0,0,0,0s0,0,0,0-.07,0-.07,0a.06.06,0,0,0,0,0h0s-.21,0-.2,0m.42,0,.1,0s.19,0,.17-.06-.17-.05-.18,0h-.1c-.12,0-.11,0,0,.06m1.38.13s0,0,.07,0l.06,0H52s-.07,0-.07,0m.23.92s0,0,0,0,.07,0,.06,0-.07,0-.07,0m.15-.16a.08.08,0,0,1,.06,0l.09,0h.07l-.05-.05s-.07-.06-.07-.08a.29.29,0,0,1,.12-.18,0,0,0,0,0,0,0s.07,0,.22-.06.08,0,.07,0-.09,0-.12,0h-.08a.29.29,0,0,0-.26.09s0,0,0,0,0,0,0,0,0,0,0,0,0,0,0,.05a0,0,0,0,1,0,0s0,.05,0,.06m0-.69s0,0,0,0,0,0,0,0,0,0,0,0m.08,0s.1,0,.1,0l-.06,0s0,0,0,0m.15,0h0s0,0,0,0h0s0,0,0,0m1.1.28.05,0s0,0,.14.09.09,0,.07,0l-.06-.06,0,0c0-.05-.16-.11-.18-.07v0s0,0,0,0h0m.28.2h.18s0,0-.06,0a0,0,0,0,1,0,0s-.05,0-.06,0l0,0m.56.37s0,0,0,0l0,0s0,0,0,0,0,0,0,0m.73.23s.16.07.16,0,0,0-.09-.07l-.09,0h0s0,0,0,.07m.12.12,0,0s.06,0,0,0-.06-.06-.07,0m.09,0,.06,0,0,0h0s0,0,0,0m1,1.82h0a0,0,0,0,0,0,0v0m0,.43,0,0c-.05-.08-.06-.08,0,0s0,.13,0,.12,0,.07,0,.11,0,0,0,0a0,0,0,0,0,0,0,0,0,0,0,1,0,0s0,0,0,0,0,0,0,0,0,0,0,0,0-.06,0-.08m.08.4a.27.27,0,0,0,0-.14.26.26,0,0,0,0-.08,0,0,0,0,1,0,0s0,0,0,0,0,0,0,.1a.5.5,0,0,1,0,.2s0,0,0,0,0,0,0,0,0,.13,0,.13-.05,0-.06.13,0,.09,0,.07,0,0,0,.06,0,.09,0,0,0-.07,0-.09,0-.06,0,0,0,0,0,0,0,0,0,0,0,0,0,0a0,0,0,0,0,0,.05s0,0,0,0,0,0,0,0,0,0,0-.06,0,0,0,0,0,0,0,0,0,0,0,0,0-.05,0-.05,0,0,0,0,0,0,0,0,0,0,0-.07,0-.14-.05-.19m.05,1.88s-.07-.1-.07-.16a.41.41,0,0,0,0-.1c0-.06,0-.07,0-.07s0,0,0,0a.37.37,0,0,0,0,.09.18.18,0,0,1,0,.06s0,0,0,.06l0,.05s0,0,0,0,0,0,0,0,0,0,0,0,0,0,0,0l0,0c0,.05,0,.05,0,0a.07.07,0,0,0,0-.05m0,.13,0,0h0s0,0,0,0m0,0s0,0,0,0a.08.08,0,0,0,0,.06s0,0,0,0,0-.12,0-.12,0,0,0,0m-.18,1.49s0,0,0,0,0,0,0,0,0,0,0,0m.18-1.36a0,0,0,0,0,0,0h0a.08.08,0,0,0,0,0s0,0,0,0m0,0c0-.08,0-.12,0-.13s0,0,0,0,0,.05,0,0,0,0,0,0,0,.06,0,.08,0,0,0,0m-.11-.2s0,0,0,0a.16.16,0,0,0,0-.06h0a.11.11,0,0,0,0,.06m0,.23a.51.51,0,0,0,0-.09.14.14,0,0,0,0,.09c0,.1,0,.11,0,0m-.23-1.21h0s0,0,0,.08,0,.07,0,.11l0,0v0a1.37,1.37,0,0,0,0-.2m-.2-2.15a.39.39,0,0,0,.05.14s0,.12.1.23.08.2.08.18h0l0,0-.05-.08s0-.1,0-.09,0,0,0-.06a1.43,1.43,0,0,1-.11-.21l0-.08s0,0,0,0,0,0,0,0m.19,4.61h0s0,0,0,0,0,0,0,0m-.11-.26s0,0,0,0,0,0,0,0h0m-.06,0s0,0,0-.05,0-.06,0,0,0,.09,0,.09m0,.33.07,0s.16,0,.16,0,0,0,0,0,0,0,0,0,0,0-.06,0-.07,0-.08,0-.08,0-.09,0,0,.07.07.07m-.25-.58s0,0,0,0v0m0,.2s0,0,0,0,0,0,0,0,0,0,0,0v0m0-.21s0,0,0,.08,0,.1,0,.14.07.27.1.25,0,0,.05-.1a.28.28,0,0,0,0-.18.31.31,0,0,1,0-.11.09.09,0,0,0,0-.07l0-.07s0,0,0,0a.62.62,0,0,1,0-.11.22.22,0,0,0-.11-.12s0,0,0,0,0,0,0,0a.61.61,0,0,1,.09.16.79.79,0,0,1,0,.15m.46.58s0,0,0,0h0v0a0,0,0,0,0,0,0m.11-.45s0,0,0-.06l0-.09a.09.09,0,0,1,0-.06s0-.05,0-.05,0,0,0-.07v-.08s0,0,0,0,0,0,0,0,0,0,0,0,0,0,0,0,0,0,0,0l0-.06s0,0,0,.05,0,.08,0,.08,0,0,0,.06l-.06.09a.15.15,0,0,0,0,.07s0,0,0,0a0,0,0,0,0-.05,0c0,.05,0,.17,0,.18V138c0,.05,0,.06,0,.06h0s0,0,0,0,.05,0,.05,0,0,0,0,0,.07-.1.06-.13m0,.43s0,0,0,0v0a0,0,0,0,0,0,0s0,0,0,0l0,0s0,0,0,0m0,.08,0,0s0,0,0,0,0,0,0,0h0m.23-.12s-.09.09-.09.12,0,0,0,0a.3.3,0,0,1,0-.07,0,0,0,0,0,0,0s0,0,0,0m.09-.67s-.07,0-.08,0-.06.06-.07.11a.11.11,0,0,1,0,.06.41.41,0,0,0,0,.19.44.44,0,0,1,0,.09s0,.06,0,0a.53.53,0,0,0,0-.11.4.4,0,0,1,0-.09,0,0,0,0,1,0,0v.07s0,0,0,0,0,0,0,0,0,0,0,0a.25.25,0,0,0,0-.1v-.14l0,0s0-.05,0-.05l0,0s0,0,0,0a.17.17,0,0,1,0-.07s0,0,.06,0,.06,0,.07,0,0-.07,0,0m0,.81,0,0s0,0,0,0a0,0,0,0,0,0,0v0m0-.5s0,0,0,0a0,0,0,0,0,0,0h0s0,0,0,0m-.06-.82s0,0,0,0a.09.09,0,0,0,0,.07s0,0,0,0,0,0,0,0,0,0,0,0,0,.08,0,.08,0,0,0,0,0,0,0,0,0,0,0,0a.76.76,0,0,0-.06-.18.21.21,0,0,1,0,.06c0,.05,0,.06,0,0m.12,1.06,0,0s0,0,0,0a.08.08,0,0,0,0,0h0m0-.27s0,0,0,0h0s0,0,0,0,0,0,0,0,0,0,0,0m0-.17a.75.75,0,0,0,0-.16v0s0,0,0,0,0,0,0,0a1.37,1.37,0,0,0,0,.16m.08,0h0s0,0,0,0,0,0,0,0m.49.32s0,0,0,0v0h0m.72-.66a7.77,7.77,0,1,1-7.77-7.77,7.77,7.77,0,0,1,7.77,7.77m-2.83-2.54s0,0,0,0l0,0s0,0,0,0l0,0m-.21-1.5v.07a.37.37,0,0,1-.05.22s0,0,0,0,0,0,.05,0,0,0,0,0,0-.11,0-.17l0-.07m-1,.63h0s0,0,0,0,0,0,0,0m.05-2.14s0,0,0,0-.06-.07,0,0l0,0M54,133.94l0,0c-.05,0-.06,0,0,.08s0,.05,0,0,0-.05,0,0a0,0,0,0,0,0,0v0m.17.38s0,0,0,0a0,0,0,0,0,0,0,0,0,0,0,0,0,0s0,0,0,0m-.6-2.39s0,0,0,0l0,0a0,0,0,0,0,0,0s0,0,0-.07,0-.07,0,0m.65-.13v0l0,0s0,0,0,0,0,0,0,0m.06,2s0,0,0,0l0,0s0,0,0,0l0,0m-6.81-2.74s0,0,0,0l0,0h0l0,0M46,134.23a.13.13,0,0,0,.1,0s0-.08,0,0l-.08,0c-.09,0-.11.06,0,.06m-.56-1.67a.17.17,0,0,1-.06.06l0,.06h0l0,0s0,0,0,0,0,0,0,0l0,0,.08,0c.05,0,.07-.06,0,0s0,0,0,0,0,0-.11,0l-.08,0,.06,0,.06,0m.13,1.18s0,0,0,0l0,0,0,0,0,0m-.06-.17s0,.11,0,.09,0,0,0-.06,0,0,0,0m.14-.2h0l0,0a.25.25,0,0,0,0,.12.13.13,0,0,1,0,.08s0,0,0,0a.45.45,0,0,0,.06-.15l0-.11m-.1,0s0,.05,0,.06a.08.08,0,0,1,0,0l0,0s0,0,0,0a.47.47,0,0,0,.05-.1s0,0,0,0m.08-.28,0,0s0,0,0,0a.42.42,0,0,0,.1-.12s0,0,0,0l0,0m-.16-.33s0,0,0,0,0,0-.07.07l0,0h0l.08,0,.08-.06.07-.05,0,0s0,0-.07,0-.08,0-.09,0m0,.19-.07,0s0,0,0,0,.07,0,0,0m.45-.33s0,0,0,0,0,0,0,0l0,0m-.26,1.39a1.24,1.24,0,0,0-.17.32s.07,0,.11-.14a.45.45,0,0,1,.11-.15c.08-.07.08-.08.09,0a.08.08,0,0,1,0,.08l0,.06s0,0,0,0,0,0,0,0v.05l0-.08.06-.11s0,0,0,0,.05,0,0-.06,0-.07-.05,0a0,0,0,0,1,0,0s0,0,0,0-.17,0-.22,0m0-.14s0,0,0,0,0,0,.08,0h0l0-.07s0-.06,0-.06,0,0,0,0,0-.05-.16,0l-.13.1s.08,0,.13,0m.15-.22s0-.05,0,0,0,.05,0,.05l0,0m-.08.63c-.05,0-.07.06,0,.06a.5.5,0,0,0,.19-.1s0,0-.16,0m1.47-1,0,0s0,0,0,0,0,0,0,0m-.51.23a.07.07,0,0,0,0,0s0-.05,0,0,0,.06,0,.06m.33-.25s0,0,0,0l0,0v0s0,0,0,0m.19-2.11s0,0,0,0h0s0,0,0,0m-1,1.09v0l0,0v0l0,0m.3,8.74s0,0,0,0,0,0,0,0,0,0,0,0m.48-9.73s.07,0,0-.06,0,0,0,0l0,0s0,0,0,0m-.54,2.24a.05.05,0,0,0,0,0s0,0,0,0,0,0,0,0m0-1.11s0,0,0,0,0,0,0,0v0h0m.29-.45s0,0,0,0h0s0,0,0,0m.35-.12,0,0,0,0s0,0,0,0h-.05s0,0,0,0a.05.05,0,0,1,0,0s0,0,0,0m.25.07,0,0s0,0-.05,0,0,0,0,0m-.14.36,0,0s0,0,0,0,0,0-.06,0,0,0,0,0m3.9.09s0,0,0,0,0,0,0,0,0,0,0,0h0m0-.53s0,0,0,0,0,0,0,0l0,0s0,0,0,0m.8,6.58h.09s0,0,0,0a.27.27,0,0,1,0-.1c0-.08,0-.09,0-.1s-.14,0-.16,0a.39.39,0,0,0,0,.13c0,.09,0,.09,0,.08m-.66-6s0,0,0,0,0,0,0,0l0,0s0,0,0,0,0,0,0,0,0,0,0,0,.09-.05.09-.08a.1.1,0,0,0,0,0m-6.92.83,0,0h0s0,0,0,0m6-.54,0,.05s.07,0,.08,0,0,0,0,0m5.65,1.67v0l0,0s0,0,0,0a0,0,0,0,0,0,0m-5-1.89a.06.06,0,0,0,0,0s0,0,0,0,0-.05,0,0m1,6.62s0-.06,0-.06,0,0,0,.11,0,.14,0,.16a.19.19,0,0,0,0,.07s0,0,0-.08a.26.26,0,0,0,0-.13s0,0,0-.07m.21-1.26s0,.09,0,.1,0,0,0,0,0-.07,0-.1a.17.17,0,0,0,0-.07v.07m0-.74s0,0,0,0h0s0,0,0,0,0,0,0,0m-3.17.37h0a.09.09,0,0,0,0,0s0,0,0,0,0,0,0,0m0,.12s0,0,0,0a0,0,0,0,0,0,0s0,0,0,0,0,0,0,0m1.24-.65c-.07,0-.07,0,0,0s.1.05.1,0,0,0-.06-.05m2.94-5.06s0,0,0,0,0,0,0,0,0,0,0,0l0,0m-7.41,10.3s0,0,0,0h0s0,0,0,0,0,0,0,0m-.14-.3s0,0,0,0l0,0v0a0,0,0,0,0,0,0m-.37-2.36a.1.1,0,0,0,0,0s0,0,0,0-.06-.06,0,0m-.21-2.36s0,.11,0,.11l0,0s0-.11,0-.08m-.6-2.69v0h0a.06.06,0,0,0,0,0h0m0,2.47s0,0,0,0,0,0,0,0,0,0,0,0m1.4,5.34s0,0,0,0h0s0,0,0,0M48.06,132s0,0,0,0h0s0,0,0,0m.32,12.41s0,0,0,0h0l0,0m-.65-13.1a0,0,0,0,0,0,0h0s0,0,0,0h0m2-.32s0,0,0,0,0,0,0,0,0,0,0,0m6.25,6v0s0,0,0,0a.05.05,0,0,0,0,0m-6.78-5.19a.08.08,0,0,0,0,0s0,0,0,0,0,0,0,0M71,137.4c0,9.34-7.41,16.21-16.8,16.21H44.45v-6.49h9.73a9.72,9.72,0,0,0,0-19.44H44.45v-6.49h9.73c9.39,0,16.8,6.86,16.8,16.2"/></g></g></g></g></svg>