<svg width="500" height="500" viewBox="0 0 500 500" fill="none" xmlns="http://www.w3.org/2000/svg">
<g clip-path="url(#clip0_8_165)">
<rect width="500" height="500" fill="white"/>
<rect width="500" height="500" fill="#1A69CD"/>
<g clip-path="url(#clip1_8_165)">
<path d="M409.04 269.418C413.988 269.418 418 265.727 418 261.174C418 256.621 413.988 252.931 409.04 252.931C404.091 252.931 400.079 256.621 400.079 261.174C400.079 265.727 404.091 269.418 409.04 269.418Z" fill="white"/>
<path d="M403.071 225.067C406.165 223.926 409.577 223.812 412.872 223.875V244.528C410.997 243.723 408.957 243.203 406.875 243.203C404.18 243.102 401.334 243.825 399.349 245.581C397.729 246.989 396.798 248.986 396.578 250.997C396.433 252.271 396.502 253.565 396.488 254.833L396.468 269.405H372.998C372.964 254.548 372.978 239.696 372.998 224.858H395.923V230.02C395.923 230.235 395.889 230.489 396.054 230.673C397.715 228.244 400.1 226.126 403.071 225.055V225.067Z" fill="white"/>
<path d="M344.973 212.797V248.682C344.973 253.254 337.605 255.733 331.381 250.464C330.761 257.04 327.018 263.032 320.628 267.655C331.918 275.271 341.079 276.171 348.192 275.505C352.362 275.106 356.484 273.812 359.93 271.58C362.756 269.766 365.106 267.357 366.692 264.554C368.497 261.383 369.352 257.794 369.373 254.224V212.797H344.973Z" fill="white"/>
<path d="M128.706 206.379C119.701 204.059 105.334 200.983 89.5903 204.815C86.6652 205.519 84.6865 206.692 83.2813 208.908C82.593 210.029 81.9621 211.228 82.3062 212.453C82.6217 213.496 84.2563 213.861 85.5468 214.043C86.8086 214.226 89.6763 214.356 90.4506 213.522C90.852 213.079 90.852 211.854 88.7586 211.463C87.9843 211.306 85.8622 211.254 85.7188 210.915C85.7188 210.915 85.8049 210.681 86.952 210.368C87.4681 210.211 91.2249 208.83 101.463 209.117C113.65 209.482 124.29 212.062 135.56 216.103C146.572 220.039 158.96 227.156 166.216 235.654C168.969 238.861 172.381 244.127 172.811 248.584C173.901 259.377 162.316 268.475 138.743 267.745C134.728 267.614 129.824 266.754 129.824 266.754L129.337 245.951C129.337 245.951 139.288 245.873 150.329 249.184C151.275 249.471 152.221 250.018 152.307 250.852C152.365 251.478 151.82 252.025 151.189 252.521C150.042 253.433 148.465 253.824 148.12 254.215C147.862 254.502 147.862 254.919 148.206 255.154C149.038 255.727 151.074 256.118 152.451 256.014C155.232 255.779 157.068 254.345 158.473 252.416C159.964 250.383 160.796 245.195 152.881 241.911C142.643 237.635 129.279 238.444 129.279 238.444C129.279 238.444 129.222 235.628 129.079 233.751C128.849 230.675 127.903 224.601 124.806 222.855C124.232 222.542 123.544 222.49 123.143 222.985C122.54 223.689 121.938 226.4 121.823 227.104C120.648 233.412 120.734 239.043 120.648 239.147C120.619 239.174 120.59 239.226 120.533 239.252C120.418 239.33 113.02 240.112 105.879 242.927C103.04 244.048 98.9677 246.056 97.7346 248.662C96.1287 252.025 98.939 255.701 103.671 259.768C107.686 263.209 113.593 266.832 117.952 268.709C119.07 269.178 120.39 269.778 120.39 269.778C120.39 269.778 120.676 272.176 120.906 273.584C121.737 278.589 125.924 277.859 127.1 277.651C128.993 277.312 129.337 276.165 129.595 274.835C129.738 274.105 129.681 273.063 129.681 273.063C129.681 273.063 132.52 273.662 134.441 273.975C140.005 274.913 146.056 275.07 151.275 274.418C172.209 271.811 177.515 262.87 179.178 260.471C182.074 256.301 188.24 244.726 169.686 227.521C165.499 223.506 153.254 212.688 128.706 206.379ZM101.032 253.277C100.258 252.573 99.6846 251.791 99.8567 250.852C100.029 249.94 101.979 249.158 102.954 248.897C112.417 246.368 120.418 246.238 120.418 246.238C120.418 246.238 120.332 249.314 120.332 252.416C120.304 258.308 120.476 264.304 120.476 264.304C120.476 264.304 109.808 261.488 101.032 253.277Z" fill="white"/>
<path d="M197.015 231.614C201.431 230.05 204.873 227.782 208.343 224.549C210.379 222.672 212.128 219.622 211.497 216.807C211.182 215.425 210.465 214.461 209.203 213.444C208.572 212.949 207.109 212.245 205.934 212.036C205.59 211.984 205.217 211.958 205.073 211.854C204.901 211.749 204.758 211.567 204.615 211.358C203.84 210.472 202.292 209.612 201.202 209.273C197.789 208.204 193.258 209.012 190.161 210.185C186.892 211.437 183.881 213.288 181.587 215.529C175.565 221.395 178.203 226.035 178.748 226.895C179.207 227.625 180.038 228.407 180.239 229.189C180.354 229.632 180.239 230.232 180.268 230.779C180.296 232.005 180.898 233.282 181.931 234.09C182.648 234.664 183.709 234.846 184.77 233.386C185.114 232.891 185.716 231.9 185.716 231.9C185.716 231.9 186.949 232.552 189.903 232.735C192.025 232.891 195.065 232.291 197.015 231.614ZM182.82 224.523C182.82 224.523 182.619 224.132 182.476 223.845C181.558 221.786 183.565 219.466 185.401 218.032C188.985 215.269 192.025 215.321 192.025 215.321C192.025 215.321 191.308 215.842 190.706 216.338C185.487 220.508 182.82 224.523 182.82 224.523ZM190.649 224.445C192.828 221.89 196.872 218.71 199.711 217.172C201.919 215.973 203.84 215.634 205.274 216.207C206.134 216.546 206.794 217.25 206.909 218.162C207.282 221.056 203.611 223.454 201.173 224.758C195.61 227.703 188.985 227.052 188.842 226.765C188.785 226.739 190.133 225.044 190.649 224.445Z" fill="white"/>
<path d="M323.424 240.138C316.312 235.654 304.87 249.836 299.823 256.874C299.077 253.303 301.744 248.741 301.744 248.741C301.744 248.741 306.017 242.015 306.619 240.659C307.193 239.278 307.537 236.462 306.82 236.176C306.161 235.889 305.013 236.801 305.013 236.801C295.407 244.622 294.059 253.303 294.059 253.303C293.141 257.969 294.202 261.254 295.779 263.574C290.445 273.897 287.836 282.916 288.524 288.234C289.184 292.301 292.367 295.221 294.317 295.846C296.267 296.576 296.64 294.439 296.64 294.439C298.217 283.412 300.999 276.06 304.325 268.787C314.334 270.873 321.876 262.036 324.543 257.786C326.12 255.258 326.951 251.869 326.951 248.662C326.923 245.065 325.804 241.676 323.424 240.138ZM316.914 257.708C315.767 258.699 311.953 260.654 308.025 261.045C311.781 254.424 316.456 249.549 319.037 246.968C322.048 243.892 322.449 246.681 322.449 246.681C323.137 252.103 318.778 256.196 316.914 257.708Z" fill="white"/>
<path d="M290.531 262.948C291.019 261.306 289.356 259.481 287.864 259.142C286.459 258.881 275.705 260.706 274.443 261.019C273.067 261.358 273.669 260.185 273.669 260.185L275.332 255.075C275.332 255.075 285.599 254.71 287.09 254.502C288.467 254.267 288.553 253.381 288.553 253.381C288.553 253.381 288.725 251.921 288.667 250.565C288.524 249.106 287.233 249.236 287.233 249.236C283.276 248.871 277.827 249.288 277.827 249.288L279.204 245.378C279.204 245.378 290.101 244.909 294.259 244.022C296.382 243.553 295.148 241.676 295.148 241.676C292.567 236.984 289.585 237.244 289.585 237.244C281.011 236.984 268.536 239.043 267.188 239.669C265.926 240.19 266.041 241.05 267.704 242.953C269.482 244.961 272.493 244.778 272.493 244.778L269.855 249.705C267.704 249.835 266.959 250.461 266.959 250.461C265.726 251.66 267.418 255.206 267.418 255.206C267.418 255.206 263.689 262.791 266.385 266.806C269.282 271.003 272.723 270.821 272.723 270.821C279.233 271.212 289.958 264.981 290.531 262.948Z" fill="white"/>
<path d="M253.05 232.813C253.05 232.813 251.53 232.161 251.158 233.543C250.785 234.898 251.358 236.358 251.358 236.358C255.144 248.011 256.004 254.893 256.004 254.893C256.004 254.893 256.176 256.926 255.746 257.03C255.431 257.239 255.115 256.952 255.115 256.952C254.685 256.978 250.527 250.644 250.527 250.644L249.724 249.418C245.164 242.745 242.382 240.451 242.382 240.451C241.723 239.903 240.088 238.391 237.995 240.477C235.93 242.588 234.295 249.314 233.665 255.649C233.12 261.983 233.521 265.581 234.554 267.093C235.672 268.631 237.823 269.152 239.601 267.849C241.493 266.545 241.121 258.203 241.436 253.928C241.723 249.627 242.182 250.409 242.182 250.409C242.583 250.305 244.763 254.241 244.763 254.241C244.763 254.241 250.441 264.773 253.997 266.337C257.61 267.901 260.506 265.398 261.596 263.052C262.715 260.68 264.607 252.859 261.797 244.205C258.9 235.472 253.05 232.813 253.05 232.813Z" fill="white"/>
<path d="M194.09 255.128C193.947 252.234 193.574 244.883 192.685 241.546C192.312 240.112 191.652 238.809 190.104 238.261C189.932 238.209 189.731 238.157 189.588 238.131C188.613 237.948 188.068 239.174 187.81 239.773C187.035 241.572 186.491 245.821 186.347 247.177C185.888 251.217 185.516 260.784 186.29 265.633C186.605 267.666 187.351 268.996 189.616 269.439C190.534 269.622 192.226 269.569 192.943 269.152C193.574 268.787 194.033 268.084 194.176 267.458C194.606 265.763 194.434 263.365 194.348 261.54C194.262 259.403 194.205 257.265 194.09 255.128Z" fill="white"/>
<path d="M230.768 239.017C225.864 236.645 217.806 236.645 212.788 237.218C207.626 237.792 200.714 239.252 197.789 243.11C196.671 244.57 196.011 246.838 196.528 248.662C196.814 249.679 197.617 250.461 198.793 251.009C200.886 251.999 207.855 252.208 210.952 252.521C213.877 252.807 219.269 253.277 222.251 254.397C222.251 254.397 225.061 255.284 225.033 256.744C225.033 257.474 224.43 258.047 223.828 258.438C219.412 261.28 213.361 262.088 207.97 262.009C206.134 261.983 204.643 261.723 202.779 260.993C201.976 260.68 200.973 260.106 201.116 259.116C201.345 257.552 203.324 257.161 204.873 257.291C205.762 257.369 206.88 257.708 207.74 257.995C211.21 259.246 212.788 260.289 215.827 259.846C216.974 259.689 220.903 258.907 221.419 257.448C221.563 257.083 221.362 256.692 221.075 256.431C220.674 256.04 218.294 255.206 217.663 254.997C215.34 254.241 210.952 253.563 208.515 253.485C205.303 253.381 200.915 253.98 199.08 256.379C197.445 258.542 197.072 262.922 205.245 266.624C209.031 268.344 213.648 269.1 217.892 268.683C220.33 268.422 227.298 267.432 229.936 262.401C231.37 259.689 231.227 256.066 229.678 253.485C228.675 251.791 227.442 249.523 218.322 248.48C216.86 248.324 206.134 247.177 205.159 247.046C204.615 246.968 202.091 246.707 202.98 245.821C203.238 245.56 203.984 245.378 204.442 245.274C210.063 243.866 217.232 244.048 223.14 243.735C224.459 243.657 227.47 243.501 228.904 243.084C230.281 242.693 231.428 241.806 231.743 240.425C231.915 239.721 231.542 239.382 230.768 239.017Z" fill="white"/>
</g>
</g>
<defs>
<clipPath id="clip0_8_165">
<rect width="500" height="500" fill="white"/>
</clipPath>
<clipPath id="clip1_8_165">
<rect width="336" height="93" fill="white" transform="translate(82 203)"/>
</clipPath>
</defs>
</svg>
