<?xml version="1.0" encoding="utf-8"?>
<!-- Generator: Adobe Illustrator 28.0.0, SVG Export Plug-In . SVG Version: 6.00 Build 0)  -->
<svg version="1.1" id="Vrstva_1" xmlns="http://www.w3.org/2000/svg" xmlns:xlink="http://www.w3.org/1999/xlink" x="0px" y="0px"
	 viewBox="0 0 1024 1024" style="enable-background:new 0 0 1024 1024;" xml:space="preserve">
<style type="text/css">
	.st0{fill:#460081;}
	.st1{fill:#FCB53B;}
</style>
<rect y="0" class="st0" width="1024" height="1024"/>
<g>
	<path class="st1" d="M436,579l-4.2-23.8c-9.1,13.8-21.3,22.9-37.1,22.9c-24,0-38.4-18.4-38.4-51.7c0-40.4,22-61.7,59.5-61.7
		c4.9,0,10.2,0.4,15.5,1.1v-26.6l-15.1-10.9l0.2-0.4l54.6-16.7v144.9l14,10.9v0.4L436,579z M418.5,558.3c5.3,0,9.5-2,12.9-5.3v-0.4
		V480c-2.9-8.4-8.4-11.8-14.4-11.8c-11.5,0-20.2,15.8-20.2,49.5C396.8,548.6,403.9,558.3,418.5,558.3"/>
	<path class="st1" d="M490.6,522.4c0-37.7,22-57.9,60.1-57.9c38.8,0,56.4,18.2,56.4,55.7c0,37.5-21.3,57.9-59.7,57.9
		C508.4,578.1,490.6,559.7,490.6,522.4 M548.6,573.6c10.2,0,18.2-15.3,18.2-52.6c0-37.5-6.7-52.4-17.1-52.4
		c-10.4,0-18.4,15.3-18.4,52.4C531.3,558.8,538.1,573.6,548.6,573.6"/>
	<path class="st1" d="M679.5,575h-63.3v-0.4l11.8-11.3v-73.5l-14.2-11.1v-0.4l53.3-15.3l-0.4,25.5c8.9-13.8,20.9-24,38.6-24
		c18,0,28,7.8,31.3,24.2c9.1-13.8,21.1-24.2,38.8-24.2c22.6,0,32.9,12.4,32.9,38.4v60.4l11.5,11.3v0.4h-63v-0.4l11.8-11.3v-55.9
		c0-17.5-5.3-23.1-16.4-23.1c-6.2,0-11.3,2.2-15.1,6.4c0.7,3.5,0.9,7.8,0.9,12.2v60.4l11.8,11.3v0.4h-63v-0.4l11.5-11.3v-55.9
		c0-17.5-5.1-23.1-16.4-23.1c-5.3,0-10,1.8-14,5.5v73.5l11.8,11.3L679.5,575L679.5,575z"/>
	<path class="st1" d="M885.7,553.4c-6.7,14.9-16,24.6-33.5,24.6c-17.8,0-27.1-11.1-27.1-28.4c0-21.8,12.9-30.9,42.4-32.9l16.7-1.1
		v-7.1c0-13.3-5.1-18-18.9-18c-12.2,0-24.9,4.4-33.3,12l-0.2-0.4c5.6-23.3,23.1-37.7,48.2-37.7c29.3,0,44,13.1,44,41.1V547
		c0,10,4.7,13.5,15.5,13.5v0.7c-4.9,9.8-14.7,16.9-28.6,16.9c-18.2,0-25.1-8.9-25.1-22.4L885.7,553.4L885.7,553.4z M873.1,557
		c4.9,0,8.4-1.8,11.1-4.9v-33.7l-6,1.1c-11.3,2.2-16,9.3-16,23.1C862.2,552.6,866.2,557,873.1,557"/>
	<path class="st1" d="M132.3,453.9c0.5-0.7,1-1.4,1.7-2c0,0,0,0,0.1-0.1c0,0,0.1-0.1,0.1-0.1c0,0,0.1-0.1,0.1-0.1c0,0,0,0,0.1-0.1
		c1-0.9,2.1-1.6,3.3-2.1c0,0,0.1,0,0.2-0.1c0,0,0.1,0,0.1,0c1.5-0.6,3-0.9,4.5-0.8h0h0.2h0.1c0,0,0.1,0,0.1,0c0.1,0,0.1,0,0.2,0h0
		c1.5,0.1,3,0.5,4.4,1.2c0,0,0.1,0,0.1,0c0,0,0.1,0,0.1,0.1c1.2,0.6,2.2,1.4,3.2,2.3c0,0,0,0,0.1,0.1c0,0,0.1,0.1,0.1,0.1
		c0,0,0.1,0.1,0.1,0.1c0,0,0,0,0.1,0.1c0.6,0.7,1.1,1.4,1.5,2.1l41.1,71.1c13.4-13,29.7-22.7,49.3-22.5c21.5-0.1,41,12.1,55.7,27.5
		c1.1-6.1,1.6-12.3,1.6-18.7c0-59.7-48.4-108.1-108.1-108.1c-59.7,0-108.1,48.4-108.1,108.1c0,3.6,0.2,7.2,0.5,10.7L132.3,453.9z"/>
	<path class="st1" d="M290.8,555.7c0,0-0.1-0.1-0.1-0.2l-0.9-1.2c-8.4-10.4-19.2-20.1-31.7-25.1c-5.4-2.1-10.7-3-16.2-2.7
		c-17.2,0.9-30.2,14-40.4,26.9c-0.7,0.9-1.5,1.7-2.4,2.4c-6.8,5.3-15.5,1.6-18.4-4.9l-39.2-67.8L93,553.9
		c16.4,38.9,54.8,66.1,99.6,66.1c43.9,0,81.8-26.2,98.7-63.9C291.1,556,291,555.8,290.8,555.7"/>
</g>
</svg>
