<svg width="284" height="284" viewBox="0 0 284 284" fill="none" xmlns="http://www.w3.org/2000/svg">
<g clip-path="url(#clip0_2_59)">
<path d="M283.5 0H0V283.5H283.5V0Z" fill="#D0006F"/>
<path d="M224.281 139.051V128.225H218.497V126H232.586V128.225H226.802V139.051H224.281Z" fill="white"/>
<path d="M239.705 139.051L233.476 126H236.294L240.001 133.86C240.15 134.157 240.298 134.454 240.446 134.75C240.595 135.047 240.743 135.492 240.891 135.788C241.04 136.085 241.188 136.382 241.336 136.678H241.485C241.633 136.382 241.633 136.233 241.781 135.788C241.929 135.343 242.078 135.047 242.226 134.75C242.374 134.454 242.523 134.157 242.671 133.86L246.379 126H249.048L242.819 139.051H239.705Z" fill="white"/>
<path d="M48.8309 126.593H34C36.3729 126.593 36.6696 128.373 36.6696 131.487V156.107H43.3435V131.487C43.3435 128.373 43.3435 127.335 46.013 127.335C51.2039 127.335 56.2464 131.636 56.2464 141.424C56.2464 150.916 53.1319 155.069 48.5343 155.81C47.9411 155.958 47.1995 156.107 46.6063 156.107H48.6826C57.8778 156.107 63.5135 149.878 63.5135 141.424C63.5135 132.674 58.0261 126.593 48.8309 126.593ZM131.143 149.433C129.214 145.28 128.028 142.017 123.134 141.128C127.286 140.683 131.587 138.755 131.587 133.86C131.587 129.114 128.473 126.593 121.651 126.593H106.227C108.6 126.593 108.896 128.373 108.896 131.487V156.107H115.57V131.339C115.57 128.225 116.163 127.186 118.685 127.186C122.837 127.186 124.914 130.153 124.914 134.157C124.914 138.755 121.206 141.572 119.278 141.869C120.909 142.017 121.799 143.5 122.244 144.39C123.43 147.208 124.024 151.509 126.397 154.179C128.028 156.107 130.846 156.107 132.626 156.107H137.52C134.554 155.958 132.329 152.251 131.143 149.433ZM176.229 141.276C180.529 141.424 184.089 143.352 184.089 145.873V136.678C184.089 139.2 180.678 141.128 176.229 141.276ZM178.008 155.365C175.635 155.365 175.487 154.327 175.339 151.213V131.339C175.339 128.225 175.635 127.186 178.008 127.186C182.754 127.186 188.093 130.301 189.28 132.971L187.203 126.445H165.995C168.368 126.445 168.665 128.225 168.665 131.339V155.958H189.28L191.356 148.84C190.17 151.657 182.902 155.365 178.008 155.365ZM204.852 155.217C202.479 155.217 202.331 154.327 202.183 151.213V130.746C202.183 128.076 202.628 126.593 204.852 126.593H192.839C195.212 126.593 195.509 128.373 195.509 131.487V151.361V156.255H216.124L218.2 149.136C217.014 151.657 209.598 155.217 204.852 155.217ZM74.6367 138.31C74.6367 136.233 74.4884 127.186 78.9377 126.148C72.5604 126.593 67.3696 130.746 67.3696 138.161C67.3696 147.208 74.785 154.475 85.0184 156.7C80.1242 155.514 74.6367 149.878 74.6367 138.31ZM92.2855 126.148C96.7348 127.335 96.5865 136.233 96.5865 138.31C96.5865 149.878 90.9507 155.365 86.3531 156.7C96.5865 154.624 104.002 147.208 104.002 138.161C104.002 130.746 98.6628 126.593 92.2855 126.148ZM154.279 155.662C146.418 155.662 143.304 149.285 143.304 140.979C143.304 133.119 145.973 126.593 153.686 126.593C159.173 126.593 162.584 130.449 163.326 136.085V128.225C161.101 127.038 156.948 126 153.537 126C143.007 126 136.185 131.043 136.185 141.572C136.185 151.213 143.156 156.403 153.686 156.403C157.986 156.403 161.991 155.069 163.771 154.03C163.771 154.03 163.771 149.433 163.771 147.801C162.732 152.102 159.321 155.662 154.279 155.662Z" fill="white"/>
</g>
<defs>
<clipPath id="clip0_2_59">
<rect width="283.5" height="283.5" fill="white"/>
</clipPath>
</defs>
</svg>
