<svg width="284" height="284" viewBox="0 0 284 284" fill="none" xmlns="http://www.w3.org/2000/svg">
<rect width="283.5" height="283.5" fill="#51AAC8"/>
<path d="M99.7942 96.83C99.7051 96.9767 99.5899 97.1248 99.5025 97.2104C92.804 101.511 87.3055 104.023 82.9765 104.726C78.3877 105.427 75.0535 104.142 73.0355 100.867C72.4211 99.9009 71.7783 99.4642 71.0742 99.5236C70.3455 99.6114 69.7301 100.136 69.2318 101.069C68.5886 102.154 68.3261 103.469 68.4139 104.962C68.5017 106.689 69.1157 108.354 70.2563 109.932C72.7996 113.501 76.8095 115.052 82.3053 114.613C87.7754 114.056 93.9761 111.716 100.906 107.564L102.179 106.75C102.556 103.328 101.111 100.429 99.8842 96.5387L99.7942 96.83Z" fill="#FF6600"/>
<path d="M179.609 187.02C183.6 192.818 185.179 199.572 183.03 200.471C180.881 201.37 159.195 205.413 156.764 205.297C154.334 205.181 149.893 204.567 147.758 203.223C146.033 202.139 144.483 200.383 143.138 197.96C142.407 196.67 141.652 195.626 140.683 195.354C138.605 194.769 136.703 196.848 136.147 198.104C135.562 199.303 135.449 200.619 135.796 202.05C136.12 203.631 136.849 205.627 138.459 207.025C140.068 208.423 148.139 211.615 156.474 211.996C161.593 212.258 166.914 212.022 172.442 211.324C175.865 210.826 180.191 209.84 183.03 209.394C185.869 208.949 193.409 208.572 194.992 207.319C195.489 206.937 195.632 206.467 195.371 205.913C194.96 205.006 194.054 204.014 192.622 202.873C189.288 200.182 187.565 197.344 187.417 194.387C187.153 191.903 188.003 189.301 189.931 186.641C186.658 187.134 183.204 187.284 179.609 187.02Z" fill="#FF6600"/>
<path d="M173.104 185.67C173.396 186.129 173.688 186.625 173.98 187.088C176.409 191.237 177.754 196.783 177.81 201.734C177.81 201.734 182.449 200.685 183.132 200.419C184.589 199.851 184.011 193.702 179.678 186.766C178.931 185.569 173.396 185.765 173.104 185.67Z" fill="#FF6600"/>
<path d="M205.627 140.606C199.655 138.918 202.418 134.127 183.824 132.461C181.999 132.297 180.203 132.253 178.434 132.28H178.347C176.279 132.253 174.271 132.133 172.327 131.982C152.832 130.275 141.904 121.112 139.507 104.491L139.596 103.953V103.892C141.363 101.107 142.381 97.9063 142.652 94.2804C143.041 88.5901 141.155 83.5319 136.994 79.1313C132.739 74.6645 127.439 72.1824 121.091 71.7328C114.683 71.166 109.173 72.8995 104.562 76.9134C99.92 80.9242 97.8548 86.9584 98.7249 94.8309C98.7542 95.1312 101.654 103.037 101.266 106.539L103.034 108.444C113.58 114.298 122.979 113.265 122.979 113.265C134.747 115.329 141.488 135.305 141.488 135.305C144.414 142.844 146.538 156.77 147.983 162.824C149.173 167.804 151.654 172.478 156.126 176.627C162.773 182.794 171.339 184.953 172.328 185.221C174.063 185.644 175.831 185.942 177.659 186.154C178.378 186.242 179.093 186.331 179.814 186.36C184.158 186.69 188.29 186.421 192.151 185.614H192.211C196.673 184.596 200.835 182.799 204.699 180.192C211.138 175.79 215.219 163.104 215.219 163.104C218.02 155.726 223.115 149.618 229.614 143.269C221.858 145.157 205.627 140.606 205.627 140.606Z" fill="white"/>
<path d="M161.513 148.475C161.425 148.68 161.398 148.883 161.456 149.146C163.472 156.693 167.8 161.986 174.382 165.058C178.391 166.959 183.244 168.011 188.886 168.273H188.978C193.333 168.273 196.263 167.016 197.692 164.473C199.125 162.044 199.095 158.416 197.605 153.62L197.515 153.532C193.306 144.263 185.585 139.264 174.382 138.502C173.798 138.474 173.182 138.442 172.542 138.442C172.277 138.442 172.1 138.531 171.955 138.678C171.75 138.824 171.66 139.001 171.722 139.265C171.66 139.526 171.75 139.702 171.955 139.847C172.1 140.052 172.277 140.142 172.542 140.142C173.126 140.142 173.739 140.171 174.382 140.227C184.823 140.927 192.02 145.577 195.967 154.148C197.252 158.361 197.338 161.518 196.198 163.654C194.942 165.581 192.542 166.549 188.978 166.549C183.157 166.313 178.3 165.172 174.382 163.128C168.677 160.203 164.936 155.407 163.091 148.709C163.033 148.446 162.92 148.268 162.712 148.181C162.449 148.038 162.248 148.004 162.038 148.124C161.805 148.151 161.628 148.267 161.513 148.475Z" fill="black"/>
<path d="M124.561 157.037C124.522 157.037 124.483 157.035 124.446 157.033C123.382 157.033 122.612 156.631 122.137 155.824C121.753 155.276 121.569 154.454 121.623 153.37L121.642 153.224L121.992 149.049C121.074 149.651 120.379 150.333 119.903 151.065C119.699 151.375 119.445 151.557 119.096 151.649C118.989 151.678 118.883 151.692 118.779 151.692C118.546 151.692 118.322 151.623 118.11 151.484C117.797 151.299 117.594 151.025 117.503 150.677C117.41 150.332 117.467 150.002 117.67 149.69C118.529 148.243 120.068 146.96 122.266 145.843L122.596 141.998C122.633 141.628 122.797 141.336 123.073 141.099C123.322 140.882 123.606 140.786 123.933 140.786C123.964 140.786 123.994 140.788 124.024 140.79C124.37 140.823 124.664 140.989 124.904 141.264C125.141 141.543 125.233 141.851 125.215 142.216L124.996 144.709C127.212 143.975 130.398 143.167 134.573 142.287C134.671 142.268 134.767 142.257 134.861 142.257C135.105 142.257 135.34 142.325 135.563 142.474C135.873 142.676 136.058 142.947 136.132 143.295C136.206 143.643 136.147 143.974 135.948 144.287C135.742 144.597 135.471 144.78 135.124 144.853C130.268 145.876 126.825 146.793 124.759 147.6L124.262 153.444V153.481C124.242 153.883 124.28 154.196 124.369 154.415L124.446 154.399C125.341 154.342 126.753 153.628 128.677 152.254C128.906 152.094 129.158 152.016 129.433 152.016C129.508 152.016 129.585 152.021 129.664 152.032C129.846 152.07 130.014 152.144 130.161 152.237C129.57 150.952 129.336 149.486 129.446 147.822C129.462 147.456 129.609 147.142 129.884 146.906C130.139 146.684 130.424 146.591 130.756 146.591C130.783 146.591 130.809 146.591 130.837 146.592C131.205 146.61 131.498 146.756 131.735 147.032C131.973 147.309 132.084 147.619 132.064 147.984C131.936 150.22 132.668 151.94 134.298 153.151C134.793 150.312 136.111 147.179 138.237 143.772C138.44 143.461 138.713 143.279 139.062 143.188C139.161 143.16 139.261 143.148 139.358 143.148C139.598 143.148 139.828 143.225 140.049 143.368C140.361 143.552 140.546 143.825 140.638 144.175C140.658 144.272 140.667 144.365 140.668 144.459V144.474C140.667 144.714 140.602 144.944 140.472 145.165C138.109 148.955 136.844 152.329 136.719 155.311C136.7 155.605 136.608 155.862 136.423 156.08C136.239 156.317 136.003 156.463 135.711 156.537C135.604 156.567 135.496 156.583 135.39 156.583C135.222 156.583 135.053 156.545 134.885 156.463C133.036 155.68 131.66 154.635 130.745 153.294L130.727 153.551C130.671 153.902 130.49 154.197 130.196 154.416C127.708 156.176 125.824 157.037 124.561 157.037Z" fill="#FF6666"/>
<path d="M66.4185 138.441V158.547H61.7195V156.395C61.0614 157.308 60.4622 157.928 59.9189 158.245C59.196 158.666 58.3898 158.877 57.5021 158.877C55.7164 158.877 54.3551 158.121 53.413 156.615C52.4695 155.104 52 153.272 52 151.114C52 148.7 52.5226 146.853 53.5597 145.574C54.5996 144.291 55.9221 143.653 57.5264 143.653C58.3069 143.653 59.0159 143.799 59.6551 144.091C60.2907 144.384 60.8565 144.825 61.3481 145.41V138.441M61.3859 151.223C61.3859 150.08 61.1685 149.23 60.735 148.667C60.2957 148.103 59.7451 147.823 59.0803 147.823C58.4983 147.823 58.0071 148.095 57.6124 148.631C57.2167 149.173 57.0204 150.077 57.0204 151.347C57.0204 152.535 57.2225 153.406 57.6299 153.958C58.0378 154.513 58.5401 154.79 59.1406 154.79C59.7843 154.79 60.3155 154.512 60.7449 153.952C61.1716 153.395 61.3859 152.486 61.3859 151.223Z" fill="#003060"/>
<path d="M83.2833 158.549H78.5938V156.191C77.8951 157.16 77.1911 157.849 76.4794 158.26C75.7696 158.673 74.8927 158.879 73.8587 158.879C72.4763 158.879 71.3924 158.42 70.6078 157.502C69.8227 156.581 69.4307 155.166 69.4307 153.256V143.986H74.4763V151.997C74.4763 152.907 74.6276 153.558 74.9305 153.941C75.237 154.328 75.6642 154.518 76.2152 154.518C76.8148 154.518 77.3082 154.264 77.6885 153.747C78.072 153.236 78.262 152.318 78.262 150.992V143.985H83.2842" fill="#003060"/>
<path d="M96.099 152.841L100.873 153.445C100.607 154.553 100.175 155.511 99.575 156.317C98.9745 157.125 98.2075 157.757 97.2748 158.202C96.3403 158.652 95.1546 158.877 93.7159 158.877C92.3259 158.877 91.1695 158.731 90.244 158.447C89.319 158.155 88.5254 157.693 87.8582 157.046C87.192 156.404 86.6703 155.649 86.2918 154.778C85.9145 153.911 85.7241 152.76 85.7241 151.326C85.7241 149.825 85.9546 148.581 86.4169 147.586C86.7513 146.853 87.215 146.198 87.7966 145.621C88.3786 145.04 88.9796 144.609 89.5985 144.324C90.5749 143.876 91.8308 143.653 93.3594 143.653C95.4981 143.653 97.1271 144.078 98.2489 144.929C99.372 145.779 100.162 147.023 100.613 148.658L95.8883 149.359C95.7402 148.737 95.472 148.267 95.0803 147.953C94.6896 147.637 94.1643 147.479 93.5075 147.479C92.6761 147.479 92.0041 147.81 91.4896 148.472C90.9764 149.132 90.7194 150.134 90.7194 151.476C90.7194 152.673 90.975 153.581 91.4851 154.202C91.9951 154.822 92.6428 155.131 93.4337 155.131C94.0918 155.131 94.6437 154.943 95.0929 154.571C95.539 154.197 95.8753 153.619 96.099 152.841Z" fill="#003060"/>
<path d="M103.175 138.441H108.306V148.817L112.056 143.982H118.236L113.535 149.084L118.507 158.547H112.851L110.197 152.708L108.306 154.762V158.547H103.175" fill="#003060"/>
<path d="M230.705 143.105C230.508 142.75 230.099 142.57 229.705 142.666C228.525 142.953 227.043 143.099 225.299 143.099C217.289 143.099 206.285 140.041 206.177 140.011C204.402 139.509 203.512 138.728 202.386 137.74C199.968 135.618 196.96 132.978 184.209 131.835C182.767 131.706 181.287 131.643 179.687 131.643C179.365 131.643 179.044 131.645 178.739 131.65H178.663C176.885 131.627 174.991 131.534 172.71 131.356C153.577 129.681 143.112 120.985 140.722 104.771L140.773 104.467C142.542 101.61 143.578 98.2979 143.854 94.6126C144.261 88.6811 142.275 83.3554 137.95 78.7811C133.54 74.1505 127.991 71.5685 121.474 71.1071C114.853 70.5214 109.059 72.3409 104.277 76.5034C99.4357 80.687 96.5382 87.4036 97.4407 95.5682C97.4484 95.6457 97.4641 95.7303 97.5582 96.2214C97.6262 96.5766 97.6892 96.9155 97.7518 97.2554C91.7365 100.995 86.7233 103.209 82.8417 103.839C82.081 103.955 81.3486 104.014 80.6662 104.014C77.5476 104.014 75.3027 102.831 73.7965 100.386C73.0516 99.2144 72.1778 98.6202 71.2006 98.6202C71.1344 98.6202 71.0673 98.6229 70.9678 98.6319C69.9375 98.7557 69.0867 99.4341 68.4583 100.612C67.7331 101.835 67.4162 103.317 67.5153 105.01C67.612 106.914 68.2891 108.748 69.5238 110.457C71.9501 113.862 75.657 115.588 80.5424 115.588C81.1334 115.588 81.7506 115.563 82.3974 115.511C87.9157 114.949 94.197 112.593 101.071 108.514L102.9 109.502C110.744 113.857 117.926 114.507 121.51 114.507C122.389 114.507 122.989 114.466 123.244 114.444C134.276 116.505 140.874 135.67 140.953 135.901C142.982 141.129 144.618 149.47 145.934 156.17C146.494 159.025 146.978 161.489 147.411 163.304C148.744 168.884 151.493 173.547 155.817 177.559C159 180.512 163.582 182.977 167.113 184.492C170.205 185.818 172.476 186.379 172.486 186.382C172.592 186.552 173.08 187.35 173.205 187.546C175.36 191.228 176.717 196.214 176.891 201.019C169.831 202.466 158.785 204.4 156.878 204.4L156.807 204.399C154.417 204.284 150.162 203.674 148.237 202.462C146.634 201.454 145.184 199.792 143.921 197.516C143.155 196.165 142.262 194.863 140.926 194.487C140.608 194.398 140.279 194.352 139.95 194.352C137.673 194.352 135.904 196.43 135.338 197.71C134.663 199.091 134.523 200.623 134.914 202.232C135.245 203.845 136.026 206.105 137.868 207.705C139.659 209.261 147.835 212.503 156.427 212.895C157.792 212.965 159.195 213 160.598 213C164.417 213 168.44 212.737 172.571 212.215C174.494 211.935 176.654 211.511 178.743 211.102C180.379 210.782 181.923 210.479 183.169 210.283C183.917 210.166 185.002 210.053 186.26 209.923C190.904 209.441 194.289 209.023 195.54 208.032C196.378 207.388 196.619 206.452 196.19 205.54C195.717 204.498 194.761 203.426 193.186 202.172C190.089 199.672 188.45 197.037 188.315 194.342L188.311 194.292C188.073 192.045 188.862 189.648 190.658 187.17L190.694 187.121C191.318 187.022 192.661 186.775 192.715 186.763C197.286 185.72 201.59 183.852 205.511 181.207C212.053 176.734 216.116 164.466 216.373 163.674C219.381 155.763 225.225 149.383 230.546 144.185C230.837 143.901 230.901 143.459 230.705 143.105ZM174.896 186.885C175.842 187.054 178.504 187.397 178.795 187.428L178.866 187.532C179.892 189.022 180.741 190.568 181.406 192.045C183.111 196.171 183.133 199.026 182.762 199.583C182.751 199.594 182.737 199.602 182.724 199.611C182.201 199.783 180.285 200.243 178.679 200.615C178.447 195.744 177.069 190.716 174.896 186.885ZM192.06 203.578C193.371 204.622 194.209 205.532 194.555 206.296C194.621 206.435 194.632 206.459 194.432 206.613C193.484 207.364 188.845 207.845 186.074 208.133C184.791 208.266 183.683 208.381 182.89 208.505C181.611 208.706 180.049 209.012 178.397 209.336C176.329 209.741 174.191 210.16 172.329 210.431C168.289 210.942 164.343 211.2 160.598 211.2C159.227 211.2 157.854 211.166 156.515 211.097C148.29 210.722 140.443 207.558 139.049 206.346C137.588 205.077 136.953 203.212 136.671 201.839C136.371 200.601 136.464 199.508 136.971 198.469C137.39 197.523 138.693 196.153 139.951 196.153C140.116 196.153 140.28 196.176 140.44 196.221C141.154 196.422 141.839 197.493 142.351 198.397C143.759 200.934 145.417 202.815 147.279 203.986C149.666 205.489 154.338 206.083 156.722 206.198C156.769 206.2 156.802 206.205 156.88 206.201C158.888 206.201 178.072 202.602 178.103 202.595C180.754 202.038 182.758 201.562 183.378 201.303C183.43 201.281 183.904 201.019 184.085 200.812C184.331 200.555 184.558 200.194 184.708 199.684C185.276 197.751 184.503 194.353 182.841 190.84C182.445 189.926 181.85 188.697 181.322 187.736C183.569 187.813 185.925 188.018 188.123 187.783C186.834 190.053 186.295 192.292 186.519 194.458C186.688 197.678 188.551 200.745 192.06 203.578ZM214.681 163.056C214.676 163.071 214.671 163.085 214.666 163.1C214.626 163.224 210.602 175.545 204.5 179.718C200.795 182.217 196.726 183.99 192.408 184.987C192.362 184.989 188.861 185.851 183.712 185.869C177.887 185.889 173.016 184.496 171.134 184.108C169.252 183.72 161.785 180.64 157.043 176.24C152.988 172.478 150.411 168.11 149.163 162.887C148.738 161.108 148.257 158.659 147.701 155.825C146.373 149.054 144.718 140.627 142.646 135.289C142.364 134.452 135.593 114.783 123.44 112.65C123.388 112.641 123.336 112.637 123.284 112.637C123.251 112.637 123.219 112.639 123.187 112.642C123.18 112.643 122.57 112.707 121.511 112.707C118.102 112.707 111.265 112.087 103.767 107.925C103.767 107.925 101.28 106.536 101.28 106.55L100.856 106.804C94.2785 110.661 87.4003 113.194 82.2358 113.72C77.0376 114.136 73.3541 112.728 70.9886 109.409C69.9568 107.982 69.3942 106.472 69.3149 104.913C69.2366 103.578 69.4698 102.441 70.0284 101.497C70.3831 100.833 70.772 100.471 71.1524 100.425L71.2019 100.423C71.6021 100.423 72.0081 100.929 72.2715 101.343C74.4781 104.924 78.1049 106.385 83.123 105.619C87.3539 104.931 93.3602 102.23 99.7842 98.2124C99.7842 98.2124 99.3363 95.9328 99.3268 95.8824C99.2746 95.6101 99.2395 95.43 99.2318 95.3823C98.3973 87.8316 101.089 81.6395 105.457 77.8641C109.318 74.5038 113.897 72.8 119.066 72.8C119.799 72.8 120.556 72.8343 121.332 72.9027C127.402 73.3326 132.555 75.7287 136.644 80.0212C140.608 84.2129 142.429 89.0808 142.059 94.4843C141.8 97.9427 140.818 101.037 139.141 103.681C139.052 103.821 139.003 103.983 139.001 104.148L138.923 104.614C138.908 104.705 138.907 104.798 138.92 104.89C141.373 121.903 152.689 131.411 172.562 133.151C174.891 133.332 176.822 133.427 178.651 133.451H178.752C179.063 133.447 179.374 133.444 179.687 133.444C181.233 133.444 182.66 133.504 184.048 133.629C196.213 134.719 198.977 137.145 201.198 139.094C202.391 140.142 203.52 141.132 205.689 141.745C206.148 141.874 217.039 144.901 225.299 144.901C226.021 144.901 226.704 144.877 227.348 144.83C222.451 149.802 217.445 155.776 214.681 163.056Z" fill="black"/>
<path d="M112.07 83.7804C111.753 82.2292 111.049 81.3235 109.966 81.0021C108.884 80.5641 107.741 80.8567 106.544 81.82C105.519 82.6091 104.761 83.7804 104.262 85.3311C103.709 86.822 103.59 88.1958 103.881 89.4819C104.174 90.9741 104.906 91.9117 106.047 92.23C107.069 92.6707 108.183 92.4082 109.381 91.4409C110.433 90.5955 111.194 89.4274 111.689 87.9311C112.246 86.4403 112.361 85.0678 112.07 83.7804Z" fill="black"/>
<path fill-rule="evenodd" clip-rule="evenodd" d="M72.2363 187.952V167.842H77.4627V169.995C78.1852 169.09 78.8481 168.477 79.4517 168.157C80.2656 167.727 81.1664 167.512 82.1541 167.512C84.1021 167.512 85.6064 168.258 86.6672 169.748C87.7372 171.239 88.2722 173.082 88.2722 175.277C88.2722 177.7 87.6915 179.552 86.5301 180.832C85.3687 182.103 83.9009 182.739 82.1268 182.739C81.2672 182.739 80.4807 182.593 79.7673 182.3C79.0632 182.007 78.4322 181.573 77.8743 180.997V187.952L72.2363 187.952ZM77.8332 175.167C77.8332 176.319 78.0755 177.174 78.5602 177.732C79.0449 178.29 79.6576 178.569 80.3983 178.569C81.0476 178.569 81.5918 178.304 82.0307 177.773C82.4697 177.234 82.6892 176.324 82.6892 175.044C82.6892 173.864 82.4606 173 82.0033 172.451C81.5461 171.893 80.9882 171.614 80.3297 171.614C79.6164 171.614 79.022 171.893 78.5465 172.451C78.0709 173.009 77.8332 173.914 77.8332 175.167Z" fill="#003060"/>
<path fill-rule="evenodd" clip-rule="evenodd" d="M91.1797 162.297H96.7765V182.407H91.1797V162.297Z" fill="#003060"/>
<path fill-rule="evenodd" clip-rule="evenodd" d="M115.703 182.411H110.49V180.052C109.713 181.021 108.927 181.712 108.131 182.123C107.344 182.535 106.375 182.74 105.223 182.74C103.687 182.74 102.479 182.283 101.602 181.369C100.733 180.445 100.298 179.027 100.298 177.116V167.843H105.909V175.854C105.909 176.769 106.078 177.418 106.416 177.802C106.755 178.186 107.23 178.378 107.843 178.378C108.511 178.378 109.055 178.122 109.475 177.61C109.905 177.098 110.12 176.179 110.12 174.853V167.843H115.703L115.703 182.411Z" fill="#003060"/>
<path fill-rule="evenodd" clip-rule="evenodd" d="M118.142 178.373L123.683 177.852C123.912 178.51 124.232 178.981 124.644 179.264C125.055 179.548 125.604 179.69 126.29 179.69C127.04 179.69 127.62 179.53 128.032 179.21C128.352 178.972 128.512 178.675 128.512 178.318C128.512 177.916 128.302 177.605 127.881 177.385C127.579 177.23 126.779 177.038 125.48 176.809C123.542 176.471 122.193 176.16 121.434 175.876C120.684 175.584 120.048 175.094 119.527 174.408C119.015 173.723 118.759 172.941 118.759 172.063C118.759 171.102 119.038 170.275 119.596 169.58C120.153 168.885 120.922 168.368 121.9 168.03C122.879 167.682 124.191 167.508 125.837 167.508C127.575 167.508 128.855 167.641 129.678 167.906C130.51 168.171 131.201 168.583 131.749 169.141C132.307 169.699 132.769 170.453 133.135 171.404L127.84 171.926C127.703 171.459 127.474 171.116 127.154 170.897C126.715 170.604 126.185 170.458 125.563 170.458C124.932 170.458 124.47 170.572 124.177 170.801C123.894 171.02 123.752 171.29 123.752 171.61C123.752 171.967 123.935 172.237 124.301 172.419C124.666 172.602 125.462 172.767 126.687 172.913C128.544 173.124 129.925 173.416 130.83 173.791C131.735 174.166 132.426 174.701 132.901 175.396C133.386 176.091 133.628 176.855 133.628 177.687C133.628 178.528 133.372 179.347 132.86 180.142C132.357 180.938 131.557 181.574 130.46 182.049C129.371 182.516 127.885 182.749 126.001 182.749C123.34 182.749 121.442 182.369 120.308 181.61C119.184 180.851 118.461 179.772 118.141 178.373L118.142 178.373Z" fill="#003060"/>
</svg>
