<?xml version="1.0" encoding="UTF-8"?>
<svg xmlns="http://www.w3.org/2000/svg" version="1.1" viewBox="0 0 283.5 283.5">
  <defs>
    <style>
      .cls-1 {
        fill: #002691;
      }

      .cls-2 {
        fill-rule: evenodd;
      }

      .cls-2, .cls-3 {
        fill: #fff;
      }
    </style>
  </defs>
  <!-- Generator: Adobe Illustrator 28.7.1, SVG Export Plug-In . SVG Version: 1.2.0 Build 142)  -->
  <g>
    <g id="Vrstva_1">
      <g id="Vrstva_1-2" data-name="Vrstva_1">
        <g id="Vrstva_1-2">
          <rect class="cls-1" width="283.5" height="283.5"/>
        </g>
      </g>
      <g>
        <path class="cls-3" d="M89.2,97.1c13.9,0,31.8,2.7,54.8,10.5h.1c34.2,12.6,56,11.2,68.3,7.8,12.4-3.4,17.3-9.3,17.4-9.4l7.5,6c-1,1.3-25.5,30.7-96.4,4.6-35.6-12.1-57.4-11-69.4-8-12.7,3.1-17.3,9-17.3,9.1h0c0,0-7.8-5.6-7.8-5.6.6-.9,11.2-15,42.8-15"/>
        <path class="cls-2" d="M200,112.2c0,32.2-26.1,58.3-58.3,58.3s-58.3-26.1-58.3-58.3,26.1-58.3,58.3-58.3,58.3,26.1,58.3,58.3M209.5,112.2c0,37.4-30.4,67.8-67.8,67.8s-67.8-30.4-67.8-67.8,30.4-67.8,67.8-67.8,67.8,30.4,67.8,67.8Z"/>
        <path class="cls-3" d="M97.9,216.4h9.6c1.4,0,2.8.2,4,.7,1.2.5,2.3,1.1,3.2,2.1.9.9,1.6,2.1,2.1,3.4.5,1.4.8,3,.8,4.8s-.2,3.1-.6,4.5c-.4,1.4-1,2.6-1.9,3.5-.8,1-1.9,1.8-3.1,2.4-1.3.6-2.7.9-4.4.9h-9.6v-22.2ZM102.8,234.5h4.4c.7,0,1.4-.1,2.1-.3.7-.2,1.3-.6,1.8-1.1.5-.5.9-1.2,1.2-2.1.3-.8.5-1.9.5-3.1s-.1-2.1-.3-3c-.2-.9-.6-1.7-1.1-2.3-.5-.6-1.2-1.1-2-1.5-.8-.3-1.8-.5-3-.5h-3.5v14Z"/>
        <path class="cls-3" d="M139.1,230.2c0,3-.8,5.3-2.5,6.7-1.7,1.5-4,2.2-7,2.2s-5.3-.7-7-2.2c-1.7-1.5-2.5-3.7-2.5-6.7v-13.8h4.9v13.8c0,.6,0,1.2.2,1.8.1.6.3,1.1.7,1.6.3.5.8.8,1.4,1.1.6.3,1.4.4,2.4.4,1.7,0,2.9-.4,3.6-1.2.7-.8,1-2,1-3.7v-13.8h4.9v13.8Z"/>
        <polygon class="cls-3" points="145.9 222.4 145.9 238.6 142.1 238.6 142.1 216.3 145.9 216.3 147.7 216.3 157.6 230.2 157.6 216.3 161.8 216.3 161.8 238.6 157.6 238.6 145.9 222.4"/>
        <path class="cls-3" d="M171.7,216.4h4.9l8.7,22.2h-4.6l-2-4.9h-9.4l-2,4.9h-4.5l8.9-22.2ZM171.1,229.2h6.1l-3-8.6h0l-3.1,8.6Z"/>
      </g>
    </g>
  </g>
</svg>