<?xml version="1.0" encoding="UTF-8"?>
<svg xmlns="http://www.w3.org/2000/svg" version="1.1" viewBox="0 0 283.5 283.5">
  <defs>
    <style>
      .cls-1 {
        fill: #fff;
      }

      .cls-2 {
        fill: #3190ce;
      }
    </style>
  </defs>
  <!-- Generator: Adobe Illustrator 28.7.1, SVG Export Plug-In . SVG Version: 1.2.0 Build 142)  -->
  <g>
    <g id="Vrstva_1">
      <g id="Vrstva_1-2">
        <g id="Vrstva_1-2-2" data-name="Vrstva_1-2">
          <rect class="cls-2" width="283.5" height="283.5"/>
        </g>
      </g>
      <g>
        <path class="cls-1" d="M66.1,129.9c-3.7,0-7,.3-10.1.7-6.1.9-11.1,2.5-14.8,4.4-3.8,1.9-6.4,3.9-8,6.4l6.3,4c.4-.6,2.1-2.3,5-3.7,3-1.5,7.2-2.9,12.6-3.7,10.8-1.6,26.5-.6,47.2,7,43.3,15.9,66.3,5.5,73.5-3.7l-5.9-4.6c-3.7,4.8-23.5,16.5-65,1.3-16.2-6-29.8-8.1-40.8-8.1Z"/>
        <g>
          <path class="cls-1" d="M105.4,90.4c-28.3,0-51.4,23.1-51.4,51.4,0,28.3,23.1,51.4,51.4,51.4s51.4-23,51.4-51.4c0-28.4-23-51.4-51.4-51.4h0ZM105.4,97.8c24.3,0,43.9,19.6,43.9,43.9h0c0,24.3-19.6,43.9-43.9,43.9s-43.9-19.6-43.9-43.9h0c0-24.3,19.6-44,43.9-44h0Z"/>
          <path class="cls-1" d="M184,124.1v16.8h5.9c5,0,9.2-2.3,9.2-8.4,0-5.3-3-8.3-9.7-8.3h-5.5ZM201,124.1v8.9c0,1.9.1,3.3.4,4.3.2.6.5,1.3,1,1.9s1.2,1.1,2.1,1.4,2.2.6,3.8.6,2.5-.2,3.4-.5c.9-.3,1.6-.8,2.1-1.4.5-.6.9-1.3,1.1-2.1.2-.8.3-2.3.3-4.3v-8.8h-3.6v9.3c0,1.3,0,2.3-.2,2.8,0,.6-.4,1.1-.9,1.5-.5.4-1.3.6-2.3.6s-1.8-.2-2.4-.6c-.6-.4-.9-1-1.1-1.7,0-.4-.1-1.4-.1-2.8v-9.1h-3.6ZM217.5,124.1v16.8h2.9v-12.3l8.8,12.3h3.1v-16.8h-3v10.5l-7.5-10.5h-4.3ZM239.8,124.1l-6.7,16.8h3.7l1.4-3.8h6.8l1.5,3.8h3.7l-6.9-16.8h-3.6ZM188,127.2h1.9c3.8,0,5.2,2.7,5.2,5.3,0,3.7-2.1,5.3-5.2,5.3h-1.8v-10.6ZM241.6,127.9l2.4,6.2h-4.7l2.3-6.2Z"/>
          <path class="cls-1" d="M187.7,158.2h2.3l2-8.1,2,8.1h2.6l3.2-12h-2.5l-2,8.7-2.1-8.7h-2.3l-2.1,8.7-2-8.7h-2.6l3.2,12"/>
          <path class="cls-1" d="M206,158.4c3.7,0,6.3-2.8,6.3-6.2h0c0-3.4-2.6-6.1-6.3-6.1s-6.3,2.8-6.3,6.1h0c0,3.4,2.6,6.2,6.3,6.2M206.1,155.9c-2.1,0-3.6-1.7-3.6-3.7h0c0-2.1,1.5-3.7,3.6-3.7s3.6,1.7,3.6,3.7h0c0,2.1-1.5,3.7-3.6,3.7"/>
          <path class="cls-1" d="M213,158.2h2.6v-3.8h2.1l2.5,3.8h3l-2.9-4.3c1.5-.6,2.5-1.8,2.5-3.7h0c0-1.2-.4-2.1-1-2.7-.8-.8-2-1.2-3.5-1.2h-5.4v11.9M215.6,152v-3.4h2.6c1.3,0,2.1.6,2.1,1.7h0c0,1-.7,1.7-2,1.7h-2.7"/>
          <path class="cls-1" d="M223.6,158.2h8.5v-2.4h-5.9v-9.5h-2.6v11.9"/>
          <path class="cls-1" d="M233,146.3v11.9h4.2c3.5,0,6.6-1.7,6.5-6,0-3.7-2.1-5.9-6.9-5.9h-3.9ZM235.8,148.5h1.3c2.7,0,3.7,1.9,3.7,3.7,0,2.6-1.5,3.7-3.7,3.7h-1.3v-7.5Z"/>
        </g>
        <path class="cls-1" d="M65.6,116.2c-12,.3-22.1,3-29.5,7.2l3.7,6.5c12-6.8,35.7-9.7,64.1.8l2.6-7c-15-5.6-28.9-7.7-40.9-7.5h0Z"/>
        <path class="cls-1" d="M106.9,151.9l-2.6,7c30.1,11.1,55.6,8.7,70.4.3l-3.7-6.5c-12,6.8-35.7,9.7-64.1-.8h0Z"/>
      </g>
    </g>
  </g>
</svg>