<svg width="284" height="284" viewBox="0 0 284 284" fill="none" xmlns="http://www.w3.org/2000/svg">
<g clip-path="url(#clip0_12_59)">
<rect width="283.5" height="283.5" fill="#CB0203"/>
<path d="M283.5 0H0V283.5H283.5V0Z" fill="#FC9297"/>
<path fill-rule="evenodd" clip-rule="evenodd" d="M35 114.8H55.8718C73.2781 114.8 84.7773 125.512 84.7773 141.185C84.7773 156.859 73.2781 167.57 55.8718 167.57H35V114.8Z" fill="black"/>
<path fill-rule="evenodd" clip-rule="evenodd" d="M138.803 115.2V144.103C138.803 159.182 129.456 169 115.476 169C101.182 169 91.6001 159.182 91.6001 144.103V115.2H104.559V144.103C104.559 152.114 108.879 157.062 115.476 157.062C121.681 157.062 125.844 152.114 125.844 144.103V115.2H138.803Z" fill="black"/>
<path fill-rule="evenodd" clip-rule="evenodd" d="M167.552 114C179.023 114 187.352 119.657 189.316 129.243L176.587 131.836C175.644 126.886 171.559 124.45 167.394 124.45C163.073 124.45 160.323 126.807 160.323 129.793C160.323 131.914 161.266 133.486 164.566 134.193L175.487 136.629C184.602 138.671 189.944 143.621 189.944 151.95C189.944 163.186 179.966 169 168.259 169C156.394 169 146.652 163.343 145.237 153.05L158.594 150.457C159.93 155.879 163.702 158.236 168.966 158.236C173.837 158.236 176.744 156.036 176.744 152.814C176.744 150.457 175.644 148.964 171.873 148.179L160.873 145.821C153.33 144.093 146.73 140.164 146.73 130.579C146.73 120.364 155.216 114 167.552 114Z" fill="black"/>
<path fill-rule="evenodd" clip-rule="evenodd" d="M248.936 167.8H233.235L219.418 147.702L210.154 158.772V167.8H197.2V115.2H210.154V141.186L232.057 115.2H246.738L227.818 137.732L248.936 167.8Z" fill="black"/>
<path fill-rule="evenodd" clip-rule="evenodd" d="M66.8673 130.284C68.7008 132.128 69.524 134.515 69.7111 137.046C69.9356 139.758 69.7485 142.832 69.0001 145.435C66.4931 153.933 58.6727 159.176 54.2947 155.416C53.6212 154.873 54.5192 153.716 55.305 154.222C59.5707 156.898 64.2854 151.944 65.8944 145.869C66.4931 143.519 66.8299 141.096 66.8673 138.709C66.9047 136.938 66.9047 134.876 66.0441 133.213C64.0235 129.272 58.2611 129.525 54.7063 131.188C52.6857 132.128 50.74 133.611 50.1413 135.817C49.58 137.769 50.0665 139.758 51.6006 141.205C52.1993 141.747 51.4135 142.723 50.74 142.289C46.3246 139.216 48.0459 133.141 51.9374 130.429C55.8289 127.717 63.1629 126.632 66.8673 130.284ZM57.8495 131.441C58.1488 130.501 59.4959 130.899 59.3088 131.839C58.4856 137.046 56.914 142 54.9308 146.882C54.0702 149.124 53.0599 151.655 51.7129 153.644C50.5529 155.307 48.7194 156.32 46.624 156.067C45.5388 155.922 45.9879 154.295 47.073 154.439C49.3181 154.873 50.3658 151.763 51.0768 150.209C51.9374 148.184 52.798 146.086 53.5838 143.953C55.1928 139.867 56.5398 135.636 57.8495 131.441Z" fill="white" stroke="white" stroke-width="2"/>
</g>
<defs>
<clipPath id="clip0_12_59">
<rect width="283.5" height="283.5" fill="white"/>
</clipPath>
</defs>
</svg>
