<?xml version="1.0" encoding="UTF-8"?>
<svg xmlns="http://www.w3.org/2000/svg" version="1.1" viewBox="0 0 1024 1024">
  <defs>
    <style>
      .cls-1 {
        fill: #fff;
      }
    </style>
  </defs>
  <!-- Generator: Adobe Illustrator 28.7.1, SVG Export Plug-In . SVG Version: 1.2.0 Build 142)  -->
  <g>
    <g id="Vrstva_1">
      <rect width="1024" height="1024"/>
      <g>
        <g id="Page-1">
          <g id="DVTV-Web-Splash-Screen">
            <g id="dvtv-logo">
              <path id="Shape" class="cls-1" d="M279.9,446.5c11.7-11.8,17.7-28,16.6-44.4,1.1-16.5-4.9-32.8-16.6-44.8-11-10.5-27.9-15.7-50.7-15.7h-25v120.1h28.5c17.2,1.1,34.1-4.3,47.3-15.2M312.9,329.1c19.8,18.7,30.3,45,28.8,71.9,1.4,27.1-8.7,53.5-28,72.9-18.7,17.9-47.2,26.9-85.6,26.9h-68.8v-197.5h71.1c35.8,0,63.4,8.6,82.5,25.9"/>
              <polygon id="Path" class="cls-1" points="475.6 429 526.2 303.3 574.3 303.3 494.3 500.8 456.8 500.8 376.8 303.3 424.9 303.3 475.6 429"/>
              <polygon id="Path-2" data-name="Path" class="cls-1" points="695.4 322.5 695.4 413.3 670.7 413.3 670.7 322.5 639.3 322.5 639.3 300.8 726.8 300.8 726.8 322.5 695.4 322.5"/>
              <polygon id="Path-3" data-name="Path" class="cls-1" points="803.1 372.4 831.9 300.8 859.3 300.8 813.8 413.3 792.3 413.3 746.8 300.8 774.2 300.8 803.1 372.4"/>
            </g>
          </g>
        </g>
        <g>
          <path class="cls-1" d="M188.5,700.1h55.4v23.1h-85v-105.9h83v23.1h-53.4v59.6ZM186.3,658.4h49.2v22.4h-49.2v-22.4Z"/>
          <path class="cls-1" d="M293.7,723.2l46.3-64.3-.2,21.3-44.5-62.9h33.7l28.4,41-14.4.2,28-41.1h32.4l-44.5,61.7v-21.2l46.9,65.3h-34.5l-28.9-43.1h13.8l-28.4,43.1h-34.2Z"/>
          <path class="cls-1" d="M479.2,723.2v-82.1h-32.5v-23.7h94.8v23.7h-32.4v82.1h-29.9Z"/>
          <path class="cls-1" d="M597.8,723.2v-105.9h48.4c9.7,0,18,1.6,25,4.7,7,3.1,12.4,7.6,16.3,13.5,3.8,5.9,5.7,12.9,5.7,20.9s-1.9,14.8-5.7,20.6c-3.8,5.8-9.3,10.2-16.3,13.3-7,3.1-15.4,4.6-25,4.6h-31.8l13.3-12.6v40.7h-29.9ZM627.7,685.7l-13.3-13.8h29.9c6.3,0,10.9-1.4,14-4.1,3.1-2.7,4.6-6.5,4.6-11.3s-1.5-8.8-4.6-11.5c-3.1-2.7-7.7-4.1-14-4.1h-29.9l13.3-13.8v58.5ZM663.3,723.2l-26.3-38.6h31.9l26.5,38.6h-32.1Z"/>
          <path class="cls-1" d="M742.1,723.2l46.7-105.9h29.5l46.9,105.9h-31.2l-36.6-91.2h11.8l-36.6,91.2h-30.6ZM767.6,702.7l7.7-22.1h51.7l7.7,22.1h-67.2Z"/>
        </g>
      </g>
    </g>
  </g>
</svg>