<svg width="284" height="284" viewBox="0 0 284 284" fill="none" xmlns="http://www.w3.org/2000/svg">
<g clip-path="url(#clip0_1_2)">
<path d="M283.5 0H0V283.5H283.5V0Z" fill="#D91D52"/>
<g clip-path="url(#clip1_1_2)">
<path d="M206.66 86.29C208.6 84.65 210.33 83.5 211.22 83.45C216.54 83.18 213.87 91.44 221.18 91.06C225.43 90.84 227.15 87.51 227.22 83.56V60.61C227.14 59.08 226.66 57.97 225.9 57.17C225.07 56.45 223.94 56.02 222.4 56L198.31 56.04C194.32 56.01 191.11 57.98 191.07 62.24C191.01 69.56 199.15 66.54 199.11 71.86C199.11 72.73 198.09 74.43 196.61 76.37C181.85 64.05 162.85 56.63 142.11 56.63C95.11 56.63 57 94.73 57 141.74C57 188.75 95.11 226.85 142.11 226.85C189.11 226.85 227.22 188.74 227.22 141.74C227.22 120.55 219.46 101.19 206.66 86.3V86.29Z" fill="white"/>
<path d="M105.02 148.81V154.97H81.3V121.82H104.74V127.98H87.88V135.04H101.19V140.82H87.88V148.82H105.02V148.81Z" fill="#D91D52"/>
<path d="M130.73 154.96L124.15 143.64H118.75V154.96H112.17V121.81H123.77C131.92 121.81 136.79 126.21 136.79 132.89C136.79 137.44 134.56 140.75 130.54 142.41L138.12 154.96H130.73ZM118.75 137.77H124.62C128.27 137.77 129.97 135.4 129.97 132.89C129.97 130.38 128.22 127.96 124.62 127.96H118.75V137.76V137.77Z" fill="#D91D52"/>
<path d="M157.43 121.15C166.95 121.15 174.67 128.39 174.67 138.39C174.67 148.39 166.95 155.63 157.43 155.63C147.91 155.63 140.24 148.39 140.24 138.39C140.24 128.39 147.91 121.15 157.43 121.15ZM157.43 149.14C163.54 149.14 167.8 144.74 167.8 138.39C167.8 132.04 163.54 127.64 157.43 127.64C151.32 127.64 147.11 132 147.11 138.39C147.11 144.78 151.37 149.14 157.43 149.14Z" fill="#D91D52"/>
<path d="M190.72 143.5C190.72 143.5 188.87 146.58 188.31 147.43L183.01 154.96H175.15L186.75 137.96L175.81 121.81H183.72L188.83 129.43C189.3 130.19 190.68 132.65 190.72 132.65H190.77C190.77 132.65 192.14 130.19 192.62 129.43L197.73 121.81H205.69L194.7 137.96L206.3 154.96H198.44L193.14 147.43C192.57 146.58 190.82 143.5 190.77 143.5H190.72Z" fill="#D91D52"/>
</g>
</g>
<defs>
<clipPath id="clip0_1_2">
<rect width="283.5" height="283.5" fill="white"/>
</clipPath>
<clipPath id="clip1_1_2">
<rect width="170.22" height="170.85" fill="white" transform="translate(57 56)"/>
</clipPath>
</defs>
</svg>
