<svg width="284" height="284" viewBox="0 0 284 284" fill="none" xmlns="http://www.w3.org/2000/svg">
<g clip-path="url(#clip0_1_21)">
<path d="M283.5 0H0V283.5H283.5V0Z" fill="#D91D52"/>
<path d="M206.658 86.2964C208.598 84.6654 210.332 83.5095 211.218 83.4582C216.535 83.1885 213.863 91.4464 221.184 91.074C225.435 90.8557 227.143 87.5294 227.22 83.5737V60.6106C227.143 59.0823 226.655 57.965 225.897 57.1687C225.062 56.4495 223.932 56.0128 222.404 56L198.311 56.0385C194.316 56.0128 191.106 57.9778 191.067 62.2417C191.003 69.5621 199.145 66.544 199.107 71.861C199.107 72.7215 198.079 74.4296 196.602 76.3689C181.833 64.0397 162.838 56.6165 142.11 56.6165C95.1049 56.6165 57 94.7214 57 141.726C57 188.732 95.1049 226.836 142.11 226.836C189.115 226.836 227.22 188.732 227.22 141.726C227.22 120.536 219.463 101.181 206.658 86.2836V86.2964Z" fill="white"/>
<path d="M119.828 124.979V131.131H96.1067V97.9835H119.545V104.135H102.682V111.186H115.987V116.965H102.682V124.966H119.828V124.979Z" fill="#D91D52"/>
<path d="M145.539 131.131L138.963 119.816H133.569V131.131H126.994V97.9835H138.591C146.733 97.9835 151.614 102.389 151.614 109.067C151.614 113.613 149.392 116.927 145.359 118.584L152.937 131.131H145.552H145.539ZM133.557 113.947H139.426C143.073 113.947 144.781 111.584 144.781 109.067C144.781 106.55 143.035 104.148 139.426 104.148H133.557V113.947Z" fill="#D91D52"/>
<path d="M172.239 97.3285C181.756 97.3285 189.475 104.572 189.475 114.564C189.475 124.555 181.756 131.799 172.239 131.799C162.723 131.799 155.056 124.555 155.056 114.564C155.056 104.572 162.723 97.3285 172.239 97.3285ZM172.239 125.313C178.353 125.313 182.604 120.908 182.604 114.564C182.604 108.219 178.34 103.814 172.239 103.814C166.139 103.814 161.914 108.168 161.914 114.564C161.914 120.959 166.178 125.313 172.239 125.313Z" fill="#D91D52"/>
<path d="M110.504 163.47C110.504 163.47 108.654 166.552 108.089 167.399L102.785 174.925H94.9251L106.522 157.921L95.5801 141.778H103.491L108.603 149.407C109.078 150.164 110.452 152.63 110.491 152.63H110.542C110.542 152.63 111.916 150.164 112.391 149.407L117.503 141.778H125.453L114.472 157.921L126.069 174.925H118.209L112.905 167.399C112.34 166.552 110.581 163.47 110.542 163.47H110.491H110.504Z" fill="#D91D52"/>
<path d="M142.791 163.47C142.791 163.47 140.941 166.552 140.376 167.399L135.072 174.925H127.212L138.809 157.921L127.867 141.778H135.778L140.89 149.407C141.365 150.164 142.739 152.63 142.778 152.63H142.829C142.829 152.63 144.203 150.164 144.679 149.407L149.79 141.778H157.74L146.759 157.921L158.356 174.925H150.496L145.192 167.399C144.627 166.552 142.868 163.47 142.829 163.47H142.778H142.791Z" fill="#D91D52"/>
<path d="M175.078 163.47C175.078 163.47 173.228 166.552 172.663 167.399L167.359 174.925H159.499L171.096 157.921L160.154 141.778H168.066L173.177 149.407C173.652 150.164 175.026 152.63 175.065 152.63H175.116C175.116 152.63 176.49 150.164 176.966 149.407L182.077 141.778H190.027L179.046 157.921L190.643 174.925H182.783L177.479 167.399C176.914 166.552 175.155 163.47 175.116 163.47H175.065H175.078Z" fill="#D91D52"/>
</g>
<defs>
<clipPath id="clip0_1_21">
<rect width="283.5" height="283.5" fill="white"/>
</clipPath>
</defs>
</svg>
