<svg width="500" height="500" viewBox="0 0 500 500" fill="none" xmlns="http://www.w3.org/2000/svg">
<g clip-path="url(#clip0_8_17)">
<rect width="500" height="500" fill="white"/>
<rect width="500" height="500" fill="#0D7E57"/>
<path d="M103.602 223.27C116.441 223.27 129.28 223.27 142.508 223.27C142.508 227.343 142.508 231.416 142.508 235.613C133.948 235.613 125.389 235.613 116.57 235.613C116.57 238.159 116.57 240.705 116.57 243.328C123.525 243.328 130.479 243.328 137.645 243.328C137.645 247.402 137.645 251.475 137.645 255.672C130.69 255.672 123.736 255.672 116.57 255.672C116.57 258.218 116.57 260.764 116.57 263.387C125.13 263.387 133.689 263.387 142.508 263.387C142.508 266.951 142.508 270.515 142.508 274.188C129.669 274.188 116.83 274.188 103.602 274.188C103.602 265.022 103.602 255.857 103.602 246.414C100.392 246.414 97.182 246.414 93.875 246.414C93.875 242.341 93.875 238.267 93.875 234.07C97.0848 234.07 100.295 234.07 103.602 234.07C103.602 230.506 103.602 226.942 103.602 223.27Z" fill="#FEFEFE"/>
<path d="M395.905 225.102C400.987 228.364 402.568 230.319 405.125 235.613C405.817 240.257 405.805 244.817 405.733 249.5C405.752 250.725 405.771 251.95 405.79 253.213C405.752 260.428 405.18 265.264 400.262 271.102C392.872 275.845 386.238 276.949 377.566 275.73C370.753 273.283 366.456 271.049 362.977 264.93C362.211 259.811 362.225 254.759 362.267 249.596C362.235 248.217 362.203 246.838 362.169 245.417C362.174 238.819 362.32 235.08 366.035 229.369C374.662 221.78 385.22 221.456 395.905 225.102ZM378.934 235.71C374.53 240.115 375.082 243.527 375.135 249.5C375.118 251.409 375.101 253.319 375.084 255.286C375.455 260.374 375.455 260.374 378.966 263.363C382.495 265.401 382.495 265.401 386.786 263.772C390.369 262.149 390.369 262.149 392.156 260.301C392.403 256.77 392.516 253.231 392.562 249.693C392.603 247.756 392.645 245.818 392.688 243.822C392.602 238.805 392.602 238.805 390.003 235.698C385.841 233.199 383.231 233.695 378.934 235.71Z" fill="white"/>
<path d="M187.898 223.27C201.807 223.27 215.716 223.27 230.047 223.27C230.047 240.072 230.047 256.875 230.047 274.188C225.767 274.188 221.488 274.188 217.078 274.188C217.078 260.949 217.078 247.71 217.078 234.07C211.729 234.07 206.379 234.07 200.867 234.07C200.867 247.309 200.867 260.548 200.867 274.188C196.587 274.188 192.308 274.188 187.898 274.188C187.898 257.385 187.898 240.582 187.898 223.27Z" fill="white"/>
<path d="M281.922 223.27C288.04 223.238 294.159 223.206 300.463 223.173C302.395 223.159 304.327 223.145 306.317 223.131C308.582 223.125 308.582 223.125 310.893 223.119C312.446 223.111 314 223.103 315.6 223.094C319.207 223.27 319.207 223.27 320.828 224.812C320.828 227.868 320.828 230.923 320.828 234.07C312.269 234.07 303.709 234.07 294.891 234.07C294.891 237.125 294.891 240.18 294.891 243.328C301.845 243.328 308.8 243.328 315.965 243.328C315.965 246.892 315.965 250.457 315.965 254.129C309.01 254.129 302.056 254.129 294.891 254.129C294.891 257.693 294.891 261.257 294.891 264.93C303.45 264.93 312.009 264.93 320.828 264.93C320.828 267.985 320.828 271.04 320.828 274.187C307.989 274.187 295.15 274.187 281.922 274.187C281.922 257.385 281.922 240.582 281.922 223.27Z" fill="white"/>
<path d="M238.152 223.27C242.532 223.174 246.912 223.079 251.425 222.98C252.79 222.938 254.155 222.896 255.561 222.853C263.023 222.774 267.726 223.351 273.816 227.898C277.206 231.555 278.608 234.085 278.838 238.983C278.418 244.918 277.82 248.534 274.019 253.357C268.687 256.94 264.456 257.399 258.112 257.311C255.805 257.279 253.498 257.248 251.121 257.215C251.121 262.816 251.121 268.417 251.121 274.188C246.841 274.188 242.562 274.188 238.152 274.188C238.152 257.385 238.152 240.582 238.152 223.27ZM251.121 234.07C251.121 238.144 251.121 242.217 251.121 246.414C258.886 246.776 258.886 246.776 265.711 243.328C265.153 239.513 265.153 239.513 264.09 235.613C259.699 233.524 255.969 233.97 251.121 234.07Z" fill="white"/>
<path d="M361.355 227.898C360.14 231.659 360.14 231.659 358.113 235.613C353.783 237.674 351.441 237.12 346.664 236.192C342.035 235.127 342.035 235.127 339.211 237.313C336.154 241.435 336.393 244.499 336.431 249.5C336.419 251.123 336.406 252.746 336.393 254.418C336.684 258.751 336.684 258.751 339.205 261.675C342.041 263.859 342.041 263.859 346.766 263.001C351.665 261.898 351.665 261.898 356.492 260.301C359.025 263.869 359.025 263.869 361.355 268.016C360.821 269.543 360.286 271.071 359.734 272.645C351.304 276.274 343.232 276.945 334.303 274.573C328.107 271.385 324.684 268.225 322.449 261.844C322.209 257.803 322.075 253.831 322.044 249.789C322.011 248.71 321.977 247.631 321.943 246.52C321.885 239.136 323.09 234.103 327.313 227.898C339.609 221.146 349.184 222.224 361.355 227.898Z" fill="white"/>
<path d="M178.071 224.427C181.414 226.356 181.414 226.356 183.136 229.249C183.035 232.527 183.035 232.527 179.894 235.999C178.791 236.89 177.688 237.781 176.551 238.699C175.648 238.158 174.745 237.617 173.815 237.06C169.16 235.264 166.709 235.813 161.961 237.156C158.817 240.148 159.985 245.435 159.935 249.404C159.893 251.359 159.851 253.314 159.808 255.328C159.983 256.969 160.159 258.61 160.34 260.301C164.803 263.861 164.803 263.861 169.256 262.905C172.253 262.12 175.223 261.237 178.172 260.301C183.035 265.485 183.035 265.485 183.035 269.752C181.414 272.645 181.414 272.645 177.969 274.573C167.63 277.14 159.993 275.909 150.613 271.102C147.212 268.226 145.902 265.954 145.265 261.662C145.035 257.63 145.007 253.635 145.041 249.596C145.008 248.217 144.976 246.838 144.943 245.417C144.948 238.819 145.093 235.08 148.809 229.369C157.247 221.946 167.367 221.826 178.071 224.427Z" fill="white"/>
<path d="M103.602 223.27C116.441 223.27 129.28 223.27 142.508 223.27C142.508 227.343 142.508 231.416 142.508 235.613C133.948 235.613 125.389 235.613 116.57 235.613C116.57 238.668 116.57 241.723 116.57 244.871C109.081 245.38 101.591 245.889 93.875 246.414C93.875 242.341 93.875 238.267 93.875 234.07C97.0848 234.07 100.295 234.07 103.602 234.07C103.602 230.506 103.602 226.942 103.602 223.27Z" fill="white"/>
<path d="M93.875 234.07C101.364 234.07 108.854 234.07 116.57 234.07C116.57 237.635 116.57 241.199 116.57 244.871C109.081 245.38 101.591 245.889 93.875 246.414C93.875 242.341 93.875 238.267 93.875 234.07Z" fill="white"/>
<path d="M105.223 234.07C108.967 234.07 112.712 234.07 116.57 234.07C116.57 237.635 116.57 241.199 116.57 244.871C112.826 244.871 109.081 244.871 105.223 244.871C105.223 241.307 105.223 237.743 105.223 234.07Z" fill="white"/>
</g>
<defs>
<clipPath id="clip0_8_17">
<rect width="500" height="500" fill="white"/>
</clipPath>
</defs>
</svg>
