<?xml version="1.0" encoding="UTF-8"?>
<svg id="Vrstva_1" data-name="Vrstva 1" xmlns="http://www.w3.org/2000/svg" version="1.1" viewBox="0 0 1024 1024">
  <defs>
    <style>
      .cls-1 {
        fill: #131b4d;
      }

      .cls-1, .cls-2, .cls-3 {
        stroke-width: 0px;
      }

      .cls-2 {
        fill: #d50032;
      }

      .cls-3 {
        fill: #fff;
      }
    </style>
  </defs>
  <rect class="cls-1" width="1024" height="1024"/>
  <g>
    <g>
      <polygon class="cls-3" points="194.4 546.6 171.1 531.4 135.1 546.6 156.3 521.7 132.8 506.3 169.4 506.3 194.4 477 194.4 506.3 230.1 506.3 194.4 521.4 194.4 546.6"/>
      <path class="cls-3" d="M238.7,491.4c1.2,0,2.3-1.1,2.3-2.3v-9.9c0-1.2-1.1-2.3-2.3-2.3h-38.2v14.5h38.2Z"/>
      <path class="cls-3" d="M238.7,546.8c1.2,0,2.3-1.1,2.3-2.3v-9.9c0-1.2-1.1-2.3-2.3-2.3h-38.2v14.5h38.2Z"/>
      <path class="cls-3" d="M750.9,477h-47.7c-1.2,0-2.3,1.1-2.3,2.3v9.9c0,1.2,1.1,2.3,2.3,2.3h16.6v53.3c0,1.2,1.1,2.3,2.3,2.3h9.9c1.2,0,2.3-1.1,2.3-2.3v-53.4h16.6c1.2,0,2.3-1.1,2.3-2.3v-9.7c-.2-1.2-1.1-2.3-2.3-2.3Z"/>
      <path class="cls-3" d="M560.7,492.6c-1.1-3.1-2.8-5.9-5.1-8.2-2.2-2.3-4.9-4.2-8-5.5-3.1-1.4-6.8-2-10.6-2h-25.9c-1.2,0-2.3,1.1-2.3,2.3v65.3c0,1.2,1.1,2.3,2.3,2.3h9.9c1.2,0,2.3-1.1,2.3-2.3v-16.8h13.9c3.8,0,7.4-.6,10.6-2,3.1-1.4,5.9-3.2,8-5.4,2.2-2.3,3.8-4.9,5.1-8,1.1-2.9,1.7-6.8,1.7-10-.2-3.4-.6-6.6-1.8-9.7ZM547.3,506.9c-.5,1.4-1.2,2.6-2.2,3.5-.9.9-2,1.5-3.2,2.2-1.2.6-3.4.9-7.7.9h-11.1v-22.2h14.5c1.5,0,2.9.3,4.2.8,1.2.6,2.3,1.4,3.2,2.3s1.5,2.2,2,3.4c.5,1.4.8,2.9.8,4.5.3,1.7,0,3.2-.5,4.6Z"/>
      <path class="cls-3" d="M463.3,497.1c0,1.4.3,2.3.9,3.1.6.9,1.5,1.7,2.6,2.2,1.2.6,2.6,1.1,4.3,1.5,1.8.5,3.5.8,5.4,1.1,3.2.5,6.6,1.2,9.7,2,3.2.8,6.2,2,8.6,3.5,2.6,1.7,4.6,3.8,6,6.5,1.5,2.8,2.2,6.2,2,10.3-.2,4-1.2,7.4-3.1,10.2-1.8,2.6-4.2,4.8-6.9,6.5-2.8,1.5-5.4,2.8-8.8,3.4-3.2.6-6.9.8-10.2.6-8-.3-19.7-4.9-25.6-12.9-.5-.6-1.1-1.7.2-3.1,1.2-1.2,7.2-7.4,7.2-7.4,1.2-1.2,2.5-.3,2.9.3,3.4,5.1,10.3,8.8,15.7,9.1,2.8.2,3.2,0,4.9-.2,1.5-.2,3.1-.6,4.3-1.2,1.2-.6,2.3-1.2,3.1-2.3.8-.9,1.2-2.3,1.2-3.8.2-1.5-.3-2.8-1.1-3.7-.8-1.1-1.8-1.8-3.1-2.5-1.4-.8-3.1-1.2-4.8-1.5-1.8-.3-3.8-.6-5.7-.9-3.1-.5-6.2-1.1-9.1-1.8-3.1-.9-5.7-2.2-8-3.7-2.5-1.5-4.3-3.7-5.9-6.2-1.4-2.6-2.2-5.5-2-9.1.2-3.7,1.1-6.9,2.8-9.7,1.7-2.6,3.7-4.9,6.3-6.6,2.5-1.7,5.4-2.9,8.6-3.5,6.3-1.4,12.5-1.2,18.8.8,6.6,2.2,12,7.2,14.5,10.9.5.6.9,1.7,0,2.8s-6.9,6.9-6.9,6.9c-1.2,1.2-2.6.9-3.2-.2-3.7-5.4-8.3-7.7-13.7-8-5.4-.6-11.9.6-12.2,6.8Z"/>
      <path class="cls-3" d="M433.4,485.5c-3.2-3.1-7.1-5.4-11.2-7.1-4.3-1.5-8.8-2.5-13.6-2.5s-9.2.8-13.4,2.5c-4.3,1.5-8.2,4-11.4,7.1-3.2,3.1-5.9,6.9-7.9,11.4-1.8,4.5-2.9,9.5-2.9,15.1s.9,10.8,2.8,15.2,4.5,8.2,7.7,11.2,7.1,5.4,11.2,7.1c4.3,1.5,8.8,2.5,13.6,2.5s10-.9,14.3-2.6c4.3-1.7,8.2-4.2,11.4-7.4,3.1-3.2,5.5-6.9,7.4-11.4,1.7-4.3,2.6-9.2,2.6-14.5s-.9-10.8-2.9-15.1c-1.8-4.8-4.5-8.5-7.7-11.5ZM427.7,521.7c-1.1,2.6-2.6,4.9-4.5,6.8s-4.2,3.2-6.6,4.2c-2.5.9-5.2,1.4-8.2,1.4s-5.7-.5-8.2-1.4c-2.5-.9-4.6-2.3-6.5-4.2s-3.4-4.2-4.5-6.8c-1.1-2.8-1.7-6-1.7-9.5s.6-6.9,1.7-9.5c1.1-2.8,2.6-4.9,4.5-6.8s4-3.2,6.6-4.2c2.5-.9,5.2-1.4,8.2-1.4s5.5.5,8.2,1.4c2.5.9,4.6,2.3,6.6,4.2,1.8,1.8,3.4,4.2,4.5,6.8,1.1,2.8,1.7,5.9,1.7,9.5-.3,3.5-.8,6.8-1.8,9.5Z"/>
      <path class="cls-3" d="M627.7,485.5c-3.2-3.1-7.1-5.4-11.2-7.1-4.3-1.5-8.8-2.5-13.6-2.5s-9.2.8-13.4,2.5c-4.3,1.5-8.2,4-11.4,7.1-3.2,3.1-5.9,6.9-7.9,11.4-1.8,4.5-2.9,9.5-2.9,15.1s.9,10.8,2.8,15.2c1.8,4.5,4.5,8.2,7.7,11.2,3.2,3.1,7.1,5.4,11.2,7.1,4.3,1.5,8.8,2.5,13.6,2.5s10-.9,14.3-2.6c4.3-1.7,8.2-4.2,11.4-7.4,3.1-3.2,5.5-6.9,7.4-11.4,1.7-4.3,2.6-9.2,2.6-14.5s-.9-10.8-2.9-15.1c-1.8-4.8-4.5-8.5-7.7-11.5ZM622,521.7c-1.1,2.6-2.6,4.9-4.5,6.8-1.8,1.8-4.2,3.2-6.6,4.2-2.5.9-5.2,1.4-8.2,1.4s-5.7-.5-8.2-1.4c-2.5-.9-4.6-2.3-6.5-4.2s-3.4-4.2-4.5-6.8c-1.1-2.8-1.7-6-1.7-9.5s.6-6.9,1.7-9.5c1.1-2.8,2.6-4.9,4.5-6.8,1.8-1.8,4-3.2,6.6-4.2,2.5-.9,5.2-1.4,8.2-1.4s5.5.5,8.2,1.4c2.5.9,4.6,2.3,6.6,4.2,1.8,1.8,3.4,4.2,4.5,6.8,1.1,2.8,1.7,5.9,1.7,9.5-.2,3.5-.6,6.8-1.8,9.5Z"/>
      <path class="cls-3" d="M301.4,477h-9.9c-1.2,0-2.3,1.1-2.3,2.3v43.3c0,1.8-.3,3.4-.9,4.8s-1.4,2.5-2.5,3.4c-1.1.9-2.3,1.7-3.8,2.2-1.5.5-4.2.8-5.9.8s-4.5-.3-6.2-.8c-1.5-.5-2.9-1.2-4-2.2-1.1-.9-1.8-2-2.5-3.4s-.9-2.9-.9-4.8v-43.4c0-1.2-1.1-2.3-2.3-2.3h-9.9c-1.2,0-2.3,1.1-2.3,2.3v43.6c0,4,.8,7.5,2.2,10.6,1.5,3.1,3.5,5.7,6.2,7.9,2.6,2.2,5.5,3.8,8.9,4.9,3.2,1.1,6.9,1.5,10.6,1.5s7.2-.6,10.5-1.5c3.4-1.1,6.3-2.8,8.8-4.9s4.5-4.8,6-7.9c1.5-3.1,2.2-6.6,2.2-10.6v-43.6c.3-1.2-.8-2.2-2-2.2Z"/>
      <path class="cls-3" d="M370.4,543.1l-15.9-19.7s12.8-4.6,12.8-20.9-.6-6.6-1.7-9.7c-1.1-3.1-2.8-5.9-5.1-8.2-2.2-2.3-4.9-4.2-8-5.5-3.1-1.4-6.8-2-10.6-2h-25.9c-1.2,0-2.3,1.1-2.3,2.3v65.3c0,1.2,1.1,2.3,2.3,2.3h9.7c1.2,0,2.3-1.1,2.3-2.3v-53.3h14.5c1.5,0,2.9.3,4.2.8,1.2.6,2.3,1.4,3.2,2.3s1.5,2.2,2,3.4c.5,1.4.8,2.9.8,4.5s-.3,3.1-.8,4.5-1.2,2.6-2.2,3.5c-.9.9-2,1.5-3.2,2.2s-3.4.9-7.7.9h-6c-1.1,0-2.2,1.1-1.2,2.6l22.9,29.9c.5.6,1.1.9,1.8.9h12.5c2,0,3.2-1.7,1.5-3.7Z"/>
      <path class="cls-3" d="M701.8,543.1l-15.9-19.7s12.8-4.6,12.8-20.9-.6-6.6-1.7-9.7-2.8-5.9-5.1-8.2c-2.2-2.3-4.9-4.2-8-5.5-3.1-1.4-6.8-2-10.6-2h-25.9c-1.2,0-2.3,1.1-2.3,2.3v65.3c0,1.2,1.1,2.3,2.3,2.3h9.7c1.2,0,2.3-1.1,2.3-2.3v-53.3h14.5c1.5,0,2.9.3,4.2.8,1.2.6,2.3,1.4,3.2,2.3s1.5,2.2,2,3.4c.5,1.4.8,2.9.8,4.5s-.3,3.1-.8,4.5-1.2,2.6-2.2,3.5c-.9.9-2,1.5-3.2,2.2-1.2.6-3.4.9-7.7.9h-6c-1.2,0-2.2,1.1-1.2,2.6l22.6,29.9c.5.6,1.1.9,1.8.9h12.5c2.3,0,3.5-1.7,1.8-3.7Z"/>
    </g>
    <g>
      <path class="cls-2" d="M888.9,547.9h-107.3c-1.2,0-2.3-1.1-2.3-2.3v-67.3c0-1.2,1.1-2.3,2.3-2.3h107.3c1.2,0,2.3,1.1,2.3,2.3v67.3c0,1.4-1.1,2.3-2.3,2.3Z"/>
      <g>
        <path class="cls-3" d="M828.8,517.7h-6.5v-28.8c0-.9-.8-1.8-1.8-1.8h-8.6c-.9,0-2.3.6-2.8,1.4l-18.8,25.7c-.6.8-1.1,2.3-1.1,3.2v6.8c0,.9.8,1.8,1.8,1.8h21.9v8.9c0,.9.8,1.8,1.8,1.8h6c.9,0,1.8-.8,1.8-1.8v-8.9h6.5c.9,0,1.8-.8,1.8-1.8v-4.9c-.5-.8-1.2-1.5-2.2-1.5ZM812.8,517.7h-14.9l14.9-20.6v20.6Z"/>
        <path class="cls-3" d="M849.3,534.9c0,.9-.8,1.8-1.8,1.8h-6.2c-.9,0-1.8-.8-1.8-1.8v-46.2c0-.9.8-1.8,1.8-1.8h6.2c.9,0,1.8.8,1.8,1.8v20.8l18.8-21.1c.6-.8,2-1.4,2.9-1.4h9.1c.9,0,1.2.6.6,1.4l-18.5,20.3,18.8,26.6c.6.8.2,1.4-.8,1.4h-8.6c-.9,0-2.3-.6-2.8-1.4l-13.4-19.1-6.2,6.8v11.9Z"/>
      </g>
    </g>
  </g>
</svg>