<svg viewBox="0 0 72 72" fill="none" xmlns="http://www.w3.org/2000/svg">
  <rect width="72" height="72" fill="#0172F0"/>
  <path d="M19.3904 50.652V44.0629C19.3904 43.5479 19.3371 43.0861 19.1773 42.6599C19.0175 42.2692 18.8043 41.914 18.5202 41.6298C18.2538 41.3456 17.9341 41.1325 17.5789 40.9904C17.2059 40.8306 16.8152 40.7595 16.4067 40.7595C15.9982 40.7595 15.5897 40.8306 15.2345 40.9904C14.8793 41.1503 14.5596 41.3634 14.2755 41.6476C13.9913 41.9317 13.7782 42.2869 13.6184 42.6777C13.4585 43.1039 13.3342 43.5834 13.3342 44.0807V50.6698H10.457V43.9564C10.457 43.0861 10.6346 42.2692 10.9366 41.5232C11.2385 40.7951 11.6647 40.1379 12.2153 39.5874C12.7659 39.0546 13.4052 38.6283 14.1156 38.3442C14.8438 38.06 15.6075 37.9001 16.4245 37.9001C17.2414 37.9001 18.0051 38.0422 18.7333 38.3264C19.4615 38.6106 20.1008 39.0368 20.6336 39.5696C21.1842 40.1202 21.6105 40.7595 21.8946 41.5055C22.1965 42.2692 22.3209 43.0861 22.3209 43.9564V50.6698H19.3904V50.652Z" fill="white"/>
  <path d="M68.625 48.5178C68.8884 47.0803 67.9365 45.7015 66.499 45.4381C65.0614 45.1747 63.6826 46.1266 63.4192 47.5641C63.1559 49.0016 64.1077 50.3805 65.5453 50.6439C66.9828 50.9072 68.3616 49.9554 68.625 48.5178Z" fill="white"/>
  <path d="M34.9658 38.202V38.131H38.1094C38.5001 41.1502 39.4769 45.9277 40.3472 48.0945C41.2529 45.9277 42.3008 41.1502 42.6915 38.131H45.3023C45.7108 41.1502 46.7409 45.7324 47.6644 48.0945C48.5169 45.7324 49.4937 41.1502 49.9022 38.131H53.028V38.202C52.2998 42.9085 50.9323 47.757 49.7601 50.6342H45.8351C45.178 49.0535 44.3965 46.6381 43.988 44.4891C43.5973 46.6559 42.7448 49.1956 42.1587 50.6342H38.2337C36.8839 47.4906 35.3743 42.2158 34.9658 38.202Z" fill="white"/>
  <path d="M52.8861 50.1003V47.7026H53.0104C53.7208 47.9158 55.2482 48.2177 56.3494 48.2177H56.9887C58.0188 48.2177 58.7825 47.898 58.7825 46.8679C58.7825 46.0865 58.1076 45.7845 57.3617 45.5892L55.4258 45.0741C54.005 44.7189 52.8506 43.7243 52.8506 41.5931C52.8506 39.0889 54.9108 38.0588 57.415 38.0588H58.0543C58.8358 38.0588 60.3809 38.2542 61.0913 38.5206V40.9005H60.967C60.3276 40.7229 58.7825 40.5275 58.0721 40.5275H57.5038C56.598 40.5275 55.8165 40.7051 55.8165 41.6109C55.8165 42.3213 56.3494 42.6055 56.9887 42.7653L58.9246 43.2981C60.7894 43.7954 61.7662 44.8965 61.7662 46.8857C61.7662 49.6563 59.7771 50.6864 57.0065 50.6864H56.3671C55.3903 50.6686 53.7741 50.4022 52.8861 50.1003Z" fill="white"/>
  <path d="M28.9988 50.9712C25.5 50.9712 22.6406 48.0408 22.6406 44.4177C22.6406 40.8123 25.4823 37.8641 28.9988 37.8641C32.4976 37.8641 35.357 40.8123 35.357 44.4177C35.357 44.7551 35.3392 45.0926 35.2859 45.4122L35.2682 45.5188H25.3402L25.3757 45.6609C25.8907 47.2771 27.3471 48.3427 28.9988 48.3427C29.8868 48.3427 30.7393 48.023 31.4319 47.4369C31.4319 47.4369 31.6095 47.2771 31.6451 47.2593H34.7353L34.6465 47.4369C33.5454 49.6214 31.3787 50.9712 28.9988 50.9712ZM28.9988 40.4927C27.3471 40.4927 25.8907 41.576 25.3757 43.1922L25.3402 43.3343H32.6574L32.6219 43.1922C32.1068 41.576 30.6505 40.4927 28.9988 40.4927Z" fill="white"/>
  <path d="M40.5781 34.6141V27.1548C40.5781 26.6042 40.6492 26.0536 40.7735 25.5386C40.9511 24.8282 41.253 24.1888 41.6437 23.6382C42.141 22.9634 42.8159 22.4305 43.6329 22.0576C44.5919 21.6313 45.7464 21.4182 47.0961 21.4182H47.3448V23.0344H47.0961C46.1193 23.0344 45.2668 23.1587 44.5919 23.4251C43.9881 23.656 43.4908 23.9757 43.1178 24.3842C42.7982 24.7394 42.5495 25.1834 42.3897 25.6984C42.2653 26.1247 42.1943 26.622 42.1943 27.1548V34.6141H40.5781Z" fill="white"/>
  <path d="M54.9994 21.4542C51.3585 21.4542 48.3926 24.4912 48.3926 28.2209C48.3926 31.9505 51.3408 34.9875 54.9994 34.9875C58.658 34.9875 61.6062 31.9505 61.6062 28.2209C61.6062 24.4912 58.6402 21.4542 54.9994 21.4542ZM54.9994 33.1405C52.4597 33.1405 50.3817 30.9382 50.3817 28.2209C50.3817 25.5036 52.4597 23.3013 54.9994 23.3013C57.5391 23.3013 59.617 25.5036 59.617 28.2209C59.617 30.9382 57.5391 33.1405 54.9994 33.1405Z" fill="white"/>
  <path d="M21.2731 31.2219C20.3319 32.5716 18.8222 33.3709 17.2061 33.3709C14.8617 33.3709 12.8015 31.6659 12.3042 29.3038L12.2865 29.215H20.9535H23.3689H23.7063C23.7773 28.7532 23.7596 28.2381 23.7596 28.2381C23.7596 28.2204 23.7596 28.2026 23.7596 28.1849C23.7596 24.4552 20.8114 21.4182 17.1883 21.4182C13.5652 21.4182 10.6348 24.4552 10.6348 28.1849C10.6348 31.9145 13.583 34.9515 17.1883 34.9515C19.657 34.9515 21.8948 33.5485 23.0314 31.2751L23.1913 30.9377H21.4152C21.3619 31.062 21.3087 31.1508 21.2731 31.2219ZM12.2332 27.5455C12.5529 24.9703 14.7019 23.0344 17.2061 23.0344C19.728 23.0344 21.8592 24.9703 22.1789 27.5455L22.1967 27.6165H12.2154L12.2332 27.5455Z" fill="white"/>
  <path d="M31.965 34.97C31.2369 34.97 30.5442 34.8457 29.8871 34.5793C29.2477 34.3307 28.6794 33.9577 28.1999 33.4782C27.7203 32.9986 27.3296 32.4125 27.081 31.7732C26.8146 31.0983 26.708 30.3524 26.708 29.5709V21.7031H28.2176V29.4466C28.2176 30.0504 28.2887 30.6188 28.484 31.1338C28.6794 31.6133 28.9458 32.0573 29.301 32.4125C29.6384 32.7678 30.0469 33.0342 30.4909 33.2295C30.9527 33.4249 31.4322 33.5137 31.9473 33.5137C32.4623 33.5137 32.9596 33.4071 33.4214 33.2295C33.8831 33.0342 34.2739 32.7678 34.6291 32.4125C34.9843 32.0573 35.2507 31.6133 35.446 31.1338C35.6414 30.6188 35.7657 30.0504 35.7657 29.4466V21.7031H37.2754V29.5709C37.2754 30.3524 37.1155 31.0983 36.8313 31.7732C36.5649 32.4303 36.192 32.9986 35.6947 33.4782C35.2152 33.9577 34.6468 34.3307 34.0075 34.5793C33.4036 34.8457 32.6932 34.97 31.965 34.97Z" fill="white"/>
</svg>
