<svg width="284" height="284" viewBox="0 0 284 284" fill="none" xmlns="http://www.w3.org/2000/svg">
<g clip-path="url(#clip0_12_2)">
<rect width="283.5" height="283.5" fill="#CB0203"/>
<path d="M283.5 0H0V283.5H283.5V0Z" fill="#CB0203"/>
<path d="M112.344 115.669C114.024 114.163 116.849 113.229 118.763 114.852C122.125 117.104 123.187 121.82 121.378 125.392C113.698 124.68 108.585 131.613 102.971 135.721C106.531 143.857 112.087 151.059 117.398 158.155C117.97 159.906 115.705 160.42 114.538 161.038C110.324 162.369 105.714 162.474 101.395 161.517C98.4772 157.712 95.6175 153.86 92.6178 150.113C92.2559 149.95 91.5323 149.611 91.1587 149.448C86.3498 154.992 82.8482 161.797 81.0507 168.929C76.3235 169.466 71.2694 166.944 69.5886 162.346C74.2341 155.202 80.1753 149.004 84.9725 141.989C85.0309 141.569 85.1242 140.717 85.1826 140.297C82.2879 135.535 78.5412 131.368 75.1796 126.956C75.1562 126.547 75.1095 125.742 75.0862 125.333C80.1519 121.271 86.6883 119.754 92.9446 118.587C94.7188 121.75 96.3995 124.971 98.1037 128.169C103.251 124.481 107.523 119.754 112.344 115.669Z" fill="white"/>
<path d="M37.035 123.361C47.1898 123.337 57.3445 123.466 67.4993 123.291C67.6044 126.139 67.5927 128.987 67.5693 131.835C60.6361 132.126 53.6912 131.8 46.7579 132.056C46.7462 133.002 46.7229 134.916 46.7112 135.873H56.2357C56.2941 138.733 56.3057 141.581 56.2941 144.44C53.0959 144.464 49.8977 144.464 46.7112 144.475C46.7229 145.468 46.7579 147.452 46.7696 148.456C53.7145 148.491 60.6478 148.421 67.5927 148.491C67.581 151.327 67.5693 154.175 67.5693 157.023C57.3796 157.011 47.1898 157.046 37 157.023C37.07 145.806 37.0117 134.578 37.035 123.361Z" fill="white"/>
<path d="M125.778 131.776C125.778 128.928 125.778 126.08 125.79 123.232C135.186 123.232 144.594 123.209 154.002 123.244C153.955 126.092 153.955 128.928 153.978 131.776C150.768 131.765 147.57 131.776 144.36 131.811C144.349 140.227 144.349 148.631 144.372 157.046C141.104 157.035 137.836 157.023 134.567 156.976C134.719 148.584 134.579 140.192 134.637 131.8C131.684 131.765 128.731 131.776 125.778 131.776Z" fill="white"/>
<path d="M161.145 123.384C165.23 123.384 169.315 123.384 173.401 123.349C176.914 134.554 180.357 145.794 183.789 157.023C180.229 157.023 176.657 157.046 173.097 157C172.63 155.506 172.175 154 171.72 152.494C168.813 152.471 165.907 152.471 163.001 152.448C162.487 153.953 161.985 155.471 161.472 156.976C157.888 157.011 154.293 157.035 150.71 157C154.258 145.818 157.655 134.589 161.145 123.384ZM165.79 143.904C166.794 143.915 167.798 143.915 168.802 143.927C168.277 142.41 167.763 140.892 167.214 139.386C166.724 140.892 166.257 142.398 165.79 143.904Z" fill="white"/>
<path d="M185.33 127.714C185.808 124.785 188.96 123.407 191.644 123.372C198.647 123.034 205.651 123.326 212.666 123.209C212.701 126.045 212.677 128.893 212.572 131.73C206.631 131.87 200.678 131.73 194.726 131.823C194.772 132.803 194.842 134.788 194.889 135.768C199.57 135.908 204.25 135.651 208.931 135.908C212.292 136.142 215.549 138.803 215.747 142.293C215.934 145.794 216.132 149.378 215.444 152.833C214.825 155.657 211.744 156.988 209.094 156.918C201.04 157.175 192.975 156.965 184.921 157C184.944 154.163 184.944 151.339 184.909 148.514C191.913 148.421 198.904 148.467 205.908 148.467C205.954 147.452 206.059 145.421 206.106 144.417C201.297 144.289 196.465 144.662 191.679 144.16C188.528 143.658 184.886 141.487 185.014 137.892C184.898 134.507 184.711 131.064 185.33 127.714Z" fill="white"/>
<path d="M214.195 123.361C218.187 123.372 222.167 123.384 226.159 123.372C227.478 125.59 228.762 127.831 230.092 130.049C231.388 127.831 232.672 125.602 233.967 123.384C238.006 123.384 242.044 123.396 246.083 123.372C242.383 129.745 238.636 136.118 235.135 142.596C234.528 147.347 235.041 152.191 234.901 156.976C231.621 157.023 228.33 157.023 225.038 157.046C224.968 152.226 225.237 147.405 224.956 142.596C221.77 135.99 217.755 129.78 214.195 123.361Z" fill="white"/>
</g>
<defs>
<clipPath id="clip0_12_2">
<rect width="283.5" height="283.5" fill="white"/>
</clipPath>
</defs>
</svg>
