<svg width="500" height="500" viewBox="0 0 500 500" fill="none" xmlns="http://www.w3.org/2000/svg">
<g clip-path="url(#clip0_8_446)">
<rect width="500" height="500" fill="white"/>
<rect width="500" height="500" fill="black"/>
<path d="M188.677 198.803C191.708 201.597 193.993 205.091 194.701 209.621C194.98 212.474 195.098 215.689 193.713 218.165C193.639 218.262 193.564 218.36 193.488 218.461C193.366 218.461 193.244 218.461 193.118 218.461C193.118 218.604 193.118 218.747 193.118 218.894C192.484 219.35 191.985 219.381 191.249 219.369C191.054 219.368 190.859 219.366 190.659 219.365C190.164 219.328 190.164 219.328 189.795 219.111C185.673 218.753 181.54 222.398 178.368 225.129C177.978 225.461 177.582 225.784 177.181 226.097C176.7 226.448 176.7 226.448 176.407 226.813C176.084 227.193 175.72 227.457 175.34 227.751C174.783 228.199 174.258 228.693 173.73 229.186C173.621 229.287 173.512 229.388 173.399 229.492C172.866 229.987 172.341 230.489 171.825 231.011C171.329 231.478 171.329 231.478 170.96 231.478C170.96 231.621 170.96 231.764 170.96 231.912C170.838 231.912 170.716 231.912 170.591 231.912C170.591 232.055 170.591 232.198 170.591 232.346C170.476 232.363 170.362 232.381 170.244 232.4C169.725 232.615 169.723 232.864 169.483 233.43C169.207 233.764 169.207 233.764 168.886 234.079C168.709 234.255 168.709 234.255 168.529 234.435C168.405 234.555 168.282 234.676 168.155 234.8C167.289 235.654 166.465 236.52 165.688 237.488C165.42 237.769 165.42 237.769 165.051 237.769C164.623 238.705 164.418 239.521 164.497 240.59C164.787 241.445 165.186 242.2 165.605 242.976C165.778 243.319 165.951 243.663 166.124 244.007C166.261 244.271 166.261 244.271 166.4 244.54C166.637 244.999 166.873 245.46 167.107 245.921C167.747 247.183 168.39 248.439 169.067 249.675C170.562 252.415 170.562 252.415 170.775 253.607C170.897 253.607 171.019 253.607 171.145 253.607C171.669 254.404 171.883 254.75 171.883 255.776C172.005 255.776 172.127 255.776 172.252 255.776C172.313 256.063 172.374 256.349 172.437 256.644C172.548 256.649 172.658 256.653 172.772 256.658C173.321 256.934 173.358 257.326 173.572 257.949C173.883 258.799 174.307 259.579 174.709 260.374C175.207 261.373 175.207 261.373 175.207 261.851C175.329 261.851 175.451 261.851 175.576 261.851C175.85 262.297 175.85 262.297 176.165 262.909C176.883 264.273 177.63 265.615 178.476 266.876C178.715 267.275 178.715 267.275 178.715 267.709C178.837 267.709 178.959 267.709 179.085 267.709C179.207 268.21 179.328 268.711 179.454 269.227C179.576 269.227 179.698 269.227 179.823 269.227C180.051 269.542 180.051 269.542 180.305 269.981C180.399 270.14 180.493 270.3 180.589 270.464C180.687 270.633 180.785 270.802 180.885 270.977C181.523 272.075 182.163 273.125 182.927 274.107C183.147 274.434 183.147 274.434 183.332 275.085C183.442 275.215 183.553 275.345 183.666 275.478C184.07 275.953 184.07 275.953 184.428 276.59C184.815 277.266 185.237 277.772 185.732 278.339C186.656 279.534 186.656 279.534 186.656 280.075C186.777 280.075 186.899 280.075 187.025 280.075C187.258 280.623 187.228 281.011 187.221 281.621C187.219 281.917 187.219 281.917 187.216 282.219C187.213 282.447 187.213 282.447 187.21 282.679C187.027 282.75 186.844 282.822 186.656 282.895C186.595 283.11 186.534 283.325 186.471 283.546C186.349 283.546 186.227 283.546 186.102 283.546C186.102 283.69 186.102 283.833 186.102 283.98C185.868 284.126 185.633 284.271 185.398 284.414C185.267 284.495 185.136 284.575 185.002 284.658C184.624 284.848 184.624 284.848 184.07 284.848C184.07 284.991 184.07 285.134 184.07 285.282C177.972 288.107 169.273 290.118 162.924 287.277C161.3 286.357 160.259 284.898 159.327 283.112C159.327 282.969 159.327 282.826 159.327 282.679C159.205 282.679 159.083 282.679 158.957 282.679C158.737 282.383 158.737 282.383 158.484 281.96C157.686 280.666 156.859 279.327 155.884 278.208C155.61 277.877 155.447 277.554 155.264 277.146C154.999 276.582 154.738 276.183 154.341 275.736C153.602 274.521 153.602 274.521 153.602 274C153.48 274 153.359 274 153.233 274C153.057 273.704 152.882 273.405 152.717 273.099C152.475 272.664 152.214 272.255 151.944 271.843C151.847 271.694 151.75 271.546 151.651 271.393C151.45 271.086 151.248 270.78 151.046 270.474C150.95 270.326 150.854 270.178 150.755 270.026C150.668 269.893 150.581 269.761 150.491 269.624C150.265 269.203 150.173 268.846 150.094 268.36C149.972 268.36 149.85 268.36 149.725 268.36C149.444 267.918 149.184 267.478 148.928 267.017C148.394 266.058 147.851 265.25 147.139 264.455C147.048 264.325 146.957 264.195 146.862 264.061C146.587 263.761 146.587 263.761 146.158 263.727C145.16 263.881 144.591 265.092 144 265.973C143.691 266.485 143.396 267.001 143.112 267.533C142.892 267.926 142.892 267.926 142.523 268.36C142.404 268.808 142.404 268.808 142.338 269.227C142.216 269.227 142.095 269.227 141.969 269.227C141.908 269.514 141.847 269.8 141.784 270.095C141.662 270.095 141.541 270.095 141.415 270.095C141.37 270.244 141.324 270.393 141.277 270.547C141.007 271.287 140.661 271.952 140.296 272.631C139.815 273.516 139.815 273.516 139.384 274.434C139.262 274.434 139.14 274.434 139.015 274.434C138.967 274.62 138.92 274.805 138.872 274.996C138.632 275.778 138.331 276.442 137.976 277.16C137.91 277.293 137.845 277.426 137.778 277.563C137.358 278.411 136.915 279.237 136.464 280.062C134.639 283.509 133.345 287.33 132.182 291.14C132.106 291.385 132.029 291.63 131.95 291.882C131.395 293.67 130.952 295.462 130.54 297.3C130.115 299.073 129.795 299.88 128.489 300.903C127.957 300.964 127.453 300.995 126.92 300.997C126.766 300.998 126.613 300.999 126.455 301C124.718 300.963 123.12 300.425 121.472 299.818C121.472 299.675 121.472 299.531 121.472 299.384C121.289 299.366 121.107 299.348 120.918 299.33C120.087 299.19 119.428 298.777 118.702 298.299C118.577 298.217 118.451 298.134 118.322 298.049C118.016 297.846 117.713 297.639 117.41 297.431C117.41 297.288 117.41 297.145 117.41 296.997C117.302 296.976 117.195 296.954 117.085 296.931C116.595 296.753 116.346 296.506 115.967 296.102C115.776 295.899 115.776 295.899 115.581 295.692C115.099 295.156 114.63 294.605 114.168 294.043C113.907 293.72 113.907 293.72 113.532 293.526C113.398 293.097 113.274 292.663 113.163 292.224C113.041 292.224 112.919 292.224 112.793 292.224C112.384 291.346 112.14 290.619 112.055 289.621C112.032 289.361 112.009 289.102 111.986 288.835C112.012 286.79 113.059 285.091 114.086 283.546C114.271 283.262 114.457 282.977 114.641 282.692C114.936 282.24 115.232 281.788 115.527 281.337C116.065 280.512 116.598 279.684 117.122 278.847C117.223 278.687 117.324 278.526 117.427 278.361C117.621 278.053 117.813 277.744 118.004 277.434C118.228 277.077 118.464 276.731 118.702 276.387C118.824 276.387 118.946 276.387 119.072 276.387C119.117 276.271 119.163 276.154 119.21 276.034C119.718 274.902 120.378 273.896 121.045 272.889C121.539 272.144 122.029 271.397 122.503 270.635C122.578 270.515 122.653 270.394 122.731 270.27C122.939 269.936 123.146 269.6 123.353 269.264C123.464 269.109 123.574 268.953 123.688 268.794C123.81 268.794 123.932 268.794 124.057 268.794C124.057 268.65 124.057 268.507 124.057 268.36C124.156 268.248 124.255 268.136 124.357 268.021C124.743 267.556 125.007 267.138 125.304 266.597C126.347 264.717 127.586 262.862 128.966 261.304C129.311 260.881 129.522 260.388 129.763 259.877C130.183 259.025 130.65 258.223 131.249 257.532C131.639 257.065 131.939 256.589 132.252 256.048C132.673 255.329 133.095 254.611 133.533 253.905C133.619 253.764 133.706 253.622 133.796 253.476C133.911 253.326 133.911 253.326 134.029 253.173C134.151 253.173 134.273 253.173 134.398 253.173C134.444 253.02 134.49 252.867 134.537 252.709C134.797 252.008 135.123 251.445 135.506 250.827C135.636 250.615 135.765 250.404 135.898 250.186C136.07 249.946 136.07 249.946 136.245 249.702C136.367 249.702 136.488 249.702 136.614 249.702C136.775 248.031 136.296 246.953 135.506 245.58C135.139 245.06 134.757 244.565 134.364 244.073C133.904 243.461 133.619 242.827 133.29 242.108C132.847 241.305 132.498 240.692 131.813 240.156C131.594 239.478 131.594 239.478 131.444 238.854C131.322 238.854 131.2 238.854 131.074 238.854C130.896 238.555 130.72 238.255 130.554 237.947C130.329 237.541 130.089 237.157 129.839 236.772C129.41 236.103 128.986 235.431 128.567 234.753C128.456 234.574 128.344 234.394 128.229 234.21C127.999 233.838 127.769 233.466 127.54 233.094C127.429 232.917 127.319 232.739 127.205 232.557C127.106 232.396 127.007 232.236 126.904 232.07C126.661 231.668 126.661 231.668 126.273 231.478C126.212 231.263 126.151 231.048 126.089 230.827C125.909 230.604 125.724 230.388 125.535 230.176C125.334 229.891 125.138 229.602 124.946 229.308C124.848 229.161 124.75 229.013 124.65 228.861C124.427 228.44 124.427 228.44 124.427 227.79C124.305 227.79 124.183 227.79 124.057 227.79C123.739 227.35 123.441 226.908 123.146 226.447C122.336 225.207 121.5 224.002 120.631 222.819C119.994 221.948 119.714 221.431 119.721 220.246C119.949 219.013 120.983 218.053 121.842 217.376C121.963 217.376 122.085 217.376 122.211 217.376C122.211 217.233 122.211 217.089 122.211 216.942C122.502 216.677 122.502 216.677 122.892 216.4C123.018 216.308 123.145 216.216 123.275 216.122C123.688 215.857 123.688 215.857 124.148 215.644C124.62 215.419 125.013 215.148 125.442 214.827C127.258 213.534 129.161 212.669 131.162 211.868C132.135 211.478 133.09 211.058 134.04 210.596C135.135 210.075 136.205 209.67 137.353 209.349C137.632 209.268 137.911 209.188 138.191 209.107C139.025 208.868 139.86 208.639 140.696 208.411C141.234 208.263 141.772 208.108 142.309 207.953C144.512 207.334 146.537 207.03 148.801 207.179C148.801 207.322 148.801 207.465 148.801 207.613C148.923 207.613 149.045 207.613 149.171 207.613C149.507 208.181 149.742 208.747 149.969 209.386C150.294 210.286 150.688 211.135 151.086 211.993C151.688 213.302 152.22 214.61 152.666 216.005C152.869 216.521 153.079 216.765 153.418 217.159C153.62 217.651 153.62 217.651 153.798 218.203C153.861 218.394 153.923 218.585 153.987 218.782C154.177 219.394 154.358 220.008 154.526 220.63C154.647 220.63 154.769 220.63 154.895 220.63C155.005 220.873 155.005 220.873 155.118 221.122C155.216 221.335 155.313 221.549 155.414 221.769C155.511 221.981 155.607 222.192 155.706 222.41C155.964 222.937 156.236 223.409 156.557 223.884C157.408 223.779 157.878 223.569 158.53 222.922C158.689 222.766 158.847 222.61 159.011 222.449C159.699 221.738 160.375 221.011 161.048 220.281C161.626 219.674 162.231 219.124 162.848 218.573C163.314 218.142 163.72 217.664 164.128 217.159C164.428 216.789 164.735 216.426 165.051 216.074C165.173 216.074 165.295 216.074 165.42 216.074C165.42 215.931 165.42 215.788 165.42 215.64C165.542 215.64 165.664 215.64 165.79 215.64C165.85 215.425 165.911 215.211 165.974 214.989C166.262 214.652 166.262 214.652 166.63 214.293C167.431 213.494 168.199 212.662 168.963 211.816C169.09 211.677 169.216 211.538 169.347 211.394C169.871 210.816 170.391 210.234 170.899 209.636C171.341 209.118 171.798 208.629 172.264 208.142C172.717 207.668 173.159 207.199 173.579 206.685C173.914 206.311 173.914 206.311 174.284 206.311C174.284 206.168 174.284 206.025 174.284 205.877C174.587 205.51 174.587 205.51 174.988 205.104C175.184 204.903 175.184 204.903 175.384 204.697C175.761 204.359 175.761 204.359 176.315 204.142C176.315 203.999 176.315 203.855 176.315 203.708C176.554 203.417 176.554 203.417 176.903 203.07C177.037 202.937 177.171 202.804 177.308 202.667C177.468 202.509 177.628 202.352 177.792 202.189C177.99 201.989 178.188 201.789 178.386 201.589C178.596 201.378 178.805 201.166 179.015 200.955C179.115 200.855 179.214 200.754 179.316 200.651C180.428 199.54 181.413 198.796 182.847 198.433C182.992 198.396 183.136 198.36 183.285 198.322C184.975 197.933 187.148 197.703 188.677 198.803Z" fill="white"/>
<path d="M409.846 220.133C409.94 220.218 410.033 220.302 410.129 220.389C410.456 220.684 410.789 220.97 411.132 221.244C411.508 221.553 411.806 221.857 412.116 222.23C412.491 222.679 412.871 223.113 413.27 223.54C413.432 223.714 413.593 223.887 413.76 224.066C413.913 224.227 414.065 224.389 414.223 224.555C414.597 225.041 414.708 225.33 414.766 225.935C414.649 226.03 414.532 226.124 414.411 226.222C413.284 227.143 412.208 228.102 411.145 229.098C410.329 229.862 409.49 230.596 408.645 231.327C407.475 232.338 406.319 233.359 405.186 234.412C404.689 234.871 404.184 235.319 403.677 235.766C403.265 236.132 402.86 236.506 402.455 236.879C401.661 237.607 400.837 238.29 400.004 238.971C399.62 239.297 399.269 239.63 398.922 239.995C398.778 240.141 398.634 240.287 398.486 240.437C398.367 240.437 398.249 240.437 398.128 240.437C398.128 234.933 398.128 229.43 398.128 223.76C395.707 223.76 393.286 223.76 390.792 223.76C390.792 237.638 390.792 251.516 390.792 265.815C393.213 265.815 395.634 265.815 398.128 265.815C398.123 265.292 398.118 264.77 398.114 264.232C398.099 262.506 398.089 260.78 398.081 259.055C398.077 258.008 398.07 256.962 398.06 255.916C398.05 254.906 398.045 253.897 398.043 252.887C398.041 252.502 398.038 252.117 398.033 251.731C398.027 251.192 398.026 250.653 398.026 250.113C398.021 249.874 398.021 249.874 398.016 249.63C398.023 248.823 398.052 248.511 398.559 247.853C399.022 247.506 399.022 247.506 399.38 247.506C399.38 247.387 399.38 247.267 399.38 247.144C399.917 247.144 399.917 247.144 400.199 247.41C400.298 247.532 400.397 247.653 400.498 247.778C400.608 247.91 400.717 248.042 400.83 248.178C400.942 248.315 401.054 248.453 401.169 248.594C401.384 248.848 401.601 249.101 401.818 249.353C401.912 249.464 402.007 249.575 402.104 249.689C402.494 250.125 402.903 250.537 403.316 250.95C405.845 253.484 405.845 253.484 406.768 254.59C407.151 255.027 407.558 255.434 407.968 255.845C408.827 256.706 409.619 257.607 410.398 258.541C410.489 258.65 410.58 258.758 410.674 258.87C410.752 258.964 410.83 259.058 410.91 259.155C411.285 259.58 411.683 259.976 412.083 260.377C412.553 260.848 413.022 261.32 413.492 261.793C413.614 261.915 413.736 262.037 413.861 262.163C414.476 262.782 415.079 263.411 415.662 264.061C415.817 264.233 415.817 264.233 415.975 264.409C416.198 264.727 416.198 264.727 416.198 265.271C416.079 265.271 415.961 265.271 415.84 265.271C415.796 265.398 415.753 265.526 415.708 265.657C414.78 267.789 412.771 269.602 411.188 271.253C411.084 271.362 410.979 271.472 410.871 271.584C409.169 273.342 407.16 274.674 405.105 275.966C404.959 276.062 404.813 276.159 404.663 276.258C403.228 277.183 401.658 277.835 400.096 278.504C399.896 278.59 399.696 278.676 399.49 278.766C394.959 280.633 390.27 280.986 385.425 280.86C385.268 280.857 385.112 280.854 384.95 280.852C382.892 280.811 380.973 280.488 378.984 279.954C378.785 279.9 378.785 279.9 378.582 279.846C376.932 279.395 375.359 278.85 373.796 278.141C373.604 278.061 373.604 278.061 373.407 277.98C367.698 275.577 362.828 271.068 359.304 265.996C359.186 265.826 359.068 265.656 358.946 265.48C358.255 264.429 357.675 263.315 357.09 262.201C357.011 262.05 356.932 261.9 356.851 261.745C356.777 261.602 356.704 261.459 356.628 261.312C356.562 261.184 356.496 261.056 356.428 260.925C356.263 260.558 356.263 260.558 356.084 259.833C361.87 259.833 367.656 259.833 373.617 259.833C373.617 261.807 373.617 263.781 373.617 265.815C376.038 265.815 378.458 265.815 380.952 265.815C380.952 263.841 380.952 261.867 380.952 259.833C382.665 259.833 384.377 259.833 386.141 259.833C386.141 257.918 386.141 256.004 386.141 254.032C384.429 254.032 382.716 254.032 380.952 254.032C380.893 243.145 380.834 232.258 380.773 221.041C379.599 222.375 379.599 222.375 378.515 223.76C377.804 224.713 377.065 225.639 376.312 226.558C375.465 227.593 374.633 228.637 373.818 229.697C372.991 230.77 372.141 231.824 371.293 232.879C370.631 233.702 369.977 234.531 369.323 235.361C369.213 235.501 369.102 235.641 368.988 235.785C368.393 236.536 367.802 237.289 367.218 238.049C366.281 239.264 365.321 240.458 364.35 241.646C363.598 242.568 362.863 243.502 362.137 244.445C361.648 245.08 361.151 245.707 360.646 246.328C359.952 247.182 359.277 248.05 358.604 248.921C357.972 249.74 357.324 250.544 356.67 251.346C356.366 251.728 356.07 252.112 355.778 252.504C355.697 252.613 355.615 252.722 355.532 252.834C355.373 253.048 355.216 253.262 355.059 253.477C354.872 253.729 354.674 253.972 354.474 254.213C354.356 254.213 354.238 254.213 354.116 254.213C352.595 247.768 352.938 240.264 355.368 234.092C355.434 233.912 355.499 233.733 355.566 233.547C357.065 229.611 359.309 226.083 362.167 223.035C362.369 222.794 362.571 222.553 362.771 222.31C366.553 217.923 372.057 214.653 377.553 213.065C377.727 213.014 377.902 212.963 378.081 212.91C379.146 212.62 380.224 212.415 381.31 212.227C381.437 212.204 381.565 212.182 381.696 212.159C391.803 210.483 402.127 213.218 409.846 220.133Z" fill="#FDFDFD"/>
<path d="M273.73 226.164C273.971 226.164 274.212 226.164 274.461 226.164C275.118 226.164 275.775 226.165 276.433 226.167C277.121 226.168 277.81 226.168 278.498 226.169C279.8 226.169 281.102 226.171 282.403 226.173C284.164 226.176 285.925 226.177 287.685 226.178C290.456 226.18 293.227 226.185 295.997 226.188C295.997 230.321 295.997 234.454 295.997 238.712C294.432 238.715 292.867 238.718 291.254 238.721C290.138 238.725 289.023 238.731 287.907 238.737C286.461 238.746 285.014 238.752 283.568 238.753C282.301 238.754 281.034 238.76 279.767 238.77C279.283 238.772 278.799 238.773 278.315 238.772C277.638 238.771 276.962 238.777 276.285 238.784C276.084 238.782 275.882 238.78 275.674 238.778C275.173 238.787 274.713 238.802 274.224 238.924C273.649 239.643 273.598 240.247 273.612 241.206C273.613 241.41 273.614 241.615 273.615 241.826C273.661 242.42 273.743 242.952 273.858 243.531C273.892 243.702 273.926 243.873 273.96 244.049C273.986 244.179 274.012 244.309 274.039 244.442C274.248 244.442 274.456 244.441 274.671 244.44C276.642 244.431 278.613 244.425 280.584 244.42C281.597 244.418 282.61 244.415 283.623 244.41C284.602 244.406 285.58 244.403 286.559 244.402C286.932 244.401 287.304 244.4 287.676 244.398C288.2 244.395 288.724 244.394 289.247 244.394C289.4 244.393 289.552 244.391 289.708 244.39C291.218 244.396 292.634 244.737 294.06 245.305C294.337 245.414 294.337 245.414 294.619 245.525C295.075 245.716 295.075 245.716 295.444 245.928C295.444 246.068 295.444 246.208 295.444 246.353C295.577 246.405 295.711 246.457 295.848 246.511C297.347 247.281 298.589 248.933 299.319 250.598C299.967 252.622 300.165 254.504 300.148 256.649C300.149 256.934 300.149 257.218 300.149 257.503C300.15 258.094 300.147 258.685 300.143 259.276C300.138 260.027 300.138 260.777 300.141 261.527C300.142 262.113 300.14 262.699 300.138 263.285C300.137 263.693 300.138 264.102 300.139 264.511C300.112 267.404 299.617 270.564 297.824 272.727C295.256 275.444 291.658 275.253 288.389 275.244C288.094 275.244 287.799 275.244 287.504 275.244C286.711 275.244 285.917 275.243 285.124 275.241C284.292 275.24 283.46 275.24 282.628 275.24C281.056 275.239 279.483 275.237 277.911 275.235C276.12 275.233 274.329 275.232 272.537 275.23C268.855 275.228 265.173 275.224 261.491 275.22C261.491 271.157 261.491 267.095 261.491 262.909C269.956 262.839 278.42 262.769 287.14 262.697C287.639 261.55 287.785 260.914 287.775 259.698C287.778 259.549 287.782 259.4 287.786 259.247C287.785 258.568 287.752 258.121 287.408 257.56C286.796 257.043 286.264 257.061 285.533 257.072C285.39 257.071 285.247 257.07 285.1 257.069C284.791 257.067 284.481 257.067 284.171 257.068C283.678 257.071 283.185 257.069 282.692 257.065C281.641 257.058 280.591 257.058 279.54 257.059C278.33 257.058 277.12 257.055 275.909 257.047C275.429 257.044 274.949 257.046 274.468 257.048C272.483 257.045 270.632 256.784 268.688 256.329C268.4 256.278 268.112 256.229 267.823 256.183C266.012 255.703 263.814 254.075 262.772 252.309C261.172 249.244 261.168 246.421 261.197 242.922C261.203 242.087 261.201 241.254 261.197 240.42C261.201 231.73 261.201 231.73 263.465 228.994C264.731 227.662 265.984 227.11 267.65 226.785C267.815 226.75 267.98 226.716 268.15 226.68C270.023 226.293 271.829 226.158 273.73 226.164Z" fill="#FDFDFD"/>
<path d="M78 226.164C90.3094 226.164 102.619 226.164 115.301 226.164C115.301 230.319 115.301 234.475 115.301 238.756C106.857 238.756 98.4129 238.756 89.7129 238.756C89.7129 240.657 89.7129 242.559 89.7129 244.518C93.5782 244.518 97.4435 244.518 101.426 244.518C101.426 248.603 101.426 252.688 101.426 256.896C97.5606 256.896 93.6953 256.896 89.7129 256.896C89.7129 258.868 89.7129 260.84 89.7129 262.872C98.1571 262.872 106.601 262.872 115.301 262.872C115.301 266.957 115.301 271.041 115.301 275.25C102.992 275.25 90.6824 275.25 78 275.25C78 259.052 78 242.853 78 226.164Z" fill="white"/>
<path d="M232.379 226.179C232.525 226.179 232.672 226.18 232.823 226.181C233.053 226.181 233.053 226.181 233.288 226.181C233.798 226.181 234.308 226.183 234.817 226.184C235.17 226.185 235.522 226.185 235.875 226.185C236.804 226.186 237.734 226.188 238.664 226.19C239.612 226.193 240.56 226.194 241.508 226.195C243.369 226.197 245.23 226.201 247.091 226.205C247.183 226.472 247.274 226.739 247.364 227.006C247.44 227.229 247.44 227.229 247.518 227.457C247.651 227.883 247.754 228.303 247.845 228.742C248.056 229.746 248.367 230.701 248.679 231.669C249.222 233.386 249.696 235.109 250.125 236.867C250.62 238.845 251.159 240.799 251.748 242.744C252.241 244.373 252.647 245.999 252.999 247.673C253.187 248.513 253.445 249.283 253.726 250.088C253.818 250.498 253.909 250.909 253.998 251.32C254.183 252.133 254.407 252.931 254.628 253.732C254.678 253.914 254.729 254.096 254.78 254.283C254.942 254.871 255.104 255.458 255.267 256.045C255.379 256.452 255.491 256.86 255.604 257.267C256.247 259.597 256.899 261.923 257.564 264.245C260.361 274.025 260.361 274.025 260.361 275.25C255.857 275.25 251.353 275.25 246.712 275.25C246.087 273.139 245.461 271.028 244.817 268.853C241.126 268.853 237.435 268.853 233.632 268.853C233.006 270.964 232.381 273.075 231.736 275.25C227.232 275.25 222.728 275.25 218.087 275.25C218.406 273.094 218.928 271.033 219.617 268.991C219.798 268.412 219.929 267.838 220.054 267.24C220.286 266.141 220.583 265.083 220.907 264.015C221.376 262.465 221.803 260.907 222.206 259.333C222.397 258.589 222.598 257.848 222.802 257.108C223.08 256.096 223.352 255.082 223.619 254.067C223.689 253.801 223.76 253.534 223.832 253.26C223.975 252.719 224.117 252.177 224.259 251.636C224.681 250.039 225.141 248.472 225.656 246.909C225.848 246.285 225.999 245.667 226.132 245.023C226.39 243.789 226.737 242.602 227.107 241.406C227.474 240.205 227.795 238.991 228.11 237.773C228.631 235.769 229.169 233.772 229.708 231.775C229.83 231.325 229.95 230.876 230.071 230.426C230.247 229.77 230.424 229.114 230.602 228.457C230.683 228.154 230.683 228.154 230.765 227.845C230.816 227.66 230.866 227.476 230.917 227.285C230.961 227.123 231.005 226.96 231.05 226.792C231.295 226.011 231.706 226.18 232.379 226.179Z" fill="#FDFDFD"/>
<path d="M298.492 224.884C300.325 224.818 302.159 224.768 303.993 224.737C304.845 224.722 305.697 224.702 306.548 224.67C307.371 224.639 308.193 224.622 309.016 224.614C309.329 224.609 309.642 224.599 309.955 224.583C310.932 224.537 311.804 224.538 312.746 224.884C313.449 225.743 313.787 226.606 314.171 227.731C314.346 228.135 314.524 228.537 314.706 228.936C314.79 229.129 314.874 229.322 314.961 229.521C315.394 230.479 315.868 231.405 316.339 232.336C316.7 233.055 317.043 233.782 317.378 234.52C318.363 232.939 319.152 231.239 319.941 229.506C320.112 229.132 320.287 228.761 320.465 228.392C320.776 227.732 320.776 227.732 321.015 227C321.752 225.098 321.752 225.098 322.513 224.726C323.494 224.478 324.491 224.558 325.486 224.606C325.807 224.612 326.129 224.616 326.45 224.619C327.293 224.629 328.135 224.657 328.977 224.689C329.839 224.718 330.7 224.731 331.561 224.745C333.248 224.776 334.935 224.824 336.622 224.884C336.362 225.7 336.068 226.452 335.721 227.218C335.613 227.458 335.504 227.697 335.392 227.944C335.275 228.202 335.158 228.459 335.04 228.717C334.919 228.984 334.798 229.25 334.677 229.517C333.701 231.665 332.711 233.802 331.714 235.935C331.447 236.506 331.181 237.078 330.916 237.65C330.039 239.54 329.159 241.426 328.27 243.306C327.689 244.535 327.118 245.767 326.57 247.017C326.187 247.886 325.798 248.751 325.408 249.616C325.337 249.772 325.267 249.929 325.194 250.09C325.123 250.247 325.053 250.404 324.98 250.566C324.91 250.724 324.841 250.882 324.769 251.046C324.506 251.6 324.506 251.6 324.192 252.105C322.935 254.279 323.082 256.512 323.098 259.083C323.096 259.551 323.094 260.018 323.091 260.486C323.085 261.708 323.087 262.931 323.09 264.153C323.092 265.625 323.086 267.096 323.08 268.567C323.073 270.795 323.078 273.022 323.08 275.25C319.258 275.25 315.436 275.25 311.499 275.25C311.508 273.702 311.518 272.153 311.529 270.558C311.53 269.569 311.532 268.58 311.531 267.591C311.53 266.026 311.531 264.461 311.544 262.896C311.555 261.632 311.557 260.369 311.551 259.105C311.551 258.626 311.554 258.148 311.561 257.669C311.604 254.352 311.157 252.174 309.613 249.438C309.263 248.793 308.964 248.12 308.664 247.439C308.383 246.807 308.07 246.201 307.757 245.592C307.253 244.595 306.793 243.597 306.385 242.536C305.747 240.963 305.011 239.448 304.294 237.927C304.207 237.745 304.121 237.562 304.033 237.374C303.599 236.454 303.161 235.538 302.712 234.629C302.375 233.945 302.055 233.253 301.744 232.55C301.651 232.338 301.557 232.127 301.461 231.909C301.162 231.229 300.863 230.547 300.566 229.865C300.466 229.638 300.367 229.411 300.264 229.176C300.059 228.707 299.855 228.238 299.65 227.768C299.552 227.544 299.453 227.319 299.352 227.087C299.263 226.885 299.175 226.682 299.084 226.473C298.86 225.958 298.86 225.958 298.492 225.541C298.492 225.325 298.492 225.108 298.492 224.884Z" fill="#FDFDFD"/>
<path d="M188.246 226.164C199.734 226.164 211.223 226.164 223.06 226.164C223.06 230.301 223.06 234.439 223.06 238.701C219.15 238.701 215.241 238.701 211.212 238.701C211.212 250.762 211.212 262.823 211.212 275.25C207.242 275.25 203.272 275.25 199.182 275.25C199.182 263.189 199.182 251.128 199.182 238.701C195.573 238.701 191.964 238.701 188.246 238.701C188.246 234.564 188.246 230.427 188.246 226.164Z" fill="white"/>
<path d="M208.969 281.688C211.014 281.688 213.059 281.688 215.166 281.688C215.166 286.388 215.166 291.089 215.166 295.932C217.873 295.932 220.58 295.932 223.368 295.932C223.459 297.885 223.459 297.885 223.551 299.877C223.687 299.454 223.823 299.032 223.964 298.596C224.098 298.181 224.233 297.766 224.367 297.352C224.46 297.066 224.552 296.78 224.644 296.495C225.095 295.094 225.546 293.708 226.125 292.376C226.409 291.685 226.617 290.96 226.832 290.234C226.92 289.942 227.009 289.65 227.099 289.358C227.142 289.214 227.186 289.071 227.231 288.923C227.603 287.713 227.977 286.538 228.483 285.399C228.78 284.662 228.992 283.888 229.214 283.115C229.383 282.564 229.383 282.564 229.748 281.688C232.334 281.688 234.921 281.688 237.586 281.688C237.886 282.7 238.187 283.712 238.497 284.756C238.679 285.262 238.866 285.766 239.067 286.262C239.407 287.125 239.723 287.978 239.989 288.877C240.165 289.445 240.358 290.004 240.553 290.563C240.634 290.796 240.715 291.029 240.798 291.269C240.922 291.625 240.922 291.625 241.049 291.988C243.783 299.83 243.783 299.83 243.783 300.754C241.618 300.754 239.452 300.754 237.221 300.754C236.674 299 236.674 299 236.674 298.343C234.75 298.343 232.825 298.343 230.842 298.343C230.661 299.138 230.481 299.934 230.295 300.754C230.112 300.973 230.112 300.973 229.76 301C229.604 300.999 229.448 300.999 229.288 300.999C229.021 301 229.021 301 228.748 301C228.551 300.999 228.354 300.998 228.151 300.998C227.841 300.998 227.841 300.998 227.526 300.998C226.84 300.998 226.155 300.996 225.469 300.994C224.996 300.994 224.522 300.993 224.048 300.993C222.926 300.992 221.804 300.991 220.682 300.989C219.28 300.986 217.878 300.985 216.476 300.983C213.973 300.981 211.471 300.977 208.969 300.973C208.969 294.609 208.969 288.244 208.969 281.688Z" fill="white"/>
<path d="M312.605 281.688C314.931 281.688 317.257 281.688 319.654 281.688C319.922 282.28 320.189 282.872 320.465 283.482C320.549 283.667 320.633 283.851 320.719 284.041C321.009 284.685 321.29 285.316 321.519 285.994C321.752 286.68 322.07 287.286 322.39 287.92C323.056 289.258 323.579 290.62 324.064 292.062C324.239 292.673 324.239 292.673 324.662 292.866C324.689 292.641 324.689 292.641 324.717 292.412C324.876 291.634 325.154 290.969 325.462 290.263C325.526 290.115 325.59 289.967 325.655 289.815C326.448 287.979 327.259 286.155 328.069 284.33C328.349 283.699 328.625 283.068 328.891 282.429C329.115 281.907 329.115 281.907 329.3 281.688C331.443 281.688 333.585 281.688 335.793 281.688C335.793 288.052 335.793 294.417 335.793 300.975C333.834 300.975 331.875 300.975 329.857 300.975C329.795 298.588 329.734 296.201 329.671 293.742C329.365 294.61 329.059 295.478 328.744 296.372C328.257 297.537 328.257 297.537 328.027 298.067C327.745 298.732 327.5 299.41 327.26 300.098C327.137 300.098 327.015 300.098 326.889 300.098C326.889 300.315 326.889 300.532 326.889 300.756C326.106 300.783 325.324 300.803 324.541 300.816C324.275 300.822 324.009 300.829 323.743 300.839C323.36 300.852 322.978 300.858 322.595 300.863C322.25 300.872 322.25 300.872 321.897 300.88C321.323 300.756 321.323 300.756 320.977 300.233C320.584 299.162 320.584 299.162 320.419 298.646C320.083 297.623 319.706 296.63 319.31 295.636C319.084 295.02 318.906 294.38 318.726 293.742C318.665 296.129 318.604 298.516 318.541 300.975C317.596 300.98 316.651 300.984 315.677 300.989C315.379 300.991 315.08 300.993 314.772 300.995C314.539 300.995 314.306 300.996 314.066 300.997C313.706 300.998 313.706 300.998 313.339 301C312.79 300.975 312.79 300.975 312.605 300.756C312.587 300.162 312.581 299.574 312.584 298.981C312.584 298.795 312.584 298.609 312.584 298.417C312.584 297.799 312.585 297.181 312.587 296.563C312.587 296.136 312.587 295.709 312.587 295.282C312.588 294.155 312.59 293.028 312.592 291.901C312.594 290.551 312.595 289.2 312.596 287.85C312.598 285.796 312.601 283.742 312.605 281.688Z" fill="white"/>
<path d="M269.479 281.688C271.519 281.688 273.559 281.688 275.66 281.688C276.521 282.882 276.521 282.882 277.398 284.102C277.922 284.791 278.446 285.479 278.977 286.161C279.716 287.126 279.716 287.126 279.716 287.613C279.907 287.685 280.099 287.758 280.296 287.832C280.555 288.27 280.812 288.709 281.068 289.149C281.578 289.801 282.088 290.453 282.613 291.124C282.677 288.01 282.741 284.896 282.807 281.688C284.974 281.688 287.141 281.688 289.373 281.688C289.373 288.061 289.373 294.434 289.373 301C287.015 301 284.657 301 282.227 301C282.036 300.638 281.845 300.276 281.648 299.903C281.39 299.552 281.123 299.21 280.851 298.874C280.697 298.683 280.543 298.492 280.385 298.294C280.228 298.101 280.071 297.907 279.909 297.708C278.827 296.364 277.788 294.998 276.79 293.572C276.468 293.084 276.468 293.084 276.046 292.88C275.983 295.487 275.919 298.094 275.853 300.781C273.75 300.781 271.647 300.781 269.479 300.781C269.479 294.48 269.479 288.179 269.479 281.688Z" fill="white"/>
<path d="M418.576 230.992C418.961 231.721 419.247 232.432 419.509 233.211C419.591 233.413 419.673 233.615 419.757 233.823C420.603 235.911 421.107 238.034 421.56 240.235C421.59 240.368 421.621 240.502 421.653 240.639C421.906 241.778 421.99 242.856 421.989 244.021C421.989 244.2 421.99 244.379 421.991 244.563C421.992 244.94 421.992 245.317 421.991 245.694C421.991 246.261 421.995 246.828 422 247.395C422.009 250.276 421.635 252.846 420.802 255.613C420.754 255.777 420.707 255.941 420.658 256.11C420.433 256.874 420.201 257.621 419.882 258.352C418.832 257.485 417.861 256.561 416.898 255.602C416.755 255.46 416.612 255.319 416.464 255.174C415.816 254.53 415.182 253.882 414.585 253.191C413.761 252.242 412.857 251.374 411.957 250.495C410.063 248.643 410.063 248.643 409.358 247.826C408.483 246.813 407.517 245.887 406.562 244.949C406.37 244.76 406.179 244.571 405.987 244.382C405.523 243.923 405.058 243.466 404.593 243.008C404.827 242.312 405.121 242.14 405.7 241.691C406.407 241.132 407.095 240.564 407.762 239.958C408.564 239.233 409.396 238.555 410.239 237.878C410.891 237.343 411.513 236.779 412.139 236.214C412.623 235.787 413.12 235.382 413.624 234.978C414.692 234.121 415.7 233.207 416.712 232.286C416.994 232.031 417.278 231.776 417.563 231.524C417.678 231.42 417.794 231.317 417.913 231.21C418.203 230.992 418.203 230.992 418.576 230.992Z" fill="#FBFBFB"/>
<path d="M189.075 281.743C191.51 281.734 193.946 281.725 196.455 281.715C197.221 281.711 197.986 281.707 198.775 281.703C199.719 281.701 199.719 281.701 200.162 281.701C200.468 281.7 200.774 281.698 201.08 281.696C205.652 281.664 205.652 281.664 206.989 282.78C207.118 282.882 207.247 282.983 207.38 283.087C208.32 284.334 208.124 286.338 208.12 287.92C208.12 288.368 208.124 288.815 208.128 289.263C208.129 290.81 208.122 292.094 207.52 293.474C205.598 295.576 202.052 294.876 199.688 294.844C199.254 294.84 198.821 294.837 198.387 294.835C197.332 294.828 196.278 294.815 195.223 294.802C195.223 296.848 195.223 298.893 195.223 301C193.194 301 191.165 301 189.075 301C189.075 294.645 189.075 288.29 189.075 281.743Z" fill="white"/>
<path d="M291.052 281.688C293.119 281.688 295.186 281.688 297.316 281.688C297.327 282.69 297.338 283.693 297.35 284.726C297.357 285.359 297.365 285.993 297.373 286.626C297.385 287.633 297.397 288.639 297.408 289.646C297.416 290.457 297.426 291.268 297.436 292.079C297.44 292.389 297.444 292.699 297.447 293.01C297.451 293.442 297.457 293.875 297.462 294.308C297.467 294.679 297.467 294.679 297.471 295.056C297.448 295.598 297.448 295.598 297.684 295.833C298.256 295.852 298.824 295.858 299.395 295.854C299.547 295.854 299.699 295.854 299.855 295.854C300.425 295.852 300.995 295.849 301.565 295.846C302.838 295.842 304.11 295.837 305.422 295.833C305.422 291.165 305.422 286.497 305.422 281.688C307.489 281.688 309.556 281.688 311.686 281.688C311.708 285.524 311.708 285.524 311.713 287.168C311.716 288.287 311.72 289.406 311.727 290.525C311.733 291.428 311.737 292.331 311.738 293.234C311.739 293.577 311.741 293.92 311.744 294.263C311.78 298.502 311.78 298.502 310.741 299.894C309.056 301.036 307.414 301.011 305.534 300.996C305.241 300.996 304.947 300.996 304.654 300.997C304.041 300.997 303.428 300.994 302.814 300.99C302.035 300.985 301.256 300.985 300.476 300.987C299.871 300.987 299.265 300.986 298.659 300.984C298.372 300.983 298.085 300.983 297.798 300.983C293.285 300.984 293.285 300.984 292.135 299.963C291.287 298.505 291.029 297.623 291.031 295.839C291.031 295.686 291.031 295.532 291.031 295.375C291.032 294.87 291.033 294.365 291.034 293.861C291.035 293.51 291.035 293.16 291.035 292.809C291.036 291.888 291.038 290.966 291.04 290.045C291.042 288.938 291.043 287.832 291.044 286.726C291.046 285.046 291.049 283.367 291.052 281.688Z" fill="white"/>
<path d="M241.296 281.688C247.588 281.688 253.879 281.688 260.361 281.688C260.361 283.299 260.361 284.911 260.361 286.571C258.221 286.571 256.081 286.571 253.875 286.571C253.875 291.333 253.875 296.094 253.875 301C251.735 301 249.595 301 247.389 301C247.389 296.238 247.389 291.477 247.389 286.571C245.379 286.571 243.368 286.571 241.296 286.571C241.296 284.96 241.296 283.348 241.296 281.688Z" fill="white"/>
<path d="M208.969 281.688C210.938 281.688 212.908 281.688 214.937 281.688C214.998 286.43 215.06 291.173 215.123 296.06C219.185 296.171 219.185 296.171 223.33 296.284C223.33 297.766 223.33 299.248 223.33 300.775C223.607 300.887 223.607 300.887 223.889 301C218.965 301 214.042 301 208.969 301C208.969 294.627 208.969 288.254 208.969 281.688Z" fill="white"/>
<path d="M261.19 281.688C263.105 281.688 265.02 281.688 266.993 281.688C266.993 288.061 266.993 294.434 266.993 301C265.078 301 263.163 301 261.19 301C261.19 294.627 261.19 288.254 261.19 281.688Z" fill="white"/>
<path d="M372.265 240.648C372.265 245.163 372.265 249.677 372.265 254.328C368.709 254.328 365.153 254.328 361.489 254.328C362.385 252.503 363.879 250.923 365.154 249.357C365.9 248.439 366.629 247.508 367.348 246.568C367.954 245.777 368.576 245 369.203 244.226C369.779 243.503 370.342 242.768 370.902 242.031C371.959 240.648 371.959 240.648 372.265 240.648Z" fill="#FCFCFC"/>
<path d="M194.877 287.368C195.76 287.358 196.643 287.35 197.526 287.345C197.826 287.343 198.127 287.34 198.427 287.336C198.859 287.331 199.29 287.329 199.722 287.327C199.856 287.325 199.991 287.323 200.13 287.32C200.461 287.32 200.791 287.342 201.122 287.368C201.468 287.791 201.468 287.791 201.508 288.326C201.506 288.533 201.503 288.74 201.501 288.954C201.5 289.161 201.499 289.368 201.498 289.581C201.468 290.116 201.468 290.116 201.295 290.539C199.177 290.539 197.059 290.539 194.877 290.539C194.877 289.493 194.877 288.446 194.877 287.368Z" fill="black"/>
<path d="M239.473 248.695C239.582 248.695 239.692 248.695 239.804 248.695C241.296 254.248 241.296 254.248 241.296 255.133C240.202 255.133 239.108 255.133 237.981 255.133C238.109 254.33 238.26 253.591 238.453 252.812C238.542 252.452 238.542 252.452 238.633 252.084C238.725 251.711 238.725 251.711 238.82 251.33C238.882 251.077 238.945 250.824 239.009 250.564C239.163 249.941 239.318 249.318 239.473 248.695Z" fill="#0F0F0F"/>
<path d="M233.836 288.125C233.914 288.125 233.992 288.125 234.073 288.125C234.172 289.053 234.271 289.981 234.369 290.909C234.397 291.173 234.425 291.437 234.455 291.708C234.481 291.961 234.508 292.215 234.536 292.475C234.56 292.709 234.585 292.942 234.611 293.182C234.665 293.79 234.665 293.79 234.665 294.562C234.118 294.562 233.571 294.562 233.007 294.562C233.088 293.683 233.174 292.874 233.293 292.023C233.324 291.795 233.356 291.566 233.389 291.331C233.438 290.979 233.438 290.979 233.488 290.62C233.522 290.38 233.555 290.14 233.589 289.893C233.671 289.303 233.754 288.714 233.836 288.125Z" fill="#0F0F0F"/>
<path d="M193.731 208.461C194.428 208.74 194.522 208.957 194.804 209.534C194.873 210.093 194.873 210.093 194.875 210.723C194.876 210.954 194.876 211.184 194.877 211.422C194.875 211.662 194.873 211.902 194.871 212.149C194.873 212.385 194.875 212.621 194.877 212.864C194.873 214.253 194.714 215.486 194.267 216.83C194.091 216.83 193.914 216.83 193.731 216.83C193.709 216.962 193.687 217.095 193.664 217.232C193.463 217.688 193.463 217.688 192.91 217.956C192.738 218.009 192.567 218.062 192.39 218.117C192.69 217.509 193.002 216.914 193.346 216.32C194.026 214.948 194.042 213.577 194.033 212.122C194.034 211.959 194.035 211.796 194.036 211.628C194.034 210.554 193.922 209.524 193.731 208.461Z" fill="white"/>
<path d="M165.519 236.625C165.633 236.696 165.747 236.767 165.865 236.84C165.755 237.055 165.644 237.27 165.533 237.483C165.472 237.603 165.41 237.722 165.346 237.845C165.172 238.127 165.172 238.127 164.941 238.127C164.675 239.033 164.568 239.882 164.595 240.917C164.718 241.475 164.876 241.911 165.057 242.419C165.057 242.631 165.057 242.844 165.057 243.063C164.981 243.063 164.904 243.063 164.826 243.063C164.795 242.934 164.764 242.806 164.732 242.674C164.612 242.198 164.612 242.198 164.415 241.91C164.15 241.353 164.208 240.848 164.223 240.134C164.26 239.407 164.327 238.802 164.479 238.127C164.754 237.765 164.754 237.765 165.057 237.483C165.215 237.205 165.37 236.921 165.519 236.625Z" fill="white"/>
<path d="M183.272 220.566C182.542 221.273 181.814 221.846 180.982 222.379C179.756 223.191 178.62 224.1 177.487 225.073C176.929 225.549 176.474 225.908 175.812 226.164C175.884 225.912 175.957 225.66 176.031 225.401C176.176 225.401 176.321 225.401 176.47 225.401C176.516 225.248 176.561 225.096 176.607 224.939C177.021 224.176 177.531 223.998 178.226 223.619C178.339 223.483 178.452 223.347 178.568 223.206C179 222.727 179.401 222.692 179.981 222.602C179.981 222.434 179.981 222.266 179.981 222.093C180.18 221.982 180.379 221.872 180.584 221.759C181.28 221.376 181.28 221.376 181.75 220.9C182.287 220.478 182.638 220.505 183.272 220.566Z" fill="white"/>
<path d="M186.718 218.117C187.269 218.122 187.269 218.122 187.919 218.193C188.134 218.215 188.35 218.237 188.572 218.26C188.738 218.279 188.904 218.299 189.075 218.318C189.075 218.385 189.075 218.451 189.075 218.52C188.877 218.546 188.877 218.546 188.675 218.572C186.999 218.832 185.567 219.443 184.066 220.292C183.635 220.531 183.635 220.531 183.272 220.531C183.272 220.398 183.272 220.266 183.272 220.129C184.065 219.614 184.841 219.126 185.709 218.784C186.354 218.577 186.354 218.577 186.718 218.117Z" fill="white"/>
<path d="M137.461 247.891C137.529 247.891 137.597 247.891 137.667 247.891C137.699 249.921 137.699 249.921 137.461 250.49C137.256 250.562 137.052 250.633 136.842 250.707C136.525 251.13 136.525 251.13 136.236 251.641C135.804 252.348 135.403 252.985 134.779 253.523C134.643 253.523 134.506 253.523 134.366 253.523C134.366 253.38 134.366 253.237 134.366 253.09C134.502 253.09 134.639 253.09 134.779 253.09C134.83 252.937 134.881 252.785 134.934 252.627C135.225 251.927 135.589 251.365 136.017 250.748C136.161 250.536 136.306 250.325 136.455 250.107C136.583 249.948 136.71 249.788 136.842 249.624C136.978 249.624 137.114 249.624 137.254 249.624C137.322 249.052 137.39 248.48 137.461 247.891Z" fill="white"/>
<path d="M183.272 220.531C183.272 220.695 183.272 220.858 183.272 221.026C182.253 222.017 182.253 222.017 181.765 222.017C181.765 222.18 181.765 222.344 181.765 222.512C181.392 222.594 181.019 222.675 180.635 222.76C180.573 223.005 180.51 223.25 180.446 223.502C180.011 223.584 179.576 223.666 179.128 223.75C179.784 222.765 180.55 222.205 181.412 221.584C181.549 221.482 181.686 221.38 181.828 221.275C182.845 220.531 182.845 220.531 183.272 220.531Z" fill="white"/>
<path d="M167.523 248.695C168.463 249.392 168.963 250.184 169.534 251.117C169.815 251.563 170.116 251.971 170.453 252.385C170.89 252.976 170.89 252.976 170.89 253.652C171.061 253.652 171.232 253.652 171.408 253.652C171.494 253.875 171.579 254.098 171.668 254.328C171.326 254.254 170.984 254.179 170.631 254.103C170.631 253.805 170.631 253.508 170.631 253.202C170.375 253.127 170.118 253.053 169.854 252.976C169.581 252.532 169.324 252.08 169.077 251.624C168.797 251.269 168.797 251.269 168.511 250.906C168.041 250.273 168.041 250.273 168.041 249.597C167.87 249.597 167.699 249.597 167.523 249.597C167.523 249.299 167.523 249.002 167.523 248.695Z" fill="white"/>
<path d="M161.72 286.516C162.16 286.592 162.478 286.697 162.87 286.951C163.569 287.336 164.278 287.453 165.036 287.589C165.036 287.766 165.036 287.943 165.036 288.125C163.902 288.025 162.808 287.724 161.928 286.829C161.859 286.725 161.791 286.622 161.72 286.516Z" fill="white"/>
<path d="M190.733 202.828C191.461 203.608 191.921 204.387 192.376 205.41C192.438 205.542 192.5 205.674 192.564 205.811C192.968 206.703 193.144 207.454 193.219 208.461C192.909 207.914 192.795 207.618 192.686 207.001C192.569 207.001 192.452 207.001 192.331 207.001C192.29 206.869 192.249 206.738 192.207 206.603C191.853 205.512 191.461 204.544 190.902 203.578C190.733 203.245 190.733 203.245 190.733 202.828Z" fill="white"/>
<path d="M165.865 244.672C166.367 245.353 166.695 246.062 167.033 246.935C167.172 247.289 167.172 247.289 167.313 247.649C167.523 248.248 167.523 248.248 167.523 248.695C167.25 248.681 167.25 248.681 166.92 248.472C166.801 248.098 166.684 247.721 166.587 247.333C166.46 246.838 166.46 246.838 166.138 246.195C165.865 245.566 165.865 245.566 165.865 244.672Z" fill="white"/>
<path d="M330.405 293.758C330.542 293.758 330.678 293.758 330.819 293.758C330.819 296.148 330.819 298.538 330.819 301C330.683 301 330.546 301 330.405 301C330.268 299.172 330.131 297.345 329.99 295.462C329.717 295.462 329.443 295.462 329.161 295.462C329.939 294.237 329.939 294.237 330.405 293.758Z" fill="#1A1A1A"/>
<path d="M190.733 201.219C191.08 201.396 191.08 201.396 191.435 201.576C191.435 201.812 191.435 202.048 191.435 202.292C191.621 202.292 191.807 202.292 191.998 202.292C192.073 202.514 192.146 202.738 192.217 202.962C192.258 203.087 192.299 203.211 192.341 203.339C192.43 203.776 192.392 204.016 192.279 204.438C192.238 204.338 192.197 204.238 192.155 204.136C191.783 203.255 191.379 202.457 190.892 201.671C190.733 201.398 190.733 201.398 190.733 201.219Z" fill="white"/>
<path d="M167.523 248.695C167.691 248.695 167.86 248.695 168.033 248.695C168.033 248.855 168.033 249.014 168.033 249.178C168.286 249.178 168.538 249.178 168.798 249.178C168.882 249.656 168.967 250.134 169.053 250.627C169.222 250.627 169.39 250.627 169.563 250.627C169.648 250.945 169.732 251.264 169.818 251.592C169.987 251.592 170.155 251.592 170.329 251.592C170.497 252.229 170.665 252.867 170.839 253.523C170.189 252.962 169.768 252.37 169.324 251.653C169.126 251.334 169.126 251.334 168.925 251.009C168.454 250.24 167.985 249.469 167.523 248.695Z" fill="white"/>
<path d="M175.227 226.164C175.556 226.214 175.556 226.214 175.812 226.365C175.083 227.224 174.349 228.021 173.472 228.578C173.423 228.379 173.375 228.18 173.325 227.975C173.414 227.911 173.502 227.848 173.593 227.783C174.34 227.238 174.34 227.238 174.98 226.491C175.062 226.383 175.143 226.275 175.227 226.164Z" fill="white"/>
<path d="M117.562 280.078C117.636 280.291 117.711 280.503 117.788 280.722C117.496 281.157 117.193 281.586 116.884 282.009C116.856 282.169 116.828 282.328 116.799 282.492C116.752 282.616 116.706 282.74 116.658 282.868C115.965 283.136 115.965 283.136 115.301 283.297C115.959 282.143 116.713 281.113 117.562 280.078Z" fill="white"/>
<path d="M152.602 272.031C152.752 272.031 152.901 272.031 153.055 272.031C153.095 272.192 153.135 272.352 153.177 272.517C153.357 273.107 153.532 273.458 153.808 273.909C153.959 274.177 154.11 274.445 154.26 274.714C154.211 274.891 154.161 275.068 154.11 275.25C153.595 274.945 153.489 274.702 153.205 273.909C153.205 273.732 153.205 273.555 153.205 273.372C153.106 273.372 153.006 273.372 152.904 273.372C152.804 272.93 152.705 272.487 152.602 272.031Z" fill="white"/>
<path d="M172.97 228.578C173.087 228.651 173.205 228.723 173.325 228.798C173.138 229.082 172.951 229.365 172.763 229.648C172.658 229.806 172.554 229.964 172.446 230.126C172.191 230.484 171.959 230.753 171.667 230.992C171.842 230.205 172.07 229.797 172.43 229.278C172.522 229.14 172.615 229.003 172.711 228.862C172.796 228.768 172.882 228.675 172.97 228.578Z" fill="white"/>
<path d="M127.735 214.29C127.461 214.371 127.188 214.452 126.906 214.536C126.815 214.78 126.724 215.024 126.63 215.275C126.18 215.617 126.18 215.617 125.645 215.938C125.38 216.099 125.38 216.099 125.109 216.264C124.973 216.345 124.836 216.425 124.696 216.508C124.604 216.345 124.513 216.182 124.419 216.015C124.51 215.852 124.602 215.69 124.696 215.522C124.969 215.522 125.243 215.522 125.525 215.522C125.542 215.369 125.559 215.217 125.576 215.06C125.801 214.536 125.801 214.536 126.474 214.213C127.182 214.043 127.182 214.043 127.735 214.29Z" fill="white"/>
<path d="M145.971 207.689C146.414 207.68 146.857 207.673 147.3 207.668C147.546 207.664 147.793 207.66 148.047 207.656C148.702 207.689 148.702 207.689 149.082 207.828C149.287 208.02 149.287 208.02 149.287 208.461C149.158 208.461 149.029 208.461 148.897 208.461C148.897 208.315 148.897 208.17 148.897 208.02C148.28 207.903 147.752 207.875 147.105 207.847C146.893 207.838 146.681 207.829 146.462 207.819C146.3 207.812 146.138 207.806 145.971 207.799C145.971 207.763 145.971 207.726 145.971 207.689Z" fill="white"/>
<path d="M138.392 274.445C138.474 274.816 138.474 274.816 138.511 275.323C138.363 275.927 138.363 275.927 138.156 276.42C138.038 276.42 137.921 276.42 137.8 276.42C137.761 276.565 137.722 276.71 137.682 276.859C137.682 276.642 137.682 276.425 137.682 276.201C137.76 276.129 137.838 276.056 137.919 275.982C137.958 275.764 137.997 275.547 138.037 275.323C138.076 275.106 138.115 274.889 138.156 274.665C138.234 274.592 138.312 274.52 138.392 274.445Z" fill="white"/>
<path d="M189.075 199.609C189.28 199.654 189.28 199.654 189.489 199.699C189.489 199.787 189.489 199.876 189.489 199.967C189.599 199.967 189.708 199.967 189.821 199.967C189.848 200.115 189.875 200.262 189.904 200.414C189.557 200.185 189.313 199.965 189.075 199.609Z" fill="white"/>
<path d="M136.143 250.305C136.377 250.305 136.611 250.305 136.853 250.305C136.523 251.018 135.999 251.411 135.195 251.914C135.273 251.595 135.352 251.277 135.432 250.948C135.666 250.948 135.901 250.948 136.143 250.948C136.143 250.736 136.143 250.524 136.143 250.305Z" fill="white"/>
<path d="M127.631 263.984C127.665 264.303 127.7 264.622 127.735 264.95C127.632 265.03 127.53 265.109 127.424 265.191C127.348 265.678 127.348 265.678 127.32 266.157C127.184 266.237 127.047 266.316 126.906 266.398C127.007 266.041 127.109 265.684 127.21 265.327C127.267 265.128 127.323 264.929 127.382 264.725C127.528 264.226 127.528 264.226 127.631 263.984Z" fill="white"/>
<path d="M114.071 283.297C114.203 283.363 114.336 283.43 114.472 283.498C114.364 283.733 114.255 283.968 114.146 284.202C114.085 284.333 114.025 284.464 113.963 284.598C113.91 284.7 113.857 284.802 113.803 284.906C113.759 284.906 113.715 284.906 113.669 284.906C113.62 283.99 113.62 283.99 113.87 283.536C113.936 283.457 114.002 283.378 114.071 283.297Z" fill="white"/>
<path d="M172.331 230.188C172.385 230.221 172.44 230.254 172.496 230.288C172.332 230.52 172.168 230.753 171.999 230.992C171.89 230.959 171.78 230.926 171.667 230.892C171.886 230.659 172.105 230.427 172.331 230.188Z" fill="white"/>
<path d="M189.075 199.609C189.196 199.705 189.317 199.802 189.437 199.899C189.505 199.952 189.572 200.006 189.641 200.061C189.812 200.213 189.812 200.213 189.904 200.414C189.684 200.356 189.474 200.291 189.259 200.213C189.15 199.905 189.15 199.905 189.075 199.609Z" fill="white"/>
<path d="M120.906 218.117C121.029 218.62 121.029 218.62 121.104 219.19C120.973 219.367 120.843 219.544 120.708 219.727C120.629 220.26 120.562 220.797 120.51 221.336C120.445 221.336 120.38 221.336 120.313 221.336C120.24 219.355 120.24 219.355 120.609 218.52C120.707 218.387 120.805 218.254 120.906 218.117Z" fill="white"/>
<path d="M119.991 275.25C120.085 275.364 120.178 275.478 120.275 275.595C120.228 275.822 120.181 276.05 120.133 276.285C120.039 276.285 119.946 276.285 119.849 276.285C119.756 276.74 119.662 277.195 119.565 277.664C119.406 276.371 119.406 276.371 119.565 275.595C119.706 275.481 119.846 275.367 119.991 275.25Z" fill="white"/>
<path d="M165.51 236.625C165.627 236.663 165.744 236.701 165.865 236.74C165.455 237.081 165.455 237.081 165.036 237.43C165.073 237.157 165.073 237.157 165.155 236.855C165.272 236.779 165.389 236.703 165.51 236.625Z" fill="white"/>
<path d="M175.398 226.164C175.631 226.198 175.631 226.198 175.812 226.298C175.504 226.63 175.504 226.63 175.19 226.969C175.122 226.88 175.054 226.792 174.983 226.701C175.164 226.424 175.164 226.424 175.398 226.164Z" fill="white"/>
<path d="M134.781 251.914C134.917 251.98 135.054 252.047 135.195 252.115C135.005 252.618 135.005 252.618 134.781 253.121C134.689 253.121 134.598 253.121 134.504 253.121C134.459 253.254 134.413 253.387 134.366 253.523C134.442 252.845 134.512 252.501 134.781 251.914Z" fill="white"/>
<path d="M129.393 236.625C129.84 236.788 130.004 237.112 130.222 237.43C129.963 237.398 129.963 237.398 129.669 237.329C129.393 237.027 129.393 237.027 129.393 236.625Z" fill="white"/>
<path d="M175.812 226.973C174.865 227.682 174.865 227.682 174.154 227.773C174.556 226.999 174.853 226.951 175.812 226.973Z" fill="white"/>
<path d="M183.272 220.531C183.272 220.64 183.272 220.749 183.272 220.861C182.89 221.373 182.89 221.373 182.599 221.303C182.547 221.266 182.496 221.228 182.443 221.19C183.065 220.531 183.065 220.531 183.272 220.531Z" fill="white"/>
<path d="M114.472 293.758C114.751 294.198 115.028 294.645 115.301 295.099C115.301 295.187 115.301 295.276 115.301 295.367C115.073 295.367 114.845 295.367 114.61 295.367C114.565 294.836 114.519 294.305 114.472 293.758Z" fill="white"/>
<path d="M151.773 214.094C152.105 214.335 152.105 214.335 152.246 214.834C152.288 215.033 152.331 215.232 152.374 215.437C152.418 215.636 152.461 215.836 152.505 216.041C152.537 216.195 152.569 216.349 152.602 216.508C152.438 216.428 152.274 216.348 152.105 216.266C151.984 215.768 151.984 215.768 151.908 215.165C151.882 214.966 151.856 214.766 151.828 214.561C151.801 214.329 151.801 214.329 151.773 214.094Z" fill="white"/>
</g>
<defs>
<clipPath id="clip0_8_446">
<rect width="500" height="500" fill="white"/>
</clipPath>
</defs>
</svg>
