<?xml version="1.0" encoding="UTF-8"?>
<svg xmlns="http://www.w3.org/2000/svg" version="1.1" viewBox="0 0 283.5 283.5">
  <defs>
    <style>
      .cls-1 {
        fill: #fff;
      }
    </style>
  </defs>
  <!-- Generator: Adobe Illustrator 28.7.1, SVG Export Plug-In . SVG Version: 1.2.0 Build 142)  -->
  <g>
    <g id="Vrstva_1">
      <rect width="283.5" height="283.5"/>
      <g>
        <path class="cls-1" d="M141.9,198.8c-51.1,0-92.3-24.8-92.3-57.3s41.2-56.5,92.3-56.5,92.1,24,92.1,56.5-41,57.3-92.1,57.3M141.8,78.9c-65,0-117.7,27.3-117.7,62.8s52.7,62.8,117.7,62.8,117.7-27.3,117.7-62.8-52.7-62.8-117.7-62.8"/>
        <path class="cls-1" d="M141.7,147.6l67.6-20.6v18.9s-36.2,10.5-36.2,10.5l33.2,7.9-4.2,15.8-60.3-14-60.3,13.8-4.3-15.6,33.3-7.9-36.2-10.7v-18.8s67.6,20.6,67.6,20.6Z"/>
        <path class="cls-1" d="M94.3,114.8c0-11.3,24.9-23.3,49.3-22.7,24.5.6,44.6,12.7,45.5,23.7,0,.3,0,.8,0,.9s-63.4,0-63.4,0c-4.4,0-6,2.2-2.7,4.1,0,0,8.4,4.6,19.9,4.6s13.4-1.8,16.6-3.2h29.2s-.9.9-.9.9c-8.1,8.2-25.4,13.9-43.9,13.9s-49.8-9.7-49.8-22.3M127.8,107.1h31c4,0,4.9-1.2,1.9-2.7,0,0-6.3-3.1-16.9-3.1s-17.9,3.2-17.9,3.2c-3,1.5-2.2,2.7,1.9,2.7"/>
      </g>
    </g>
  </g>
</svg>