<svg width="500" height="500" viewBox="0 0 500 500" fill="none" xmlns="http://www.w3.org/2000/svg">
<g clip-path="url(#clip0_7_99)">
<rect width="500" height="500" fill="white"/>
<path d="M-13 -38C152 -38 343 -13 513 -13C513 81.38 521 457.26 521 554.5C356 554.5 135.5 533 -34.5 533C-34.5 438.62 -13 59.24 -13 -38Z" fill="#0B122E"/>
<path d="M123 235C124.279 234.938 125.557 234.876 126.875 234.812C127.954 234.76 127.954 234.76 129.055 234.707C129.697 234.804 130.339 234.9 131 235C133.313 238.469 133.425 239.922 133 244C131.938 245.875 131.938 245.875 130 247C126.312 247.188 126.312 247.188 123 247C123 243.04 123 239.08 123 235Z" fill="#0B1129"/>
<path d="M158 273C158 274.65 158 276.3 158 278C157.01 278.33 156.02 278.66 155 279C155 278.34 155 277.68 155 277C154.01 276.67 153.02 276.34 152 276C152.33 275.34 152.66 274.68 153 274C154.682 273.474 156.227 273 158 273Z" fill="#060E24"/>
<g clip-path="url(#clip1_7_99)">
<path d="M80 231.88H110.449V244.591H94.2109V252.535H108.927V264.716H94.2109V284.843H80V231.88Z" fill="white"/>
<path d="M118.909 231.88H139.934C156.898 231.88 157.477 245.347 157.477 247.77C157.477 257.758 151.605 261.92 146.821 263.661L161.03 284.847H143.847L133.118 267.369V284.847H118.907V231.88H118.909ZM136.599 255.714C141.675 255.714 143.27 252.688 143.27 249.585C143.27 246.634 141.675 243.532 136.599 243.532H133.12V255.714H136.599Z" fill="white"/>
<path d="M166.964 231.88H197.413V244.591H181.173V252.006H195.889V263.659H181.173V272.131H197.413V284.843H166.964V231.88Z" fill="white"/>
<path d="M207.477 231.88H237.926V244.591H221.686V252.006H236.402V263.659H221.686V272.131H237.926V284.843H207.477V231.88Z" fill="white"/>
<path d="M366.351 231.88H380.56L389.476 264.19L398.392 231.88H412.603L420 284.845H406.37L402.6 254.124L394.045 284.845H384.911L376.356 254.124L372.586 284.845H358.956L366.351 231.88Z" fill="white"/>
<path d="M255.47 284.867V284.845H284.76V284.867H296.939V272.131H290.85V231.88H253.441V255.032C253.441 256.697 253.513 258.362 253.368 260.027C252.789 268.274 247.93 271.906 243.29 272.133V284.869H255.47V284.867ZM266.49 257.152V244.591H276.639V272.131H261.124C265.984 269.03 266.49 263.508 266.49 257.152Z" fill="white"/>
<path d="M300.086 258.094C300.086 242.026 312.567 229 327.963 229C343.358 229 355.839 242.026 355.839 258.094" fill="#416AB2"/>
<path d="M300.086 257.906C300.086 273.974 312.567 287 327.963 287C343.358 287 355.839 273.974 355.839 257.906" fill="#FED00D"/>
</g>
</g>
<defs>
<clipPath id="clip0_7_99">
<rect width="500" height="500" fill="white"/>
</clipPath>
<clipPath id="clip1_7_99">
<rect width="340" height="58" fill="white" transform="translate(80 229)"/>
</clipPath>
</defs>
</svg>
