<?xml version="1.0" encoding="utf-8"?>
<!-- Generator: Adobe Illustrator 28.0.0, SVG Export Plug-In . SVG Version: 6.00 Build 0)  -->
<svg version="1.1" id="Vrstva_1" xmlns="http://www.w3.org/2000/svg" xmlns:xlink="http://www.w3.org/1999/xlink" x="0px" y="0px"
	 viewBox="0 0 283.5 283.5" style="enable-background:new 0 0 283.5 283.5;" xml:space="preserve">
<style type="text/css">
	
		.st0{clip-path:url(#SVGID_00000021832235871580761320000017659354929602535326_);fill:url(#SVGID_00000116220719272751379010000016865163981788427443_);}
	
		.st1{clip-path:url(#SVGID_00000128469995872712938250000007941526079234922929_);fill:url(#SVGID_00000046306655790776673290000008751482322962710144_);}
	
		.st2{clip-path:url(#SVGID_00000107574746842952027390000002404278444204938114_);fill:url(#SVGID_00000030482913469082616860000002555397439200285625_);}
	.st3{fill:#12110C;}
	.st4{fill:#FFFFFF;}
	
		.st5{clip-path:url(#SVGID_00000161595312789978770080000010035266324841240235_);fill:url(#SVGID_00000116200626753207381690000010277491989232013990_);}
	
		.st6{clip-path:url(#SVGID_00000181806355515274918530000005840271722133256628_);fill:url(#SVGID_00000160186198291787702050000016157694291418551187_);}
	
		.st7{clip-path:url(#SVGID_00000165222374568923509830000014992633107671784356_);fill:url(#SVGID_00000162322799032062193340000008880343605481803923_);}
</style>
<rect width="283.5" height="283.5"/>
<g transform="matrix(.8 0 0 .8 0 -3.336e-5)">
	<g>
		<defs>
			<polygon id="SVGID_1_" points="297.4,107 173,107 173,231.4 312.9,247.3 			"/>
		</defs>
		<clipPath id="SVGID_00000108299485127162760980000012179656635915841923_">
			<use xlink:href="#SVGID_1_"  style="overflow:visible;"/>
		</clipPath>
		
			<linearGradient id="SVGID_00000105413489551384006200000007509788861546391692_" gradientUnits="userSpaceOnUse" x1="92.5801" y1="-171.4614" x2="95.5924" y2="-171.4614" gradientTransform="matrix(0 37.2648 -37.2648 0 -6146.4849 -3342.969)">
			<stop  offset="0" style="stop-color:#FCCB2B"/>
			<stop  offset="0.2401" style="stop-color:#FFF2B4"/>
			<stop  offset="0.3396" style="stop-color:#FFCD2A"/>
			<stop  offset="0.373" style="stop-color:#FBC827"/>
			<stop  offset="0.4217" style="stop-color:#F2B71F"/>
			<stop  offset="0.4795" style="stop-color:#E29B15"/>
			<stop  offset="0.5161" style="stop-color:#D7870E"/>
			<stop  offset="0.5592" style="stop-color:#DD9627"/>
			<stop  offset="0.6489" style="stop-color:#ECBC61"/>
			<stop  offset="0.7623" style="stop-color:#FFF2B4"/>
			<stop  offset="0.913" style="stop-color:#F6B815"/>
			<stop  offset="0.9631" style="stop-color:#F7CB35"/>
			<stop  offset="1" style="stop-color:#F8DA4C"/>
		</linearGradient>
		
			<path style="clip-path:url(#SVGID_00000108299485127162760980000012179656635915841923_);fill:url(#SVGID_00000105413489551384006200000007509788861546391692_);" d="
			M173,107h139.9v140.3H173V107z"/>
	</g>
	<g>
		<defs>
			<path id="SVGID_00000181076396109820411430000004061096063762990493_" d="M174.8,229.8V108.7h121.1L311,245.4L174.8,229.8z
				 M171.3,105.3v127.6l141.9,16.2h1.7L299,105.3L171.3,105.3z"/>
		</defs>
		<clipPath id="SVGID_00000165954078538212887740000001619445428115358136_">
			<use xlink:href="#SVGID_00000181076396109820411430000004061096063762990493_"  style="overflow:visible;"/>
		</clipPath>
		
			<linearGradient id="SVGID_00000080924970483687111980000016826126955416837794_" gradientUnits="userSpaceOnUse" x1="92.0459" y1="-171.6854" x2="95.0584" y2="-171.6854" gradientTransform="matrix(0 33.0328 -33.0328 0 -5428.1558 -2920.3589)">
			<stop  offset="0" style="stop-color:#FCCB2B"/>
			<stop  offset="0.1035" style="stop-color:#FCCB2B"/>
			<stop  offset="0.2158" style="stop-color:#E09714"/>
			<stop  offset="0.2501" style="stop-color:#D7870E"/>
			<stop  offset="0.3026" style="stop-color:#DD9627"/>
			<stop  offset="0.4121" style="stop-color:#ECBC61"/>
			<stop  offset="0.5505" style="stop-color:#FFF2B4"/>
			<stop  offset="0.9672" style="stop-color:#F6B815"/>
			<stop  offset="1" style="stop-color:#F6B815"/>
		</linearGradient>
		
			<path style="clip-path:url(#SVGID_00000165954078538212887740000001619445428115358136_);fill:url(#SVGID_00000080924970483687111980000016826126955416837794_);" d="
			M171.3,105.3h143.6v143.8H171.3V105.3z"/>
	</g>
	<g>
		<defs>
			<polygon id="SVGID_00000039135607411154159490000001105609253025223068_" points="291.4,142.4 185.9,142.4 185.9,199.4 
				298,212.4 			"/>
		</defs>
		<clipPath id="SVGID_00000032648008098281000040000016421958530592923064_">
			<use xlink:href="#SVGID_00000039135607411154159490000001105609253025223068_"  style="overflow:visible;"/>
		</clipPath>
		
			<linearGradient id="SVGID_00000024710293499240049270000015741408809608701100_" gradientUnits="userSpaceOnUse" x1="102.4513" y1="-177.4832" x2="105.4649" y2="-177.4832" gradientTransform="matrix(21.7568 0 0 21.7568 -2012.9541 4038.8416)">
			<stop  offset="0" style="stop-color:#9E5E18"/>
			<stop  offset="0.2688" style="stop-color:#9E5E18"/>
			<stop  offset="0.3541" style="stop-color:#A1631E"/>
			<stop  offset="0.4827" style="stop-color:#AB712B"/>
			<stop  offset="0.6388" style="stop-color:#BD8A48"/>
			<stop  offset="0.8164" style="stop-color:#D7B177"/>
			<stop  offset="1" style="stop-color:#F8E3B5"/>
		</linearGradient>
		
			<path style="clip-path:url(#SVGID_00000032648008098281000040000016421958530592923064_);fill:url(#SVGID_00000024710293499240049270000015741408809608701100_);" d="
			M185.9,142.4h112v70h-112V142.4z"/>
	</g>
	<path class="st3" d="M187.9,197.9v-53.6h101.5l6.6,66.6L187.9,197.9z"/>
	<path class="st4" d="M39.7,124.2V168h10.5v-15.9h16.2v-9.8H50.2v-8.4H71v-9.8L39.7,124.2z"/>
	<path class="st4" d="M114.5,148.4c0,13.2-7.6,20.4-19.1,20.4c-11.5,0-19.1-7.2-19.1-20.4v-24.3H87v23.9c0,7.5,2.9,10.8,8.6,10.8
		c5.6,0,8.6-3.3,8.6-10.8v-23.9h10.4V148.4z"/>
	<path class="st4" d="M131.7,141.8h-0.2c0,0.1,0.1,5.4,0.1,11.1v15h-10.5v-43.8h10.6l18.6,25.6h0.2c0-0.1-0.1-5.7-0.1-10.4v-15.2
		h10.5v43.8h-10.7L131.7,141.8z"/>
	<path class="st4" d="M56.5,208c3.4,0,5.3-2,5.3-4.8c0-3-2-4.8-5.3-4.8h-7v9.5H56.5z M55.5,191.1c2.7,0,4.5-1.7,4.5-4.1
		c0-2.3-1.7-4.1-4.6-4.1h-6v8.2L55.5,191.1z M64.8,194.1c4,1.2,7.5,4.5,7.5,10c0,6.4-4.6,12.1-14.9,12.1H39.5v-41.6h17.9
		c7.5,0,12.7,5.1,12.7,10.8c0,4.6-3.1,7.5-5.3,8.4L64.8,194.1z"/>
	<path class="st4" d="M97.3,207.6c6.9,0,11.9-4.8,11.9-12.2c0-7.5-5-12.2-11.9-12.2s-11.9,4.8-11.9,12.2
		C85.4,202.9,90.4,207.6,97.3,207.6 M97.3,173.8c12.7,0,21.9,8.9,21.9,21.6c0,12.7-9.2,21.6-21.9,21.6s-21.9-8.9-21.9-21.6
		C75.4,182.7,84.6,173.8,97.3,173.8"/>
	<path class="st4" d="M144,209c-2.3-3.4-3.9-5.9-4-5.9H140c-0.1,0-1.7,2.4-4.2,5.9l-4.9,7.2h-12.1l15.4-21.4l-14.7-20.2h12.1
		l4.8,6.9c2.2,3.1,4.1,5.8,4.2,5.8h0.1c0.1,0,1.9-2.8,3.9-5.8l4.5-6.9H161l-14.6,20.2l15.1,21.4H149L144,209z"/>
	<g>
		<defs>
			<path id="SVGID_00000145030448585138136980000016977077750873409707_" d="M215.9,155.3v20.6c0,5.3-2.5,7.9-7.5,7.9
				c-2.6,0-4.5-0.6-5.7-1.9c-1.2-1.3-1.9-3.3-1.9-5.9v-20.6h-5.3v21c0,3.7,1.1,6.7,3.4,8.8c2.2,2.1,5.4,3.2,9.4,3.2
				c2.7,0,5-0.5,7-1.5c2-1,3.4-2.4,4.5-4.2c1-1.8,1.5-3.9,1.5-6.3v-21.1L215.9,155.3z"/>
		</defs>
		<clipPath id="SVGID_00000136393700646302883620000006938526036297844893_">
			<use xlink:href="#SVGID_00000145030448585138136980000016977077750873409707_"  style="overflow:visible;"/>
		</clipPath>
		
			<linearGradient id="SVGID_00000046329564821186388570000013768187178308645290_" gradientUnits="userSpaceOnUse" x1="75.2279" y1="-177.5797" x2="78.2404" y2="-177.5797" gradientTransform="matrix(0 8.5064 -8.5064 0 -1302.2903 -484.597)">
			<stop  offset="0" style="stop-color:#FCCB2B"/>
			<stop  offset="0.1613" style="stop-color:#FFF2B4"/>
			<stop  offset="0.2903" style="stop-color:#FFCD2A"/>
			<stop  offset="0.3452" style="stop-color:#FBC827"/>
			<stop  offset="0.4252" style="stop-color:#F2B71F"/>
			<stop  offset="0.5201" style="stop-color:#E29B15"/>
			<stop  offset="0.5802" style="stop-color:#D7870E"/>
			<stop  offset="0.668" style="stop-color:#E39B10"/>
			<stop  offset="0.775" style="stop-color:#F6B815"/>
			<stop  offset="0.8877" style="stop-color:#F7CB35"/>
			<stop  offset="0.9704" style="stop-color:#F8DA4C"/>
			<stop  offset="1" style="stop-color:#F8DA4C"/>
		</linearGradient>
		
			<path style="clip-path:url(#SVGID_00000136393700646302883620000006938526036297844893_);fill:url(#SVGID_00000046329564821186388570000013768187178308645290_);" d="
			M195.4,155.3h25.8v33h-25.8V155.3z"/>
	</g>
	<g>
		<defs>
			<polygon id="SVGID_00000132076103277254595990000006308150515203564958_" points="231.4,155.3 226.1,155.3 226.1,187.9 
				231.4,187.9 231.4,173.2 246.4,173.2 246.4,187.9 251.8,187.9 251.8,155.3 246.4,155.3 246.4,168.6 231.4,168.6 			"/>
		</defs>
		<clipPath id="SVGID_00000144334790412628358380000002102345066219254681_">
			<use xlink:href="#SVGID_00000132076103277254595990000006308150515203564958_"  style="overflow:visible;"/>
		</clipPath>
		
			<linearGradient id="SVGID_00000106840619889672041150000002346050868379179929_" gradientUnits="userSpaceOnUse" x1="74.9013" y1="-180.1014" x2="77.9135" y2="-180.1014" gradientTransform="matrix(0 8.392 -8.392 0 -1272.4797 -473.25)">
			<stop  offset="0" style="stop-color:#FCCB2B"/>
			<stop  offset="0.1613" style="stop-color:#FFF2B4"/>
			<stop  offset="0.2903" style="stop-color:#FFCD2A"/>
			<stop  offset="0.3452" style="stop-color:#FBC827"/>
			<stop  offset="0.4252" style="stop-color:#F2B71F"/>
			<stop  offset="0.5201" style="stop-color:#E29B15"/>
			<stop  offset="0.5802" style="stop-color:#D7870E"/>
			<stop  offset="0.668" style="stop-color:#E39B10"/>
			<stop  offset="0.775" style="stop-color:#F6B815"/>
			<stop  offset="0.8877" style="stop-color:#F7CB35"/>
			<stop  offset="0.9704" style="stop-color:#F8DA4C"/>
			<stop  offset="1" style="stop-color:#F8DA4C"/>
		</linearGradient>
		
			<path style="clip-path:url(#SVGID_00000144334790412628358380000002102345066219254681_);fill:url(#SVGID_00000106840619889672041150000002346050868379179929_);" d="
			M226.1,155.3h25.7v32.6h-25.7V155.3z"/>
	</g>
	<g>
		<defs>
			<path id="SVGID_00000012471066164933431140000017425583263403345081_" d="M262.2,159.8h4.6c7.3,0,10.9,3.9,10.9,11.7
				c0,8-3.9,11.9-11.8,11.9h-3.8V159.8z M256.9,155.3v32.6h9.1c5.6,0,9.9-1.4,12.9-4.3c3-2.8,4.5-7,4.5-12.3c0-5.1-1.4-9-4.3-11.8
				c-2.9-2.8-6.9-4.2-12.1-4.2L256.9,155.3z"/>
		</defs>
		<clipPath id="SVGID_00000160890319736452498310000001556774775530130076_">
			<use xlink:href="#SVGID_00000012471066164933431140000017425583263403345081_"  style="overflow:visible;"/>
		</clipPath>
		
			<linearGradient id="SVGID_00000093897831264661977050000013364150862172374408_" gradientUnits="userSpaceOnUse" x1="74.9013" y1="-182.5717" x2="77.9135" y2="-182.5717" gradientTransform="matrix(0 8.392 -8.392 0 -1261.9797 -473.25)">
			<stop  offset="0" style="stop-color:#FCCB2B"/>
			<stop  offset="0.1613" style="stop-color:#FFF2B4"/>
			<stop  offset="0.2903" style="stop-color:#FFCD2A"/>
			<stop  offset="0.3452" style="stop-color:#FBC827"/>
			<stop  offset="0.4252" style="stop-color:#F2B71F"/>
			<stop  offset="0.5201" style="stop-color:#E29B15"/>
			<stop  offset="0.5802" style="stop-color:#D7870E"/>
			<stop  offset="0.668" style="stop-color:#E39B10"/>
			<stop  offset="0.775" style="stop-color:#F6B815"/>
			<stop  offset="0.8877" style="stop-color:#F7CB35"/>
			<stop  offset="0.9704" style="stop-color:#F8DA4C"/>
			<stop  offset="1" style="stop-color:#F8DA4C"/>
		</linearGradient>
		
			<path style="clip-path:url(#SVGID_00000160890319736452498310000001556774775530130076_);fill:url(#SVGID_00000093897831264661977050000013364150862172374408_);" d="
			M256.9,155.3h26.5v32.6h-26.5V155.3z"/>
	</g>
</g>
</svg>
