<svg width="284" height="284" viewBox="0 0 284 284" fill="none" xmlns="http://www.w3.org/2000/svg">
<rect width="283.5" height="283.5" fill="#262830"/>
<path d="M68.8694 124.649C67.5561 126.059 64.9929 126.924 62.7817 126.924C56.3419 126.924 51.1514 122.022 51.1514 115.261C51.1514 108.5 56.3419 103.599 62.7817 103.599C67.1385 103.599 70.951 105.906 72.9708 109.558L67.4921 111C66.4342 109.719 64.5439 108.918 62.7817 108.918C59.0653 108.918 56.7581 111.577 56.7581 115.261C56.7581 119.202 59.4174 121.67 63.1026 121.67C66.6896 121.67 68.2604 119.811 68.9007 118.145V118.112H63.0058V113.787H73.483V126.475H68.8694C68.8694 125.001 68.9007 124.68 68.9007 124.649H68.8694Z" fill="white"/>
<path d="M91.3748 122.951H82.4998L81.2185 126.475H75.4189L84.3907 104.047H89.4846L98.4549 126.475H92.6568L91.3748 122.951ZM89.6453 118.24L88.0432 113.884C87.5623 112.602 86.9853 110.583 86.9526 110.583H86.9213C86.8886 110.583 86.3124 112.602 85.8321 113.884L84.2307 118.24H89.6453Z" fill="white"/>
<path d="M122.722 104.047V126.475H117.435V120.997C117.435 115.678 117.628 113.05 117.595 113.05H117.564C117.531 113.05 115.737 116.126 115.545 116.447L112.918 120.933H110.13L107.503 116.447C107.312 116.126 105.517 113.05 105.484 113.05H105.453C105.42 113.05 105.613 115.678 105.613 120.997V126.475H100.326V104.047H105.389L109.585 110.841C111.22 113.499 111.476 114.075 111.508 114.075H111.54C111.572 114.075 111.828 113.499 113.463 110.841L117.659 104.047H122.722Z" fill="white"/>
<path d="M144.236 121.445V126.475H127.735V104.047H144.043V109.079H133.117V112.762H141.673V117.472H133.117V121.445H144.236Z" fill="white"/>
<path d="M68.8317 131.846V133.657H60.9299V154.894H59.0197V133.657H51.1514V131.846H68.8317Z" fill="white"/>
<path d="M81.9777 131.385C88.5953 131.385 93.963 136.423 93.963 143.37C93.963 150.318 88.5953 155.355 81.9777 155.355C75.36 155.355 70.0264 150.318 70.0264 143.37C70.0264 136.423 75.36 131.385 81.9777 131.385ZM81.9777 153.51C87.5752 153.51 92.0201 149.363 92.0201 143.37C92.0201 137.313 87.5752 133.23 81.9777 133.23C76.3474 133.23 71.9686 137.313 71.9686 143.37C71.9686 149.363 76.3474 153.51 81.9777 153.51Z" fill="white"/>
<path d="M109.451 131.385C116.069 131.385 121.437 136.423 121.437 143.37C121.437 150.318 116.069 155.355 109.451 155.355C102.834 155.355 97.5 150.318 97.5 143.37C97.5 136.423 102.834 131.385 109.451 131.385ZM109.451 153.51C115.049 153.51 119.494 149.363 119.494 143.37C119.494 137.313 115.049 133.23 109.451 133.23C103.821 133.23 99.4422 137.313 99.4422 143.37C99.4422 149.363 103.821 153.51 109.451 153.51Z" fill="white"/>
<path d="M144.235 131.846V154.894H142.458L130.703 139.056C128.727 136.357 127.739 134.875 127.707 134.875H127.674C127.642 134.875 127.739 137.575 127.739 140.868V154.894H125.862V131.846H127.642L139.362 147.618C141.174 150.054 142.358 151.7 142.392 151.7H142.424C142.458 151.7 142.325 148.935 142.325 145.839V131.846H144.235Z" fill="white"/>
<path d="M155.261 94.1228V164.114L230.93 172.74L222.238 94.1228H155.261Z" fill="url(#paint0_linear_30_92)"/>
<path d="M161.915 130.578C161.915 122.996 164.764 116.524 170.464 111.163C176.162 105.805 183.06 103.124 191.161 103.124C195.377 103.124 199.49 103.691 203.494 104.823C207.498 105.956 210.306 108.257 210.306 108.257L205.878 121.93C205.316 121.612 205.541 121.376 202.602 120.589C199.663 119.805 196.746 119.412 193.853 119.412C190.689 119.412 187.98 120.574 185.725 122.894C183.472 125.216 182.344 128.04 182.344 131.363C182.344 134.482 183.274 137.151 185.137 139.37C186.999 141.591 189.209 142.7 191.765 142.7C193.831 142.7 195.575 142.057 196.998 140.77C198.424 139.484 199.137 137.863 199.137 135.904L190.588 137.987L191.293 125.558H216.871C217.321 127.243 217.544 128.825 217.544 130.304C217.544 137.665 214.824 143.96 209.383 149.19C203.944 154.421 197.385 157.036 189.713 157.036C182.041 157.036 175.49 154.455 170.059 149.293C164.629 144.131 161.915 137.893 161.915 130.578Z" fill="white"/>
<path d="M216.219 165.238H213.47V162.018H211.128V165.238H208.379V156.191H211.128V159.4H213.47V156.191H216.219V165.238Z" fill="white"/>
<path d="M221.306 156.571C223.674 156.571 225.591 158.264 225.591 160.751C225.591 163.236 223.674 164.859 221.306 164.859H217.683V156.571H221.306ZM221.306 163C222.49 163 223.52 162.171 223.52 160.751C223.52 159.329 222.49 158.43 221.306 158.43H219.672V163H221.306Z" fill="white"/>
<path d="M221.306 165.238H217.303V156.191H221.306C223.966 156.191 225.972 158.151 225.972 160.751C225.972 163.351 224.009 165.238 221.306 165.238ZM220.052 162.62H221.306C222.189 162.62 223.14 162.035 223.14 160.751C223.14 159.476 222.217 158.81 221.306 158.81H220.052V162.62Z" fill="white"/>
<path d="M60.4432 181.442V189.221H59.2316V186.254C59.2316 184.843 59.2984 183.509 59.2871 183.509H59.2757C59.265 183.509 58.7869 184.331 58.587 184.688L57.0752 187.299H56.4307L54.9189 184.688C54.719 184.331 54.2523 183.509 54.2416 183.509H54.2302C54.2188 183.509 54.2743 184.843 54.2743 186.254V189.221H53.0635V181.442H54.2188L55.986 184.42C56.6313 185.487 56.7416 185.754 56.7529 185.754H56.7643C56.7757 185.754 56.8867 185.487 57.5199 184.42L59.287 181.442H60.4432Z" fill="white"/>
<path d="M62.4023 181.442H63.6359V189.221H62.4023V181.442Z" fill="white"/>
<path d="M70.8274 188.066V189.222H65.5928V181.442H66.8264V188.066H70.8274Z" fill="white"/>
<path d="M77.2639 188.066V189.222H72.0293V181.442H73.2629V188.066H77.2639Z" fill="white"/>
<path d="M83.8784 188.066V189.222H78.4658V181.442H83.8122V182.598H79.6994V184.62H82.9784V185.71H79.6994V188.066H83.8784Z" fill="white"/>
<path d="M92.1603 181.442V189.221H91.0043L88.1707 185.398C87.4813 184.454 86.814 183.487 86.8033 183.487H86.7927C86.7813 183.487 86.814 184.531 86.814 185.92V189.221H85.5811V181.442H86.7365L89.5928 185.276C90.1484 186.032 90.9267 187.121 90.9374 187.121H90.9488C90.9602 187.121 90.9268 185.977 90.9268 184.754V181.442H92.1603Z" fill="white"/>
<path d="M100.698 181.442V189.221H99.5423L96.7088 185.398C96.0194 184.454 95.3528 183.487 95.3414 183.487H95.3308C95.3194 183.487 95.3528 184.531 95.3528 185.92V189.221H94.1191V181.442H95.2745L98.1309 185.276C98.6865 186.032 99.4648 187.121 99.4755 187.121H99.4869C99.4983 187.121 99.4649 185.977 99.4649 184.754V181.442H100.698Z" fill="white"/>
<path d="M102.657 181.442H103.891V189.221H102.657V181.442Z" fill="white"/>
<path d="M110.526 187.455H106.891L106.169 189.222H104.847L108.136 181.442H109.281L112.571 189.222H111.248L110.526 187.455ZM110.081 186.376L109.081 183.942C108.914 183.52 108.725 182.931 108.714 182.931H108.703C108.692 182.931 108.503 183.52 108.336 183.942L107.336 186.376H110.081Z" fill="white"/>
<path d="M118.765 188.066V189.222H113.53V181.442H114.764V188.066H118.765Z" fill="white"/>
<path d="M124.023 183.709C123.845 182.842 123.112 182.354 122.278 182.354C121.412 182.354 120.823 182.776 120.823 183.397C120.823 184.142 121.801 184.387 122.8 184.699C123.912 185.054 125.302 185.598 125.302 187.055C125.302 188.399 124.134 189.377 122.401 189.377C120.744 189.377 119.655 188.421 119.322 187.065L120.5 186.743C120.645 187.554 121.323 188.277 122.445 188.277C123.434 188.277 124.012 187.766 124.012 187.099C124.012 186.132 122.812 185.931 121.711 185.565C120.8 185.254 119.567 184.82 119.567 183.465C119.567 182.253 120.734 181.286 122.334 181.286C123.779 181.286 124.913 182.142 125.201 183.387L124.023 183.709Z" fill="white"/>
<path d="M135.551 188.244C135.162 188.711 134.206 189.377 132.951 189.377C130.717 189.377 128.916 187.677 128.916 185.331C128.916 182.986 130.717 181.286 132.951 181.286C134.517 181.308 135.796 182.109 136.484 183.331L135.229 183.665C134.762 182.942 133.884 182.498 132.951 182.498C131.338 182.498 130.182 183.653 130.182 185.331C130.182 187.043 131.405 188.177 133.006 188.177C134.44 188.177 135.284 187.366 135.562 186.733V186.076H133.295V185.065H136.618V189.233H135.551C135.551 188.454 135.562 188.255 135.562 188.244H135.551Z" fill="white"/>
<path d="M143.1 187.455H139.466L138.743 189.222H137.421L140.711 181.442H141.855L145.145 189.222H143.822L143.1 187.455ZM142.656 186.376L141.655 183.942C141.488 183.52 141.3 182.931 141.288 182.931H141.278C141.266 182.931 141.077 183.52 140.91 183.942L139.91 186.376H142.656Z" fill="white"/>
<path d="M153.483 181.442V189.221H152.272V186.254C152.272 184.843 152.338 183.509 152.327 183.509H152.316C152.305 183.509 151.827 184.331 151.627 184.688L150.116 187.299H149.471L147.96 184.688C147.76 184.331 147.292 183.509 147.282 183.509H147.27C147.26 183.509 147.315 184.843 147.315 186.254V189.221H146.104V181.442H147.26L149.027 184.42C149.671 185.487 149.782 185.754 149.794 185.754H149.804C149.816 185.754 149.927 185.487 150.561 184.42L152.327 181.442H153.483Z" fill="white"/>
<path d="M155.441 181.442H156.675V189.221H155.441V181.442Z" fill="white"/>
<path d="M165.211 181.442V189.221H164.055L161.221 185.398C160.532 184.454 159.865 183.487 159.854 183.487H159.843C159.832 183.487 159.865 184.531 159.865 185.92V189.221H158.632V181.442H159.787L162.644 185.276C163.2 186.032 163.977 187.121 163.988 187.121H164C164.011 187.121 163.977 185.977 163.977 184.754V181.442H165.211Z" fill="white"/>
<path d="M173.205 188.244C172.816 188.711 171.861 189.377 170.605 189.377C168.371 189.377 166.57 187.677 166.57 185.331C166.57 182.986 168.371 181.286 170.605 181.286C172.171 181.308 173.45 182.109 174.138 183.331L172.883 183.665C172.416 182.942 171.538 182.498 170.605 182.498C168.993 182.498 167.837 183.653 167.837 185.331C167.837 187.043 169.06 188.177 170.66 188.177C172.094 188.177 172.938 187.366 173.216 186.733V186.076H170.949V185.065H174.272V189.233H173.205C173.205 188.454 173.216 188.255 173.216 188.244H173.205Z" fill="white"/>
<path d="M184.489 183.665C184.022 182.942 183.144 182.498 182.211 182.498C180.599 182.498 179.443 183.653 179.443 185.332C179.443 187.032 180.643 188.155 182.211 188.155C183.255 188.155 184.189 187.599 184.633 186.777L185.867 187.11C185.212 188.488 183.833 189.377 182.211 189.377C179.976 189.377 178.176 187.677 178.176 185.332C178.176 182.987 179.976 181.286 182.211 181.286C183.733 181.286 185.045 182.098 185.745 183.331L184.489 183.665Z" fill="white"/>
<path d="M193.282 181.442V189.222H192.048V185.81H188.247V189.222H187.014V181.442H188.247V184.665H192.048V181.442H193.282Z" fill="white"/>
<path d="M199.921 187.455H196.286L195.564 189.222H194.241L197.531 181.442H198.676L201.965 189.222H200.643L199.921 187.455ZM199.476 186.376L198.476 183.942C198.308 183.52 198.12 182.931 198.109 182.931H198.098C198.087 182.931 197.897 183.52 197.731 183.942L196.731 186.376H199.476Z" fill="white"/>
<path d="M209.503 181.442V189.221H208.347L205.513 185.398C204.824 184.454 204.157 183.487 204.146 183.487H204.135C204.124 183.487 204.157 184.531 204.157 185.92V189.221H202.924V181.442H204.079L206.936 185.276C207.492 186.032 208.27 187.121 208.28 187.121H208.292C208.303 187.121 208.269 185.977 208.269 184.754V181.442H209.503Z" fill="white"/>
<path d="M218.04 181.442V189.221H216.884L214.05 185.398C213.361 184.454 212.695 183.487 212.683 183.487H212.672C212.661 183.487 212.695 184.531 212.695 185.92V189.221H211.461V181.442H212.616L215.473 185.276C216.028 186.032 216.807 187.121 216.817 187.121H216.828C216.84 187.121 216.806 185.977 216.806 184.754V181.442H218.04Z" fill="white"/>
<path d="M225.412 188.066V189.222H219.999V181.442H225.345V182.598H221.233V184.62H224.512V185.71H221.233V188.066H225.412Z" fill="white"/>
<path d="M232.349 188.066V189.222H227.114V181.442H228.348V188.066H232.349Z" fill="white"/>
<defs>
<linearGradient id="paint0_linear_30_92" x1="155.261" y1="80.77" x2="253.268" y2="80.77" gradientUnits="userSpaceOnUse">
<stop stop-color="#E94F29"/>
<stop offset="1" stop-color="#E62C31"/>
</linearGradient>
</defs>
</svg>
