<?xml version="1.0" encoding="UTF-8"?>
<svg xmlns="http://www.w3.org/2000/svg" version="1.1" viewBox="0 0 283.5 283.5">
  <defs>
    <style>
      .cls-1 {
        fill: #0d083a;
      }

      .cls-2 {
        fill: #fff;
      }

      .cls-3 {
        fill: #fff70f;
      }
    </style>
  </defs>
  <!-- Generator: Adobe Illustrator 28.7.1, SVG Export Plug-In . SVG Version: 1.2.0 Build 142)  -->
  <g>
    <g id="Vrstva_1">
      <g id="Vrstva_1-2" data-name="Vrstva_1">
        <g id="Vrstva_1-2">
          <g id="Vrstva_1-2-2" data-name="Vrstva_1-2">
            <g id="Vrstva_1-2-2">
              <rect class="cls-1" width="283.5" height="283.5"/>
            </g>
          </g>
        </g>
      </g>
      <g>
        <path id="path7" class="cls-3" d="M199,156.3h-4.3c-.8,0-1.6.7-1.7,1.4l-.8,4.3c-.1.8.4,1.4,1.2,1.4h4.3c.8,0,1.6-.7,1.7-1.4l.7-4.3c.2-.8-.4-1.4-1.2-1.4Z"/>
        <path id="path8" class="cls-3" d="M221.3,138.5h-22.1c-.9,0-1.7.7-1.9,1.6l-.6,3.6c0,.4,0,.9.3,1.2.3.3.7.5,1.1.5h6.8l-3,16.7c0,.4,0,.9.3,1.2.2.3.6.5,1.1.5h4.6c.9,0,1.7-.7,1.9-1.5l3-16.7s0,0,0,0h4.8l3.6-6.8Z"/>
        <path id="text7" class="cls-3" d="M244.9,138.5h-5.6c-.7,0-1.4.4-1.7,1.1l-8.3,15.4s0,0-.1,0c0,0,0,0,0,0l-2.7-15.3c-.1-.7-.7-1.1-1.4-1.1h-1.3l-4.4,8.2q.9,5.2,2,11.1l.8,4.6c.1.7.7,1.1,1.4,1.1h8.4c.7,0,1.4-.4,1.7-1.1l2.1-4c4.2-7.9,4.2-7.9,8.1-15.2l1.8-3.4h0c.2-.3.2-.6,0-1-.2-.3-.4-.5-.8-.5Z"/>
        <path id="polygon1" class="cls-2" d="M146.2,130.6l11.1,11.1-11.1,11.1v10.7h10.7l11.1-11.1,11.1,11.1h10.7v-10.7l-11.1-11.1,11.1-11.1v-10.7h-10.7l-11.1,11-11-11h-10.8v10.7Z"/>
        <path id="polygon2" class="cls-2" d="M100.3,120v43.6h14.6v-29.2h14.4v29.2h14.6v-43.6h-43.6Z"/>
        <path id="path2" class="cls-2" d="M37.6,119.9v43.6h43.6v-28.1h-27.7c-.2,0-.3.1-.3.3h0v11.8c0,.2.2.3.3.3h13c.8,0,1.2.5,1.2,1.1s-.5,1.1-1.2,1.1h-14.5c-.7,0-1.2-.6-1.2-1.2v-14.5c0-.6.5-1.2,1.2-1.2h29.1v-13.3h-43.6Z"/>
        <path id="rect2" class="cls-2" d="M83.5,135.5h14.6v28.1h-14.6v-28.1Z"/>
        <path id="rect11" class="cls-3" d="M83.5,120h14.6v13.3h-14.6v-13.3Z"/>
      </g>
    </g>
  </g>
</svg>