<svg width="500" height="500" viewBox="0 0 500 500" fill="none" xmlns="http://www.w3.org/2000/svg">
<g clip-path="url(#clip0_7_52)">
<rect width="500" height="500" fill="white"/>
<rect width="500" height="500" fill="#10231F"/>
<path d="M298.111 155.365C312.698 169.269 322.905 188.858 323.78 209.299C323.805 211.551 323.806 213.803 323.784 216.055C323.774 217.246 323.765 218.436 323.755 219.663C323.375 237.665 317.774 254.174 305.995 267.891C303.468 271.033 302.327 272.799 302.693 276.882C303.056 278.663 303.468 280.433 303.906 282.195C304.328 284.242 304.749 286.288 305.155 288.338C305.573 290.419 306.022 292.493 306.471 294.567C308.134 304.442 308.134 304.442 305.928 308.283C302.97 309.978 300.806 309.7 297.438 309.441C294.349 308.124 294.349 308.124 291.175 306.304C289.433 305.338 289.433 305.338 287.656 304.352C285.239 302.978 282.825 301.598 280.413 300.214C273.728 296.374 273.728 296.374 266.281 295.308C265.178 295.656 264.074 296.004 262.938 296.363C239.34 300.474 218.241 298.209 197.644 285.163C178.45 271.451 166.792 253.024 162.011 229.964C159.198 207.363 163.478 185.418 177.024 166.944C191.52 149.386 210.558 136.339 233.613 134.117C257.943 132.675 279.537 139.275 298.111 155.365ZM189.49 172.606C178.165 188.204 172.583 204.899 174.531 224.434C177.477 243.75 186.977 260.578 202.563 272.387C218.577 283.603 236.161 287.09 255.391 284.375C258.255 283.649 260.985 282.824 263.75 281.782C269.747 280.106 273.609 281.254 278.852 284.205C279.56 284.621 280.267 285.036 280.996 285.465C285.71 288.557 285.71 288.557 290.969 289.824C290.735 287.767 290.735 287.767 290.497 285.669C290.412 284.771 290.328 283.874 290.24 282.949C289.94 280.004 289.94 280.004 289.238 277.116C288.313 272.233 288.024 269.314 290.678 264.983C292.38 262.94 294.124 260.933 295.905 258.96C308.692 244.657 311.094 226.893 310.517 208.413C309.691 193.85 302.474 180.727 293.125 169.941C292.551 169.271 291.977 168.601 291.386 167.911C278.62 154.021 260.886 148.225 242.655 146.714C221.969 147.41 202.743 156.474 189.49 172.606Z" fill="#FFD400"/>
<path d="M152.969 320.34C157.95 320.34 162.931 320.34 168.062 320.34C166.284 326.094 164.505 331.849 162.672 337.777C167.475 337.238 167.475 337.238 172.375 336.688C172.486 335.609 172.597 334.53 172.712 333.418C173.354 328.75 174.947 324.699 176.688 320.34C181.313 320.34 185.938 320.34 190.703 320.34C189.992 323.577 189.28 326.814 188.547 330.148C190.326 326.912 192.105 323.675 193.938 320.34C199.986 320.34 206.034 320.34 212.266 320.34C212.799 325.735 212.799 325.735 213.344 331.238C214.411 327.642 215.478 324.045 216.578 320.34C221.559 320.34 226.54 320.34 231.672 320.34C229.893 326.094 228.114 331.849 226.281 337.777C231.084 337.238 231.084 337.238 235.984 336.688C236.096 335.609 236.207 334.53 236.321 333.418C236.963 328.75 238.557 324.699 240.297 320.34C244.922 320.34 249.547 320.34 254.312 320.34C253.601 323.577 252.889 326.814 252.156 330.148C253.935 326.912 255.714 323.675 257.547 320.34C263.595 320.34 269.643 320.34 275.875 320.34C275.875 335.085 275.875 349.831 275.875 365.023C271.606 365.023 267.336 365.023 262.938 365.023C262.938 362.506 262.938 359.988 262.938 357.395C261.87 357.934 261.87 357.934 260.781 358.484C257.9 358.631 255.043 358.531 252.156 358.484C251.089 361.721 251.089 361.721 250 365.023C243.24 365.023 236.48 365.023 229.516 365.023C230.459 354.534 230.459 354.534 231.672 350.855C228.47 350.855 225.268 350.855 221.969 350.855C221.769 352.845 221.769 352.845 221.564 354.874C221.165 358.843 220.296 361.077 218.734 365.023C212.33 365.023 205.926 365.023 199.328 365.023C199.328 362.506 199.328 359.988 199.328 357.395C198.261 357.934 198.261 357.934 197.172 358.484C194.291 358.631 191.434 358.531 188.547 358.484C187.835 360.642 187.124 362.8 186.391 365.023C179.631 365.023 172.871 365.023 165.906 365.023C166.85 354.534 166.85 354.534 168.062 350.855C163.793 351.395 163.793 351.395 159.438 351.945C159.217 352.798 158.996 353.651 158.768 354.529C158.332 356.184 158.332 356.184 157.888 357.871C157.6 358.971 157.312 360.071 157.016 361.205C156.203 363.934 156.203 363.934 155.125 365.023C152.948 365.102 150.768 365.115 148.589 365.092C147.398 365.082 146.207 365.072 144.98 365.062C143.598 365.043 143.598 365.043 142.188 365.023C143.198 360.41 144.214 355.798 145.234 351.188C145.58 349.624 145.924 348.06 146.266 346.495C148.199 337.671 150.257 328.96 152.969 320.34ZM186.391 332.328C187.469 334.508 187.469 334.508 187.469 334.508L186.391 332.328ZM250 332.328C251.078 334.508 251.078 334.508 251.078 334.508L250 332.328ZM199.328 334.508C197.549 338.104 195.77 341.701 193.938 345.406C196.428 345.766 198.918 346.126 201.484 346.496C201.543 344.907 201.584 343.318 201.619 341.728C201.657 340.4 201.657 340.4 201.695 339.046C201.715 336.455 201.715 336.455 199.328 334.508ZM262.938 334.508C261.159 338.104 259.38 341.701 257.547 345.406C260.037 345.766 262.528 346.126 265.094 346.496C265.152 344.907 265.194 343.318 265.229 341.728C265.266 340.4 265.266 340.4 265.304 339.046C265.324 336.455 265.324 336.455 262.938 334.508Z" fill="#66C7BD"/>
<path d="M152.969 320.34C157.95 320.34 162.931 320.34 168.062 320.34C166.284 326.094 164.505 331.849 162.672 337.777C167.475 337.238 167.475 337.238 172.375 336.688C172.486 335.609 172.597 334.53 172.712 333.418C173.354 328.75 174.947 324.699 176.688 320.34C181.313 320.34 185.938 320.34 190.703 320.34C189.992 323.577 189.28 326.814 188.547 330.148C190.326 326.912 192.105 323.675 193.938 320.34C199.986 320.34 206.034 320.34 212.266 320.34C212.717 335.88 212.04 350.2 206.875 365.023C204.385 365.023 201.894 365.023 199.328 365.023C199.328 362.506 199.328 359.988 199.328 357.395C198.261 357.934 198.261 357.934 197.172 358.484C194.291 358.631 191.434 358.531 188.547 358.484C187.835 360.642 187.124 362.8 186.391 365.023C179.631 365.023 172.871 365.023 165.906 365.023C166.85 354.534 166.85 354.534 168.062 350.855C163.793 351.395 163.793 351.395 159.438 351.945C159.217 352.798 158.996 353.651 158.768 354.529C158.332 356.184 158.332 356.184 157.888 357.871C157.6 358.971 157.312 360.071 157.016 361.205C156.203 363.934 156.203 363.934 155.125 365.023C152.948 365.102 150.768 365.115 148.589 365.092C147.398 365.082 146.207 365.072 144.98 365.062C143.598 365.043 143.598 365.043 142.188 365.023C143.198 360.41 144.214 355.798 145.234 351.188C145.58 349.624 145.924 348.06 146.266 346.495C148.199 337.671 150.257 328.96 152.969 320.34ZM186.391 332.328C187.469 334.508 187.469 334.508 187.469 334.508L186.391 332.328ZM199.328 334.508C197.549 338.104 195.77 341.701 193.938 345.406C196.428 345.766 198.918 346.126 201.484 346.496C201.543 344.907 201.584 343.318 201.619 341.728C201.657 340.4 201.657 340.4 201.695 339.046C201.715 336.455 201.715 336.455 199.328 334.508Z" fill="#93D2C1"/>
<path d="M290.969 320.34C304.844 320.34 318.72 320.34 333.016 320.34C332.66 326.454 332.304 332.568 331.938 338.867C336.741 329.696 336.741 329.696 341.641 320.34C346.977 320.34 352.314 320.34 357.812 320.34C356.612 322.453 355.411 324.566 354.174 326.743C349.276 335.387 344.496 344.097 339.723 352.812C337.491 356.885 335.253 360.954 333.016 365.023C328.035 365.023 323.054 365.023 317.922 365.023C317.922 354.953 317.922 344.883 317.922 334.508C315.254 333.968 315.254 333.968 312.531 333.418C312.275 334.512 312.275 334.512 312.013 335.627C309.634 345.527 306.799 355.268 303.906 365.023C299.637 365.023 295.367 365.023 290.969 365.023C291.611 357.683 292.964 350.825 294.81 343.703C295.062 342.708 295.314 341.713 295.574 340.687C296.189 338.262 296.811 335.84 297.438 333.418C294.591 333.418 291.745 333.418 288.812 333.418C288.965 331.851 289.124 330.284 289.284 328.718C289.372 327.846 289.459 326.973 289.549 326.074C289.891 323.609 289.891 323.609 290.969 320.34Z" fill="#3FB7B7"/>
<path d="M199.261 219.734C203.05 220.124 203.477 220.471 205.797 223.344C206.804 225.229 207.766 227.139 208.694 229.065C213.832 238.772 221.45 244.534 231.672 248.065C241.848 250.979 251.858 249.721 261.274 244.864C270.314 239.15 275.745 231.902 280.188 222.254C282.344 220.074 282.344 220.074 285.511 219.734C288.813 220.074 288.813 220.074 290.628 221.458C292.389 223.799 292.446 224.799 292.182 227.703C290.599 238.079 283.265 246.187 275.597 252.761C262.536 262.428 248.574 265.568 232.628 263.161C217.608 259.833 206.177 251.931 197.728 239.1C194.879 234.432 192.744 230.85 193.062 225.183C194.272 221.135 195.056 220.186 199.261 219.734Z" fill="#FFD400"/>
<path d="M257.547 320.34C263.595 320.34 269.643 320.34 275.875 320.34C275.875 335.085 275.875 349.831 275.875 365.023C271.606 365.023 267.336 365.023 262.938 365.023C262.938 362.506 262.938 359.988 262.938 357.395C261.87 357.934 261.87 357.934 260.781 358.484C257.9 358.631 255.043 358.531 252.156 358.484C251.445 360.642 250.733 362.8 250 365.023C246.086 365.023 242.173 365.023 238.141 365.023C240.537 357.359 243.444 350.043 246.631 342.682C247.085 341.613 247.54 340.543 248.008 339.442C250.851 332.843 253.991 326.576 257.547 320.34ZM262.938 334.508C261.159 338.104 259.38 341.701 257.547 345.406C260.037 345.766 262.528 346.126 265.094 346.496C265.152 344.907 265.194 343.318 265.229 341.728C265.266 340.4 265.266 340.4 265.304 339.046C265.324 336.455 265.324 336.455 262.938 334.508Z" fill="#4FC2BC"/>
<path d="M193.938 320.34C199.986 320.34 206.034 320.34 212.266 320.34C212.717 335.88 212.04 350.2 206.875 365.023C204.385 365.023 201.894 365.023 199.328 365.023C199.328 362.506 199.328 359.988 199.328 357.395C198.261 357.934 198.261 357.934 197.172 358.484C194.291 358.631 191.434 358.531 188.547 358.484C187.835 360.642 187.124 362.8 186.391 365.023C182.477 365.023 178.563 365.023 174.531 365.023C179.34 349.296 186.068 334.715 193.938 320.34ZM199.328 334.508C197.549 338.104 195.77 341.701 193.938 345.406C196.428 345.766 198.918 346.126 201.484 346.496C201.543 344.907 201.584 343.318 201.619 341.728C201.657 340.4 201.657 340.4 201.695 339.046C201.715 336.455 201.715 336.455 199.328 334.508Z" fill="#84CEC0"/>
<path d="M290.969 320.34C300.575 320.34 310.181 320.34 320.078 320.34C319.722 324.656 319.367 328.971 319 333.418C316.865 333.418 314.731 333.418 312.531 333.418C312.275 334.512 312.275 334.512 312.013 335.627C309.634 345.527 306.799 355.268 303.906 365.023C299.637 365.023 295.367 365.023 290.969 365.023C291.611 357.683 292.964 350.825 294.81 343.703C295.062 342.708 295.314 341.713 295.574 340.687C296.189 338.262 296.811 335.84 297.438 333.418C294.591 333.418 291.745 333.418 288.812 333.418C288.965 331.851 289.124 330.284 289.284 328.718C289.372 327.846 289.459 326.973 289.549 326.074C289.891 323.609 289.891 323.609 290.969 320.34Z" fill="#49C1BD"/>
<path d="M228.438 189.559C231.604 191.806 231.604 191.806 233.828 195.008C233.9 199.196 233.633 201.538 230.998 204.816C227.235 206.418 224.781 205.889 220.891 204.816C218.1 202.36 217.718 200.887 217.185 197.187C217.656 193.918 217.656 193.918 219.408 191.33C222.777 188.999 224.429 188.814 228.438 189.559Z" fill="#FFD300"/>
<path d="M262.938 189.559C265.498 191.261 265.498 191.261 267.25 193.918C267.708 197.686 268.006 200.274 266.037 203.59C263.187 205.319 260.853 205.702 257.547 205.906C254.583 204.853 253.569 204.402 252.156 201.547C251.533 193.604 251.533 193.604 253.908 190.648C257.227 189.236 259.368 189.032 262.938 189.559Z" fill="#FFD400"/>
</g>
<defs>
<clipPath id="clip0_7_52">
<rect width="500" height="500" fill="white"/>
</clipPath>
</defs>
</svg>
