<svg width="500" height="500" viewBox="0 0 500 500" fill="none" xmlns="http://www.w3.org/2000/svg">
<g clip-path="url(#clip0_8_223)">
<rect width="500" height="500" fill="white"/>
<rect width="500" height="500" fill="#22ADC3"/>
<path d="M134.519 242.335H111V327.978H134.519V242.335Z" fill="white"/>
<path d="M182.031 242.335H155.899V327.978H182.031V242.335Z" fill="white"/>
<path d="M158.75 272.999H131.43V294.004H158.75V272.999Z" fill="white"/>
<path d="M255.974 255.191C237.859 232.915 185.365 240.112 185.199 284.313C185.006 335.812 241.046 335.009 258.938 316.365V278.624H223.736V297.08H235.594V303.094C230.031 306.845 210.357 307.618 210.952 284.313C211.431 265.563 229.697 261.934 242.634 273.025L255.974 255.191Z" fill="white"/>
<path d="M259.123 243.372H333.233L348.055 289.2L362.135 243.579H389L359.542 327.77H336.012L314.52 265.767H302.107V327.563H279.689V265.767H258.938L259.123 243.372Z" fill="white"/>
<path d="M111.275 237.15H295.066L203.171 171L111.275 237.15Z" fill="white"/>
</g>
<defs>
<clipPath id="clip0_8_223">
<rect width="500" height="500" fill="white"/>
</clipPath>
</defs>
</svg>
