<?xml version="1.0" encoding="utf-8"?>
<!-- Generator: Adobe Illustrator 28.3.0, SVG Export Plug-In . SVG Version: 6.00 Build 0)  -->
<svg version="1.1" id="Vrstva_1" xmlns="http://www.w3.org/2000/svg" xmlns:xlink="http://www.w3.org/1999/xlink" x="0px" y="0px"
	 viewBox="0 0 283.5 283.5" style="enable-background:new 0 0 283.5 283.5;" xml:space="preserve">
<style type="text/css">
	.st0{fill:#FFFFFF;}
	.st1{fill:#EA0001;}
</style>
<rect class="st0" width="283.5" height="283.5"/>
<g>
	<path class="st1" d="M246.6,49.8c-2.8,0-5.5,0-8.1,0c-0.3,0-0.7,0.5-0.8,0.9c-0.8,2.6-1.4,5.2-2.2,7.8c-0.8,3-1.6,6-2.4,8.9
		c-0.4-0.4-0.5-0.8-0.7-1.3c-1.4-5.1-2.9-10.3-4.3-15.4c-0.1-0.4-0.5-0.9-0.8-1c-2.6-0.1-5.3,0-7.9,0c0,0.3,0,0.5,0.1,0.7
		c3.1,9.3,6.2,18.6,9.2,27.9c0.2,0.6,0.6,0.7,1.1,0.7c1.9,0,3.9-0.1,5.8,0c0.9,0,1.3-0.2,1.6-1.1c1.8-5.7,3.8-11.3,5.7-17
		C244.1,57.3,245.3,53.7,246.6,49.8z M218.9,72.5c-1.3,0.1-2.3,0.2-3.4,0.2c-1.8,0-2.7-0.8-3-2.5c-0.1-0.4-0.1-0.9-0.1-1.3
		c0-3.9,0-7.8,0-11.7c0-0.4,0-0.8,0.1-1.2c2.1,0,4.2,0,6.3,0c-0.4-1.2-0.8-2.4-1.2-3.5c-0.9-2.7-0.9-2.7-3.7-2.6
		c-1.2,0-1.6-0.2-1.5-1.5c0.1-1.9,0-3.8,0-5.7c-2.8,0-5.5,0-8.3,0c0,2.4,0,4.8,0,7.2c-1.3,0-2.4,0-3.5,0c0,2.1,0,4.1,0,6.1
		c1.1,0,2.2,0,3.3,0c0,0.5,0,1,0,1.4c0,4.2,0,8.5,0,12.7c0,5,2.5,8.3,6.7,9.2c2.6,0.6,5.1,0.1,7.6-0.3c0.2,0,0.6-0.4,0.6-0.7
		C218.9,76.4,218.9,74.5,218.9,72.5z"/>
	<path class="st1" d="M193.9,36.7c-12.9,16.4-8.7,37.3,2.7,48.8c11.1,11.2,32.6,16.2,49.4,2.5c22.5,41.8,18,103.3-28.2,142.9
		c-46.5,39.9-115.2,37.1-158.5-5.8c-43.4-43-46.9-111.4-7.9-158.1C90.8,19.7,152.5,15.1,193.9,36.7z M215.5,130.6c0,0.6,0,1,0,1.5
		c0,7.8,0,15.6,0,23.4c0,2.7-0.1,2.8-2.8,3c-0.2,0-0.3,0-0.5,0c-2.2,0.1-3.3-0.7-3.7-2.9c-0.3-1.5-0.4-3-0.4-4.6c0-6.3,0-12.7,0-19
		c0-0.5,0-0.9,0-1.4c-5,0-9.8,0-14.6,0c0,2.5,0,4.9,0,7.5c1.4,0,2.8,0,4.2,0c0,0.7,0,1.2,0,1.7c0.1,5.7,0,11.3,0.3,17
		c0.3,6.1,3.9,9.4,10,9.7c2.6,0.1,5.2,0,7.6-1.1c0.3,2.9-0.8,5.8-4.2,6.2c-2.4,0.3-4.8,0.5-7.2,0.7c-1.8,0.1-3.5,0-5.4,0
		c0,2.8,0,5.4,0,8.1c0.2,0.1,0.3,0.1,0.4,0.1c5,0,9.9,0.2,14.8-0.9c5.5-1.1,9.7-3.9,11.2-9.7c0.5-2.1,0.8-4.4,0.8-6.5
		c0.1-10.6,0-21.2,0-31.8c0-0.4,0-0.8,0-1.2C222.4,130.6,219,130.6,215.5,130.6z M127.7,124.4c0,13.7,0,27.3,0,41
		c5.8,1.1,11.5,1.7,17.2,1.2c6.3-0.6,9.9-3.6,10.9-9.4c1-5.8,1-11.7,0.1-17.5c-0.8-4.6-3.4-8-8.2-9.1c-1.9-0.4-4-0.4-6-0.4
		c-1.2,0-2.4,0.3-3.7,0.5c0-4.6,0-9.1,0-13.7c-4.9,0-9.8,0-14.6,0c0,2.5,0,4.9,0,7.5C124.8,124.4,126.2,124.4,127.7,124.4z
		 M162,124.3c0,13.8,0,27.4,0,41c5.7,1.1,11.4,1.6,17,1.2c6.2-0.5,10.1-3.6,11-9.3c1-5.9,1-11.8,0-17.7c-0.7-4.2-3-7.5-7.3-8.7
		c-2.1-0.6-4.4-0.6-6.6-0.7c-1.2,0-2.4,0.3-3.8,0.5c0-4.6,0-9.1,0-13.6c-5,0-9.8,0-14.7,0c0,2.2,0,4.3,0,6.4c0,0.8,0.3,1,1,1
		C159.7,124.3,160.8,124.3,162,124.3z M57.7,165.9c3.5,0,6.9,0,10.3,0c0-0.6,0-1.1,0-1.5c0-7.7,0-15.3,0-23c0-3.1,0.3-3.4,3.5-3.4
		c0.3,0,0.6,0.1,0.9,0.1c1.8,0.1,2.9,1.1,3.2,2.8c0.2,1.3,0.4,2.6,0.4,4c0,6.5,0,13.1,0,19.6c0,0.5,0,0.9,0,1.4c3.5,0,6.9,0,10.4,0
		c0-0.5,0-0.9,0-1.4c0-6.1,0-12.2,0-18.3c0-2.2-0.1-4.5-0.2-6.7c-0.4-5-2.9-8.3-7.3-9.1c-2.1-0.4-4.3-0.4-6.4-0.4
		c-1.4,0-2.9,0.3-4.5,0.5c0-4.6,0-9.1,0-13.7c-3.5,0-6.9,0-10.3,0C57.7,133.3,57.7,149.6,57.7,165.9z M122.1,148.3
		c-0.1,0-0.1,0-0.2,0c0-2,0.1-4.1,0-6.1c-0.3-6.4-4-10.8-10.3-11.7c-2.6-0.4-5.3-0.4-8-0.2c-6.1,0.5-10.2,4-11.1,9.9
		c-0.8,5.6-0.8,11.2,0.1,16.8c0.8,4.7,3.7,7.7,8.3,9c4.1,1.1,8.2,1.1,12.2,0c5-1.4,7.9-4.7,8.6-9.8C122,153.5,122,150.9,122.1,148.3
		z"/>
	<path class="st1" d="M246.6,49.8c-1.3,3.9-2.5,7.5-3.7,11.2c-1.9,5.7-3.8,11.3-5.7,17c-0.3,0.9-0.7,1.1-1.6,1.1
		c-1.9-0.1-3.9,0-5.8,0c-0.6,0-0.9-0.1-1.1-0.7c-3.1-9.3-6.1-18.6-9.2-27.9c-0.1-0.2-0.1-0.4-0.1-0.7c2.7,0,5.3,0,7.9,0
		c0.3,0,0.7,0.6,0.8,1c1.5,5.1,2.9,10.3,4.3,15.4c0.1,0.4,0.3,0.9,0.7,1.3c0.8-3,1.6-6,2.4-8.9c0.7-2.6,1.4-5.2,2.2-7.8
		c0.1-0.4,0.5-0.9,0.8-0.9C241.2,49.8,243.8,49.8,246.6,49.8z"/>
	<path class="st1" d="M218.9,72.5c0,2.1,0,3.9,0,5.8c0,0.2-0.4,0.6-0.6,0.7c-2.5,0.5-5,0.9-7.6,0.3c-4.2-0.9-6.6-4.2-6.7-9.2
		c0-4.2,0-8.5,0-12.7c0-0.4,0-0.8,0-1.4c-1.2,0-2.2,0-3.3,0c0-2.1,0-4,0-6.1c1.1,0,2.2,0,3.5,0c0-2.5,0-4.8,0-7.2c2.8,0,5.5,0,8.3,0
		c0,1.9,0.1,3.8,0,5.7c-0.1,1.2,0.4,1.5,1.5,1.5c2.8-0.1,2.8,0,3.7,2.6c0.4,1.1,0.7,2.2,1.2,3.5c-2.1,0-4.2,0-6.3,0
		c0,0.5-0.1,0.9-0.1,1.2c0,3.9,0,7.8,0,11.7c0,0.4,0,0.9,0.1,1.3c0.3,1.8,1.2,2.5,3,2.5C216.5,72.7,217.6,72.6,218.9,72.5z"/>
	<path class="st1" d="M138,148.3c0-2.9,0-5.9,0-8.8c0-0.8,0.2-1.2,1-1.3c1.1-0.1,2.3-0.4,3.4-0.4c2,0.1,3.1,1.2,3.3,3.5
		c0.2,1.6,0.3,3.3,0.2,4.9c0,3,0,6.1-0.2,9.1c-0.2,2.4-1.3,3.2-3.7,3.2c-1,0-2,0-2.9,0c-0.8,0-1.2-0.3-1.1-1.2
		C138.1,154.3,138,151.3,138,148.3z"/>
	<path class="st1" d="M180.3,148.5c0,2,0.1,3.9,0,5.9c-0.1,3-1.2,4.1-4.2,4.1c-3.6,0-3.6,0-3.6-3.6c0-5.1,0-10.1,0-15.2
		c0-1,0.3-1.5,1.2-1.6c0.1,0,0.1-0.1,0.2-0.1c4.2-1,6.3,0.5,6.4,4.8C180.3,144.7,180.3,146.6,180.3,148.5
		C180.3,148.5,180.3,148.5,180.3,148.5z"/>
	<path class="st1" d="M111.6,148.5c0,2,0.1,3.9,0,5.9c-0.2,2.7-1.7,3.9-4.6,3.9c-2.7,0-4.2-1.4-4.3-4c-0.1-3.9-0.1-7.8,0-11.7
		c0.1-3.4,2.9-5.1,6.2-4.1c1.8,0.6,2.6,2,2.7,3.8C111.6,144.4,111.5,146.4,111.6,148.5C111.5,148.5,111.5,148.5,111.6,148.5z"/>
</g>
</svg>
