<svg width="500" height="500" viewBox="0 0 500 500" fill="none" xmlns="http://www.w3.org/2000/svg">
<g clip-path="url(#clip0_8_126)">
<rect width="500" height="500" fill="white"/>
<rect width="500" height="500" fill="#4691AA"/>
<g clip-path="url(#clip1_8_126)">
<path d="M184.933 325.156C187.684 326.283 188.575 328.014 189.836 330.45C190.019 330.789 190.202 331.128 190.39 331.477C191.106 332.811 191.805 334.151 192.472 335.508C193.115 336.619 193.871 336.806 195.074 337.328C195.459 337.653 195.844 337.977 196.241 338.311C199.861 340.833 204.016 341.398 208.417 340.878C213.926 339.577 217.555 336.361 220.531 331.89C221.197 330.784 221.788 329.668 222.361 328.516C223.175 326.938 223.741 325.898 225.497 325.156C228.425 324.891 230.045 324.915 232.436 326.678C233.232 327.925 233.916 329.108 234.571 330.418C235.871 332.99 237.105 334.874 239.374 336.821C240.101 337.48 240.101 337.48 240.842 338.152C244.013 340.583 247.783 341.18 251.775 341.053C256.301 340.518 259.816 338.465 262.859 335.3C264.599 333.172 265.984 330.949 267.195 328.516C268.558 325.885 268.558 325.885 270.331 325.156C272.705 324.821 274.421 324.734 276.502 325.965C278.019 327.387 278.847 328.882 279.705 330.703C281.724 334.902 284.097 338.029 288.651 339.854C293.287 341.327 297.577 341.522 302.085 339.575C306.716 337.066 309.363 333.774 311.596 329.285C312.52 327.443 313.238 326.134 315.165 325.156C318.095 324.891 319.711 324.917 322.104 326.678C322.902 327.915 323.584 329.086 324.239 330.386C326.562 334.923 329.232 338.358 334.349 340.246C338.82 341.474 343.533 341.337 347.723 339.357C351.465 337.293 353.06 334.175 354.728 330.532C355.754 328.355 356.511 327.143 358.932 326.171C361.334 325.839 362.368 326.002 364.47 327.185C365.832 328.664 366.457 329.588 366.559 331.567C365.785 337.567 361.22 343.434 356.407 347.186C349.824 351.493 343.257 352.687 335.447 352.036C327.959 350.718 322.921 347.097 317.834 341.893C317.608 342.077 317.381 342.261 317.148 342.451C316.483 342.993 315.816 343.532 315.147 344.07C314.514 344.592 313.893 345.129 313.299 345.691C307.877 350.655 300.651 352.261 293.355 352.141C285.343 351.857 279.33 348.279 273.942 342.877C273.631 342.552 273.32 342.228 273 341.893C272.431 342.45 272.431 342.45 271.851 343.018C265.437 348.971 258.64 352.182 249.673 352.16C241.999 352.034 235.857 349.33 230.434 344.207C229.671 343.442 228.912 342.673 228.166 341.893C227.939 342.077 227.713 342.261 227.48 342.451C226.816 342.992 226.151 343.531 225.484 344.068C224.836 344.602 224.196 345.146 223.575 345.708C217.768 350.846 210.769 352.35 203.049 352.224C194.945 351.499 188.724 347.489 183.331 341.893C183.105 342.077 182.879 342.261 182.646 342.451C181.982 342.992 181.317 343.531 180.65 344.068C180.001 344.602 179.362 345.146 178.74 345.708C172.847 350.922 165.599 352.452 157.768 352.228C151.179 351.817 145.407 348.619 140.866 344.238C138.883 342.056 137.435 339.755 136.062 337.201C135.877 336.86 135.692 336.518 135.501 336.167C134.46 334.115 133.961 332.552 134.227 330.228C134.892 328.838 135.461 327.964 136.729 327.026C138.557 326.51 140.371 326.289 142.233 326.678C144.665 328.127 145.538 329.698 146.67 332.162C148.557 335.998 150.813 338.566 154.91 340.34C159.592 341.721 164.1 341.14 168.483 339.183C173.245 336.525 175.5 332.886 177.619 328.219C179.348 325.288 181.533 324.81 184.933 325.156Z" fill="white"/>
<path d="M180.694 148.316C181.708 148.918 182.708 149.54 183.7 150.174C183.7 150.513 183.7 150.851 183.7 151.2C184.052 151.2 184.405 151.2 184.768 151.2C185.442 151.991 185.442 151.991 186.21 153.116C186.5 153.536 186.789 153.957 187.087 154.389C187.4 154.852 187.714 155.315 188.037 155.792C188.364 156.27 188.691 156.747 189.028 157.24C190.083 158.781 191.132 160.326 192.181 161.871C192.868 162.875 193.556 163.88 194.243 164.884C197.463 169.594 200.655 174.321 203.798 179.079C204.049 179.458 204.3 179.838 204.559 180.228C207.232 184.296 209.663 188.486 212.017 192.73C212.212 193.08 212.408 193.429 212.609 193.789C218.775 204.878 222.8 216.524 219.497 229.133C218.914 230.91 218.177 232.573 217.36 234.261C217.095 234.827 216.831 235.394 216.558 235.977C211.232 246.85 202.24 253.584 190.904 258.242C186.287 259.802 182.005 260.07 177.121 260.057C176.509 260.065 175.896 260.074 175.265 260.082C165.368 260.087 156.48 256.759 148.971 250.668C148.498 250.297 148.025 249.926 147.537 249.544C138.763 242.38 133.846 232.043 132.759 221.138C131.857 199.492 149.893 178.614 161.839 161.616C163.252 159.604 164.658 157.589 166.039 155.558C166.281 155.203 166.523 154.849 166.773 154.483C167.216 153.833 167.656 153.181 168.094 152.527C171.196 147.985 175.298 146.206 180.694 148.316ZM176.22 159.916C175.507 160.716 175.507 160.716 174.803 161.784C174.519 162.194 174.234 162.605 173.941 163.028C173.479 163.707 173.479 163.707 173.008 164.4C172.687 164.867 172.366 165.333 172.035 165.813C170.988 167.338 169.947 168.866 168.907 170.395C168.554 170.911 168.201 171.428 167.837 171.96C155.151 189.714 155.151 189.714 145.765 209.137C145.607 209.57 145.449 210.002 145.285 210.447C142.808 217.972 144.024 226.209 147.769 233.171C152.84 241.258 159.857 246.605 169.407 249.034C178.445 250.819 187.099 249.21 194.92 244.515C196.836 243.093 198.564 241.556 200.262 239.901C200.609 239.568 200.955 239.234 201.312 238.891C206.638 233.434 209.317 226.378 209.646 218.943C208.993 201.996 195.293 185.594 185.828 172.194C184.74 170.644 183.67 169.083 182.604 167.519C182.26 167.016 181.916 166.513 181.562 165.995C180.907 165.038 180.256 164.079 179.607 163.118C179.172 162.485 179.172 162.485 178.728 161.839C178.475 161.466 178.222 161.093 177.96 160.709C177.739 160.447 177.517 160.186 177.288 159.916C176.936 159.916 176.583 159.916 176.22 159.916Z" fill="white"/>
<path d="M183.132 279.246C183.642 279.238 183.642 279.238 184.163 279.23C186.564 279.828 187.752 281.281 188.979 283.281C189.299 283.915 189.612 284.552 189.919 285.191C190.08 285.513 190.242 285.834 190.408 286.165C191.086 287.528 191.686 288.865 192.182 290.301C192.972 290.556 192.972 290.556 193.779 290.815C194.388 291.42 194.388 291.42 195.01 292.036C197.958 294.818 201.149 295.511 205.157 295.539C209.791 295.473 213.106 294.153 216.669 291.329C219.252 288.755 220.744 285.638 222.263 282.402C223.104 280.966 223.705 280.306 225.187 279.504C226.349 279.263 226.349 279.263 227.549 279.246C227.943 279.231 228.338 279.215 228.745 279.198C231.21 279.809 232.418 281.727 233.696 283.733C234.006 284.31 234.316 284.887 234.636 285.481C234.951 286.06 235.267 286.639 235.592 287.236C236.366 288.759 236.366 288.759 236.898 290.301C237.425 290.471 237.952 290.64 238.495 290.815C238.803 291.123 239.11 291.43 239.427 291.747C243.017 295.119 246.798 295.629 251.631 295.587C254.17 295.38 256.021 294.632 258.192 293.386C258.518 293.218 258.845 293.049 259.182 292.876C262.964 290.661 264.97 286.598 266.809 282.846C268.225 280.204 268.225 280.204 269.903 279.504C272.057 279.082 273.848 278.988 275.753 280.148C276.737 281.09 277.332 281.877 277.888 283.103C277.703 288.736 273.477 295.657 269.466 299.614C267.284 301.439 264.994 302.872 262.45 304.184C261.949 304.445 261.447 304.707 260.93 304.977C254.919 307.658 247.241 307.775 240.891 306.015C235.776 304.02 231.14 300.74 227.848 296.471C227.338 296.996 227.338 296.996 226.817 297.531C220.902 303.196 214.091 306.965 205.656 306.947C205.24 306.946 204.824 306.946 204.395 306.945C198.964 306.835 194.245 305.147 189.52 302.641C189.52 302.302 189.52 301.962 189.52 301.613C189.223 301.485 188.927 301.358 188.621 301.227C186.286 300.008 184.432 298.307 182.599 296.471C182.398 296.726 182.197 296.981 181.99 297.244C177.903 302.117 171.971 305.609 165.565 306.754C163.875 306.891 162.201 306.899 160.507 306.883C160.08 306.887 159.652 306.891 159.212 306.895C152.222 306.873 146.78 304.333 141.744 299.721C137.985 295.982 134.266 291.067 134.156 285.674C134.571 283.951 135.125 283.201 136.386 281.914C138.319 280.793 139.385 280.744 141.609 281.046C144.332 282.448 145.533 284 146.733 286.67C148.588 290.655 150.343 292.976 154.385 294.929C156.224 295.511 157.981 295.528 159.908 295.539C160.494 295.546 161.08 295.554 161.684 295.561C163.515 295.437 164.922 295.049 166.629 294.414C166.996 294.28 167.363 294.147 167.742 294.009C172.799 291.799 175.045 287.753 177.397 283.079C178.759 280.887 180.347 279.203 183.132 279.246Z" fill="white"/>
</g>
</g>
<defs>
<clipPath id="clip0_8_126">
<rect width="500" height="500" fill="white"/>
</clipPath>
<clipPath id="clip1_8_126">
<rect width="256" height="241" fill="white" transform="translate(122 129)"/>
</clipPath>
</defs>
</svg>
