<?xml version="1.0" encoding="utf-8"?>
<!-- Generator: Adobe Illustrator 28.0.0, SVG Export Plug-In . SVG Version: 6.00 Build 0)  -->
<svg version="1.1" id="Vrstva_1" xmlns="http://www.w3.org/2000/svg" xmlns:xlink="http://www.w3.org/1999/xlink" x="0px" y="0px"
	 viewBox="0 0 1024 1024" style="enable-background:new 0 0 1024 1024;" xml:space="preserve">
<style type="text/css">
	.st0{fill-rule:evenodd;clip-rule:evenodd;fill:url(#SVGID_1_);}
	.st1{fill-rule:evenodd;clip-rule:evenodd;fill:#FFFFFF;}
	.st2{fill:#FFFFFF;}
</style>
<linearGradient id="SVGID_1_" gradientUnits="userSpaceOnUse" x1="0" y1="512" x2="1003.4234" y2="512">
	<stop  offset="2.201313e-02" style="stop-color:#E94450"/>
	<stop  offset="0.5509" style="stop-color:#DB3763"/>
	<stop  offset="1" style="stop-color:#D12B6F"/>
</linearGradient>
<rect class="st0" width="1024" height="1024"/>
<g>
	<g>
		<path class="st1" d="M431.9,156.8c-0.3,0-0.7,0-0.9,0.1C322,191.5,243.1,293.5,243.1,414.1c0,149,120.5,269.7,268.9,269.7
			s268.9-120.7,268.9-269.7c0-111.7-90.4-202.2-201.7-202.2c-96.5,0-174.8,78.5-174.8,175.3c0,63.3,51.2,114.6,114.3,114.6
			c10.2,0,20-1.3,29.4-3.9c1.5-0.4,2.6-1.7,2.6-3.2c0-1.7-1.2-3.2-3-3.4c-46.4-4-82.7-43.2-82.7-90.6c0-60.5,48.9-109.6,109.3-109.6
			c63.2,0,114.3,51.4,114.3,114.6c0,97.7-79.1,176.9-176.5,176.9c-111.5,0-201.7-90.5-201.7-202.2C310.3,288,359.8,207.1,433.7,163
			c0.9-0.7,1.5-1.7,1.5-2.8C435.2,158.3,433.7,156.8,431.9,156.8z"/>
		<path class="st1" d="M574.3,291.1c63.2,0,114.3,51.4,114.3,114.6c0,84.2-58.6,154.6-137.1,172.5
			c115.9-18.2,200.1-97.9,223.2-214.7c-22.3-87.1-101.2-151.5-195.2-151.5L574.3,291.1z"/>
	</g>
	<g>
		<path class="st2" d="M348.6,735.1c1.5,0,2.2,0.8,2,2.4l-0.7,3.2c-0.1,1.5-0.9,2.2-2.6,2.2h-39.8l-21,119.3
			c-0.4,1.6-1.2,2.4-2.7,2.4h-3.8c-1.6,0-2.2-0.8-1.9-2.4l21-119.3h-39.7c-1.5,0-2.2-0.7-2-2.2l0.7-3.2c0.1-1.6,0.9-2.4,2.6-2.4
			L348.6,735.1L348.6,735.1z"/>
		<path class="st2" d="M457.8,735.1c1.9,0,2.2,0.7,1.1,2.2l-70.7,125c-0.8,1.5-2,2.2-3.5,2.2h-3.5c-1.7,0-2.6-0.7-2.7-2l-26.6-125.2
			c-0.4-1.5,0.3-2.2,1.9-2.2h3.5c2.2,0,3.4,0.7,3.6,2l21.6,104.9c0.4,1.6,0.8,3.8,1.2,6.7c0.4,3,0.7,4.7,0.8,5.5h0.4
			c0.5-0.8,1.3-2.7,2.7-5.5c1.3-2.8,2.4-5.1,3.2-6.7l59-104.9c0.7-1.3,2-2,4-2L457.8,735.1L457.8,735.1z"/>
		<path class="st2" d="M532.4,734.9c2.8,0,4.7,0.5,5.8,1.7c1.1,1.2,1.6,3.1,1.6,5.9v76.9c0,15.2-4.3,27-12.9,35.2
			c-8.6,8.3-21,12.5-37.2,12.5c-24.1,0-39.9-10.2-47.5-30.8c-1.9-4.7-0.3-8.1,4.7-9.8l19-6.7c2.7-0.9,4.7-1.2,6.3-0.5
			c1.5,0.7,2.8,2.3,3.9,5c3.1,7.4,7.9,11.2,14.3,11.2c8.9,0,13.3-5.2,13.3-15.7v-77.2c0-2.8,0.5-4.7,1.6-5.9
			c1.1-1.2,3.1-1.7,6.1-1.7H532.4z"/>
		<path class="st2" d="M551.3,783.3c0-15.9,4.8-28.4,14.7-37.5c9.8-9,23.7-13.6,41.5-13.6c17.7,0,31.5,4.6,41.3,13.6
			c9.8,9,14.7,21.5,14.7,37.5v32.8c0,15.9-4.8,28.4-14.7,37.5c-9.8,9-23.5,13.6-41.3,13.6c-17.9,0-31.7-4.6-41.5-13.6
			c-9.8-9-14.7-21.5-14.7-37.5V783.3L551.3,783.3z M627.2,781.7c0-5.6-1.7-10.1-5.2-13s-8.3-4.4-14.7-4.4c-6.5,0-11.4,1.5-14.9,4.4
			s-5.2,7.3-5.2,13v36.2c0,5.8,1.7,10.1,5.2,13c3.5,3,8.5,4.4,14.9,4.4c6.3,0,11.2-1.5,14.7-4.4s5.2-7.3,5.2-13V781.7z"/>
		<path class="st2" d="M759,734.9c2.8,0,4.7,0.5,5.8,1.7c1.1,1.2,1.6,3.1,1.6,5.9v76.9c0,15.2-4.3,27-12.9,35.2
			c-8.6,8.3-21,12.5-37.2,12.5c-24.1,0-39.9-10.2-47.5-30.8c-1.9-4.7-0.3-8.1,4.7-9.8l19-6.7c2.7-0.9,4.7-1.2,6.3-0.5
			c1.5,0.7,2.8,2.3,3.9,5c3.1,7.4,7.9,11.2,14.3,11.2c8.9,0,13.3-5.2,13.3-15.7v-77.2c0-2.8,0.5-4.7,1.6-5.9
			c1.1-1.2,3.1-1.7,6.1-1.7H759z"/>
	</g>
</g>
</svg>
