<?xml version="1.0" encoding="UTF-8"?>
<svg xmlns="http://www.w3.org/2000/svg" version="1.1" viewBox="0 0 1024 1024">
  <defs>
    <style>
      .cls-1 {
        fill: #2b2b2b;
      }

      .cls-2 {
        fill: #ea0f0f;
      }

      .cls-3 {
        fill: #fff;
      }
    </style>
  </defs>
  <!-- Generator: Adobe Illustrator 28.7.1, SVG Export Plug-In . SVG Version: 1.2.0 Build 142)  -->
  <g>
    <g id="Vrstva_1">
      <rect class="cls-1" width="1024" height="1024"/>
      <g>
        <path class="cls-3" d="M752.4,489.2h-29.9v-23.3h89.6v23.3l-29.4.6-.4,76h-29.9s0-76.6,0-76.6ZM629.1,465.9h77.1c5.4,0,10.6,5.4,10.6,10.6v43.7c0,5.2-5.4,10.7-10.6,10.6h-7.1l22.6,35h-33.6l-25.4-37.2v-16.9h23.7v-23.4h-27.5v77.4h-29.9v-99.7h.1ZM536.2,565.8c-5.2,0-10.6-5.5-10.6-10.9v-78.4c0-5.2,5.4-10.6,10.6-10.6h69.2c5.2,0,10.6,5.4,10.6,10.6v78.4c0,5.4-5.4,10.9-10.6,10.9-23.1.4-69.2,0-69.2,0ZM586.1,488.4h-30.8v54.2h30.8v-54.2ZM425.6,465.9h77.2c5.2,0,10.6,5.2,10.6,10.6v49.8c0,5.2-5.4,10.6-10.6,10.6h-47.3v28.9h-29.9s0-99.9,0-99.9ZM483.4,488.4h-27.8v26.1h27.8s0-26.1,0-26.1ZM325.6,555.2v-24h29.9v12.6h27.5v-9.2s-53.2-22.2-54.8-23.3c-1.6-1.3-2.7-3.5-2.7-6.2v-28.6c0-5.4,5.2-10.6,10.6-10.6h8.6l17.1,14.9h17.1l16.4-14.9h7.5c5.4,0,10.6,5.2,10.6,10.6v22h-29.9v-10.3h-27.9v8.2s53.9,22.2,55.1,24.3c1.4,1.1,2.4,2.5,2.7,4.1v30.5c0,5.2-5.4,10.6-10.6,10.6h-66.5c-5.2,0-10.6-5.4-10.6-10.6h0ZM329.7,447.3h26.3l14.5,12.1,14.1-12.1h24.6l-29.9,28.9h-17.8l-31.8-28.9Z"/>
        <path class="cls-2" d="M273.8,507c0,36.7-29.8,66.4-66.5,66.4-41.8-.1-75.8-34.1-75.8-76s30.8-77.6,71.3-84.6c-53.4.4-96.6,43.9-96.6,97.3s45.3,101.1,101.2,101.1,101.2-45.3,101.2-101.1-34-75.9-75.9-75.9-65.8,29.5-65.8,65.7,19.2,43,43.1,43,10-.8,14.5-2.5h-.7c-18.5,0-33.6-14.9-33.6-33.6s18.6-41.8,41.8-41.8c23.1.1,41.8,18.8,41.8,41.9"/>
        <path class="cls-3" d="M917.4,502.9c-.2,1.1-.6,2.1-1.1,3-.5.9-1.3,1.8-2.2,2.7-.9.9-2,1.8-3.4,2.9l-37.5,30.3h44.2v24.1h-92v-17.6l62.6-49.7v-9.5h-31.2v11.5h-29.7v-22c0-4,1.1-7.1,3.4-9.3,2.3-2.1,5.4-3.2,9.3-3.2h65.1c4,0,7.1,1.1,9.3,3.2,2.3,2.1,3.4,5.2,3.4,9.2v20.7c0,1.5-.1,2.8-.3,3.9h0Z"/>
      </g>
    </g>
  </g>
</svg>