<?xml version="1.0" encoding="utf-8"?>
<!-- Generator: Adobe Illustrator 28.0.0, SVG Export Plug-In . SVG Version: 6.00 Build 0)  -->
<svg version="1.1" id="Vrstva_1" xmlns="http://www.w3.org/2000/svg" xmlns:xlink="http://www.w3.org/1999/xlink" x="0px" y="0px"
	 viewBox="0 0 1024 1024" style="enable-background:new 0 0 1024 1024;" xml:space="preserve">
<style type="text/css">
	.st0{fill:#2B2B2B;}
	.st1{fill:#FFFFFF;}
	.st2{fill:#EA0F0F;}
</style>
<rect class="st0" width="1024" height="1024"/>
<g>
	<path class="st1" d="M849.1,485.8h-34.4V459h103.1v26.8l-33.8,0.6l-0.5,87.5h-34.4V485.8z M707.4,459H796c6.2,0,12.2,6.2,12.2,12.2
		v50.3c0,6-6.2,12.3-12.2,12.2h-8.1l26,40.2h-38.6L746,531.1v-19.5h27.3v-26.9h-31.6v89.1h-34.4V459H707.4z M600.6,573.9
		c-6,0-12.2-6.3-12.2-12.5v-90.2c0-6,6.2-12.2,12.2-12.2h79.5c6,0,12.2,6.2,12.2,12.2v90.2c0,6.2-6.2,12.5-12.2,12.5
		C653.5,574.4,600.6,573.9,600.6,573.9z M657.9,484.8h-35.4v62.3h35.4V484.8z M473.4,459h88.8c6,0,12.2,6,12.2,12.2v57.3
		c0,6-6.2,12.2-12.2,12.2h-54.4v33.3h-34.4V459z M539.9,484.8h-32v30h32V484.8z M358.5,561.7v-27.6h34.4v14.4h31.6V538
		c0,0-61.2-25.5-63-26.8c-1.8-1.5-3.1-4.1-3.1-7.1v-32.9c0-6.2,6-12.2,12.2-12.2h9.9l19.6,17.2h19.6l18.8-17.2h8.6
		c6.2,0,12.2,6,12.2,12.2v25.3H425v-11.8h-32.1v9.4c0,0,62,25.5,63.3,27.9c1.6,1.3,2.8,2.9,3.1,4.7v35.1c0,6-6.2,12.2-12.2,12.2
		h-76.4C364.6,573.9,358.5,567.7,358.5,561.7z M363.2,437.6h30.2l16.7,14l16.2-14h28.2l-34.4,33.3h-20.4L363.2,437.6z"/>
	<path class="st2" d="M298.9,506.2c0,42.2-34.2,76.4-76.4,76.4c-48-0.2-87.2-39.3-87.2-87.5c0-48.7,35.4-89.3,82-97.4
		c-61.3,0.5-111,50.5-111,112c0,64.3,52.1,116.4,116.4,116.4S339,574.1,339,509.8c0-48.2-39.1-87.3-87.3-87.3
		c-41.7,0-75.6,33.9-75.6,75.6c0,27.3,22.1,49.5,49.5,49.5c5.8,0,11.5-1,16.7-2.9c-0.3,0-0.5,0-0.8,0c-21.3,0-38.6-17.2-38.6-38.6
		c0-26.5,21.4-48,48-48C277.5,458.2,298.9,479.6,298.9,506.2"/>
</g>
</svg>
