<?xml version="1.0" encoding="UTF-8"?>
<svg xmlns="http://www.w3.org/2000/svg" version="1.1" viewBox="0 0 640 640">
  <defs>
    <style>
      .cls-1 {
        fill: #cd0d0d;
      }

      .cls-2 {
        fill: #fff;
      }
    </style>
  </defs>
  <!-- Generator: Adobe Illustrator 28.7.1, SVG Export Plug-In . SVG Version: 1.2.0 Build 142)  -->
  <g>
    <g id="Vrstva_1">
      <g id="Vrstva_1-2" data-name="Vrstva_1">
        <rect class="cls-1" width="640" height="640"/>
        <path class="cls-2" d="M368.5,129.5l1,.3c82.9,21.9,144.1,97.4,144.1,187.2s-86.7,193.6-193.6,193.6-23.5-1.1-34.8-3.1h2.4c-2.2-.2-4.1-.4-6-.7-4-.8-7.9-1.7-11.8-2.8-7.3-2.9-6-6.5-2.3-6.9,77.6-8.8,84.8-75.7,84.8-107.5v-190.2l-64.7-1.3v178.9c.2,50,6.8,83.8-43.7,88.6-37.9,3.6-58-10.1-66.2-17.5-31.8-34.5-51.2-80.5-51.2-131.1,0-89,60-163.9,141.8-186.6,3,25.2,22.4,43.5,49.8,43.5s47.8-17.2,50.5-44.4Z"/>
      </g>
    </g>
  </g>
</svg>