<svg width="284" height="284" viewBox="0 0 284 284" fill="none" xmlns="http://www.w3.org/2000/svg">
<rect width="283.5" height="283.5" fill="#1C3070"/>
<path d="M171.603 148.802C169.617 148.296 168.362 146.625 167.891 143.861C167.753 143.049 167.734 140.724 167.859 139.941C168.071 138.608 168.593 137.316 169.239 136.526C170.114 135.457 171.599 134.749 172.778 134.84C174.852 135 176.406 136.215 177.143 138.253C177.552 139.382 177.634 139.965 177.633 141.737C177.632 143.001 177.607 143.476 177.513 143.992C177.056 146.5 175.853 148.104 173.979 148.705C173.263 148.934 172.279 148.974 171.603 148.802Z" fill="white"/>
<path d="M193.416 138.001V135.399L194.87 135.384C195.669 135.376 196.515 135.376 196.748 135.386C198.076 135.438 198.991 136.124 199.166 137.196C199.243 137.668 199.143 138.628 198.977 139.012C198.68 139.7 197.848 140.324 197.01 140.488C196.812 140.527 195.923 140.569 195.033 140.581L193.416 140.603V138.001Z" fill="white"/>
<path d="M235.038 148.527C234.804 148.497 234.547 148.456 234.466 148.436L234.319 148.4V142.037V135.673L235.022 135.626C236.185 135.546 237.519 135.625 238.272 135.818C239.235 136.063 240.133 136.53 240.745 137.101C241.546 137.85 242.008 138.635 242.334 139.806C242.642 140.91 242.617 143.123 242.282 144.402C241.66 146.775 240.049 148.163 237.488 148.53C236.953 148.607 235.647 148.605 235.038 148.527Z" fill="white"/>
<path d="M30 126.317H36.6938L36.6974 141.239L48.5801 126.317H57.4009L44.6952 141.411L57.8549 157.749L48.3993 157.747L36.6974 141.599L36.7023 157.746H30V126.317Z" fill="white"/>
<path d="M59.9922 126.448V157.419H69.3604C75.3526 157.419 78.9737 157.395 79.4065 157.352C81.5549 157.136 83.4594 156.249 84.9277 154.781C86.3533 153.355 87.1271 151.669 87.3188 149.568C87.5228 147.332 86.9683 145.101 85.7792 143.377C85.1919 142.525 84.0547 141.498 83.2269 141.072L82.9716 140.941L83.3167 140.753C84.165 140.289 84.9627 139.42 85.4443 138.438C85.9277 137.451 86.127 136.44 86.1263 134.987C86.1257 133.504 85.8897 132.366 85.3463 131.246C84.2349 128.955 82.0066 127.388 78.9573 126.75C77.5643 126.458 77.201 126.448 68.3762 126.448H59.9922ZM66.1618 131.511H70.9694C75.7345 131.511 75.7762 131.513 76.3273 131.658C77.8701 132.065 78.8528 132.918 79.1676 134.127C79.2992 134.633 79.2968 135.689 79.1635 136.206C78.8566 137.396 78.0355 138.166 76.6622 138.554C76.1737 138.692 76.175 138.732 71.1797 138.732C70.955 138.732 68.0712 138.733 66.1648 138.733L66.1618 131.511ZM66.1669 143.665H71.1001C76.3934 143.665 76.3959 143.665 77.4381 144.008C78.9404 144.502 79.9467 145.421 80.356 146.666C80.5059 147.123 80.5316 147.546 80.5316 148.01C80.5316 149.341 80.2243 150.196 79.4718 150.944C78.8092 151.603 77.9541 151.983 76.5662 152.237C76.0497 152.331 75.2916 152.371 71.0817 152.371C70.6651 152.371 70.119 152.371 66.1648 152.371L66.1669 143.665Z" fill="white"/>
<path d="M90.6354 152.262L98.7867 152.242L106.938 152.222L107.461 152.076C108.677 151.737 109.541 151.049 110.031 150.029C110.415 149.23 110.522 148.763 110.526 147.879C110.529 147.035 110.428 146.561 110.096 145.861C109.692 145.01 108.634 144.163 107.525 143.804C106.545 143.486 106.512 143.484 102.037 143.436C98.4691 143.399 97.6911 143.374 97.1704 143.28C92.5974 142.461 90.0987 140.145 89.6513 136.31C89.5565 135.496 89.6046 134.059 89.755 133.211C90.1193 131.156 91.1426 129.444 92.7144 128.26C94.1118 127.207 95.8867 126.536 97.8366 126.321C98.2542 126.276 101.455 126.252 107.197 126.252H115.922V131.131L113.265 131.174C111.804 131.198 108.533 131.218 105.996 131.219C101.402 131.221 100.495 131.254 99.7504 131.445C98.638 131.731 97.7041 132.44 97.2704 133.328C96.8543 134.181 96.765 134.768 96.9392 135.506C97.223 136.71 98.0032 137.66 99.044 138.07C99.8072 138.371 100.168 138.395 104.553 138.432C107.874 138.46 108.839 138.488 109.388 138.571C112.419 139.029 114.986 140.399 116.446 142.338C116.967 143.029 117.572 144.275 117.779 145.082C118.041 146.1 118.098 146.73 118.059 148.171C118.022 149.565 117.926 150.179 117.588 151.186C116.629 154.043 114.179 156.185 110.903 157.032L110.163 157.223H100.399H90.6354V152.262Z" fill="white"/>
<path d="M129.478 126C126.401 126 123.924 128.477 123.924 131.554V152.275C123.924 155.352 126.401 157.829 129.478 157.829H247.268C250.345 157.829 252.822 155.352 252.822 152.275V131.554C252.822 128.477 250.345 126 247.268 126H129.478ZM172.462 130.204C172.512 130.204 172.549 130.204 172.57 130.204C172.875 130.204 177.692 130.105 180.905 133.608C183.827 136.795 183.819 141.152 183.819 141.433C183.819 141.718 184.037 147.509 180.382 150.868C177.136 153.852 173.179 153.641 172.935 153.641C172.671 153.641 167.945 153.9 164.807 150.701C161.403 147.232 161.636 142.335 161.636 142.062C161.636 141.809 161.314 136.651 164.835 133.187C167.744 130.326 171.708 130.208 172.462 130.204ZM128.261 130.674H134.617L137.709 144.608L141.337 130.68H147.146L150.722 144.593L153.811 130.68H159.931L154.032 153.194H147.838L144.096 140.15L140.645 153.194H134.103L128.261 130.674ZM210.032 130.823H215.684V148.265H225.349V153.194H210.032V130.823ZM235.384 130.833C237.881 130.839 243.057 131.161 245.951 134.421C248.498 137.289 248.671 140.02 248.671 141.657C248.671 143.221 248.735 147.596 244.836 150.711C241.532 153.351 236.561 153.173 234.196 153.173H228.222V130.847C228.169 130.847 233.9 130.847 234.145 130.847C234.375 130.847 234.808 130.832 235.384 130.833ZM187.343 130.866H199.974C199.974 130.866 205.348 131.448 205.348 136.81C205.348 142.087 201.403 143.575 201.403 143.575L208.517 153.208L201.158 153.216L195.414 145.126H193.26V153.216H187.343V130.866ZM172.545 134.839C172.135 134.849 170.172 134.991 168.821 136.991C167.597 138.804 167.688 141.63 167.688 141.845C167.688 142.06 167.619 144.504 168.692 146.535C169.967 148.948 172.284 148.971 172.517 148.971C172.755 148.971 174.746 148.999 176.266 147.074C177.722 145.229 177.64 141.807 177.64 141.578C177.64 141.334 177.718 138.7 176.311 136.765C174.906 134.833 172.807 134.839 172.607 134.839C172.594 134.839 172.573 134.839 172.545 134.839ZM193.262 135.325V140.616H196.589C196.589 140.616 199.149 140.621 199.149 137.849C199.149 135.344 196.664 135.325 196.664 135.325H193.262ZM234.251 135.54V148.647H236.077C236.077 148.647 239.465 148.87 241.202 146.582C242.662 144.659 242.521 142.28 242.521 141.874C242.521 141.498 242.629 139.562 241.29 137.725C239.688 135.527 236.514 135.581 236.514 135.581L234.251 135.54Z" fill="white"/>
</svg>
