<svg width="500" height="500" viewBox="0 0 500 500" fill="none" xmlns="http://www.w3.org/2000/svg">
<g clip-path="url(#clip0_9_958)">
<rect width="500" height="500" fill="white"/>
<rect width="500" height="500" fill="black"/>
<g clip-path="url(#clip1_9_958)">
<path d="M180.833 197.438C202.06 197.438 223.286 197.438 245.156 197.438C256.667 223.325 256.667 223.325 256.667 226.108C255.035 226.992 253.399 227.863 251.758 228.727C251.065 229.104 251.065 229.104 250.359 229.489C246.877 231.306 246.877 231.306 245.084 231.051C243.14 230.244 242.358 228.776 241.136 226.981C239.183 224.127 237.656 222.534 235 220.227C234.777 232.114 234.553 244.001 234.323 256.249C229.631 256.249 224.939 256.249 220.104 256.249C218.073 247.703 218.073 247.703 218.073 245.222C216.509 244.979 214.945 244.736 213.333 244.486C213.669 253.22 213.669 253.22 214.01 262.13C223.872 262.355 231.739 261.262 239.189 253.538C242.188 250.066 244.699 246.19 247.188 242.281C250.213 243.309 253.036 244.587 255.905 246.049C256.685 246.445 257.466 246.841 258.269 247.249C258.858 247.55 259.446 247.852 260.052 248.162C258.733 252.635 256.991 256.811 255.186 261.073C254.876 261.814 254.567 262.556 254.248 263.32C251.866 268.963 249.234 274.28 246.51 279.773C224.837 279.773 203.164 279.773 180.833 279.773C180.833 274.678 180.833 269.584 180.833 264.335C184.52 263.607 184.52 263.607 188.281 262.865C188.281 247.096 188.281 231.327 188.281 215.081C185.823 214.353 183.366 213.625 180.833 212.876C180.833 207.781 180.833 202.687 180.833 197.438ZM213.333 215.081C213.333 218.963 213.333 222.844 213.333 226.843C215.121 226.843 216.908 226.843 218.75 226.843C220.542 224.366 220.542 224.366 220.104 219.492C224.796 219.492 229.489 219.492 234.323 219.492C228.133 214.115 220.934 213.43 213.333 215.081Z" fill="white"/>
<path d="M308.125 195.968C308.446 196.559 308.767 197.15 309.098 197.759C310.086 199.816 310.086 199.816 312.187 201.113C313.761 201.403 315.341 201.654 316.927 201.849C315.34 206.468 313.342 210.786 310.156 214.346C308.127 214.867 306.587 214.732 304.523 214.484C301.589 214.261 299.549 215.304 297.292 217.286C291.498 224.562 290.795 234.564 291.198 243.751C291.766 250.215 293.337 256.433 297.715 261.073C301.068 263.277 304.314 263.208 308.125 262.865C311.819 261.554 314.165 258.996 316.25 255.513C317.129 253.353 317.763 251.189 318.281 248.897C318.409 248.357 318.536 247.817 318.667 247.26C318.916 245.521 318.988 243.997 318.982 242.247C318.979 227.862 325.231 217.851 332.5 206.259C336.285 208.211 338.79 210.957 340.625 215.081C340.691 218.885 339.991 222.399 339.271 226.108C338.909 230.17 339.095 234.828 340.625 238.605C341.896 239.479 341.896 239.479 343.333 240.076C344.339 240.803 344.339 240.803 345.365 241.546C345.134 252.923 340.731 261.889 333.643 270.032C330.588 273.198 327.501 275.575 323.698 277.568C323.023 277.926 322.349 278.284 321.653 278.653C311.275 283.263 297.556 283.288 287.159 278.713C282.491 276.11 278.473 272.987 274.948 268.746C274.581 268.342 274.215 267.939 273.837 267.523C265.593 258.066 264.328 247.385 264.538 234.941C265.005 223.331 270.185 213.638 277.844 205.737C284.385 199.766 299.45 191.258 308.125 195.968Z" fill="white"/>
<path d="M105 197.438C118.853 197.438 132.706 197.438 146.979 197.438C146.979 202.532 146.979 207.627 146.979 212.876C145.037 213.93 143.094 213.927 140.949 214.139C139.494 214.267 139.494 214.267 138.177 215.081C137.954 230.85 137.73 246.618 137.5 262.865C148.276 261.193 153.771 259.287 160.521 250.367C162.255 247.507 163.808 244.585 165.26 241.546C168.133 242.727 170.86 244.175 173.597 245.681C174.034 245.92 174.471 246.159 174.921 246.405C175.989 246.989 177.057 247.575 178.125 248.162C177.225 251.225 176.183 254.15 174.98 257.087C174.46 258.359 174.46 258.359 173.929 259.657C173.568 260.534 173.207 261.41 172.835 262.313C172.306 263.611 172.306 263.611 171.765 264.935C169.704 269.959 167.53 274.844 165.26 279.773C145.374 279.773 125.489 279.773 105 279.773C105 274.678 105 269.584 105 264.335C107.458 263.607 109.916 262.879 112.448 262.13C112.448 246.604 112.448 231.078 112.448 215.081C109.99 214.353 107.532 213.625 105 212.876C105 207.781 105 202.687 105 197.438Z" fill="white"/>
<path d="M356.198 182.735C356.854 182.69 357.511 182.644 358.187 182.597C360.819 182.772 361.783 183.711 363.646 185.676C364.598 187.743 364.466 189.258 364.323 191.557C363.582 193.705 363.582 193.705 362.63 195.784C361.361 198.339 361.361 198.339 360.937 201.114C361.291 200.571 361.644 200.028 362.009 199.468C364.758 195.353 367.595 191.414 370.84 187.743C371.421 187.081 372.002 186.418 372.601 185.736C374.87 183.887 376.407 183.577 379.219 183.47C381.198 184.473 382.42 185.475 383.958 187.146C384.29 190.597 384.356 192.27 382.763 195.304C382.208 196.023 381.653 196.743 381.081 197.484C380.777 197.888 380.473 198.293 380.16 198.71C379.18 200.011 378.184 201.297 377.187 202.584C375.88 204.306 374.585 206.038 373.294 207.776C372.96 208.225 372.627 208.674 372.283 209.136C366.22 217.389 360.402 226.073 355.878 235.435C354.331 237.978 352.459 239.647 349.85 240.765C347.245 240.832 345.606 239.951 343.333 238.605C339.934 234.72 339.675 231.377 339.712 226.2C340.26 216.173 343.659 206.1 346.719 196.703C343.591 196.703 340.462 196.703 337.24 196.703C336.793 197.673 336.346 198.643 335.885 199.643C335.081 200.986 334.261 202.317 333.431 203.641C327.343 213.519 322.213 223.407 318.197 234.47C317.281 236.731 316.9 237.157 314.938 238.697C312.659 239.404 311.679 239.524 309.479 238.605C306.343 236.207 306.343 236.207 305.417 234.195C304.813 229.081 305.971 225.337 308.083 220.824C308.354 220.223 308.626 219.622 308.905 219.002C311.443 213.504 314.397 208.384 317.604 203.319C318.051 202.591 318.498 201.863 318.958 201.114C318.357 201.085 318.357 201.085 317.744 201.056C315.062 200.847 313.207 200.587 310.833 199.138C309.133 197.003 308.802 195.845 308.802 193.027C309.419 190.637 310.006 189.169 311.999 187.838C316.441 185.661 320.9 184.572 325.687 183.654C326.506 183.495 327.326 183.336 328.17 183.173C337.051 181.589 347.356 180.31 356.198 182.735ZM359.583 201.849C360.26 203.319 360.26 203.319 360.26 203.319L359.583 201.849Z" fill="white"/>
<path d="M396.146 187.881C397.923 188.938 397.923 188.938 399.531 190.087C399.204 193.876 397.374 196.567 395.469 199.643C398.587 199.569 398.587 199.569 401.234 197.952C402.186 196.701 403.047 195.423 403.89 194.084C404.342 193.405 404.342 193.405 404.804 192.713C405.541 191.602 406.262 190.478 406.979 189.351C408.587 189.581 408.587 189.581 410.365 190.087C410.811 190.814 411.258 191.542 411.719 192.292C412.096 192.133 412.473 191.974 412.861 191.809C417.345 190.033 421.203 189.069 425.811 191.051C428.737 192.734 428.737 192.734 430 194.497C430.635 197.808 430.623 201.155 429.278 204.241C425.446 210.033 420.011 215.255 413.528 216.968C411.005 217.399 409.373 217.423 406.937 216.505C405.625 215.081 405.625 215.081 405.368 213.16C405.763 209.334 407.508 206.441 409.235 203.132C410.1 201.447 410.1 201.447 411.042 198.908C410.651 197.093 410.651 197.093 409.687 195.968C409.241 196.453 408.794 196.938 408.333 197.438C408.501 198.53 408.501 198.53 408.672 199.643C408.839 200.735 408.839 200.735 409.01 201.849C407.656 203.319 407.656 203.319 405.993 203.563C404.165 203.874 404.165 203.874 403.247 205.579C402.985 206.213 402.722 206.847 402.451 207.5C402.03 208.492 402.03 208.492 401.599 209.504C400.817 211.499 400.817 211.499 400.166 214.024C399.531 215.816 399.531 215.816 398.262 216.643C396.823 216.551 396.823 216.551 395.299 215.127C394.908 214.627 394.517 214.126 394.115 213.611C394.438 212.538 394.762 211.466 395.088 210.395C395.269 209.798 395.449 209.201 395.635 208.585C396.146 206.995 396.146 206.995 396.823 205.524C394.812 205.767 392.801 206.01 390.729 206.259C390.598 206.756 390.467 207.253 390.332 207.764C390.156 208.42 389.98 209.076 389.798 209.751C389.625 210.4 389.453 211.048 389.274 211.716C388.751 213.435 388.132 214.959 387.344 216.551C385.736 216.689 385.736 216.689 383.958 216.551C382.604 214.346 382.604 214.346 382.816 212.141C383.281 209.935 383.281 209.935 383.958 207.73C383.511 207.245 383.065 206.759 382.604 206.259C382.858 204.697 382.858 204.697 383.281 203.319C383.924 203.273 384.566 203.228 385.228 203.181C385.926 202.984 386.624 202.787 387.344 202.584C387.829 201.374 388.272 200.144 388.698 198.908C389.647 197.085 390.694 195.335 391.745 193.578C392.018 193.11 392.291 192.642 392.573 192.16C394.622 188.708 394.622 188.708 396.146 187.881ZM418.252 196.754C417.726 197.74 417.213 198.734 416.712 199.735C416.325 200.469 416.325 200.469 415.929 201.217C415.183 202.642 414.462 204.079 413.75 205.524C413.354 206.326 412.957 207.128 412.549 207.954C411.578 209.907 411.578 209.907 411.719 212.141C416.834 210.859 421.064 207.19 423.949 202.492C425.097 200.265 425.82 198.551 425.26 195.968C423.393 194.432 423.393 194.432 421.605 194.078C419.6 194.34 419.6 194.34 418.252 196.754Z" fill="white"/>
<path d="M254.54 291.685C256.944 293.571 258.18 294.921 258.698 298.151C256.087 298.415 254.957 298.397 252.773 296.727C252.271 296.227 251.768 295.726 251.25 295.211C248.152 293.529 243.992 294.278 240.713 295.027C238.975 295.737 238.975 295.737 238.626 297.267C238.378 298.938 238.295 300.502 238.301 302.195C238.299 302.748 238.297 303.302 238.295 303.872C238.386 305.516 238.55 306.892 239.062 308.443C242.412 310.308 246.212 310.453 249.896 309.914C252.506 308.446 253.686 307.416 255.312 304.768C251.737 304.525 248.162 304.282 244.479 304.033C244.479 303.062 244.479 302.092 244.479 301.092C249.395 301.092 254.31 301.092 259.375 301.092C259.375 306.881 259.375 306.881 258.021 309.178C257.574 309.178 257.127 309.178 256.667 309.178C256.331 310.27 256.331 310.27 255.99 311.384C252.935 313.521 250.158 313.992 246.595 313.957C246.117 313.954 245.639 313.952 245.146 313.949C241.19 313.812 238.519 312.897 235.677 309.914C233.67 307.523 233.026 305.586 232.799 302.333C233.042 298.453 234.018 296.195 236.65 293.557C241.613 289.877 248.892 289.104 254.54 291.685Z" fill="white"/>
<path d="M275.244 290.387C275.751 290.393 276.258 290.399 276.78 290.406C281.705 290.604 284.462 292.173 287.813 296.038C289.034 299.851 289.342 304.046 287.871 307.829C286.044 310.836 284.154 312.231 281.042 313.589C279.144 313.924 277.292 313.975 275.371 313.957C274.861 313.952 274.35 313.947 273.825 313.942C270.46 313.822 267.806 313.45 265.098 311.1C262.967 308.53 261.539 306.008 261.303 302.502C261.547 298.949 262.628 296.461 264.792 293.741C268.358 291.09 270.952 290.292 275.244 290.387ZM268.177 295.946C268.177 296.431 268.177 296.916 268.177 297.416C267.73 297.416 267.283 297.416 266.823 297.416C265.806 300.728 265.661 303.549 266.95 306.789C268.843 309.341 270.662 310.378 273.551 311.246C276.878 311.467 279.511 310.13 282.396 308.443C282.396 307.958 282.396 307.473 282.396 306.973C282.843 306.973 283.29 306.973 283.75 306.973C285.408 303.267 284.914 301.206 283.75 297.416C283.303 297.416 282.856 297.416 282.396 297.416C282.396 296.931 282.396 296.446 282.396 295.946C279.674 293.296 276.798 293.421 273.327 293.522C271.173 293.789 269.797 294.369 268.177 295.946Z" fill="white"/>
<path d="M160.814 291.303C163.467 292.848 166.002 295.167 167.292 298.151C167.916 301.549 168.039 304.706 166.517 307.826C163.838 311.44 160.869 313.381 156.567 313.908C155.642 313.925 154.717 313.925 153.792 313.911C153.313 313.907 152.833 313.903 152.339 313.899C147.816 313.755 145.729 312.58 142.324 309.5C140.078 306.383 140.608 301.879 140.885 298.151C142.036 295.062 143.806 293.432 146.302 291.535C150.508 290.013 156.542 290 160.814 291.303ZM146.302 296.681C144.815 299.077 144.259 300.45 144.313 303.343C145.232 306.47 146.274 308.401 149.024 309.948C151.706 311.079 153.404 311.44 156.289 310.97C159.425 309.464 161.328 307.864 163.229 304.768C163.522 302.36 163.712 300.509 162.542 298.358C160.735 295.947 159.049 293.922 156.128 293.494C152.078 293.433 149.384 293.502 146.302 296.681Z" fill="white"/>
<path d="M307.448 290.8C309.682 290.739 311.917 290.679 314.219 290.616C314.912 290.589 315.605 290.563 316.319 290.535C320.5 290.481 323.607 291.133 327.083 293.741C329.607 296.48 330.006 298.811 330.172 302.562C330.078 305.324 329.952 307.358 328.395 309.592C323.858 313.68 319.95 313.89 314.261 313.727C312.013 313.682 309.764 313.636 307.448 313.589C307.448 306.069 307.448 298.548 307.448 290.8ZM311.51 293.741C311.51 299.32 311.51 304.9 311.51 310.649C317.386 311.246 317.386 311.246 322.809 309.316C324.418 307.664 325.596 306.399 325.957 303.969C326.003 301.01 325.969 299.324 324.544 296.727C321.667 293.863 319.635 293.564 315.742 293.649C314.346 293.679 312.949 293.709 311.51 293.741Z" fill="white"/>
<path d="M123.281 290.8C128.197 290.8 133.112 290.8 138.177 290.8C138.177 291.77 138.177 292.741 138.177 293.741C134.602 293.741 131.027 293.741 127.344 293.741C127.344 295.924 127.344 298.107 127.344 300.357C130.472 300.357 133.6 300.357 136.823 300.357C136.823 301.57 136.823 302.783 136.823 304.032C133.695 304.032 130.567 304.032 127.344 304.032C127.344 306.216 127.344 308.399 127.344 310.649C130.919 310.649 134.494 310.649 138.177 310.649C138.177 311.619 138.177 312.589 138.177 313.589C133.261 313.589 128.346 313.589 123.281 313.589C123.281 306.069 123.281 298.548 123.281 290.8Z" fill="white"/>
<path d="M197.76 290.8C199.324 290.8 200.889 290.8 202.5 290.8C206.522 300.07 206.522 300.07 207.747 303.849C208.333 306.303 208.333 306.303 209.948 306.973C210.149 306.509 210.351 306.045 210.559 305.568C211.468 303.478 212.379 301.389 213.291 299.3C213.767 298.205 213.767 298.205 214.252 297.087C214.707 296.046 214.707 296.046 215.171 294.984C215.592 294.02 215.592 294.02 216.02 293.036C216.719 291.535 216.719 291.535 217.396 290.8C218.75 290.77 220.104 290.769 221.458 290.8C221.018 294.374 219.668 297.329 218.242 300.541C218 301.094 217.757 301.647 217.507 302.217C215.793 306.094 213.971 309.872 211.979 313.589C210.415 313.589 208.851 313.589 207.24 313.589C207.073 313.205 206.906 312.82 206.734 312.424C205.958 310.637 205.181 308.851 204.404 307.065C203.988 306.108 203.988 306.108 203.563 305.131C201.862 301.231 200.126 297.357 198.287 293.531C197.76 292.27 197.76 292.27 197.76 290.8Z" fill="white"/>
<path d="M178.802 290.8C184.835 290.8 190.868 290.8 197.083 290.8C197.083 291.77 197.083 292.741 197.083 293.741C194.849 293.741 192.615 293.741 190.313 293.741C190.313 300.291 190.313 306.841 190.313 313.589C188.972 313.589 187.631 313.589 186.25 313.589C186.25 307.039 186.25 300.489 186.25 293.741C183.792 293.741 181.334 293.741 178.802 293.741C178.802 292.77 178.802 291.8 178.802 290.8Z" fill="white"/>
<path d="M291.875 290.8C293.216 290.8 294.556 290.8 295.937 290.8C295.937 297.35 295.937 303.9 295.937 310.649C298.842 310.649 301.747 310.649 304.74 310.649C304.74 311.619 304.74 312.589 304.74 313.589C300.494 313.589 296.249 313.589 291.875 313.589C291.875 306.069 291.875 298.548 291.875 290.8Z" fill="white"/>
<path d="M108.385 290.8C109.503 290.8 110.62 290.8 111.771 290.8C111.771 297.35 111.771 303.9 111.771 310.649C114.675 310.649 117.58 310.649 120.573 310.649C120.796 311.619 121.02 312.589 121.25 313.589C117.005 313.589 112.759 313.589 108.385 313.589C108.385 306.069 108.385 298.548 108.385 290.8Z" fill="white"/>
</g>
</g>
<defs>
<clipPath id="clip0_9_958">
<rect width="500" height="500" fill="white"/>
</clipPath>
<clipPath id="clip1_9_958">
<rect width="325" height="136" fill="white" transform="translate(105 182)"/>
</clipPath>
</defs>
</svg>
