<svg width="500" height="500" viewBox="0 0 500 500" fill="none" xmlns="http://www.w3.org/2000/svg">
<g clip-path="url(#clip0_1_14)">
<rect width="500" height="500" fill="white"/>
<rect width="500" height="500" fill="#DE0742"/>
<g clip-path="url(#clip1_1_14)">
<path d="M267 183C267.921 183.071 268.842 183.141 269.79 183.214C280.933 183.999 292.02 184.157 303.188 184.125C304.094 184.124 305.001 184.123 305.935 184.122C316.488 184.11 327.001 183.988 337.537 183.365C344.564 182.969 351.591 182.822 358.628 182.768C360.585 182.75 362.541 182.718 364.497 182.686C365.687 182.681 366.876 182.677 368.102 182.672C369.167 182.663 370.233 182.653 371.331 182.644C374 183 374 183 375.837 184.337C377.702 187.004 377.515 188.846 377 192C372.86 196.255 369.121 197.052 363.395 197.316C362.501 197.358 361.608 197.401 360.687 197.444C359.738 197.483 358.79 197.522 357.813 197.562C356.351 197.625 356.351 197.625 354.86 197.689C348.698 197.936 342.541 198.102 336.375 198.125C335.338 198.132 335.338 198.132 334.281 198.139C331.012 198.129 328.144 197.863 325 197C324.891 198.314 324.782 199.628 324.67 200.982C323.917 208.477 322.568 215.873 321.277 223.289C321.009 224.844 320.742 226.399 320.475 227.954C319.776 232.015 319.073 236.076 318.369 240.136C317.649 244.292 316.933 248.449 316.217 252.605C314.815 260.738 313.409 268.869 312 277C313.065 276.99 314.13 276.979 315.228 276.968C386.513 276.331 386.513 276.331 400 284C400 284.66 400 285.32 400 286C370.3 286 340.6 286 310 286C309.34 291.61 308.68 297.22 308 303C307.67 303.66 307.34 304.32 307 305C305.68 305 304.36 305 303 305C302.973 302.958 302.954 300.917 302.938 298.875C302.926 297.738 302.914 296.601 302.902 295.43C302.995 292.183 303.434 289.192 304 286C303.157 286.066 302.314 286.133 301.445 286.201C288.016 287.156 274.583 287.305 261.125 287.5C252.93 287.621 244.735 287.759 236.541 287.934C232.89 288.002 229.24 288.04 225.589 288.078C223.223 288.124 220.858 288.17 218.492 288.219C217.394 288.223 216.296 288.226 215.165 288.23C209.172 288.208 209.172 288.208 204.485 291.529C203.995 292.345 203.505 293.16 203 294C199.75 294.312 199.75 294.312 197 294C196.67 292.02 196.34 290.04 196 288C195.01 288.495 195.01 288.495 194 289C191.53 289.227 189.08 289.401 186.605 289.535C185.491 289.6 185.491 289.6 184.353 289.665C182.772 289.756 181.191 289.844 179.61 289.93C177.235 290.06 174.861 290.198 172.486 290.338C163.645 290.842 154.859 291.132 146 291C145.918 292.052 145.835 293.104 145.75 294.188C144.807 301.735 142.811 310.969 138 317C135.313 317.312 135.313 317.312 133 317C133.543 308.985 134.135 300.987 135 293C133.851 293.144 132.703 293.289 131.52 293.438C105.933 296.543 105.933 296.543 100 293C99.397 285.764 99.397 285.764 101.875 282.625C106.154 280.4 110.25 279.662 115 279C116.195 278.832 116.195 278.832 117.414 278.66C124.268 277.845 131.107 277.903 138 278C138.147 276.746 138.294 275.491 138.445 274.199C147.786 197.372 147.786 197.372 160 187C160.66 187 161.32 187 162 187C161.89 187.63 161.781 188.26 161.668 188.909C158.214 209.021 155.409 229.216 152.688 249.438C152.596 250.116 152.505 250.795 152.411 251.495C151.267 259.996 150.13 268.497 149 277C150.032 276.893 150.032 276.893 151.084 276.785C157.135 276.192 163.091 275.861 169.168 275.902C169.974 275.904 170.779 275.905 171.609 275.907C174.136 275.912 176.661 275.925 179.188 275.938C180.92 275.943 182.652 275.947 184.385 275.951C188.59 275.962 192.795 275.979 197 276C197.33 271.05 197.66 266.1 198 261C196.701 261.825 195.401 262.65 194.063 263.5C189.303 266.143 185.38 267.003 180 266C176.711 264.273 176.186 263.558 175 260C174.905 258.252 174.87 256.5 174.875 254.75C174.871 253.381 174.871 253.381 174.867 251.984C175.017 248.609 175.477 245.336 176 242C175.385 242.855 174.77 243.709 174.137 244.59C173.321 245.706 172.504 246.822 171.688 247.938C171.283 248.501 170.879 249.065 170.463 249.646C167.34 253.887 167.34 253.887 164 255C164.544 250.725 165.965 248.281 168.563 244.875C169.282 243.922 170.001 242.97 170.742 241.988C171.487 241.002 172.232 240.016 173 239C175.02 236.14 177.036 233.279 179.043 230.41C181.15 227.816 183.261 225.91 186 224C188.813 223.75 188.813 223.75 191 224C192.091 228.692 191.887 232.37 191.063 237.125C189.907 243.8 189.801 250.243 190 257C195.286 256.299 195.286 256.299 200 254C200.991 251.749 200.991 251.749 201.457 249.039C201.679 248.02 201.9 247.001 202.128 245.95C202.354 244.853 202.58 243.756 202.813 242.625C212.923 197.451 212.923 197.451 228.938 186.699C233.016 184.452 236.268 183.437 241 184C241.99 184.495 241.99 184.495 243 185C244.311 200.727 233.358 214.463 225 227C226.011 226.938 227.021 226.876 228.063 226.812C232.381 227.018 235.084 228.259 239 230C241.856 230.571 243.256 230.471 245.723 228.91C246.921 228.032 248.1 227.127 249.254 226.191C253.133 223.545 257.432 223.679 262 224C264.313 225.156 266.174 226.174 268 228C268.238 229.855 268.238 229.855 268.313 232.188C268.369 233.323 268.369 233.323 268.426 234.48C267.405 240.52 262.487 244.782 258.25 248.875C257.743 249.373 257.237 249.87 256.715 250.383C255.481 251.593 254.241 252.797 253 254C253.33 254.99 253.66 255.98 254 257C257.314 258.657 260.433 258.619 264 258C268.521 256.054 273.19 253.879 276.637 250.301C278 249 278 249 281 249C280.871 250.719 280.871 250.719 280 253C278.042 254.677 276.196 256.086 274.063 257.5C273.473 257.894 272.884 258.289 272.278 258.695C263.624 264.345 255.543 267.678 245 266C241.239 264.558 238.938 262.612 236.914 259.133C234.361 253.113 234.47 247.313 236 241C234.989 240.917 233.979 240.835 232.938 240.75C229.946 240.344 227.882 239.512 225.313 237.938C222.064 235.663 222.064 235.663 218 236C217.902 236.732 217.804 237.464 217.703 238.219C216.571 246.417 215.282 254.584 213.938 262.75C213.763 263.822 213.589 264.894 213.409 265.998C213.242 267.004 213.075 268.01 212.902 269.047C212.753 269.953 212.603 270.859 212.449 271.792C212 274 212 274 211 276C242.35 276 273.7 276 306 276C306.99 269.07 307.98 262.14 309 255C309.786 250.332 310.587 245.677 311.445 241.023C311.661 239.839 311.876 238.656 312.098 237.436C312.545 234.984 312.993 232.533 313.444 230.082C314.135 226.319 314.82 222.554 315.504 218.789C315.942 216.388 316.381 213.987 316.82 211.586C317.024 210.464 317.229 209.343 317.439 208.187C317.629 207.154 317.82 206.121 318.016 205.056C318.183 204.149 318.349 203.242 318.52 202.307C319 200 319 200 320 197C319.448 197.01 318.895 197.021 318.326 197.032C283.201 197.606 283.201 197.606 271 189C267 184.47 267 184.47 267 183ZM233.508 190.188C226.197 199.77 222.456 212.154 221 224C223.909 221.278 225.982 218.652 227.945 215.191C228.465 214.279 228.984 213.367 229.52 212.428C230.049 211.482 230.579 210.537 231.125 209.562C231.663 208.621 232.2 207.679 232.754 206.709C237.717 198.384 237.717 198.384 239 189C235.204 188.585 235.204 188.585 233.508 190.188ZM254.188 230.062C249.463 236.407 249.756 242.378 250 250C253.575 248.482 255.9 246.368 258.625 243.625C259.401 242.854 260.177 242.083 260.977 241.289C262.823 239.201 264.044 237.603 265 235C264.692 231.815 264.692 231.815 264 229C258.781 227.631 258.781 227.631 254.188 230.062Z" fill="white"/>
<path d="M353 218C353.66 218.33 354.32 218.66 355 219C355.451 224.41 354.513 227.411 351.973 232.164C350.683 234.597 350 236.218 350 239C351.126 241.792 352.494 244.396 354 247C359.933 241.887 362.995 235.138 366.627 228.309C367.133 227.387 367.639 226.465 368.16 225.516C368.61 224.673 369.06 223.83 369.524 222.962C371 221 371 221 373.177 220.218C373.779 220.146 374.38 220.074 375 220C374.422 223.533 373.515 226.298 371.812 229.441C371.365 230.267 370.918 231.093 370.458 231.943C369.977 232.808 369.496 233.672 369 234.563C368.507 235.451 368.013 236.34 367.505 237.256C357.037 255.79 357.037 255.79 348 261C344.079 261.078 342.605 260.571 339.75 257.875C336.119 251.911 335.636 245.861 335.625 239.063C335.6 238.303 335.576 237.543 335.551 236.76C335.521 231.046 336.858 226.79 340 222C343.978 218.263 347.651 217.772 353 218ZM349 221C346.757 222.812 346.757 222.812 346.805 225.383C346.828 226.288 346.851 227.193 346.875 228.125C346.893 229.035 346.911 229.945 346.93 230.883C346.953 231.581 346.976 232.28 347 233C349.907 229.236 349.907 229.236 352 225C351.702 222.803 351.702 222.803 351 221C350.34 221 349.68 221 349 221Z" fill="white"/>
<path d="M194 204C195.875 205.125 195.875 205.125 197 207C197.571 210.754 197.283 212.51 195.375 215.813C192.449 218.508 190.98 219.162 187 219C184.063 216.938 184.063 216.938 182 214C181.838 210.02 182.492 208.551 185.188 205.625C188.49 203.717 190.246 203.429 194 204Z" fill="white"/>
<path d="M298 241C299 242 299 242 299.312 245.313C299 249 299 249 297.375 251.438C294.35 253.428 292.556 253.464 289 253C287 251 287 251 286.562 247.625C287 244 287 244 289.125 241.5C292.636 239.668 294.258 239.894 298 241Z" fill="white"/>
</g>
</g>
<defs>
<clipPath id="clip0_1_14">
<rect width="500" height="500" fill="white"/>
</clipPath>
<clipPath id="clip1_1_14">
<rect width="300" height="134" fill="white" transform="translate(100 183)"/>
</clipPath>
</defs>
</svg>
