<?xml version="1.0" encoding="UTF-8"?>
<svg xmlns="http://www.w3.org/2000/svg" version="1.1" viewBox="0 0 283.5 283.5">
  <defs>
    <style>
      .cls-1 {
        fill: #fff;
      }

      .cls-2 {
        fill: #1a34df;
      }
    </style>
  </defs>
  <!-- Generator: Adobe Illustrator 28.7.1, SVG Export Plug-In . SVG Version: 1.2.0 Build 142)  -->
  <g>
    <g id="Vrstva_1">
      <g id="Vrstva_1-2">
        <rect class="cls-2" width="283.5" height="283.5"/>
      </g>
      <g>
        <path class="cls-1" d="M146.5,44.3v-20.8h-9.6v20.8c-34.9,2.4-62.5,31.6-62.5,67.1s27.6,64.7,62.5,67.1v20.8h9.6v-20.8c34.9-2.4,62.5-31.6,62.5-67.1s-27.6-64.6-62.5-67ZM84,111.4c0-30.3,23.2-55.1,52.9-57.5v115.1c-29.7-2.4-52.9-27.2-52.9-57.5ZM146.5,168.9V53.8c29.7,2.4,52.9,27.2,52.9,57.5s-23.3,55.1-52.9,57.5Z"/>
        <g>
          <path id="path31" class="cls-1" d="M111.7,222h-.1v38h7v-27.5l9.1,26.4.4,1.1h6.2l.4-1.1,9.3-27.1v28.2h7v-38h-10.7l-1.4,4-7.8,22.7-7.8-22.7-1.4-4h-10.3Z"/>
          <polygon class="cls-1" points="171.9 222 171.9 260 164.9 260 164.9 229.4 158.9 229.4 158.9 222 171.9 222"/>
        </g>
      </g>
    </g>
  </g>
</svg>