<?xml version="1.0" encoding="UTF-8"?>
<svg xmlns="http://www.w3.org/2000/svg" version="1.1" viewBox="0 0 283.5 283.5">
  <defs>
    <style>
      .cls-1 {
        fill: #7dcb0c;
      }

      .cls-2 {
        fill: #fff;
      }
    </style>
  </defs>
  <!-- Generator: Adobe Illustrator 28.7.1, SVG Export Plug-In . SVG Version: 1.2.0 Build 142)  -->
  <g>
    <g id="Vrstva_1">
      <g id="Vrstva_1-2">
        <rect class="cls-1" width="283.5" height="283.5"/>
      </g>
      <g>
        <path id="path851" class="cls-2" d="M220.3,132.8c-3.8,0-5.8,2.1-5.8,6.1h3.4c-.1-.7,0-1.6.3-2.2.4-.7,1.1-1,2.1-1,1,0,1.6.3,2,1,.5.9.6,2.2-.1,3.3h0c-1.1,1.9-3.1,3-4.5,4.1-1.7,1.3-3.3,2.5-3.4,3.4h0v3h11.9v-3h-7.7c.5-.5.9-1,1.8-1.7,1.3-1,3.5-2.4,4.6-3.8.7-1,1.1-2.1,1.2-3.3.1-1.5-.4-2.8-.8-3.6-1.1-1.8-3.5-2.3-4.9-2.3Z"/>
        <path id="path31" class="cls-2" d="M193,133h0s0,0,0,0v17.4h3.2v-12.6l4.2,12.1.2.5h2.9l.2-.5,4.3-12.4v12.9h3.2v-17.4h-4.9l-.6,1.8-3.6,10.4-3.6-10.4-.6-1.8h-4.7Z"/>
        <g id="g879">
          <path id="path867" class="cls-2" d="M114.3,72.2v139.1h7.6V72.2h-7.6Z"/>
          <path id="path869" class="cls-2" d="M99.1,72.2v139.1h7.6V72.2h-7.6Z"/>
        </g>
        <path id="path891" class="cls-2" d="M110.5,88.5c-29.4,0-53.2,23.9-53.2,53.2s23.9,53.2,53.2,53.2,53.2-23.9,53.2-53.2-23.9-53.2-53.2-53.2ZM110.5,96.1c25.3,0,45.7,20.4,45.7,45.7s-20.4,45.7-45.7,45.7-45.7-20.4-45.7-45.7,20.4-45.7,45.7-45.7Z"/>
      </g>
    </g>
  </g>
</svg>