<?xml version="1.0" encoding="utf-8"?>
<!-- Generator: Adobe Illustrator 28.0.0, SVG Export Plug-In . SVG Version: 6.00 Build 0)  -->
<svg version="1.1" id="Vrstva_1" xmlns="http://www.w3.org/2000/svg" xmlns:xlink="http://www.w3.org/1999/xlink" x="0px" y="0px"
	 viewBox="0 0 1024 1024" style="enable-background:new 0 0 1024 1024;" xml:space="preserve">
<style type="text/css">
	.st0{fill:#9A2C37;}
	.st1{fill:#E6D2BC;}
</style>
<rect y="0" class="st0" width="1024" height="1024"/>
<g>
	<path class="st1" d="M137.8,460.4c0.4-0.6,0.9-1.3,1.5-1.8l0,0l0.1-0.1l0.1-0.1l0,0c0.9-0.8,1.9-1.4,2.9-1.8c0,0,0.1,0,0.2,0
		c0,0,0,0,0.1,0c1.3-0.5,2.7-0.7,4-0.7l0,0c0.1,0,0.1,0,0.2,0h0.1h0.1c0.1,0,0.1,0,0.2,0l0,0c1.3,0.1,2.7,0.4,3.9,1.1c0,0,0,0,0.1,0
		l0.1,0.1c1,0.5,2,1.2,2.8,2.1l0,0l0.1,0.1l0.1,0.1l0,0c0.5,0.6,1,1.2,1.3,1.9l36.4,63c11.8-11.6,26.3-20.1,43.7-20
		c19.1-0.1,36.3,10.7,49.4,24.4c0.9-5.4,1.4-10.9,1.4-16.6c0.1-52.9-42.8-95.8-95.7-95.8s-95.8,42.9-95.8,95.8
		c0,3.2,0.2,6.4,0.5,9.5L137.8,460.4z"/>
	<path class="st1" d="M278.4,550.7c0,0-0.1-0.1-0.1-0.2l-0.8-1c-7.5-9.2-17-17.8-28.1-22.3c-4.8-1.9-9.4-2.7-14.4-2.4
		c-15.2,0.8-26.7,12.4-35.8,23.9c-0.6,0.8-1.3,1.5-2.2,2.1c-6,4.7-13.7,1.4-16.3-4.3L146,486.4l-43,62.7
		c14.5,34.4,48.6,58.6,88.3,58.6c38.9,0,72.5-23.2,87.4-56.6C278.6,551,278.5,550.9,278.4,550.7"/>
	<path class="st1" d="M366.8,509l22.1-19.9c-2.2-0.7-3.6-1.6-4.5-2.8c-0.8-1.2-1.2-3.1-1.2-5.6c0-4.3,0.9-7.2,2.8-9
		c1.9-1.7,5.2-2.6,10-2.6h23.1c4.7,0,8.1,0.9,10.1,2.6c2,1.8,3,4.7,3,8.8c0,3.1-0.6,5.3-1.7,6.7c-1.1,1.4-3.5,2.4-7.1,3.1
		c-3.3,0.6-6.2,1.7-8.7,3.1s-5.5,3.9-8.9,7.3l-7.4,7.8l27.6,34.3h2.6c4,0,7.1,0.9,9.1,2.8c2,1.9,3,4.7,3,8.5c0,4.1-1,7.1-3,8.9
		c-2,1.8-5.4,2.7-10.3,2.7h-25.7c-4.5,0-7.8-0.8-9.8-2.3s-3-4-3-7.3c0-2.5,0.6-4.5,1.8-6c1.2-1.5,3.1-2.8,5.9-3.8l-17.1-20.8
		l-12.9,11.8v21.5c0,2.7-0.5,4.5-1.4,5.4c-0.9,1-2.5,1.4-4.9,1.4h-18.8c-4.6,0-7.9-0.9-9.9-2.7s-3-4.8-3-8.9c0-3.7,0.9-6.5,2.8-8.4
		s4.7-2.9,8.4-2.9h1.7V452h-1.7c-3.7,0-6.5-1-8.5-3.1c-2-2-2.9-4.9-2.9-8.6c0-4,1-7,3-8.9c2-1.8,5.4-2.8,10-2.8h18.8
		c2.4,0,4,0.5,4.9,1.4c0.9,1,1.4,2.8,1.4,5.4V509H366.8z"/>
	<path class="st1" d="M627.3,542.9h22.5c4.8,0,8.2,0.9,10.3,2.6c2,1.8,3,4.7,3,8.7c0,4.1-1,7.1-3.1,8.9c-2.1,1.8-5.4,2.7-10.2,2.7
		H579c-4.7,0-8.1-0.9-10.2-2.7c-2.1-1.8-3.1-4.8-3.1-8.9c0-4,1-6.9,3-8.7c2-1.7,5.4-2.6,10.3-2.6h22.5v-50.8h-11.8
		c-4.7,0-8-0.9-10-2.7c-2-1.8-3-4.7-3-8.9c0-4.1,1-7.1,2.9-8.8c2-1.7,5.3-2.6,10.1-2.6h31.5c2,0,3.4,0.4,4.5,1.2
		c1.1,0.8,1.6,1.9,1.6,3.3V542.9L627.3,542.9z M612.3,421.8c5.1,0,8.5,1,10.1,2.9c1.7,2,2.5,6.6,2.5,14c0,7.1-0.7,11.5-2.2,13.2
		s-5.1,2.5-10.6,2.5c-5.4,0-8.9-0.8-10.5-2.4s-2.4-4.8-2.4-9.6c0-8.9,0.8-14.6,2.4-17.1C603.2,423,606.7,421.8,612.3,421.8z"/>
	<path class="st1" d="M892.7,543.3h22.5c4.8,0,8.2,0.9,10.3,2.6c2,1.8,3,4.7,3,8.7c0,4.1-1,7.1-3.1,8.9c-2.1,1.8-5.4,2.7-10.2,2.7
		h-70.7c-4.7,0-8.1-0.9-10.2-2.7c-2.1-1.8-3.1-4.8-3.1-8.9c0-4,1-6.9,3-8.7c2-1.7,5.4-2.6,10.3-2.6H867v-50.9h-11.8
		c-4.7,0-8-0.9-10-2.7c-2-1.8-3-4.7-3-8.9c0-4.1,1-7.1,2.9-8.8c2-1.7,5.3-2.6,10.1-2.6h31.5c2,0,3.4,0.4,4.5,1.2
		c1.1,0.8,1.6,1.9,1.6,3.3L892.7,543.3L892.7,543.3z M877.7,422.3c5.1,0,8.5,1,10.1,2.9c1.7,2,2.5,6.6,2.5,14
		c0,7.1-0.7,11.5-2.2,13.2s-5.1,2.5-10.6,2.5c-5.4,0-8.9-0.8-10.5-2.4s-2.4-4.8-2.4-9.6c0-8.9,0.8-14.6,2.4-17.1
		C868.7,423.4,872.2,422.3,877.7,422.3z"/>
	<path class="st1" d="M818.9,545.8c-1.6-1.9-4.1-2.9-7.4-2.9h-1.4v-45.3c0-21.3-8.8-31.3-27.4-31.3c-10.7,0-20,5.4-26.3,12.1
		c-4.1-8.2-11.9-12.1-23.6-12.1c-10.5,0-18.9,4.8-25.3,11.8v-3c0-4.8-1-6-5.2-6l0,0h-18.1c-4.1,0-7.1,0.9-8.9,2.7
		c-1.8,1.8-2.7,4.7-2.7,8.7c0,3.7,0.9,6.5,2.5,8.5c1.7,2,4.2,3,7.5,3h1.4v50.8h-0.1h-1.4c-3.3,0-5.8,0.9-7.4,2.9
		c-1.6,1.9-2.5,4.7-2.5,8.4c0,4.1,0.9,7.1,2.6,8.9c1.7,1.8,4.6,2.7,8.7,2.7h5.2h15.7h5.3c4,0,6.9-0.9,8.7-2.7
		c1.7-1.8,2.6-4.8,2.6-8.9c0-3.7-0.8-6.5-2.5-8.4c-1.6-1.9-4.1-2.9-7.4-2.9h-1.4H710v-43.1c4.1-4.2,9.1-7.2,14.8-7.2
		c6.4,0,9.1,3.2,9.1,13.7v53.4c0,4.8,1,6,5.2,6h4.9h11h5.2c4,0,6.9-0.9,8.7-2.7c1.7-1.8,2.6-4.8,2.6-8.9c0-3.7-0.8-6.5-2.5-8.4
		c-1.6-1.9-4.1-2.9-7.4-2.9h-1.4v-43.1c4.1-4.2,9.1-7.2,14.8-7.2c6.4,0,9.1,3.2,9.1,13.7v53.4c0,4.8,1,6,5.2,6h4.9H805h5.2l0,0
		c4,0,6.9-0.9,8.7-2.7c1.7-1.8,2.6-4.8,2.6-8.9C821.4,550.5,820.5,547.7,818.9,545.8z"/>
	<path class="st1" d="M498,509v33.9h24.7c4.7,0,8.1,0.9,10.1,2.6c2,1.8,3,4.7,3,8.7c0,4.1-1,7.1-3,8.9c-2,1.8-5.4,2.7-10.1,2.7
		h-58.5c-4.8,0-8.2-0.9-10.3-2.7c-2-1.8-3-4.8-3-8.9c0-4,1-6.9,3-8.7c2-1.7,5.4-2.6,10.3-2.6h8V492h-4.5c-4.8,0-8.1-0.9-10.1-2.7
		c-2-1.8-3-4.7-3-8.9c0-4.1,0.9-7.1,2.9-8.8c1.9-1.7,5.3-2.6,10.2-2.6H490c1.9,0,3.4,0.4,4.4,1.2c1.1,0.8,1.6,1.9,1.6,3.3V489
		c7.6-8.1,14.7-14,21.3-17.5s13.7-5.2,21.3-5.2c6.9,0,12.4,1.6,16.4,4.7s6.1,7.3,6.1,12.5c0,4-1.4,7.4-4.2,10s-6.4,3.9-10.8,3.9
		c-3.1,0-6.9-1.1-11.1-3.4c-4.3-2.3-7.3-3.4-8.9-3.4c-3.3,0-7.3,1.5-11.8,4.5C509.6,498.1,504.2,502.7,498,509z"/>
</g>
</svg>
