<svg width="500" height="500" viewBox="0 0 500 500" fill="none" xmlns="http://www.w3.org/2000/svg">
<g clip-path="url(#clip0_9_596)">
<rect width="500" height="500" fill="white"/>
<rect width="500" height="500" fill="white"/>
<g clip-path="url(#clip1_9_596)">
<path d="M141.588 218C130.801 218 124.622 224.374 120.919 231.222C117.773 224.128 111.595 218 101.599 218C91.6037 218 86.21 224.012 82.5008 230.379V219.866C82.4995 219.633 82.3242 219.446 82.108 219.444H77.3927C77.176 219.446 77.0013 219.633 77 219.866V280.319C77 280.55 77.1772 280.739 77.3927 280.739H82.1087C82.3248 280.739 82.4995 280.55 82.5014 280.319V245.404C82.5014 233.026 90.5919 223.413 100.809 223.413C111.026 223.413 117.546 231.222 117.546 243.962V280.319C117.546 280.55 117.723 280.739 117.939 280.739H122.655C122.871 280.739 123.046 280.55 123.048 280.319V245.044C123.048 231.346 131.473 223.413 141.133 223.413C151.692 223.413 158.092 231.107 158.092 244.329V280.325C158.092 280.555 158.269 280.748 158.484 280.748H163.2C163.417 280.747 163.591 280.557 163.593 280.325V243.607C163.598 228.213 155.179 218 141.588 218ZM185.089 247.12C186.095 233.578 194.832 223.392 206.144 223.392C219.248 223.392 225.857 234.776 226.642 247.12H185.089ZM206.372 218C190.913 218 179.272 232.142 179.272 249.877V250.116C179.272 269.165 192.262 281.993 207.271 281.993C218.184 281.993 225.002 277.254 230.807 270.602C230.857 270.54 230.857 270.445 230.795 270.389L227.193 266.992C227.138 266.94 227.055 266.943 227.003 267.001C222.313 272.345 216.286 276.483 207.493 276.483C196.296 276.483 186.103 267.621 185.098 252.396H232.474C232.588 251.436 232.588 251.075 232.588 250.238V250C232.588 231.903 222.396 218.006 206.38 218.006L206.372 218ZM243.727 224.72H283.273L242.164 277.07V280.413H291.427V275.156H250.318L291.426 222.807V219.465H243.727V224.72H243.727ZM300.927 224.72H340.472L299.364 277.07V280.413H348.626V275.156H307.519L348.626 222.807V219.465H300.928V224.72H300.927ZM358.375 250.109C358.375 266.162 369.161 280.221 384.499 281.999V276.415C372.642 274.634 364.331 263.33 364.331 250.109C364.331 236.888 372.889 225.572 384.499 223.802V218.213C369.25 220.004 358.375 234.056 358.375 250.104V250.109Z" fill="black"/>
<path d="M395.875 218.218V223.801C407.484 225.571 416.043 236.58 416.043 250.109C416.043 263.637 407.732 274.634 395.875 276.416V281.999C411.213 280.222 422 266.162 422 250.108C422 234.054 411.131 220.002 395.875 218.218Z" fill="black"/>
</g>
</g>
<defs>
<clipPath id="clip0_9_596">
<rect width="500" height="500" fill="white"/>
</clipPath>
<clipPath id="clip1_9_596">
<rect width="345" height="64" fill="white" transform="translate(77 218)"/>
</clipPath>
</defs>
</svg>
