<svg width="500" height="500" viewBox="0 0 500 500" fill="none" xmlns="http://www.w3.org/2000/svg">
<g clip-path="url(#clip0_9_609)">
<rect width="500" height="500" fill="white"/>
<rect width="500" height="500" fill="white"/>
<g clip-path="url(#clip1_9_609)">
<path d="M415 232.699C414.939 233.509 414.817 234.319 414.755 235.13C413.472 246.818 404.545 256.249 392.44 258.679C391.645 258.853 390.789 258.911 389.933 259.084C389.933 257.464 389.933 255.96 389.933 254.397C391.095 254.108 392.257 253.935 393.357 253.587C400.938 251.215 405.829 246.239 408.03 239.122C410.537 231.021 409.131 223.499 403.384 216.903C400.021 213.026 395.558 210.712 390.3 209.844C390.178 209.844 390.056 209.786 389.872 209.786C389.872 208.224 389.872 206.662 389.872 204.926C391.584 205.273 393.296 205.504 394.886 206.025C405.646 209.439 412.004 216.498 414.327 226.913C414.633 228.244 414.633 229.633 414.817 230.964C414.817 231.079 414.878 231.195 414.939 231.311C415 231.774 415 232.236 415 232.699Z" fill="black"/>
<path d="M89.6247 215.052C93.8432 208.398 99.8347 204.579 108.211 204.81C116.586 205.042 122.517 208.918 126.185 215.746C127.53 214.184 128.753 212.448 130.159 211.001C134.622 206.488 140.308 204.637 146.727 204.81C151.252 204.926 155.47 206.025 159.077 208.687C162.929 211.522 165.191 215.341 166.353 219.738C166.964 221.995 167.147 224.31 167.147 226.624C167.147 236.75 167.147 246.876 167.147 257.001C167.147 257.985 167.147 257.985 166.108 257.985C165.008 257.985 163.846 257.927 162.745 257.985C162.073 257.985 161.828 257.811 161.828 257.117C161.828 250.116 161.828 243.172 161.828 236.171C161.828 232.757 161.828 229.344 161.767 225.93C161.706 223.037 161.156 220.201 159.811 217.54C157.426 212.795 153.453 210.191 147.95 209.555C142.815 208.976 138.168 210.133 134.255 213.489C130.832 216.383 129.059 220.144 128.508 224.425C128.325 225.93 128.264 227.434 128.203 228.938C128.203 238.312 128.203 247.686 128.203 257.117C128.203 258.043 128.203 258.043 127.224 258.043C126.124 258.043 125.023 258.043 123.923 258.043C122.945 258.043 122.945 258.043 122.945 257.117C122.945 250.694 122.945 244.214 122.945 237.791C122.945 233.857 122.945 229.864 122.884 225.93C122.822 223.037 122.272 220.201 120.927 217.598C118.298 212.39 113.835 209.786 107.783 209.497C100.752 209.15 94.3934 212.969 91.3365 219.333C89.9915 222.169 89.319 225.12 89.319 228.186C89.319 237.791 89.319 247.396 89.319 257.059C89.319 257.985 89.319 257.985 88.3408 257.985C87.1792 257.985 86.0175 257.985 84.7948 257.985C84.1834 257.985 84 257.811 84 257.233C84 255.266 84 253.24 84 251.273C84 236.518 84 221.764 84 207.009C84 206.025 84 206.025 85.0393 206.025C86.1398 206.025 87.3014 206.083 88.4019 206.025C89.2578 205.967 89.4413 206.257 89.4413 206.893C89.3801 209.381 89.4413 211.811 89.4413 214.299C89.4413 214.531 89.4413 214.762 89.4413 214.994C89.5024 214.994 89.5635 215.052 89.6247 215.052Z" fill="black"/>
<path d="M187.812 233.972C188.24 238.891 189.768 243.346 193.07 247.107C197.961 252.662 204.38 254.86 211.9 254.224C217.831 253.703 222.722 251.215 226.94 247.338C227.307 246.991 227.674 246.644 228.041 246.239C229.263 247.281 230.486 248.264 231.831 249.421C230.18 250.81 228.713 252.199 227.062 253.414C221.56 257.58 215.202 259.258 208.232 259.084C196.127 258.679 186.039 250.926 183.165 239.643C181.148 231.658 182.004 223.962 186.467 216.845C190.502 210.481 196.31 206.43 204.136 205.215C215.935 203.364 226.451 209.092 230.914 219.681C232.748 224.078 233.421 228.649 233.298 233.336C233.298 234.03 232.993 234.088 232.381 234.088C217.892 234.088 203.402 234.088 188.912 234.088C188.607 233.972 188.24 233.972 187.812 233.972ZM227.613 229.459C227.368 225.988 226.512 222.689 224.984 219.623C219.42 208.571 206.581 207.298 198.572 211.869C194.048 214.415 191.175 218.176 189.34 222.805C188.484 224.946 188.056 227.145 187.812 229.459C201.079 229.459 214.285 229.459 227.613 229.459Z" fill="black"/>
<path d="M289.79 206.083C289.79 206.951 289.79 207.819 289.79 208.629C289.79 208.86 289.606 209.092 289.484 209.265C284.287 215.167 279.03 221.069 273.772 226.913C266.741 234.84 259.71 242.767 252.679 250.694C252.007 251.447 251.273 252.257 250.539 253.125C263.684 253.125 276.706 253.125 289.79 253.125C289.79 254.687 289.79 256.133 289.79 257.638C274.077 257.638 258.426 257.638 242.591 257.638C242.775 256.365 242.225 255.092 243.386 253.819C251.946 244.33 260.383 234.725 268.881 225.177C272.977 220.548 277.134 215.919 281.231 211.291C281.414 211.059 281.597 210.828 281.903 210.48C269.248 210.48 256.714 210.48 244.181 210.48C244.181 208.976 244.181 207.53 244.181 206.025C259.282 206.083 274.444 206.083 289.79 206.083Z" fill="black"/>
<path d="M305.258 253.24C318.402 253.24 331.425 253.24 344.508 253.24C344.508 254.745 344.508 256.191 344.508 257.696C328.796 257.696 313.144 257.696 297.31 257.696C297.371 256.365 297.004 255.15 298.166 253.877C310.821 239.701 323.416 225.525 336.071 211.291C336.255 211.117 336.377 210.886 336.621 210.596C323.966 210.596 311.433 210.596 298.838 210.596C298.838 209.092 298.838 207.645 298.838 206.141C314.061 206.141 329.224 206.141 344.569 206.141C344.569 207.009 344.569 207.935 344.569 208.803C344.569 209.034 344.325 209.265 344.202 209.439C339.189 215.109 334.115 220.78 329.04 226.45C321.215 235.245 313.45 243.982 305.686 252.777C305.563 252.835 305.441 252.951 305.258 253.24Z" fill="black"/>
<path d="M413.41 289.519C413.41 291.776 413.41 293.859 413.41 296.058C405.524 296.058 397.698 296.058 389.811 296.058C389.811 286.916 389.811 277.716 389.811 268.516C397.576 268.516 405.401 268.516 413.227 268.516C413.227 270.657 413.227 272.74 413.227 274.996C408.153 274.996 403.017 274.996 397.82 274.996C397.82 276.385 397.82 277.716 397.82 279.162C402.467 279.162 407.052 279.162 411.76 279.162C411.76 281.187 411.76 283.155 411.76 285.18C407.113 285.18 402.528 285.18 397.82 285.18C397.82 286.684 397.82 288.073 397.82 289.519C403.017 289.519 408.153 289.519 413.41 289.519Z" fill="black"/>
<path d="M349.216 268.458C352.15 268.458 354.963 268.458 357.836 268.458C358.386 268.458 358.386 268.805 358.509 269.094C360.037 273.145 361.566 277.195 363.094 281.187C363.644 282.634 364.194 284.138 364.867 285.816C367.129 279.914 369.269 274.186 371.47 268.458C374.466 268.458 377.339 268.458 380.396 268.458C379.723 270.078 379.051 271.582 378.44 273.145C375.26 280.609 372.081 288.131 368.902 295.595C368.719 296.058 368.474 296.231 367.924 296.173C365.845 296.173 363.767 296.173 361.688 296.173C361.26 296.173 361.015 296.058 360.832 295.653C357.041 286.742 353.251 277.889 349.521 269.036C349.399 268.921 349.338 268.747 349.216 268.458Z" fill="black"/>
<path d="M378.929 205.042C378.929 206.604 378.929 208.166 378.929 209.613C377.461 210.018 375.933 210.249 374.588 210.77C367.007 213.547 362.299 218.813 360.465 226.161C358.448 234.204 360.159 241.552 366.029 247.801C369.269 251.273 373.426 253.356 378.317 254.166C378.501 254.224 378.684 254.224 378.929 254.282C378.929 255.844 378.929 257.406 378.929 258.969C366.701 258.101 354.168 247.859 353.923 232.41C353.679 216.845 366.212 206.025 378.929 205.042Z" fill="black"/>
<path d="M305.441 289.346C310.21 289.346 314.856 289.346 319.564 289.346C319.564 291.602 319.564 293.801 319.564 296.058C312.166 296.058 304.83 296.058 297.432 296.058C297.432 286.916 297.432 277.773 297.432 268.573C300.061 268.573 302.751 268.573 305.502 268.573C305.441 275.401 305.441 282.345 305.441 289.346Z" fill="black"/>
<path d="M330.936 268.458C333.626 268.458 336.316 268.458 339.006 268.458C339.006 277.658 339.006 286.8 339.006 296C336.316 296 333.626 296 330.936 296C330.936 286.858 330.936 277.716 330.936 268.458Z" fill="black"/>
</g>
</g>
<defs>
<clipPath id="clip0_9_609">
<rect width="500" height="500" fill="white"/>
</clipPath>
<clipPath id="clip1_9_609">
<rect width="331" height="92" fill="white" transform="translate(84 204)"/>
</clipPath>
</defs>
</svg>
