<?xml version="1.0" encoding="UTF-8"?>
<svg xmlns="http://www.w3.org/2000/svg" xmlns:xlink="http://www.w3.org/1999/xlink" version="1.1" viewBox="0 0 283.5 283.5">
  <defs>
    <style>
      .cls-1 {
        fill: #fff;
        fill-rule: evenodd;
      }

      .cls-2 {
        fill: url(#Nepojmenovaný_přechod_22);
      }
    </style>
    <linearGradient id="Nepojmenovaný_přechod_22" data-name="Nepojmenovaný přechod 22" x1="0" y1="141.8" x2="283.5" y2="141.8" gradientUnits="userSpaceOnUse">
      <stop offset="0" stop-color="#123ff3"/>
      <stop offset="1" stop-color="#27eac1"/>
    </linearGradient>
  </defs>
  <!-- Generator: Adobe Illustrator 28.7.1, SVG Export Plug-In . SVG Version: 1.2.0 Build 142)  -->
  <g>
    <g id="Vrstva_1">
      <g id="Vrstva_1-2" data-name="Vrstva_1">
        <g id="Vrstva_1-2">
          <rect class="cls-2" width="283.5" height="283.5"/>
          <g id="g2092">
            <path id="path2073" class="cls-1" d="M77.6,122.3c-4,0-5.4,3.6-6.1,5.7l-6,19.1-4.1-16.4c-.6-2.2-1.8-5.6-5.9-5.6s-5.5,2.1-6.7,5.7l-8.6,24.7c-.2.6-.4,1.3-.4,2.2,0,1.7,1.2,4,4.2,4s4.5-1.2,5.5-4.6l5.1-19.2,5.7,15.4c1.1,2.9,2.6,4.6,5.5,4.6s4.5-1.9,5.3-4.9l5.4-20.3,4.5,19.7c.4,1.8,1.2,2.8,2.9,2.8s2.7-1.2,2.7-2.9-.2-1.9-.4-3.1l-3.1-20.7c-.5-3.6-2.1-6.4-5.6-6.4Z"/>
            <path id="path2070" class="cls-1" d="M100,126.2c-7.1,0-12.5,5.2-12.5,13.9s5,14.2,12.2,14.2,12.8-4.8,12.8-14-5.2-14.1-12.5-14.1ZM98.8,132.9c3.9,0,5.7,3.5,5.7,8s-2.2,7.6-5.7,7.6-5.4-3.4-5.4-7.9,2.2-7.7,5.5-7.7Z"/>
            <path id="path2067" class="cls-1" d="M127.2,132.3c-7.3,0-13.4,5.5-13.4,14.5s5.8,13.6,12.9,13.6c7.9,0,13.6-6,13.6-14.7s-5-13.5-13-13.5ZM128.5,138.2c3.4,0,5.9,2.3,5.9,7.4s-2.4,8.7-6.8,8.7-5.7-3.1-5.7-7.3,2.9-8.8,6.6-8.8Z"/>
            <path id="path2064" class="cls-1" d="M160.9,125.9c-3.1,0-4.1,2.5-3.8,5.1l1.8,14.7-9.6-12.8c-1-1.3-2-2.3-4.1-2.3s-3.6,1.7-3.6,4.4,0,.5,0,.9l1.6,19.2c.2,2.2,1.1,3.1,2.5,3.1s2.4-1.3,2.4-3.3v-13.9c0,0,8.1,13.3,8.1,13.3,1.7,2.7,3.3,3.7,5.3,3.7s4.2-2.2,4.2-4.7,0-.5,0-.9l-.9-21.8c0-2.2-.9-4.6-4.1-4.6Z"/>
            <path id="path2061" class="cls-1" d="M181.4,127.2c-6.5,0-13.5,3.8-13.5,14.9s5.9,13.5,11.6,13.5,11.8-3.6,11.8-8.6-3.2-6.5-7.9-7.7c2.8-1.2,5.7-2.8,5.7-6.5s-2.8-5.7-7.8-5.7ZM179.9,132.9c1.1,0,2.2.3,2.2,1.4s-.7,1.6-2.7,2.9c-1.1.7-2,1.5-2,2.6,0,1.8,1.1,2.3,2.8,2.7,3.7.9,5.4,1.8,5.4,3.7s-1.7,2.7-5.1,2.7-6.1-2.2-6.1-8.4,2.7-7.6,5.5-7.6Z"/>
            <path id="path2058" class="cls-1" d="M197.7,126.6c-2.6,0-4.1,1.8-4.3,5.1-.2,3.6-.4,7.6-.4,11.1,0,7.2,3.2,12.3,10,12.3s8.2-3,9.7-8.4c.6-2.4,1-5.9,1.2-9.6,0-1,.2-2,.2-2.2,0-1.4-.7-2.4-2.2-2.4s-1.8,1.5-2,2.4l-1.6,8c-.7,3.7-2.1,6-4.4,6s-3.4-2.7-3.4-6,1.3-10.2,1.3-12.2-1.3-4.2-4.1-4.2Z"/>
            <path id="path2055" class="cls-1" d="M232.1,128.2c-10,0-16.5,6.5-16.5,16s5.4,13.8,13.6,13.8,14.5-5.7,14.5-12.3-1.9-5.2-6-5.2-4.3.6-6,.9c-1.1.2-2.2.8-2.2,2.2s1.1,2.1,2.3,2.1,3-.1,4-.1,1.8.5,1.8,1.4c0,2.1-2.8,4.9-7.4,4.9s-7.4-2.8-7.4-7.4,3.8-8.8,8.5-8.8,3.2.4,4.7.4c2.5,0,3.7-1.6,3.7-3.6,0-3.3-3.5-4.2-7.7-4.2Z"/>
          </g>
        </g>
      </g>
    </g>
  </g>
</svg>