<?xml version="1.0" encoding="utf-8"?>
<!-- Generator: Adobe Illustrator 28.0.0, SVG Export Plug-In . SVG Version: 6.00 Build 0)  -->
<svg version="1.1" id="Vrstva_1" xmlns="http://www.w3.org/2000/svg" xmlns:xlink="http://www.w3.org/1999/xlink" x="0px" y="0px"
	 viewBox="0 0 1024 1024" style="enable-background:new 0 0 1024 1024;" xml:space="preserve">
<style type="text/css">
	.st0{fill:#FE3D3C;}
	.st1{fill:#FFFFFF;}
</style>
<rect y="0" class="st0" width="1024" height="1024"/>
<g>
	<path class="st1" d="M184.4,314v396h228.1l0.1-136.2l74.7,74.7l74.6-74.7L561.8,710l30.9,0c0.3-10.6,0.5-24.1,0.3-30
		c-0.3-6.3-0.6-21.6-0.6-29.8c0-45.9,4-57.1,4-123.2c0-19.8-4.4-24.6-10.8-24.6c-7.1,0-25.1,13.5-38.3,23
		c-21.2,15.1-32.6,27.2-46.4,27.2c-8.1,0-12.7-3.6-17.9-10.2c-1-1.2-3.7-6.7-3.7-11c0-4.9,1.9-11.6,9.4-16.2c8.1-4.9,17-4,36.2-15.6
		c22.7-13.8,49.9-29.7,54.3-32.5c7.8-4.1,5.9-10.5,6-16.3c0-12.8,11.4-17.2,21.2-17.2c9.4,0,15.2,3.5,16.7,4.1
		c3.5-2,12.7-7.1,29.8-17.7c21.1-13,20.7-23.3,33.8-26.2c14.6-3.1,23.8,11.1,23.8,21.1c0,14.9-19,23.6-28.6,29
		c-26.8,15.2-36.3,21.6-45.9,27.8c0.5,6,0.5,19.9,0.5,31.9c0,20,6,57.4,6,78.1c0,24.6-1,55-1,62.6c0,12.2,1.4,26.1,2.5,35.7
		c0.7,7.6,1.7,19.8,2.2,30l143.7,0V519.2c0,0,0,0,0,0c-0.2,0.5-0.5,1-0.8,1.5C776.9,545.5,761,573,748.9,615v0
		c-3.3,12.3-4.6,21.6-4.8,33.8c-0.5,20.8-30.1,29.1-46.5,5.5c-13.5-19.5-29-88.9-30.8-97.2c-7.4-33.7-10.3-45.9-11.2-58.4
		c-1.2-16,5.2-25,19.4-28.7c14.7-3.8,26.6,3.5,27.8,19.6c2.2,30.3,4.1,53.9,7,67.6c1,4.6,3.7,6.3,6.6,6.3c3.8,0,6-2.6,7.3-5.5
		c2.6-5.6,12.5-35.8,27.8-63.2c17.4-31.3,38.7-59.1,38.7-59.1c0,0,0,0,0,0V314H564.4l-77.1,77.2L410.3,314L184.4,314z"/>
	<path class="st1" d="M511,342.4L487.4,366l-52-52L511,342.4z"/>
	<path class="st1" d="M430.6,710h31.5v-61.4l-31.5-31.5V710z"/>
	<path class="st1" d="M544.1,648.2h-31.3l31.3-31.3V648.2z"/>
	<path class="st1" d="M808,315.9v98.6c3.4-3.8,6.9-7.6,10.4-11.3c7-9.3,13.7-18.7,21.1-25.2v-40.9L808,315.9z M839.6,448.4
		c-13.5,14-23.8,27.9-31.5,39.8V710l31.5,0V448.4z"/>
</g>
</svg>
