<?xml version="1.0" encoding="utf-8"?>
<!-- Generator: Adobe Illustrator 28.0.0, SVG Export Plug-In . SVG Version: 6.00 Build 0)  -->
<svg version="1.1" id="Vrstva_1" xmlns="http://www.w3.org/2000/svg" xmlns:xlink="http://www.w3.org/1999/xlink" x="0px" y="0px"
	 viewBox="0 0 1024 1024" style="enable-background:new 0 0 1024 1024;" xml:space="preserve">
<style type="text/css">
	.st0{fill:#80C1FF;}
	.st1{fill:#FFFFFF;}
</style>
<rect y="0" class="st0" width="1024" height="1024"/>
<g>
	<path class="st1" d="M908.8,153.7c-7.7-4.2-16.5-5.9-25.2-4.8c-7.7,0.9-14.9,4.2-20.6,9.6c0.1,0-13.3,13.1-13.3,13.1l-3.6,5.7
		c0,0.1-11.9,14.9-11.9,14.9s-0.1,0.1-0.1,0.2v-82.1l-36.3-21.8v149.1l-0.5,0.7l-8.7,10.2v-160H564.1L484.2,168l-71-79.5H191.6
		v492.6H417v-217l66.3,68.4l81.4-69.4v218h224V373.2c1.7-3,3.2-5.4,3.2-5.4c0-0.1,1.9-2.8,1.9-2.8c0.1-0.1,2-3.2,4.1-6.5V581
		l36.2-25V293.5c1.6-2.4,4-5.9,4-5.9c0.3-0.6,5.6-8.4,5.6-8.4l8.3-12.3c0.1-0.2,3.2-4.1,3.2-4.1l7.7-10.9c1.8-3,4.4-5.3,7.5-6.7
		l0.8-0.4l1.1-0.8l4-4.1c0.1-0.1,7-5.9,7-5.9l11.8-5.5l11-6.1l10.1-12.4l5.4-16.6l1.6-16.1C922,167.7,916.8,159.1,908.8,153.7
		 M638.9,287.7c0.2,1.6,1.1,16.1,1.1,18.5c0,7.2,0.4,15.2,0.2,18.4c-0.2,2.4,0.2,10.9,0.2,10.9c0.6,6.7,2,13.9,2.2,15.2
		c0.3,3.4-1,16.3-0.6,19.3c0.5,2.4,0.8,4.8,0.9,7.3c-0.2,3-0.1,6,0.3,8.9c-0.2,2.7-0.3,5.7-0.4,9c-0.2,4.8-0.3,9.8-0.8,14.1
		c-0.1,1.1,0,8.7,0,8.7c-1.3,7.8-1.4,15.6-0.5,23.5c0.2,1.6-0.1,6.8,0.1,7.7c0.2,1.2,1.9,7.3,2.1,8.7c0.4,4.5,1.1,9.1,2.1,13.5
		c1,2.2,5,11.7,5.4,12.8c1.9,5.4,2.4,11.1,1.4,16.7c-1.5,5.6-3.4,11.2-5.5,16.7c-1.4,2.2-3.5,3.5-4.6,5s-2.7,2.7-4.5,3.4
		c-6.8,2.5-14.2,2.8-21.3,1c-4.5-0.5-8.9-1.8-12.9-3.8c-4.3-2.6-5.7-9.6-6.3-13.4c-0.3-1.8,0.2-6.5,0.1-7.2
		c-0.1-1.1-1.7-8.1-1.7-10.3c0.2-3,0.1-6-0.1-9c-0.7-4-2.6-10.5-2.6-10.5c-0.5-2.7-2-8.5-2-8.6c-1.4-3.9-2.3-8-2.8-12.1
		c-0.5-5.7,0.3-11.5,2.3-17c0.9-2.6,1.5-5.3,2-8.1c0.2-1.9-1.3-10.9-1-14c0.1-1.2,1.1-5.2,1.1-5.7c0.4-2.6,0.5-9.4,0.5-10.4
		c0.5-4.3,0.8-8.7,0.8-13c-0.2-2.4-0.2-4.8,0-7.2c0.4-4.1,0.4-8.2,0-12.3c-0.5-3-0.6-6-0.5-9.1c-0.4-4.8-0.5-9.6-0.3-14.5
		c0-0.7-0.8-8.1-0.8-10.4c0-1.5-0.1-10.6-0.2-11.7c-2-22.7-5-27.1-6.3-27.9c-2.1-0.8-4.4-0.8-6.5,0.1c-1.5,0.7-5.2,4-8.5,5.7
		c-3.1,1.7-9,4.4-11,5.9c-4.2,3.3-8.8,6.2-13.5,8.7c-1.8,1.2-3.5,2.7-5,4.3c-4.3,4.2-9.1,7.7-14.4,10.5c-3.5,1.7-6.7,3.8-9.5,6.5
		c-1.1,1.1-5,7.7-7.6,10.2c-1.9,2-3.4,4.2-4.5,6.7c-1.1,3.1-3,5.8-5.5,7.9c-5.8,3.2-12.8,3.7-19.1,1.4c-6.3-2.9-11.2-8.1-13.8-14.5
		c-2.8-9-0.7-18.7,5.7-25.7c4.7-4.2,10.4-7,16.5-8c3.5-0.8,6.9-2.1,10.2-3.7c1.4-0.8,5.7-4,6.7-4.6c1.4-0.9,6.3-3.3,7.3-3.9
		c3.1-2.6,6.3-4.9,9.6-7.1c5.8-3.2,10.4-5.8,13.1-7.5c4.7-2.7,9.1-5.8,13.1-9.4c1.2-1.1,6.1-3,11.6-6c1.4-0.8,7-2.7,8.5-3.3
		c1-0.5,4.9-3.4,6.1-4c5.1-2.6,7.6-5.8,6.2-13.7c-0.8-2.9-1.1-5.8-1.1-8.8c0.6-3.2,1.7-6.3,3.1-9.2c0.9-1.7,2.4-1.7,3.3-3.3
		c1.4-1.8,3.4-3.1,5.7-3.5c2.1-1.7,4.7-2.9,7.4-3.3c7.1-1.2,16.3,4,17.6,4.3c3,0.5,6.1,0.3,9-0.5c0.4-0.1,3.4-2,4.4-2.4
		c1.4-0.5,6-1.8,7-2.1c1.4-0.5,8-3.9,9.6-4.6c1.7-0.7,5.7-1.4,7.6-1.8c3.1-2.2,9-4.1,11.2-6.1c2.5-2.6,4.7-5.5,6.7-8.5
		c2.7-2.5,5.6-4.8,8.7-6.8c3.1-2.5,6.5-4.5,10.2-6c3,0,6,0.1,9,0.5c4.3-0.5,8.5,1.6,10.9,5.2c2.3,2.5,4,5.4,5.2,8.6
		c2.2,10.9-6,21.7-12.2,25.6c-0.6,0.4-3.6,1.3-5.5,1.9c-2.6,0.9-5.2,2.7-7,3.2c-2.4,0.9-4.7,2.3-6.6,4.1c-1.4,0.7-6.2,3.7-7.8,4.6
		c-1.9,1.9-4.2,3.4-6.7,4.4c-4.1,1-8,2.9-11.3,5.6c-3.2,1.6-6.7,2.7-10.2,3.2c-0.7,0.2-9.2,3.8-10.1,8.7c-0.9,5.2-0.2,6.6-1.1,14.1
		C638.3,279,638.4,283.3,638.9,287.7 M915.8,192.2c-1,5.2-2.6,10.2-4.8,15c-2.2,3.9-5.1,7.5-8.4,10.5c-2.9,2.1-6.1,3.9-9.5,5.2
		c-1.7,0.6-10.3,4.6-12.6,5.9c-3.3,1.8-6.2,4.3-8.5,7.2c-1.1,1.3-2.3,2.5-3.5,3.6c-4.6,2.1-8.4,5.6-10.9,10
		c-3.3,5-6.8,9.7-10.5,14.3c-2,4-4.5,7.8-7.4,11.1c-1,1.1-1.9,2.2-2.7,3.5c-0.9,1.3-1.8,2.8-2.7,4.3c-0.3,0.4-0.5,0.8-0.8,1.2
		c-1.5,2.6-3.1,5.2-5,7.6c-2.6,3.1-4.6,6.6-5.9,10.4c-2.6,4.1-5,8.4-7.1,12.8c-0.8,2.1-4.9,9-5.4,10.1c-2,2.9-4.3,5.7-6.7,8.4
		c-0.9,1.9-1.6,3.9-2.2,5.9c-0.6,2-2.3,5.9-2.8,7.4c-0.7,1.1-1.6,2.6-2.5,4.1c0,0.1-0.1,0.1-0.1,0.2c-0.7,1.1-1.4,2.3-2.1,3.5
		c-1.7,2.7-3.3,5.3-4.4,7c-0.7,0.9-1.5,2-2.1,3c-1.1,1.5-8.8,14.7-10.5,17.8c-0.8,1.4-1.7,2.9-2.7,4.4c-2.6,3.5-4.6,7.4-5.9,11.6
		c-0.9,2.7-1.9,5.2-3,7.8c-2.2,5.7-3.7,11.7-4.5,17.7c-0.4,3.7-0.4,7.4-0.2,11c0.3,3.6,0.2,7.2-0.3,10.8c-1.1,5.9-3.4,11.6-6.6,16.7
		c-2.1,3.1-4.5,6-7.2,8.5c-2.5,2.4-6.7,3.3-14.3,3.4c-10.3,0-14.7-3.8-20.2-11.8c-1.8-3-3.4-6.1-4.8-9.2c-2.8-5.8-5.2-11.9-6.9-18.1
		c-0.6-2.1-1.5-4.4-2.2-6.7c-0.9-2.5-2.8-9.4-3-10.6c-0.2-1.1-2.6-9.2-2.8-10c-0.9-5-2.2-9.6-3.5-14s-2.4-8.9-3.3-13.4
		c-1.2-5.5-2.8-10.9-4.7-16.2c0,0-3.2-10.2-4.3-13.9c-1.4-5-6-18.6-6-18.6c-1.7-4.7-5.8-15.6-6.1-17.4c-2.4-14.2-2.4-25.7,0.2-30.7
		c2.2-2.7,5-4.8,8.2-6.2c2.4-1.6,4.8-3,7.4-4.3c4.3-0.9,8.8-1.2,13.2-0.7c2.8,0,5.6,0.5,8.2,1.5c7.5,5.2,8.1,12,9,24.2
		c0,0,1.3,13.2,1.9,18.1c0.4,3.7,0.9,7.4,1.3,11.2c0.2,2.6,0.4,5.4,0.5,8.1c0.2,4.9,1.9,14.3,1.9,14.3c1.7,5.6,3.3,11,9.9,13.8
		c1.9,0.7,4,0.6,5.8-0.5c4.5-2.4,8.6-9.7,10.2-18.1c0.4-0.9,0.8-1.7,1.4-2.4c2.3-3,4-6.4,4.8-10.1c1.5-2.8,3.2-5.4,5.2-7.9
		c1.6-2.2,3.1-4.4,4.6-6.7c0.3-0.6,7.8-12.3,7.8-12.3s2.9-6.4,4.1-8.8c1-1.9,1.8-3.8,2.4-5.9c0.7-3.8,2.2-7.5,4.3-10.7
		c2.9-4.1,5.3-8.6,7.2-13.3c0.8-1.5,3-5.3,5-8.7c0.1-0.1,0.3-0.4,0.4-0.6l0,0c0,0,0.1-0.1,0.2-0.2c0.9-1.2,2.1-2.8,3-3.8l6.5-7.6
		c1.4-1.4,2.6-2.9,3.8-4.5c1.3-1.7,3.9-5.6,6.3-9.1c2.1-3.1,4.4-6.1,6.9-8.9c1.3-1.3,10.7-14,12.1-15.9c0.6-0.8,4.5-4.7,6.8-7.1l0,0
		c3.2-3.3,4.4-4.4,4.8-5c1.9-2.5,3.9-5,5.9-7.4s4-4.8,5.9-7.4c0.9-1.1,3-5,3.6-5.7c2-2.7,12-11.9,12.3-12.2
		c4.7-4.5,10.8-7.4,17.3-8.2c7.4-0.9,14.8,0.4,21.4,3.8c6.4,4.4,10.6,11.3,11.8,19C917.5,182.5,917.1,187.4,915.8,192.2"/>
	<path class="st1" d="M844,935.5H186.2V606.8H844V935.5z M197.2,924.5H833V617.8H197.2L197.2,924.5z"/>
	<g transform="translate(-414.93 -52.4)">
		<path class="st1" d="M791,820.9v-0.4c-13-3-20-14.2-20-27.2c0-26.6,27.2-36.8,49.6-36.8c22.9,0,49.1,10.3,49.1,36.9
			c0,12-7.5,24.5-19.7,27.1v0.4c15.3,3,25.1,14.8,25.1,31.6c0,29.5-28,41-54.6,41c-26.2,0-55.2-9.7-55.2-41
			C765.3,837,775.6,823.4,791,820.9L791,820.9z M797.9,850.9c0,13.2,10.9,18.8,22.4,18.8c11.1,0,22.3-5.2,22.3-18.8
			c0-12.3-9.7-19.1-22-19.1C808.9,831.7,797.9,837.9,797.9,850.9z M800,795.9c0,11.9,10.1,15.8,20.3,15.8c9.7,0,20.4-4.2,20.4-15.8
			c0-10.9-10-15.3-20.4-15.3C809.5,780.5,800,784.7,800,795.9z"/>
		<path class="st1" d="M887.5,825c0-35.8,14.6-68.4,52.3-68.4c39.1,0,54.4,32.6,54.4,68.4c0,35.6-15.3,68.6-54.4,68.6
			C902,893.6,887.5,860.6,887.5,825z M962.8,825c0-17.4-0.6-42-22-42c-20.7,0-21.9,24.5-21.9,42c0,17.4,1.2,42.1,21.9,42.1
			C962.2,867.1,962.8,842.4,962.8,825z"/>
		<path class="st1" d="M1037.3,859c0,5.2,2.2,8.7,5.4,11.1c3,2.3,7.5,3.5,12,3.5c6.1,0,15.3-2.9,15.3-10.6c0-7.8-10.3-9-15.9-10.6
			c-20.4-5.2-46.2-5.8-46.2-32.6c0-23.7,25.9-30.4,45.3-30.4c21.7,0,44.9,6.4,45.8,32.2h-30.1c0-4-1.3-6.9-4.2-8.7
			c-2.5-1.7-5.9-2.5-10.3-2.5c-5.4,0-14,0.6-14,7.5c0,9.1,21.9,11.3,36.8,14.3c20,4,25.3,18.5,25.3,26.8c0,26.6-25.3,35.5-47.8,35.5
			c-23.7,0-47.8-7.8-48.7-35.6h31.2L1037.3,859z"/>
	</g>
</g>
</svg>
