<?xml version="1.0" encoding="utf-8"?>
<!-- Generator: Adobe Illustrator 28.0.0, SVG Export Plug-In . SVG Version: 6.00 Build 0)  -->
<svg version="1.1" id="Vrstva_1" xmlns="http://www.w3.org/2000/svg" xmlns:xlink="http://www.w3.org/1999/xlink" x="0px" y="0px"
	 viewBox="0 0 1024 1024" style="enable-background:new 0 0 1024 1024;" xml:space="preserve">
<style type="text/css">
	.st0{fill:#00AACD;}
	.st1{fill:#FFFFFF;}
</style>
<rect y="0" class="st0" width="1024" height="1024"/>
<g>
	<g>
		<path class="st1" d="M908.8,210.8c-7.7-4.2-16.5-5.9-25.2-4.8c-7.7,0.9-14.9,4.2-20.6,9.6c0.1,0-13.3,13.1-13.3,13.1l-3.6,5.7
			c0,0.1-11.9,14.9-11.9,14.9s-0.1,0.1-0.1,0.2v-82.1l-36.3-21.8v149.1l-0.5,0.7l-8.7,10.2v-160H564.1l-79.9,79.5l-71-79.5H191.6
			v492.6H417v-217l66.3,68.4l81.4-69.4v218h224V430.3c1.7-3,3.2-5.4,3.2-5.4c0-0.1,1.9-2.8,1.9-2.8c0.1-0.1,2-3.2,4.1-6.5v222.5
			l36.2-25V350.6c1.6-2.4,4-5.9,4-5.9c0.3-0.6,5.6-8.4,5.6-8.4L852,324c0.1-0.2,3.2-4.1,3.2-4.1l7.7-10.9c1.8-3,4.4-5.3,7.5-6.7
			l0.8-0.4l1.1-0.8l4-4.1c0.1-0.1,7-5.9,7-5.9l11.8-5.5l11-6.1l10.1-12.4l5.4-16.6l1.6-16.1C922,224.8,916.8,216.2,908.8,210.8
			 M638.9,344.8c0.2,1.6,1.1,16.1,1.1,18.5c0,7.2,0.4,15.2,0.2,18.4c-0.2,2.4,0.2,10.9,0.2,10.9c0.6,6.7,2,13.9,2.2,15.2
			c0.3,3.4-1,16.3-0.6,19.3c0.5,2.4,0.8,4.8,0.9,7.3c-0.2,3-0.1,6,0.3,8.9c-0.2,2.7-0.3,5.7-0.4,9c-0.2,4.8-0.3,9.8-0.8,14.1
			c-0.1,1.1,0,8.7,0,8.7c-1.3,7.8-1.4,15.6-0.5,23.5c0.2,1.6-0.1,6.8,0.1,7.7c0.2,1.2,1.9,7.3,2.1,8.7c0.4,4.5,1.1,9.1,2.1,13.5
			c1,2.2,5,11.7,5.4,12.8c1.9,5.4,2.4,11.1,1.4,16.7c-1.5,5.6-3.4,11.2-5.5,16.7c-1.4,2.2-3.5,3.5-4.6,5s-2.7,2.7-4.5,3.4
			c-6.8,2.5-14.2,2.8-21.3,1c-4.5-0.5-8.9-1.8-12.9-3.8c-4.3-2.6-5.7-9.6-6.3-13.4c-0.3-1.8,0.2-6.5,0.1-7.2
			c-0.1-1.1-1.7-8.1-1.7-10.3c0.2-3,0.1-6-0.1-9c-0.7-4-2.6-10.5-2.6-10.5c-0.5-2.7-2-8.5-2-8.6c-1.4-3.9-2.3-8-2.8-12.1
			c-0.5-5.7,0.3-11.5,2.3-17c0.9-2.6,1.5-5.3,2-8.1c0.2-1.9-1.3-10.9-1-14c0.1-1.2,1.1-5.2,1.1-5.7c0.4-2.6,0.5-9.4,0.5-10.4
			c0.5-4.3,0.8-8.7,0.8-13c-0.2-2.4-0.2-4.8,0-7.2c0.4-4.1,0.4-8.2,0-12.3c-0.5-3-0.6-6-0.5-9.1c-0.4-4.8-0.5-9.6-0.3-14.5
			c0-0.7-0.8-8.1-0.8-10.4c0-1.5-0.1-10.6-0.2-11.7c-2-22.7-5-27.1-6.3-27.9c-2.1-0.8-4.4-0.8-6.5,0.1c-1.5,0.7-5.2,4-8.5,5.7
			c-3.1,1.7-9,4.4-11,5.9c-4.2,3.3-8.8,6.2-13.5,8.7c-1.8,1.2-3.5,2.7-5,4.3c-4.3,4.2-9.1,7.7-14.4,10.5c-3.5,1.7-6.7,3.8-9.5,6.5
			c-1.1,1.1-5,7.7-7.6,10.2c-1.9,2-3.4,4.2-4.5,6.7c-1.1,3.1-3,5.8-5.5,7.9c-5.8,3.2-12.8,3.7-19.1,1.4c-6.3-2.9-11.2-8.1-13.8-14.5
			c-2.8-9-0.7-18.7,5.7-25.7c4.7-4.2,10.4-7,16.5-8c3.5-0.8,6.9-2.1,10.2-3.7c1.4-0.8,5.7-4,6.7-4.6c1.4-0.9,6.3-3.3,7.3-3.9
			c3.1-2.6,6.3-4.9,9.6-7.1c5.8-3.2,10.4-5.8,13.1-7.5c4.7-2.7,9.1-5.8,13.1-9.4c1.2-1.1,6.1-3,11.6-6c1.4-0.8,7-2.7,8.5-3.3
			c1-0.5,4.9-3.4,6.1-4c5.1-2.6,7.6-5.8,6.2-13.7c-0.8-2.9-1.1-5.8-1.1-8.8c0.6-3.2,1.7-6.3,3.1-9.2c0.9-1.7,2.4-1.7,3.3-3.3
			c1.4-1.8,3.4-3.1,5.7-3.5c2.1-1.7,4.7-2.9,7.4-3.3c7.1-1.2,16.3,4,17.6,4.3c3,0.5,6.1,0.3,9-0.5c0.4-0.1,3.4-2,4.4-2.4
			c1.4-0.5,6-1.8,7-2.1c1.4-0.5,8-3.9,9.6-4.6c1.7-0.7,5.7-1.4,7.6-1.8c3.1-2.2,9-4.1,11.2-6.1c2.5-2.6,4.7-5.5,6.7-8.5
			c2.7-2.5,5.6-4.8,8.7-6.8c3.1-2.5,6.5-4.5,10.2-6c3,0,6,0.1,9,0.5c4.3-0.5,8.5,1.6,10.9,5.2c2.3,2.5,4,5.4,5.2,8.6
			c2.2,10.9-6,21.7-12.2,25.6c-0.6,0.4-3.6,1.3-5.5,1.9c-2.6,0.9-5.2,2.7-7,3.2c-2.4,0.9-4.7,2.3-6.6,4.1c-1.4,0.7-6.2,3.7-7.8,4.6
			c-1.9,1.9-4.2,3.4-6.7,4.4c-4.1,1-8,2.9-11.3,5.6c-3.2,1.6-6.7,2.7-10.2,3.2c-0.7,0.2-9.2,3.8-10.1,8.7c-0.9,5.2-0.2,6.6-1.1,14.1
			C638.3,336.1,638.4,340.4,638.9,344.8 M915.8,249.3c-1,5.2-2.6,10.2-4.8,15c-2.2,3.9-5.1,7.5-8.4,10.5c-2.9,2.1-6.1,3.9-9.5,5.2
			c-1.7,0.6-10.3,4.6-12.6,5.9c-3.3,1.8-6.2,4.3-8.5,7.2c-1.1,1.3-2.3,2.5-3.5,3.6c-4.6,2.1-8.4,5.6-10.9,10
			c-3.3,5-6.8,9.7-10.5,14.3c-2,4-4.5,7.8-7.4,11.1c-1,1.1-1.9,2.2-2.7,3.5c-0.9,1.3-1.8,2.8-2.7,4.3c-0.3,0.4-0.5,0.8-0.8,1.2
			c-1.5,2.6-3.1,5.2-5,7.6c-2.6,3.1-4.6,6.6-5.9,10.4c-2.6,4.1-5,8.4-7.1,12.8c-0.8,2.1-4.9,9-5.4,10.1c-2,2.9-4.3,5.7-6.7,8.4
			c-0.9,1.9-1.6,3.9-2.2,5.9c-0.6,2-2.3,5.9-2.8,7.4c-0.7,1.1-1.6,2.6-2.5,4.1c0,0.1-0.1,0.1-0.1,0.2c-0.7,1.1-1.4,2.3-2.1,3.5
			c-1.7,2.7-3.3,5.3-4.4,7c-0.7,0.9-1.5,2-2.1,3c-1.1,1.5-8.8,14.7-10.5,17.8c-0.8,1.4-1.7,2.9-2.7,4.4c-2.6,3.5-4.6,7.4-5.9,11.6
			c-0.9,2.7-1.9,5.2-3,7.8c-2.2,5.7-3.7,11.7-4.5,17.7c-0.4,3.7-0.4,7.4-0.2,11c0.3,3.6,0.2,7.2-0.3,10.8
			c-1.1,5.9-3.4,11.6-6.6,16.7c-2.1,3.1-4.5,6-7.2,8.5c-2.5,2.4-6.7,3.3-14.3,3.4c-10.3,0-14.7-3.8-20.2-11.8
			c-1.8-3-3.4-6.1-4.8-9.2c-2.8-5.8-5.2-11.9-6.9-18.1c-0.6-2.1-1.5-4.4-2.2-6.7c-0.9-2.5-2.8-9.4-3-10.6c-0.2-1.1-2.6-9.2-2.8-10
			c-0.9-5-2.2-9.6-3.5-14s-2.4-8.9-3.3-13.4c-1.2-5.5-2.8-10.9-4.7-16.2c0,0-3.2-10.2-4.3-13.9c-1.4-5-6-18.6-6-18.6
			c-1.7-4.7-5.8-15.6-6.1-17.4c-2.4-14.2-2.4-25.7,0.2-30.7c2.2-2.7,5-4.8,8.2-6.2c2.4-1.6,4.8-3,7.4-4.3c4.3-0.9,8.8-1.2,13.2-0.7
			c2.8,0,5.6,0.5,8.2,1.5c7.5,5.2,8.1,12,9,24.2c0,0,1.3,13.2,1.9,18.1c0.4,3.7,0.9,7.4,1.3,11.2c0.2,2.6,0.4,5.4,0.5,8.1
			c0.2,4.9,1.9,14.3,1.9,14.3c1.7,5.6,3.3,11,9.9,13.8c1.9,0.7,4,0.6,5.8-0.5c4.5-2.4,8.6-9.7,10.2-18.1c0.4-0.9,0.8-1.7,1.4-2.4
			c2.3-3,4-6.4,4.8-10.1c1.5-2.8,3.2-5.4,5.2-7.9c1.6-2.2,3.1-4.4,4.6-6.7c0.3-0.6,7.8-12.3,7.8-12.3s2.9-6.4,4.1-8.8
			c1-1.9,1.8-3.8,2.4-5.9c0.7-3.8,2.2-7.5,4.3-10.7c2.9-4.1,5.3-8.6,7.2-13.3c0.8-1.5,3-5.3,5-8.7c0.1-0.1,0.3-0.4,0.4-0.6l0,0
			c0,0,0.1-0.1,0.2-0.2c0.9-1.2,2.1-2.8,3-3.8l6.5-7.6c1.4-1.4,2.6-2.9,3.8-4.5c1.3-1.7,3.9-5.6,6.3-9.1c2.1-3.1,4.4-6.1,6.9-8.9
			c1.3-1.3,10.7-14,12.1-15.9c0.6-0.8,4.5-4.7,6.8-7.1l0,0c3.2-3.3,4.4-4.4,4.8-5c1.9-2.5,3.9-5,5.9-7.4s4-4.8,5.9-7.4
			c0.9-1.1,3-5,3.6-5.7c2-2.7,12-11.9,12.3-12.2c4.7-4.5,10.8-7.4,17.3-8.2c7.4-0.9,14.8,0.4,21.4,3.8c6.4,4.4,10.6,11.3,11.8,19
			C917.5,239.6,917.1,244.5,915.8,249.3"/>
	</g>
	<g>
		<path class="st1" d="M353.9,878.2c-18.9-1.1-35.1-7-48.6-17.7c-4.1-3.3-7.7-6.9-10.8-10.7c-8.6-10.7-14.3-23.7-16.4-38.1
			c-0.5-3.1-0.8-7.2-1.1-12.4l20.3-2.7c0,0-1.2-1.2-2.4-2.6c-8.5-9.3-14.2-19.5-16.9-30.1c-1.4-5.4-2-8-2-18.7
			c0-6.6,0.2-9.1,0.6-12.5c2-14.8,8.6-27.7,19.4-38.4c13.7-13.3,32.1-21.7,52.6-24.1c5.2-0.8,18.8-0.8,23.9,0
			c12,1.6,21.9,4.5,31.6,9.3c13.3,6.6,23.5,16.5,32.4,31.2c3,5,5.4,9.8,7.4,14.5c0,0,0.3-0.6,0.5-1.2c0.3-0.7,1.2-2.7,2.1-4.5
			c11.7-23.3,32.7-40.6,57.2-46.8c7.8-2,13.3-2.8,22.7-2.8c9.3-0.1,12.7,0.2,18.8,1.1c21.2,3.4,41.2,15.2,55,32.4
			c6.3,7.9,11.9,18.2,14.8,27.2c0.3,1.1,0.7,2.2,0.7,2.2s1.3-1.2,2.7-2.3c10.1-8.3,23.1-13.8,39.3-16.1c7.3-1,14.6-1.1,22.1-0.5
			c27,2.3,49.2,15.2,58.2,34.1c4.1,8.4,6.1,17.9,7,32.3l-10.2,1.7c0,0,1.2,1.7,2.5,3.6c13.6,20.4,14.1,43.9,1.3,63
			c-9.8,15-28.3,26.1-48.9,28.8c-4.5,0.6-9.2,0.9-14.1,0.9c-12.2,0-22.7-1.2-30.4-3.2c-18-4.5-32.2-13.6-42-28
			c-0.8-1.1-1.4-2.2-2-3.3c-0.5,0.8-1.8,2.5-1.8,2.5c-3.8,4.6-8,8.7-12.4,12.3c-9.6,7.4-20.1,12.8-31.6,16
			c-12.2,3.5-24.9,4.6-38.2,3.2c-17-1.9-32.7-7.9-44.4-17.2c-5-3.9-9.6-8.5-13.7-13.7c-3.2-4.1-6.2-8.5-9-13.4
			c-2-3.4-3.9-7.1-5.4-10.7l-0.3-0.8l-0.3,0.8c-2,4.7-4.3,9.3-7.1,13.9c-10.4,16.8-24.1,28.9-40.6,35.3
			C384.7,876.7,367.9,879.1,353.9,878.2L353.9,878.2z"/>
		<path class="st0" d="M366.9,872.5c7.6-0.4,18.7-2.5,24.9-4.7c10.4-3.7,19.4-9.5,27.5-17.7c5.4-5.4,9-10.1,13-16.7
			c3.9-6.5,6.7-12.6,9.9-21.6c0.9-2.5,1.9-5.5,1.9-5.5l1,2.6c6.3,17.7,14.4,31.3,24,41c6,6.1,12.3,10.7,19.3,14.1
			c31.5,15.2,70.3,10.8,96.3-10.8c3.9-3.1,7.4-6.7,10.6-10.8c1.5-1.9,2.9-3.9,4.1-5.8l2.3-3.4c0.6,1.2,1.2,2.4,1.8,3.4
			c3.6,7.1,7.2,11.8,11.8,16.3c12.1,12,28.1,18.2,50.2,19.6c10.7,0.5,18.4,0.4,23.7-0.6c14.1-2.2,26.2-7.6,35.9-16.2
			c8-7,13.9-16.7,16.1-27.3c3.2-16-1.3-31.3-13.9-46.7c-1.5-1.8-2.8-3.4-2.8-3.4l14.4-2.6c-0.2-2.9-0.5-5.9-1.1-8.9
			c-3.3-19.2-12.7-31.4-30.3-39.8c-7.5-3.6-14.7-5.6-24.7-7.1c-8.5-1.1-16.3-0.9-23.8,0c-14.3,2-25.7,6.4-34.9,13.2
			c-4.5,3.4-5.6,4.7-11.2,11.1c0,0-0.5-2-1.2-4.4c-2-7.7-4.3-13.7-7.5-19.9c-11.6-21.8-32.3-37.6-56.1-42.6
			c-12.3-2.6-26.9-2.4-38.1-0.3c-12.8,2.5-24.5,7.9-35.1,16.2c-4.6,3.7-8.9,7.8-12.9,12.7c-6.8,8.3-12.3,18.2-16.1,29.9
			c-1,2.9-1.8,5.4-1.9,5.3c0,0-1-2.5-2-5.3c-6.6-17.2-13.5-28.8-23-38.5c-9.4-9.5-20.9-15.7-36-19.5c-8.2-2-15.7-2.9-24.9-2.7
			c-11,0.3-20.4,2.1-30.3,5.7c-8.3,3-15.7,7.2-22.4,12.5c-12.8,10.2-20.8,24-23.3,39.9c-0.8,6.5-0.9,13.2-0.4,20.2
			c1.5,15.8,9.5,30.3,23.6,43c2.3,2,4.6,4.1,4.6,4.1l-27.1,3.6c0.2,3.4,0.6,6.7,1.2,9.7c1.3,7.2,3.2,13.1,6.4,19.5
			c6.7,13.5,17.3,24,31.3,30.9c8.1,4,15.8,6.2,25.6,7.6C354.3,872.9,359,873,366.9,872.5L366.9,872.5z"/>
		<path class="st1" d="M665.4,863.7c-11.9-0.9-21.5-3.2-29.8-7.1c-13.4-6.1-22.1-16.5-25.9-31.4l47-10.8c0,0-1.1-0.2-2.3-0.5
			c-3.1-0.7-8.5-2.1-11.8-3.2c-18.3-6-27.3-17.4-28.2-35.8c-0.5-9.7,2.2-18.9,7.6-26.5c3.4-4.5,7.2-8.2,11.4-11
			c7.1-4.8,16.1-7.7,26.9-8.8c7.1-0.7,14.5-0.6,21.9,0.1c12.3,1.6,22,5.1,29.8,10.9c3,2.2,7.3,6.5,9.2,9.2c2.8,3.9,5.5,9.6,6.6,13.8
			c0.6,2.3,1.1,6.1,1.1,6.1l-45.1,8c-0.1-0.9-0.4-1.8-0.6-2.5c-1.2-3.8-3.9-6.3-8.9-7.2c-4-0.7-7.8-0.1-9.2,1.6
			c-1.2,1.4-0.7,3.8,1,4.9c3.1,2.1,5.6,2.7,23.3,4.8c6.6,0.8,13.7,2.3,17.4,3.5c5.5,1.6,10.8,4.6,15.9,9.2
			c4.9,4.5,8.1,11.4,9.6,19.4c0.9,6.1,0.9,12.1-0.1,17.8c-1.6,7.1-4.3,12.6-8.8,17.7c-8.3,9.4-21.6,15.6-38,17.5
			C678.5,863.9,671.8,864.1,665.4,863.7L665.4,863.7z"/>
		<path class="st1" d="M522,863.7c-0.5-0.1-2.3-0.2-3.9-0.4c-13.5-1.3-27-6.6-36.5-14.2c-13.8-10.9-22.5-25.4-27.2-45
			c-3.8-15.8-4.6-36-1.9-52.1c2.8-16.8,8.2-30.3,16.6-41c3.4-4.2,7.3-8,11.6-11.5c12.9-10.1,29.1-15.3,47.8-15.3
			c21.8,0,39.7,6.7,53.8,20.1c13.4,12.5,21.8,32.4,24.1,56c0.8,8.2,0.6,20.3-0.4,29c-2.2,19.2-8.8,36.2-18.6,48.4
			c-2.3,3.1-7.5,8.3-10.8,10.7c-10.1,7.9-21.7,12.7-36.2,14.6C534.2,863.9,528.1,864.1,522,863.7L522,863.7z"/>
		<path class="st1" d="M352.5,863.6c-21.2-1.9-36.8-9.5-48.2-24.2c-5.6-7.2-9.5-16.2-10.9-27.7l52.7-7.1c1.4,9.5,8.1,11.8,16.7,11.6
			c2.9-0.1,3.9-0.4,5.7-1c6.9-2.2,11.7-8.1,14.4-17.6c0.9-2.5,1.7-8.2,1.7-8.2c-7.1,5.3-15.8,8.5-26,9.8c-6.8,0.8-13.6,0.7-20.3-0.1
			c-10.8-1.6-19.5-4.9-27.1-10.2c-4.3-3.2-8.3-7-11.8-11.7c-6.3-8.8-9.4-20.1-9-32.9c0.2-5.3,0.5-7.8,1.4-12.5
			c2.3-11.2,7.6-20.9,15.6-28.9c11-11,26-16.8,46.5-18.3c5.3-0.4,14.9-0.2,19.3,0.4c13.2,1.8,25.1,6.7,34.2,14
			c2.9,2.1,8.6,8,11,11.1c9,11.2,15.4,27.3,17.6,45c1.2,9.4,1.4,24,0.4,33.4c-1.7,16.6-6.3,31.6-13.1,42.7
			c-3.7,6.2-9.9,13.4-15.3,17.6c-9.7,7.8-21.6,12.6-35.8,14.5C365.8,864,359.2,864.1,352.5,863.6L352.5,863.6z"/>
		<path class="st0" d="M680.7,858c19-1.3,33.6-8.4,41.1-19.5c4-5.9,5.7-12.5,5.4-21.1c-0.4-12.5-4.7-21-13.4-26.3
			c-6.6-4.4-13.1-6-32.9-8.4c-9-1.1-12.7-2-15.7-3.4c-4.3-2.1-6.3-5.1-6.4-9.2c0-2.7,0.8-4.2,2.5-6c1.9-1.7,4.2-2.5,6.9-3
			c3.2-0.4,6.2,0,8.7,0.5c4.5,1.2,8.2,3.9,10,7c0.6,1,0.8,1.5,0.8,1.5l34.6-6.2c-0.6-2.3-1.4-4.3-2.3-6.1
			c-3.4-7.3-9.1-13.5-18.5-18.2c-5.4-2.4-8.7-3.4-13.9-4.5c-3.9-0.7-8.2-1.6-16.8-1.6c-6.5,0-8.9,0.3-12.4,0.7
			c-9.9,1.5-17.6,4.3-23.4,8.6c-2.7,2-6.8,6.1-8.7,8.7c-5.7,7.9-7.7,17.7-5.9,28.6c1.3,7.7,5.1,14.4,10.9,18.7
			c7,5.4,19.3,9.1,35.8,11.5c6.6,1.2,10.3,2.1,12.6,3.3c1.6,0.8,2.8,1.5,3.9,2.7c3.6,4.1,2,10.8-3.3,13.3c-1.8,0.7-2.6,1.2-7.5,1.4
			c-3.2,0-5.3-0.3-7.4-0.9c-4.9-1.3-7.9-3.4-10.6-6.9c-0.7-1.1-1.3-2.3-1.3-2.3l-36.7,8.4c1.1,2.8,2.4,5.4,4,7.9
			c7.8,12.1,23.2,19.3,43.7,20.9C668.7,858.3,677,858.3,680.7,858L680.7,858z"/>
		<path class="st0" d="M535.6,858c16.8-1.4,30.1-6.7,41.5-17.5c13.9-13.1,22.2-33.8,23.8-59.5c1.3-21.7-2.6-41.9-11-57.4
			c-8.1-14.8-22.2-26-38.6-30.7c-7.5-2.2-14.5-3-23.1-3c-9.2,0-17.7,1.3-26.8,4.5c-10.3,3.7-20.5,11-27.7,20
			c-8.8,11.1-14.5,26.5-16.6,45.5c-0.7,5.4-0.8,18.9-0.1,25c1.6,17.3,5.8,31.3,12.7,42.6c5.1,8.4,13.3,16.7,22.1,21.7
			C503.5,856.2,519.3,859.4,535.6,858L535.6,858z"/>
		<path class="st0" d="M367.9,858c6.8-0.6,13.7-2,19.5-4.1c3.8-1.2,9.8-4.1,12.8-6.3c6.9-4.4,13.5-11.4,18.3-19
			c9.1-14.5,13.8-35.3,13.2-58.7c-0.3-13.5-2-23.9-5.6-34.1c-4.4-12.7-9.4-20.7-18.2-29.1c-1.9-1.8-4.4-4-5.7-4.9
			c-7.8-5.7-17.4-9.5-28.9-11.2c-2.2-0.3-6.2-0.7-11.4-0.7c-4.3,0-9.1,0.3-10.9,0.5c-19.1,1.9-32.7,8.2-42.2,19.4
			c-8,9.4-12.1,20.6-12.6,34.4c-0.4,11.4,2.3,21.8,7.9,29.5c2.1,3.2,6.6,7.5,9.3,9.6c7,5.4,15.7,8.9,26.5,10.3
			c6.4,0.7,12.5,0.7,18.8-0.1c9.4-1.3,17.5-4.7,23.8-9.7c2-1.6,3.7-3.3,5.2-5.2c1.8-2,3.5-3.7,3.6-3.9c-0.2,4.2-0.4,8-0.6,11.5
			c-0.9,9.1-2.7,15.9-5.3,20.7c-3.9,7.7-10.2,13-18.4,14.4c-1.8,0.3-3.3,0.5-6.5,0.4c-9.1-0.2-15.5-3.7-18.6-11
			c-13.9,1.9-28.1,3.7-42,5.7c0.5,2.4,1.2,4.8,2.1,7.2c4.1,11.4,13.6,21.8,25.2,27.6c7.9,3.9,16.4,6,25.5,6.7
			C356.9,858.3,364.3,858.3,367.9,858L367.9,858z"/>
		<path class="st1" d="M523.4,820c-5.9-0.9-10.4-3.1-14.9-7.4c-6-5.8-9.1-13.5-10.7-26.2c-0.7-4.9-0.9-20.3-0.1-24.8
			c1.4-11.6,4.4-19.3,9.7-25.2c5.8-6.4,14.5-9.6,24.1-8.7c6.8,0.7,12.2,3.2,17.1,8.2c6,6.2,9.4,14.3,11,25.8
			c0.7,4.2,0.9,17,0.1,23.1c-1.4,12.9-4.4,20.8-10,26.7c-4.7,4.9-10.3,7.7-17.1,8.6C530,820.4,526.1,820.4,523.4,820L523.4,820z"/>
		<path class="st1" d="M357,763.8c-8.4-1.3-14.5-5.9-16.6-12.8c-0.7-2.2-1-6-0.8-8.5c0.6-5.5,3.4-9.8,8.3-13
			c3.4-2.2,7.8-3.5,12.7-3.8c5-0.2,9.8,0.4,14,2.3c2.2,1.2,3.3,1.7,5.2,3.7c3.4,3.4,5,7.2,5.1,12.9c0,3.8-0.4,5.7-1.9,8.8
			c-2.1,4.3-6.3,7.7-11.6,9.5C367.8,764.1,361.8,764.6,357,763.8L357,763.8z"/>
		<path class="st0" d="M657.4,814.5c0,0,0.9,2.9,1.5,4.2c1.8,3.6,5.5,5.7,10.7,6.4c2.5,0.3,4.2,0.3,6.2,0c0.9-0.2,2-0.5,2.4-0.7
			c1.1-0.6,1.8-1.7,1.8-2.8c0.1-2-2.6-3.4-8.2-4.6C666.8,816,667.8,816.2,657.4,814.5L657.4,814.5z"/>
		<path class="st0" d="M527.8,733.2c-4.6,0.1-9,1.3-12.7,4c-6.5,4.6-10.2,12.4-11.7,25c-0.8,9.6-0.5,16.2,0.1,23.5
			c0.9,7.1,2.1,12.1,4.1,16c1.4,2.9,2.4,4.5,4.8,6.9c3.2,3.2,7.5,5.4,12.1,6c10,1.2,17.5-1.9,22.9-8.9c4.8-6.2,7.2-16.9,7.2-31.8
			c0-6.4-0.3-10.9-1.3-15.9c-2.4-12-8.8-20.8-17.5-23.6C533.3,733.5,530.6,733.1,527.8,733.2L527.8,733.2z"/>
		<path class="st0" d="M362.2,731.3c-2.3,0-4.5,0.3-5.9,0.7c-4.6,1.2-8.2,3.7-9.9,7.3c-0.7,1.6-1,2.2-1.1,4.8
			c-0.1,3.2,0.3,5.2,1.3,7.1c1.9,3.7,6.2,6.2,11.5,7.1c2.3,0.5,8.3,0.3,10.2-0.4c7.7-2,11.9-7.8,10.9-15.2
			c-0.7-5.6-4.6-9.6-10.9-10.9C366.7,731.5,364.4,731.3,362.2,731.3L362.2,731.3z"/>
	</g>
</g>
</svg>
