<?xml version="1.0" encoding="utf-8"?>
<!-- Generator: Adobe Illustrator 28.0.0, SVG Export Plug-In . SVG Version: 6.00 Build 0)  -->
<svg version="1.1" id="Vrstva_1" xmlns="http://www.w3.org/2000/svg" xmlns:xlink="http://www.w3.org/1999/xlink" x="0px" y="0px"
	 viewBox="0 0 1024 1024" style="enable-background:new 0 0 1024 1024;" xml:space="preserve">
<style type="text/css">
	.st0{fill:#00FFF5;}
</style>
<rect y="0" class="st0" width="1024" height="1024"/>
<g>
	<path d="M789.2,717.5c-3.5,13-4.8,22.9-5.1,35.7c-0.5,22-31.9,30.8-49.3,5.8c-14.3-20.6-30.7-94.1-32.7-102.8
		c-7.8-35.6-10.9-48.6-11.9-61.8c-1.3-16.9,5.5-26.5,20.5-30.4c15.5-4,28.2,3.7,29.4,20.7c2.4,32,4.3,57,7.4,71.6
		c1,4.9,3.9,6.6,7,6.6c4,0,6.4-2.8,7.8-5.9c5.9-12.7,20.9-66.7,70.4-129.4V398.8h-239L512,480.6l-81.8-81.8h-239v419.6h241.6V673.8
		L512,753l79.2-79.2v144.6h32.5c0.3-11.4,0.6-26.5,0.3-32.9c-0.3-6.7-0.6-22.8-0.6-31.5c0-48.4,4.2-60.3,4.2-130.1
		c0-20.9-4.7-25.9-11.4-25.9c-7.5,0-26.5,14.3-40.6,24.3c-22.5,16-34.6,28.7-49.1,28.7c-8.6,0-13.5-3.8-18.9-10.8
		c-1-1.3-3.9-7.1-3.9-11.7c0-5.2,2.1-12.3,10-17.1c8.6-5.2,18-4.2,38.3-16.4c24.1-14.5,52.9-31.4,57.5-34.3
		c8.3-4.4,6.3-11.1,6.3-17.3c0-13.5,12.1-18.2,22.5-18.2c10,0,16.2,3.7,17.6,4.4c3.7-2.1,13.4-7.5,31.6-18.7
		c22.3-13.8,21.9-24.7,35.9-27.6c15.4-3.3,25.2,11.7,25.2,22.3c0,15.8-20.2,24.9-30.3,30.7c-28.4,16-38.5,22.8-48.6,29.4
		c0.5,6.3,0.5,21,0.5,33.7c0,21.1,6.3,60.6,6.3,82.4c0,25.9-1.1,58.1-1.1,66.1c0,12.9,1.5,27.6,2.7,37.7c0.8,8.3,1.8,21.9,2.4,32.9
		h152.2V616.2c-0.3,0.5-0.5,1-0.8,1.6C818.8,644,802,673.1,789.2,717.5"/>
	<g transform="translate(271.04 282.77)">
		<path d="M124.9,31c-21.4,0-34-14.9-34-42.4c0-26.8,13-41,33.4-41c15.6,0,25.9,8.5,30.2,22.7l25.5-5.6c-5.2-23-23.6-41.9-55.6-41.9
			c-38.1,0-61.3,28-61.3,65.8c0,38.7,22.8,67.3,61.7,67.3c31.5,0,49.8-16.4,55.7-42.8l-25.3-5.8C150.9,23.1,140.7,31,124.9,31
			L124.9,31z"/>
	</g>
	<g transform="translate(428.1 282.77)">
		<path d="M59.3,52.3V-74.5H34.2V52.3H59.3z"/>
	</g>
	<g transform="translate(479.34 282.77)">
		<path d="M54.3,55.9c13.8,0,22.8-7.4,27.5-14.6v11h24.5v-90.6H81.8v50.9c0,13.3-5.2,22.3-18.3,22.3c-10.8,0-16.2-5.9-16.2-19.8
			v-53.4H22.8v58.1C22.8,42,33.5,55.9,54.3,55.9z"/>
	</g>
	<g transform="translate(601.13 282.77)">
		<path d="M89.8,7C89.8-27,72.9-42,51.9-42C37.7-42,28-34.8,23.7-27.8v-46.7H-0.8V52.3h24.4V40.8c4.1,7.7,13.7,15.1,27.3,15.1
			C75.5,55.9,89.8,36.3,89.8,7L89.8,7z M23.7,6.6c0-16.4,7.2-26.2,20.9-26.2C58-19.7,65-9.8,65,6.6c0,16.5-7,27-20.5,27
			C30.9,33.6,23.7,23.1,23.7,6.6z"/>
	</g>
</g>
</svg>
