<?xml version="1.0" encoding="utf-8"?>
<!-- Generator: Adobe Illustrator 28.0.0, SVG Export Plug-In . SVG Version: 6.00 Build 0)  -->
<svg version="1.1" id="Vrstva_1" xmlns="http://www.w3.org/2000/svg" xmlns:xlink="http://www.w3.org/1999/xlink" x="0px" y="0px"
	 viewBox="0 0 1024 1024" style="enable-background:new 0 0 1024 1024;" xml:space="preserve">
<style type="text/css">
	.st0{fill:#D42E42;}
</style>
<rect y="0" class="st0" width="1024" height="1024"/>
<g>
	<path d="M789.1,529.5c-3.5,13-4.8,22.9-5.1,35.7c-0.5,22-31.9,30.8-49.3,5.8c-14.3-20.6-30.7-94.1-32.6-102.8
		c-7.8-35.6-10.9-48.6-11.9-61.8c-1.3-16.9,5.5-26.5,20.5-30.4c15.5-4,28.2,3.7,29.4,20.7c2.4,32,4.3,57,7.4,71.5
		c1,4.9,3.9,6.6,7,6.6c4,0,6.4-2.8,7.8-5.9c5.9-12.7,20.9-66.7,70.4-129.4V210.8H593.8L512,292.6l-81.8-81.8H191.2v419.5h241.6
		V485.7l79.2,79.2l79.2-79.2v144.6h32.5c0.3-11.4,0.6-26.5,0.3-32.9c-0.3-6.7-0.6-22.8-0.6-31.5c0-48.4,4.2-60.3,4.2-130.1
		c0-20.9-4.7-25.9-11.4-25.9c-7.5,0-26.5,14.3-40.6,24.3c-22.5,16-34.6,28.7-49.1,28.7c-8.6,0-13.5-3.8-18.9-10.8
		c-1-1.3-3.9-7.1-3.9-11.7c0-5.2,2.1-12.3,10-17.1c8.6-5.2,18-4.2,38.3-16.4c24.1-14.5,52.9-31.4,57.5-34.3
		c8.3-4.4,6.3-11.1,6.3-17.3c0-13.5,12.1-18.2,22.5-18.2c10,0,16.2,3.7,17.6,4.4c3.7-2.1,13.4-7.5,31.6-18.7
		c22.3-13.8,21.9-24.7,35.8-27.6c15.4-3.3,25.2,11.7,25.2,22.3c0,15.8-20.1,24.9-30.3,30.7c-28.4,16-38.5,22.8-48.6,29.4
		c0.5,6.3,0.5,21,0.5,33.7c0,21.1,6.3,60.6,6.3,82.4c0,25.9-1.1,58.1-1.1,66.1c0,12.9,1.5,27.6,2.7,37.7c0.8,8.3,1.8,21.9,2.4,32.9
		h152.2V428.1c-0.3,0.5-0.5,1-0.8,1.6C818.8,456,801.9,485.1,789.1,529.5"/>
	<g transform="translate(291.587,870.894)">
		<path d="M91.4-84.3V-188H65.5v126.7h89v-23L91.4-84.3z"/>
	</g>
	<g transform="translate(419.444,870.894)">
		<path d="M53.5-159.8c8.1,0,14.7-6.6,14.7-14.6c0-8.1-6.7-14.7-14.7-14.7c-7.9,0-14.6,6.7-14.6,14.7
			C38.9-166.5,45.5-159.8,53.5-159.8z M41.2-61.3h24.5v-90.6H41.2V-61.3z"/>
	</g>
	<g transform="translate(470.677,870.894)">
		<path d="M51.8-151.9H25.2l35.4,90.6h21l35.2-90.6H90.3L71.2-94.7L51.8-151.9z"/>
	</g>
	<g transform="translate(583.48,870.894)">
		<path d="M92.6-85.7l-24.1-5c-2.3,5.6-7.2,11.5-18.2,11.5c-11.5,0-18.9-5.9-21.2-18.5h65.6c0.5-3.4,0.7-6.7,0.7-9.7
			c0-29.3-18.2-48-45.5-48c-27.3,0-45.7,18.7-45.7,48c0,30.4,16.7,49.8,46.6,49.8C71.5-57.7,86.6-68.1,92.6-85.7z M50-133.9
			c11.2,0,18.2,6.1,20.5,18.3H29.1C31.3-128.3,39.2-133.9,50-133.9z"/>
	</g>
</g>
</svg>
