<svg width="284" height="284" viewBox="0 0 284 284" fill="none" xmlns="http://www.w3.org/2000/svg">
<rect width="283.5" height="283.5" fill="black"/>
<path d="M53.6663 107.415C53.9773 107.282 54.3328 107.26 54.666 107.26C72.4386 107.26 90.2333 107.26 108.006 107.26C108.606 107.237 109.45 107.415 109.539 108.147C109.539 108.901 109.006 109.501 108.517 110.011C104.607 113.805 100.697 117.577 96.8091 121.371C96.076 122.103 94.9875 122.281 93.9877 122.281C85.9235 122.281 77.837 122.281 69.7505 122.281C68.7063 122.281 67.64 122.347 66.6625 121.948C66.0849 121.748 65.7072 121.26 65.2629 120.839C61.5751 117.222 57.8429 113.628 54.1328 110.011C53.6663 109.545 53.1998 109.035 53.1109 108.369C53.0221 107.97 53.2886 107.57 53.6663 107.415Z" fill="white"/>
<path d="M189.737 109.7C193.914 108.946 198.49 109.767 201.867 112.452C200.823 113.938 199.756 115.425 198.69 116.934C196.846 115.647 194.691 114.715 192.403 114.693C191.67 114.693 190.826 114.781 190.315 115.358C189.804 115.913 189.937 116.889 190.581 117.311C191.403 117.821 192.359 118.021 193.269 118.265C195.669 118.82 198.135 119.374 200.156 120.816C201.267 121.571 202.067 122.769 202.333 124.1C202.733 126.208 202.333 128.56 200.867 130.18C199.245 131.999 196.802 132.82 194.425 132.976C190.181 133.264 185.716 132.11 182.517 129.248C183.695 127.85 184.872 126.452 186.049 125.054C188.315 126.874 191.248 128.005 194.18 127.739C194.98 127.673 195.958 127.251 196.046 126.341C196.18 125.587 195.535 125.01 194.891 124.766C193.003 124.012 190.937 123.767 189.026 123.102C187.382 122.569 185.716 121.771 184.628 120.373C183.45 118.709 183.317 116.445 183.894 114.537C184.716 111.941 187.16 110.188 189.737 109.7Z" fill="white"/>
<path d="M220.928 111.12C223.949 109.279 227.748 108.901 231.125 109.878C233.502 110.566 235.546 112.141 236.99 114.116C235.435 115.314 233.902 116.512 232.369 117.71C231.48 116.623 230.369 115.691 229.014 115.292C227.393 114.803 225.504 115.003 224.171 116.09C221.083 118.531 221.083 123.901 224.171 126.341C225.571 127.451 227.526 127.606 229.192 127.118C230.547 126.674 231.591 125.653 232.48 124.588C234.079 125.72 235.657 126.852 237.256 128.005C236.168 129.448 234.901 130.801 233.28 131.644C230.836 132.953 227.992 133.331 225.282 132.953C222.127 132.51 219.173 130.69 217.418 128.028C215.64 125.409 215.063 122.081 215.618 118.997C216.174 115.78 218.106 112.784 220.928 111.12Z" fill="white"/>
<path d="M131.199 109.811C133.443 109.811 135.664 109.811 137.908 109.811C139.707 112.762 141.529 115.691 143.351 118.62C145.172 115.669 146.972 112.74 148.794 109.789C151.037 109.789 153.259 109.789 155.503 109.789C155.503 117.399 155.503 124.988 155.503 132.598C153.392 132.598 151.282 132.598 149.171 132.598C149.171 128.227 149.171 123.878 149.171 119.507C147.216 122.503 145.261 125.498 143.306 128.494C141.285 125.565 139.374 122.547 137.397 119.574C137.397 123.923 137.397 128.249 137.397 132.598C135.331 132.598 133.265 132.598 131.199 132.598C131.199 125.01 131.199 117.422 131.199 109.811Z" fill="white"/>
<path d="M159.235 109.811C161.368 109.811 163.522 109.811 165.655 109.811C165.655 114.138 165.655 118.442 165.655 122.769C165.655 124.389 166.277 126.208 167.855 126.94C169.432 127.628 171.498 127.517 172.809 126.319C173.764 125.432 174.053 124.056 174.053 122.791C174.053 118.465 174.053 114.138 174.053 109.811C176.185 109.811 178.34 109.811 180.473 109.811C180.473 113.406 180.473 116.978 180.473 120.572C180.517 123.279 180.473 126.164 179.096 128.582C177.718 131.112 174.941 132.532 172.164 132.887C169.476 133.22 166.633 133.086 164.167 131.933C162.367 131.09 160.857 129.581 160.123 127.717C159.435 126.097 159.235 124.322 159.235 122.592C159.235 118.331 159.235 114.071 159.235 109.811Z" fill="white"/>
<path d="M205.643 109.811C207.754 109.811 209.864 109.811 211.975 109.811C211.975 117.422 211.975 125.01 211.975 132.621C209.864 132.621 207.754 132.621 205.643 132.621C205.643 125.01 205.643 117.422 205.643 109.811Z" fill="white"/>
<path d="M46.5127 113.783C46.8459 113.472 47.3347 113.539 47.7123 113.716C48.401 114.027 48.8898 114.626 49.4007 115.158C53.0663 118.975 56.7097 122.791 60.3753 126.608C61.0195 127.295 61.2194 128.272 61.2417 129.204C61.2417 137.724 61.2417 146.222 61.2417 154.742C61.2194 155.652 61.0417 156.672 60.3975 157.36C56.5986 161.332 52.7775 165.304 48.9786 169.275C48.5121 169.741 48.0011 170.252 47.3124 170.385C46.9348 170.496 46.5127 170.318 46.335 169.963C46.0239 169.364 46.135 168.676 46.1128 168.055C46.1128 150.46 46.1128 132.842 46.1128 115.247C46.135 114.737 46.135 114.16 46.5127 113.783Z" fill="white"/>
<path d="M114.693 114.648C115.07 114.449 115.581 114.36 115.937 114.648C116.359 115.003 116.403 115.602 116.403 116.135C116.403 133.442 116.403 150.77 116.403 168.077C116.403 168.654 116.225 169.453 115.537 169.564C114.781 169.63 114.159 169.098 113.648 168.61C109.983 165.037 106.317 161.443 102.652 157.871C101.741 157.183 101.252 156.096 101.252 154.964C101.23 146.399 101.252 137.813 101.252 129.248C101.274 128.338 101.452 127.362 102.118 126.696C105.784 123.102 109.45 119.53 113.137 115.957C113.604 115.469 114.071 114.937 114.693 114.648Z" fill="white"/>
<path d="M69.4175 128.671C77.1707 128.604 84.924 128.649 92.6773 128.649C93.5881 128.582 94.4545 129.403 94.4101 130.313C94.4101 137.946 94.4101 145.578 94.4101 153.211C94.4545 154.143 93.5881 154.964 92.6773 154.897C85.0351 154.897 77.3929 154.897 69.7729 154.897C68.8398 154.964 67.9956 154.143 68.0401 153.211C68.0179 145.667 68.0401 138.101 68.0401 130.557C67.929 129.692 68.5288 128.804 69.4175 128.671Z" fill="white"/>
<path d="M180.984 139.166C185.161 138.545 189.537 139.233 193.247 141.274C196.291 142.894 198.823 145.445 200.401 148.507C202.444 152.346 202.978 156.939 201.933 161.154C200.934 165.104 198.601 168.743 195.291 171.161C189.159 175.71 180.251 176.087 173.742 172.093C171.187 170.54 169.032 168.343 167.588 165.747C165.366 161.887 164.789 157.161 165.789 152.834C166.766 148.751 169.188 145.001 172.631 142.561C175.097 140.764 177.985 139.61 180.984 139.166ZM181.651 147.819C179.473 148.33 177.629 149.838 176.496 151.724C175.252 153.766 174.897 156.273 175.252 158.603C175.63 161.088 177.119 163.395 179.185 164.815C181.295 166.258 184.028 166.502 186.449 165.88C188.626 165.304 190.403 163.728 191.514 161.798C192.625 159.867 192.936 157.56 192.647 155.385C192.314 152.856 190.87 150.504 188.804 149.018C186.738 147.575 184.05 147.265 181.651 147.819Z" fill="white"/>
<path d="M131.266 139.632C137.353 139.632 143.44 139.632 149.527 139.632C152.593 139.699 155.881 140.364 158.191 142.516C160.968 145.024 161.301 149.528 159.457 152.634C158.502 154.21 156.947 155.297 155.281 156.029C157.68 156.85 160.079 158.203 161.279 160.533C162.279 162.663 162.39 165.17 161.768 167.434C160.99 170.074 158.746 171.982 156.236 172.958C152.837 174.334 149.105 174.134 145.528 174.134C140.774 174.134 136.02 174.134 131.266 174.134C131.266 162.619 131.266 151.125 131.266 139.632ZM140.641 147.176C140.641 149.217 140.618 151.281 140.663 153.322C142.729 153.3 144.817 153.322 146.883 153.3C147.905 153.278 148.949 153.145 149.838 152.634C151.482 151.724 151.637 149.04 150.082 147.975C149.149 147.309 147.972 147.176 146.861 147.176C144.773 147.176 142.707 147.176 140.641 147.176ZM140.641 160.067C140.641 162.242 140.641 164.394 140.641 166.568C143.084 166.568 145.528 166.568 147.972 166.568C149.171 166.568 150.438 166.413 151.415 165.681C152.881 164.66 153.015 162.197 151.615 161.066C150.593 160.223 149.216 160.089 147.95 160.067C145.528 160.067 143.084 160.067 140.641 160.067Z" fill="white"/>
<path d="M202.889 139.632C206.554 139.632 210.22 139.632 213.885 139.632C215.907 142.871 217.951 146.111 219.995 149.35C222.061 146.111 224.105 142.871 226.148 139.632C229.725 139.632 233.302 139.632 236.879 139.632C233.102 145.246 229.325 150.881 225.549 156.495C229.503 162.375 233.435 168.255 237.39 174.134C233.724 174.134 230.058 174.134 226.393 174.134C224.193 170.673 221.972 167.212 219.773 163.728C217.551 167.19 215.352 170.651 213.13 174.134C209.553 174.134 205.977 174.134 202.4 174.134C206.332 168.277 210.286 162.441 214.219 156.584C210.42 150.926 206.665 145.268 202.889 139.632Z" fill="white"/>
<path d="M67.44 161.332C67.8399 161.221 68.262 161.199 68.6619 161.199C77.1927 161.199 85.7013 161.199 94.2321 161.199C95.1652 161.199 96.1871 161.376 96.898 162.02C100.741 165.659 104.585 169.297 108.406 172.936C109.094 173.624 110.027 174.312 110.027 175.377C109.916 176.109 109.05 176.242 108.45 176.242C90.4333 176.242 72.4386 176.242 54.4439 176.242C53.8885 176.242 53.1776 176.131 52.9554 175.554C52.7777 174.733 53.4219 174.046 53.9551 173.513C57.9762 169.697 61.9972 165.88 66.0182 162.064C66.3737 161.687 66.9069 161.465 67.44 161.332Z" fill="white"/>
</svg>
