<?xml version="1.0" encoding="utf-8"?>
<!-- Generator: Adobe Illustrator 28.0.0, SVG Export Plug-In . SVG Version: 6.00 Build 0)  -->
<svg version="1.1" id="Vrstva_1" xmlns="http://www.w3.org/2000/svg" xmlns:xlink="http://www.w3.org/1999/xlink" x="0px" y="0px"
	 viewBox="0 0 283.5 283.5" style="enable-background:new 0 0 283.5 283.5;" xml:space="preserve">
<style type="text/css">
	.st0{fill:#0B3D91;}
	.st1{fill:#FFFFFF;}
	.st2{fill:#FC3D21;}
</style>
<rect width="283.5" height="283.5"/>
<g>
	<circle class="st0" cx="134.1" cy="141.7" r="89"/>
	<g>
		<circle class="st1" cx="128.8" cy="69.8" r="1"/>
		<circle class="st1" cx="139.1" cy="71.2" r="1"/>
		<circle class="st1" cx="152.5" cy="89.3" r="1"/>
		<circle class="st1" cx="78.8" cy="182.4" r="1"/>
		<circle class="st1" cx="81.4" cy="190.3" r="1"/>
		<circle class="st1" cx="69" cy="183.6" r="0.7"/>
		<circle class="st1" cx="109.6" cy="199.2" r="0.7"/>
		<circle class="st1" cx="173.2" cy="186" r="0.7"/>
		<circle class="st1" cx="191.7" cy="165.9" r="0.7"/>
		<circle class="st1" cx="101.1" cy="95.1" r="0.7"/>
		<circle class="st1" cx="121.4" cy="80.1" r="0.7"/>
		<circle class="st1" cx="119.2" cy="78.7" r="0.7"/>
		<circle class="st1" cx="117.2" cy="77.2" r="0.7"/>
		<circle class="st1" cx="104.3" cy="98.9" r="0.7"/>
		<circle class="st1" cx="134.3" cy="60.1" r="0.7"/>
		<circle class="st1" cx="139.2" cy="81.6" r="0.7"/>
		<circle class="st1" cx="131.4" cy="77.4" r="0.7"/>
		<circle class="st1" cx="118.1" cy="83.1" r="0.7"/>
		<circle class="st1" cx="176.8" cy="205.8" r="0.7"/>
		<circle class="st1" cx="77.5" cy="187.4" r="0.7"/>
		<circle class="st1" cx="129.6" cy="197.1" r="0.7"/>
		<circle class="st1" cx="93" cy="186.8" r="0.7"/>
		<circle class="st1" cx="99.5" cy="197.4" r="0.7"/>
		<circle class="st1" cx="147.1" cy="190.7" r="0.7"/>
		<circle class="st1" cx="173.4" cy="175.9" r="0.7"/>
		<circle class="st1" cx="193.3" cy="185" r="0.7"/>
		<circle class="st1" cx="200.1" cy="189.4" r="0.7"/>
		<circle class="st1" cx="201.2" cy="177.5" r="0.7"/>
		<circle class="st1" cx="102.2" cy="160.8" r="0.7"/>
		<circle class="st1" cx="102.5" cy="177.9" r="1"/>
		<circle class="st1" cx="108.5" cy="190.5" r="1"/>
		<circle class="st1" cx="180.2" cy="177.4" r="1"/>
		<circle class="st1" cx="206" cy="175.9" r="1"/>
		<circle class="st1" cx="193.2" cy="170.5" r="1"/>
		<circle class="st1" cx="180.2" cy="171" r="1"/>
		<path class="st1" d="M153.3,69.2l2.5-0.2l-2.5-0.1c-0.1-0.5-0.5-0.9-0.9-0.9l-0.2-2.5l-0.1,2.5c-0.4,0.1-0.8,0.5-0.8,0.9l-2.5,0.2
			l2.6,0.1c0.1,0.4,0.4,0.8,0.9,0.8l0.2,2.5l0.1-2.5C152.8,70,153.2,69.7,153.3,69.2z"/>
		<path class="st1" d="M111.4,96.8l2.5-0.2l-2.5-0.1c-0.1-0.5-0.5-0.9-0.9-0.9l-0.2-2.5l-0.1,2.5c-0.5,0.1-0.8,0.5-0.8,0.9l-2.5,0.2
			l2.6,0.1c0.1,0.4,0.4,0.8,0.9,0.8l0.2,2.5l0.1-2.5C111,97.6,111.3,97.3,111.4,96.8z"/>
		<path class="st1" d="M204.2,169.8l2.5-0.2l-2.5-0.1c-0.1-0.5-0.5-0.9-0.9-0.9l-0.2-2.5l-0.1,2.5c-0.4,0.1-0.8,0.5-0.8,0.9
			l-2.5,0.2l2.6,0.1c0.1,0.4,0.4,0.8,0.9,0.8l0.2,2.5l0.1-2.5C203.7,170.7,204.1,170.3,204.2,169.8z"/>
		<path class="st1" d="M103,208l2.5-0.2l-2.5-0.1c-0.1-0.5-0.5-0.9-0.9-0.9l-0.2-2.5l-0.1,2.5c-0.5,0.1-0.8,0.5-0.8,0.9l-2.5,0.2
			l2.6,0.1c0.1,0.4,0.4,0.8,0.9,0.8l0.2,2.5l0.1-2.5C102.6,208.8,102.9,208.5,103,208z"/>
		<path class="st1" d="M196.3,189.4l2.5-0.2l-2.5-0.1c-0.1-0.5-0.5-0.9-0.9-0.9l-0.2-2.5l-0.1,2.5c-0.4,0.1-0.8,0.5-0.8,0.9
			l-2.5,0.2l2.6,0.1c0.1,0.4,0.4,0.8,0.9,0.8l0.2,2.5l0.1-2.5C195.8,190.2,196.2,189.9,196.3,189.4z"/>
		<path class="st2" d="M155.2,120.4c-10.3,4-20.4,7.6-29,10.3c-17.3,5.4-64.6,20.1-93.2,38.6l2.4,0.9c17.4-9.8,28.8-12.9,39.6-16.4
			c11.8-3.7,50.1-12.7,67.4-17.6c5.9-1.6,12.7-3.8,20-6.4c-1.7-2.4-3.5-4.7-5.3-7.1C156.5,122,155.8,121.2,155.2,120.4z
			 M167.8,137.8c-2.5,1.7-4.6,3-6.1,3.9c-8.5,4.9-50,33.3-59.5,39.8s-35.6,31.3-43.4,38.4l-0.3,2.9c24.9-22.3,32.7-27.9,42.6-35.4
			c12.2-9.3,37.6-26.5,46.2-32.1c8.2-5.3,15.6-10.1,22.3-14.6c-0.1-0.2-0.2-0.4-0.3-0.5C168.9,139.5,168.3,138.7,167.8,137.8z
			 M206.7,96.8c-12.1,7.1-31.2,15.7-49.7,22.9c0.4,0.5,0.9,1.1,1.3,1.6c2.1,2.6,4,5.2,5.9,7.9c14.6-5.4,30.5-12.6,43.2-21.3
			c-6,5.7-26,20.7-38.2,29c0.6,1,1.2,2,1.8,3.1c18.4-12.3,30.9-21.4,38.1-27.5c10-8.4,32.7-27.1,41.4-52.3
			C235.3,79.5,217.4,90.5,206.7,96.8z"/>
		<path class="st1" d="M122.6,163.8c-2-2.5-4.7-5.8-6.7-8.3c-2.7-3.4-5.2-6.9-7.6-10.4c-0.8,0.2-1.5,0.4-2.3,0.6
			c2.8,4.4,5.9,8.7,9.3,12.9c2.5,3.1,4.7,5.6,5.9,7.2c0.2,0.3,0.7,1,1.3,1.9c0.7-0.5,1.4-1,2.2-1.5
			C124,165.4,123.3,164.6,122.6,163.8z M137,176.8c-1.6-1.5-5.5-4.1-9.6-7.9c-0.9,0.6-1.8,1.2-2.7,1.9c2.6,3.7,6.2,8.2,9,9.6
			C137.9,182.3,139,178.7,137,176.8z M158.3,121.4C135,92.1,106.6,76,94.4,85.7c-9.5,7.6-5.6,29.7,7.5,52.9c0.7-0.2,1.4-0.5,2-0.7
			C90.6,115.3,87,94.3,96,87.2c11.3-9,38.5,7.2,61.1,35.6c4.7,5.9,8.8,11.8,12.3,17.5c13.3,22.1,17.4,42,8.2,50.1
			c-2.8,2.5-11.4,3.5-22.7-1.6c-0.2,0.2,0.1,0.7,0.3,0.9c9.7,3.9,19.1,5.4,23.8,1.7C190.2,182.4,181.5,150.6,158.3,121.4z"/>
		<path class="st1" d="M58.5,124.8h14.9l12.5,21.2c0,0,0-15.4,0-16.6c0-1.9-2.4-4.3-3.2-4.7c1,0,9.7,0,10.3,0
			c-0.6,0.2-2.7,2.6-2.7,4.7c0,1,0,23.3,0,24.3c0,1.5,2.2,3.6,3.2,4.4H79.2l-12.7-21.3c0,0,0,15.9,0,16.8c0,1.7,1.6,3.3,3.3,4.6h-11
			c1.6-0.7,3.1-2.8,3.2-4.4c0.1-1.7,0-23.1,0-24C62.1,127.8,60.1,126.1,58.5,124.8z"/>
		<path class="st1" d="M194.8,158.2h19.8c-1.1-0.3-2.3-1.6-3-3.3c-0.7-1.7-11.2-30.1-11.2-30.1h-7.5c-2.1,1.5-4.4,3.2-6.9,4.9
			c0,0.1,0,0.1,0,0.2c-0.3,2-6.2,23.4-6.6,24.4c-0.5,1.5-3.1,3.1-4.1,4H186c-1.1-1.2-1.9-2.4-1.7-3.7c0.2-1.3,0.8-4,0.8-4h11
			c0.5,1.3,0.9,2.5,1.1,3.7C197.4,155.6,196,157.1,194.8,158.2z M186.1,146.3l3.7-12.2l4.9,12.2H186.1z M184.4,126.1
			c0.5-0.4,1.1-0.8,1.6-1.2h-2.9C183.5,125.1,183.9,125.5,184.4,126.1z"/>
		<path class="st1" d="M108.6,154.6c0.2-1.3,0.8-4,0.8-4h11c0.5,1.3,0.9,2.5,1.1,3.7c0.2,1.4-1.2,2.9-2.4,4h17.4
			c0.4-0.2,0.7-0.5,1.1-0.7c-0.7-0.6-1.3-1.5-1.7-2.6c-0.7-1.7-11.2-30.1-11.2-30.1h-17.3c0.8,0.8,3.2,2.8,2.9,5.1
			c-0.3,2-6.2,23.4-6.6,24.4c-0.5,1.5-3.1,3.1-4.1,4h10.7C109.3,157.1,108.4,155.9,108.6,154.6z M114.1,134.1l4.9,12.2h-8.6
			L114.1,134.1z"/>
		<path class="st1" d="M168.9,141.4c-3.3,2.2-6.7,4.4-10.3,6.8c1.6,0.8,2.9,1.8,3,3.1c0.2,2.4-4.6,3.6-8.9,3.1
			c-0.9-0.1-1.7-0.3-2.5-0.6c-0.9,0.6-1.8,1.2-2.7,1.8c-0.9,0.6-2.1,1.4-3.4,2.2v3.4c0.9-1.7,2.8-3.2,4.2-3.3c0.6,0,2.8,2,11.9,1.5
			c4.4-0.2,12.9-4.9,12.7-10.3C172.7,145.8,171.1,143.3,168.9,141.4z M144,149.7v3.5c0.8-0.5,1.6-1.1,2.4-1.6
			C145.1,150.8,144.3,150,144,149.7z M165.8,139.2c-0.8-0.5-1.7-0.9-2.5-1.3c-4.3-2-8.7-2.4-9.6-5.1c-0.7-1.9,1.2-3.7,5.7-3.6
			c4.5,0.1,8.7,2.8,9.8,3.7v-8.6c-0.3,0.3-1.8,2-3.1,1.7c-2.6-0.5-6.9-1.2-11.9-1.2c-5.7,0-10.6,4.5-10.8,10
			c-0.2,7.8,6,9.9,9.5,11.2c0.4,0.1,0.8,0.3,1.2,0.4c3.4-2.2,6.1-3.9,7.6-4.8C162.8,141.1,164.2,140.3,165.8,139.2z"/>
	</g>
</g>
</svg>
