<?xml version="1.0" encoding="UTF-8"?>
<svg id="Vrstva_1" data-name="Vrstva 1" xmlns="http://www.w3.org/2000/svg" version="1.1" viewBox="0 0 283.5 283.5">
  <defs>
    <style>
      .cls-1 {
        fill: #ff6700;
      }

      .cls-1, .cls-2, .cls-3 {
        stroke-width: 0px;
      }

      .cls-2 {
        fill: #1cbac9;
      }

      .cls-3 {
        fill: #fff;
      }
    </style>
  </defs>
  <rect class="cls-1" width="283.5" height="283.5"/>
  <g>
    <path class="cls-3" d="M144.9,51.9c-7.6.1-14.6,3.8-19,10.1-5.1,6.5-10.4,13.3-19.4,14.7-5.5.7-10.7,3.3-14.5,7.4-3.9,4.1-6.1,9.6-6.4,15.3-.1,2.7.3,5.3,1,7.6,0,0,0,.3.2.7.2.5.3,1,.6,1.3.3.5.8.7,1.3.8.6,0,1.4,0,1.9-.7.2-.2.3-.4.4-.8,0-.2.2-.5,0-1-.1-.6-.3-.8-.4-1.3-.7-2.2-1-4.3-.9-6.4.2-4.7,2.1-9.2,5.3-12.6,3.2-3.4,7.5-5.5,12.1-6.1h0s0,0,0,0h0c10.7-1.6,16.7-9.4,22.1-16.2h0s0,0,0,0h0c0,0,0,0,0,0,3.9-5.5,10.2-8.7,17-8.4,2.1,0,4.1.5,6,1.2,3,1.1,5.7,3,7.8,5.3,1.9,2.1,3.4,4.7,4.2,7.5.6,2.1.9,4.3.8,6.5-.2,4-1.8,8-4.6,11.8-3.5,4.7-5.3,9.3-5.2,14,0,5.1,2.5,10.3,6.8,14.6,1.1,1.1,2.3,2,3.5,2.8,3.4,2.3,7.3,3.8,11.1,4.2,2.3.2,5,.2,7.7-.2,1.1-.2,1.9-1.2,1.7-2.4-.2-1.1-1.2-1.9-2.3-1.7-2.4.3-4.7.3-6.7.1-4.3-.5-8.7-2.6-12.1-5.9-3.5-3.4-5.5-7.6-5.5-11.5,0-3.7,1.4-7.5,4.4-11.5,3.4-4.5,5.2-9.3,5.4-14.1.3-6.4-1.9-12.4-6.2-17.1-4.3-4.7-10.2-7.5-16.6-7.7-.5,0-1,0-1.5,0Z"/>
    <path class="cls-3" d="M120.7,154.6c1.2,0,2.2-.9,3-2.3.6-1.2,1-2.6,1.1-4h13.5c-.4,4.6-2.6,8.9-6.2,11.8-7.1,6-17.5,5.6-24.1-1-6.9-6.9-6.9-18.1,0-25.1h0c3.3-3.3,7.9-5.2,12.6-5.2,9.2,0,16.8,7,17.7,16.1h-13.5c-.1-1.4-.5-2.7-1.2-4-.8-1.5-1.8-2.3-3-2.3s-2.2.9-3,2.3c-.8,1.5-1.3,3.4-1.3,5.6s.5,4.2,1.3,5.6c.8,1.5,1.8,2.3,3,2.3h0Z"/>
    <path class="cls-3" d="M55.2,134c3.3-3.3,7.9-5.2,12.6-5.2s9.2,1.9,12.6,5.2c3.3,3.3,5.2,7.8,5.2,12.6v16.2h-13.5v-15.9c0-2-.5-3.6-1.3-4.9-.8-1.3-1.8-2-3-2-1.2,0-2.2.8-3,2-.8,1.3-1.2,2.9-1.2,4.8v15.9h-13.5v-16.2c0-4.9,2-9.4,5.2-12.6Z"/>
    <path class="cls-3" d="M100.1,124c1.1-1.3,1.7-2.9,1.7-4.7s-.8-3.9-2.2-5.3c-1.4-1.4-3.3-2.2-5.3-2.2-4.1,0-7.5,3.3-7.5,7.5h0c0,2.1.8,4,2.2,5.4l1.7,1.7c2.8,2.8,3,3.5.3,6.1l-1.5,1.5c-1.3,1.3-2,3-2,4.8v24.2h13.7v-24.2c0-1.8-.7-3.6-2-4.8l-1.5-1.5c-2.5-2.5-2.5-3.3,0-5.7.4-.4.8-.8,1.2-1.2.5-.5,1-.9,1.4-1.4Z"/>
    <path class="cls-3" d="M174.1,160.5c0-.4-.1-.9-.3-1.2l-7.4-11.2,5.1-9.3c1.9-3.2.8-7.3-2.4-9.2h0c-3.2-1.9-7.3-.8-9.3,2.4l-6.1,10.9v-7.3c0-3.7-3.1-6.7-6.8-6.7s-6.8,3-6.8,6.7v27.2h13.5v-10.7s7.1,10.7,7.1,10.7h10.9c1.3,0,2.4-1,2.4-2.3h0Z"/>
    <path class="cls-2" d="M195.8,113.4c-3.7,0-6.7,3-6.7,6.7s3,6.7,6.7,6.7,6.7-3,6.7-6.7-3-6.7-6.7-6.7h0ZM195.8,128.9c-2.2,0-4.1,1-5.3,2.8-.9,1.3-1.5,3-1.5,5.1v16.4c0,2.2-1.3,2.5-1.7.1-.2-1.3-.7-2.3-1.4-3.1-1.1-1.3-2.7-2-4.3-2-2.4,0-4.9,1.1-6,3-.7,1.2-1,2.4-1,3.6,0,1.3.4,2.5,1.1,3.6.4.7,1,1.3,1.5,1.8,1.3,1.3,2.5,1.9,2.8,2.1.6.3,1.2.6,1.9.8,2,.7,4.4,1.1,6.8,1.1,4.6,0,7.7-1.1,9.9-3,1.5-1.3,2.7-3.2,3.3-5.5.5-1.8.6-3.1.6-4.9v-3.7s0-3.7,0-3.7v-7.7c0-3.7-3-6.7-6.7-6.7Z"/>
    <path class="cls-2" d="M218.1,162.8v-18.1c0-.7.2-1.7.8-2.6.4-.7,1-1.3,1.9-1.6.7-.2,1.4-.1,2.1,0,.7.2,1.4.5,2.2.8,5.6,2.1,10-.7,10.7-4.4.7-3.6-1.8-7.2-5.4-7.8-2.3-.4-4.2-.3-6.1.4-1.8.6-3.4,1.6-5.3,3-.4.3-.8.7-1.2,1-.9-2.7-3.4-4.7-6.4-4.7s-4.8,1.4-5.9,3.5c-.5,1-.9,2.1-.9,3.3v.8s0,26.5,0,26.5h13.5Z"/>
    <path class="cls-3" d="M63,86.1c-8.4,0-15.2,6.8-15.2,15.2,0,4.1,1.6,7.9,4.5,10.7,2.9,2.9,6.7,4.4,10.7,4.4h0c4.1,0,7.9-1.6,10.8-4.4,2.9-2.9,4.5-6.7,4.5-10.7,0-8.4-6.8-15.2-15.2-15.2h0ZM63,90.2h0c3,0,5.7,1.2,7.8,3.3,2.1,2.1,3.3,4.9,3.3,7.8,0,3-1.2,5.7-3.3,7.8-2.1,2.1-4.9,3.3-7.9,3.3-6.1,0-11.1-5-11.1-11.1s5-11.1,11.1-11.1Z"/>
    <path class="cls-3" d="M181.8,167.8c-.5,1-.7,1.5-1.2,2.7h0c-1.5,4.4-2,10.7,3.1,18,1,1.4,2.2,2.9,3.7,4.3l.2.2c3.4,3.5,6.8,9.8,6.5,15.5-.2,5.2-2.5,9.9-6,13.3-3.8,3.6-9,5.8-14.6,5.5h0c-4.9-.2-9.6-2.2-13.1-5.7-3.5-3.5-5.5-8-5.8-12.9h0s0-.1,0-.1c-.8-6.6-3.5-12.4-8-17.2-3.8-4-8.9-7.2-14.9-9.3-4.8-1.7-10.2-2.7-16-2.7-4.6,0-10.3.5-16.3,2.6-5.3,1.8-10.1,4.6-13.6,8.2h0s0,0,0,0c-2.1,2.3-4.7,4.1-7.6,5.2-2.5.9-5.1,1.3-7.8,1.2-2.8-.1-5.4-.8-7.9-2-2.2-1.1-4.1-2.5-5.8-4.4-2.2-2.4-3.7-5.2-4.5-8.2-.5-1.9-.7-3.9-.6-5.9,0-1.7.8-4,1.6-6.1.2-.6.5-1.1.7-1.5,0-.2.2-.4.2-.6.1-.8-.2-1.7-1-2.1h0c-.5-.3-1.1-.3-1.7-.1-.5.2-.9.5-1.2,1-.3.5-.5,1-.6,1.2-.4.9-.8,1.9-1.1,2.9-.7,2.4-1.1,4-1.1,6,0,1.3,0,2.7.3,4,.3,1.9.8,3.7,1.6,5.6,1.1,2.5,2.6,4.8,4.4,6.8,4.3,4.7,10.2,7.4,16.5,7.7h0c.4,0,.7,0,1.1,0,6.7,0,13-2.8,17.5-7.7h0c4.6-4.5,11.2-7.6,18.3-8.9,7.5-1.4,15.8-.8,23.3,1.8,5.3,1.8,12.7,5.7,17,13.4,1.6,2.8,2.7,6,3.2,9.7.3,5.9,2.7,11.3,7,15.5,4.2,4.2,9.8,6.6,15.8,6.9h0c.4,0,.8,0,1.1,0,6.5,0,12.5-2.6,16.8-6.9,4.1-4.1,6.8-9.7,7.1-15.9.3-7.2-3.7-14.6-7.9-18.8l-.3-.3c-1.2-1.2-2.2-2.4-3-3.6-1.9-2.7-3-5.5-3.3-8.1-.2-2.1,0-4.1.7-6.2.2-.7.5-1.4.9-2.1.5-1,.2-2.2-.7-2.8h0c-1-.6-2.3-.3-2.8.8h0Z"/>
    <path class="cls-3" d="M211.4,108.1c-3,.1-5.6.7-8.1,1.8-1,.5-1.4,1.8-.9,2.8h0c.3.6.8.9,1.4,1.1.4,0,.9,0,1.4-.2,1.2-.5,2.5-.9,4-1.2,1.9-.3,5-.4,7.4,0,3.6.6,6.7,2.3,9.2,5.1,1.9,2.1,3.3,4.7,4.1,7.5.2,1,1.2,1.7,2.3,1.5h0c.6-.1,1.1-.4,1.4-.9.3-.4.4-1,.3-1.7-1-3.4-2.7-6.6-5.1-9.3-3.9-4.2-9.1-6.6-14.7-6.7h0c-.9,0-1.8,0-2.7,0Z"/>
    <path class="cls-2" d="M236.3,156.5c0-3.7-3-6.7-6.7-6.7s-6.7,3-6.7,6.7,3,6.7,6.7,6.7,6.7-3,6.7-6.7Z"/>
  </g>
</svg>