<?xml version="1.0" encoding="UTF-8"?>
<svg xmlns="http://www.w3.org/2000/svg" version="1.1" viewBox="0 0 283.5 283.5">
  <defs>
    <style>
      .cls-1 {
        fill: #3deeab;
      }

      .cls-2 {
        fill: #ff6700;
      }

      .cls-3 {
        fill: #fff;
      }
    </style>
  </defs>
  <!-- Generator: Adobe Illustrator 28.7.1, SVG Export Plug-In . SVG Version: 1.2.0 Build 142)  -->
  <g>
    <g id="Vrstva_1">
      <rect class="cls-2" width="283.5" height="283.5"/>
      <g>
        <g id="Layer_1">
          <g>
            <path id="path367" class="cls-1" d="M143.3,134c1.2,0,2.2.4,3,1.2.8.8,1.2,1.8,1.2,3s-.4,2.2-1.2,3c-.8.8-1.8,1.2-3,1.2h-2.4v12.9s-8.4,0-8.4,0v-12.9h-2.4c-1.2,0-2.2-.4-3-1.2s-1.2-1.8-1.2-3,.4-2.2,1.2-3c.8-.8,1.8-1.2,3-1.2h13.2Z"/>
            <path id="path365" class="cls-1" d="M205,133.9c3.1,0,5.7,1.1,7.9,3.3,2.2,2.2,3.3,4.8,3.3,7.9v10.3h-8.5v-10.1c0-1.2-.3-2.2-.8-3.1-.5-.8-1.2-1.3-1.9-1.3s-1.4.4-1.9,1.3-.8,1.9-.8,3.1v10.1h-8.5v-10.3c0-3.1,1.1-5.7,3.3-7.9,2.2-2.2,4.8-3.3,7.9-3.3h0Z"/>
            <path id="path363" class="cls-1" d="M230,143.4c4.1,1.8,6.2,3.9,6.2,6.2s-.8,3.3-2.4,4.7c-1.7,1.4-3.8,2.2-6.3,2.2s-5.2-.8-7-2.5c-1.7-1.5-2.5-3.3-2.5-5.4h6.9c0,.6.1,1.1.4,1.6.4.8,1.1,1.3,2,1.3s.6-.1.9-.3c.4-.2.5-.5.5-1s-.4-1-1.3-1.4c-.2-.1-1.4-.7-3.6-1.7-4.1-1.8-6.1-3.9-6.1-6.2s.8-3.3,2.4-4.7c1.7-1.4,3.8-2.2,6.3-2.2s5.2.8,7,2.5c1.7,1.5,2.5,3.3,2.5,5.4h-6.9c0-.6-.1-1.1-.4-1.6-.4-.8-1.1-1.2-2.1-1.2s-.6,0-.9.2c-.4.2-.6.5-.6,1,0,.5.4,1,1.3,1.4.2.1,1.4.7,3.6,1.6h0Z"/>
            <path id="path361" class="cls-1" d="M158.5,134c-6.2,0-11.2,5-11.2,11.2s5,11.2,11.2,11.2,11.2-5,11.2-11.2-5-11.2-11.2-11.2h0ZM158.5,140.2c1.5,0,2.7,2.3,2.7,5s-1.2,5-2.7,5-2.7-2.3-2.7-5,1.2-5,2.7-5Z"/>
            <path id="path357" class="cls-1" d="M181.5,134c-6.2,0-11.2,5-11.2,11.2s5,11.2,11.2,11.2,11.2-5,11.2-11.2c0-6.2-5-11.2-11.2-11.2ZM181.5,140.2c1.5,0,2.7,2.3,2.7,5s-1.2,5-2.7,5-2.7-2.3-2.7-5c0-2.7,1.2-5,2.7-5Z"/>
            <path id="path377" class="cls-3" d="M92,133.9c-3.1,0-5.9,1.3-7.9,3.3-2,2-3.3,4.9-3.2,7.9s1.2,5.9,3.2,7.9c1.5,1.5,4.2,3.3,7.9,3.3s5.3-1,7.3-2.7c1.4-1.2,3.5-3.6,3.9-7.5h-8.5c-.1,1-.4,1.8-.7,2.5-.5,1-1.1,1.5-1.9,1.5s-1.4-.5-1.9-1.5c-.5-1-.8-2.2-.8-3.5s.3-2.6.8-3.5c.5-1,1.1-1.5,1.9-1.5s1.4.5,1.9,1.5c.4.7.6,1.5.7,2.5h8.5c-.3-2.6-1.4-5.1-3.2-6.9-2-2-4.8-3.3-7.9-3.3h0Z"/>
            <path id="path375" class="cls-3" d="M58.5,133.9c-3.1,0-5.9,1.3-7.9,3.3-2,2-3.3,4.8-3.3,7.9v10.2h8.5v-10c0-1.2.3-2.3.8-3.1.5-.8,1.1-1.3,1.9-1.3s1.4.5,1.9,1.3c.5.8.8,1.9.8,3.1v10h8.5v-10.2c0-3.1-1.3-5.9-3.3-7.9-2-2-4.8-3.2-7.9-3.2h0Z"/>
            <path id="path373" class="cls-3" d="M120.7,133.7c-1.5,0-3,.7-3.8,2.1l-3.9,6.9v-4.6c0-2.3-1.9-4.2-4.2-4.2s-4.2,1.9-4.2,4.2v17.2h8.5v-6.7l4.5,6.7h6.8c.8,0,1.4-.6,1.4-1.5s0-.6-.2-.8l-4.6-7,3.2-5.9c1.1-2,.5-4.6-1.5-5.8-.6-.4-1.3-.6-2-.6h0Z"/>
            <path id="path4094-1" class="cls-3" d="M75.4,123.1c-1.3,0-2.5.5-3.3,1.4s-1.4,2.1-1.4,3.3.5,2.5,1.4,3.3l1,1.1c1.7,1.8,1.8,2.2.2,3.9l-.9,1c-.8.8-1.2,1.9-1.2,3v15.2h8.5v-15.2c0-1.2-.5-2.2-1.2-3l-.9-1c-1.6-1.7-1.5-2.1.2-3.9l1-1.1c.8-.9,1.4-2,1.4-3.3s-.5-2.5-1.4-3.3c-.9-.8-2-1.4-3.4-1.4h0Z"/>
          </g>
        </g>
        <g id="Layer_2">
          <path class="cls-3" d="M68.8,117.4h0c-3.1,0-6-1.2-8.2-3.4-2.2-2.2-3.4-5.1-3.4-8.2,0-3.1,1.2-6,3.4-8.2,2.2-2.2,5.1-3.4,8.2-3.4h0c3.1,0,6,1.2,8.2,3.4,2.2,2.2,3.4,5.1,3.4,8.2h0c0,3.1-1.2,6-3.4,8.2-2.2,2.2-5.1,3.4-8.2,3.4ZM68.8,113.9h0c2.2,0,4.2-.8,5.7-2.4,1.5-1.5,2.4-3.6,2.4-5.7s-.8-4.2-2.4-5.7-3.6-2.4-5.7-2.4h0c-4.5,0-8.1,3.6-8.1,8.1s.8,4.2,2.4,5.7c1.5,1.5,3.6,2.4,5.7,2.4t0,0Z"/>
          <g>
            <path class="cls-3" d="M93.6,130.5h0c1,0,1.9-.7,1.9-1.7,0-.2,0-.4,0-.6,0-4.6-1.2-8.9-3.5-13-2.3-4.1-3.4-7.6-3.2-11,.2-4.2,1.9-8.2,4.7-11.2,2.8-3,6.6-5,10.7-5.5h0c9.4-1.5,14.8-8.3,19.6-14.4h0c3.5-5,9.2-7.8,15.2-7.6,4.7.2,9,2.2,12.2,5.7,3.2,3.5,4.8,8,4.6,12.7-.2,3.6-1.5,7.1-4.1,10.6-3.1,4.2-4.7,8.3-4.6,12.4,0,4.5,2.1,9,6,12.8,3.6,3.5,8.3,5.8,12.9,6.3,5.7.6,13.8-.7,18.9-4.9,5.7-4.7,8.5-5.8,14.3-5.6,4.1.1,7.8,1.8,10.5,4.8,3,3.3,4.7,8.1,4.4,12.7,0,0,0,0,0,0,0,.9.6,1.8,1.6,1.8h0c1,0,1.8-.6,1.9-1.6,0,0,0,0,0-.1.3-5.6-1.6-11.2-5.3-15.3-3.4-3.7-7.9-5.8-13-6-6.7-.2-10.3,1.2-16.6,6.4-4.3,3.6-11.5,4.6-16.4,4.1-3.8-.4-7.8-2.4-10.9-5.4-3.1-3-4.9-6.8-4.9-10.3,0-3.3,1.3-6.7,4-10.3,3-4,4.6-8.2,4.8-12.5.2-5.6-1.7-11-5.5-15.2-3.8-4.2-9-6.6-14.6-6.8-7.2-.3-14,3-18.2,8.9-4.5,5.8-9.2,11.8-17.3,13-4.9.6-9.4,2.9-12.8,6.5-3.4,3.7-5.4,8.4-5.7,13.5-.2,5.4,2,9.9,3.7,12.8,2.1,3.7,3.2,7.8,3,11.8,0,.9.6,1.7,1.6,1.8Z"/>
            <path class="cls-3" d="M178,184.5c-5.2-5.3-6.8-10.7-5-15.9.8-2.4,2.4-4.7,4.4-6.7.7-.7.7-1.9-.1-2.6h0c-.7-.6-1.7-.5-2.4.1-2.9,3-4.4,5.8-5.1,8-1.6,4.6-1.9,11.8,6,19.8l.2.2c3,3.1,6,8.7,5.8,13.8-.4,9.7-8.7,17.3-18.4,16.8-4.4-.2-8.6-2-11.7-5.1-3.1-3.1-4.9-7.2-5.2-11.5h0c-1.2-10.9-8.6-19.5-20.3-23.6-4.6-1.6-9.6-2.4-14.7-2.4s-4.8.2-7.1.6c-7.7,1.2-14.3,4.4-18.9,9h0c-3.5,3.9-8.5,6-13.8,5.8-4.7-.2-9-2.2-12.2-5.7-3.2-3.5-4.8-8-4.6-12.7.2-4.1,2.1-7.8,5.1-10.4.8-.7.8-1.9,0-2.6h0c-.7-.6-1.7-.6-2.3,0-.6.6-1.2,1.2-1.8,1.8-2.7,3.1-4.3,7-4.4,11-.2,5.6,1.7,11,5.5,15.2,3.8,4.2,9,6.6,14.6,6.8,6.3.3,12.3-2.2,16.5-6.8,8.3-8.3,23.9-10.9,37.1-6.3,4.9,1.7,9.1,4.4,12.1,7.7,3.3,3.6,5.3,7.9,5.9,12.9.3,5.2,2.5,10.1,6.2,13.7,3.7,3.7,8.7,5.9,14,6.1.3,0,.6,0,.9,0,11.2,0,20.6-8.9,21.1-20.2.3-6.3-3.3-12.9-7-16.6l-.2-.2Z"/>
          </g>
        </g>
      </g>
    </g>
  </g>
</svg>