<?xml version="1.0" encoding="UTF-8"?>
<svg id="Vrstva_1" data-name="Vrstva 1" xmlns="http://www.w3.org/2000/svg" version="1.1" viewBox="0 0 283.5 283.5">
  <defs>
    <style>
      .cls-1 {
        fill: #ff6700;
      }

      .cls-1, .cls-2 {
        stroke-width: 0px;
      }

      .cls-2 {
        fill: #fff;
      }
    </style>
  </defs>
  <rect class="cls-1" width="283.5" height="283.5"/>
  <g>
    <path class="cls-2" d="M141.7,114c-2.2,0-4.3-.5-6.1-1.6-2.4-1.3-4.3-3.5-5.5-6.1-1.5-3.3-1.5-7.1,0-10.4,1.5-3.4,4.5-5.9,8.1-7,2.2-.7,4.5-.7,6.8-.1,2.1.6,4,1.6,5.7,3.2,3.4,3.2,4.8,7.6,3.8,11.9-.7,2.9-2.2,5.4-4.3,7.2-2,1.7-4.4,2.7-7.1,2.9-.4,0-.8,0-1.2,0ZM141.7,91.7c-.9,0-1.8.1-2.6.4h0c-2.7.8-4.9,2.7-6,5.2-1.1,2.4-1.1,5.1,0,7.6,2.1,4.7,6.3,6,9.5,5.7,3.3-.3,7.2-2.5,8.4-7.5.7-3.1-.3-6.4-2.8-8.7-1.9-1.7-4.2-2.7-6.5-2.7Z"/>
    <path class="cls-2" d="M125,55.5c4.3-.4,8.4.4,11.9,2.3,3.3,1.8,5.9,4.5,7.7,7.9,1.8,3.5,2.6,7.4,2.2,11.3-.4,4.2-2.2,8.4-5.1,12h0c0,0,0,.1,0,.1-3.2,4.8-4.6,9.4-4.4,13.8.2,4.3,2,8.4,5.3,12.4h0c4.7,5,10.9,7.9,17.6,8.4.6,0,1.3,0,1.9,0,6.7,0,13.2-2.5,19.1-7.2,3.2-2.6,6.7-4.2,10.3-4.8,3.4-.5,6.8-.2,9.8,1.1,6.3,2.6,10.6,8.5,11.4,15.9h0c.3,2.3.2,4.5-.4,6.6-.2.8.2,1.6.9,1.9h0c.9.4,2,0,2.3-1.1.7-2.5.8-5.1.5-7.9-1-8.6-6-15.5-13.5-18.6-3.6-1.5-7.7-1.9-11.6-1.3-4.2.7-8.2,2.5-11.9,5.5-5.8,4.7-12.2,6.9-18.7,6.4-5.8-.4-11.3-3-15.4-7.3-5.8-7-6-14-.7-22.2,3.3-4.1,5.4-8.8,5.8-13.7.4-4.6-.5-9.2-2.6-13.2-2.1-3.9-5.2-7.1-9.1-9.2-4.1-2.2-8.9-3.2-13.8-2.7-7.6.6-13.3,4.2-18.5,11.5h0c-6.7,7.9-9.5,11.1-17.2,13.1,0,0,0,0-.1,0-8.8,1.2-15.9,6-19.4,13.1-1.7,3.3-2.4,6.9-2.3,10.7.1,3.9,1.3,7.8,3.4,11.6h0c3.3,5.4,4.7,10.9,4.2,16.6-.1,1.3-.4,2.7-.7,4-.2.9.3,1.8,1.2,2h0c.9.2,1.8-.3,2.1-1.2.4-1.5.7-3,.8-4.5.6-6.4-.9-12.6-4.7-18.5-1.8-3.3-2.8-6.7-2.9-10.1-.1-3.2.5-6.3,1.9-9.1,3-6.1,9.2-10.2,16.9-11.2.2,0,.3,0,.4,0,8.7-2.2,11.9-5.9,19-14.1h.1c0-.1,0-.2,0-.2,4.7-6.6,9.5-9.6,16.1-10.2"/>
    <path class="cls-2" d="M202.9,179.4h0c-1.2-5.6,1.7-11.7,7.1-16.6.9-.8.7-2.2-.3-2.7h0c-.6-.3-1.4-.3-1.9.2-.9.8-1.8,1.7-2.5,2.6-4.8,5.4-6.8,11.5-5.6,17.1.9,5.2,3.8,8.9,8.5,14.3h0c4.7,5.2,6.7,11.9,5.3,18.3-1.3,6.2-5.5,11.2-11.6,13.9-6.6,2.6-13.6,2.1-19.1-1.4-2.6-1.6-4.8-3.9-6.4-6.5-1.7-2.9-2.7-6.1-3-9.8h0c-1.2-8.3-5.3-15.3-12.1-20.3-6.7-5-15.8-7.8-26.2-8.2-.7,0-1.3,0-2,0-5.2,0-10.1.8-14.5,2.3-5.2,1.8-9.9,4.8-14,8.7h0c-5.8,5.7-13.7,7.6-21,5.3-7.2-2.3-12.3-8.3-13.6-16-.7-5.1.6-10,3.8-13.9.5-.7,1.1-1.3,1.8-1.9.9-.9.6-2.4-.6-2.8h0c-.6-.2-1.2,0-1.7.3-.8.7-1.5,1.4-2.1,2.2-3.7,4.6-5.3,10.4-4.5,16.5h0c.8,4.6,2.7,8.7,5.6,12,2.7,3.1,6.3,5.4,10.2,6.7,4,1.3,8.3,1.5,12.5.6,4.4-1,8.5-3.3,11.9-6.6,7.6-7.2,16.8-10.6,28.1-10.1,9.7.4,18.2,3,24.4,7.6,6,4.5,9.7,10.7,10.8,17.9.3,4.1,1.5,7.9,3.5,11.2,1.9,3.2,4.4,5.7,7.5,7.7,3.7,2.3,8,3.5,12.4,3.5s6.5-.6,9.7-1.9h0c7.1-3.1,12-9,13.5-16.3,1.6-7.5-.6-15.2-6.1-21.2-4.7-5.4-7-8.4-7.7-12.7Z"/>
    <g>
      <path class="cls-2" d="M29.3,140.4c-2,2.1-3.4,4.9-3.4,8.1v10.5h8.7v-10.3c0-1.3.3-2.4.8-3.2.5-.8,1.2-1.3,2-1.3s1.4.5,2,1.3.8,1.9.8,3.2v10.3h8.7v-10.5c0-3.2-1.3-6.1-3.4-8.2-2-2-4.9-3.3-8.1-3.3s-6,1.3-8.1,3.4h0Z"/>
      <path class="cls-2" d="M51.4,127.4c-.9.9-1.4,2.1-1.4,3.4s.6,2.5,1.4,3.4l1.1,1.1c1.8,1.8,1.9,2.3.2,4l-1,1c-.8.8-1.3,1.9-1.3,3.1v15.7h8.8v-15.7c0-1.2-.5-2.3-1.3-3.1l-1-1c-1.7-1.7-1.6-2.1.2-4l1.1-1.1c.9-.9,1.4-2.1,1.4-3.4s-.5-2.5-1.4-3.4-2.1-1.4-3.4-1.4c-1.3,0-2.5.5-3.4,1.4h0Z"/>
      <path class="cls-2" d="M71.9,137.1c-3.2,0-6.1,1.3-8.2,3.4-2.1,2.1-3.4,5-3.3,8.2,0,3.2,1.3,6.1,3.3,8.2,1.6,1.6,4.3,3.4,8.2,3.4s5.4-1,7.5-2.8c1.5-1.3,3.6-3.8,4-7.7h-8.8c-.1,1-.4,1.9-.7,2.5-.5,1-1.2,1.5-2,1.5s-1.4-.5-2-1.5c-.5-1-.8-2.2-.8-3.6s.3-2.7.8-3.6c.5-1,1.2-1.5,2-1.5s1.4.5,2,1.5c.4.7.6,1.6.7,2.5h8.7c-.3-2.7-1.5-5.2-3.3-7.1-2.1-2-5-3.3-8.1-3.3Z"/>
      <path class="cls-2" d="M101.4,136.8c-1.6,0-3.1.7-3.9,2.1l-4,7.1v-4.7c0-2.4-2-4.3-4.3-4.3s-4.3,2-4.3,4.3v17.7h8.7v-6.9l4.6,6.9h7c.8,0,1.4-.6,1.4-1.5s0-.6-.2-.8l-4.8-7.2,3.3-6c1.2-2.1.5-4.8-1.5-6-.7-.4-1.4-.6-2.1-.6Z"/>
      <path class="cls-2" d="M116.8,137c-3.2,0-6,1.3-8.2,3.4-2.1,2.1-3.4,5-3.4,8.2s1.3,6.1,3.4,8.2c2,2,4.9,3.4,8.2,3.4s6.3-1.4,8.2-3.4c2.5-2.7,2.5-5.7,2.5-5.7h-7.8s-1.1,2.7-2.9,2.7-1.4-.5-2-1.5c-.4-.7-.6-1.5-.7-2.3h13.5s1-5.6-2.8-9.3c-2.2-2.2-5-3.5-8.2-3.5ZM116.8,143.2c.8,0,1.4.5,2,1.5.2.4.4,1.1.5,1.7h-5c.2-.6.4-1.2.6-1.7.4-.8,1.2-1.5,2-1.5Z"/>
      <path class="cls-2" d="M129,130.2v28.8h8.7v-28.8c0-2.4-2-4.3-4.4-4.3-2.4,0-4.3,2-4.3,4.3h0Z"/>
      <path class="cls-2" d="M150.3,137.1c-6.4,0-11.5,5.2-11.5,11.5s5.1,11.5,11.5,11.5,11.5-5.2,11.5-11.5c0-6.4-5.1-11.5-11.5-11.5ZM150.3,143.4c1.5,0,2.8,2.3,2.8,5.2s-1.2,5.2-2.8,5.2-2.8-2.3-2.8-5.2c0-2.9,1.2-5.2,2.8-5.2Z"/>
      <path class="cls-2" d="M181.5,125.9c-2.4,0-4.3,2-4.3,4.3v7.1c-.9-.2-1.9-.3-2.8-.3-3.2,0-6,1.3-8.2,3.4-2.1,2.1-3.3,5-3.3,8.2s1.3,6.1,3.3,8.2c1.3,1.3,4.2,3.4,8.2,3.4s6.8-2,8.2-3.4c2-2,3.3-5,3.3-8.2v-18.3c0-2.4-2-4.3-4.3-4.3ZM174.4,143.4c1.5,0,2.7,2.3,2.8,5.2,0,2.8-1.2,5.2-2.8,5.2s-2.8-2.3-2.8-5.2,1.3-5.2,2.8-5.2Z"/>
      <path class="cls-2" d="M198.4,137c-3.2,0-6,1.3-8.1,3.4-2.1,2.1-3.4,5-3.4,8.2s1.3,6.1,3.4,8.2c2,2,4.9,3.4,8.2,3.4s6.3-1.4,8.2-3.4c2.5-2.7,2.5-5.7,2.5-5.7h-7.8s-1.1,2.7-2.9,2.7-1.4-.5-2-1.5c-.4-.7-.6-1.5-.7-2.3h13.5s1-5.6-2.8-9.3-5-3.5-8.2-3.5ZM198.5,143.2c.8,0,1.4.6,2,1.5.2.4.5,1.1.6,1.7h-5.1c.2-.6.3-1.2.6-1.7.4-.8,1.2-1.5,2-1.5Z"/>
      <path class="cls-2" d="M222.1,137.1c-6.4,0-11.5,5.2-11.5,11.5s5.1,11.5,11.5,11.5,11.5-5.2,11.5-11.5-5.1-11.5-11.5-11.5ZM222.1,143.4c1.5,0,2.8,2.3,2.8,5.2s-1.2,5.2-2.8,5.2-2.8-2.3-2.8-5.2c0-2.9,1.2-5.2,2.8-5.2Z"/>
      <path class="cls-2" d="M238,140.4c-2.1,2.1-3.3,5-3.3,8.2v10.5h8.7v-10.3c0-1.3.3-2.4.8-3.2.5-.8,1.2-1.3,2-1.3s1.4.5,2,1.3.8,1.9.8,3.2v10.3h8.8v-10.5c0-3.2-1.3-6.1-3.4-8.2-2.1-2.1-5-3.3-8.1-3.3s-6,1.3-8.1,3.4h0Z"/>
    </g>
  </g>
</svg>