<?xml version="1.0" encoding="utf-8"?>
<!-- Generator: Adobe Illustrator 28.0.0, SVG Export Plug-In . SVG Version: 6.00 Build 0)  -->
<svg version="1.1" id="Vrstva_1" xmlns="http://www.w3.org/2000/svg" xmlns:xlink="http://www.w3.org/1999/xlink" x="0px" y="0px"
	 viewBox="0 0 283.5 283.5" style="enable-background:new 0 0 283.5 283.5;" xml:space="preserve">
<style type="text/css">
	.st0{fill:#181A19;}
	.st1{fill:#FFFFFF;}
	.st2{fill:#70BAD4;}
</style>
<g id="Layer_2">
	<g id="Nova">
		<g id="novasport2">
			<rect y="0" class="st0" width="283.5" height="283.5"/>
			<g id="logo">
				<path class="st1" d="M43.7,110.3h4.8v2.5c1.4-1.9,3.7-2.9,6-2.8c4.1-0.1,7.5,3.1,7.7,7.2c0,0.2,0,0.4,0,0.6v11.4h-4.8v-10.6
					c0-2.4-2-4.4-4.4-4.4c-2.4,0-4.4,2-4.4,4.4v10.6h-4.8V110.3z"/>
				<path class="st1" d="M74.9,125.2c3,0.2,5.6-2.1,5.8-5.1s-2.1-5.6-5.1-5.8s-5.6,2.1-5.8,5.1c0,0.1,0,0.2,0,0.3
					c-0.1,2.9,2.1,5.3,5,5.5C74.7,125.2,74.8,125.2,74.9,125.2 M74.9,109.9c5.4,0.1,9.7,4.7,9.5,10.1c-0.1,5.4-4.7,9.7-10.1,9.5
					c-5.3-0.1-9.5-4.5-9.5-9.8c0-5.4,4.3-9.8,9.7-9.8C74.6,109.9,74.7,109.9,74.9,109.9"/>
				<path class="st1" d="M84.8,110.3h5.1l5.2,13.9l5.2-13.9h4.8l-7.5,18.9h-5.4L84.8,110.3z"/>
				<path class="st1" d="M115.3,125.2c3,0.2,5.6-2.1,5.8-5.1s-2.1-5.6-5.1-5.8c-3-0.2-5.6,2.1-5.8,5.1c0,0.1,0,0.2,0,0.3
					c-0.1,2.9,2.1,5.3,5,5.5C115.2,125.2,115.2,125.2,115.3,125.2 M120.4,126.8c-1.5,1.8-3.8,2.7-6.1,2.7c-5.2,0-9.1-4.2-9.1-9.8
					s4-9.8,9.1-9.8c2.3,0,4.6,1,6.1,2.8v-2.4h4.8v18.9h-4.8V126.8z"/>
				<path class="st2" d="M214.5,165.4l14.8-12.3c1.5-1.1,2.4-2.8,2.4-4.6c0-1.9-1.3-3.6-4.3-3.6c-2.5,0-4.3,1.5-4.3,4.7l-8.9-1
					c0.5-7.6,5.5-11.6,13.2-11.6s13.2,4.2,13.2,11.3c0,4.6-2.7,8.4-5.9,11l-7.8,6.2h13.9v7.6h-26.4V165.4z"/>
				<path class="st1" d="M51.3,161.7c0.6,2.5,2.2,3.9,5.3,3.9c2.7,0,4.3-1,4.3-2.8c0-6.1-17.6-2-17.6-14.9c0-6.3,5.8-10.9,13-10.9
					c7.4,0,12.4,4,13.3,10l-8.8,1.8c-0.6-2.6-2.1-3.9-4.8-3.9c-2.3,0-3.8,1-3.8,2.8c0,5.6,17.6,1.5,17.6,14.9c0,6.3-5.9,11-13.5,11
					s-13-4.2-13.8-10.1L51.3,161.7z"/>
				<path class="st1" d="M91.2,154.4c2.6,0.1,4.8-1.9,4.9-4.5c0.1-2.6-1.9-4.8-4.5-4.9c-0.1,0-0.3,0-0.4,0h-7.1v9.4H91.2z
					 M75.4,137.4h15.7c8.4,0,13.8,5.3,13.8,12.4s-5.3,12.2-13.8,12.2h-7.1V173h-8.7V137.4z"/>
				<path class="st1" d="M127,165.6c5.6,0,9.9-4.5,9.9-10.4s-4.3-10.4-9.9-10.4s-9.9,4.5-9.9,10.4S121.4,165.6,127,165.6 M127,136.9
					c10.6,0,18.8,8,18.8,18.3s-8.2,18.3-18.8,18.3s-18.8-8-18.8-18.3S116.4,136.9,127,136.9"/>
				<path class="st1" d="M166.7,153.4c2.3,0,4.2-1.9,4.2-4.2s-1.9-4.2-4.2-4.2c0,0,0,0,0,0h-7.1v8.4H166.7z M163.1,161.3h-3.5V173
					h-8.6v-35.6h15.8c8.1,0,13.2,5.1,13.2,12c0.1,4.8-2.8,9.1-7.3,10.9L181,173h-10.3L163.1,161.3z"/>
				<path class="st1" d="M192.4,145H182v-7.6h29.5v7.6h-10.4v28h-8.6L192.4,145z"/>
			</g>
		</g>
	</g>
</g>
</svg>
