<?xml version="1.0" encoding="utf-8"?>
<!-- Generator: Adobe Illustrator 28.0.0, SVG Export Plug-In . SVG Version: 6.00 Build 0)  -->
<svg version="1.1" id="Vrstva_1" xmlns="http://www.w3.org/2000/svg" xmlns:xlink="http://www.w3.org/1999/xlink" x="0px" y="0px"
	 viewBox="0 0 283.5 283.5" style="enable-background:new 0 0 283.5 283.5;" xml:space="preserve">
<style type="text/css">
	.st0{fill:#181A19;}
	.st1{fill:#FFFFFF;}
	.st2{fill:#D33239;}
</style>
<g>
	<rect y="0" class="st0" width="283.5" height="283.5"/>
	<path class="st1" d="M45.8,111.2h4.6v2.4c1.3-1.7,3.3-2.8,5.8-2.8c4.4,0,7.5,3.2,7.5,7.6v11.1h-4.6v-10.3c0-2.5-1.8-4.2-4.3-4.2
		c-2.5,0-4.3,1.7-4.3,4.2v10.3h-4.6L45.8,111.2L45.8,111.2z M76.2,110.8c5.6,0,9.8,4.1,9.8,9.5c0,5.4-4.3,9.6-9.8,9.6
		s-9.8-4.1-9.8-9.6C66.4,114.9,70.6,110.8,76.2,110.8 M76.2,125.7c2.9,0,5-2.3,5-5.3c0-3-2.2-5.3-5-5.3c-2.9,0-5,2.3-5,5.3
		C71.2,123.4,73.3,125.7,76.2,125.7 M95.9,124.7l5.1-13.5h4.7l-7.3,18.4h-5.2l-7.3-18.4h5L95.9,124.7L95.9,124.7z M120.5,127.3
		c-1.5,1.6-3.5,2.6-6,2.6c-5,0-8.9-4.1-8.9-9.6c0-5.4,3.9-9.5,8.9-9.5c2.5,0,4.5,1,6,2.7v-2.3h4.6v18.4h-4.6V127.3L120.5,127.3z
		 M115.4,125.7c2.9,0,5-2.3,5-5.3c0-3-2.2-5.3-5-5.3s-5,2.3-5,5.3C110.4,123.4,112.6,125.7,115.4,125.7 M53.2,161.2
		c0.5,2.5,2.1,3.8,5.1,3.8c2.6,0,4.2-1,4.2-2.7c0-5.9-17.1-1.9-17.1-14.5c0-6.1,5.6-10.6,12.7-10.6s12.1,3.9,12.9,9.7l-8.5,1.7
		c-0.5-2.6-2-3.8-4.7-3.8c-2.3,0-3.7,1-3.7,2.7c0,5.4,17.1,1.5,17.1,14.5c0,6.1-5.7,10.7-13.2,10.7s-12.7-4-13.4-9.8L53.2,161.2
		L53.2,161.2z M76.7,137.5H92c8.2,0,13.4,5.1,13.4,12.1s-5.2,11.9-13.4,11.9h-6.9v10.6h-8.4C76.7,172.1,76.7,137.5,76.7,137.5z
		 M92,154.1c2.9,0,4.7-1.9,4.7-4.5s-1.8-4.6-4.7-4.6h-6.9v9.2H92z M126.9,137c10.3,0,18.3,7.7,18.3,17.8s-8,17.8-18.3,17.8
		s-18.3-7.8-18.3-17.8S116.6,137,126.9,137 M126.9,164.9c5.4,0,9.6-4.4,9.6-10.1s-4.2-10.1-9.6-10.1s-9.6,4.4-9.6,10.1
		S121.5,164.9,126.9,164.9 M162,160.8h-3.4v11.4h-8.4v-34.6h15.4c7.9,0,12.9,4.9,12.9,11.6c0,4.8-2.7,8.7-7.1,10.6l8.1,12.4h-10
		L162,160.8L162,160.8z M165.5,153.1c2.5,0,4.2-1.7,4.2-4c0-2.3-1.6-4.1-4.2-4.1h-6.9v8.2H165.5z M180.4,137.5h28.7v7.4H199v27.2
		h-8.4v-27.2h-10.1L180.4,137.5L180.4,137.5z"/>
	<path class="st2" d="M227.9,148.9c3,0,5.6,1.1,7.7,3.2c2.1,2.1,3.2,4.9,3.2,8.3s-1.3,6.5-3.8,8.8c-2.5,2.3-5.7,3.5-9.5,3.5
		c-3.8,0-6.7-0.9-9-2.7c-2.3-1.8-3.6-4.4-4-7.8l8.8-1c0.1,1.2,0.6,2.2,1.3,2.8c0.8,0.7,1.7,1,2.9,1c1.3,0,2.3-0.4,3.2-1.3
		c0.9-0.9,1.3-2,1.3-3.3s-0.4-2.4-1.2-3.3c-0.8-0.9-1.8-1.3-3-1.3c-2.1,0-3.5,0.9-4.3,2.6l-7.9-0.9l2.5-19.9h20.1v7.4h-13.4
		l-0.7,5.3C223.7,149.3,225.7,148.8,227.9,148.9L227.9,148.9z"/>
</g>
</svg>
