<?xml version="1.0" encoding="UTF-8"?>
<svg id="Vrstva_1" data-name="Vrstva 1" xmlns="http://www.w3.org/2000/svg" xmlns:xlink="http://www.w3.org/1999/xlink" version="1.1" viewBox="0 0 1024 1024">
  <defs>
    <style>
      .cls-1 {
        fill: #6133f2;
      }

      .cls-1, .cls-2, .cls-3 {
        stroke-width: 0px;
      }

      .cls-2 {
        fill: url(#Nepojmenovaný_přechod_88);
      }

      .cls-3 {
        fill: #fff;
      }
    </style>
    <linearGradient id="Nepojmenovaný_přechod_88" data-name="Nepojmenovaný přechod 88" x1="3705.2" y1="5108.2" x2="3706.1" y2="5108.2" gradientTransform="translate(5705561.8 4139154.7) rotate(-90) scale(1116.9 -1116.9)" gradientUnits="userSpaceOnUse">
      <stop offset="0" stop-color="#00f4c5"/>
      <stop offset="0" stop-color="#00f4c5"/>
      <stop offset="1" stop-color="#00de62"/>
    </linearGradient>
  </defs>
  <rect class="cls-2" width="1024" height="1024"/>
  <g id="logo">
    <path class="cls-3" d="M147.1,327.6h27.9v14.7c8.1-10.9,21.2-17.2,34.8-16.9,26.6,0,44.9,19.3,44.9,45.7v67h-27.9v-62.1c.5-13.6-10.2-24.9-23.8-25.4h-2c-13.6-.6-25.1,10-25.7,23.6v63.7h-28.1v-110.5h0Z"/>
    <path class="cls-3" d="M329.5,325.5c33.5,0,59.1,24.9,59.1,57.3s-25.7,57.4-59.1,57.4-58.8-24.9-58.8-57.4,25.2-57.3,58.8-57.3M329.5,414.7c17.1,0,30.2-13.7,30.2-32s-13.1-31.5-30.2-31.5-29.9,13.5-29.9,31.6,12.9,32,30,32"/>
    <polygon class="cls-3" points="387.5 327.6 417.6 327.6 448 408.9 478.7 327.6 506.8 327.6 462.8 438.2 431.5 438.2 387.5 327.6"/>
    <path class="cls-3" d="M595.6,424.3c-9.1,10.2-22.2,16-35.8,15.9-30.2,0-53.5-24.9-53.5-57.4s23.1-57.3,53.5-57.3c13.7-.2,26.9,5.7,35.8,16v-14h27.9v110.4h-27.9v-13.6ZM565.4,414.7c17.1,0,30.2-13.7,30.2-32,.6-16.9-12.6-30.9-29.4-31.5h-.9c-17.2,0-30,13.7-30,31.7s12.9,32,30,32"/>
    <path class="cls-1" d="M471.8,531.4v-44.9h-135.6v208.5h47.6v-85.7h63v-42h-63v-35.9h88Z"/>
    <path class="cls-1" d="M623.3,486.4v120.4c0,16-3.3,27.7-9.5,35.1-6.3,7.4-15.5,11-27.7,11s-21.4-3.7-27.7-11c-6.3-7.3-9.5-19.1-9.5-35.1v-120.4h-49.3v120.7c-.2,13.3,1.9,26.5,6.3,39.1,3.7,10.6,9.5,20.4,17.3,28.6,7.6,7.9,16.9,14.1,27.1,17.9,23.1,7.9,48.4,7.9,71.5,0,10.2-3.8,19.5-10,27.1-17.9,7.7-8.3,13.6-17.9,17.3-28.6,4.4-12.6,6.5-25.7,6.3-39.1v-120.7h-49.2Z"/>
    <polygon class="cls-1" points="876.9 486.4 876.3 672 876.2 695.6 829.5 695.6 826.9 691.8 824.4 687.7 752 569.7 752 695.1 703.4 695.1 703.4 486.8 748.8 486.8 752 492 826.9 614.3 826.9 486.4 876.9 486.4"/>
  </g>
</svg>