<?xml version="1.0" encoding="utf-8"?>
<!-- Generator: Adobe Illustrator 28.0.0, SVG Export Plug-In . SVG Version: 6.00 Build 0)  -->
<svg version="1.1" id="Vrstva_1" xmlns="http://www.w3.org/2000/svg" xmlns:xlink="http://www.w3.org/1999/xlink" x="0px" y="0px"
	 viewBox="0 0 283.5 283.5" style="enable-background:new 0 0 283.5 283.5;" xml:space="preserve">
<style type="text/css">
	.st0{fill:#181A19;}
	.st1{fill:#CD287D;}
	.st2{fill:#FFFFFF;}
</style>
<rect y="0" class="st0" width="283.5" height="283.5"/>
<g>
	<path class="st1" d="M233.2,137.5l-6.2,11.1c3.4-0.1,6.2,1,8.5,3.2c2.3,2.2,3.4,5,3.4,8.5s-1.3,6.4-3.8,8.8
		c-2.5,2.4-5.7,3.6-9.5,3.6c-3.8,0-7-1.2-9.5-3.5c-2.5-2.3-3.8-5.3-3.8-8.8c0-2.1,0.9-4.7,2.6-7.8l8.4-15L233.2,137.5L233.2,137.5z
		 M222.5,163.6c0.8,0.9,1.9,1.3,3.2,1.3c1.3,0,2.3-0.4,3.2-1.3s1.3-2,1.3-3.3c0-1.3-0.4-2.4-1.3-3.3c-0.8-0.9-1.9-1.3-3.2-1.3
		c-1.3,0-2.3,0.4-3.2,1.3c-0.8,0.9-1.3,2-1.3,3.3S221.6,162.7,222.5,163.6z"/>
	<path class="st2" d="M45.7,111.2h4.6v2.4c1.3-1.7,3.3-2.8,5.8-2.8c4.4,0,7.5,3.2,7.5,7.6v11.1H59v-10.3c0-2.5-1.8-4.2-4.3-4.2
		s-4.3,1.7-4.3,4.2v10.3h-4.6L45.7,111.2L45.7,111.2z M76.1,110.8c5.6,0,9.8,4.1,9.8,9.5s-4.3,9.6-9.8,9.6s-9.8-4.1-9.8-9.6
		S70.5,110.8,76.1,110.8 M76.1,125.7c2.9,0,5-2.3,5-5.3s-2.2-5.3-5-5.3s-5,2.3-5,5.3S73.2,125.7,76.1,125.7 M95.8,124.7l5.1-13.5
		h4.7l-7.3,18.4H93l-7.3-18.4h5L95.8,124.7L95.8,124.7z M120.4,127.3c-1.5,1.6-3.5,2.6-6,2.6c-5,0-8.9-4.1-8.9-9.6s3.9-9.5,8.9-9.5
		c2.5,0,4.5,1,6,2.7v-2.3h4.6v18.4h-4.6V127.3L120.4,127.3z M115.3,125.7c2.9,0,5-2.3,5-5.3s-2.2-5.3-5-5.3c-2.9,0-5,2.3-5,5.3
		S112.5,125.7,115.3,125.7 M53,161.2c0.5,2.5,2.1,3.8,5.1,3.8c2.6,0,4.2-1,4.2-2.7c0-5.9-17.1-1.9-17.1-14.5
		c0-6.1,5.6-10.6,12.7-10.6s12.1,3.9,12.9,9.7l-8.5,1.7c-0.5-2.6-2-3.8-4.7-3.8c-2.3,0-3.7,1-3.7,2.7c0,5.4,17.1,1.5,17.1,14.5
		c0,6.1-5.7,10.7-13.2,10.7s-12.7-4-13.4-9.8L53,161.2L53,161.2z M76.6,137.5h15.3c8.2,0,13.4,5.1,13.4,12.1s-5.2,11.9-13.4,11.9H85
		v10.6h-8.4C76.6,172.1,76.6,137.5,76.6,137.5z M91.9,154.1c2.9,0,4.7-1.9,4.7-4.5c0-2.6-1.8-4.6-4.7-4.6H85v9.1H91.9z M126.8,137
		c10.3,0,18.3,7.7,18.3,17.8c0,10-8,17.8-18.3,17.8s-18.3-7.8-18.3-17.8C108.5,144.8,116.5,137,126.8,137 M126.8,164.9
		c5.4,0,9.6-4.4,9.6-10.1c0-5.7-4.2-10.1-9.6-10.1c-5.4,0-9.6,4.4-9.6,10.1C117.2,160.5,121.4,164.9,126.8,164.9 M161.9,160.8h-3.4
		v11.4h-8.4v-34.6h15.4c7.9,0,12.9,4.9,12.9,11.6c0,4.8-2.7,8.7-7.1,10.6l8.1,12.4h-10L161.9,160.8L161.9,160.8z M165.4,153.1
		c2.5,0,4.2-1.7,4.2-4c0-2.3-1.6-4.1-4.2-4.1h-6.9v8.2H165.4z M180.3,137.5H209v7.4h-10.1v27.2h-8.4v-27.2h-10.1L180.3,137.5
		L180.3,137.5z"/>
</g>
</svg>
