<?xml version="1.0" encoding="UTF-8"?>
<svg id="Vrstva_1" data-name="Vrstva 1" xmlns="http://www.w3.org/2000/svg" xmlns:xlink="http://www.w3.org/1999/xlink" version="1.1" viewBox="0 0 1024 1024">
  <defs>
    <style>
      .cls-1 {
        fill: #091208;
      }

      .cls-1, .cls-2, .cls-3 {
        stroke-width: 0px;
      }

      .cls-2 {
        fill: url(#Nepojmenovaný_přechod_87);
      }

      .cls-3 {
        fill: #fff;
      }
    </style>
    <linearGradient id="Nepojmenovaný_přechod_87" data-name="Nepojmenovaný přechod 87" x1="2569.3" y1="5106.3" x2="2570.2" y2="5106.3" gradientTransform="translate(-5702472.2 -2869536.6) rotate(90) scale(1116.9 -1116.9)" gradientUnits="userSpaceOnUse">
      <stop offset="0" stop-color="#ffda48"/>
      <stop offset="0" stop-color="#ffda48"/>
      <stop offset="1" stop-color="#faac3e"/>
      <stop offset="1" stop-color="#faac3e"/>
    </linearGradient>
  </defs>
  <rect id="_Cesta_" data-name="&amp;lt;Cesta&amp;gt;" class="cls-2" x="0" y="0" width="1024" height="1024"/>
  <g id="logo">
    <path class="cls-3" d="M156,394.2h17.9v9.4c5.2-7,13.6-10.9,22.3-10.7,15.5-.5,28.3,11.6,28.8,27v45.4h-17.9v-39.9c-.6-9.2-8.5-16-17.7-15.5-8.3.6-14.9,7.2-15.5,15.5v39.9h-17.9v-70.9h-.1Z"/>
    <path class="cls-3" d="M273,450.1c11.3.7,21-7.9,21.6-19.2.6-11.3-7.9-21-19.2-21.6-11.3-.6-21,7.9-21.6,19.2v1.2c-.6,10.8,7.8,20,18.6,20.5h.7M273,392.8c20.4.6,36.3,17.6,35.7,37.8-.6,20.4-17.6,36.3-37.8,35.7-19.9-.6-35.7-16.9-35.7-36.7s16.4-36.7,36.7-36.7h1"/>
    <polygon class="cls-3" points="310.1 394.2 329.4 394.2 349 446.4 368.6 394.2 386.8 394.2 358.5 465.1 338.4 465.1 310.1 394.2"/>
    <path class="cls-3" d="M424.3,450.1c11.3.7,21-7.9,21.6-19.2s-7.9-21-19.2-21.6c-11.3-.6-21,7.9-21.6,19.2v1.2c-.6,10.8,7.8,20,18.6,20.5h.7M443.6,456.3c-5.8,6.6-14.2,10.4-23,10.2-19.4,0-34.2-15.9-34.2-36.7s14.8-36.7,34.2-36.7c8.8-.1,17.2,3.6,23,10.4v-9h17.8v70.9h-17.9v-9.1Z"/>
    <path class="cls-1" d="M200.3,574.3h32l-16-42.4-16,42.4h.1ZM199.4,495.8h36.3l52.4,133.4h-34.7l-10.1-26.3h-53.6l-9.9,26.3h-32.8l52.3-133.4h0Z"/>
    <path class="cls-1" d="M356.6,494c26.7-.5,51.3,14.7,62.9,38.7l-30.1,11.4c-6-12.6-18.8-20.5-32.8-20.5-20.9,0-36.7,17-36.7,38.8s16,38.8,36.7,38.8,26.6-7.9,32.8-20.5l30.1,11.4c-11.6,24.1-36.2,39.2-62.9,38.7-39.9,0-70.5-29.9-70.5-68.6s30.7-68.6,70.5-68.6"/>
    <polygon class="cls-1" points="461.6 524.4 422.6 524.4 422.6 495.8 533 495.8 533 524.4 494 524.4 494 629.2 461.6 629.2 461.6 524.4"/>
    <rect class="cls-1" x="548.3" y="495.8" width="32.3" height="133.4"/>
    <path class="cls-1" d="M668.3,601.4c20.9,0,37-17,37-38.8s-16-38.8-37-38.8-36.7,17-36.7,38.8,16,38.8,36.7,38.8M668.3,494c39.8,0,70.5,29.9,70.5,68.6s-30.7,68.6-70.5,68.6-70.5-29.9-70.5-68.6,30.7-68.6,70.5-68.6"/>
    <polygon class="cls-1" points="755.1 495.8 786.5 495.8 844.6 574.8 844.6 495.8 876.9 495.8 876.9 629.2 845.5 629.2 787.4 550.4 787.4 629.2 755.1 629.2 755.1 495.8"/>
  </g>
</svg>