<?xml version="1.0" encoding="UTF-8"?>
<svg id="Vrstva_1" data-name="Vrstva 1" xmlns="http://www.w3.org/2000/svg" xmlns:xlink="http://www.w3.org/1999/xlink" version="1.1" viewBox="0 0 1024 1024">
  <defs>
    <style>
      .cls-1 {
        fill: url(#Nepojmenovaný_přechod_89);
      }

      .cls-1, .cls-2, .cls-3 {
        stroke-width: 0px;
      }

      .cls-2 {
        fill: #997324;
      }

      .cls-3 {
        fill: #fff;
      }
    </style>
    <linearGradient id="Nepojmenovaný_přechod_89" data-name="Nepojmenovaný přechod 89" x1="4841.1" y1="5108.3" x2="4842" y2="5108.3" gradientTransform="translate(5705736.8 5407761.5) rotate(-90) scale(1116.9 -1116.9)" gradientUnits="userSpaceOnUse">
      <stop offset="0" stop-color="#83062d"/>
      <stop offset="0" stop-color="#83062d"/>
      <stop offset="1" stop-color="#6f041e"/>
    </linearGradient>
  </defs>
  <rect class="cls-1" x="0" y="0" width="1024" height="1024"/>
  <g id="logo">
    <path class="cls-3" d="M162.7,353.8h24v12.6c7.1-9.3,18.3-14.8,29.9-14.4,22.9,0,38.5,16.6,38.5,39.4v57.6h-24v-53.4c0-12.3-10-22.2-22.2-22.2s-22.2,10-22.2,22.2h0v53.4h-24v-95h0Z"/>
    <path class="cls-3" d="M319.6,428.7c15.1-.8,26.8-13.7,26.1-28.8-.7-14.1-12-25.2-26.1-26.1-14.7,0-25.7,11.9-25.7,27.3s11,27.6,25.7,27.6M319.6,352c28.8,0,50.8,21.4,50.8,49.3s-22.1,49.5-50.8,49.5-50.8-21.4-50.8-49.5,22.1-49.3,50.8-49.3"/>
    <path class="cls-3" d="M369.4,353.8h25.7l26.2,69.9,26.4-69.9h24.7l-37.9,95h-27l-38.2-95h.1Z"/>
    <path class="cls-3" d="M522.6,428.7c15.1.9,28.1-10.6,29.2-25.7s-10.6-28.1-25.7-29.2c-15.1-.9-28.1,10.6-29.2,25.7v1.6c0,15.7,11,27.6,25.7,27.6M548.6,437.1c-7.8,8.8-19.1,13.8-30.8,13.6-26.1,0-45.9-21.4-45.9-49.5s19.9-49.3,45.9-49.3c11.9-.2,23.1,4.9,30.8,13.8v-12h24v95.1h-24v-11.7Z"/>
    <path class="cls-2" d="M241.7,487.9c35.8-.6,68.7,19.7,84.3,51.9l-40.5,15.4c-8.3-16.9-25.4-27.4-44.1-27.3-28.1,0-49.7,22.8-49.7,52.2s21.5,52.1,49.7,52.1,38.6-13.3,43.5-26.6h-58.3v-38.3h107.4c7,64.7-40.8,104.8-92.2,104.8s-94.7-40.1-94.7-92,41.2-92,94.7-92"/>
    <path class="cls-2" d="M448.5,632.2c28.1,0,49.7-22.8,49.7-52.1s-21.4-52.3-49.7-52.3-49.7,22.9-49.7,52.3,21.4,52.1,49.5,52.1M448.5,487.9c53.5,0,94.7,40.1,94.7,92s-41.2,92-94.7,92-94.6-40.1-94.6-92,41.2-92,94.6-92"/>
    <path class="cls-2" d="M569,490.1h43.5v140.5h79.2v38.3h-122.7v-178.9h0Z"/>
    <path class="cls-2" d="M781.1,630.6c30.5,0,50.6-21.5,50.6-51.2s-20.2-51.2-50.6-51.2h-27.1v102.4h27.1ZM710.5,490.3h74.4c53.3,0,92,38.8,92,89.4s-38.6,89.6-92,89.6h-74.4v-179h0Z"/>
  </g>
</svg>