<?xml version="1.0" encoding="UTF-8"?>
<svg id="Vrstva_1" data-name="Vrstva 1" xmlns="http://www.w3.org/2000/svg" xmlns:xlink="http://www.w3.org/1999/xlink" version="1.1" viewBox="0 0 1024 1024">
  <defs>
    <style>
      .cls-1 {
        fill: url(#Nepojmenovaný_přechod_90);
      }

      .cls-1, .cls-2, .cls-3 {
        stroke-width: 0px;
      }

      .cls-2 {
        fill: #f25747;
      }

      .cls-3 {
        fill: #fff;
      }
    </style>
    <linearGradient id="Nepojmenovaný_přechod_90" data-name="Nepojmenovaný přechod 90" x1="5976.8" y1="5108.2" x2="5977.8" y2="5108.2" gradientTransform="translate(5705561.8 6676263.6) rotate(-90) scale(1116.9 -1116.9)" gradientUnits="userSpaceOnUse">
      <stop offset="0" stop-color="#ffc8cd"/>
      <stop offset="0" stop-color="#ffc8cd"/>
      <stop offset="1" stop-color="#ff6964"/>
    </linearGradient>
  </defs>
  <rect class="cls-1" width="1024" height="1024"/>
  <g id="_Skupina_" data-name=" Skupina ">
    <path id="n" class="cls-3" d="M147.1,353.6h24.3v12.7c7.1-9.5,18.4-15,30.2-14.8,23.1.1,39.2,17,39.2,40.1v58.3h-24.3v-54.2c.3-11.7-8.8-21.6-20.6-22.1h-1.7c-11.9-.6-22,8.6-22.6,20.5v55.6h-24.3l-.2-96.2h0Z"/>
    <path id="o" class="cls-3" d="M305.8,429.4c14.9,0,26.3-12,26.3-27.8.8-14.5-10.4-26.9-24.9-27.7-14.5-.8-26.9,10.4-27.7,24.9v2.8c0,15.9,11.2,27.8,26.2,27.8M305.8,351.6c29.1,0,51.5,21.6,51.5,49.9s-22.1,50.1-51.5,50.1-51.5-21.6-51.5-50.1,22.1-49.9,51.5-49.9"/>
    <polygon id="v" class="cls-3" points="356.3 353.6 382.4 353.6 409 424.3 435.7 353.6 460.1 353.6 421.9 449.7 394.5 449.7 356.3 353.6"/>
    <path id="a" class="cls-3" d="M511.1,429.4c15.4.9,28.5-10.8,29.3-26.2.8-15.4-10.8-28.5-26.2-29.3-15.4-.9-28.5,10.8-29.3,26.2v1.5c0,15.9,11.2,27.8,26.2,27.8M537.5,437.8c-7.9,9-19.3,14-31.2,13.8-26.4,0-46.5-21.6-46.5-50.1s20.2-49.9,46.5-49.9c12-.1,23.4,5,31.2,14.1v-12.1h24.2v96.2h-24.2v-12Z"/>
    <path id="l" class="cls-2" d="M307.1,604l-5.5,68.3h-74.1v-2.3c15.4-1.3,30.1-6.3,43-14.8,16.6-11.7,27.6-28.5,33.8-51.5l2.6.2h.1ZM212.5,672.4h-65.5v-2.3c17.8-2.6,24.2-9.5,24.2-33.4v-109.7c0-23.8-6.3-30.7-24.2-33.4v-2.3h92.5v2.3c-19,2.6-27,8.6-27,33.4v145.3h0Z"/>
    <path id="y" class="cls-2" d="M822.2,537.6l-2-1.7c4.7-7.3,9.2-19,9.2-24.4,0-12.3-6.9-17-20.5-17.8v-2.3h68v2.3c-19.2,2.6-39.7,20.1-54.8,44M760.3,588.2l-40.2-71.8c-7.8-13.8-17.8-20.7-31.1-22.7v-2.3h94.8v2.3c-12.7.6-20.7,7.2-20.7,14.1s3.1,10.6,7.8,19l30.5,55.2v54.9c0,24.7,7.3,30.7,24.2,33.1v2.3h-89.2v-2.3c17.8-2.6,24.2-9.5,24.2-33.1v-48.6h-.2Z"/>
    <path class="cls-2" d="M357.1,647.2c.2-6.4.9-12.8,2.3-19l-2.3-1c-4.9,12.1-9,20.7-17.8,29.9-6.5,7.2-15.2,11.9-24.9,13.1v2.3h66.9v-2.3c-15.2-1.2-24.2-9-24.2-22.9"/>
    <path class="cls-2" d="M591.1,491.5v2.3c7.8.8,15.4,2.9,22.4,6.3,26.2,12.1,44.8,39.7,44.8,82.5s-13.3,66.2-35,78.4c-10,5.1-20.9,8.3-32.2,9.2v2.3c14.8,0,29.5-2.1,43.7-6.3,40.1-12.1,68.3-42.8,68.3-84.7s-48.3-87.3-112-89.9"/>
    <path class="cls-2" d="M510.1,493.8c17.8,2.6,24.1,9.5,24.1,33.4v109.7c0,23.5-6.2,30.6-23.5,33.1-1.3.2-2.6.2-3.8,0-12.8-2.3-23-11.3-32.1-33.1l-57.2-147.3h-8.6l-17.8,45.1,22.7,61.2h-45.4l-3.1,8.6h52l10,26.7c3.4,7.3,5.6,15.2,6.3,23.3,0,11-6.9,14.9-19.9,15.8v2.3h161.6v-181h-65.5v2.3h.2Z"/>
  </g>
</svg>