<?xml version="1.0" encoding="UTF-8"?>
<svg id="Vrstva_1" data-name="Vrstva 1" xmlns="http://www.w3.org/2000/svg" xmlns:xlink="http://www.w3.org/1999/xlink" version="1.1" viewBox="0 0 1024 1024">
  <defs>
    <style>
      .cls-1 {
        fill: #fffcfc;
      }

      .cls-1, .cls-2, .cls-3, .cls-4, .cls-5, .cls-6, .cls-7, .cls-8, .cls-9, .cls-10, .cls-11, .cls-12, .cls-13, .cls-14, .cls-15, .cls-16, .cls-17, .cls-18, .cls-19, .cls-20, .cls-21, .cls-22, .cls-23, .cls-24 {
        stroke-width: 0px;
      }

      .cls-1, .cls-2, .cls-3, .cls-4, .cls-9, .cls-11, .cls-12, .cls-13, .cls-14, .cls-15, .cls-16, .cls-17, .cls-18, .cls-19, .cls-20, .cls-21, .cls-22, .cls-24 {
        fill-rule: evenodd;
      }

      .cls-2 {
        fill: #f6807f;
      }

      .cls-3 {
        fill: #f57574;
      }

      .cls-4 {
        fill: #fffefe;
      }

      .cls-5 {
        fill: url(#Nepojmenovaný_přechod_2);
      }

      .cls-6 {
        fill: url(#Nepojmenovaný_přechod_4);
      }

      .cls-7 {
        fill: url(#Nepojmenovaný_přechod_3);
      }

      .cls-25 {
        clip-path: url(#clippath);
      }

      .cls-8 {
        fill: none;
      }

      .cls-9 {
        fill: #f78786;
      }

      .cls-10 {
        fill: #f03b3b;
      }

      .cls-11 {
        fill: #f47372;
      }

      .cls-12 {
        fill: #f78886;
      }

      .cls-13 {
        fill: #fffdfd;
      }

      .cls-14 {
        fill: #fefffe;
      }

      .cls-15 {
        fill: #fbc6c6;
      }

      .cls-26 {
        fill: url(#Nepojmenovaný_přechod);
        stroke: #020202;
        stroke-miterlimit: 10;
      }

      .cls-16 {
        fill: #fbc7c7;
      }

      .cls-17 {
        fill: #f79c9c;
      }

      .cls-18 {
        fill: #f46c6c;
      }

      .cls-19 {
        fill: #fbc5c5;
      }

      .cls-20 {
        fill: #f57473;
      }

      .cls-21 {
        fill: #fefdfd;
      }

      .cls-22 {
        fill: #fac0c0;
      }

      .cls-23 {
        fill: #fff;
      }

      .cls-24 {
        fill: #fbcece;
      }
    </style>
    <linearGradient id="Nepojmenovaný_přechod" data-name="Nepojmenovaný přechod" x1="512" y1="79.3" x2="512" y2="-903.9" gradientTransform="translate(0 924)" gradientUnits="userSpaceOnUse">
      <stop offset="0" stop-color="#132079"/>
      <stop offset=".4" stop-color="#1339ca"/>
      <stop offset=".5" stop-color="#102faa"/>
      <stop offset=".8" stop-color="#0b165a"/>
    </linearGradient>
    <clipPath id="clippath">
      <rect class="cls-8" x="317.8" y="348.1" width="225.3" height="225"/>
    </clipPath>
    <linearGradient id="Nepojmenovaný_přechod_2" data-name="Nepojmenovaný přechod 2" x1="434.9" y1="1497.3" x2="384.5" y2="1384.8" gradientTransform="translate(0 1948) scale(1 -1)" gradientUnits="userSpaceOnUse">
      <stop offset="0" stop-color="#f03c3c"/>
      <stop offset="1" stop-color="#f03c3c" stop-opacity="0"/>
    </linearGradient>
    <linearGradient id="Nepojmenovaný_přechod_3" data-name="Nepojmenovaný přechod 3" x1="463.6" y1="1498" x2="366.6" y2="1439.9" gradientTransform="translate(0 1948) scale(1 -1)" gradientUnits="userSpaceOnUse">
      <stop offset="0" stop-color="#f03b3b"/>
      <stop offset="1" stop-color="#f03b3b" stop-opacity="0"/>
    </linearGradient>
    <linearGradient id="Nepojmenovaný_přechod_4" data-name="Nepojmenovaný přechod 4" x1="403.4" y1="1468" x2="407.2" y2="1464.2" gradientTransform="translate(0 1948) scale(1 -1)" gradientUnits="userSpaceOnUse">
      <stop offset="0" stop-color="#f03b3b" stop-opacity="0"/>
      <stop offset="1" stop-color="#f03b3b"/>
    </linearGradient>
  </defs>
  <rect class="cls-26" width="1024" height="1024"/>
  <g>
    <g>
      <path class="cls-23" d="M147.1,381.7h39.8v20.8c11-14.7,28.5-23.8,49.5-23.8,37.9,0,64,27.6,64,65.1v95.5h-39.8v-88.4c0-21.2-15.4-36.1-36.7-36.1s-37,15-37,36.1v88.4h-39.8v-157.6h0ZM603.2,539.3h44.7l62.7-157.6h-40.1l-43.7,115.9-43.4-115.9h-42.8l62.7,157.6h0ZM794,505.9c-24.4,0-42.8-19.5-42.8-45.6s18.4-45.2,42.8-45.2,43.1,19.5,43.1,45.2-18.6,45.6-43.1,45.6ZM837.2,539.3h39.8v-157.6h-39.8v19.9c-12.6-14.4-30-22.9-51.1-22.9-43.1,0-76.2,35.5-76.2,81.6s33,82,76.2,82,38.5-8.6,51.1-22.7v19.5h0Z"/>
      <g class="cls-25">
        <g>
          <path class="cls-5" d="M430,573.3c-28.7,0-57.4-10.9-79.2-32.8-43.7-43.7-43.7-115,0-158.7,56.5-52.2,121.6-36.4,158.5.3,36.7,36.7,52.6,101.9.7,158-22.1,22.1-51.1,33.1-79.9,33.1h-.1ZM369.1,522.2c33.7,33.7,88.5,33.7,122.1,0,40.1-43.5,28.8-92.6-.3-121.9-29.3-29.2-78.3-40.6-122.1,0-33.3,33.3-33.3,88.2.3,121.9Z"/>
          <path class="cls-7" d="M407.2,563.9c-21.4,0-41.4-8.3-56.5-23.5-15-15-23.5-35.1-23.5-56.5s8.3-41.4,23.5-56.5c31.2-31.2,81.8-31.2,113,0,15,15.1,23.4,35.1,23.4,56.5s-8.3,41.4-23.5,56.5c-15,15-35.1,23.4-56.5,23.4h.1ZM407.2,430c-13.8,0-27.7,5.2-38.1,15.7-10.5,10.5-15.8,23.7-15.8,38.1s5.6,28,15.8,38.1c10.1,10.1,23.7,15.8,38.1,15.8s28-5.6,38.1-15.8c10.1-10.2,15.8-23.7,15.8-38.1s-5.6-28-15.8-38.1c-10.6-10.6-24.4-15.7-38.1-15.7h0Z"/>
          <path class="cls-6" d="M407.2,563.9c-21.4,0-41.4-8.3-56.5-23.5-15-15-23.5-35.1-23.5-56.5s8.3-41.4,23.5-56.5c31.2-31.2,81.8-31.2,113,0,15,15.1,23.4,35.1,23.4,56.5s-8.3,41.4-23.5,56.5c-15,15-35.1,23.4-56.5,23.4h.1ZM407.2,430c-13.8,0-27.7,5.2-38.1,15.7-10.5,10.5-15.8,23.7-15.8,38.1s5.6,28,15.8,38.1c10.1,10.1,23.7,15.8,38.1,15.8s28-5.6,38.1-15.8c10.1-10.2,15.8-23.7,15.8-38.1s-5.6-28-15.8-38.1c-10.6-10.6-24.4-15.7-38.1-15.7h0Z"/>
          <path class="cls-10" d="M350.7,540.5c-21.3-21.3-32.9-49.4-32.9-79.4s11.7-58.3,32.9-79.4l18.3,18.3c-16.3,16.3-25.4,38-25.4,61.1s9,44.8,25.4,61.1l-18.3,18.3h0v.2h0Z"/>
        </g>
      </g>
    </g>
    <g>
      <path class="cls-14" d="M147.1,617.6h11.2v57.6h-11.2v-57.6Z"/>
      <path class="cls-16" d="M147.1,617.6c3.7-.2,7.6-.3,11.4-.2,0,19.3,0,38.6-.2,57.8v-57.6h-11.2Z"/>
      <path class="cls-4" d="M213.9,617.6h11.4v57.6c-3.7,0-7.4,0-11.2-.1-9.7-12.7-19.2-25.5-28.6-38.3-.1,12.8-.1,25.6-.1,38.4h-11.4v-57.8c3.7,0,7.4,0,11.2.1,9.4,12.8,19,25.6,28.6,38.3.1-12.7.1-25.4.1-38.1Z"/>
      <path class="cls-11" d="M213.9,617.6c3.8-.2,7.7-.3,11.6-.2,0,19.3,0,38.6-.2,57.8v-57.6h-11.4Z"/>
      <path class="cls-9" d="M287.6,617.6h-46.9v9.9c5.9,0,11.7,0,17.7.2h-17.9v-10.4c15.8,0,31.5,0,47.2.2h-.1Z"/>
      <path class="cls-1" d="M287.6,617.6v10.1h-17.7v47.4h-11.6v-47.4c-5.8-.2-11.7-.3-17.7-.2v-9.9h47Z"/>
      <path class="cls-22" d="M339.1,617.6h-37.8v57.6c-.2-19.2-.3-38.5-.2-57.8,12.8,0,25.5,0,38.1.2h-.1Z"/>
      <path class="cls-4" d="M339.1,617.6c.3,3.3.3,6.5,0,9.9h-26.7c0,4.7,0,9.2.2,13.7h25.7v10.1h-25.9c0,4.7,0,9.2.2,13.7h26.7v10.1h-38.1v-57.6h37.9Z"/>
      <path class="cls-4" d="M454.2,655.6c0,.1,0,.2.2.2.2-12.8.3-25.6.2-38.4h11.2v57.6c-3.7,0-7.4,0-11.2-.1-9.4-12.6-18.8-25.1-28.3-37.7,0-.2-.2-.3-.3-.5-.1,12.8-.1,25.6-.1,38.4h-11.4v-57.8c3.7,0,7.4,0,11.2.1,9.5,12.7,19.1,25.5,28.5,38.3h0Z"/>
      <path class="cls-19" d="M465.8,617.6h-11.2c0,12.8,0,25.6-.2,38.4-.1,0-.2-.1-.2-.2.2-12.8.3-25.6.2-38.4,3.8,0,7.7,0,11.4.2h0Z"/>
      <path class="cls-12" d="M568.3,627.7c5.8-.2,11.7-.3,17.7-.2v-9.9h-46.9v9.9c5.9,0,11.7,0,17.7.2h-17.9v-10.4h47.4v10.4h-18Z"/>
      <path class="cls-1" d="M568.3,627.7v47.4h-11.6v-47.4c-5.8-.2-11.7-.3-17.7-.2v-9.9h46.9v9.9c-5.9,0-11.7,0-17.7.2h.1Z"/>
      <path class="cls-21" d="M599.3,617.6h11.4v57.6h-11.4v-57.6Z"/>
      <path class="cls-17" d="M599.3,617.6c3.8-.2,7.7-.3,11.6-.2,0,19.3,0,38.6-.2,57.8v-57.6h-11.4Z"/>
      <path class="cls-11" d="M710.5,617.6h-11.2v57.6c-.2-19.2-.3-38.5-.2-57.8,3.8,0,7.7,0,11.4.2Z"/>
      <path class="cls-4" d="M710.5,617.6c9.4,12.7,19,25.4,28.5,37.8.2-12.4.3-25,.2-37.8h11.4v57.6c-3.7,0-7.4,0-11.2-.1-9.5-12.7-19.1-25.2-28.5-38,0-.1,0-.2-.2-.2-.2,12.8-.3,25.6-.2,38.4h-11.2v-57.6h11.2Z"/>
      <path class="cls-3" d="M750.7,617.6h-11.4c0,12.8,0,25.5-.2,37.8v-38.1c4,0,7.8,0,11.6.2h0Z"/>
      <path class="cls-13" d="M838.8,617.6h11.2c0,15.8,0,31.6.2,47.4h26.7v10.1h-38.4c0-19.2,0-38.4.2-57.6Z"/>
      <path class="cls-15" d="M838.8,617.6c3.7-.2,7.6-.3,11.4-.2v47.7c-.2-15.8-.3-31.6-.2-47.4h-11.2Z"/>
      <path class="cls-13" d="M681.7,631.5c-6.6-10.5-16.3-15.5-28.8-15-8.6.8-15.7,4.4-21.4,10.9-7.8,10.7-8.7,22.1-2.6,34,6,9.5,14.7,14.3,26,14.5,13.3-.1,22.8-6.2,28.4-18.1,3.4-9,2.8-17.7-1.5-26.2h-.1ZM667.3,661c-8.3,6-16.5,6-24.7-.2-5.7-6-7.3-13.1-5-21.2,2.6-6.6,7.3-10.7,14.1-12.4,11.4-.8,18.6,4.3,21.6,15.2,1,7.2-.9,13.4-6,18.5h0Z"/>
      <path class="cls-2" d="M339.1,627.5c-8.7.2-17.6.3-26.4.2v13.5c-.2-4.5-.3-9.1-.2-13.7h26.7-.1Z"/>
      <path class="cls-13" d="M386.9,653.2c7.3-2.4,11.6-7.4,12.8-15.1.2-12.6-5.9-19.4-18.5-20.6-8.6-.1-17.1-.1-25.7-.1v57.8h11.4v-21c2.3,0,4.7,0,7,.1,4.7,6.9,9.3,13.8,14,20.7,4.5.2,9,.1,13.5-.1-4.8-7.2-9.7-14.4-14.5-21.6h.1ZM381.2,643.6c-4.8.1-9.5.1-14.3.1v-16c4.9,0,9.9,0,14.8.1,4,.9,6.2,3.5,6.5,7.6-.2,4.5-2.6,7.3-7,8.3h0Z"/>
      <path class="cls-13" d="M515.3,617.6c-4.3-.2-8.5-.3-12.8-.2-7.7,19.2-15.5,38.4-23.4,57.6,3.8.3,7.8.3,11.6,0,1.7-4.1,3.3-8.3,4.7-12.4,8.6,0,17.3,0,25.9.2,1.7,4.1,3.4,8.1,4.9,12.2,4.2.3,8.3.3,12.4.1-7.8-19.2-15.6-38.3-23.5-57.4h.1ZM499.8,652c2.8-7.2,5.7-14.4,8.7-21.5,2.9,7.1,5.7,14.2,8.4,21.3-5.7.2-11.4.3-17.1.2Z"/>
      <path class="cls-13" d="M801.5,617.5c-4.2-.1-8.5-.1-12.7-.1-7.7,19.2-15.4,38.4-23.4,57.6,3.8.3,7.8.3,11.6,0,1.6-4.1,3.3-8.3,4.9-12.3,8.6-.1,17.1-.1,25.7,0,1.7,4.2,3.4,8.4,4.9,12.6,4.2,0,8.3,0,12.4-.1-7.8-19.2-15.7-38.4-23.6-57.6h.1ZM786.2,652c2.9-7.2,5.8-14.3,8.7-21.5,2.9,7.1,5.7,14.2,8.4,21.3-5.7.2-11.4.3-17.1.2Z"/>
      <path class="cls-24" d="M711.1,637c-.1,12.7-.3,25.4-.5,38.1,0-12.8,0-25.6.2-38.4.1,0,.2.1.2.2Z"/>
      <path class="cls-18" d="M426.5,637.2c-.1,12.6-.3,25.2-.5,37.8,0-12.8,0-25.6.1-38.4.2.1.3.3.3.5h0Z"/>
      <path class="cls-20" d="M338.4,641.2c.2,3.4.3,6.9.2,10.4h-25.9v13.5c-.2-4.5-.3-9.1-.2-13.7h25.9v-10.1Z"/>
      <path class="cls-18" d="M516.9,651.8c.1,0,.2,0,.2.2-5.8.3-11.6.3-17.3,0,5.7,0,11.4,0,17.1-.2Z"/>
      <path class="cls-18" d="M803.3,651.8c.1,0,.2,0,.2.2-5.8.3-11.6.3-17.3,0,5.7,0,11.4,0,17.1-.2Z"/>
    </g>
  </g>
</svg>