<?xml version="1.0" encoding="utf-8"?>
<!-- Generator: Adobe Illustrator 28.0.0, SVG Export Plug-In . SVG Version: 6.00 Build 0)  -->
<svg version="1.1" id="Vrstva_1" xmlns="http://www.w3.org/2000/svg" xmlns:xlink="http://www.w3.org/1999/xlink" x="0px" y="0px"
	 viewBox="0 0 283.5 283.5" style="enable-background:new 0 0 283.5 283.5;" xml:space="preserve">
<style type="text/css">
	.st0{fill:#181A19;}
	.st1{fill:#FFFFFF;}
	.st2{fill:#4A73B5;}
</style>
<g id="Layer_2">
	<g id="Nova">
		<g id="novasport1">
			<rect y="0" class="st0" width="283.5" height="283.5"/>
			<g id="logo">
				<path class="st1" d="M43.8,109.6h4.9v2.6c1.4-1.9,3.7-3,6.1-2.9c4.2-0.1,7.7,3.2,7.9,7.4c0,0.2,0,0.4,0,0.6v11.7h-4.9v-10.8
					c-0.3-2.5-2.5-4.3-5-4c-2.1,0.2-3.7,1.9-4,4v10.9h-4.9V109.6z"/>
				<path class="st1" d="M75.7,124.8c3.1,0.2,5.7-2.2,5.9-5.3s-2.2-5.7-5.3-5.9c-3.1-0.2-5.7,2.2-5.9,5.3c0,0.1,0,0.2,0,0.3
					c-0.1,2.9,2.1,5.4,5.1,5.6C75.6,124.8,75.6,124.8,75.7,124.8 M75.7,109.2c5.5,0.2,9.9,4.8,9.8,10.3c-0.2,5.5-4.8,9.9-10.3,9.8
					c-5.5-0.2-9.8-4.6-9.8-10.1c0-5.5,4.5-10,10-10C75.5,109.2,75.6,109.2,75.7,109.2"/>
				<path class="st1" d="M85.7,109.6H91l5.3,14.2l5.4-14.2h4.9l-7.7,19.3h-5.5L85.7,109.6z"/>
				<path class="st1" d="M117,124.8c3.1,0.2,5.7-2.2,5.9-5.2c0.2-3.1-2.2-5.7-5.2-5.9c-3.1-0.2-5.7,2.2-5.9,5.2c0,0.1,0,0.2,0,0.3
					c-0.1,2.9,2.1,5.4,5.1,5.6C116.9,124.8,116.9,124.8,117,124.8 M122.3,126.5c-1.6,1.8-3.9,2.8-6.3,2.8c-5.3,0-9.4-4.4-9.4-10.1
					s4.1-10,9.4-10c2.4,0,4.7,1,6.3,2.8v-2.4h4.9V129h-4.9V126.5z"/>
				<path class="st2" d="M235.1,165.9v-29.1l-15.9,5.1v7.8l7-1.5v17.8h-7v7.8h21.7v-7.8L235.1,165.9z"/>
				<path class="st1" d="M51.5,162.2c0.6,2.6,2.2,4,5.4,4c2.7,0,4.4-1,4.4-2.9c0-6.2-18-2-18-15.3c0-6.4,5.9-11.2,13.3-11.2
					c7.6,0,12.7,4.1,13.6,10.2l-9,1.8c-0.6-2.7-2.1-4-5-4c-2.4,0-3.9,1-3.9,2.8c0,5.7,18,1.6,18,15.3c0,6.4-6,11.2-13.8,11.2
					s-13.3-4.3-14.1-10.3L51.5,162.2z"/>
				<path class="st1" d="M92.2,154.7c2.7,0.1,4.9-1.9,5-4.6s-1.9-4.9-4.6-5c-0.1,0-0.3,0-0.4,0H85v9.6H92.2z M76.2,137.3h16.1
					c8.6,0,14.1,5.4,14.1,12.8s-5.5,12.5-14.1,12.5H85v11.2h-8.8V137.3z"/>
				<path class="st1" d="M129,166.1c5.7,0,10.1-4.6,10.1-10.6s-4.4-10.6-10.1-10.6s-10.1,4.6-10.1,10.6S123.3,166.1,129,166.1
					 M129,136.8c10.9,0,19.3,8.2,19.3,18.7s-8.4,18.8-19.3,18.8s-19.2-8.2-19.2-18.8S118.1,136.8,129,136.8"/>
				<path class="st1" d="M169.6,153.7c2.4,0.1,4.4-1.7,4.5-4.1c0.1-2.4-1.7-4.4-4.1-4.5c-0.1,0-0.3,0-0.4,0h-7.3v8.6H169.6z
					 M165.9,161.8h-3.6v12h-8.8v-36.5h16.1c8.3,0,13.5,5.2,13.5,12.2c0.1,4.9-2.9,9.4-7.4,11.1l8.5,13.1h-10.5L165.9,161.8z"/>
				<path class="st1" d="M196,145.1h-10.7v-7.8h30.2v7.8h-10.7v28.6H196V145.1z"/>
			</g>
		</g>
	</g>
</g>
</svg>
