<?xml version="1.0" encoding="UTF-8"?>
<svg xmlns="http://www.w3.org/2000/svg" xmlns:xlink="http://www.w3.org/1999/xlink" version="1.1" viewBox="0 0 1024 1024">
  <defs>
    <style>
      .cls-1 {
        fill: url(#Nepojmenovaný_přechod_42);
      }

      .cls-2 {
        fill: #1af8fd;
      }

      .cls-3 {
        fill: #fff;
      }
    </style>
    <linearGradient id="Nepojmenovaný_přechod_42" data-name="Nepojmenovaný přechod 42" x1="1921.8" y1="-4571.4" x2="1920.9" y2="-4571.4" gradientTransform="translate(5106274.2 2146461.4) rotate(-90) scale(1116.9)" gradientUnits="userSpaceOnUse">
      <stop offset="0" stop-color="#cd50ff"/>
      <stop offset="0" stop-color="#b842ff"/>
      <stop offset="1" stop-color="#3a9cff"/>
      <stop offset="1" stop-color="#3c9bff"/>
    </linearGradient>
  </defs>
  <!-- Generator: Adobe Illustrator 28.7.1, SVG Export Plug-In . SVG Version: 1.2.0 Build 142)  -->
  <g>
    <g id="Vrstva_1">
      <rect class="cls-1" width="1024" height="1024"/>
      <g>
        <path class="cls-2" d="M164.2,631.9c-1.8-4-3.2-8.3-4.1-13.1-.9-4.8-1.6-11.5-1.9-20.2-.4-8.7-.5-20.9-.5-36.8s.2-28.2.5-36.8c.4-8.7,1-15.4,1.9-20.2.9-4.8,2.3-9.2,4.1-13.1,8.8-19,25.2-28.4,49.1-28.4s27.3,4.2,36.8,12.5c5.9,5.2,9.9,11.8,12.2,19.6s3.5,18.7,3.7,32.6h-32.9c0-7-.2-12.6-.7-16.7-.5-4.1-1.1-7.1-1.9-9.2-.8-2.1-2.1-3.8-3.7-5.3-1.8-1.6-3.9-2.8-6.2-3.7-2.3-.8-5-1.2-8.1-1.2-9,0-15.2,3.8-18.7,11.4-.9,2.2-1.6,4.8-2.1,8-.5,3.2-.8,9-1,17.6-.2,8.6-.3,19.5-.3,32.9s0,24.3.3,32.9c.2,8.6.5,14.4,1,17.6.5,3.2,1.1,5.8,2.1,8,3.3,7.6,9.6,11.4,18.9,11.4s10.6-1.6,14.3-4.9c1.6-1.4,2.9-3.2,3.7-5.1.8-2,1.5-5.1,1.9-9.2.5-4.2.7-9.8.7-17.1h32.9c-.2,13.9-1.5,24.9-3.8,32.9-2.4,8-6.4,14.6-12.1,19.6-4.2,4.2-9.4,7.3-15.6,9.3-6.2,2.1-13.3,3.1-21.1,3.1-24.3,0-40.8-9.5-49.4-28.4h0Z"/>
        <path class="cls-2" d="M295.2,466.1h31.8v191.2h-31.8v-191.2Z"/>
        <path class="cls-2" d="M362.7,466.1h31.6l46.1,119.7v-119.7h30.7v191.2h-31l-46.7-123v123h-30.7v-191.2Z"/>
        <path class="cls-2" d="M506.8,466.1h74.7v28.4h-42.8v47.7h42v28.2h-42v58.5h42.8v28.4h-74.7v-191.2h0Z"/>
        <path class="cls-2" d="M610.2,466.1h40.3l29.1,124.3,29.6-124.3h39.8v191.2h-30.5v-128.6l-29.4,128.6h-19.2l-29.6-128.6v128.6h-30.2v-191.2h0Z"/>
        <path class="cls-2" d="M850.1,622.9h-42.8l-5.5,34.4h-32.1l34.3-191.2h49.4l34,191.2h-31.8l-5.5-34.4h0ZM845.7,595.8l-16.7-104.3h-.5l-16.7,104.3h34Z"/>
        <path class="cls-3" d="M166.9,365h17.6v9.1c4.9-6.4,12.6-10.4,21.9-10.4,16.8,0,28.3,12,28.3,28.4v41.6h-17.6v-38.5c0-9.2-6.8-15.7-16.2-15.7s-16.4,6.5-16.4,15.7v38.5h-17.6v-68.7h0Z"/>
        <path class="cls-3" d="M283.3,363.7c21.1,0,37.2,15.5,37.2,35.6s-16.1,35.7-37.2,35.7-37.2-15.5-37.2-35.7,16.1-35.6,37.2-35.6ZM283.3,419.2c10.8,0,19.1-8.5,19.1-19.9s-8.2-19.7-19.1-19.7-18.9,8.5-18.9,19.7,8.1,19.9,18.9,19.9Z"/>
        <path class="cls-3" d="M321.3,365h18.9l19.2,50.6,19.3-50.6h17.7l-27.7,68.7h-19.7l-27.7-68.7Z"/>
        <path class="cls-3" d="M453.5,425.2c-5.5,6.1-13.2,9.9-22.6,9.9-19.1,0-33.7-15.5-33.7-35.7s14.6-35.6,33.7-35.6,17,3.7,22.6,10v-8.7h17.6v68.7h-17.6v-8.5h0ZM434.5,419.2c10.8,0,19.1-8.5,19.1-19.9s-8.2-19.7-19.1-19.7-18.9,8.5-18.9,19.7,8.1,19.9,18.9,19.9Z"/>
      </g>
    </g>
  </g>
</svg>