<?xml version="1.0" encoding="utf-8"?>
<!-- Generator: Adobe Illustrator 28.0.0, SVG Export Plug-In . SVG Version: 6.00 Build 0)  -->
<svg version="1.1" id="Vrstva_1" xmlns="http://www.w3.org/2000/svg" xmlns:xlink="http://www.w3.org/1999/xlink" x="0px" y="0px"
	 viewBox="0 0 283.5 283.5" style="enable-background:new 0 0 283.5 283.5;" xml:space="preserve">
<style type="text/css">
	.st0{fill:#181A19;}
	.st1{fill:#FFFFFF;}
	.st2{fill:#79B585;}
</style>
<g id="Layer_2">
	<g id="Nova">
		<g id="novasport4">
			<rect y="0" class="st0" width="283.5" height="283.5"/>
			<g id="logo">
				<path class="st1" d="M43.7,111.2h4.6v2.4c1.4-1.8,3.5-2.8,5.8-2.8c4-0.1,7.3,3,7.5,7c0,0.2,0,0.4,0,0.6v11.1h-4.6v-10.3
					c0-2.4-1.9-4.3-4.3-4.3c-2.4,0-4.3,1.9-4.3,4.3v10.3h-4.6V111.2z M74,110.9c5.3,0.2,9.4,4.5,9.2,9.8s-4.5,9.4-9.8,9.2
					c-5.2-0.2-9.3-4.4-9.2-9.5c0-5.2,4.2-9.5,9.5-9.5C73.8,110.9,73.9,110.9,74,110.9 M74,125.7c2.9-0.2,5.1-2.7,5-5.6
					c-0.2-2.7-2.3-4.8-5-5c-2.9,0.2-5.1,2.7-5,5.6C69.2,123.4,71.3,125.5,74,125.7 M93.7,124.7l5.1-13.5h4.7l-7.3,18.4h-5.2
					l-7.3-18.3h5L93.7,124.7z M118.2,127.3c-1.5,1.7-3.7,2.7-6,2.6c-5,0-8.9-4.1-8.9-9.6s3.8-9.5,8.9-9.5c2.3-0.1,4.5,0.9,6,2.7
					v-2.3h4.6v18.4h-4.6V127.3z M113.2,125.7c2.9-0.2,5.1-2.7,5-5.6c-0.2-2.7-2.3-4.8-5-5c-2.9,0.2-5.1,2.7-5,5.6
					C108.4,123.4,110.5,125.5,113.2,125.7 M51,161.1c0.5,2.5,2.1,3.8,5.1,3.8c2.6,0,4.2-1,4.2-2.7c0-5.9-17.1-1.9-17.1-14.5
					c0-6.1,5.6-10.6,12.7-10.6c7.2,0,12.1,3.9,12.9,9.7l-8.5,1.7c-0.5-2.6-2-3.8-4.7-3.8c-2.3,0-3.7,1-3.7,2.7
					c0.1,5.4,17.1,1.5,17.1,14.5c0,6.1-5.7,10.7-13.1,10.7s-12.7-4-13.4-9.8L51,161.1z M74.5,137.5h15.3c8.2,0,13.4,5.1,13.4,12.1
					s-5.2,11.9-13.4,11.9h-6.9v10.6h-8.4L74.5,137.5z M89.7,154.1c2.5,0,4.6-2,4.6-4.6s-2-4.6-4.6-4.6c0,0,0,0,0,0h-6.9v9.1H89.7z
					 M124.6,137.1c10.3,0,18.3,7.7,18.3,17.8s-7.9,17.8-18.3,17.8s-18.3-7.8-18.3-17.8S114.3,137.1,124.6,137.1 M124.6,164.9
					c5.4,0,9.6-4.4,9.6-10.1s-4.1-10.1-9.6-10.1s-9.6,4.4-9.6,10S119.2,164.9,124.6,164.9 M159.6,160.8h-3.4v11.4h-8.4v-34.6h15.3
					c7.9,0,12.8,4.9,12.8,11.6c0.1,4.7-2.7,8.9-7.1,10.6l8.1,12.4H167L159.6,160.8z M163.1,153.1c2.3,0,4.1-1.8,4.1-4.1
					s-1.8-4.1-4.1-4.1h-6.9v8.2H163.1z M178,137.5h28.6v7.5h-10.1v27.2h-8.4V145H178V137.5z"/>
				<path class="st2" d="M212.1,166.1h16.6v5.9h8.4v-5.9h3.9v-7.4h-3.9v-21.1h-8.4v0.1l-0.1-0.1l-16.5,21.1V166.1z M221.1,158.7
					l7.6-9.7v9.7H221.1z"/>
			</g>
		</g>
	</g>
</g>
</svg>
