<?xml version="1.0" encoding="utf-8"?>
<!-- Generator: Adobe Illustrator 28.0.0, SVG Export Plug-In . SVG Version: 6.00 Build 0)  -->
<svg version="1.1" id="Vrstva_1" xmlns="http://www.w3.org/2000/svg" xmlns:xlink="http://www.w3.org/1999/xlink" x="0px" y="0px"
	 viewBox="0 0 283.5 283.5" style="enable-background:new 0 0 283.5 283.5;" xml:space="preserve">
<style type="text/css">
	.st0{fill:#181A19;}
	.st1{fill:#FFFFFF;}
	.st2{fill:#8EB847;}
</style>
<g id="Layer_2">
	<g id="Nova">
		<g id="novasport3">
			<rect y="0" class="st0" width="283.5" height="283.5"/>
			<g id="logo">
				<path class="st1" d="M43.7,110.6h4.7v2.5c1.4-1.8,3.6-2.9,5.9-2.8c4.1-0.1,7.5,3.1,7.6,7.1c0,0.2,0,0.4,0,0.7v11.4h-4.7v-10.6
					c0-2.4-2-4.4-4.4-4.4c-2.4,0-4.4,2-4.4,4.4v10.5h-4.7V110.6z M74.6,110.2c5.4,0.1,9.6,4.6,9.5,10c-0.1,5.4-4.6,9.6-10,9.5
					c-5.3-0.1-9.5-4.5-9.5-9.7c0-5.4,4.3-9.7,9.7-9.7C74.4,110.2,74.5,110.2,74.6,110.2 M74.6,125.3c3,0.2,5.5-2.1,5.7-5.1
					c0.2-3-2.1-5.5-5.1-5.7s-5.5,2.1-5.7,5.1c0,0.1,0,0.2,0,0.3c-0.1,2.9,2.1,5.3,4.9,5.4C74.5,125.3,74.6,125.3,74.6,125.3
					 M84.5,110.6h5.1l5.2,13.8l5.2-13.8h4.8l-7.5,18.7h-5.3L84.5,110.6z M119.8,127c-1.5,1.7-3.8,2.7-6.1,2.7
					c-5.1,0-9.1-4.2-9.1-9.7s3.9-9.7,9.1-9.7c2.3,0,4.6,1,6.1,2.7v-2.4h4.7v18.7h-4.7V127z M114.6,125.4c3,0.2,5.5-2.1,5.7-5.1
					c0.2-3-2.1-5.5-5.1-5.7s-5.5,2.1-5.7,5.1c0,0.1,0,0.2,0,0.3c-0.1,2.9,2.1,5.3,4.9,5.4C114.5,125.4,114.6,125.4,114.6,125.4
					 M51.2,161.6c0.5,2.5,2.2,3.8,5.2,3.8c2.6,0,4.3-1,4.3-2.8c0-6.1-17.5-2-17.5-14.8c0-6.2,5.7-10.8,12.9-10.8
					c7.4,0,12.3,4,13.2,9.9l-8.7,1.8c-0.5-2.6-2.1-3.8-4.8-3.8c-2.3,0-3.7,1-3.7,2.7c0,5.6,17.5,1.5,17.5,14.8
					c0,6.2-5.9,10.9-13.4,10.9s-12.9-4.1-13.7-10L51.2,161.6z M75.2,137.4h15.5c8.4,0,13.7,5.2,13.7,12.4s-5.3,12.1-13.7,12.1h-7
					v10.9h-8.6L75.2,137.4L75.2,137.4z M90.8,154.3c2.6,0,4.7-2.1,4.7-4.7c0-2.6-2.1-4.7-4.7-4.7c0,0,0,0,0,0h-7v9.3H90.8z
					 M126.4,136.9c10.5,0,18.7,7.9,18.7,18.1s-8.1,18.2-18.7,18.2s-18.7-7.9-18.7-18.2S115.8,137,126.4,136.9 M126.3,165.4
					c5.5,0,9.8-4.5,9.8-10.3s-4.2-10.3-9.8-10.3s-9.8,4.5-9.8,10.3S120.8,165.4,126.3,165.4 M162.1,161.2h-3.5v11.6H150v-35.3h15.6
					c8,0,13.1,5,13.1,11.9c0.1,4.8-2.8,9.1-7.2,10.8l8.2,12.6h-10.2L162.1,161.2z M165.7,153.4c2.3,0.1,4.3-1.7,4.4-4
					c0.1-2.3-1.7-4.3-4-4.4c-0.1,0-0.3,0-0.4,0h-7.1v8.3H165.7z M191.2,145h-10.3v-7.6h29.2v7.6h-10.3v27.8h-8.6L191.2,145z"/>
				<path class="st2" d="M215.5,161.1c0.2,3.6,1.4,6.4,3.7,8.3s5.3,2.9,9,2.9c3.3,0.2,6.6-0.9,9.2-2.9c2.3-2,3.6-4.9,3.5-7.9
					c0.1-2.4-0.7-4.7-2.2-6.6c-1.4-1.7-3.4-3-5.6-3.6l6.5-6.4v-7.4h-22.5v7.4h12.2l-5.8,5.8v6.2h3.6c3.4,0,5.2,1.4,5.2,4.3
					c0.1,0.9-0.3,1.9-1,2.5c-0.9,0.7-1.9,1.1-3.1,1c-1.1,0-2.2-0.4-3-1.1c-0.8-0.9-1.2-2.2-1.1-3.4L215.5,161.1z"/>
			</g>
		</g>
	</g>
</g>
</svg>
