<?xml version="1.0" encoding="UTF-8"?>
<svg xmlns="http://www.w3.org/2000/svg" version="1.1" viewBox="0 0 640 640">
  <defs>
    <style>
      .cls-1 {
        fill: #d43a95;
      }

      .cls-2 {
        fill: #2b2a6b;
      }

      .cls-3 {
        fill: #fff;
      }
    </style>
  </defs>
  <!-- Generator: Adobe Illustrator 28.7.1, SVG Export Plug-In . SVG Version: 1.2.0 Build 142)  -->
  <g>
    <g id="Vrstva_1">
      <rect class="cls-2" x=".1" y=".5" width="640" height="640"/>
      <g id="g16">
        <g id="g76">
          <path id="path78" class="cls-1" d="M460.7,265.6c-14.3,36.6-16.5,42.5-19.7,50.7-5.2,2.7-10.1,6-14.5,9.9l-17.5-43.7h-18.9v44.3h-.3c-5.8,0-11.5,1.5-16.6,4.2v-48.5h-19.1c1.7-5.5,2.6-11.2,2.6-16.9h63.7s11.3,28.2,11.3,28.2l10.9-28.2h18.1Z"/>
        </g>
        <g id="g80">
          <path id="path82" class="cls-3" d="M190.9,317.6c-9.3,1.8-18.7,2.8-28.2,3.1-.4,14.6-12.5,26-27.1,25.6-14.6-.4-26-12.5-25.6-27.1.4-14.6,12.5-26,27.1-25.6,7.5.2,14.6,3.6,19.5,9.4,10.5.9,21.1.6,31.5-.7-9.7-28.6-40.8-43.8-69.4-34.1-28.6,9.7-43.8,40.8-34.1,69.4,9.7,28.6,40.8,43.8,69.4,34.1,22.1-7.6,37-28.4,37-51.7,0-.8,0-1.6,0-2.3Z"/>
        </g>
        <g id="g84">
          <path id="path86" class="cls-3" d="M204,314.6c10.4-2.8,20.5-6.7,30.2-11.5v71.5h-30.2v-60Z"/>
        </g>
        <g id="g88">
          <path id="path90" class="cls-3" d="M558.3,374.6h-239.2l-32.7-42.4c-1.7.7-3.5,1.1-5.3,1.2v41.3h-30.2v-81.4c14-8.8,24.7-21.5,27.8-27.9h2.5v39.1s34.3-12.7,34.3-39.1h30.3c0,32.5-33.9,53.7-33.9,53.7l14.6,19.7c12.3,15.9,27.7,23.4,65.2,23.4-22.3-2-35.4-10.1-35.4-10.1,11.5-3.2,21.2-14.4,33.7-14.4,19.6,0,21.5,24.6,99.6,24.5-52.2-6.5-64.4-18.5-64.4-18.5,0,0,16.6-23.9,46.4-23.9,34.7,0,48.7,32.3,86.9,54.9Z"/>
        </g>
        <g id="g92">
          <path id="path94" class="cls-1" d="M234.1,267.1v25.1c-9.8,3.9-19.9,6.9-30.2,9.2v-34.3h30.2Z"/>
        </g>
      </g>
    </g>
  </g>
</svg>