<?xml version="1.0" encoding="UTF-8"?>
<svg id="Vrstva_1" data-name="Vrstva 1" xmlns="http://www.w3.org/2000/svg" version="1.1" viewBox="0 0 283.5 283.5">
  <defs>
    <style>
      .cls-1 {
        fill: #fcc42b;
      }

      .cls-1, .cls-2 {
        stroke-width: 0px;
      }

      .cls-2 {
        fill: #44296a;
      }
    </style>
  </defs>
  <rect class="cls-2" width="283.5" height="283.5"/>
  <g id="_Cesta_" data-name="&amp;lt;Cesta&amp;gt;">
    <path class="cls-1" d="M215.2,195.4c2.5,3.2,7.3,4.3,11.2,4.1,6.2-.2,11.9-4.2,14.3-9.9,2.1-5.1,1.2-11.2-2.1-15.6l-27.1-33.2c7.4-9.1,14.9-18.3,22.3-27.4,2.5-3.1,5.4-6,6.8-9.8,1.9-5.1,1-11.1-2.4-15.4-3.4-4.3-9-6.6-14.4-5.9-8.5,1.1-13.2,9.8-18,15.9-11,14-21.9,28.3-32.8,42.5,0,0,42,54.7,42.1,54.8h0Z"/>
    <path class="cls-1" d="M104.6,78.9c-34.7,0-62.9,28.5-62.9,62.9s28.2,62.9,62.9,62.9,62.9-26.3,62.9-62.9-28.2-62.9-62.9-62.9ZM104.6,180c-20.3,0-30.6-16.1-30.6-38.2s10.3-38.2,30.6-38.2,30.6,16.1,30.6,38.2-10.3,38.2-30.6,38.2Z"/>
  </g>
</svg>