<?xml version="1.0" encoding="UTF-8"?>
<svg xmlns="http://www.w3.org/2000/svg" xmlns:xlink="http://www.w3.org/1999/xlink" version="1.1" viewBox="0 0 500 500">
  <defs>
    <style>
      .cls-1 {
        fill: none;
      }

      .cls-2 {
        fill: url(#Nepojmenovaný_přechod);
      }

      .cls-3 {
        clip-path: url(#clippath-1);
      }

      .cls-4 {
        fill: #fff;
      }

      .cls-5 {
        fill: #9247e2;
      }

      .cls-6 {
        fill: #1a1a1a;
      }

      .cls-7 {
        clip-path: url(#clippath);
      }
    </style>
    <clipPath id="clippath">
      <rect class="cls-1" x="85.8" y="200.7" width="328.3" height="98.5"/>
    </clipPath>
    <clipPath id="clippath-1">
      <rect class="cls-1" x="85.8" y="200.7" width="328.3" height="98.5"/>
    </clipPath>
    <linearGradient id="Nepojmenovaný_přechod" data-name="Nepojmenovaný přechod" x1="85.8" y1="206.2" x2="207.9" y2="206.2" gradientTransform="translate(0 500) scale(1 -1)" gradientUnits="userSpaceOnUse">
      <stop offset="0" stop-color="#fffcab"/>
      <stop offset=".5" stop-color="#ffe700"/>
      <stop offset="1" stop-color="#e69b00"/>
    </linearGradient>
  </defs>
  <!-- Generator: Adobe Illustrator 28.7.1, SVG Export Plug-In . SVG Version: 1.2.0 Build 142)  -->
  <g>
    <g id="Vrstva_1">
      <g id="Vrstva_1-2" data-name="Vrstva_1">
        <rect class="cls-6" width="500" height="500"/>
        <g class="cls-7">
          <g>
            <path class="cls-4" d="M316.7,218.6c-2.5,0-4.1,1.9-4.1,4.1h0c0,2.3,1.7,4.2,4.2,4.2s4.1-1.9,4.1-4.1h0c0-2.3-1.7-4.2-4.1-4.2"/>
            <path class="cls-4" d="M373.6,201.7c-34.4,1.5-68.9,4.8-102.4,9.8-.2,0-.4.2-.4.4v23.8c0,.2.2.4.4.4h87.4c.4,0,.7-.2.8-.5l14.5-33.4c.1-.3-.1-.6-.4-.6M290.8,225.7c0,3.2-2.6,5-6.5,5s-5.6-.9-7.6-2.6l2.5-2.8c1.6,1.2,3.4,1.9,5.2,1.9s1.9-.4,1.9-1.1h0c0-.7-.5-1-2.7-1.5-3.4-.8-6.1-1.7-6.1-4.8h0c0-2.9,2.4-5,6.3-5s4.9.7,6.6,2.1l-2.2,3c-1.5-1-3.1-1.5-4.5-1.5s-1.6.4-1.6,1h0c0,.8.6,1.1,2.8,1.5,3.7.8,6,1.9,6,4.8h0ZM306.7,220.5c0,3.7-2.9,5.6-6.9,5.6h-2.2v4.4h-4.5v-15.5h6.9c4.1,0,6.7,2,6.7,5.4h0ZM325.4,222.7c0,4.4-3.7,8-8.7,8s-8.7-3.6-8.7-8h0c0-4.5,3.7-8.1,8.7-8.1s8.7,3.6,8.7,8h0ZM337.4,230.5l-3.3-4.7h-2v4.7h-4.5v-15.5h7.6c2.5,0,4.2.6,5.3,1.7.9.9,1.4,2.1,1.4,3.6h0c0,2.4-1.3,4-3.3,4.8l3.9,5.4h-5.1ZM357.5,218.8h-4.8v11.7h-4.5v-11.7h-4.8v-3.8h14.1v3.8h0Z"/>
            <path class="cls-4" d="M335.2,218.7h-3v3.7h3c1.5,0,2.4-.7,2.4-1.8h0c0-1.3-.9-1.9-2.4-1.9"/>
            <path class="cls-4" d="M299.7,218.6h-2.1v4.1h2.1c1.6,0,2.6-.8,2.6-2h0c0-1.4-1-2.1-2.6-2.1"/>
          </g>
        </g>
        <g class="cls-3">
          <g>
            <path class="cls-4" d="M233.1,242.6c-4.8,0-9.2,1.8-12.5,4.8v-3.1c0-.3-.2-.5-.5-.5h-6.6c-.3,0-.5.2-.5.5v50.3c0,.5.6.7.9.4l6.5-6.2c.2-.2.3-.4.3-.7v-13.2c3.3,3,7.7,4.8,12.5,4.8,10.3,0,18.7-8.3,18.7-18.4s-8.4-18.4-18.7-18.4M232.5,272.9c-6.6,0-11.9-5.3-11.9-11.8s5.3-11.8,11.9-11.8,11.9,5.3,11.9,11.8-5.3,11.8-11.9,11.8"/>
            <path class="cls-4" d="M307.6,243.7h-6.6c-.3,0-.5.2-.5.5v3.1c-3.3-3-7.7-4.8-12.5-4.8-10.3,0-18.7,8.3-18.7,18.4s8.4,18.4,18.7,18.4,9.2-1.8,12.5-4.8v3.1c0,.3.2.5.5.5h6.6c.3,0,.5-.2.5-.5v-33.7c0-.3-.2-.5-.5-.5M288.5,272.9c-6.6,0-11.9-5.3-11.9-11.8s5.3-11.8,11.9-11.8,11.9,5.3,11.9,11.8-5.3,11.8-11.9,11.8"/>
            <path class="cls-4" d="M350.4,243.7h-6.7c-.4,0-.8.2-1,.6l-10.8,25.2-11-25.2c-.2-.4-.6-.6-1-.6h-6.8c-.4,0-.6.4-.5.7l15.2,33.7s.1.2.2.2l-7.4,16.7c-.1.3.1.7.5.7h6.7c.4,0,.8-.2,1-.6l22.1-50.7c.1-.3-.1-.7-.5-.7"/>
            <path class="cls-4" d="M147.9,242.6c-4.1,0-8,1.9-11.1,4.9v-3.3c0-.3-.2-.5-.5-.5h-6.6c-.3,0-.5.2-.5.5v33.7c0,.3.2.5.5.5h6.6c.3,0,.5-.2.5-.5v-24.2c1.8-2.7,4.9-4.4,9.2-4.4,7.6,0,10.8,5.3,10.8,11.8v16.8c0,.3.2.5.5.5h6.6c.3,0,.5-.2.5-.5v-17.6c0-11.5-7.3-17.7-16.7-17.7"/>
            <path class="cls-4" d="M263.4,227.3l-6.5,6.2c-.2.2-.3.4-.3.7v43.7c0,.3.2.5.5.5h6.6c.3,0,.5-.2.5-.5v-50.3c0-.5-.6-.7-.9-.4"/>
            <path class="cls-4" d="M188.2,242.6c-10.2.2-18.6,8.2-18.8,18-.3,10.4,8.5,18.9,19.3,18.9s14.5-4.4,17.5-10.8c.2-.3,0-.7-.5-.7h-6.8c-.3,0-.6.1-.8.4-2.2,2.7-5.6,4.5-9.4,4.5-5.6,0-10.2-3.8-11.6-8.9h30.1c.3,0,.5-.2.5-.4.1-.8.2-1.7.2-2.5,0-10.3-8.9-18.7-19.7-18.4M188.7,249.3c5.6,0,10.2,3.8,11.6,8.9h-23.1c1.3-5.1,6-8.9,11.6-8.9"/>
            <path class="cls-4" d="M105.1,242.6c-10.6,0-19.3,8.3-19.3,18.4s8.6,18.4,19.3,18.4,19.3-8.3,19.3-18.4-8.6-18.4-19.3-18.4M105.1,272.9c-6.6,0-11.9-5.3-11.9-11.8s5.3-11.8,11.9-11.8,11.9,5.3,11.9,11.8-5.3,11.8-11.9,11.8"/>
          </g>
        </g>
        <path class="cls-2" d="M207.4,288.1c-41,.6-81.5,4.1-121.1,10.2-.3,0-.5.3-.5.5h0c0,.5.3.7.6.7,39.1-2.2,81.4-3.5,121-3.7.3,0,.5-.2.5-.5v-6.7c0-.3-.2-.5-.5-.5h0Z"/>
      </g>
      <g>
        <path class="cls-5" d="M413.5,200.6h-8.4c-8.6,0-16.2.3-24.8.6-.3,0-.6.2-.8.5l-14.6,33.6c-.1.3,0,.6.4.6h32.9c.4,0,.7-.2.8-.5l14.9-34.3c.1-.3,0-.6-.4-.6"/>
        <path d="M399.1,223.9c0,4.9-4.1,8.1-9.8,8.1s-8.3-1.7-10.8-4.3l4.4-4.2c1.8,1.8,3.7,2.8,6,2.8s3.2-1,3.2-2.5h0c0-1.6-1.4-2.6-4.1-2.6h-3l-1-3.5,5.8-5h-9.6l2.1-5.4h16.1v4.8l-6,5c3.6.8,6.5,2.7,6.5,6.8h0Z"/>
        <path class="cls-4" d="M398.5,223.3c0,4.9-4.1,8.1-9.8,8.1s-8.3-1.7-10.8-4.3l4.4-4.2c1.8,1.8,3.7,2.8,6,2.8s3.2-1,3.2-2.5h0c0-1.6-1.4-2.6-4.1-2.6h-3l-1-3.5,5.8-5h-9.6l2.1-5.4h16.1v4.8l-6,5c3.6.8,6.5,2.7,6.5,6.8h0Z"/>
      </g>
    </g>
  </g>
</svg>