<?xml version="1.0" encoding="UTF-8"?>
<svg xmlns="http://www.w3.org/2000/svg" version="1.1" viewBox="0 0 1024 1024">
  <defs>
    <style>
      .cls-1 {
        fill: #151515;
      }

      .cls-2 {
        fill: #fff;
      }

      .cls-3 {
        fill: #f8f4f4;
      }

      .cls-4 {
        fill: #d8001a;
      }
    </style>
  </defs>
  <!-- Generator: Adobe Illustrator 28.7.1, SVG Export Plug-In . SVG Version: 1.2.0 Build 142)  -->
  <g>
    <g id="Vrstva_1">
      <g id="Vrstva_1-2" data-name="Vrstva_1">
        <g id="Vrstva_1-2">
          <rect class="cls-1" width="1024" height="1024"/>
        </g>
        <g>
          <path class="cls-3" d="M730.2,394.4v78.4h78.4v156.7h78.4v-235.1h-156.8Z"/>
          <rect class="cls-4" x="137" y="394.4" width="549.5" height="235.1"/>
          <path class="cls-2" d="M642.9,477.4v-30.8h-106.7v130.9h32.2v-44.1h60.8v-30.8h-60.8v-25.1h74.5ZM431.7,508.5h-32.6v-31.1h32.6c14,0,18.2,6.9,18.2,15.4s-4.2,15.6-18.2,15.6M482.1,492.8c0-26.1-19.2-46.3-48.5-46.3h-66.6v130.9h32.2v-38.1h24l25.3,38.1h40.1l-32.4-45.9c15.7-6.5,25.9-21.8,25.9-38.8M250.7,549.1c-20.5.2-37.3-16.3-37.4-36.8-.2-20.5,16.3-37.3,36.8-37.4,20.5-.2,37.3,16.3,37.4,36.8,0,.1,0,.2,0,.3-.2,20.3-16.5,36.7-36.8,37.1M250.7,444c-37.5,1.1-67.1,32.4-66,70,1.1,37.5,32.4,67.1,70,66,36.8-1.1,66-31.2,66-68-.2-37.8-31-68.2-68.7-68-.4,0-.8,0-1.3,0"/>
        </g>
      </g>
    </g>
  </g>
</svg>