<?xml version="1.0" encoding="UTF-8"?>
<svg xmlns="http://www.w3.org/2000/svg" version="1.1" viewBox="0 0 1024 1024">
  <defs>
    <style>
      .cls-1 {
        fill: none;
      }

      .cls-2 {
        fill: #151515;
      }

      .cls-3 {
        fill: #fff;
      }

      .cls-4 {
        fill: #d8001a;
      }
    </style>
  </defs>
  <!-- Generator: Adobe Illustrator 28.7.1, SVG Export Plug-In . SVG Version: 1.2.0 Build 142)  -->
  <g>
    <g id="Vrstva_1">
      <g id="Vrstva_1-2" data-name="Vrstva_1">
        <g id="Vrstva_1-2">
          <g id="Vrstva_1-2-2" data-name="Vrstva_1-2">
            <rect class="cls-2" width="1024" height="1024"/>
          </g>
          <g>
            <rect class="cls-1" x="682" y="395.5" width="243.9" height="233"/>
            <path class="cls-4" d="M860.4,550.5h-57.7l33.8-25.7c14.5-10.9,24.3-24.3,24.3-40.4,0-25.2-20.7-46.8-53.4-46.8s-45.9,11.6-61.1,36.4l32.5,12.5c4.9-10.7,15.5-17.6,27.3-17.7,9.6-1,18.3,5.7,19.8,15.2-.3,6.5-3.8,12.3-9.3,15.7l-65,51.3v32h108.8v-32.5Z"/>
            <path class="cls-4" d="M682,395.5h244.2l-.4,233h-243.8v-233ZM937,384.5H87v255h850v-255Z"/>
            <path class="cls-3" d="M406.1,508.1h-35.3v-33.7h35.3c15.2,0,19.7,7.5,19.7,16.7s-4.5,17-19.7,17M336,583h34.8v-41.4h26l27.4,41.4h43.4l-35-49.8c17-7.1,28-23.7,28-42.1,0-28.3-20.8-50.2-52.5-50.2h-72.2v142.1ZM285.8,512c1.1-41.9-31.9-76.7-73.7-77.8s-76.7,31.9-77.8,73.7c-1.1,41.9,31.9,76.7,73.7,77.8.7,0,1.4,0,2.1,0,40.9,1,74.8-31.4,75.8-72.3,0-.5,0-1,0-1.5M249.9,512c-.3,22-18.3,39.6-40.3,39.4-22-.3-39.6-18.3-39.4-40.3.3-21.8,18-39.4,39.8-39.4,21.9.6,39.5,18.3,39.8,40.3M519.2,583h34.8v-47.8h65.8v-33.5h-65.8v-27.2h80.7v-33.5h-115.5v142Z"/>
          </g>
        </g>
      </g>
    </g>
  </g>
</svg>