<svg width="284" height="284" viewBox="0 0 284 284" fill="none" xmlns="http://www.w3.org/2000/svg">
<rect width="283.5" height="283.5" fill="#DC2429"/>
<path d="M61.01 158.42V124.42H69.95C71.64 124.42 73.02 124.81 74.09 125.57C75.16 126.34 75.95 127.45 76.47 128.91C76.99 130.37 77.25 132.13 77.25 134.2C77.25 136.63 76.91 138.54 76.22 139.91C75.54 141.28 74.6 142.25 73.42 142.83C72.24 143.4 70.88 143.69 69.35 143.69H66.74V158.43H61L61.01 158.42ZM66.75 138.81H68.77C69.6 138.81 70.25 138.65 70.7 138.33C71.15 138.01 71.46 137.5 71.62 136.8C71.78 136.1 71.86 135.2 71.86 134.11C71.86 133.07 71.8 132.21 71.67 131.51C71.54 130.81 71.26 130.27 70.82 129.87C70.38 129.48 69.68 129.28 68.73 129.28H66.75V138.81Z" fill="black"/>
<path d="M75.8599 158.42L81.3199 124.42H87.6899L93.1199 158.42H87.7999L86.7899 150.95H82.3399L81.2599 158.42H75.8699H75.8599ZM82.8499 146.71H86.2199L84.5199 132.98L82.8499 146.71Z" fill="black"/>
<path d="M101.67 158.88C99.9299 158.88 98.4799 158.49 97.3199 157.73C96.1599 156.96 95.2899 155.8 94.6899 154.25C94.0999 152.7 93.7599 150.72 93.6599 148.31L98.5999 147.3C98.6499 148.7 98.7699 149.87 98.9699 150.81C99.1699 151.75 99.4699 152.45 99.8699 152.91C100.28 153.37 100.78 153.6 101.38 153.6C102.12 153.6 102.63 153.32 102.89 152.76C103.16 152.2 103.29 151.56 103.29 150.83C103.29 149.4 103.01 148.21 102.44 147.24C101.87 146.27 101.12 145.3 100.2 144.32L97.2799 141.26C96.2399 140.2 95.3799 138.99 94.7199 137.65C94.0599 136.31 93.7299 134.66 93.7299 132.7C93.7299 129.9 94.4099 127.75 95.7599 126.26C97.1199 124.76 98.9799 124.01 101.34 124.01C102.75 124.01 103.91 124.29 104.82 124.85C105.72 125.41 106.43 126.16 106.92 127.1C107.42 128.04 107.77 129.06 107.96 130.16C108.16 131.27 108.28 132.36 108.33 133.46L103.43 134.34C103.38 133.3 103.31 132.4 103.2 131.61C103.1 130.83 102.89 130.21 102.57 129.76C102.26 129.31 101.79 129.09 101.16 129.09C100.49 129.09 99.9899 129.39 99.6599 129.99C99.3299 130.59 99.1699 131.26 99.1699 131.98C99.1699 133.18 99.3999 134.17 99.8499 134.94C100.3 135.71 100.92 136.51 101.71 137.35L104.56 140.37C105.74 141.6 106.76 143.01 107.6 144.59C108.45 146.17 108.87 148.12 108.87 150.45C108.87 152.05 108.57 153.49 107.97 154.77C107.37 156.06 106.53 157.07 105.45 157.79C104.37 158.52 103.1 158.88 101.64 158.88H101.67Z" fill="black"/>
<path d="M117.39 158.88C115.65 158.88 114.2 158.49 113.04 157.73C111.88 156.96 111.01 155.8 110.41 154.25C109.82 152.7 109.48 150.72 109.38 148.31L114.32 147.3C114.37 148.7 114.49 149.87 114.69 150.81C114.89 151.75 115.19 152.45 115.59 152.91C116 153.37 116.5 153.6 117.1 153.6C117.84 153.6 118.35 153.32 118.61 152.76C118.88 152.2 119.01 151.56 119.01 150.83C119.01 149.4 118.73 148.21 118.16 147.24C117.59 146.27 116.84 145.3 115.92 144.32L113 141.26C111.96 140.2 111.1 138.99 110.44 137.65C109.78 136.31 109.45 134.66 109.45 132.7C109.45 129.9 110.13 127.75 111.48 126.26C112.84 124.76 114.7 124.01 117.06 124.01C118.47 124.01 119.63 124.29 120.54 124.85C121.44 125.41 122.15 126.16 122.64 127.1C123.14 128.04 123.49 129.06 123.68 130.16C123.88 131.27 124 132.36 124.05 133.46L119.15 134.34C119.1 133.3 119.03 132.4 118.92 131.61C118.82 130.83 118.61 130.21 118.29 129.76C117.98 129.31 117.51 129.09 116.88 129.09C116.21 129.09 115.71 129.39 115.38 129.99C115.05 130.59 114.89 131.26 114.89 131.98C114.89 133.18 115.12 134.17 115.57 134.94C116.02 135.71 116.64 136.51 117.43 137.35L120.28 140.37C121.46 141.6 122.48 143.01 123.32 144.59C124.17 146.17 124.59 148.12 124.59 150.45C124.59 152.05 124.29 153.49 123.69 154.77C123.09 156.06 122.25 157.07 121.17 157.79C120.09 158.52 118.82 158.88 117.36 158.88H117.39Z" fill="black"/>
<path d="M127.03 158.42V124.42H132.73V158.42H127.03Z" fill="black"/>
<path d="M143.52 158.88C141.46 158.88 139.82 158.43 138.62 157.54C137.41 156.64 136.55 155.36 136.03 153.7C135.51 152.04 135.25 150.04 135.25 147.72V135.04C135.25 132.72 135.51 130.73 136.03 129.08C136.55 127.43 137.42 126.17 138.62 125.3C139.83 124.43 141.46 124 143.52 124C145.58 124 147.26 124.44 148.48 125.32C149.7 126.2 150.57 127.46 151.09 129.1C151.61 130.74 151.87 132.72 151.87 135.04V147.72C151.87 150.04 151.61 152.04 151.09 153.7C150.57 155.37 149.7 156.65 148.48 157.54C147.26 158.44 145.61 158.88 143.52 158.88ZM143.52 153.88C144.26 153.88 144.81 153.68 145.15 153.27C145.5 152.86 145.73 152.32 145.85 151.63C145.97 150.94 146.02 150.21 146.02 149.43V133.35C146.02 132.57 145.96 131.84 145.85 131.17C145.73 130.5 145.5 129.96 145.15 129.55C144.8 129.14 144.26 128.94 143.52 128.94C142.82 128.94 142.3 129.14 141.95 129.55C141.6 129.96 141.37 130.49 141.25 131.17C141.13 131.84 141.08 132.57 141.08 133.35V149.43C141.08 150.21 141.13 150.95 141.24 151.63C141.34 152.32 141.57 152.86 141.92 153.27C142.27 153.68 142.8 153.88 143.52 153.88Z" fill="black"/>
<path d="M155 158.42V124.42H159L165.26 142.14V124.42H169.99V158.42H166.16L159.9 139.61V158.42H155Z" fill="black"/>
<path d="M171.73 158.42L177.3 140.24L171.94 124.41H177.37L180.71 134.19L183.53 124.41H188.37L183.22 141.83L188.86 158.41H183.5L179.81 147.7L176.57 158.41H171.73V158.42Z" fill="white"/>
<path d="M188.7 158.42L194.27 140.24L188.91 124.41H194.34L197.68 134.19L200.5 124.41H205.34L200.19 141.83L205.83 158.41H200.47L196.78 147.7L193.54 158.41H188.7V158.42Z" fill="white"/>
<path d="M205.68 158.42L211.25 140.24L205.89 124.41H211.32L214.66 134.19L217.48 124.41H222.32L217.17 141.83L222.81 158.41H217.45L213.76 147.7L210.52 158.41H205.68V158.42Z" fill="white"/>
</svg>
