<svg width="284" height="284" viewBox="0 0 284 284" fill="none" xmlns="http://www.w3.org/2000/svg">
<g clip-path="url(#clip0_3_119)">
<path d="M283.5 0H0V283.5H283.5V0Z" fill="white"/>
<g clip-path="url(#clip1_3_119)">
<path d="M138.54 90.25C129.07 97.99 123.18 106.76 120.83 116.67C119.777 121.333 119.324 126.112 119.48 130.89V136.37L118.13 134.64C117.37 133.7 114.03 129.27 110.68 124.85C104.02 116.02 100.97 112.59 95.49 107.85C92.2173 104.812 88.6648 102.09 84.88 99.72C81.88 97.9 72.3 92.57 72.07 92.57C71.84 92.57 72.19 95.77 72.74 98.96C74.09 106.88 76.9 112.71 82.65 119.54C87.65 125.4 91.8 128.89 96.72 131.27C100.473 133.075 104.318 134.681 108.24 136.08L110.94 137.02L108.39 137.37C102.79 138.13 97.34 139.95 93.76 142.3C92.2699 143.401 90.8689 144.618 89.57 145.94C85.57 149.94 83.74 153.48 83.47 157.87C83.24 161.87 84.76 165.17 88.28 168.02C91.3469 170.228 94.7556 171.917 98.37 173.02C101.07 173.78 101.04 173.75 100.28 175.83C99.6516 177.941 99.7969 180.207 100.69 182.22L101.34 183.48L106.12 180.99C108.73 179.61 111.31 178.26 111.81 177.99C113.1 177.26 113.28 177.67 112.95 180.42C112.62 183.17 112.83 183.42 114.45 182.91C121.72 180.33 129.45 176.78 130.93 175.26C132.87 173.32 134.13 167.75 134.36 160.01C134.48 155.88 134.42 154.47 134.04 152.86C132.808 148.691 130.769 144.804 128.04 141.42L127.37 140.6L128.54 139.22C132.26 135.075 135.136 130.245 137.01 125C138.3 120.932 139.194 116.75 139.68 112.51C139.97 109.75 140.68 90.08 140.5 89.14C140.48 88.78 140 89.05 138.54 90.25ZM100.42 146.4C101.051 146.708 101.583 147.187 101.956 147.783C102.328 148.379 102.525 149.067 102.525 149.77C102.525 150.473 102.328 151.161 101.956 151.757C101.583 152.353 101.051 152.832 100.42 153.14C99.8899 153.433 99.2891 153.574 98.6839 153.548C98.0787 153.521 97.4925 153.328 96.99 152.99C96.3984 152.685 95.9034 152.221 95.5607 151.651C95.218 151.08 95.0412 150.425 95.05 149.76C95.0537 149.128 95.2171 148.507 95.5249 147.955C95.8328 147.403 96.2751 146.938 96.8108 146.603C97.3466 146.268 97.9584 146.073 98.5893 146.038C99.2203 146.002 99.85 146.127 100.42 146.4Z" fill="black"/>
<path d="M153.48 138.78V143.62H147.62V151.83H153.48V160.25C153.48 169.57 153.71 171.98 154.8 174.09C155.86 176.057 157.602 177.569 159.7 178.34C162.453 179.073 165.329 179.212 168.14 178.75L170.34 178.37L170.43 174.59C170.49 171.95 170.43 170.72 170.17 170.59C169.709 170.509 169.236 170.54 168.79 170.68C168.045 170.919 167.253 170.974 166.482 170.842C165.711 170.709 164.983 170.393 164.36 169.92L163.6 169.16L163.51 160.51L163.42 151.86H170.78V143.62H163.48V136.72L159.48 135.31C157.857 134.704 156.184 134.242 154.48 133.93H153.48V138.78Z" fill="black"/>
<path d="M174.07 145.29C174.42 146.23 177.35 153.97 180.64 162.53L186.56 178.07L192.1 178.16L197.67 178.22L203.77 162.33C207.11 153.56 210.1 145.79 210.4 145L210.96 143.62L205.48 143.72L200.03 143.81L196.16 154.28C194.05 160.03 192.23 164.81 192.16 164.89C192.09 164.97 190.46 160.73 188.55 155.45C186.64 150.17 184.86 145.36 184.62 144.75L184.21 143.67H173.43L174.07 145.29Z" fill="black"/>
<path d="M142.48 170.47C141.844 170.838 141.314 171.365 140.942 171.999C140.57 172.632 140.368 173.351 140.356 174.086C140.344 174.821 140.522 175.546 140.873 176.192C141.224 176.837 141.737 177.381 142.36 177.77C143.048 178.073 143.796 178.217 144.547 178.191C145.299 178.165 146.034 177.97 146.7 177.62C147.357 177.227 147.879 176.643 148.196 175.947C148.514 175.25 148.613 174.474 148.48 173.72C148.414 173.05 148.184 172.406 147.811 171.846C147.439 171.285 146.934 170.824 146.342 170.503C145.75 170.182 145.089 170.012 144.415 170.006C143.742 170 143.077 170.16 142.48 170.47Z" fill="black"/>
<path d="M127.39 181.5C124.39 182.32 113.39 185.96 113.11 186.19C112.83 186.42 112.58 189.36 113.02 189.36C113.2 189.36 117.02 188.3 121.46 186.98C127.12 185.31 129.73 184.43 130.11 183.98C130.45 183.468 130.624 182.864 130.61 182.25C130.61 181.11 130.61 181.11 129.53 181.14C128.804 181.169 128.085 181.29 127.39 181.5Z" fill="black"/>
<path d="M93.09 181.94C93.09 183.52 94.44 191.79 94.73 191.94C95.8963 191.57 97.0091 191.049 98.04 190.39C99.2032 189.696 100.441 189.136 101.73 188.72C102.64 188.72 105.4 190.6 107.73 192.82C110.06 195.04 110.54 195.02 110.31 192.82C110.19 192 110.05 189.1 109.93 186.37C109.93 184.73 109.813 183.093 109.58 181.47C109.52 181.47 107.79 182.35 105.77 183.41L102.1 185.41L100.46 184.74C99.55 184.36 97.65 183.51 96.21 182.8C93.26 181.29 93.09 181.23 93.09 181.94Z" fill="black"/>
</g>
</g>
<defs>
<clipPath id="clip0_3_119">
<rect width="283.5" height="283.5" fill="white"/>
</clipPath>
<clipPath id="clip1_3_119">
<rect width="138.96" height="105.43" fill="white" transform="translate(72 89)"/>
</clipPath>
</defs>
</svg>
