<?xml version="1.0" encoding="UTF-8"?>
<svg xmlns="http://www.w3.org/2000/svg" version="1.1" viewBox="0 0 640 640">
  <defs>
    <style>
      .cls-1 {
        fill: #c60005;
      }

      .cls-2 {
        fill: #c50004;
      }

      .cls-3 {
        fill: #fff;
      }
    </style>
  </defs>
  <!-- Generator: Adobe Illustrator 28.7.1, SVG Export Plug-In . SVG Version: 1.2.0 Build 142)  -->
  <g>
    <g id="Vrstva_1">
      <g id="Vrstva_1-2" data-name="Vrstva_1">
        <rect class="cls-2" width="640" height="640"/>
        <g id="g908">
          <g id="g914">
            <path id="path916" class="cls-3" d="M108.3,328.6c0,6.3,0,12.5,0,18.8,1.5,0,3.1,0,4.6,0,0-4.2,0-8.4,0-12.6,5.5,4.4,11.2,8.5,16.8,12.9,1.3,0,2.6,0,3.9,0,0-6.5,0-13,0-19.5-1.5,0-3.1,0-4.6,0,0,4.4,0,8.8,0,13.3-5.5-4.4-11.2-8.6-16.8-12.9-1.3,0-2.5,0-3.8,0M108.7,312.2c-1.6,4.7-.3,9.9,2.5,13.8,1.3-.7,2.6-1.4,3.9-2.1-2-2.7-3.5-6.4-1.9-9.7.9-1.9,3.1-2.3,5-2.4.3,4-.8,8.5,1.4,12.1,2.8,4.8,11.1,4.2,13.3-.9,1.6-3.7.9-8.6-2.4-11.2,1,0,2,0,3,0,0-1.7,0-3.3,0-5-5.8.1-11.5,0-17.3.1-3.2,0-6.5,1.9-7.5,5.1M118,290.3c-3.3-2.8-6.5-5.6-9.8-8.4,0,1.9,0,3.8,0,5.7,3.7,3.3,7.4,6.6,11.2,9.9-7.1,0-14.2,0-21.3,0,0,1.6,0,3.3,0,4.9,11.8.2,23.6,0,35.4,0,0-1.7,0-3.3,0-5-2.4,0-4.7,0-7.1,0-1.5-1.3-3-2.5-4.4-3.8,3.8-2.2,7.7-4.4,11.5-6.6,0-2,0-3.9,0-5.9-5.2,2.9-10.3,6-15.5,9M121.3,246.3c16.1-4.5,33.6-3.5,49,2.7,20.1,8,36.5,25,43.6,45.5-3.9-6.1-9.8-11-16.7-13.1-6.7-2-14.3-2.2-20.8.8-4.2,1.9-7.8,5.1-10.4,8.9,0-3.4,0-6.9,0-10.3-7.6,0-15.3,0-22.9,0,0,35.8,0,71.6,0,107.4,7.7,0,15.3,0,23,0,0-12.9,0-25.8,0-38.7,3.7,5.4,9.4,9.4,15.9,10.7,7.8,1.5,16.2,0,22.9-4.2,3.2-2.1,5.9-4.7,8.1-7.8-4.8,12.1-12.8,22.9-22.9,31.2-13.4,10.9-30.6,17.1-47.9,17.1-14.4.2-28.9-4-41.1-11.7-13.7-8.5-24.5-21.5-30.5-36.5-3.5-8.9-5.5-18.4-5.3-28-.3-16.6,5.4-33.1,15.4-46.3,10-13.3,24.5-23.2,40.6-27.6"/>
          </g>
          <g id="g918">
            <path id="path920" class="cls-3" d="M179.1,299.8c4.3-.8,9,.5,12.2,3.5,3.6,3.3,5.5,8.2,6.1,13,.9,7.7-.8,16.8-7.4,21.7-4.3,3.1-10.3,3.5-14.9.9-3.7-2.1-6.3-5.8-7.6-9.8-1.8-5.8-1.9-12.2,0-18,1.7-5.3,5.9-10.3,11.7-11.3"/>
          </g>
          <g id="g922">
            <path id="path924" class="cls-3" d="M499.6,300.5c4.7,0,9.3,0,14,0,0,4.5,0,9,0,13.5,3.9,0,7.7,0,11.6,0,0,3.4,0,6.8,0,10.2-3.9,0-7.7,0-11.6,0,0,6.4,0,12.9,0,19.3,0,1.9.4,4.4,2.4,5.1,2.5.7,4.9-.4,7.2-1.4.9,3.6,1.8,7.2,2.8,10.7-4.6,2.8-10.1,3.9-15.4,2.9-3.1-.6-6-2.3-7.8-4.8-2.2-2.9-3-6.5-3-10.1,0-7.3,0-14.6,0-21.9h-6.1c0-3.4,0-6.8,0-10.2h6.1c0-4.5,0-9.1,0-13.6"/>
          </g>
          <g id="g926">
            <path id="path928" class="cls-3" d="M122.4,312c1.4,0,2.9-.2,4.1.6,2.7,1.7,3.6,5.6,2.2,8.4-1.2,2.2-5.3,2.2-5.9-.5-.6-2.8-.3-5.7-.3-8.6"/>
          </g>
          <g id="g930">
            <path id="path932" class="cls-3" d="M527.2,312c4.8,0,9.7,0,14.5,0,3.1,11.4,6.3,22.9,9.3,34.3.6-.5.7-1.4.9-2.1,2.9-10.7,6-21.4,8.8-32.2,4.7-.1,9.4,0,14.1,0-5.5,16.3-11.1,32.5-16.6,48.8h-14.4c-5.5-16.3-11.1-32.5-16.6-48.8"/>
          </g>
          <g id="g934">
            <path id="path936" class="cls-3" d="M483.5,347c3.1-1.4,7.1,0,8.6,3.1,1.4,3,1.1,6.8-1.1,9.3-2.6,2.9-7.9,2.7-10.1-.6-2.6-3.7-1.8-9.9,2.6-11.9"/>
          </g>
          <g id="g938">
            <path id="path940" class="cls-1" d="M228.3,375.4c0,0,0,.2.1.2h-.1s0-.2,0-.2Z"/>
          </g>
          <g id="g942">
            <path id="path944" class="cls-3" d="M226.7,251c7.6,0,15.1,0,22.7,0,0,36.2,0,72.4,0,108.6-7.6,0-15.2,0-22.7,0,0-36.2,0-72.4,0-108.6"/>
          </g>
          <g id="g946">
            <path id="path948" class="cls-3" d="M433.4,283.1c7.1-4,16.1-4.7,23.7-1.7,5.9,2.3,10.5,7.2,13,12.9,2.3,5.1,3.1,10.8,3.1,16.4,0,16.3,0,32.7,0,49-7.5,0-15.1,0-22.6,0,0-14.3,0-28.6,0-42.9,0-4.5-1.3-9.3-4.9-12.2-5.1-4.2-13.4-3.2-17.7,1.7-3.4,3.8-4.8,9.1-4.6,14.1,0,13.1,0,26.2,0,39.3-7.6,0-15.2,0-22.7,0,0-26.3,0-52.6,0-78.9,7.6,0,15.2,0,22.7,0,0,4.3,0,8.5,0,12.8,2.5-4.1,5.7-8,10-10.4"/>
          </g>
          <g id="g950">
            <path id="path952" class="cls-3" d="M350.4,300.7c-3.7,3.3-5.4,8.1-6.2,12.8,9.6,0,19.1,0,28.7,0,0-5.4-1.9-11.4-6.8-14.3-4.8-2.9-11.6-2.5-15.7,1.4M334.1,289c6.4-5.9,15-8.9,23.7-9,8-.2,16.3,1.6,22.7,6.5,6.4,4.7,10.4,12,12.4,19.6,1.8,6.8,2.1,14,1.8,21-16.7,0-33.4,0-50.1,0,1.1,4.5,3.4,9,7.3,11.8,4.2,3,9.7,3.5,14.5,2.3,4.7-1.1,8.8-3.9,12.1-7.4,3.9,4.4,8,8.6,11.9,13-5.3,6.4-12.8,10.9-20.9,12.7-9.3,2-19.5,1.3-28.1-2.9-6.8-3.4-12.3-9.2-15.4-16-4-8.5-4.8-18.3-3.6-27.5,1.2-9,5.1-17.8,11.8-23.9"/>
          </g>
          <g id="g954">
            <path id="path956" class="cls-3" d="M258.3,280.8c20.7,0,41.4,0,62.1,0,0,4.7,0,9.4,0,14.1.1,1.3-1,2.2-1.7,3.2-11.1,14.2-22.2,28.4-33.2,42.7,12,0,24,0,36.1,0,0,6.3,0,12.6,0,18.9-21.5,0-43.1,0-64.6,0,0-5,0-10,0-15.1,11.6-15,23.4-29.9,35-44.9-11.2,0-22.5,0-33.7,0,0-6.3,0-12.6,0-18.9"/>
          </g>
          <g id="g958">
            <path id="path960" class="cls-3" d="M228.8,373.4l3.3,8.8c.2.4.2.9.3,1.4,0-.4,0-.7.1-.9,0-.2,0-.4.1-.5l3.5-8.7h2.4v11.3h-1.5v-8.9c0-.3,0-.6,0-.9,0-.3,0-.6,0-.9-.1.6-.3,1.1-.5,1.6l-3.6,9.1h-1.4l-3.6-9.2c0-.1-.1-.3-.2-.5,0-.2-.1-.5-.2-.9,0,1,0,1.6,0,1.8v8.8h-1.4v-11.3h2.4ZM255.9,373.4v1.2h-4.5v3.6h4.3v1.3h-4.3v3.9h4.7v1.3h-6.3v-11.3h6.1ZM273.6,373.4v1.3h-3.2v10h-1.6v-10h-3.2v-1.3h7.9ZM286.6,373.4c2.6,0,3.9,1,3.9,2.9s-.2,1.3-.6,1.8c-.4.5-1,.8-1.8,1,.4.1.7.3.9.6s.4.6.6,1l1.7,4.1h-1.7l-1.5-3.7c-.2-.5-.5-.8-.8-1s-.7-.3-1.2-.3h-.9v5h-1.6v-11.3h3ZM285.2,378.4h1.2c.8,0,1.4-.2,1.9-.5s.7-.8.7-1.4-.2-1.1-.6-1.4-1.1-.4-1.9-.4h-1.2v3.8ZM308,373.6c.6.3,1.2.7,1.6,1.2.4.5.8,1.1,1,1.8.2.7.4,1.5.4,2.5s-.1,1.7-.4,2.5c-.2.7-.6,1.3-1,1.8s-1,.9-1.6,1.2c-.6.3-1.3.4-2.1.4s-1.5-.1-2.1-.4c-.6-.3-1.2-.7-1.6-1.2-.4-.5-.8-1.1-1-1.8-.2-.7-.4-1.5-.4-2.5s.1-1.7.4-2.5c.2-.7.6-1.3,1-1.8.4-.5,1-.9,1.6-1.2.6-.3,1.3-.4,2.1-.4s1.5.1,2.1.4M304.5,374.7c-.4.2-.8.5-1.1.9-.3.4-.5.9-.7,1.4-.2.6-.3,1.2-.3,1.9s0,1.3.3,1.9c.2.6.4,1,.7,1.4.3.4.7.7,1.1.9.4.2.9.3,1.4.3s1-.1,1.4-.3c.4-.2.8-.5,1.1-.9.3-.4.5-.9.7-1.4.2-.6.3-1.2.3-1.9s0-1.3-.3-1.9c-.2-.6-.4-1.1-.7-1.4-.3-.4-.7-.7-1.1-.9-.4-.2-.9-.3-1.4-.3s-1,.1-1.4.3M324.6,373.4c2.7,0,4,1.1,4,3.3s-.3,1.9-1,2.5c-.7.6-1.7.9-3.1.9h-1.2v4.6h-1.6v-11.3h2.8ZM323.3,378.8h1c.8,0,1.5-.2,1.9-.6s.7-.9.7-1.6-.2-1.2-.6-1.5c-.4-.4-1-.5-1.8-.5h-1.3v4.2ZM345.5,373.6c.6.3,1.2.7,1.6,1.2.4.5.8,1.1,1,1.8.2.7.4,1.5.4,2.5s-.1,1.7-.4,2.5c-.2.7-.6,1.3-1,1.8s-1,.9-1.6,1.2c-.6.3-1.3.4-2.1.4s-1.5-.1-2.1-.4c-.6-.3-1.2-.7-1.6-1.2-.5-.5-.8-1.1-1-1.8-.2-.7-.4-1.5-.4-2.5s.1-1.7.4-2.5c.2-.7.6-1.3,1-1.8.4-.5,1-.9,1.6-1.2.6-.3,1.3-.4,2.1-.4s1.5.1,2.1.4M342,374.7c-.4.2-.8.5-1.1.9-.3.4-.5.9-.7,1.4s-.3,1.2-.3,1.9,0,1.3.3,1.9c.2.6.4,1,.7,1.4.3.4.7.7,1.1.9.4.2.9.3,1.4.3s1-.1,1.4-.3c.4-.2.8-.5,1.1-.9.3-.4.5-.9.7-1.4.2-.6.3-1.2.3-1.9s0-1.3-.3-1.9c-.2-.6-.4-1.1-.7-1.4-.3-.4-.7-.7-1.1-.9-.4-.2-.9-.3-1.4-.3s-1,.1-1.4.3M360.8,373.4v10h4.5v1.3h-6.1v-11.3h1.6ZM376.8,384.7h-1.6v-11.3h1.6v11.3ZM394.7,373.4v1.3h-3.2v10h-1.6v-10h-3.2v-1.3h7.9ZM406.7,373.4l4.9,8.8c.1.3.3.8.6,1.5-.1-.8-.2-1.5-.2-2v-8.3h1.4v11.3h-1.9l-5-8.9c-.1-.2-.3-.7-.5-1.5,0,.6.1,1,.2,1.4,0,.3,0,.6,0,.7v8.3h-1.4v-11.3h2ZM426.2,384.7h-1.6v-11.3h1.6v11.3ZM427.5,369.5l-2.3,2.8h-.9l1.6-2.8h1.5ZM457.3,373.4v1.3h-3.2v10h-1.6v-10h-3.2v-1.3h7.9ZM473.4,373.4v1.2h-4.5v3.6h4.3v1.3h-4.3v3.9h4.7v1.3h-6.3v-11.3h6.1ZM486,373.4v10h4.5v1.3h-6.1v-11.3h1.6ZM506.6,373.4v1.2h-4.5v3.6h4.3v1.3h-4.3v3.9h4.7v1.3h-6.3v-11.3h6.1ZM518.1,373.4l3.3,9.8,3.4-9.8h1.6l-4.2,11.3h-1.8l-4-11.3h1.7ZM538,384.7h-1.6v-11.3h1.6v11.3ZM555.8,373.4v1.4l-5.9,8.6h6v1.3h-7.6v-1.5l5.8-8.5h-5.6v-1.3h7.3ZM572.5,373.4v1.2h-4.5v3.6h4.3v1.3h-4.3v3.9h4.7v1.3h-6.3v-11.3h6.1Z"/>
          </g>
        </g>
      </g>
    </g>
  </g>
</svg>