<?xml version="1.0" encoding="utf-8"?>
<!-- Generator: Adobe Illustrator 28.0.0, SVG Export Plug-In . SVG Version: 6.00 Build 0)  -->
<svg version="1.1" id="Vrstva_1" xmlns="http://www.w3.org/2000/svg" xmlns:xlink="http://www.w3.org/1999/xlink" x="0px" y="0px"
	 viewBox="0 0 283.5 283.5" style="enable-background:new 0 0 283.5 283.5;" xml:space="preserve">
<style type="text/css">
	.st0{fill:#0F3759;}
	.st1{fill:#FFFFFF;}
</style>
<g id="Layer_2">
	<g id="Regionální">
		<g id="polar">
			<rect class="st0" width="283.5" height="283.5"/>
		</g>
	</g>
</g>
<g id="Group_16" transform="translate(110.276 -328.253)">
	<g id="Group_15" transform="translate(295 353.879)">
		<path id="Path_5" class="st1" d="M-345.4,97.8v8.3c-5.8,0-10.5,4.7-10.4,10.5c0,0,0,0,0,0.1c-0.1,3,1.2,5.9,3.5,7.9
			c1.9,1.6,4.3,2.6,6.8,2.7h0.1v8.3c-3.9-0.1-7.5-1.9-9.9-5v13.5h-8.4V99h7.7v4.6C-353.5,100.1-349.6,98-345.4,97.8 M-345.4,135.6
			v-8.3c5.9-0.1,10.5-5,10.4-10.8c-0.1-5.6-4.6-10.2-10.2-10.4h-0.1v-8.3h1c5-0.2,9.8,1.9,13,5.8c3.3,3.6,5.1,8.3,5,13.1
			c0.3,10.1-7.6,18.6-17.7,18.9c-0.1,0-0.2,0-0.3,0L-345.4,135.6z M-305.1,97.8v8.3h-0.1c-2.8,0.1-5.4,1.3-7.3,3.3
			c-2,1.9-3.1,4.6-3,7.4c-0.1,5.7,4.5,10.4,10.2,10.5c0,0,0.1,0,0.1,0h0.1v8.3h-0.1c-10.4,0-18.9-8.5-18.8-19
			C-324,106.2-315.5,97.8-305.1,97.8 M-283.1,88.1h8.6v46.3h-8.6L-283.1,88.1z M-305.1,135.6v-8.3c5.6,0.1,10.3-4.3,10.4-10
			c0-0.2,0-0.3,0-0.5c0.1-5.8-4.6-10.6-10.4-10.7v-8.3h0.3c10.4,0.1,18.8,8.6,18.8,19C-286.1,127.3-294.7,135.7-305.1,135.6
			 M-252.6,97.8v8.3c-5.9,0-10.6,4.7-10.6,10.6c0,5.9,4.7,10.6,10.6,10.6v8.3h-1.5c-5,0.1-9.8-2.1-13.1-5.9c-3-3.7-4.5-8.3-4.5-13
			c-0.2-4.7,1.5-9.3,4.6-12.8c3.3-3.9,8.1-6.2,13.3-6.1L-252.6,97.8z M-252.6,135.6v-8.3c5.9,0,10.6-4.7,10.7-10.5
			c0-5.9-4.7-10.6-10.5-10.7l0,0h-0.1v-8.3c4.3,0.4,8.3,2.6,10.8,6.1v-5h7.8v35.5h-7.8v-4.7C-244.5,133-248.4,135.1-252.6,135.6
			 M-229.7,134.4h8.6v-19.1c-0.6-2.8,0.4-5.6,2.5-7.5c1.5-1.1,3.4-1.7,5.3-1.7v-8.3h-0.6c-3.2-0.1-6.3,1.5-7.9,4.3v-3.2h-7.9
			L-229.7,134.4z"/>
	</g>
	<path id="Path_6" class="st1" d="M79.8,498l3.1-9.2l0.3-0.1c24.2-13,36.5-23.9,36.5-32.6c0.1-2.6-1-5.1-2.9-6.8
		c-1.9-1.9-4.5-2.9-7.1-2.8c-6.7-0.7-12.8,3.8-14.2,10.3l-0.2,0.6h-4.4l1.7-12.6l0.5-0.1c5.8-1.6,11.9-2.5,17.9-2.7
		c5.2-0.3,10.4,1,14.9,3.6c3.6,2,5.8,5.8,5.7,10c0,4.4-2,8.6-5.3,11.5c-7.6,6-15.8,11.4-24.3,16.1l-9.5,5.6h35.4l-3.7,9.4L79.8,498z
		"/>
</g>
</svg>
