<svg width="284" height="284" viewBox="0 0 284 284" fill="none" xmlns="http://www.w3.org/2000/svg">
<rect width="283.5" height="283.5" fill="#0E2335"/>
<path d="M186.992 77.0244C186.531 76.3842 186.071 75.7951 185.61 75.1805C174.506 60.9151 157.082 53.0269 139.044 54.1026C100.179 55.9722 78.0725 91.4947 76.435 117.746L76 194.118L95.8035 194.938L103.198 194.4V189.585L110.797 189.226V184.386L118.575 184.053V180.006L120.75 180.39C122.746 180.826 124.767 181.133 126.788 181.338C131.138 181.978 135.692 182.567 140.707 183.208C174.659 187.562 203.571 159.108 206.488 129.45C210.096 100.535 193.439 84.9639 186.992 77.0244ZM160.613 116.491C159.461 130.372 148.28 143.485 132.366 143.485C118.882 143.485 107.829 133.189 108.469 116.261C109.108 105.043 118.473 89.8556 135.155 89.0872C149.969 88.3957 161.866 100.202 160.613 116.491Z" fill="url(#paint0_linear_16_249)"/>
<path d="M118.626 184.078L118.549 180.032L101.023 177.138L101.074 182.106L118.626 184.078Z" fill="url(#paint1_linear_16_249)"/>
<path d="M92.6562 182.618L110.848 184.411L118.626 184.078L101.074 182.106L92.6562 182.618Z" fill="url(#paint2_linear_16_249)"/>
<path d="M120.647 180.365L101.074 177.138L109.338 176.472C109.313 176.446 120.647 180.365 120.647 180.365Z" fill="url(#paint3_linear_16_249)"/>
<path d="M139.044 54.1024C100.102 55.9721 77.9702 91.6226 76.4351 117.899C76.4351 152.807 99.0786 181.953 132.903 181.594C171.666 181.235 195.461 148.453 198.071 118.207C200.297 79.944 173.252 52.4633 139.044 54.1024ZM160.613 116.491C159.461 130.372 148.28 143.485 132.366 143.485C118.882 143.485 107.829 133.189 108.469 116.26C109.108 105.043 118.473 89.8554 135.155 89.0871C149.969 88.3956 161.867 100.202 160.613 116.491Z" fill="#EB5D0B"/>
<path d="M137.867 62.887C104.58 64.4749 85.7229 94.952 84.29 117.413C84.29 147.275 102.61 171.939 132.622 171.939C164.272 171.939 186.224 144.176 188.476 117.592C190.369 84.9637 167.214 61.4784 137.867 62.887ZM160.613 116.491C159.462 130.372 148.28 143.485 132.366 143.485C118.882 143.485 107.829 133.189 108.469 116.26C109.108 105.043 118.473 89.8554 135.155 89.0871C149.969 88.3956 161.867 100.202 160.613 116.491Z" fill="#4EBFD9"/>
<path d="M136.946 71.3643C109.313 72.6704 93.4752 98.0253 92.375 116.67C92.375 141.487 107.573 162.335 132.545 162.027C160.075 161.745 176.937 138.465 178.83 116.926C180.416 89.7274 161.201 70.1862 136.946 71.3643ZM160.613 116.491C159.461 130.372 148.28 143.485 132.366 143.485C118.882 143.485 107.829 133.189 108.469 116.26C109.108 105.043 118.473 89.8554 135.155 89.0871C149.969 88.3956 161.866 100.202 160.613 116.491Z" fill="#FFEB00"/>
<path d="M136.076 80.3281C113.944 81.3782 101.33 101.636 100.358 116.593C100.358 136.467 112.127 152.705 132.238 152.705C153.269 152.705 168.109 135.315 169.619 116.798C170.898 95.0032 155.521 79.3805 136.076 80.3281ZM160.613 116.491C159.461 130.372 148.28 143.485 132.366 143.485C118.882 143.485 107.829 133.189 108.468 116.26C109.108 105.043 118.472 89.8554 135.154 89.0871C149.969 88.3956 161.866 100.202 160.613 116.491ZM184.74 215.887V206.283C184.638 205.412 185.277 204.593 186.147 204.49C187.017 204.388 187.836 205.028 187.938 205.899C187.964 206.027 187.964 206.155 187.938 206.283V214.735C187.938 215.016 188.041 215.298 188.22 215.529C190.395 218.423 191.674 219.883 193.49 222.059C193.721 222.341 194.053 222.495 194.437 222.495H194.642C198.377 222.034 201.166 218.884 201.166 215.119V206.129C201.166 205.259 201.883 204.542 202.753 204.542C203.622 204.542 204.339 205.259 204.339 206.129V215.144C204.211 221.137 199.273 225.875 193.286 225.773C192.902 225.799 192.544 225.645 192.288 225.363C189.857 222.572 188.629 221.009 186.761 218.832L185.073 216.656C184.842 216.425 184.74 216.143 184.74 215.887ZM87.7438 207.845C83.7779 208.153 80.6309 211.303 80.3494 215.273C80.3494 219.37 83.6756 222.7 87.7693 222.7C91.8631 222.7 95.1893 219.37 95.1893 215.273C95.1893 211.175 91.8631 207.845 87.7438 207.845C87.7693 207.845 87.7693 207.845 87.7438 207.845ZM78.7887 228.974C77.8676 229 77.1 228.283 77.0488 227.361C77.0488 227.335 77.0488 227.284 77.0488 227.258V215.298C77.3303 209.561 81.9357 204.951 87.667 204.67C93.5262 204.67 98.2852 209.433 98.2852 215.298C98.2852 221.163 93.5262 225.927 87.667 225.927C84.9293 225.927 82.2939 224.877 80.3238 222.956V227.31C80.3494 228.232 79.6074 229 78.6863 229.026H78.6607L78.7887 228.974ZM110.925 207.743C106.831 207.717 103.479 211.021 103.454 215.144C103.428 219.242 106.729 222.597 110.848 222.623C114.942 222.649 118.293 219.345 118.319 215.221C118.319 215.196 118.319 215.196 118.319 215.17C118.319 211.072 114.993 207.743 110.899 207.743H110.925ZM110.925 225.824C105.065 225.824 100.306 221.035 100.332 215.17C100.332 209.305 105.117 204.542 110.976 204.567C116.835 204.567 121.568 209.331 121.568 215.196C121.568 221.061 116.784 225.824 110.925 225.824ZM134.387 225.671C128.528 225.671 123.769 220.933 123.769 215.068V202.826C123.769 201.955 124.485 201.238 125.355 201.238C126.225 201.238 126.941 201.955 126.941 202.826V215.068C126.941 219.165 130.268 222.469 134.336 222.469C135.206 222.469 135.922 223.161 135.922 224.031C135.922 224.928 135.231 225.645 134.336 225.671H134.387ZM145.389 207.743C141.295 207.743 137.943 211.047 137.943 215.144C137.943 219.242 141.244 222.597 145.338 222.597C149.431 222.597 152.783 219.293 152.783 215.196V215.17C152.809 211.072 149.483 207.768 145.389 207.743ZM145.389 225.824C139.53 225.824 134.771 221.061 134.771 215.196C134.771 209.331 139.53 204.567 145.389 204.567C151.248 204.567 156.007 209.331 156.007 215.196C156.007 221.061 151.274 225.824 145.389 225.824ZM173.866 206.565H181.158C182.028 206.462 182.847 207.103 182.949 207.973C183.051 208.844 182.412 209.664 181.542 209.766C181.414 209.792 181.286 209.792 181.158 209.766H173.892V215.17C173.917 219.242 177.243 222.52 181.312 222.52C182.181 222.623 182.821 223.417 182.719 224.313C182.642 225.056 182.054 225.645 181.312 225.722C175.452 225.722 170.693 220.984 170.693 215.119V202.902C170.693 202.032 171.41 201.315 172.28 201.315C173.15 201.315 173.866 202.032 173.866 202.902V206.565Z" fill="#E52821"/>
<path d="M76 194.118L76.435 117.771H84.2898L84.2643 193.657L76 194.118Z" fill="#EB5D0B"/>
<path d="M103.249 194.4V189.585L84.2642 188.279V193.657L103.249 194.4Z" fill="url(#paint4_linear_16_249)"/>
<path d="M76 194.118L95.8035 194.937L103.198 194.4L84.2898 193.657C84.2643 193.657 76 194.118 76 194.118Z" fill="#662618"/>
<path d="M110.874 189.252V184.411L92.6821 182.618L92.7077 187.869C92.6821 187.869 110.874 189.252 110.874 189.252Z" fill="url(#paint5_linear_16_249)"/>
<path d="M84.2642 188.279L103.249 189.585L110.848 189.226L92.6819 187.869C92.7075 187.869 84.2642 188.279 84.2642 188.279Z" fill="url(#paint6_linear_16_249)"/>
<path d="M84.2642 188.279L84.2897 117.771L92.3749 117.695L92.6819 187.843C92.6819 187.869 84.2642 188.279 84.2642 188.279Z" fill="#4EBFD9"/>
<path d="M92.6562 182.618L92.4004 117.72H100.383L101.074 182.106L92.6562 182.618Z" fill="#FFEB00"/>
<path d="M101.049 177.138L100.383 117.72H108.596L109.338 176.472C109.313 176.446 101.049 177.138 101.049 177.138Z" fill="#E52821"/>
<path d="M124.818 123.944C125.432 113.802 134.003 100.023 149.253 99.4083C151.837 99.2802 154.447 99.5876 156.928 100.33C152.323 92.8519 143.956 88.5492 135.206 89.1127C118.524 89.9066 109.134 105.068 108.52 116.286C107.803 133.189 118.857 143.51 132.417 143.51C126.942 138.542 124.127 131.294 124.818 123.944Z" fill="url(#paint7_linear_16_249)"/>
<defs>
<linearGradient id="paint0_linear_16_249" x1="141.497" y1="183.589" x2="141.497" y2="79.1039" gradientUnits="userSpaceOnUse">
<stop stop-color="#662618"/>
<stop offset="0.07" stop-color="#7F2B17"/>
<stop offset="0.19" stop-color="#A43316"/>
<stop offset="0.31" stop-color="#C13A14"/>
<stop offset="0.43" stop-color="#D53E14"/>
<stop offset="0.55" stop-color="#E24113"/>
<stop offset="0.66" stop-color="#E64213"/>
</linearGradient>
<linearGradient id="paint1_linear_16_249" x1="109.839" y1="178.314" x2="108.982" y2="199.694" gradientUnits="userSpaceOnUse">
<stop stop-color="#4D4000"/>
<stop offset="0.08" stop-color="#6A5C00"/>
<stop offset="0.23" stop-color="#978700"/>
<stop offset="0.37" stop-color="#BDAB00"/>
<stop offset="0.52" stop-color="#DAC700"/>
<stop offset="0.66" stop-color="#EEDB00"/>
<stop offset="0.8" stop-color="#FBE700"/>
<stop offset="0.94" stop-color="#FFEB00"/>
</linearGradient>
<linearGradient id="paint2_linear_16_249" x1="92.2675" y1="183.252" x2="143.851" y2="183.252" gradientUnits="userSpaceOnUse">
<stop stop-color="#4D4000"/>
<stop offset="0.27" stop-color="#4F4200"/>
<stop offset="0.41" stop-color="#574A00"/>
<stop offset="0.53" stop-color="#655700"/>
<stop offset="0.62" stop-color="#786900"/>
<stop offset="0.71" stop-color="#918100"/>
<stop offset="0.79" stop-color="#B09F00"/>
<stop offset="0.87" stop-color="#D3C100"/>
<stop offset="0.94" stop-color="#FFEB00"/>
</linearGradient>
<linearGradient id="paint3_linear_16_249" x1="110.223" y1="176.547" x2="113.726" y2="188.655" gradientUnits="userSpaceOnUse">
<stop stop-color="#7A1D16"/>
<stop offset="0.96" stop-color="#C5191D"/>
</linearGradient>
<linearGradient id="paint4_linear_16_249" x1="93.7663" y1="188.981" x2="93.7663" y2="199.829" gradientUnits="userSpaceOnUse">
<stop stop-color="#662618"/>
<stop offset="0.89" stop-color="#E64213"/>
</linearGradient>
<linearGradient id="paint5_linear_16_249" x1="101.759" y1="183.519" x2="101.536" y2="194.689" gradientUnits="userSpaceOnUse">
<stop offset="0.03" stop-color="#033138"/>
<stop offset="0.95" stop-color="#4EBFD9"/>
</linearGradient>
<linearGradient id="paint6_linear_16_249" x1="85.3609" y1="188.731" x2="136.857" y2="188.731" gradientUnits="userSpaceOnUse">
<stop offset="0.03" stop-color="#033138"/>
<stop offset="0.15" stop-color="#06363E"/>
<stop offset="0.3" stop-color="#0E454F"/>
<stop offset="0.47" stop-color="#1B5E6B"/>
<stop offset="0.66" stop-color="#2D8092"/>
<stop offset="0.87" stop-color="#44ACC3"/>
<stop offset="0.95" stop-color="#4EBFD9"/>
</linearGradient>
<linearGradient id="paint7_linear_16_249" x1="108.579" y1="116.276" x2="156.926" y2="116.276" gradientUnits="userSpaceOnUse">
<stop offset="0.04" stop-color="#C5191D"/>
<stop offset="1" stop-color="#7A1D16"/>
</linearGradient>
</defs>
</svg>
