<?xml version="1.0" encoding="UTF-8"?>
<svg xmlns="http://www.w3.org/2000/svg" version="1.1" viewBox="0 0 283.5 283.5">
  <defs>
    <style>
      .cls-1 {
        fill: #f23645;
      }

      .cls-2 {
        fill: #fff;
      }
    </style>
  </defs>
  <!-- Generator: Adobe Illustrator 28.7.1, SVG Export Plug-In . SVG Version: 1.2.0 Build 142)  -->
  <g>
    <g id="Vrstva_1">
      <rect class="cls-1" width="283.5" height="283.5"/>
      <g id="Group_116">
        <path id="Path_2" class="cls-2" d="M81.3,98.6h3.7c1.4,0,2.8-.6,3.7-1.8,1-1.4,1.5-3.1,1.4-4.8,0-1.7-.4-3.5-1.4-4.9-.9-1.2-2.2-1.9-3.7-1.8h-3.7c-.1,0-.3,0-.3.2,0,0,0,0,0,0v12.7c0,.1,0,.3.2.3,0,0,0,0,0,0"/>
        <path id="Path_3" class="cls-2" d="M111.3,85.4h-3.8c-.1,0-.3,0-.3.2,0,0,0,0,0,0v12.3c0,.1,0,.3.2.3,0,0,0,0,0,0h3.8c1.4,0,2.8-.6,3.6-1.7,1-1.4,1.5-3,1.4-4.7,0-1.7-.4-3.4-1.4-4.7-.9-1.1-2.2-1.8-3.6-1.8"/>
        <path id="Path_4" class="cls-2" d="M138.4,89.5c0-.1-.1-.2-.2-.2s-.1,0-.2.2l-3.5,19.5c0,.2,0,.3.3.3h6.9c.2,0,.3-.1.3-.3l-3.6-19.5Z"/>
        <path id="Path_5" class="cls-2" d="M181.2,53.4H53.4v127.8c0,27,21.9,48.9,48.9,48.9,13,0,25.4-5.2,34.5-14.3,9.2-9.1,14.4-21.6,14.3-34.6v-30h30c27,0,48.9-21.9,48.9-48.9,0-13-5.2-25.4-14.3-34.5-9.1-9.2-21.6-14.4-34.6-14.3M73.9,79.9c0-.4.3-.7.7-.7,0,0,0,0,0,0h11.6c2,0,4.1.5,5.8,1.6,1.7,1.1,3,2.7,3.9,4.5,1,2.1,1.4,4.3,1.4,6.6.2,3.2-.9,6.4-2.9,9-1.9,2.3-4.8,3.5-7.8,3.4h-5.3c-.1,0-.3,0-.3.2,0,0,0,0,0,0v17.2c0,.4-.3.7-.7.7,0,0,0,0,0,0h-5.7c-.4,0-.7-.3-.7-.7,0,0,0,0,0,0v-41.9ZM122.2,135.1l-8.9,41.8c0,.4-.4.7-.8.7,0,0,0,0,0,0h-6.3c-.4,0-.8-.3-.8-.7,0,0,0,0,0,0l-7.7-36.4h-7.7c-.1,0-.3,0-.3.2,0,0,0,0,0,0v36c0,.4-.3.7-.7.7,0,0,0,0,0,0h-5.7c-.4,0-.7-.3-.7-.7,0,0,0,0,0,0v-36.1c0-.1,0-.3-.2-.3,0,0,0,0,0,0h-7.4c-.4,0-.7-.3-.7-.7,0,0,0,0,0,0v-4.7c0-.4.3-.7.7-.7,0,0,0,0,0,0h28.7c.4,0,.7.2.8.6,0,0,0,0,0,.1l5.1,29.7c0,.1.1.2.2.2s.1,0,.2-.2l5-29.7c0-.4.3-.7.7-.7,0,0,0,0,.1,0h6.1c.5,0,.7.3.6.8M123.1,122.5h-5.9c-.4,0-.7-.2-.8-.6l-5.3-17.7c0-.2-.2-.2-.3-.2h-3.3c-.1,0-.3,0-.3.2,0,0,0,0,0,0v17.6c0,.4-.3.7-.7.7,0,0,0,0,0,0h-5.7c-.4,0-.7-.3-.7-.7,0,0,0,0,0,0v-41.8c0-.4.3-.7.7-.7,0,0,0,0,0,0h11.6c4.1-.1,8,2.3,9.7,6,1,2.1,1.4,4.3,1.4,6.6,0,2.3-.4,4.6-1.5,6.6-.9,1.8-2.4,3.3-4.2,4.2-.2,0-.2.2-.2.4l6.1,18.6c0,0,0,.2,0,.3,0,.4-.2.6-.7.6M151.5,121.9c0,.4-.2.6-.7.6h-5.7c-.4,0-.7-.2-.8-.6,0,0,0,0,0-.1l-1.2-6.5c0-.2-.1-.3-.4-.3h-9c-.2,0-.4.1-.4.3l-1.2,6.5c0,.4-.3.7-.7.7,0,0,0,0-.1,0h-5.6c-.6,0-.8-.3-.7-.8l9.2-41.8c0-.4.4-.7.8-.7,0,0,0,0,0,0h6.6c.4,0,.8.3.8.7,0,0,0,0,0,0l9.1,41.8v.3ZM177.3,121.8c0,.4-.3.7-.7.7,0,0,0,0,0,0h-5.7c-.4,0-.7-.3-.7-.7,0,0,0,0,0,0v-17.5c0-.1,0-.3-.2-.3,0,0,0,0,0,0h-7.9c-.1,0-.3,0-.3.2,0,0,0,0,0,0v17.5c0,.4-.3.7-.7.7h-5.7c-.4,0-.7-.3-.7-.7,0,0,0,0,0,0v-41.8c0-.4.3-.7.7-.7,0,0,0,0,0,0h5.7c.4,0,.7.3.7.7,0,0,0,0,0,0v17.4c0,.1,0,.3.2.3,0,0,0,0,0,0h7.9c.1,0,.3,0,.3-.2,0,0,0,0,0,0v-17.4c0-.4.3-.7.7-.7,0,0,0,0,0,0h5.7c.4,0,.7.3.7.7,0,0,0,0,0,0v41.8ZM206.7,121.9c0,.4-.2.6-.7.6h-5.7c-.4,0-.7-.2-.8-.6,0,0,0,0,0-.1l-1.2-6.5c0-.2-.1-.3-.4-.3h-9c-.2,0-.4.1-.4.3l-1.2,6.5c0,.4-.3.7-.7.7,0,0,0,0-.1,0h-5.6c-.6,0-.8-.3-.7-.8l9.2-41.8c0-.4.4-.7.8-.7,0,0,0,0,0,0h6.6c.4,0,.8.3.8.7,0,0,0,0,0,0l9.1,41.8v.3Z"/>
        <path id="Path_6" class="cls-2" d="M193.6,89.5c0-.1-.1-.2-.2-.2s-.1,0-.2.2l-3.5,19.5c0,.2,0,.3.3.3h6.9c.2,0,.3-.1.3-.3l-3.6-19.5Z"/>
      </g>
    </g>
  </g>
</svg>