<?xml version="1.0" encoding="UTF-8"?>
<svg xmlns="http://www.w3.org/2000/svg" xmlns:xlink="http://www.w3.org/1999/xlink" version="1.1" viewBox="0 0 1024 1024">
  <defs>
    <style>
      .cls-1 {
        fill: #fff;
      }

      .cls-1, .cls-2, .cls-3 {
        fill-rule: evenodd;
      }

      .cls-4 {
        fill: url(#Nepojmenovaný_přechod_3-2);
      }

      .cls-5 {
        fill: url(#Nepojmenovaný_přechod_14-4);
      }

      .cls-6 {
        fill: url(#Nepojmenovaný_přechod_14-7);
      }

      .cls-7 {
        fill: url(#Nepojmenovaný_přechod_14-2);
      }

      .cls-8 {
        fill: url(#Nepojmenovaný_přechod_14-5);
      }

      .cls-9 {
        fill: url(#Nepojmenovaný_přechod_14-3);
      }

      .cls-10 {
        fill: url(#Nepojmenovaný_přechod_14-8);
      }

      .cls-11 {
        fill: url(#Nepojmenovaný_přechod_14-6);
      }

      .cls-12 {
        fill: url(#Nepojmenovaný_přechod_14-9);
      }

      .cls-13 {
        fill: url(#Nepojmenovaný_přechod_14);
      }

      .cls-14 {
        fill: url(#Nepojmenovaný_přechod_14-12);
      }

      .cls-15 {
        fill: url(#Nepojmenovaný_přechod_14-10);
      }

      .cls-16 {
        fill: url(#Nepojmenovaný_přechod_14-11);
      }

      .cls-17 {
        fill: url(#Nepojmenovaný_přechod_3);
      }

      .cls-18 {
        fill: url(#Nepojmenovaný_přechod_2);
      }

      .cls-19, .cls-3 {
        fill: #002f56;
      }
    </style>
    <linearGradient id="Nepojmenovaný_přechod_3" data-name="Nepojmenovaný přechod 3" x1="0" y1="512" x2="1024" y2="512" gradientUnits="userSpaceOnUse">
      <stop offset="0" stop-color="#001d34"/>
      <stop offset=".2" stop-color="#002645"/>
      <stop offset=".3" stop-color="#002e52"/>
      <stop offset="1" stop-color="#002f56"/>
    </linearGradient>
    <linearGradient id="Nepojmenovaný_přechod_3-2" data-name="Nepojmenovaný přechod 3" x1="121.9" y1="550.4" x2="123" y2="550.4" gradientTransform="translate(-98162.6 76981) scale(806.1 -138.9)" xlink:href="#Nepojmenovaný_přechod_3"/>
    <linearGradient id="Nepojmenovaný_přechod_2" data-name="Nepojmenovaný přechod 2" x1="121.9" y1="546.4" x2="123" y2="546.4" gradientTransform="translate(-41102 34682.4) scale(341.4 -62.5)" gradientUnits="userSpaceOnUse">
      <stop offset="0" stop-color="#9e1d37"/>
      <stop offset=".7" stop-color="#932136"/>
      <stop offset=".8" stop-color="#752432"/>
      <stop offset="1" stop-color="#51252b"/>
    </linearGradient>
    <linearGradient id="Nepojmenovaný_přechod_14" data-name="Nepojmenovaný přechod 14" x1="117.3" y1="558.2" x2="118.4" y2="558.2" gradientTransform="translate(-34055.1 -22030.9) rotate(-45) scale(72.4)" gradientUnits="userSpaceOnUse">
      <stop offset="0" stop-color="#cfd1d2"/>
      <stop offset=".5" stop-color="#fff"/>
      <stop offset="1" stop-color="#cfd1d2"/>
    </linearGradient>
    <linearGradient id="Nepojmenovaný_přechod_14-2" data-name="Nepojmenovaný přechod 14" x1="117.7" y1="557.9" x2="118.8" y2="557.9" gradientTransform="translate(-36778.6 -23798.4) rotate(-45) scale(78.2)" xlink:href="#Nepojmenovaný_přechod_14"/>
    <linearGradient id="Nepojmenovaný_přechod_14-3" data-name="Nepojmenovaný přechod 14" x1="117.8" y1="558" x2="118.9" y2="558" gradientTransform="translate(-36674.5 -23791.8) rotate(-45) scale(78.2)" xlink:href="#Nepojmenovaný_přechod_14"/>
    <linearGradient id="Nepojmenovaný_přechod_14-4" data-name="Nepojmenovaný přechod 14" x1="117.6" y1="558.3" x2="118.7" y2="558.3" gradientTransform="translate(-34125.7 -22206.3) rotate(-45) scale(73)" xlink:href="#Nepojmenovaný_přechod_14"/>
    <linearGradient id="Nepojmenovaný_přechod_14-5" data-name="Nepojmenovaný přechod 14" x1="117.5" y1="558.2" x2="118.6" y2="558.2" gradientTransform="translate(-34785.1 -22558.4) rotate(-45) scale(74.1)" xlink:href="#Nepojmenovaný_přechod_14"/>
    <linearGradient id="Nepojmenovaný_přechod_14-6" data-name="Nepojmenovaný přechod 14" x1="117.3" y1="557.5" x2="118.4" y2="557.5" gradientTransform="translate(-37198.6 -23798.4) rotate(-45) scale(78.2)" xlink:href="#Nepojmenovaný_přechod_14"/>
    <linearGradient id="Nepojmenovaný_přechod_14-7" data-name="Nepojmenovaný přechod 14" x1="117.3" y1="557.5" x2="118.4" y2="557.5" gradientTransform="translate(-37144.4 -23791.8) rotate(-45) scale(78.2)" xlink:href="#Nepojmenovaný_přechod_14"/>
    <linearGradient id="Nepojmenovaný_přechod_14-8" data-name="Nepojmenovaný přechod 14" x1="117.6" y1="557.4" x2="118.7" y2="557.4" gradientTransform="translate(-38636.3 -24777.9) rotate(-45) scale(81.4)" xlink:href="#Nepojmenovaný_přechod_14"/>
    <linearGradient id="Nepojmenovaný_přechod_14-9" data-name="Nepojmenovaný přechod 14" x1="118.2" y1="556.9" x2="119.3" y2="556.9" gradientTransform="translate(-44916.7 -28819.1) rotate(-45) scale(94.7)" xlink:href="#Nepojmenovaný_přechod_14"/>
    <linearGradient id="Nepojmenovaný_přechod_14-10" data-name="Nepojmenovaný přechod 14" x1="116.3" y1="558.7" x2="117.4" y2="558.7" gradientTransform="translate(-29053 -18727.7) rotate(-45) scale(61.6)" xlink:href="#Nepojmenovaný_přechod_14"/>
    <linearGradient id="Nepojmenovaný_přechod_14-11" data-name="Nepojmenovaný přechod 14" x1="117.7" y1="557.5" x2="118.8" y2="557.5" gradientTransform="translate(-38504 -24777.9) rotate(-45) scale(81.4)" xlink:href="#Nepojmenovaný_přechod_14"/>
    <linearGradient id="Nepojmenovaný_přechod_14-12" data-name="Nepojmenovaný přechod 14" x1="117.6" y1="557.8" x2="118.7" y2="557.8" gradientTransform="translate(-36910 -23787.8) rotate(-45) scale(78.2)" xlink:href="#Nepojmenovaný_přechod_14"/>
  </defs>
  <!-- Generator: Adobe Illustrator 28.7.1, SVG Export Plug-In . SVG Version: 1.2.0 Build 142)  -->
  <g>
    <g id="Vrstva_1">
      <rect class="cls-17" width="1024" height="1024"/>
      <g>
        <path class="cls-3" d="M933.5,445.5c7.7,0,15.3,4.3,19.4,10.8,2.9,4.7,4.1,10.4,3.2,15.8-4.4,26.9-9,53.9-13.6,80.8-2.5,13.8-15,25.1-29.4,25.7-.3,0-.7,0-1,0h-82.1c-13.2,0-24.8-12.7-22.6-26.7,4.4-26.9,9-53.9,13.6-80.8,2.5-14.1,15.7-25.7,30.4-25.7h82.1M851.6,450c-12.3,0-23.9,9.3-26.2,21.9-4.6,26.9-9.1,53.8-13.6,80.7-1.6,10.4,6.9,21.5,18.1,21.5h82c12.3,0,23.8-9.5,26-22,4.6-26.9,9.1-53.8,13.6-80.7,1.6-10.4-6.7-21.4-18.1-21.4h-81.8,0Z"/>
        <path class="cls-4" d="M112.2,447.7c-14.1,0-26.1,10.1-28.4,24-3.8,23-9.7,57.4-13.5,80.4-1,6,.7,12.2,4.6,16.8,3.9,4.7,9.8,7.3,15.9,7.3h819.5c14.1,0,26.1-10.1,28.4-24,3.9-23,9.7-57.4,13.5-80.4,1-6-.7-12.2-4.6-16.8-3.9-4.7-9.7-7.3-15.8-7.3H112.2Z"/>
        <path class="cls-3" d="M932.9,445.5c7.7,0,15.3,4.3,19.4,10.8,2.9,4.7,4.1,10.4,3.2,15.8-4.4,26.9-9,53.9-13.6,80.8-2.5,13.8-15,25.1-29.4,25.7-.3,0-.7,0-1,0-225.6.6-595.3.8-820.9,0-13.2-.1-24.8-12.7-22.6-26.7,4.4-26.9,9-53.9,13.6-80.8,2.5-14.1,15.7-25.6,30.4-25.7,225.6-.7,595.3-.8,820.9,0M112.1,450c-12.3,0-23.9,9.3-26.1,22-4.6,26.9-9.2,53.8-13.6,80.7-1.7,10.4,6.9,21.3,18.1,21.5,225.6.8,593.1.6,818.7,0,12.3-.1,23.8-9.5,26-22,4.6-26.9,9.2-53.8,13.6-80.7,1.6-10.4-6.7-21.3-18.2-21.5-225.5-.8-593,0-818.6,0"/>
        <path class="cls-18" d="M524.1,453.1l-21.8,118.1c92.3,0,253.9.3,346.2,0,12.2,0,23.7-9.4,25.9-21.8,4.4-24.9,8.8-49.8,13-74.8,1.7-10.5-6.8-21.4-18.1-21.5-30.7-.1-69-.2-109.9-.2-81.9,0-174,.2-235.3.2"/>
        <g>
          <path d="M557.8,480.9c-4,0-7.4,1.2-10.2,3.6-2.8,2.4-4.5,5.7-5.3,9.7l-2.1,11.7c-.6,3.6,0,6.7,2.2,9.2,2.1,2.5,5.3,4.2,9.4,5.2l17.1,3.9c1,.2,1.6.6,1.9.9.3.4.4,1,.2,2l-1.3,7.6c-.4,2.5-1.8,3.8-4.3,3.8h-14.8c-1,0-1.7-.2-2-.6-.2-.4-.3-1.1-.1-2.2l1.2-6.8h-13.7l-1.5,8.5c-.7,4.2,0,7.6,2.2,10.3,2.2,2.7,5.3,4.1,9.4,4.1h21.6c4,0,7.4-1.2,10.2-3.6,2.8-2.4,4.5-5.7,5.3-9.8l2.2-12.5c.7-3.6,0-6.7-2.1-9.2-2.2-2.5-5.3-4.2-9.6-5.2l-17.1-3.9c-1-.2-1.6-.5-1.9-.9-.3-.3-.4-1-.2-2l1.2-6.8c.4-2.5,1.8-3.8,4.3-3.8h13.7c1,0,1.6.2,1.9.6.3.4.3,1.1.1,2.2l-1.1,6h13.7l1.4-7.7c.7-4.2,0-7.6-2.3-10.3-2.1-2.7-5.2-4.1-9.3-4.1h-20.4,0Z"/>
          <path d="M598.5,481.2l-12.3,70.3h14.1l4.3-24.8h21.8c4,0,7.5-1.2,10.3-3.6,2.8-2.4,4.5-5.7,5.2-9.8l3.2-17.8c.7-4.1-.1-7.5-2.3-10.3s-5.3-4.1-9.3-4.1h-34.9,0ZM610.2,494.5h18.2c1,0,1.7.2,2,.6.3.4.4,1.1.1,2.2l-2.2,12.3c-.5,2.5-1.9,3.8-4.3,3.8h-17.2l3.3-19h0Z"/>
          <path d="M706.8,481.2l-12.3,70.3h14.1l4.6-26h10.9l6.5,26h14.7l-6.8-26.4c6.6-1.6,10.5-5.9,11.8-13l2.9-16.5c.7-4.2,0-7.6-2.2-10.3-2.2-2.7-5.3-4.1-9.4-4.1h-34.8ZM718.5,494.5h18.1c1,0,1.7.2,2,.6.3.4.3,1.1.1,2.2l-2,11.2c-.5,2.5-2,3.8-4.3,3.8h-17.1l3.1-17.9h0Z"/>
          <path d="M756.3,481.2l-2.3,13.1h17.9l-10,57.2h14l10.1-57.2h17.9l2.2-13.1h-49.8Z"/>
          <path d="M682.2,480.9l-2.3,13.3h2.6c1,0,1.6.2,1.9.6.3.4.3,1.1.1,2.2l-6.7,37.9c-.4,2.5-1.8,3.8-4.2,3.8h-1.5l-2.3,13.3h6c4,0,7.4-1.2,10.1-3.6,2.8-2.4,4.6-5.7,5.3-9.8l7.6-43.3c.7-4.2,0-7.6-2.3-10.3-2.2-2.7-5.2-4.1-9.3-4.1h-5.2ZM664.2,480.9c-4,0-7.4,1.2-10.2,3.6-2.8,2.4-4.5,5.7-5.3,9.7l-7.6,43.3c-.8,4.2,0,7.6,2.1,10.3,2.3,2.7,5.4,4.1,9.4,4.1h6.3l2.3-13.3h-3.6c-1,0-1.8-.2-2-.6-.3-.4-.4-1.1-.2-2.2l6.6-37.9c.5-2.5,2-3.8,4.3-3.8h2.6l2.3-13.3h-7.1,0Z"/>
        </g>
        <g>
          <path class="cls-13" d="M555.6,478.7c-4,0-7.4,1.2-10.2,3.6-2.8,2.4-4.5,5.7-5.3,9.7l-2.1,11.7c-.6,3.6,0,6.7,2.2,9.2,2.1,2.5,5.3,4.2,9.4,5.2l17.1,3.9c1,.2,1.6.6,1.9.9.3.4.4,1,.2,2l-1.3,7.6c-.4,2.5-1.8,3.8-4.3,3.8h-14.8c-1,0-1.7-.2-2-.6-.2-.4-.3-1.1-.1-2.2l1.2-6.8h-13.7l-1.5,8.5c-.7,4.2,0,7.6,2.2,10.3,2.2,2.7,5.3,4.1,9.4,4.1h21.6c4,0,7.4-1.2,10.2-3.6,2.8-2.4,4.5-5.7,5.3-9.8l2.2-12.5c.7-3.6,0-6.7-2.1-9.2-2.2-2.5-5.3-4.2-9.6-5.2l-17.1-3.9c-1-.2-1.6-.5-1.9-.9-.3-.3-.4-1-.2-2l1.2-6.8c.4-2.5,1.8-3.8,4.3-3.8h13.7c1,0,1.6.2,1.9.6.3.4.3,1.1.1,2.2l-1.1,6h13.7l1.4-7.7c.7-4.2,0-7.6-2.3-10.3-2.1-2.7-5.2-4.1-9.3-4.1h-20.4,0Z"/>
          <path class="cls-7" d="M596.3,479l-12.3,70.3h14.1l4.3-24.8h21.8c4,0,7.5-1.2,10.3-3.6,2.8-2.4,4.5-5.7,5.2-9.8l3.2-17.8c.7-4.1-.1-7.5-2.3-10.3s-5.3-4.1-9.3-4.1h-34.9,0ZM608,492.3h18.2c1,0,1.7.2,2,.6.3.4.4,1.1.1,2.2l-2.2,12.3c-.5,2.5-1.9,3.8-4.3,3.8h-17.2l3.3-19h0Z"/>
          <path class="cls-9" d="M704.6,479l-12.3,70.3h14.1l4.6-26h10.9l6.5,26h14.7l-6.8-26.4c6.6-1.6,10.5-5.9,11.8-13l2.9-16.5c.7-4.2,0-7.6-2.2-10.3-2.2-2.7-5.3-4.1-9.4-4.1h-34.8ZM716.2,492.3h18.1c1,0,1.7.2,2,.6.3.4.3,1.1.1,2.2l-2,11.2c-.5,2.5-2,3.8-4.3,3.8h-17.1l3.1-17.9h0Z"/>
          <path class="cls-5" d="M754,479l-2.3,13.1h17.9l-10,57.2h14l10.1-57.2h17.9l2.2-13.1h-49.8Z"/>
          <path class="cls-8" d="M680,478.7l-2.3,13.3h2.6c1,0,1.6.2,1.9.6.3.4.3,1.1.1,2.2l-6.7,37.9c-.4,2.5-1.8,3.8-4.2,3.8h-1.5l-2.3,13.3h6c4,0,7.4-1.2,10.1-3.6,2.8-2.4,4.6-5.7,5.3-9.8l7.6-43.3c.7-4.2,0-7.6-2.3-10.3-2.2-2.7-5.2-4.1-9.3-4.1h-5.2ZM662,478.7c-4,0-7.4,1.2-10.2,3.6-2.8,2.4-4.5,5.7-5.3,9.7l-7.6,43.3c-.8,4.2,0,7.6,2.1,10.3,2.3,2.7,5.4,4.1,9.4,4.1h6.3l2.3-13.3h-3.6c-1,0-1.8-.2-2-.6-.3-.4-.4-1.1-.2-2.2l6.6-37.9c.5-2.5,2-3.8,4.3-3.8h2.6l2.3-13.3h-7.1,0Z"/>
        </g>
        <g>
          <path d="M131.8,481.2l-12.3,70.3h14l4.3-24.8h21.8c4,0,7.5-1.2,10.3-3.6,2.8-2.4,4.5-5.7,5.1-9.8l3.3-17.8c.7-4.1-.1-7.5-2.3-10.3-2.2-2.7-5.3-4.1-9.3-4.1h-34.9,0ZM143.6,494.5h18.2c1,0,1.7.2,2,.6.3.4.3,1.1.1,2.2l-2.2,12.3c-.5,2.5-2,3.8-4.3,3.8h-17.2s3.3-19,3.3-19Z"/>
          <path d="M185,481.2l-12.3,70.3h14.1l4.6-26h10.9l6.5,26h14.8l-6.8-26.4c6.6-1.6,10.5-5.9,11.8-13l2.9-16.5c.7-4.2,0-7.6-2.2-10.3-2.2-2.7-5.3-4.1-9.4-4.1h-34.8,0ZM196.7,494.5h18.1c1,0,1.8.2,2,.6.3.4.4,1.1.2,2.2l-2,11.2c-.5,2.5-2,3.8-4.3,3.8h-17.1l3.1-17.9h0Z"/>
          <path d="M240.7,481.2l-12.3,70.3h45.2l2.3-13.3h-31.2l2.7-16h25.2l2.3-13.3h-25.2l2.5-14.4h31.2l2.3-13.2h0s-45.3,0-45.3,0h0Z"/>
          <path d="M341,481.2l-24.8,41.6-10.2-41.6h-15l-12.3,70.3h13.3l8.4-46.8,8.8,35.6h9.8l20.9-35.6-8.4,46.8h13.3l12.3-70.3h-16,0Z"/>
          <path d="M365.3,481.2l-12.3,70.3h14.1l12.3-70.2h0s-14,0-14,0h0Z"/>
          <path d="M387.7,481.2l-12.3,70.3h45.2l2.4-13.3h-31.2l2.7-16h25.2l2.3-13.3h-25.2l2.5-14.4h31.2l2.3-13.3h-45.3Z"/>
          <path d="M438,481.2l-12.3,70.3h14.1l4.6-26h10.9l6.5,26h14.8l-6.9-26.4c6.6-1.6,10.5-5.9,11.8-13l2.9-16.5c.7-4.2,0-7.6-2.2-10.3-2.2-2.7-5.3-4.1-9.4-4.1h-34.8ZM449.7,494.5h18.1c1,0,1.7.2,2,.6.3.4.3,1.1.1,2.2l-2,11.2c-.5,2.5-2,3.8-4.3,3.8h-17.1l3.1-17.9h0Z"/>
        </g>
        <g>
          <path class="cls-11" d="M129.6,479l-12.3,70.3h14l4.3-24.8h21.8c4,0,7.5-1.2,10.3-3.6,2.8-2.4,4.5-5.7,5.1-9.8l3.3-17.8c.7-4.1-.1-7.5-2.3-10.3-2.2-2.7-5.3-4.1-9.3-4.1h-34.9,0ZM141.4,492.3h18.2c1,0,1.7.2,2,.6.3.4.3,1.1.1,2.2l-2.2,12.3c-.5,2.5-2,3.8-4.3,3.8h-17.2s3.3-19,3.3-19Z"/>
          <path class="cls-6" d="M182.8,479l-12.3,70.3h14.1l4.6-26h10.9l6.5,26h14.8l-6.8-26.4c6.6-1.6,10.5-5.9,11.8-13l2.9-16.5c.7-4.2,0-7.6-2.2-10.3-2.2-2.7-5.3-4.1-9.4-4.1h-34.8,0ZM194.5,492.3h18.1c1,0,1.8.2,2,.6.3.4.4,1.1.2,2.2l-2,11.2c-.5,2.5-2,3.8-4.3,3.8h-17.1l3.1-17.9h0Z"/>
          <path class="cls-10" d="M238.5,479l-12.3,70.3h45.2l2.3-13.3h-31.2l2.7-16h25.2l2.3-13.3h-25.2l2.5-14.4h31.2l2.3-13.2h0s-45.3,0-45.3,0h0Z"/>
          <path class="cls-12" d="M338.8,479l-24.8,41.6-10.2-41.6h-15l-12.3,70.3h13.3l8.4-46.8,8.8,35.6h9.8l20.9-35.6-8.4,46.8h13.3l12.3-70.3h-16,0Z"/>
          <path class="cls-15" d="M363.1,479l-12.3,70.3h14.1l12.3-70.2h0s-14,0-14,0h0Z"/>
          <path class="cls-16" d="M385.4,479l-12.3,70.3h45.2l2.4-13.3h-31.2l2.7-16h25.2l2.3-13.3h-25.2l2.5-14.4h31.2l2.3-13.3h-45.3Z"/>
          <path class="cls-14" d="M435.8,479l-12.3,70.3h14.1l4.6-26h10.9l6.5,26h14.8l-6.9-26.4c6.6-1.6,10.5-5.9,11.8-13l2.9-16.5c.7-4.2,0-7.6-2.2-10.3-2.2-2.7-5.3-4.1-9.4-4.1h-34.8ZM447.5,492.3h18.1c1,0,1.7.2,2,.6.3.4.3,1.1.1,2.2l-2,11.2c-.5,2.5-2,3.8-4.3,3.8h-17.1l3.1-17.9h0Z"/>
        </g>
        <path class="cls-2" d="M866.9,455.3c5.9,0,11.7,3.3,14.8,8.3,2.2,3.6,3,8,2.3,12.2-4.9,27.2-9.9,54.3-15,81.5-1.9,9.8-11.1,17.7-21.4,17.9-225.7,1.9-528.3.7-754,0-10.1-.1-18.9-10-17.1-20.5,4.9-27.2,9.9-54.4,15-81.5,1.9-9.9,11.1-17.8,21.5-17.9,225.6-.7,528.2-.8,753.8,0M113.1,459.8c-8.1,0-15.6,6.1-17.2,14.2-5.1,27.2-10.3,54.3-15,81.5-1.2,7.3,4.7,15,12.6,15.1,225.7,2.3,528.3,1.9,754,0,8-.1,15.4-6.1,17-14.1,5.2-27.1,10.1-54.4,15-81.5,1.3-7.3-4.5-15.1-12.7-15.2-225.6-.9-528.1,0-753.7,0"/>
        <path class="cls-1" d="M864.7,452.7c5.9,0,11.7,3.3,14.8,8.3,2.2,3.6,3,8,2.3,12.2-4.9,27.2-9.9,54.3-15,81.5-1.9,9.8-11.1,17.7-21.4,17.9-225.7,1.9-528.3.7-754,0-10.1-.1-18.9-10-17.1-20.5,4.9-27.2,9.9-54.4,15-81.5,1.9-9.9,11.1-17.8,21.5-17.9,225.6-.7,528.2-.8,753.8,0M110.9,457.2c-8.1,0-15.6,6.1-17.2,14.2-5.1,27.2-10.3,54.3-15,81.5-1.2,7.3,4.7,15,12.6,15.1,225.7,2.3,528.3,1.9,754,0,8-.1,15.4-6.1,17-14.1,5.2-27.1,10.1-54.4,15-81.5,1.3-7.3-4.5-15.1-12.7-15.2-225.6-.9-528.1,0-753.7,0"/>
        <path class="cls-1" d="M909.1,571.4h-76.9c-11.6,0-19.3-9.5-17.1-21.1l14.1-75.7c2.2-11.6,13.4-21.1,25-21.1h76.9c11.6,0,19.3,9.5,17.1,21.1l-14.1,75.7c-2.2,11.6-13.4,21.1-25,21.1"/>
        <path class="cls-2" d="M852.4,454.9c-10.4,0-19.6,8-21.5,17.9-5.1,27.2-10.1,54.3-15,81.5,0,6,7.8,16,17,16-7.9,0-13.8-7.9-12.6-15.1,4.7-27.2,9.9-54.4,15-81.5,1.6-8.1,9.1-14.2,17.2-14.2h82c8.1,0,13.9,7.9,12.7,15.2h1.4c0-11.1-10.3-19.7-14-19.7h-82.1Z"/>
        <path class="cls-1" d="M932.2,452.7c5.9,0,11.7,3.3,14.8,8.3,2.2,3.6,3,8,2.3,12.2-4.9,27.2-9.9,54.3-15,81.5-1.9,9.8-11.1,17.9-21.4,17.9h-82.2c-10.1,0-18.9-10-17.1-20.5,4.9-27.2,9.9-54.3,15-81.5,1.9-9.9,11.1-17.9,21.5-17.9h82.1,0ZM850.2,457.2c-8.1,0-15.6,6.1-17.2,14.2-5.1,27.2-10.3,54.3-15,81.5-1.2,7.3,4.7,15.1,12.6,15.1h82.3c8,0,15.4-6.1,17-14.1,5.2-27.1,10.1-54.3,15-81.5,1.3-7.3-4.5-15.2-12.7-15.2h-82,0Z"/>
        <path d="M878.6,499.6l-.8,4h-14.1l1.5-7.9c.7-4,2.5-7.2,5.4-9.7,3-2.6,6.4-3.9,10.3-3.9h19.5c3.9,0,7,1.5,9.2,4.4,2.3,2.9,3.2,6.3,2.5,10.2l-2.1,11.4c-1,6.3-6.6,11.1-16.7,14.4l-17.7,5.9c-1.5.6-2.5,1.1-3,1.4-.4.4-.7,1.1-.9,2.2l-1.3,7.7h34.2l-2.3,13.3h-48.3l4-23.2c1.1-6.3,6.7-11.1,16.8-14.4l17.8-5.9c1.5-.6,2.5-1,2.8-1.4.4-.4.7-1.1.9-2.2l1.3-7.3c.2-1.3.2-2.2-.1-2.7-.4-.5-1.2-.7-2.4-.7h-11.5c-2.7,0-4.4,1.5-5,4.4"/>
        <path class="cls-19" d="M876.3,497.3l-.8,4h-14.1l1.5-7.9c.7-4,2.5-7.2,5.4-9.7,3-2.6,6.4-3.9,10.3-3.9h19.5c3.9,0,7,1.5,9.2,4.4,2.3,2.9,3.2,6.3,2.5,10.2l-2.1,11.4c-1,6.3-6.6,11.1-16.7,14.4l-17.7,5.9c-1.5.6-2.5,1.1-3,1.4-.4.4-.7,1.1-.9,2.2l-1.3,7.7h34.2l-2.3,13.3h-48.3l4-23.2c1.1-6.3,6.7-11.1,16.8-14.4l17.8-5.9c1.5-.6,2.5-1,2.8-1.4.4-.4.7-1.1.9-2.2l1.3-7.3c.2-1.3.2-2.2-.1-2.7-.4-.5-1.2-.7-2.4-.7h-11.5c-2.7,0-4.4,1.5-5,4.4"/>
      </g>
    </g>
  </g>
</svg>