<?xml version="1.0" encoding="UTF-8"?>
<svg xmlns="http://www.w3.org/2000/svg" xmlns:xlink="http://www.w3.org/1999/xlink" version="1.1" viewBox="0 0 1024 1024">
  <defs>
    <style>
      .cls-1 {
        fill: none;
      }

      .cls-2, .cls-3, .cls-4 {
        fill-rule: evenodd;
      }

      .cls-2, .cls-5 {
        fill: #ffd200;
      }

      .cls-3, .cls-6 {
        fill: #fff;
      }

      .cls-7 {
        fill: #ffd005;
      }

      .cls-8 {
        clip-path: url(#clippath);
      }
    </style>
    <clipPath id="clippath">
      <path class="cls-1" d="M910.4,572.1h-101.4v-120.4l118.8,1.3c12.3,0,20.9,12.2,16.7,23.8l-34.2,95.3Z"/>
    </clipPath>
  </defs>
  <!-- Generator: Adobe Illustrator 28.7.1, SVG Export Plug-In . SVG Version: 1.2.0 Build 142)  -->
  <g>
    <g id="Vrstva_1">
      <rect class="cls-7" width="1024" height="1024"/>
      <g>
        <path class="cls-5" d="M112.3,448.1c-14.1,0-26.1,10.1-28.4,23.8-3.8,22.8-9.7,57-13.5,79.9-1,6,.7,12.1,4.6,16.7,3.9,4.7,9.8,7.3,15.9,7.3h820c14.1,0,26.1-10.1,28.4-23.8,3.9-22.8,9.7-57,13.6-79.9,1-6-.7-12.1-4.6-16.7-3.9-4.6-9.7-7.3-15.8-7.3H112.3s0,0,0,0Z"/>
        <path class="cls-2" d="M933.4,445.9c7.7,0,15.3,4.2,19.4,10.8,2.9,4.6,4.1,10.3,3.2,15.7-4.4,26.8-9,53.5-13.6,80.2-2.5,13.8-15,24.9-29.4,25.5-.3,0-.7,0-1,0-225.7.6-595.7.8-821.4,0-13.2-.1-24.8-12.7-22.6-26.5,4.4-26.8,9-53.5,13.6-80.2,2.5-14,15.7-25.4,30.5-25.5,225.7-.7,595.7-.8,821.4,0M112.2,450.4c-12.3,0-23.9,9.2-26.2,21.8-4.6,26.7-9.2,53.4-13.6,80.2-1.7,10.3,6.9,21.2,18.2,21.3,225.7.8,593.5.6,819.2,0,12.3-.1,23.8-9.4,26-21.8,4.6-26.7,9.2-53.4,13.6-80.2,1.6-10.3-6.7-21.2-18.2-21.3-225.7-.8-593.4,0-819.1,0"/>
        <path d="M869.9,453.5c-20.8,0-284.1,0-345.4,0h0s-21.8,117.3-21.8,117.3c77.1,0,331.2,0,346.4,0,12.3,0,23.7-9.3,26-21.7,4.4-24.7,8.8-49.5,13-74.3,1.7-10.4-6.8-21.3-18.1-21.4Z"/>
        <g>
          <path class="cls-6" d="M555.9,478.9c-4,0-7.4,1.2-10.2,3.6-2.8,2.4-4.5,5.6-5.3,9.7l-2.1,11.6c-.6,3.6,0,6.7,2.2,9.2,2.1,2.5,5.3,4.2,9.4,5.2l17.1,3.9c1,.2,1.6.6,1.9.9.3.4.4,1,.2,2l-1.3,7.6c-.4,2.5-1.8,3.8-4.3,3.8h-14.8c-1,0-1.7-.2-2-.6-.2-.4-.3-1.1-.1-2.2l1.2-6.7h-13.7l-1.5,8.4c-.7,4.1,0,7.5,2.2,10.2,2.2,2.7,5.3,4.1,9.4,4.1h21.6c4,0,7.4-1.2,10.2-3.6,2.8-2.4,4.5-5.6,5.3-9.7l2.2-12.4c.7-3.6,0-6.7-2.1-9.1-2.2-2.4-5.3-4.2-9.6-5.2l-17.1-3.9c-1-.2-1.6-.5-1.9-.9-.3-.3-.4-1-.2-2l1.2-6.8c.4-2.5,1.8-3.8,4.3-3.8h13.7c1,0,1.6.2,1.9.6.3.4.3,1.1.1,2.2l-1.1,5.9h13.7l1.4-7.7c.7-4.1,0-7.5-2.3-10.2-2.1-2.7-5.2-4.1-9.3-4.1h-20.4Z"/>
          <path class="cls-6" d="M596.6,479.2l-12.3,69.8h14.1l4.3-24.6h21.8c4,0,7.5-1.2,10.3-3.6,2.8-2.4,4.5-5.6,5.2-9.7l3.2-17.6c.7-4.1-.1-7.5-2.3-10.2-2.2-2.7-5.3-4.1-9.3-4.1h-34.9ZM608.4,492.4h18.2c1,0,1.7.2,2,.6.3.4.4,1.1.1,2.2l-2.2,12.2c-.5,2.5-1.9,3.8-4.3,3.8h-17.2l3.3-18.8h0Z"/>
          <path class="cls-6" d="M705,479.2l-12.3,69.8h14.1l4.6-25.9h10.9l6.5,25.9h14.7l-6.8-26.3c6.6-1.6,10.5-5.9,11.8-12.9l2.9-16.4c.7-4.1,0-7.5-2.2-10.2-2.2-2.7-5.3-4.1-9.4-4.1h-34.8s0,0,0,0ZM716.7,492.4h18.1c1,0,1.7.2,2,.6.3.4.3,1.1.1,2.2l-2,11.2c-.5,2.5-2,3.8-4.3,3.8h-17.1l3.1-17.8h0s0,0,0,0Z"/>
          <path class="cls-6" d="M754.5,479.2l-2.3,13h17.9l-10.1,56.8h14l10.1-56.8h17.9l2.2-13h-49.8,0Z"/>
          <path class="cls-6" d="M680.4,478.9l-2.3,13.2h2.6c1,0,1.6.2,1.9.6.3.4.3,1.1.1,2.2l-6.7,37.6c-.4,2.5-1.8,3.8-4.2,3.8h-1.5l-2.3,13.2h6c4,0,7.4-1.2,10.2-3.6,2.8-2.4,4.6-5.6,5.3-9.7l7.6-43.1c.7-4.1,0-7.5-2.3-10.2-2.2-2.7-5.2-4.1-9.3-4.1h-5.2s0,0,0,0ZM662.4,478.9c-4,0-7.4,1.2-10.2,3.6-2.8,2.4-4.5,5.6-5.3,9.7l-7.6,43.1c-.8,4.1,0,7.5,2.1,10.2,2.3,2.7,5.4,4.1,9.4,4.1h6.3l2.3-13.2h-3.6c-1,0-1.8-.2-2-.6-.3-.4-.4-1.1-.2-2.2l6.6-37.6c.5-2.5,2-3.8,4.3-3.8h2.6l2.3-13.2h-7.1s0,0,0,0Z"/>
        </g>
        <g>
          <path d="M129.7,479.2l-12.3,69.8h14l4.3-24.6h21.8c4,0,7.5-1.2,10.3-3.6,2.8-2.4,4.5-5.6,5.1-9.7l3.3-17.6c.7-4.1-.1-7.5-2.3-10.2-2.2-2.7-5.3-4.1-9.3-4.1h-34.9ZM141.4,492.4h18.2c1,0,1.7.2,2,.6.3.4.3,1.1.1,2.2l-2.2,12.2c-.5,2.5-2,3.8-4.3,3.8h-17.2l3.3-18.8h0Z"/>
          <path d="M182.9,479.2l-12.3,69.8h14.1l4.6-25.9h10.9l6.5,25.9h14.8l-6.8-26.3c6.6-1.6,10.5-5.9,11.8-12.9l2.9-16.4c.7-4.1,0-7.5-2.2-10.2-2.2-2.7-5.3-4.1-9.4-4.1h-34.8s0,0,0,0ZM194.6,492.4h18.1c1,0,1.8.2,2,.6.3.4.4,1.1.2,2.2l-2,11.2c-.5,2.5-2,3.8-4.3,3.8h-17.1l3.1-17.8h0s0,0,0,0Z"/>
          <path d="M238.6,479.2l-12.3,69.8h45.3l2.3-13.2h-31.2l2.7-15.9h25.2l2.3-13.2h-25.2l2.5-14.4h31.2l2.3-13.2h0s-45.3,0-45.3,0h0s0,0,0,0Z"/>
          <path d="M339,479.2l-24.8,41.3-10.2-41.3h-15l-12.3,69.8h13.3l8.4-46.5,8.8,35.4h9.8l20.9-35.4-8.4,46.5h13.3l12.3-69.8s-16,0-16,0Z"/>
          <path d="M363.3,479.2l-12.3,69.8h14.1l12.3-69.8h0s-14.1,0-14.1,0h0Z"/>
          <path d="M385.7,479.2l-12.3,69.8h45.3l2.4-13.2h-31.2l2.7-15.9h25.2l2.3-13.2h-25.2l2.5-14.4h31.2l2.3-13.2h-45.3s0,0,0,0Z"/>
          <path d="M436,479.2l-12.3,69.8h14.1l4.6-25.9h10.9l6.5,25.9h14.8l-6.9-26.3c6.6-1.6,10.5-5.9,11.8-12.9l2.9-16.4c.7-4.1,0-7.5-2.2-10.2-2.2-2.7-5.3-4.1-9.4-4.1h-34.8s0,0,0,0ZM447.7,492.4h18.1c1,0,1.7.2,2,.6.3.4.3,1.1.1,2.2l-2,11.2c-.5,2.5-2,3.8-4.3,3.8h-17.1l3.1-17.8h0s0,0,0,0Z"/>
        </g>
        <path class="cls-4" d="M947.5,461.3c-3.1-5-8.9-8.2-14.8-8.3h0c-24.7,0-620.7-.6-821.8,0-10.4,0-19.6,7.9-21.5,17.8-5.1,27-10.1,54-15,81-1.8,10.4,7,20.2,17.1,20.3,207.2.6,803.4.2,822,0,10.3-.1,19.5-8,21.4-17.8,5.1-27,10.1-54,15-80.9.7-4.1,0-8.5-2.3-12.1h0ZM945.3,472.7c-4.9,27-9.8,54-15,81-1.6,7.9-9,13.9-17,14-18.6.2-614.7,2.1-822,0-7.9-.1-13.8-7.8-12.6-15,4.7-27,9.9-54,15-81,1.5-8.1,9.1-14.1,17.2-14.1h0c201.1,0,797,0,821.7,0,8.1,0,14,7.8,12.7,15.1Z"/>
        <path class="cls-3" d="M909.6,571h-76.9c-11.6,0-19.3-9.4-17.1-20.9l14.1-75.2c2.2-11.5,13.4-20.9,25-20.9h76.9c11.6,0,19.3,9.4,17.1,20.9l-14.1,75.2c-2.2,11.5-13.4,20.9-25,20.9"/>
        <path class="cls-3" d="M932.7,453c5.9,0,11.7,3.3,14.8,8.3,2.2,3.6,3,7.9,2.3,12.1-4.9,27-9.9,54-15,80.9-1.9,9.8-11.1,17.8-21.4,17.8h-82.3c-10.1,0-18.9-9.9-17.1-20.4,4.9-27,9.9-54,15-80.9,1.9-9.8,11.1-17.8,21.5-17.8h82.2s0,0,0,0ZM850.7,457.5c-8.1,0-15.6,6.1-17.2,14.1-5.1,27-10.3,53.9-15,81-1.2,7.2,4.7,15,12.6,15h82.3c8,0,15.4-6.1,17-14,5.2-26.9,10.1-54,15-81,1.3-7.3-4.5-15.1-12.7-15.1h-82Z"/>
        <path d="M870.4,528.3v.4c-.4,1.8-.6,3.1-.7,4.1-.1,1-.2,1.8-.1,2.3s.2.8.4,1c.2.1.5.2.8.2h14.7c.7,0,1.3-.4,1.7-1.3s.8-2.9,1.4-6.2c.3-1.8.6-3.1.7-4.1s.2-1.8.1-2.2c0-.5-.2-.8-.4-.9-.2-.1-.5-.2-.9-.2h-15.6l2.4-13.9h14.8c.7,0,1.3-.4,1.7-1.2s.8-2.6,1.3-5.5c.3-1.5.5-2.8.6-3.7.1-.9.2-1.6.1-2,0-.4-.2-.7-.4-.8s-.5-.2-.9-.2h-13.1c-.7,0-1.3.4-1.7,1.1s-.8,2.6-1.4,5.5l-.2,1.2h-16.8l.6-3.5c1.2-6.9,3.2-11.6,5.8-14.4s6.4-4.1,11.1-4.1h23c4.7,0,8,1.4,9.7,4.1s2,7.4.8,14.1c-.9,5.4-2.1,9.2-3.4,11.4s-3.5,3.8-6.5,4.8c2.9.7,4.7,2.4,5.4,5,.7,2.6.5,6.6-.5,12-1.2,7-3.2,12-5.8,14.8s-6.4,4.2-11.2,4.2h-24.6c-4.8,0-8-1.4-9.7-4.2s-1.9-7.7-.7-14.8l.6-3.1h16.8s0,0,0,0Z"/>
        <g class="cls-8">
          <path class="cls-3" d="M932.7,453c5.9,0,11.7,3.3,14.8,8.3,2.2,3.6,3,7.9,2.3,12.1-4.9,27-9.9,54-15,80.9-1.9,9.8-11.1,17.8-21.4,17.8h-82.3c-10.1,0-18.9-9.9-17.1-20.4,4.9-27,9.9-54,15-80.9,1.9-9.8,11.1-17.8,21.5-17.8h82.2s0,0,0,0ZM850.7,457.5c-8.1,0-15.6,6.1-17.2,14.1-5.1,27-10.3,53.9-15,81-1.2,7.2,4.7,15,12.6,15h82.3c8,0,15.4-6.1,17-14,5.2-26.9,10.1-54,15-81,1.3-7.3-4.5-15.1-12.7-15.1h-82Z"/>
        </g>
      </g>
    </g>
  </g>
</svg>