<?xml version="1.0" encoding="UTF-8"?>
<svg id="Vrstva_1" data-name="Vrstva 1" xmlns="http://www.w3.org/2000/svg" version="1.1" viewBox="0 0 1024 1024">
  <defs>
    <style>
      .cls-1 {
        fill: #03451c;
      }

      .cls-1, .cls-2, .cls-3, .cls-4 {
        stroke-width: 0px;
      }

      .cls-2 {
        fill: #a20f32;
      }

      .cls-3 {
        fill: #9e113a;
      }

      .cls-4 {
        fill: #f8f8f9;
      }
    </style>
  </defs>
  <rect class="cls-1" width="1024" height="1024"/>
  <g>
    <path class="cls-1" d="M303.3,444.8h459.6c.7.5,1.4.2,2.1.2,30.4.1,60.8.1,91.2.2,25.3,0,50.7.1,76,.1s22.1,8.2,23.9,20.3c.7,4.7-.6,9.2-1.3,13.8-4,23.9-8.2,47.8-12,71.8-1.6,9.9-6.9,17.1-14.8,22.7-4.9,3.5-10.6,4.9-16.7,4.9-62.9,0-125.9.2-188.8.3-50.3,0-100.6,0-150.9,0-133.5,0-267,0-400.5-.3-26.5,0-53,0-79.5-.2-11.3,0-20.7-7.5-23.4-18.5-.2-.6,0-1.5-.7-1.9v-5.7c.4-.2.4-.5.5-.9,4.5-26.7,9-53.4,13.5-80.1,2.2-13.5,14.1-24.8,27.8-26.1,5.4-.5,10.7-.2,16.1-.3,58.5-.1,117-.2,175.5-.3.9.1,1.7.4,2.4,0ZM502.8,573v-.2h194.5c16.5,0,33,0,49.4-.2,26.8,0,53.6-.4,80.3-.6,28.5-.2,57.1,0,85.6,0s20-7.6,21.8-17.8c5-27.1,10-54.1,14.9-81.2,2.1-11.7-5.9-21.1-17.8-21.1-34.6-.1-69.3-.2-103.9-.3-29.6-.1-59.2-.1-88.9-.2-46.3-.1-92.6-.2-138.9-.2s-129.4,0-194,.1c-29.6,0-59.2.1-88.9.1-53.6.1-107.1.1-160.7.2-14.9,0-29.8.1-44.6.2-11.3.1-20.2,7.7-22.2,18.8-4.7,25.7-9.4,51.4-14.3,77.1-.9,4.6-1.4,9.1.5,13.4,2.6,6,7.6,9.5,14.1,10.4,5.1.7,10.3.3,15.4.3,53,.2,106,.4,159,.5,50.5,0,101,.3,151.6.4,29,.4,58.1.3,87.1.3Z"/>
    <path class="cls-4" d="M502.8,573h-87.1c-50.5,0-101-.2-151.6-.4-53-.2-106-.3-159-.5-5.1,0-10.3.4-15.4-.3-6.5-.9-11.4-4.4-14.1-10.4-1.9-4.3-1.3-8.8-.5-13.4,4.8-25.7,9.5-51.4,14.3-77.1,2-11.1,11-18.8,22.2-18.8,14.9-.1,29.8-.2,44.6-.2,53.6-.1,107.1-.2,160.7-.2s59.2-.1,88.9-.1c64.7,0,129.4-.1,194-.1s92.6.2,138.9.2c29.6.1,59.2.1,88.9.2,34.6.1,69.3.2,103.9.3,11.9,0,19.9,9.4,17.8,21.1-4.9,27.1-9.9,54.1-14.9,81.2-1.9,10.1-11.3,17.8-21.8,17.8-28.5,0-57.1-.2-85.6,0-26.8.2-53.6.5-80.3.6-16.5,0-33,.2-49.4.2h-194.5c0-.2,0,0,0,0ZM876.2,495c.2,1.1,1.1.7,1.7.7,1.3-.1,2.7-.5,4-.7-.3,1.7-.5,3.4-.8,5.1-2.7,15.6-5.5,31.2-8.3,46.8-.3,1.7.2,2,1.7,1.9,3,0,6.1,0,9.1,0s3.4,0,4-3.5c2.1-12.2,4.3-24.3,6.4-36.5,1.5-8.8,3-17.5,4.4-26.3.2-1.5,1.2-3.4.3-4.4-1-1-3-.4-4.6-.3-2.4.1-5-.6-7.3.4-4.9,2.1-9.8,4.3-14.7,6.5-.5.2-1.1.3-1.3,1-.6,3.7-1.2,7.4-1.8,11.3,2.6-.8,5-1.1,7.2-2.1ZM502.8,569c.7,0,1.4,0,2.2,0,17.3,0,34.6,0,51.8,0,47.7-.2,95.4-.3,143.1-.5,35.4,0,70.8-.4,106.3-.5h13.5c-.8-.9-1.3-1.5-1.8-2.1-3.4-4-5-8.8-4.3-13.9.7-5.3,2.1-10.6,3.1-15.9,2.2-11.9,4.4-23.8,6.5-35.8.9-5.1,1.5-10.3,2.6-15.4.9-4.4,1.6-8.8,2.5-13.2.6-3,1.3-5.9,3.2-8.5,1.6-2.3,3.4-4.4,5.9-6.6h-2.3c-22.6-.1-45.1-.2-67.7-.2-25.1-.1-50.2-.1-75.3-.1h-154.8c-4.5,0-9,.1-13.5.1s-1.3-.1-2-.1c-33.8.1-67.5.1-101.3.2h-44.6c-46.2,0-92.3.1-138.5.1h-125.7c-8.6,0-15.7,5.6-17.6,14-.9,3.9-1.5,7.8-2.2,11.7-4.3,23.2-8.6,46.4-12.8,69.6-1.5,8.2,4.7,15.5,12.9,15.6,23.7.2,47.3.5,71,.7s47.5.3,71.2.4c44.4.2,88.7.4,133.1.4,43.3,0,86.5,0,129.8,0,1.8,0,3.8,0,5.7,0Z"/>
    <path class="cls-1" d="M502.8,569c-2,0-3.9,0-5.9,0-43.3,0-86.5,0-129.8,0-44.4,0-88.7-.3-133.1-.4-23.7,0-47.5-.2-71.2-.4s-47.3-.4-71-.7c-8.2,0-14.3-7.4-12.9-15.6,4.2-23.2,8.5-46.4,12.8-69.6.7-3.9,1.4-7.9,2.2-11.7,1.9-8.4,9-14,17.6-14h125.7c46.2,0,92.3-.1,138.5-.1h44.6c33.8-.1,67.5-.1,101.3-.2.7,0,1.3.1,2,.1-.5,2.5-1,5-1.4,7.4-6.4,35-12.9,70.1-19.4,105.2ZM298.7,501.9c.4,1.2.6,1.7.7,2.3,1,4.3,2.2,8.5,3,12.8,1.1,5.8,3.2,11.4,4.1,17.3.4,2.6,1,3,3.7,3h5.7c1,0,1.5-.3,2-1.2,2.6-4.5,5.3-8.9,7.9-13.4,3.7-6.2,7.3-12.4,10.9-18.7.4-.6.5-1.3,1.4-1.7-1.2,6.2-2.3,12.4-3.4,18.5-.7,3.5-1.6,6.9-2.1,10.4-.7,4.9-1.7,9.7-2.6,14.6-.4,2.2-.2,2.6,2.1,2.6h9.4c.5,0,1.4.3,1.4-.5,0-1.3.8-2.3,1-3.5,2.1-12.3,4.2-24.6,6.4-36.9,1.6-9.2,3.2-18.4,4.8-27.6.2-1.3-.1-1.9-1.6-1.8-4.1.1-8.1.1-12.2,0-1.5,0-2.2.5-2.9,1.7-5.4,9.2-10.8,18.4-16.4,27.4-2.2,3.5-4.1,7.2-6.3,10.7-.3.4-.4,1.1-1.2,1.2-.7-3.5-1.8-6.8-2.6-10.3-2.2-9.8-4.7-19.6-7.1-29.3-.2-1-.6-1.5-1.7-1.4-4.1.1-8.3.1-12.4,0-1.3,0-1.6.6-1.7,1.7-1.7,9.9-3.3,19.8-5.1,29.7-2.1,12-3.8,24.2-6.5,36.1-.1.5-1.4,2.7,1,2.7h10.7c.6,0,1,0,1.1-.9.8-4.4,1.8-8.8,2.6-13.1,2-10.5,3.9-21.1,5.9-32.4ZM455.3,478.3h0c-5.7-.1-11.3,0-17-.1-1.3,0-2.1.2-2.3,1.8-.3,2.5-.9,5-1.3,7.5-2.6,15.4-5.3,30.8-8,46.2-.8,4.4-1.5,8.7-2.2,13.1-.2,1.1-.1,1.7,1.3,1.7,3.6,0,7.1,0,10.7,0,1.2,0,1.8-.6,1.7-1.3-.1-1.7.7-3,1-4.6,1-6.1,2.1-12.1,3.2-18.2.2-1.4.7-2.1,2.3-2,2.5.2,4.9,0,7.4,0,1.2,0,1.7.4,2,1.6,1.8,7.7,3.8,15.3,5.6,23.1.3,1.3.8,1.4,1.8,1.4,3.8,0,7.6,0,11.3,0,1.9,0,2-.6,1.5-2.2-2-7.6-3.9-15.2-5.9-22.7-.3-1.1-.2-1.6,1.1-2,5.7-1.8,9-5.9,10.1-11.6,1.2-6.1,2.3-12.2,3.2-18.4,1.1-7.7-3.8-13.3-11.6-13.3-5.3,0-10.6,0-15.9,0ZM221.7,548.5c-.7-4.4-2.4-8.4-3.2-12.7-.8-4-2-8-3.1-12-.3-1.1-.4-1.8,1-2.2,5.8-1.8,9-6,10.1-11.8,1.2-6.2,2.4-12.5,3.2-18.8.8-6.5-3.6-12.5-10.6-12.6-11.5-.2-23.1-.1-34.6-.2-1.3,0-1.9.7-2,1.8-.2,4.8-1.4,9.4-2.2,14.1-1.8,10.6-3.6,21.2-5.5,31.8-1.2,6.9-2.4,13.8-3.6,20.7-.2,1.3.1,1.8,1.5,1.7,3.6,0,7.1,0,10.7,0,1.2,0,1.6-.4,1.8-1.5.5-3.1,1.1-6.2,1.6-9.3.8-4.6,1.7-9.1,2.4-13.7.2-1.2.6-1.6,1.8-1.5,2.7,0,5.4,0,8.1,0,1.1,0,1.6.3,1.7,1.4.4,2.2.9,4.3,1.4,6.5,1.4,5.7,2.9,11.4,4.3,17.2.2.7.4,1,1,1,4.8,0,9.5,0,14.2,0ZM284,478.4c-.4,0-.7-.1-.9-.1-14.2,0-28.4,0-42.7-.1-1.8,0-1.7,1.1-1.9,2.2-1,5.6-1.9,11.1-2.9,16.7-1.8,10.5-3.5,21-5.5,31.4-1.1,5.7-1.6,11.6-3.2,17.2-.2.7-1.1,2.8,1.5,2.7,13.9,0,27.9,0,41.8,0,1.3,0,1.7-.4,1.9-1.7.4-3.2.9-6.5,1.7-9.6.5-2-.3-2-1.8-2-9,0-18,0-27,0-1.4,0-2.2,0-1.8-1.8.8-4.1,1.6-8.2,2.1-12.3.2-1.7.8-2.1,2.5-2.1,7.1,0,14.2,0,21.3,0,1.5,0,2-.4,2.2-1.8.4-3.2.9-6.3,1.7-9.4.4-1.8-.2-2-1.7-2-7.1.1-14.2,0-21.3,0s-1.9-.3-1.5-1.8c.7-3.5,1.5-7.1,1.8-10.7.2-2,.9-2.2,2.5-2.2,9.1.1,18.1,0,27.2,0s1.9.4,2.1-1.1c.4-3.9,1.2-7.8,1.9-11.8ZM421.2,535.3h-2.5c-8.9,0-17.7,0-26.6,0-1.8,0-2.1-.4-1.8-2.1.8-4,1.5-8,2.1-12.1.2-1.5.7-2,2.3-2,7.2,0,14.4,0,21.6,0,1.4,0,1.9-.4,2.1-1.8.5-3.2,1-6.3,1.7-9.4.3-1.6,0-2.1-1.7-2.1-7,.1-14.1,0-21.1.1-1.8,0-2-.5-1.7-2.1.7-3.5,1.4-7,1.8-10.5.2-1.9.9-2.1,2.6-2.1,9.1.1,18.1,0,27.2,0s1.9-.5,2.1-1.7c.5-3.4,1.1-6.7,1.8-10,.2-1.1-.2-1.4-1.2-1.3-1.3.1-2.6,0-3.9,0-12.5,0-25,0-37.5-.1-1.7,0-2.6.2-2.8,2.2-.3,2.9-1.1,5.7-1.6,8.5-2.3,13.1-4.5,26.3-6.7,39.4-1,6.1-2.1,12.1-3.2,18.2-.3,1.5.1,2.1,1.7,2,.9,0,1.9,0,2.8,0,12.8,0,25.6,0,38.3,0s2,.3,2.3-1.3c.4-4.1,1.2-8,1.9-12.1ZM148.6,523.7h0c3.3,0,6.7,0,10,0,7.9-.3,13.3-5.1,14.7-12.8,1.1-6.1,2.2-12.3,3.2-18.4,1.4-8.3-3.6-14.1-11.9-14.1h-31.4q-3.3,0-3.8,3.1c-1.9,10.8-3.7,21.7-5.6,32.5-1.9,10.8-3.7,21.7-5.7,32.5-.3,1.6,0,2.2,1.8,2.1,3.2,0,6.4,0,9.6,0,1.6,0,2.3-.3,2.6-2,1.1-7.1,2.5-14.1,3.7-21.2.2-1.2.6-1.6,1.8-1.6,3.8,0,7.4,0,11,0ZM377.5,478.3h-12.6c-1,0-1.7.2-1.8,1.4-.3,2.6-.5,5.2-1,7.8-1.9,11.1-3.9,22.2-5.9,33.3-1.5,8.5-2.9,17-4.4,25.5-.3,1.6-.1,2.3,1.8,2.2,3.4-.2,6.8,0,10.2,0s1.8,0,1.7-1.3c-.1-1.6.6-3.1.9-4.6,1.3-7.3,2.6-14.6,3.9-21.9,1.3-7.7,2.7-15.5,4-23.2.5-3.2,1-6.4,1.5-9.6.4-3.2,1.2-6.3,1.7-9.6Z"/>
    <path class="cls-2" d="M502.8,569c6.5-35.1,13-70.2,19.4-105.3.5-2.5,1-5,1.4-7.4,4.5,0,9-.1,13.5-.1h154.8c25.1,0,50.2,0,75.3.1,22.6,0,45.1.1,67.7.2h2.3c-2.6,2.2-4.3,4.3-5.9,6.6-1.9,2.6-2.5,5.5-3.2,8.5-.9,4.4-1.6,8.8-2.5,13.2-1.1,5.1-1.7,10.3-2.6,15.4-2.1,11.9-4.3,23.9-6.5,35.8-1,5.3-2.4,10.5-3.1,15.9-.7,5.2.9,9.9,4.3,13.9.5.6,1,1.2,1.8,2.1h-13.5c-35.4.2-70.8.4-106.3.5-47.7.2-95.4.4-143.1.5-17.3,0-34.6,0-51.8,0-.5,0-1.2,0-2,0ZM736,548.5c2,0,4.1,0,6.1,0,1.3,0,1.5-.4,1.2-1.6-.7-2.6-1.5-5.1-2.1-7.8-1.1-5.1-2.6-10.2-3.9-15.3-.3-1-.6-1.8,1-2.3,5.5-1.7,8.9-5.6,10-11.1,1.3-6.4,2.5-12.9,3.3-19.5.9-7.3-4-12.7-11.4-12.7-11-.1-22.1,0-33.1-.1-1.4,0-2,.2-2.2,1.8-2.5,14.7-5.1,29.4-7.7,44.1-1.3,7.2-2.5,14.4-3.7,21.6q-.5,2.8,2.4,2.8h5.9c5.1,0,5.2,0,6.1-5,1.2-6.4,2.4-12.8,3.3-19.3.2-1.4.5-1.7,1.7-1.7,2.8,0,5.5,0,8.3,0,1.2,0,1.6.5,1.8,1.6,1.7,7.4,3.5,14.8,5.2,22.2.4,1.6,1,2.5,2.9,2.3,1.5,0,3.2,0,4.9,0ZM555.2,548.7h0c3.6,0,7.3,0,10.9,0,9,0,13.6-5.2,15.5-12.7,1.1-4.6,1.8-9.4,2.5-14.1.6-3.4-.4-6.4-2.9-8.9s-6.2-4-9.8-4.8c-5.2-1.2-10.5-2.4-15.7-3.6-2.6-.6-3-1.2-2.5-3.8.4-2.1.7-4.3,1.1-6.4.4-2.1,1.7-3.4,3.8-3.4,4.7-.1,9.4-.1,14.2-.1s2.4,1,2.1,2.7c-.3,1.6-.6,3.2-.9,4.8-.2,1,0,1.3,1,1.3,3.7-.1,7.4-.1,11.1-.1s1.3-.3,1.4-1.2c.3-2.4.9-4.7,1.2-7.1,1-8.4-3.7-13.7-12.2-13.7s-12.9-.1-19.4,0c-2.2,0-4.5.2-6.5,1.1-5.3,2.3-8.2,6.4-9.3,12-.7,3.9-1.4,7.8-2.1,11.7-.9,5.5,1,9.7,5.8,12.5,1.9,1.1,4,1.8,6.1,2.3,5.4,1.2,10.9,2.5,16.3,3.8,2.7.6,2.9,1.1,2.5,3.8-.4,2.4-.8,4.7-1.2,7.1-.5,2.4-1.7,3.6-4.2,3.6-5,0-10,0-15,0-1.8,0-2.3-.9-2.1-2.5.3-1.9.7-3.7,1-5.6.2-1,.3-1.6-1.1-1.6-3.6,0-7.3,0-10.9,0s-1.4,0-1.5.8c-.6,4.2-1.8,8.2-1.5,12.5.3,4.2,5,9.5,10,9.3,4.1,0,8.2.1,12.3.1ZM615.1,523.7h0c3.5,0,7,0,10.4,0,7.6-.4,13-5.2,14.3-12.4,1.2-6.4,2.4-12.9,3.4-19.4,1.2-7.7-3.9-13.6-11.7-13.6s-21.9,0-32.9-.1c-1.3,0-2.1.2-2.3,1.7-.2,1.3-.4,2.6-.6,3.8-3.7,21-7.3,41.9-11,62.9-.3,1.5.2,1.8,1.6,1.8,3.2,0,6.4-.2,9.6,0,2.1.2,2.6-.7,2.9-2.5,1.1-6.7,2.4-13.4,3.4-20.1.3-1.8,1-2.2,2.7-2.1,3.5.2,6.9,0,10.2,0ZM779.5,478.3h0c-7.7-.1-15.4-.1-23.1-.1s-2.1.3-2.2,1.8c-.4,3.2-1,6.4-1.6,9.6-.3,1.4,0,1.7,1.5,1.7,4.6-.1,9.3.1,13.9-.1,2.1-.1,2.3.7,1.8,2.3-.4,1.4-.6,2.8-.8,4.2-.9,5-2,10-2.8,15-.4,2.6-.9,5.3-1.4,7.9-.9,4.5-1.3,9.1-2.2,13.6-.9,4.3-1.3,8.6-2.1,12.8-.2.9,0,1.3,1.1,1.3,3.8,0,7.5,0,11.3,0,1,0,1.2-.5,1.5-1.3.9-2.7.9-5.5,1.5-8.2,1.7-8.4,3.1-16.9,4.6-25.3,1.2-6.8,2.4-13.7,3.5-20.5.2-1.5.9-1.8,2.3-1.8,4.6.1,9.3-.1,13.9.1,1.8.1,2.2-.7,2.4-2.1.4-3,.8-6,1.5-9,.4-1.7,0-1.9-1.6-1.9-7.8,0-15.4,0-23,0ZM652.6,548.9h0c1.2,0,2.3,0,3.5,0s1.3-.2,1.3-1.1c0-3.2,1.1-6.1,1.7-9.2q.5-2.8-2.4-2.8c-2.8,0-3.3-.5-2.8-3.2,1.2-7.2,2.5-14.3,3.8-21.5.9-5,1.7-10.1,2.7-15.1.8-4.1,1.5-4.8,5.7-4.9,1.2,0,1.4-.5,1.6-1.5.6-3.5,1.2-7,1.9-10.5.2-1,0-1.3-1-1.3h-5.9c-7.7.1-13.5,4.6-15.1,12-.8,3.5-1.3,7.1-2,10.7-1.2,6.2-2.2,12.5-3.4,18.7-1,5-1.8,10.1-2.5,15.1-1.2,7.7,2.3,12.6,8.4,14.1,1.3.6,2.9.5,4.5.6ZM673,548.9c8.9.4,15-4.5,16.6-12.9,2.8-14.9,5.3-29.9,7.8-44.8,1.1-6.4-2.8-11.9-9.2-13-2-.4-4.1-.1-6.1-.2-1.1-.1-1.5.4-1.7,1.4-.7,3.3-1.1,6.7-1.9,10-.6,2.3.5,1.8,1.7,1.8,2.9,0,3.3.4,2.8,3.2-1.1,6.1-2.5,12.1-3.5,18.2-1,6.6-2.1,13.1-3.5,19.6-.5,2.4-1.6,3.6-3.9,3.6s-1.5.4-1.7,1.4c-.6,2.7-1,5.5-1.7,8.3-.8,3-.3,3.5,2.9,3.5.3,0,.9,0,1.4,0Z"/>
    <path class="cls-1" d="M876.2,495c-2.2,1-4.5,1.4-7.2,2.3.6-4,1.3-7.7,1.8-11.3,0-.7.8-.8,1.3-1,4.9-2.2,9.8-4.4,14.7-6.5,2.3-1,4.9-.3,7.3-.4,1.6-.1,3.6-.7,4.6.3.9.9,0,2.9-.3,4.4-1.4,8.8-2.9,17.5-4.4,26.3-2.1,12.2-4.3,24.3-6.4,36.5-.6,3.4-.6,3.5-4,3.5s-6.1,0-9.1,0-2-.3-1.7-1.9c2.8-15.6,5.6-31.2,8.3-46.8.3-1.7.5-3.4.8-5.1.7-1.6.2-2-1.4-1.4-1.4.2-2.9.7-4.3,1.2Z"/>
    <path class="cls-4" d="M876.2,495c1.4-.5,2.9-.9,4.3-1.5,1.6-.6,2.1-.2,1.4,1.4-1.3.2-2.6.6-4,.7-.6.1-1.5.5-1.7-.6Z"/>
    <path class="cls-4" d="M298.7,501.9c-2,11.2-3.9,21.9-5.9,32.5-.8,4.4-1.8,8.8-2.6,13.1-.2.8-.5.9-1.1.9h-10.7c-2.4,0-1.1-2.2-1-2.7,2.6-12,4.3-24.1,6.5-36.1,1.8-9.9,3.4-19.8,5.1-29.7.2-1,.5-1.7,1.7-1.7,4.1.1,8.3.1,12.4,0,1.1,0,1.4.4,1.7,1.4,2.4,9.8,4.9,19.5,7.1,29.3.8,3.4,1.9,6.7,2.6,10.3.8,0,.9-.8,1.2-1.2,2.3-3.5,4.1-7.2,6.3-10.7,5.6-9.1,11-18.2,16.4-27.4.7-1.2,1.4-1.7,2.9-1.7,4.1.1,8.1.1,12.2,0,1.5,0,1.8.5,1.6,1.8-1.6,9.2-3.2,18.4-4.8,27.6-2.1,12.3-4.3,24.6-6.4,36.9-.2,1.2-1,2.2-1,3.5s-.9.5-1.4.5h-9.4c-2.3,0-2.5-.4-2.1-2.6.9-4.9,1.9-9.7,2.6-14.6.5-3.5,1.5-6.9,2.1-10.4,1.2-6.1,2.3-12.3,3.4-18.5-.8.4-1,1.1-1.4,1.7-3.6,6.2-7.3,12.4-10.9,18.7-2.6,4.5-5.4,8.9-7.9,13.4-.5.9-1.1,1.2-2,1.2-1.9,0-3.8,0-5.7,0-2.7,0-3.3-.4-3.7-3-.9-5.9-3-11.5-4.1-17.3-.8-4.3-2-8.6-3-12.8-.1-.7-.3-1.2-.7-2.4Z"/>
    <path class="cls-4" d="M455.3,478.3h15.9c7.8.1,12.7,5.6,11.6,13.3-.9,6.2-2,12.3-3.2,18.4-1.1,5.7-4.4,9.8-10.1,11.6-1.3.4-1.4.9-1.1,2,2,7.6,3.9,15.2,5.9,22.7.4,1.6.3,2.2-1.5,2.2-3.8,0-7.5,0-11.3,0s-1.5,0-1.8-1.4c-1.7-7.7-3.7-15.4-5.6-23.1-.3-1.2-.8-1.7-2-1.6-2.5,0-4.9,0-7.4,0-1.6,0-2.1.6-2.3,2-1,6.1-2.1,12.1-3.2,18.2-.3,1.5-1.1,2.9-1,4.6,0,.7-.6,1.4-1.7,1.3-3.6,0-7.1,0-10.7,0-1.4,0-1.5-.6-1.3-1.7.8-4.4,1.5-8.7,2.2-13.1,2.7-15.4,5.5-30.8,8-46.2.4-2.5,1.1-5,1.3-7.5.2-1.6.9-1.8,2.3-1.8,5.7,0,11.4,0,17,0h0ZM457.9,491.4h-8.3c-.9,0-1.5.1-1.7,1.2-.8,5.1-1.7,10.1-2.6,15.2-.2,1.2.1,1.6,1.4,1.6,5.1-.1,10.1,0,15.2,0s3.9-1,4.4-3.5c.8-3.8,1.5-7.7,2.1-11.5.4-2.3-.2-2.8-2.5-2.9-2.7-.2-5.4-.1-8-.1Z"/>
    <path class="cls-4" d="M221.7,548.5h-14c-.6,0-.8-.3-1-1-1.4-5.7-2.8-11.5-4.3-17.2-.5-2.1-1-4.3-1.4-6.5-.2-1.1-.7-1.4-1.7-1.4-2.7,0-5.4,0-8.1,0-1.2,0-1.6.4-1.8,1.5-.8,4.6-1.6,9.1-2.4,13.7-.6,3.1-1.2,6.2-1.6,9.3-.2,1.2-.6,1.6-1.8,1.5-3.6,0-7.1,0-10.7,0-1.4,0-1.7-.4-1.5-1.7,1.2-6.9,2.4-13.8,3.6-20.7,1.8-10.6,3.6-21.2,5.5-31.8.8-4.7,2-9.3,2.2-14.1,0-1.1.6-1.8,2-1.8,11.5.1,23.1-.1,34.6.2,7,.1,11.4,6.1,10.6,12.6-.8,6.3-2,12.6-3.2,18.8-1.1,5.8-4.3,10-10.1,11.8-1.5.4-1.3,1.2-1,2.2,1.1,4,2.3,7.9,3.1,12,.6,4.1,2.3,8.1,3,12.6ZM201.2,509.4h7.6c2.6,0,3.8-.9,4.4-3.4.9-4,1.5-8.1,2.2-12.1.3-1.7-.6-2.5-2.2-2.5h-17.2c-.6,0-1,0-1.2.9-.8,5.2-1.7,10.5-2.7,15.7-.2,1.3.4,1.4,1.4,1.4,2.6-.1,5.2,0,7.7,0Z"/>
    <path class="cls-4" d="M284,478.4c-.7,4-1.4,7.9-2,11.8-.2,1.5-1.2,1.1-2.1,1.1-9.1,0-18.1.1-27.2,0-1.7,0-2.4.2-2.5,2.2-.3,3.6-1,7.2-1.8,10.7-.3,1.5.1,1.8,1.5,1.8,7.1-.1,14.2,0,21.3,0s2.2.2,1.7,2c-.7,3.1-1.3,6.2-1.7,9.4-.2,1.5-.7,1.9-2.2,1.8-7.1,0-14.2,0-21.3,0-1.6,0-2.2.4-2.5,2.1-.6,4.1-1.3,8.2-2.1,12.3-.3,1.8.4,1.8,1.8,1.8,9,0,18,0,27,0,1.5,0,2.3,0,1.8,2-.8,3.1-1.2,6.4-1.7,9.6-.2,1.3-.6,1.7-1.9,1.7-13.9,0-27.9,0-41.8,0s-1.7-2.1-1.5-2.7c1.6-5.6,2.2-11.5,3.2-17.2,1.9-10.5,3.6-21,5.5-31.4,1-5.6,1.9-11.1,2.9-16.7.2-1.1.2-2.2,1.9-2.2,14.2.1,28.4.1,42.7.1s.6.1,1,.1Z"/>
    <path class="cls-4" d="M421.2,535.3c-.7,4.1-1.4,8-2,12-.2,1.5-1.3,1.3-2.3,1.3-12.8,0-25.6,0-38.3,0s-1.9,0-2.8,0c-1.6.2-2-.4-1.7-2,1.1-6,2.1-12.1,3.2-18.2,2.3-13.1,4.5-26.3,6.7-39.4.5-2.8,1.3-5.7,1.6-8.5.2-2,1.1-2.2,2.8-2.2,12.5.1,25,.1,37.5.1s2.6.1,3.9,0c1.1-.1,1.4.3,1.2,1.3-.6,3.3-1.2,6.7-1.8,10-.2,1.3-.7,1.8-2.1,1.7-9.1-.1-18.1,0-27.2,0s-2.4.2-2.6,2.1c-.4,3.5-1.1,7-1.8,10.5-.3,1.6-.1,2.1,1.7,2.1,7-.1,14.1,0,21.1-.1,1.8,0,2.1.5,1.7,2.1-.6,3.1-1.2,6.3-1.7,9.4-.2,1.3-.7,1.8-2.1,1.8-7.2,0-14.4,0-21.6,0-1.6,0-2.1.4-2.3,2-.6,4-1.2,8.1-2.1,12.1-.4,1.8,0,2.2,1.8,2.1,8.9,0,17.7,0,26.6,0,.8,0,1.5,0,2.6,0Z"/>
    <path class="cls-4" d="M148.6,523.7h-10.9c-1.2,0-1.6.4-1.8,1.6-1.2,7.1-2.5,14.1-3.7,21.2-.3,1.7-1,2.1-2.6,2-3.2,0-6.4,0-9.6,0-1.7,0-2.1-.5-1.8-2.1,1.9-10.8,3.8-21.7,5.7-32.5,1.9-10.8,3.7-21.7,5.6-32.5q.5-3.1,3.8-3.1h31.4c8.3,0,13.3,5.8,11.9,14.1-1,6.1-2.1,12.3-3.2,18.4-1.4,7.8-6.8,12.5-14.7,12.8-3.4.2-6.7,0-10.1,0h0ZM148,510.5h7.4c2.8,0,4.2-1.1,4.7-3.8.8-4.1,1.4-8.3,2.2-12.4.4-2-.4-2.9-2.3-2.9h-16.8c-1,0-1.4.3-1.6,1.3-.9,5.5-1.9,11-2.9,16.5-.2,1.1.1,1.4,1.2,1.4,2.7-.2,5.4-.1,8.1-.1Z"/>
    <path class="cls-4" d="M377.5,478.3c-.5,3.4-1.2,6.5-1.7,9.5-.5,3.2-.9,6.4-1.5,9.6-1.3,7.7-2.6,15.5-4,23.2-1.3,7.3-2.6,14.6-3.9,21.9-.3,1.5-1,3-.9,4.6.1,1.3-.8,1.3-1.7,1.3-3.4,0-6.8,0-10.2,0-1.9,0-2.1-.6-1.8-2.2,1.5-8.5,2.9-17,4.4-25.5,1.9-11.1,4-22.2,5.9-33.3.4-2.6.7-5.2,1-7.8.1-1.2.8-1.4,1.8-1.4,4.1.1,8.2.1,12.6.1Z"/>
    <path class="cls-4" d="M736,548.5c-1.7,0-3.4,0-5,0-1.9.2-2.5-.7-2.9-2.3-1.7-7.4-3.5-14.8-5.2-22.2-.3-1.1-.6-1.6-1.8-1.6-2.8,0-5.5,0-8.3,0s-1.5.3-1.7,1.7c-.9,6.4-2.1,12.9-3.3,19.3-.9,5.1-1,5-6.1,5h-5.9q-2.9,0-2.4-2.8c1.3-7.2,2.5-14.4,3.7-21.6,2.6-14.7,5.2-29.4,7.7-44.1.3-1.5.9-1.8,2.2-1.8,11,.1,22.1,0,33.1.1,7.4,0,12.4,5.4,11.4,12.7-.8,6.5-2,13-3.3,19.5-1.1,5.6-4.5,9.4-10,11.1-1.5.5-1.2,1.3-1,2.3,1.3,5.1,2.8,10.2,3.9,15.3.6,2.6,1.4,5.2,2.1,7.8.3,1.1,0,1.6-1.2,1.6-1.9,0-4,0-6,0ZM723.1,509.4q0-.1,0,0h7.4c2.8,0,4-.9,4.6-3.6.8-3.8,1.4-7.7,2.1-11.6.3-1.8-.4-2.8-2.3-2.8h-16.7c-1,0-1.4.3-1.6,1.3-.8,5.1-1.7,10.1-2.6,15.2-.2,1.2,0,1.5,1.3,1.5,2.6-.1,5.2,0,7.8,0Z"/>
    <path class="cls-4" d="M555.2,548.7c-4.1,0-8.1,0-12.2,0-5,.2-9.6-5.1-10-9.3-.3-4.3.9-8.3,1.5-12.5,0-.9.8-.8,1.5-.8h10.9c1.4,0,1.3.6,1.1,1.6-.4,1.8-.7,3.7-1,5.6-.3,1.6.3,2.5,2.1,2.5,5,0,10,0,15,0,2.5,0,3.7-1.2,4.2-3.6.5-2.3.8-4.7,1.2-7.1.4-2.7.2-3.1-2.5-3.8-5.4-1.3-10.9-2.5-16.3-3.8-2.1-.5-4.2-1.2-6.1-2.3-4.8-2.8-6.8-7-5.8-12.5.7-3.9,1.3-7.8,2.1-11.7,1-5.6,3.9-9.7,9.3-12,2.1-.9,4.3-1.1,6.5-1.1,6.5-.1,12.9,0,19.4,0s13.1,5.3,12.2,13.7c-.3,2.4-.9,4.7-1.2,7.1,0,.9-.5,1.2-1.4,1.2-3.7,0-7.4,0-11.1.1-1,0-1.3-.3-1-1.3.4-1.6.6-3.2.9-4.8.3-1.7-.2-2.7-2.1-2.7-4.7,0-9.4,0-14.2.1-2.2,0-3.5,1.3-3.8,3.4-.4,2.1-.8,4.3-1.1,6.4-.5,2.6,0,3.2,2.5,3.8,5.2,1.2,10.5,2.4,15.7,3.6,3.6.8,7.1,2.1,9.8,4.8s3.5,5.5,2.9,8.9c-.8,4.7-1.4,9.5-2.5,14.1-1.8,7.5-6.5,12.6-15.5,12.7h-10.9q-.1-.1-.1-.2Z"/>
    <path class="cls-4" d="M615.1,523.7c-3.3,0-6.7,0-10,0-1.7,0-2.4.3-2.7,2.1-1,6.7-2.3,13.4-3.4,20.1-.3,1.9-.8,2.7-2.9,2.5-3.2-.2-6.4,0-9.6,0-1.4,0-1.9-.3-1.6-1.8,3.7-21,7.3-41.9,11-62.9.2-1.3.4-2.6.6-3.8.3-1.6,1-1.8,2.3-1.7,11,.1,21.9,0,32.9.1,7.8,0,12.9,5.9,11.7,13.6-1,6.5-2.2,12.9-3.4,19.4-1.4,7.2-6.7,12-14.3,12.4-3.6,0-7.1,0-10.6,0h0ZM618.2,491.4h0c-2.8,0-5.5.1-8.3,0-1.2,0-1.5.4-1.7,1.5-.8,5.3-1.7,10.6-2.8,15.9-.3,1.6,0,1.7,1.3,1.7h14.8c3.4,0,4.7-1,5.3-4.4.7-3.9,1.4-7.8,2.1-11.7.4-2.3,0-2.9-2.5-2.9-2.7-.2-5.5-.1-8.2-.1Z"/>
    <path class="cls-4" d="M779.5,478.3h22.9c1.5,0,2,.2,1.6,1.9-.7,3-1.1,6-1.5,9s-.6,2.2-2.4,2.1c-4.6-.2-9.3,0-13.9-.1-1.4,0-2,.3-2.3,1.8-1.1,6.9-2.3,13.7-3.5,20.5-1.5,8.4-2.8,16.9-4.6,25.3-.6,2.7-.6,5.5-1.5,8.2-.3.9-.5,1.4-1.5,1.3h-11.3c-1,0-1.2-.4-1.1-1.3.8-4.3,1.2-8.6,2.1-12.8,1-4.5,1.3-9.1,2.2-13.6.6-2.6,1-5.3,1.4-7.9.8-5,1.9-10,2.8-15,.3-1.4.5-2.8.8-4.2.4-1.7.2-2.4-1.8-2.3-4.6.2-9.3,0-13.9.1-1.4,0-1.8-.3-1.5-1.7.6-3.2,1.2-6.4,1.6-9.6.2-1.5.8-1.8,2.2-1.8,7.8,0,15.5,0,23.2,0h0Z"/>
    <path class="cls-4" d="M652.6,548.9c-1.6,0-3.2,0-4.8-.4-6.1-1.5-9.6-6.4-8.4-14.1.8-5.1,1.5-10.1,2.5-15.1,1.3-6.2,2.2-12.5,3.4-18.7.7-3.5,1.2-7.2,2-10.7,1.7-7.5,7.5-12,15.1-12h5.9c1,0,1.2.3,1,1.3-.7,3.5-1.3,7-1.9,10.5-.2,1-.4,1.5-1.6,1.5-4.3.1-5,.8-5.7,4.9-.9,5-1.8,10-2.7,15.1-1.3,7.2-2.5,14.3-3.8,21.5-.5,2.7,0,3.1,2.8,3.2q2.9,0,2.4,2.8c-.5,3.1-1.6,6.1-1.7,9.2,0,.9-.6,1.1-1.3,1.1-.8-.2-2-.2-3.2,0h0Z"/>
    <path class="cls-4" d="M673,548.9h-1.5c-3.2,0-3.8-.5-2.9-3.5.7-2.7,1.1-5.5,1.7-8.3.2-1,.6-1.4,1.7-1.4,2.3,0,3.4-1.2,3.9-3.6,1.4-6.5,2.5-13,3.5-19.6,1-6.1,2.4-12.1,3.5-18.2.5-2.7,0-3.1-2.8-3.2-1.2,0-2.3.5-1.7-1.8.8-3.3,1.3-6.7,1.9-10,.2-1,.5-1.5,1.7-1.4,2,.1,4.1-.1,6.1.2,6.4,1.1,10.3,6.6,9.2,13-2.5,15-5,29.9-7.8,44.8-1.6,8.5-7.6,13.4-16.5,13Z"/>
    <path class="cls-1" d="M457.9,491.4h8c2.4,0,2.9.6,2.5,2.9-.6,3.8-1.3,7.7-2.1,11.5-.5,2.6-1.8,3.5-4.4,3.5h-15.2c-1.3,0-1.6-.4-1.4-1.6.9-5.1,1.8-10.1,2.6-15.2.2-1.1.8-1.2,1.7-1.2,2.7.1,5.5.1,8.3.1h0Z"/>
    <path class="cls-1" d="M201.2,509.4h-7.6c-1,0-1.6-.1-1.4-1.4.9-5.2,1.8-10.5,2.7-15.7.1-.8.6-.9,1.2-.9h17.2c1.6,0,2.5.7,2.2,2.5-.7,4.1-1.3,8.1-2.2,12.1-.5,2.5-1.8,3.3-4.4,3.4h-7.7Z"/>
    <path class="cls-1" d="M148,510.5h-8.1c-1.1,0-1.4-.3-1.2-1.4,1-5.5,2-11,2.9-16.5.2-1,.6-1.3,1.6-1.3h16.8c2,0,2.7.9,2.3,2.9-.8,4.1-1.4,8.3-2.2,12.4-.5,2.8-1.9,3.8-4.7,3.8-2.5.1-4.9.1-7.4.1Z"/>
    <path class="cls-3" d="M723.1,509.4h-7.8c-1.2,0-1.5-.4-1.3-1.5.9-5,1.8-10.1,2.6-15.2.2-1,.6-1.3,1.6-1.3h16.7c1.9,0,2.6.9,2.3,2.8-.7,3.9-1.3,7.8-2.1,11.6-.6,2.7-1.8,3.6-4.6,3.6s-4.9-.1-7.4,0q0-.1,0,0Z"/>
    <path class="cls-3" d="M618.2,491.4h8.3c2.4,0,2.8.7,2.5,2.9-.7,3.9-1.3,7.8-2.1,11.7-.6,3.4-1.9,4.4-5.3,4.4h-14.8c-1.3,0-1.6-.1-1.3-1.7,1.1-5.3,2-10.6,2.8-15.9.2-1.2.5-1.6,1.7-1.5,2.6.2,5.4.1,8.2.1h0Z"/>
  </g>
  <rect class="cls-1" x="1372.2" y="517.1" width="1024" height="1024"/>
</svg>