<?xml version="1.0" encoding="UTF-8"?>
<svg id="Vrstva_1" data-name="Vrstva 1" xmlns="http://www.w3.org/2000/svg" version="1.1" viewBox="0 0 283.5 283.5">
  <defs>
    <style>
      .cls-1 {
        fill: #1de11c;
      }

      .cls-1, .cls-2 {
        stroke-width: 0px;
      }

      .cls-2 {
        fill: #fff;
      }
    </style>
  </defs>
  <rect class="cls-1" width="283.5" height="283.5"/>
  <g>
    <path class="cls-2" d="M47.3,143.6l-4.8,21h20.9s0-2.9,0-2.9h-13.9l.9-5.6c.3-2,1.7-3.8,4.8-3.8s4.4,1.5,4.2,3.8v2.5c-.1,0,4,0,4,0v-6.9h-10.3l.3-2.6h1.8c-1.3-.4-1.7-1.3-1.5-2.4,0-.2,0-.5,0-.5h2.9v.7c-.1.9,0,2.1,2,2.1h4.7v-3.2h-9.4l.3-2.2h9.1v-.9h-9.1v-2.8h1.3c-1-.6-1.6-1.6-1.6-2.7s.4-2.1,1.5-2.6c-1-.7-1.5-1.7-1.5-2.9,0-3,2.3-3.2,4.1-3.2h5.3v-1.5c-.5.6-1.2,1-2.2,1-3.1,0-2.9-3.3-3.3-5.5-.1-.5-.3-.8-.9-.8s-1,.8-1,1.5.4,1.4,1.2,1.5v2.9c-1.2,0-2.1-.6-2.6-1.5-.5-.8-.7-1.9-.7-3,0-2,.4-3.9,2.3-4.3h-9.1v24.8ZM53.5,143.6l-.3,2.2h-2.5l.4-2.2h2.4ZM59.9,123.6c.2.7.5,1.3,1.2,1.3s1.1-.6,1.1-1.3c0-1.5-.8-2-2.8-1.9.3.4.3,1.2.5,1.9M55.1,155c-1.3,0-1.8.7-2,1.5l-.3,2h3.6l.2-2c0-.9-.3-1.5-1.5-1.5M56.6,132.6c0,1.3,1,1.4,2.6,1.4h4.3v-2.7h-5.2c-1,0-1.6.5-1.6,1.3M56.6,138.2c0,1.1.6,1.6,2.6,1.6h4.3v-2.7h-5c-1.1,0-1.8.3-1.8,1.2"/>
    <path class="cls-2" d="M101.5,156.2c.3.1.4.3.4.6,0,.4-.3,1.1-.8,2.1-.5,1-1.4,2.1-2.7,3.4-2.2,2.3-5.4,3.4-9.5,3.4h-3.6c-2.1,0-3.9-.3-5.6-.9-1.7-.6-3.1-1.5-4.3-2.6-1.2-1.2-2.1-2.5-2.8-4.1-.6-1.6-1-3.4-1-5.3v-21.8c0-2,.3-3.7,1-5.3.7-1.6,1.6-3,2.8-4.1,1.2-1.1,2.6-2,4.3-2.6,1.7-.6,3.6-1,5.6-1h3.6c1.7,0,3.2.2,4.6.6,1.4.4,2.6,1,3.8,1.8.7.5,1.4,1.1,2,1.8.6.6,1.1,1.3,1.5,1.8.4.6.7,1.1.9,1.6.2.5.3.8.3,1s-.1.4-.4.6l-6.4,3.2c0,0-.2,0-.4,0-.2,0-.4-.1-.5-.3,0-.2-.3-.5-.5-.9-.6-1.1-1.3-2-2.1-2.6-.7-.6-1.6-.9-2.7-.9h-3.6c-1.5,0-2.7.5-3.8,1.5s-1.5,2.3-1.5,3.7v21.8c0,1.5.5,2.7,1.5,3.7,1,1,2.3,1.5,3.8,1.5h3.6c1.1,0,2-.3,2.7-.9.7-.6,1.4-1.5,2-2.6.4-.9.8-1.4,1.1-1.4s.3,0,.4,0l6.4,3.2Z"/>
    <g>
      <path class="cls-2" d="M115,129.6v24.3c0,1.4.3,2.3,1,2.9.7.5,1.3.8,1.9.8s.2,0,.4,0c.2.1.4.4.4.7v6.6c0,.4-.1.6-.4.7-.3,0-.6,0-1,0-1.4,0-2.8-.4-4.1-1-1.3-.6-2.5-1.5-3.5-2.5-1-1.1-1.9-2.3-2.5-3.7-.6-1.4-.9-2.9-.9-4.5v-24.3c0-1.6.3-3.1.9-4.5.6-1.4,1.4-2.6,2.5-3.7,1-1.1,2.2-1.9,3.5-2.5,1.3-.6,2.7-.9,4.1-1,.4,0,.7,0,1,0,.3,0,.4.3.4.7v6.6c0,.3-.1.6-.4.7-.1,0-.3,0-.4,0-.6,0-1.3.3-1.9.8-.7.5-1,1.5-1,2.9Z"/>
      <path class="cls-2" d="M129.7,129.6c0-1.4-.3-2.3-1-2.9-.7-.5-1.3-.8-1.9-.8s-.3,0-.4,0c-.2,0-.4-.3-.4-.7v-6.6c0-.4.1-.6.4-.7.3,0,.6,0,1,0,1.4,0,2.7.4,4,1,1.3.6,2.5,1.5,3.5,2.5,1,1.1,1.9,2.3,2.5,3.7.6,1.4,1,2.9,1,4.5v24.3c0,1.6-.3,3.1-1,4.5-.6,1.4-1.5,2.6-2.5,3.7-1,1.1-2.2,1.9-3.5,2.5-1.3.6-2.7.9-4,1-.4,0-.7,0-1,0-.3,0-.4-.3-.4-.7v-6.6c0-.3.1-.6.4-.7,0,0,.2,0,.4,0,.6,0,1.3-.3,1.9-.8.7-.5,1-1.5,1-2.9v-24.3Z"/>
    </g>
    <g>
      <path class="cls-2" d="M154.7,129.6v24.3c0,1.4.3,2.3,1,2.9.7.5,1.3.8,1.9.8s.2,0,.4,0c.2.1.4.4.4.7v6.6c0,.4-.1.6-.4.7-.3,0-.6,0-1,0-1.4,0-2.8-.4-4.1-1-1.3-.6-2.5-1.5-3.5-2.5-1-1.1-1.9-2.3-2.5-3.7-.6-1.4-.9-2.9-.9-4.5v-24.3c0-1.6.3-3.1.9-4.5.6-1.4,1.4-2.6,2.5-3.7,1-1.1,2.2-1.9,3.5-2.5,1.3-.6,2.7-.9,4.1-1,.4,0,.7,0,1,0,.3,0,.4.3.4.7v6.6c0,.3-.1.6-.4.7-.1,0-.3,0-.4,0-.6,0-1.3.3-1.9.8-.7.5-1,1.5-1,2.9Z"/>
      <path class="cls-2" d="M169.4,129.6c0-1.4-.3-2.3-1-2.9-.7-.5-1.3-.8-1.9-.8s-.3,0-.4,0c-.2,0-.4-.3-.4-.7v-6.6c0-.4.1-.6.4-.7.3,0,.6,0,1,0,1.4,0,2.7.4,4,1,1.3.6,2.5,1.5,3.5,2.5,1,1.1,1.9,2.3,2.5,3.7.6,1.4,1,2.9,1,4.5v24.3c0,1.6-.3,3.1-1,4.5-.6,1.4-1.5,2.6-2.5,3.7-1,1.1-2.2,1.9-3.5,2.5-1.3.6-2.7.9-4,1-.4,0-.7,0-1,0-.3,0-.4-.3-.4-.7v-6.6c0-.3.1-.6.4-.7,0,0,.2,0,.4,0,.6,0,1.3-.3,1.9-.8.7-.5,1-1.5,1-2.9v-24.3Z"/>
    </g>
    <path class="cls-2" d="M213,164.1c0,.5-.2.7-.7.7h-26c-.5,0-.7-.2-.7-.7v-44.9c0-.5.2-.7.7-.7h7c.5,0,.7.2.7.7v37.1c0,.5.2.7.7.7h17.5c.5,0,.7.2.7.7v6.3Z"/>
    <g>
      <path class="cls-2" d="M211.9,123.1c-.5.5-.8,1.1-.8,1.9s.1.8.3,1.1c.2.3.5.6.9.8.4.2.8.5,1.3.7.5.2,1.1.5,1.7.8,1,.4,1.8.9,2.5,1.4.7.5,1.3,1,1.8,1.6.5.6.8,1.2,1.1,1.9.2.7.3,1.5.3,2.4s-.2,1.8-.5,2.6c-.3.8-.8,1.5-1.4,2-.6.6-1.3,1-2.1,1.3-.8.3-1.8.5-2.8.5h-1.5c-2.1,0-3.6-.6-4.7-1.7-.6-.6-1-1.2-1.3-1.6-.3-.5-.4-.8-.4-1s0-.2.2-.3l3.2-1.6s.1,0,.2,0c.1,0,.2,0,.3.3,0,.2.2.5.4.8.2.4.5.7.9.9.4.2.8.4,1.2.4h1.5c.7,0,1.3-.3,1.8-.8.5-.5.8-1.1.8-1.8s-.4-1.6-1.1-2c-.7-.5-1.6-1-2.8-1.5-1-.5-1.9-1-2.6-1.4-.7-.5-1.4-1-1.9-1.5-.5-.5-.9-1.2-1.1-1.8-.3-.7-.4-1.5-.4-2.4s.2-1.8.5-2.6c.3-.8.8-1.5,1.4-2,.6-.6,1.3-1,2.1-1.3.8-.3,1.8-.5,2.8-.5h.5c1.6,0,3,.4,4.1,1.2.4.3.7.6,1,.9.3.3.5.6.7.9.2.3.4.6.5.8.1.2.2.4.2.5s0,.2-.2.3l-3.2,1.6s-.1,0-.2,0-.2,0-.2-.1c0,0-.1-.2-.3-.4-.3-.6-.7-1-1.1-1.3-.4-.3-.8-.5-1.4-.5h-.5c-.7,0-1.3.2-1.8.7Z"/>
      <path class="cls-2" d="M240.9,141.4c0,.2-.1.3-.4.3h-4.2l-.3-.2-5.7-9.1c-.1-.1-.2-.2-.3-.2-.1,0-.3,0-.3.1l-1.5,1.9v7.1c0,.2-.1.4-.4.4h-3.4c-.2,0-.4-.1-.4-.4v-22.1c0-.2.1-.4.4-.4h3.4c.2,0,.4.1.4.4v8c0,.3.1.4.3.4s.2,0,.3-.2l6.5-8.5h.3c0-.1,4.1-.1,4.1-.1.3,0,.4,0,.4.3s0,.2-.1.3l-7,8.7c0,0,0,.2,0,.2,0,0,0,.1,0,.2l7.8,12.6c0,0,0,.2,0,.3Z"/>
    </g>
  </g>
</svg>