<?xml version="1.0" encoding="UTF-8"?>
<svg id="Vrstva_1" data-name="Vrstva 1" xmlns="http://www.w3.org/2000/svg" version="1.1" viewBox="0 0 283.5 283.5">
  <defs>
    <style>
      .cls-1 {
        fill: #ee7219;
      }

      .cls-1, .cls-2 {
        stroke-width: 0px;
      }

      .cls-2 {
        fill: #fff;
      }
    </style>
  </defs>
  <rect class="cls-1" width="283.5" height="283.5"/>
  <g>
    <path class="cls-2" d="M124.4,152.9c-3.4,0-4.9,2-4.9,8v13.2h8.4v-15.5c0-3.5-1-5.6-3.6-5.6M141.5,152.9c-4.1,0-4.5,3.2-4.5,7.9v13.2h8.4v-16.1c0-3.2-1.5-5.1-4-5.1M72.4,148.3c0-3.9-2-5.7-4.8-6l-6.2-.8v11l6.2.5c2.8.2,4.8-1,4.8-4.7M169.5,163.1c-2.1.5-3.9,1.4-3.9,3.7s1.8,3.3,4,3.3c4.5,0,6-2.6,5.8-8.7-1.3.8-3.8,1-5.9,1.6M107.6,143.2l-6.8-1v-7.6l6.8,1.2v7.4ZM107.6,124.1l-65-14.7v64.7s8.9,0,8.9,0v-43.2l17.4,2.8c6.3,1,11.9,5.3,11.9,14.8s-4.5,13.5-11.9,13.1l-7.6-.4v12.9h21.3v-32l8,1.1v5.6h0c1.2-3.9,4-5.2,7.3-4.8.6,0,1.6.2,1.6.2v9l-2.1-.2c-2.6-.3-6.6.2-6.6,6.3v14.7h10v-29.2l6.9.9v28.3h2.7v-28.3h8.8v4h.1c1.7-3,4.8-4.9,8.3-4.9s6.5,1.2,8,4.8c2.3-3.1,5.1-4.8,9.1-4.8,9.2,0,9.8,7.1,9.8,12.7v16.4h4.5c-1.9-1.5-3-3.7-3-6.9,0-9.6,10.3-8.9,16.9-10.2,1.6-.3,2.5-.9,2.5-2.7s-2.6-3.1-4.6-3.1-4.3,1.2-4.8,3.7h-8.9c.2-3.9,2-6.4,4.5-7.9,2.6-1.5,5.9-2,9.2-2,6.1,0,12,1.2,13.3,7.2v-28.1h-76.6Z"/>
    <g>
      <path class="cls-2" d="M199.8,140.7c.1,2.9,1.9,3.9,4.7,3.9s4-.7,4-2.6-3.6-2.6-7.2-3.6c-3.5-1-7.3-2.6-7.3-7.2s5.5-7.6,10.2-7.6,10,2.4,10,8h-6.5c.1-2.2-2.1-3-4-3s-3.1.5-3.1,2.1,3.6,2.3,7.2,3.3c3.6,1,7.2,2.7,7.2,7.2s-5.4,8.4-10.9,8.4-10.8-2.5-10.8-8.9h6.5Z"/>
      <path class="cls-2" d="M216.9,124.1h6.5v9.6l8.2-9.6h8.1l-9.2,9.8,10.4,15.1h-8.1l-6.7-10.5-2.7,2.8v7.7h-6.5v-25Z"/>
    </g>
  </g>
</svg>