<?xml version="1.0" encoding="UTF-8"?>
<svg id="Vrstva_1" data-name="Vrstva 1" xmlns="http://www.w3.org/2000/svg" version="1.1" viewBox="0 0 283.5 283.5">
  <defs>
    <style>
      .cls-1 {
        fill: #ee4d9b;
      }

      .cls-1, .cls-2 {
        stroke-width: 0px;
      }

      .cls-2 {
        fill: #fff;
      }
    </style>
  </defs>
  <rect class="cls-1" width="283.5" height="283.5"/>
  <g>
    <g>
      <path class="cls-2" d="M47.4,143.4l-4.9,21.6h21.5s0-3,0-3h-14.3l.9-5.8c.3-2.1,1.8-3.9,4.9-3.9s4.5,1.5,4.4,3.9v2.5c-.1,0,4.1,0,4.1,0v-7.1h-10.6l.4-2.6h1.9c-1.3-.4-1.7-1.4-1.6-2.4,0-.2,0-.5,0-.5h3v.7c-.1.9,0,2.2,2,2.2h4.9v-3.3h-9.7l.3-2.3h9.4v-.9h-9.4v-2.9h1.3c-1-.6-1.6-1.6-1.6-2.8s.4-2.1,1.6-2.7c-1-.8-1.6-1.7-1.6-3,0-3.1,2.4-3.3,4.2-3.3h5.4v-1.5c-.5.6-1.2,1-2.3,1-3.2,0-2.9-3.4-3.4-5.6-.1-.5-.3-.8-.9-.8s-1,.9-1,1.5.4,1.4,1.2,1.6v3c-1.3,0-2.1-.7-2.6-1.5-.5-.9-.7-2-.7-3.1,0-2,.4-4,2.4-4.4h-9.3v25.4ZM53.8,143.4l-.3,2.3h-2.5l.4-2.3h2.5ZM60.3,122.8c.2.7.5,1.3,1.2,1.3s1.1-.6,1.1-1.3c0-1.5-.9-2-2.9-1.9.3.4.3,1.3.5,2M55.4,155.1c-1.3,0-1.9.7-2,1.6l-.3,2.1h3.7l.2-2.1c0-.9-.3-1.6-1.6-1.6M57,132.1c0,1.4,1.1,1.5,2.6,1.5h4.4v-2.8h-5.3c-1.1,0-1.7.5-1.7,1.3M57,137.8c0,1.1.7,1.6,2.7,1.6h4.4v-2.8h-5.2c-1.1,0-1.9.3-1.9,1.2"/>
      <path class="cls-2" d="M68.5,117.9h12.5v47h-12.5v-47Z"/>
      <path class="cls-2" d="M104.1,165.5c-2.8,0-5.5-.5-7.8-1.4-2.4-1-4.4-2.3-6.2-4-1.7-1.7-3.1-3.6-4.1-5.9-1-2.2-1.4-4.6-1.4-7.1h0c0-2.7.5-5.1,1.5-7.3,1-2.3,2.3-4.2,4.1-5.9,1.7-1.7,3.8-3,6.2-4,2.4-1,5-1.5,7.9-1.5s5.5.5,7.8,1.5c2.4,1,4.4,2.3,6.2,4,1.7,1.7,3.1,3.6,4.1,5.8,1,2.2,1.4,4.6,1.4,7.1h0c0,2.7-.5,5.1-1.5,7.3-1,2.3-2.3,4.2-4.1,5.9-1.7,1.7-3.8,3-6.2,4-2.4,1-5,1.5-7.9,1.5ZM104.2,154.9c1.1,0,2.2-.2,3.1-.6.9-.4,1.7-1,2.3-1.7.6-.7,1.1-1.6,1.5-2.5.3-1,.5-2,.5-3h0c0-1.2-.2-2.2-.6-3.2-.4-1-.9-1.8-1.6-2.5-.7-.7-1.5-1.3-2.4-1.7-.9-.4-1.9-.7-3-.7s-2.2.2-3.1.6c-.9.4-1.7,1-2.3,1.7-.6.7-1.1,1.6-1.5,2.5-.4,1-.5,2-.5,3h0c0,1.2.2,2.2.6,3.2.4,1,.9,1.8,1.6,2.5.7.7,1.5,1.3,2.4,1.7.9.4,1.9.7,3,.7Z"/>
      <path class="cls-2" d="M121.7,129.2h13.1l6.8,20.7,6.8-20.7h12.9l-14.2,35.7h-11.3l-14.2-35.7Z"/>
      <path class="cls-2" d="M178.4,165.5c-2.8,0-5.4-.4-7.7-1.3-2.3-.9-4.3-2.1-6-3.7-1.7-1.6-3-3.5-3.9-5.8-.9-2.3-1.4-4.8-1.4-7.5h0c0-2.7.4-5.1,1.3-7.4.9-2.3,2.1-4.2,3.7-5.9,1.6-1.7,3.5-3,5.7-4,2.2-1,4.6-1.4,7.2-1.4s5.7.5,8,1.6c2.3,1,4.1,2.5,5.6,4.2,1.5,1.8,2.6,3.8,3.3,6.2.7,2.3,1.1,4.8,1.1,7.4v1.2c0,.4,0,.9,0,1.3h-23.7c.5,2,1.4,3.4,2.7,4.4,1.3,1,3,1.4,5,1.4s2.9-.3,4.1-.9c1.2-.6,2.5-1.5,3.8-2.8l6.9,5.7c-1.7,2.2-3.8,3.9-6.3,5.2-2.5,1.3-5.5,2-9.1,2ZM183.5,144c-.2-2-.9-3.5-2-4.7-1.1-1.2-2.5-1.7-4.2-1.7s-3,.6-4.1,1.7c-1,1.2-1.7,2.7-2.1,4.7h12.3Z"/>
    </g>
    <g>
      <path class="cls-2" d="M201.1,135.9l3.2-3.8c2.1,1.6,4.3,2.5,6.7,2.5s2.4-.5,2.4-1.4h0c0-.9-.7-1.4-3.5-2.1-4.4-1-7.8-2.2-7.8-6.4h0c0-3.9,3-6.7,8-6.7s6.2.9,8.5,2.7l-2.9,4c-1.9-1.4-3.9-2-5.8-2s-2.1.6-2.1,1.3h0c0,1,.7,1.4,3.6,2.1,4.7,1,7.7,2.6,7.7,6.4h0c0,4.3-3.3,6.8-8.3,6.8s-7.1-1.1-9.7-3.4Z"/>
      <path class="cls-2" d="M221.1,118.3h5.7v8.4l7.1-8.4h6.7l-7.8,8.8,8.1,11.8h-6.8l-5.2-7.7-2.1,2.3v5.4h-5.7v-20.6Z"/>
    </g>
  </g>
</svg>