<svg width="284" height="284" viewBox="0 0 284 284" fill="none" xmlns="http://www.w3.org/2000/svg">
<g clip-path="url(#clip0_13_97)">
<rect width="283.5" height="283.5" fill="#CB0203"/>
<path d="M283.5 0H0V283.5H283.5V0Z" fill="white"/>
<path fill-rule="evenodd" clip-rule="evenodd" d="M123.48 224.928C123.48 227.318 127.438 227.338 127.438 227.338V230.598H113.19V227.338C113.19 227.338 117.149 227.318 117.149 224.928V219.058C117.149 216.658 113.19 216.658 113.19 216.658V213.388H127.438V216.658C127.438 216.658 123.48 216.658 123.48 219.058V224.928ZM73.3066 213.388C79.998 213.388 85.1186 213.388 85.1186 218.678C85.119 223.898 79.998 223.898 73.3066 223.898V220.818C76.1806 220.818 78.3172 220.818 78.3172 218.678C78.3172 216.918 76.1806 216.918 73.3066 216.918V213.388ZM72.4736 224.928C72.4736 227.318 76.4326 227.338 76.4326 227.338V230.598H62.1846V227.338C62.1846 227.338 66.1436 227.318 66.1436 224.928V219.058C66.1436 216.658 62.1846 216.658 62.1846 216.658V213.388H72.4736V224.928ZM155.541 216.668V213.388H144.67V216.668H145.958C147.105 216.668 147.985 217.388 147.231 218.618L143.822 224.318L145.817 227.668L151.755 218.398C152.933 216.588 153.938 216.668 155.541 216.668ZM142.126 216.668V213.388H128.569L128.553 216.668C128.553 216.668 131.13 216.748 132.355 218.918L139.204 230.598H144.246L145.22 228.908L139.345 218.618C138.544 217.188 139.518 216.658 140.665 216.688L142.126 216.668ZM218.452 219.968V213.388H206.732V216.798H212.232C213.722 216.798 214.932 217.388 214.932 219.968H218.452ZM206.732 223.648V220.388H207.522C209.062 220.388 209.762 219.468 209.762 218.348H212.922V225.578H209.762C209.762 224.528 209.062 223.648 207.522 223.648H206.732ZM205.902 230.598H195.612V227.338C195.612 227.338 199.572 227.318 199.572 224.928V219.058C199.572 216.658 195.612 216.658 195.612 216.658V213.388H205.902V230.598ZM218.452 224.008V230.598H206.732V227.198L212.252 227.178C213.742 227.178 214.952 226.578 214.952 224.008H218.452ZM112.512 226.388C112.512 227.998 112.512 231.108 107.909 231.108C99.2376 231.108 105.223 223.708 100.118 223.708H96.4575L96.4418 220.238H100.558C102.097 220.238 103.04 219.748 103.04 218.598C103.04 217.528 102.097 217.058 100.558 217.058H96.4418V213.388H103.04C106.7 213.388 109.103 215.188 109.103 218.158C109.103 219.768 108.318 220.958 106.307 222.138C109.182 223.158 108.773 225.168 108.773 226.908C108.773 227.238 108.758 227.808 109.449 227.808C110.14 227.808 110.14 227.238 110.14 226.908V224.948H112.512V226.388ZM95.6246 224.928C95.6246 227.318 99.5672 227.338 99.5672 227.338L99.5832 230.598H85.3352L85.3355 227.338C85.3355 227.338 89.2941 227.318 89.2941 224.928V219.058C89.2941 216.658 85.3355 216.658 85.3355 216.658V213.388H95.6245L95.6246 224.928ZM179.54 216.748C175.786 216.748 175.786 218.378 175.786 219.998H172.267V213.388H179.54V216.748ZM186.687 224.958C186.687 227.348 190.649 227.348 190.649 227.348V230.598H176.398V227.348C176.398 227.348 180.357 227.348 180.357 224.958V213.388H186.687V224.958ZM187.52 216.748C191.259 216.748 191.259 218.378 191.259 219.998H194.779V213.388H187.52V216.748ZM162.748 225.288H157.438L159.025 222.478H161.067L162.748 225.288ZM147.825 227.318V230.598H158.679V227.318H157.407C156.26 227.318 155.365 226.598 156.134 225.368L159.528 219.668L157.548 216.328L151.61 225.588C150.432 227.398 149.411 227.318 147.825 227.318ZM161.24 227.318V230.598H174.78L174.796 227.318C174.796 227.318 172.236 227.238 171.01 225.068L164.162 213.388H159.103L158.129 215.078L164.02 225.368C164.806 226.798 163.832 227.338 162.701 227.308L161.24 227.318Z" fill="#D02624"/>
<path fill-rule="evenodd" clip-rule="evenodd" d="M218.412 53H62.1915L62.1865 209.22H218.407L218.417 53H218.412Z" fill="#D02624"/>
<path fill-rule="evenodd" clip-rule="evenodd" d="M138.925 72.521C185.296 72.521 220.751 72.474 220.751 109.122C220.751 145.208 185.296 145.208 138.925 145.208V123.908C158.906 123.908 173.657 123.888 173.657 109.122C173.657 96.916 158.906 96.916 138.925 96.916V72.521ZM133.208 152.418C133.208 168.968 160.603 169.018 160.603 169.018L160.649 191.638H62.0005V169.018C62.0005 169.018 89.4125 168.968 89.4125 152.418L89.412 111.745C89.412 95.094 62 95.157 62 95.157L62.001 72.521H133.208L133.208 152.418Z" fill="white"/>
</g>
<defs>
<clipPath id="clip0_13_97">
<rect width="283.5" height="283.5" fill="white"/>
</clipPath>
</defs>
</svg>
