<svg width="500" height="500" viewBox="0 0 500 500" fill="none" xmlns="http://www.w3.org/2000/svg">
<g clip-path="url(#clip0_9_1013)">
<rect width="500" height="500" fill="#55D6C5"/>
<rect width="500" height="500" fill="#55D6C5"/>
<path d="M326.805 248.945C327.034 249.027 327.034 249.027 327.268 249.11C328.925 249.72 330.497 250.497 332.016 251.387C332.016 251.533 332.016 251.68 332.016 251.831C332.149 251.856 332.282 251.882 332.42 251.908C332.957 252.063 333.265 252.256 333.704 252.593C333.844 252.701 333.985 252.808 334.129 252.919C334.273 253.031 334.416 253.144 334.564 253.26C334.712 253.372 334.859 253.484 335.01 253.599C335.381 253.886 335.739 254.189 336.094 254.495C336.094 254.641 336.094 254.788 336.094 254.939C336.318 255.012 336.542 255.085 336.773 255.161C337.163 255.607 337.523 256.05 337.878 256.521C337.979 256.652 338.08 256.784 338.184 256.92C338.471 257.294 338.755 257.67 339.039 258.047C339.221 258.285 339.221 258.285 339.407 258.529C340.337 259.771 341.062 261.006 341.582 262.458C341.7 262.775 341.829 263.088 341.969 263.396C343.739 267.33 344.239 271.995 344.023 276.251C343.949 276.397 343.874 276.544 343.797 276.694C328.021 276.694 312.246 276.694 295.992 276.694C296.142 277.354 296.291 278.013 296.445 278.692C296.508 279.039 296.57 279.386 296.629 279.733C297.574 284.296 300.259 288.003 303.695 291.124C303.837 291.256 303.98 291.388 304.126 291.524C307.516 294.385 312.641 295.925 317.062 296.008C317.414 296.021 317.414 296.021 317.773 296.034C324.862 296.179 330.412 294.111 336.061 289.896C336.547 289.57 336.547 289.57 337 289.57C337.075 289.35 337.149 289.131 337.227 288.904C337.564 288.628 337.564 288.628 337.977 288.363C338.629 287.929 339.181 287.476 339.719 286.906C340.694 287.196 341.283 287.696 342.025 288.347C342.521 288.75 343.038 289.04 343.606 289.336C344.016 289.566 344.382 289.82 344.76 290.097C345.572 290.671 346.411 291.124 347.309 291.554C347.466 291.63 347.623 291.706 347.785 291.784C350.677 293.157 353.606 294.114 356.711 294.898C356.977 294.967 357.244 295.036 357.518 295.107C359.303 295.56 361.01 295.82 362.859 295.831C363.031 295.833 363.204 295.834 363.381 295.835C363.744 295.837 364.108 295.839 364.471 295.839C365.017 295.842 365.564 295.849 366.111 295.856C370.476 295.885 374.306 294.748 377.555 291.79C378.957 290.416 379.421 288.564 379.495 286.67C379.45 285.188 379.061 284.14 378.234 282.91C378.038 282.615 378.038 282.615 377.838 282.314C375.188 279.646 371.648 278.477 368.039 277.582C367.527 277.451 367.015 277.319 366.503 277.186C365.941 277.041 365.379 276.896 364.818 276.752C363.596 276.437 362.375 276.119 361.155 275.799C360.595 275.652 360.035 275.507 359.474 275.363C355.117 274.242 350.996 273.029 347.422 270.257C347.193 270.092 346.964 269.927 346.728 269.757C345.213 268.492 344.279 266.796 343.797 264.929C343.758 264.791 343.719 264.653 343.679 264.511C342.904 261.165 343.839 257.79 345.609 254.939C345.759 254.939 345.908 254.939 346.062 254.939C346.097 254.726 346.097 254.726 346.133 254.509C346.21 254.282 346.21 254.282 346.289 254.051C346.513 253.978 346.738 253.904 346.969 253.829C347.043 253.682 347.118 253.536 347.195 253.385C347.422 252.941 347.422 252.941 348.102 252.719C348.176 252.499 348.251 252.279 348.328 252.053C352.439 248.506 358.154 247.619 363.409 247.682C363.733 247.684 363.733 247.684 364.064 247.686C367.73 247.71 371.091 248.103 374.609 249.167C374.801 249.222 374.992 249.276 375.19 249.332C378.367 250.239 381.707 251.416 384.404 253.329C384.962 253.716 385.544 253.993 386.164 254.273C386.104 255.11 385.994 255.535 385.456 256.201C384.273 257.134 382.935 257.64 381.406 257.603C379.785 257.366 378.409 256.716 376.965 255.981C371.239 253.099 363.297 251.83 357.05 253.666C355.409 254.201 353.888 254.859 352.633 256.049C352.456 256.211 352.279 256.373 352.096 256.541C350.563 258.06 350.054 259.407 349.829 261.502C350.051 263.497 350.64 264.93 352.236 266.219C356.404 269.114 361.609 270.319 366.521 271.408C372.902 272.833 380.355 274.742 384.363 280.218C386.036 282.849 386.339 286.017 385.639 289.009C385.076 291.048 384.241 292.73 382.992 294.454C382.89 294.596 382.788 294.737 382.683 294.883C381.366 296.535 379.469 297.781 377.555 298.672C377.351 298.777 377.147 298.882 376.937 298.989C373.155 300.837 369.275 301.316 365.094 301.267C364.762 301.265 364.762 301.265 364.423 301.263C360.641 301.239 357.175 300.853 353.539 299.782C353.343 299.726 353.147 299.671 352.945 299.613C351.764 299.273 350.61 298.883 349.461 298.45C349.295 298.388 349.129 298.326 348.958 298.262C345.826 297.076 343.011 295.531 340.172 293.788C339.24 294.39 338.343 295.016 337.459 295.683C336.946 296.047 336.413 296.359 335.867 296.674C335.701 296.776 335.535 296.878 335.364 296.984C332.752 298.575 330 299.686 327.031 300.448C326.819 300.506 326.607 300.564 326.389 300.624C323.87 301.241 321.373 301.246 318.79 301.239C318.443 301.239 318.443 301.239 318.088 301.239C314.551 301.227 311.338 301.025 308 299.782C307.804 299.712 307.608 299.642 307.406 299.57C301.271 297.341 295.804 293.122 292.82 287.35C292.689 287.115 292.559 286.88 292.424 286.637C290.54 283.161 289.868 279.718 289.648 275.807C289.635 275.565 289.621 275.323 289.607 275.075C289.591 274.426 289.611 273.791 289.648 273.143C289.656 272.986 289.665 272.83 289.673 272.669C290.107 265.15 293.618 258.998 299.136 253.884C301.309 252.028 303.769 250.712 306.414 249.611C306.665 249.501 306.916 249.392 307.174 249.279C312.877 246.973 321.01 246.833 326.805 248.945ZM301.741 258.907C301.157 259.514 301.157 259.514 301.203 260.045C300.867 260.155 300.867 260.155 300.523 260.267C297.904 263.796 296.58 267.489 295.992 271.811C309.749 271.811 323.506 271.811 337.68 271.811C337.248 269.062 336.796 266.565 335.641 264.041C335.559 263.863 335.478 263.686 335.395 263.503C334.418 261.486 333.218 259.592 331.562 258.047C331.386 257.88 331.21 257.713 331.028 257.54C329.843 256.463 328.708 255.633 327.258 254.939C326.977 254.796 326.977 254.796 326.69 254.649C324.815 253.701 323.079 253.076 320.985 252.788C320.685 252.747 320.685 252.747 320.378 252.704C313.577 251.81 306.414 253.779 301.741 258.907Z" fill="white"/>
<path d="M120.18 237.179C120.507 237.21 120.834 237.242 121.161 237.275C121.344 237.292 121.526 237.31 121.714 237.328C122.916 237.502 123.875 238.276 124.629 239.177C125.576 240.584 125.662 241.924 125.737 243.585C125.746 243.786 125.755 243.986 125.765 244.193C125.888 247.052 125.922 249.914 125.964 252.776C125.976 253.548 125.988 254.321 126.001 255.094C126.025 256.596 126.048 258.098 126.07 259.601C126.195 259.448 126.319 259.296 126.447 259.139C126.61 258.939 126.773 258.738 126.941 258.532C127.103 258.334 127.265 258.136 127.431 257.931C130.51 254.175 134.252 251.522 138.758 249.611C138.991 249.507 139.225 249.403 139.466 249.296C142.722 247.936 146.107 247.646 149.604 247.696C149.812 247.698 150.019 247.699 150.232 247.701C153.385 247.726 156.375 247.917 159.375 248.945C159.538 249 159.702 249.054 159.87 249.11C163.116 250.223 166.531 252.02 169.117 254.273C169.117 254.419 169.117 254.566 169.117 254.717C169.271 254.754 169.426 254.79 169.584 254.828C170.583 255.328 171.14 256.088 171.836 256.937C171.934 257.054 172.032 257.171 172.132 257.292C173.398 258.809 174.556 260.288 175.461 262.043C175.615 262.29 175.769 262.537 175.928 262.792C176.524 263.829 176.912 264.905 177.273 266.039C177.348 266.261 177.348 266.261 177.424 266.487C179.362 272.45 179.012 279.607 176.304 285.287C174.81 288.086 173.096 290.971 170.703 293.122C170.554 293.122 170.404 293.122 170.25 293.122C170.201 293.249 170.151 293.376 170.1 293.506C167.929 297.11 161.238 299.437 157.334 300.477C151.64 301.829 144.559 301.831 138.984 300.004C138.817 299.949 138.651 299.895 138.479 299.839C136.749 299.251 135.103 298.508 133.547 297.562C133.417 297.484 133.287 297.407 133.154 297.326C132.712 297.061 132.273 296.792 131.833 296.521C131.69 296.434 131.547 296.347 131.399 296.257C131.049 296.038 130.711 295.802 130.375 295.564C130.375 295.418 130.375 295.271 130.375 295.12C130.186 295.1 130.186 295.1 129.993 295.079C129.242 294.82 128.876 294.355 128.336 293.788C128.086 293.552 127.836 293.316 127.585 293.081C126.977 292.456 126.977 292.456 126.977 292.012C126.752 291.939 126.528 291.866 126.297 291.79C124.393 289.665 123.114 287.23 121.964 284.659C121.89 284.499 121.817 284.339 121.741 284.174C120.364 280.999 120.046 277.86 120.077 274.453C120.077 274.044 120.077 273.634 120.076 273.225C120.076 272.125 120.081 271.026 120.088 269.927C120.093 268.774 120.094 267.62 120.095 266.467C120.098 264.288 120.105 262.11 120.114 259.931C120.125 257.449 120.129 254.966 120.134 252.484C120.143 247.382 120.159 242.281 120.18 237.179ZM147.831 252.743C142.278 253.087 136.213 255.231 132.414 259.379C132.066 259.772 131.72 260.167 131.379 260.567C131.055 260.933 131.055 260.933 130.729 261.242C128.016 263.974 126.705 267.494 126.127 271.186C126.098 271.371 126.069 271.555 126.039 271.745C125.254 277.204 126.727 282.908 130.029 287.356C132.373 290.442 132.373 290.442 135.586 292.234C135.586 292.381 135.586 292.527 135.586 292.678C137.583 293.69 139.55 294.683 141.703 295.342C141.907 295.406 142.111 295.469 142.322 295.535C148.761 297.403 155.907 296.189 161.71 293.107C162.471 292.696 163.197 292.282 163.906 291.79C163.906 291.644 163.906 291.497 163.906 291.346C164.152 291.271 164.152 291.271 164.402 291.194C165.17 290.842 165.615 290.414 166.172 289.792C166.247 289.572 166.321 289.353 166.398 289.126C166.623 289.053 166.847 288.98 167.078 288.904C168.335 287.483 169.384 285.918 170.25 284.242C170.328 284.102 170.406 283.962 170.487 283.818C172.946 279.305 173.292 273.364 171.836 268.481C171.505 267.496 171.127 266.544 170.703 265.595C170.574 265.304 170.574 265.304 170.442 265.008C169.275 262.562 167.475 260.358 165.492 258.491C165.343 258.491 165.193 258.491 165.039 258.491C165.039 258.344 165.039 258.198 165.039 258.047C164.665 257.9 164.291 257.754 163.906 257.603C163.906 257.456 163.906 257.31 163.906 257.159C163.398 256.817 162.894 256.505 162.363 256.201C162.207 256.112 162.052 256.022 161.892 255.93C157.521 253.444 152.857 252.47 147.831 252.743Z" fill="white"/>
<path d="M230.063 237.179C232.152 237.318 233.236 237.984 234.654 239.478C235.506 240.752 235.568 242.214 235.572 243.693C235.575 243.869 235.577 244.045 235.579 244.226C235.586 244.8 235.59 245.374 235.594 245.948C235.598 246.349 235.603 246.749 235.607 247.15C235.619 248.199 235.628 249.249 235.636 250.299C235.645 251.372 235.657 252.445 235.668 253.518C235.69 255.619 235.709 257.721 235.727 259.823C235.867 259.654 236.007 259.486 236.152 259.313C236.336 259.092 236.52 258.872 236.71 258.645C236.983 258.317 236.983 258.317 237.263 257.982C240.405 254.226 244.085 251.543 248.641 249.611C248.895 249.501 249.149 249.391 249.411 249.277C255.188 246.926 263.136 246.936 269.031 248.945C269.275 249.027 269.275 249.027 269.524 249.11C270.515 249.453 271.474 249.846 272.43 250.277C272.738 250.414 272.738 250.414 273.053 250.554C275.635 251.759 278.158 253.343 280.133 255.383C280.306 255.548 280.479 255.713 280.657 255.882C286.205 261.445 288.423 268.026 288.374 275.713C288.34 278.151 287.948 280.379 287.156 282.688C287.105 282.841 287.055 282.994 287.002 283.151C285.768 286.752 283.453 290.545 280.586 293.122C280.436 293.122 280.287 293.122 280.133 293.122C280.06 293.312 280.06 293.312 279.985 293.505C279.576 294.182 279.067 294.519 278.419 294.981C278.298 295.068 278.177 295.155 278.052 295.245C277.029 295.973 275.987 296.672 274.922 297.34C274.726 297.464 274.529 297.587 274.327 297.715C273.775 298.014 273.208 298.254 272.628 298.494C272.246 298.654 271.867 298.821 271.488 298.989C264.794 301.825 255.805 302.377 248.867 300.004C248.635 299.929 248.635 299.929 248.399 299.853C242.361 297.871 237.342 293.895 233.914 288.682C233.768 288.464 233.621 288.245 233.471 288.02C231.37 284.702 230.11 280.716 229.927 276.817C229.918 276.644 229.91 276.472 229.9 276.294C229.814 274.471 229.804 272.648 229.807 270.823C229.806 270.455 229.806 270.087 229.805 269.72C229.804 268.736 229.805 267.752 229.806 266.768C229.806 265.734 229.806 264.7 229.805 263.666C229.805 261.935 229.805 260.204 229.806 258.473C229.808 256.47 229.807 254.468 229.806 252.465C229.805 250.741 229.805 249.017 229.805 247.293C229.806 246.265 229.806 245.237 229.805 244.209C229.804 243.247 229.805 242.284 229.806 241.321C229.807 240.968 229.806 240.614 229.806 240.26C229.805 239.779 229.806 239.298 229.807 238.817C229.807 238.547 229.807 238.278 229.807 238C229.836 237.401 229.836 237.401 230.063 237.179ZM242.297 259.379C242.057 259.644 241.821 259.912 241.589 260.184C241.257 260.572 240.933 260.937 240.557 261.285C240.206 261.581 240.206 261.581 240.258 262.043C240.108 262.043 239.959 262.043 239.805 262.043C236.745 265.683 235.308 271.143 235.727 275.806C236.383 281.773 238.708 287.097 243.43 291.124C245.651 292.864 248.014 294.162 250.68 295.12C250.834 295.182 250.988 295.243 251.147 295.307C256.299 297.228 263.562 296.699 268.578 294.676C270.378 293.86 272.189 292.945 273.789 291.79C273.789 291.644 273.789 291.497 273.789 291.346C274.034 291.271 274.034 291.271 274.285 291.194C275.053 290.842 275.498 290.414 276.055 289.792C276.13 289.572 276.204 289.353 276.281 289.126C276.506 289.053 276.73 288.98 276.961 288.904C278.218 287.483 279.267 285.918 280.133 284.242C280.211 284.102 280.289 283.962 280.37 283.818C282.86 279.248 283.092 273.429 281.719 268.481C281.39 267.494 281.014 266.543 280.586 265.595C280.511 265.429 280.436 265.263 280.359 265.092C279.798 263.926 279.075 262.874 278.32 261.821C278.213 261.667 278.105 261.513 277.995 261.354C277.285 260.376 276.506 259.6 275.564 258.833C275.148 258.491 275.148 258.491 274.825 258.169C270.726 254.212 264.969 252.839 259.401 252.699C253.1 252.858 246.745 254.791 242.297 259.379Z" fill="white"/>
<path d="M204.104 247.608C211.153 247.586 218.167 248.951 223.391 253.937C227.85 258.667 228.516 264.143 228.506 270.339C228.506 270.662 228.507 270.986 228.507 271.309C228.508 272.175 228.508 273.041 228.507 273.907C228.506 274.817 228.507 275.727 228.507 276.636C228.508 278.16 228.507 279.684 228.506 281.208C228.505 282.97 228.505 284.731 228.507 286.493C228.508 288.011 228.508 289.528 228.507 291.046C228.507 291.95 228.507 292.854 228.507 293.759C228.508 294.606 228.508 295.454 228.506 296.301C228.506 296.612 228.506 296.923 228.507 297.235C228.507 297.658 228.506 298.082 228.505 298.505C228.505 298.861 228.505 298.861 228.505 299.224C228.477 299.782 228.477 299.782 228.25 300.226C226.625 300.31 225.495 300.119 224.229 299.019C224.06 298.831 223.892 298.643 223.719 298.45C223.593 298.313 223.466 298.175 223.336 298.034C222.563 296.807 222.503 295.427 222.444 294.024C222.436 293.851 222.427 293.678 222.418 293.5C222.397 293.078 222.378 292.656 222.359 292.234C222.266 292.344 222.172 292.455 222.076 292.568C221.116 293.675 220.105 294.641 218.961 295.564C218.805 295.695 218.649 295.825 218.488 295.96C216.604 297.48 214.392 298.401 212.164 299.338C211.937 299.44 211.709 299.542 211.475 299.648C208.104 301.056 204.495 301.31 200.878 301.267C200.662 301.266 200.446 301.265 200.223 301.264C196.791 301.242 193.66 300.951 190.414 299.782C190.14 299.689 189.865 299.597 189.582 299.501C187.061 298.561 184.868 297.179 182.938 295.342C182.741 295.164 182.545 294.985 182.343 294.801C179.438 291.73 177.963 288.339 178.106 284.111C178.539 279.647 180.384 276.087 183.844 273.143C184.641 272.555 185.463 272.061 186.336 271.589C186.7 271.39 186.7 271.39 187.071 271.188C197.288 265.898 211.822 266.998 222.586 270.035C222.441 265.484 222.036 261.117 218.734 257.603C217.069 256.16 215.157 255.019 213.07 254.273C212.85 254.191 212.629 254.11 212.402 254.026C208.364 252.713 203.895 252.802 199.703 253.163C199.539 253.177 199.374 253.19 199.204 253.205C195.814 253.507 192.673 254.345 189.508 255.541C188.107 256.052 186.938 256.312 185.469 255.845C183.518 254.843 183.518 254.843 182.938 253.829C182.768 253.094 182.768 253.094 182.711 252.497C189.594 249.375 196.505 247.66 204.104 247.608ZM187.469 277.36C186.955 277.897 186.955 277.897 186.563 278.47C186.376 278.69 186.189 278.91 185.996 279.136C184.567 281.144 184.257 283.637 184.523 286.018C185.093 288.792 186.334 290.739 188.602 292.456C188.772 292.589 188.942 292.722 189.118 292.859C192.611 295.433 197.047 296.183 201.317 296.133C201.489 296.132 201.661 296.131 201.838 296.13C207.466 296.09 212.217 294.641 216.922 291.568C216.922 291.422 216.922 291.275 216.922 291.124C217.056 291.103 217.191 291.082 217.329 291.06C218.286 290.758 218.807 289.875 219.414 289.126C219.645 288.845 219.645 288.845 219.88 288.559C222.361 285.394 222.889 282.327 222.841 278.457C222.839 278.134 222.837 277.812 222.835 277.489C222.83 276.706 222.822 275.923 222.813 275.14C220.746 274.527 218.7 274.022 216.568 273.67C216.283 273.623 215.999 273.576 215.705 273.527C206.894 272.146 194.57 270.959 187.469 277.36Z" fill="white"/>
<path d="M265.633 200.55C265.872 200.652 265.872 200.652 266.115 200.756C267.519 201.386 268.722 202.291 269.938 203.214C270.057 203.304 270.177 203.394 270.3 203.487C272.219 204.95 273.815 206.54 275.148 208.542C275.148 208.688 275.148 208.835 275.148 208.986C275.298 208.986 275.448 208.986 275.602 208.986C276.951 211.631 276.951 211.631 277.19 212.1C277.385 212.482 277.584 212.862 277.784 213.242C279.053 215.813 279.848 218.999 279.453 221.862C279.151 222.48 279.151 222.48 278.773 222.972C277.941 223.244 277.176 223.224 276.309 223.22C276.125 223.22 275.941 223.221 275.752 223.221C275.134 223.221 274.516 223.22 273.899 223.219C273.457 223.219 273.015 223.219 272.572 223.219C271.37 223.219 270.168 223.218 268.966 223.216C267.711 223.215 266.456 223.215 265.2 223.214C262.822 223.214 260.444 223.212 258.065 223.21C255.358 223.207 252.651 223.206 249.944 223.205C244.374 223.202 238.804 223.199 233.234 223.194C233.302 223.727 233.372 224.26 233.442 224.794C233.461 224.944 233.48 225.094 233.499 225.248C233.647 226.367 233.895 227.36 234.339 228.397C234.43 228.62 234.43 228.62 234.523 228.848C234.693 229.259 234.87 229.667 235.047 230.075C235.122 230.251 235.196 230.427 235.273 230.608C236.052 232.276 237.637 235.007 239.352 235.847C239.352 235.994 239.352 236.14 239.352 236.291C239.477 236.346 239.602 236.4 239.73 236.456C240.365 236.792 240.884 237.209 241.447 237.651C243.047 238.855 244.753 239.729 246.602 240.509C246.874 240.627 247.146 240.745 247.426 240.867C251.639 242.471 257.888 242.247 262.008 240.509C262.166 240.443 262.324 240.376 262.487 240.307C267.935 237.941 271.641 234.305 274.016 228.965C274.165 228.965 274.315 228.965 274.469 228.965C274.527 228.832 274.585 228.698 274.645 228.56C275.119 227.734 275.857 227.33 276.734 226.968C277.427 226.883 278.08 226.897 278.773 226.968C278.307 231.196 275.458 235.396 272.43 238.289C272.154 238.564 272.154 238.564 271.873 238.845C268.88 241.724 265.635 243.482 261.64 244.672C261.409 244.742 261.409 244.742 261.173 244.814C254.85 246.621 247.305 245.517 241.572 242.546C240.28 241.844 239.131 240.986 237.992 240.065C237.71 239.839 237.71 239.839 237.422 239.609C236.515 238.86 236.515 238.86 236.18 238.511C236.18 238.365 236.18 238.218 236.18 238.067C236.052 238.02 235.925 237.973 235.794 237.925C235.098 237.522 234.675 236.971 234.197 236.347C234.099 236.219 234 236.092 233.899 235.961C230.053 230.871 228.344 224.839 229.253 218.525C229.67 216.193 230.266 213.963 231.422 211.872C231.488 211.728 231.554 211.583 231.623 211.435C232.663 209.184 234.359 206.737 236.321 205.17C236.719 204.85 237.091 204.541 237.445 204.174C237.766 203.88 237.766 203.88 238.219 203.88C238.331 203.55 238.331 203.55 238.445 203.214C238.996 202.827 239.539 202.475 240.116 202.132C240.363 201.983 240.363 201.983 240.615 201.832C241.89 201.076 243.177 200.424 244.563 199.884C244.849 199.766 244.849 199.766 245.141 199.645C246.938 198.945 248.779 198.627 250.68 198.33C250.869 198.3 251.058 198.271 251.253 198.24C256.103 197.602 261.22 198.541 265.633 200.55ZM239.003 207.8C238.922 207.903 238.841 208.006 238.757 208.112C238.219 208.764 238.219 208.764 237.795 209.166C236.011 210.963 234.923 213.062 234.141 215.424C234.052 215.677 233.963 215.931 233.872 216.192C233.421 217.532 233.234 218.41 233.234 219.864C247.216 219.864 261.197 219.864 275.602 219.864C274.875 215.831 273.811 213.11 271.523 209.874C271.4 209.698 271.278 209.522 271.151 209.341C271.05 209.224 270.948 209.107 270.844 208.986C270.694 208.986 270.545 208.986 270.391 208.986C270.337 208.859 270.283 208.732 270.227 208.602C268.414 205.446 263.365 203.297 260.013 202.277C252.672 200.527 244.265 202.238 239.003 207.8Z" fill="white"/>
<path d="M164.813 202.104C165.065 202.259 165.317 202.414 165.576 202.574C165.773 202.712 165.969 202.85 166.172 202.992C166.172 203.138 166.172 203.285 166.172 203.436C166.304 203.493 166.436 203.55 166.572 203.609C167.119 203.902 167.49 204.224 167.928 204.657C168.067 204.792 168.206 204.927 168.349 205.066C168.664 205.434 168.664 205.434 168.664 205.878C168.814 205.878 168.963 205.878 169.117 205.878C169.441 206.315 169.733 206.752 170.023 207.21C170.113 207.341 170.202 207.472 170.294 207.608C173.191 211.936 173.975 217.073 173.003 222.146C172.078 226.045 169.751 229.721 166.625 232.295C166.476 232.295 166.326 232.295 166.172 232.295C166.097 232.515 166.022 232.735 165.945 232.961C165.619 233.227 165.619 233.227 165.202 233.481C165.05 233.574 164.897 233.668 164.74 233.764C164.577 233.861 164.414 233.958 164.246 234.057C164.08 234.157 163.913 234.257 163.741 234.36C162.618 235.024 161.521 235.64 160.281 236.069C159.885 236.209 159.885 236.209 159.48 236.351C153.56 238.345 146.863 238.195 141.158 235.599C138.902 234.438 136.437 232.881 134.779 230.977C134.652 230.833 134.526 230.689 134.396 230.541C133.954 230.021 133.524 229.494 133.094 228.965C133.092 229.117 133.09 229.269 133.088 229.425C133.069 231.01 133.046 232.595 133.022 234.179C133.013 234.77 133.005 235.361 132.998 235.952C132.988 236.803 132.975 237.653 132.961 238.504C132.957 238.898 132.957 238.898 132.953 239.301C132.889 242.838 132.889 242.838 131.763 244.033C131.651 244.156 131.54 244.279 131.425 244.406C130.428 245.271 129.618 245.187 128.336 245.171C128.309 241.369 128.289 237.567 128.277 233.765C128.271 232 128.264 230.234 128.251 228.468C128.239 226.927 128.232 225.386 128.229 223.844C128.228 223.03 128.225 222.216 128.216 221.402C128.15 214.683 129.126 209.177 134.053 204.233C135.266 203.032 136.433 201.993 137.965 201.202C138.583 200.881 139.193 200.561 139.791 200.203C147.205 195.925 157.982 197.654 164.813 202.104ZM148.045 201.893C143.543 202.124 139.448 204.67 136.492 207.876C135.763 208.7 135.246 209.562 134.765 210.54C134.697 210.674 134.629 210.808 134.559 210.946C132.634 214.786 132.49 218.888 133.773 222.971C134.098 223.746 134.479 224.468 134.906 225.191C135.059 225.455 135.059 225.455 135.215 225.723C135.598 226.365 135.598 226.365 136.039 226.967C136.189 226.967 136.338 226.967 136.492 226.967C136.548 227.091 136.604 227.215 136.662 227.342C137.315 228.525 138.213 229.299 139.324 230.061C139.464 230.158 139.603 230.254 139.747 230.353C141.687 231.665 143.712 232.645 146.008 233.183C146.264 233.245 146.521 233.307 146.785 233.371C151.882 234.492 156.954 233.635 161.414 230.963C161.799 230.676 162.178 230.381 162.547 230.075C162.68 229.971 162.812 229.867 162.949 229.76C166.234 227.09 168.056 223.77 168.664 219.642C169.019 215.501 168.033 211.418 165.287 208.184C162.366 204.915 158.36 202.433 153.881 201.937C151.937 201.82 149.991 201.861 148.045 201.893Z" fill="white"/>
<path d="M211.711 199.218C211.727 202.864 211.739 206.509 211.746 210.155C211.75 211.848 211.754 213.542 211.762 215.235C211.769 216.714 211.773 218.192 211.775 219.671C211.776 220.451 211.778 221.232 211.783 222.012C211.861 234.596 211.861 234.596 208.312 238.955C208.202 239.115 208.092 239.275 207.978 239.439C206.396 241.646 204.025 243.233 201.516 244.283C201.252 244.402 201.252 244.402 200.984 244.523C196.743 246.333 191.483 246.486 187.147 244.885C183.227 243.199 179.934 240.725 177.953 236.957C177.879 236.825 177.805 236.693 177.728 236.557C177.161 235.45 176.842 234.299 176.551 233.1C176.513 232.953 176.476 232.806 176.437 232.654C175.541 228.701 175.884 224.378 175.892 220.361C175.892 219.754 175.893 219.148 175.893 218.542C175.894 217.121 175.895 215.701 175.898 214.28C175.9 212.66 175.901 211.04 175.903 209.419C175.905 206.093 175.909 202.766 175.914 199.44C177.2 199.403 177.99 199.633 179.029 200.397C179.971 201.643 179.831 203.161 179.827 204.634C179.828 204.887 179.829 205.14 179.831 205.401C179.833 205.951 179.834 206.5 179.835 207.049C179.836 207.923 179.839 208.796 179.844 209.669C179.855 211.84 179.862 214.011 179.867 216.182C179.871 217.866 179.876 219.55 179.886 221.234C179.89 221.958 179.892 222.681 179.892 223.405C179.736 229.359 179.736 229.359 181.564 234.932C181.64 235.073 181.715 235.214 181.794 235.359C182.249 236.186 182.793 236.892 183.391 237.623C183.391 237.77 183.391 237.916 183.391 238.067C183.69 238.214 183.989 238.36 184.297 238.511C184.297 238.658 184.297 238.804 184.297 238.955C184.427 239.015 184.557 239.075 184.692 239.137C185.209 239.403 185.662 239.706 186.138 240.038C189.221 242.065 192.815 242.422 196.432 241.96C198.353 241.578 200.222 240.862 201.791 239.691C202.195 239.399 202.195 239.399 202.648 239.399C202.648 239.253 202.648 239.106 202.648 238.955C202.873 238.79 203.097 238.626 203.328 238.456C204.426 237.577 205.001 236.416 205.662 235.213C206.047 234.515 206.047 234.515 206.5 233.849C207.678 230.795 207.534 227.608 207.521 224.392C207.52 223.63 207.523 222.867 207.527 222.104C207.534 220.337 207.534 218.57 207.534 216.803C207.533 214.547 207.536 212.292 207.545 210.036C207.548 209.279 207.549 208.523 207.547 207.766C207.545 206.924 207.546 206.082 207.549 205.241C207.547 204.993 207.546 204.745 207.544 204.49C207.554 202.894 207.695 201.572 208.709 200.259C209.665 199.556 210.517 199.218 211.711 199.218Z" fill="white"/>
<path d="M235.953 199.218C235.778 201.244 235.778 201.244 235.047 202.104C233.826 203.008 232.568 203.2 231.084 203.485C230.001 203.72 229.025 204.084 228.023 204.546C227.877 204.612 227.731 204.677 227.58 204.745C225.45 205.81 224.291 207.966 223.492 210.096C223.155 211.26 222.972 212.448 222.813 213.648C222.793 213.789 222.773 213.93 222.753 214.076C222.573 215.486 222.55 216.881 222.547 218.3C222.545 218.559 222.544 218.817 222.542 219.083C222.539 219.641 222.536 220.199 222.534 220.756C222.53 221.639 222.525 222.522 222.519 223.404C222.503 225.913 222.49 228.421 222.478 230.93C222.472 232.318 222.464 233.707 222.454 235.095C222.449 235.828 222.445 236.562 222.442 237.295C222.44 238.112 222.434 238.929 222.428 239.745C222.428 239.987 222.428 240.229 222.428 240.479C222.425 240.701 222.423 240.924 222.421 241.154C222.42 241.347 222.419 241.539 222.418 241.738C222.312 242.725 222.018 243.283 221.312 243.992C220.509 244.608 219.732 244.783 218.734 244.949C218.354 244.577 218.478 244.121 218.478 243.609C218.477 243.367 218.476 243.125 218.475 242.875C218.475 242.607 218.475 242.338 218.475 242.062C218.474 241.781 218.473 241.5 218.473 241.211C218.471 240.437 218.47 239.663 218.47 238.889C218.47 238.404 218.469 237.918 218.469 237.433C218.467 235.735 218.466 234.037 218.466 232.34C218.466 230.767 218.464 229.194 218.46 227.621C218.457 226.265 218.456 224.909 218.456 223.554C218.456 222.747 218.455 221.939 218.453 221.132C218.417 208.211 218.417 208.211 222.784 203.459C223.874 202.401 224.957 201.633 226.324 200.966C226.56 200.851 226.56 200.851 226.801 200.733C228.304 200.03 229.771 199.681 231.422 199.44C231.588 199.411 231.755 199.383 231.926 199.353C233.258 199.149 234.61 199.198 235.953 199.218Z" fill="white"/>
</g>
<defs>
<clipPath id="clip0_9_1013">
<rect width="500" height="500" fill="white"/>
</clipPath>
</defs>
</svg>
