<svg width="284" height="284" viewBox="0 0 284 284" fill="none" xmlns="http://www.w3.org/2000/svg">
<rect width="283.5" height="283.5" fill="#4144C5"/>
<path d="M186.259 76H56V207H186.259V76Z" fill="white"/>
<path d="M94.7004 132.447C94.7004 138.007 89.8458 138.827 85.5305 138.827H84.2752V126.067H85.5305C89.8458 126.067 94.7004 126.886 94.7004 132.447ZM113.31 167.019L97.33 146.063C104.545 144.775 108.455 138.669 108.455 131.617C108.455 120.7 100.836 115.859 90.7897 115.859H70.9834V167.02H84.2752V147.333H84.3843L96.8579 167.019H113.31Z" fill="#4144C5"/>
<path d="M139.629 149.863C139.629 154.314 136.701 157.737 131.663 157.737C126.624 157.737 123.697 154.314 123.697 149.863C123.697 145.549 126.624 141.92 131.663 141.92C136.701 141.92 139.629 145.549 139.629 149.863ZM151.58 132.264H139.255V135.688C136.596 132.607 132.429 131.101 128.412 131.101C118.062 131.101 110.896 139.73 110.896 149.796C110.896 159.862 118.181 168.56 128.531 168.56C132.616 168.56 136.906 167.019 139.084 163.495H139.255V167.384H151.58V132.264Z" fill="#4144C5"/>
<path d="M171.034 167.263H158.709V132.507H171.034V167.263ZM164.864 126.055C161.088 126.055 157.986 122.935 157.986 119.138C157.986 115.341 161.088 112.222 164.864 112.222C168.64 112.222 171.741 115.341 171.741 119.138C171.741 122.935 168.64 126.055 164.864 126.055Z" fill="#4144C5"/>
<path d="M222.887 157.498H228V168.106H204.938V157.498H210.73V125.46H201.577V115.751H222.887V157.498Z" fill="white"/>
</svg>
