<svg width="284" height="284" viewBox="0 0 284 284" fill="none" xmlns="http://www.w3.org/2000/svg">
<rect width="283.5" height="283.5" fill="#091526"/>
<path d="M171.102 156.953L166.996 158.542C164.751 163.846 162.366 166.933 157.019 171.247C155.741 172.408 154.914 173.222 154.914 173.759C154.914 174.07 155.193 174.193 155.645 174.193C156.619 174.193 157.486 173.833 158.207 173.303C155.202 176.599 149.377 180.227 141.573 181.972L130.529 183.429L130.271 184.572C130.573 184.796 131.101 185.195 131.101 185.38C131.101 185.554 130.689 185.556 130.689 185.556L130.678 185.694C132.002 186.218 134.866 187.277 134.866 187.277C134.866 187.277 134.745 187.325 134.745 187.486C134.745 188.089 136.541 188.761 140.787 188.761C143.78 188.761 145.822 188.277 145.822 188.277L146.965 189.586L132.997 194.22C132.997 194.22 131.898 194.44 129.853 194.44C127.519 194.467 125.456 194.006 125.456 194.006C127.462 194.867 132.909 196.375 132.909 196.375L134.976 195.611C135.013 195.26 140.391 194.957 140.391 194.957L140.154 195.166L142.524 196.765L148.653 193.357L150.011 192.664L151.286 192.813L145.036 197.64L145.047 198.052C154.15 196.274 156.872 195.635 163.94 189.393L171.427 178.816L177.506 162.698L171.102 156.953ZM168.794 163.627C168.398 164.906 168.01 165.883 167.26 167.316C166.2 169.186 165.901 169.768 164.292 170.763C163.432 171.286 162.452 171.802 161.659 172.703C161.659 172.703 161.486 172.566 161.318 172.566C161.054 172.566 160.785 172.769 160.785 172.769C160.829 171.923 161.299 171.646 161.318 171.049C161.318 170.783 161.146 170.635 160.933 170.499C161.756 168.64 163.533 166.79 165.111 164.886C165.129 165.153 165.327 165.425 165.787 165.425C166.616 165.425 168.227 164.301 168.541 163.996L168.794 163.627Z" fill="url(#paint0_linear_23_2)"/>
<path d="M177.499 176.16C177.626 175.802 177.75 175.444 177.866 175.077L177.526 176.057C177.517 176.096 177.508 176.13 177.499 176.16Z" fill="#25336A"/>
<path d="M125.061 181.8C124.749 181.588 124.418 181.424 124.069 181.296C124.069 181.314 124.466 181.497 125.061 181.8Z" fill="#25336A"/>
<path d="M177.887 174.798L177.896 174.756L177.908 174.701C177.978 174.425 178.042 174.143 178.103 173.875C175.821 180.877 170.901 186.188 167.876 188.947C168.291 188.671 168.601 188.434 169.038 188.018C168.395 188.686 168.2 188.901 168.046 189.178C168.437 188.823 168.777 188.528 169.187 188.209C169.074 188.471 169.074 188.471 166.628 190.871C169.672 188.182 174.628 183.821 177.314 176.662L177.526 176.058C177.663 175.627 177.781 175.205 177.887 174.798Z" fill="#25336A"/>
<path d="M177.388 176.48L177.336 176.613C177.349 176.568 177.376 176.525 177.388 176.48Z" fill="#25336A"/>
<path d="M126.728 182.595C126.102 182.285 125.529 182.009 125.062 181.8C125.608 182.109 126.118 182.443 126.728 182.595Z" fill="#25336A"/>
<path d="M177.314 176.662L177.299 176.72L177.338 176.614L177.387 176.48L177.463 176.274C177.478 176.225 177.49 176.198 177.499 176.161C177.505 176.131 177.517 176.092 177.523 176.055L177.314 176.662Z" fill="#DDDFE1"/>
<path d="M203.661 135.36H178.361H176.716V140.256H178.361H187.741V168.368V170.49H194.287V168.368V140.256H203.661H205.309V135.36H203.661Z" fill="#5A5758"/>
<path d="M90.1251 110.211C90.1251 107.595 92.2524 105.467 94.8684 105.467C97.4934 105.467 99.6146 107.595 99.6146 110.211H90.1251ZM94.8046 100.038C87.7155 100.038 81.9678 105.844 81.9678 113.024C81.9678 120.199 87.7186 126.02 94.8046 126.02C100.206 126.02 104.437 123.568 106.61 119.744L100.313 116.827C99.5024 118.566 97.6239 119.789 95.4389 119.789C92.5225 119.789 90.1494 117.619 90.1494 114.948C90.1494 114.772 90.0856 114.839 90.0978 114.669L107.256 114.672C107.311 114.15 107.338 113.607 107.335 113.049C107.453 104.648 101.891 100.038 94.8046 100.038Z" fill="#ED1443"/>
<path d="M80.6145 97.7422C80.6145 91.4022 75.3735 86.261 68.9096 86.261C68.7123 86.261 67.8049 86.2701 67.6137 86.2762H54V125.151H62.2635V92.9804L67.1889 92.9379C70.2448 92.9379 72.5603 95.2202 72.5603 98.0245C72.5603 100.835 70.084 103.117 67.0341 103.117L65.1253 103.157V112.41L73.3767 125.151H83.1151L71.6985 108.908C76.8211 107.676 80.6145 103.147 80.6145 97.7422Z" fill="#ED1443"/>
<path d="M124.822 119.196C121.678 119.196 119.116 116.41 119.116 112.953C119.116 109.506 121.678 106.71 124.822 106.71C127.972 106.71 130.518 109.506 130.518 112.953C130.518 116.41 127.972 119.196 124.822 119.196ZM130.427 103.299C128.357 101.26 125.614 100.015 122.615 100.015C116.206 100.015 111.011 105.709 111.011 112.723C111.011 119.736 116.206 125.427 122.615 125.427C125.65 125.427 128.391 124.137 130.454 122.055V125.187H138.171V84H130.427V103.299Z" fill="#ED1443"/>
<path d="M222.137 125.208H229.903V84.3092H222.137V125.208Z" fill="#ED1443"/>
<path d="M197.086 115.381C197.086 117.715 195.098 119.603 192.649 119.603C190.197 119.603 188.21 117.715 188.21 115.381V101.372H180.501V116.868C180.501 122.116 185.928 126.359 192.625 126.359C199.311 126.359 204.743 122.116 204.743 116.868V101.372H197.086V115.381Z" fill="#ED1443"/>
<path d="M209.006 125.208H216.775V84.3092H209.006V125.208Z" fill="#ED1443"/>
<path d="M164.5 118.401H157.068V93.1777H162.248C164.524 93.1777 166.372 95.029 166.372 97.2961C166.372 99.5784 164.524 101.418 162.248 101.418H159.547V108.407H164.5C167.259 108.407 169.343 110.632 169.343 113.393C169.243 116.24 167.498 118.21 164.5 118.401ZM170.991 103.979C173.125 102.006 174.418 99.3447 174.418 96.4281C174.418 93.7816 173.407 91.3537 171.626 89.4386C169.774 87.4052 166.494 86.5038 162.063 86.5038H148.795V125.181H165.939C172.5 125.069 177.795 120.085 177.795 114C177.795 109.575 176.238 106.41 170.991 103.979Z" fill="#ED1443"/>
<path d="M130.461 138.46C126.015 140.083 120.479 142.939 115.803 147.188C114.471 148.402 113.208 149.546 111.035 150.53V150.514C110.805 151.052 110.517 151.786 110.286 152.311C109.87 153.44 109.658 154.035 109.442 154.785C109.442 154.836 109.467 154.912 109.494 154.973C109.831 155.006 110.474 154.639 112.856 153.188C117.175 150.557 119.181 149.379 123.114 147.513C122.798 148.66 122.291 149.34 121.001 150.369C120.64 150.608 120.17 150.948 119.788 151.152C118.386 151.962 116.914 152.627 115.503 153.422C113.849 154.369 112.261 155.434 110.598 156.36C110.453 156.442 110.243 156.551 110.095 156.639C109.439 156.942 109.057 156.778 109.09 156.168C109.09 156.135 109.093 156.096 109.102 156.047C109.017 156.378 108.932 156.73 108.823 157.149C108.195 159.932 108.08 162.311 107.979 164.214C107.976 170.138 109.142 173.589 109.202 173.723C109.212 173.783 109.251 173.847 109.269 173.905C109.397 173.929 109.542 173.959 109.67 173.987C110.022 175.625 110.064 175.801 110.331 176.563C111.042 177.079 110.765 177.984 111.202 178.603C111.424 178.518 111.733 178.451 111.976 178.451L111.615 178.572C111.976 178.715 112.459 178.83 112.823 178.918C112.78 180.239 112.78 180.239 112.963 180.542C113.069 180.472 113.211 180.372 113.321 180.299C115.357 180.739 115.357 180.739 116.395 179.877L117.238 179.152C116.383 180.147 116.383 180.147 116.465 180.876C117.081 180.967 117.081 180.967 129.395 172.384L129.383 172.375C134.873 169.27 140.087 165.68 145.531 162.496C141.443 163.71 137.905 166.093 134.03 167.744C132.776 168.475 131.647 169.14 130.597 169.744C130.579 169.719 130.552 169.695 130.53 169.674C130.506 169.625 130.364 169.31 130.266 169.27C130.209 169.267 130.157 169.267 130.106 169.267C130.042 169.267 129.978 169.267 129.905 169.243C129.675 169.161 129.286 169.1 129.04 169.161C128.98 169.173 128.889 169.234 128.84 169.267C128.719 169.316 128.652 169.355 128.534 169.416C128.415 169.443 128.333 169.537 128.209 169.565C128.084 169.607 127.93 169.589 127.784 169.565H127.569C127.523 169.565 127.207 169.589 127.171 169.565C127.089 169.471 127.214 169.267 127.247 169.197C127.283 169.125 127.302 169.034 127.32 168.949C127.338 168.894 127.365 168.861 127.429 168.858C127.475 168.794 127.475 168.766 127.505 168.694C127.602 168.475 127.872 168.275 128.066 168.135C128.318 167.956 128.609 167.762 128.867 167.592C129.165 167.404 129.477 167.131 129.817 167.04C129.933 167.009 130.069 167.009 130.188 166.982C130.336 166.93 130.33 166.882 130.397 166.748C130.433 166.678 130.479 166.666 130.461 166.587C130.461 166.551 130.042 166.372 129.978 166.357C129.993 166.345 130.012 166.326 130.027 166.32C130.009 166.339 129.981 166.345 129.957 166.357C129.82 166.339 129.872 166.335 129.754 166.372C129.605 166.439 129.477 166.484 129.344 166.578C129.192 166.694 129.025 166.757 128.867 166.851C128.755 166.955 128.688 167.046 128.619 167.149C128.163 167.443 127.714 167.713 127.271 168.005C127.247 168.017 127.214 168.032 127.174 168.032C127.062 168.062 126.974 168.047 126.877 168.075C126.579 168.135 126.27 168.263 125.981 168.348C125.781 168.396 125.496 168.43 125.323 168.575C125.247 168.639 125.195 168.709 125.123 168.788C124.998 168.93 124.783 169.079 124.625 169.167C124.431 169.276 124.315 169.255 124.1 169.255H123.972C123.884 169.261 123.809 169.276 123.739 169.249C123.718 169.243 123.705 169.243 123.684 169.255C123.657 169.249 123.657 169.249 123.617 169.191C123.614 169.161 123.617 169.064 123.642 169.034C123.705 168.921 123.845 168.876 123.884 168.724C123.781 168.597 123.323 168.669 123.162 168.724C122.816 168.812 122.504 168.93 122.185 169.082C121.924 169.21 121.648 169.255 121.387 169.383C121.038 169.543 120.822 169.425 120.455 169.352C120.449 169.228 120.449 169.167 120.51 169.076C120.558 168.997 120.662 168.924 120.713 168.845C120.731 168.821 120.756 168.782 120.756 168.751C120.883 168.621 121.017 168.463 121.147 168.332C121.414 168.062 121.809 167.868 122.091 167.631C122.434 167.322 122.759 167 123.086 166.678C123.141 166.624 123.208 166.584 123.265 166.521C123.311 166.533 123.35 166.521 123.381 166.475C123.441 166.42 123.429 166.326 123.484 166.263C123.517 166.254 123.551 166.217 123.575 166.193C123.727 166.047 123.881 165.947 124.045 165.838C124.133 165.801 124.185 165.738 124.233 165.68C124.258 165.607 124.258 165.452 124.215 165.389C124.106 165.389 124.045 165.552 123.991 165.607C123.86 165.75 123.672 165.804 123.499 165.908C123.059 166.111 122.498 166.348 121.994 166.363C121.854 166.372 121.699 166.372 121.557 166.357C121.478 166.354 121.381 166.354 121.305 166.354C121.293 166.354 120.929 166.381 120.892 166.354C120.813 166.238 121.062 165.908 121.114 165.847C121.211 165.707 121.32 165.568 121.426 165.44C121.481 165.379 121.523 165.301 121.557 165.225C121.618 165.167 121.569 165.191 121.681 165.134C122.021 164.936 122.346 164.736 122.664 164.524C122.731 164.475 122.804 164.411 122.886 164.402C122.959 164.384 123.01 164.402 123.077 164.366C123.159 164.317 123.244 164.229 123.32 164.178C123.693 163.932 124.148 163.768 124.555 163.555C125.101 163.252 125.557 162.836 126.127 162.569C126.3 162.469 126.479 162.384 126.667 162.317C126.795 162.278 126.91 162.26 127.028 162.187C127.277 161.996 127.547 161.853 127.839 161.713C128.127 161.577 128.449 161.477 128.731 161.325C128.816 161.276 128.874 161.203 128.949 161.155C129.025 161.128 129.104 161.109 129.18 161.1C129.314 161.021 129.453 160.958 129.584 160.891C129.696 160.827 129.899 160.736 130.018 160.7C130.178 160.636 130.291 160.59 130.43 160.502C130.573 160.442 130.625 160.393 130.688 160.244C130.716 160.172 130.782 160.02 130.716 159.944C130.479 159.926 130.218 160.065 130.009 160.165C129.787 160.253 129.562 160.317 129.35 160.411C129.229 160.457 129.128 160.533 129.025 160.602C128.962 160.627 128.913 160.618 128.861 160.612C128.834 160.618 128.807 160.618 128.773 160.612C128.682 160.612 128.582 160.636 128.491 160.687C128.352 160.709 128.209 160.76 128.069 160.803C127.799 160.894 127.511 161.055 127.265 161.216C126.946 161.389 126.646 161.598 126.303 161.741C125.909 161.938 125.49 162.162 125.062 162.281C124.731 162.372 124.4 162.481 124.091 162.587C123.884 162.66 123.675 162.715 123.484 162.797C123.381 162.836 123.372 162.879 123.296 162.939C123.186 163.037 123.059 163.094 122.904 163.137C122.516 163.285 122.127 163.449 121.742 163.589C121.611 163.61 121.514 163.692 121.381 163.704C121.223 163.728 121.038 163.713 120.856 163.704C120.756 163.704 120.64 163.695 120.546 163.704C120.31 163.692 120.161 163.668 119.933 163.571C119.918 163.565 119.851 163.549 119.775 163.507C120.813 162.785 121.875 162.093 122.971 161.428C124.148 160.718 125.356 160.035 126.585 159.404C127.89 158.7 129.204 158.053 130.546 157.425C131.929 156.757 133.341 156.147 134.752 155.546C136.187 154.939 137.644 154.372 139.116 153.816C140.575 153.264 142.047 152.751 143.537 152.259C144.979 151.798 146.454 151.337 147.922 150.918C149.331 150.514 150.745 150.156 152.171 149.825C153.512 149.513 154.845 149.234 156.201 148.997C156.82 148.888 157.439 148.794 158.055 148.709C158.222 148.687 158.377 148.675 158.532 148.639C158.626 148.627 158.729 148.578 158.817 148.542L158.708 148.627C159.005 148.587 159.294 148.548 159.582 148.511C159.852 148.52 160.122 148.52 160.386 148.542C160.498 148.548 161.108 148.484 161.117 148.709C161.142 148.845 160.966 148.824 160.881 148.848C160.759 148.903 160.644 148.957 160.535 149.006C160.853 148.991 161.169 148.997 161.488 148.997C161.664 149 161.821 149 161.991 149C162.052 149 162.286 148.967 162.295 149.061C162.286 149.118 162.268 149.133 162.195 149.133C162.052 149.246 161.897 149.343 161.746 149.44C161.579 149.546 161.454 149.586 161.251 149.64C160.896 149.728 160.55 149.844 160.201 149.926C159.688 150.044 159.151 150.144 158.635 150.193C158.508 150.205 158.344 150.168 158.398 150.369C158.508 150.393 158.611 150.393 158.723 150.381C159.145 150.381 159.558 150.393 159.985 150.393C160.201 150.393 160.432 150.414 160.635 150.369C160.793 150.335 160.932 150.32 161.087 150.335C161.269 150.35 161.46 150.405 161.645 150.448C159.448 150.657 157.066 151.015 154.839 151.61C153.012 152.114 152.654 152.144 151.752 152.086C151.901 151.889 152.11 151.625 152.28 151.452C151.164 151.285 144.496 153.589 144.044 154.772C144.062 154.772 144.08 154.772 144.099 154.76C144.02 154.948 144.126 154.994 144.284 155.052C144.721 155.146 145.164 155.182 145.61 155.164C146.147 155.182 146.675 155.182 147.2 155.17C147.604 155.182 148.01 155.182 148.411 155.182C149.167 155.182 149.922 155.24 150.678 155.076C151.288 154.93 151.898 154.696 152.493 154.496C153.084 154.32 153.67 154.09 154.265 153.935C154.399 153.886 154.541 153.856 154.681 153.81C154.741 153.798 154.899 153.698 154.969 153.698C155.112 153.695 155.133 153.774 155.087 153.886C154.954 154.108 154.28 154.247 154.104 154.305C153.807 154.414 153.488 154.517 153.188 154.648C153.197 154.927 153.609 154.876 153.922 154.845C154.04 154.821 154.153 154.797 154.21 154.791C154.238 154.797 154.271 154.785 154.326 154.785C154.386 154.785 154.462 154.772 154.508 154.785C154.623 154.854 154.565 155.112 154.532 155.206C154.483 155.334 154.386 155.446 154.32 155.546C154.216 155.686 154.138 155.756 153.965 155.835C153.934 156.08 155.506 155.941 155.652 155.917C155.922 155.862 156.238 155.659 156.517 155.622C156.617 155.604 156.699 155.628 156.817 155.601C156.981 155.555 157.096 155.537 157.257 155.519C157.43 155.489 157.582 155.404 157.767 155.385C157.891 155.37 158.013 155.385 158.128 155.388C158.25 155.385 158.38 155.404 158.517 155.388C158.826 155.37 159.13 155.222 159.442 155.182C159.521 155.17 159.588 155.17 159.667 155.17C159.746 155.17 159.822 155.17 159.891 155.164C160.158 155.121 160.432 155.082 160.68 155.033C161.026 154.948 161.369 154.903 161.712 154.854C162.186 154.76 162.717 154.836 163.196 154.845C163.642 154.854 164.082 155.012 164.516 155.058C165.041 155.127 164.422 155.47 164.24 155.574C163.63 155.953 162.95 156.293 162.277 156.548C161.824 156.739 161.454 156.866 160.957 156.845C160.689 156.839 160.486 156.86 160.225 156.951C160.064 157.006 159.919 157.061 159.752 157.085C159.609 157.088 159.463 157.07 159.312 157.07C159.108 157.07 158.875 157.033 158.665 157.058C158.568 157.085 158.517 157.115 158.401 157.14C158.332 157.134 158.253 157.134 158.195 157.124C158.04 157.115 157.895 157.115 157.749 157.176C157.594 157.24 157.591 157.288 157.412 157.3H157.218C157.066 157.288 156.908 157.288 156.753 157.346C156.383 157.51 155.998 157.513 155.603 157.522C155.552 157.519 155.515 157.513 155.464 157.519C155.436 157.543 155.406 157.561 155.376 157.592C155.133 157.695 154.875 157.777 154.629 157.853C154.083 158.068 153.579 158.372 153.003 158.536C152.863 158.575 152.79 158.56 152.666 158.59C152.32 158.669 151.946 158.797 151.61 158.882C151.458 158.951 151.276 158.994 151.121 159.039C150.836 159.112 150.651 159.258 150.39 159.373C150.262 159.44 150.129 159.486 150.004 159.558C149.792 159.665 149.601 159.716 149.367 159.747C149.167 159.774 148.997 159.832 148.803 159.865C148.602 159.898 148.545 160.032 148.399 160.126C148.271 160.211 148.101 160.181 147.971 160.253C147.704 160.402 147.443 160.554 147.173 160.7C147.042 160.76 146.93 160.809 146.815 160.86C146.654 160.955 146.438 161.046 146.305 161.185C146.196 161.307 146.196 161.598 146.229 161.777C146.238 161.81 146.241 161.829 146.241 161.853C146.572 161.95 146.869 161.938 147.224 161.88C147.346 161.868 147.479 161.85 147.601 161.81C147.78 161.768 147.925 161.762 148.101 161.738C148.429 161.71 148.724 161.531 149.03 161.404C149.076 161.389 149.121 161.355 149.158 161.331C153.157 160.439 156.929 158.572 161.096 158.284C161.169 158.284 168.061 157.971 172.701 160.129C174.142 160.794 181.11 164.691 177.523 176.056L177.863 175.073C178.679 172.348 178.913 170.915 179.144 169.316L179.162 169.167C179.471 166.339 179.462 165.792 179.392 162.794C179.071 158.554 178.716 157.14 177.766 153.907L177.641 153.692C177.508 153.334 178.755 150.262 171.963 143.473C169.065 140.73 164.896 140.511 161.609 138.517C162.088 138.35 162.088 138.35 162.783 138.49C160.028 136.757 156.662 137.155 153.74 136.032C154.104 135.728 154.298 135.549 155.224 135.589C155.203 135.479 155.172 135.306 155.154 135.197C159.539 134.675 162.656 135.601 164.862 136.787C164.586 136.584 164.313 136.375 164.037 136.147C164.683 136.438 165.002 136.593 166.009 137.321L166.103 137.406L165.845 137.188C161.387 133.792 154.987 129.47 135.28 137.425L133.79 136.921C133.778 136.89 132.121 137.837 132.109 137.816M154.884 152.378C154.799 152.378 154.711 152.378 154.623 152.375C155.907 152.141 157.066 151.962 158.113 151.844C157.816 151.932 157.515 152.041 157.227 152.141C157.124 152.171 156.872 152.181 156.753 152.244C156.741 152.29 156.705 152.326 156.644 152.332C156.656 152.326 156.48 152.375 156.48 152.375C156.177 152.423 155.852 152.384 155.53 152.384C155.37 152.384 155.203 152.378 155.03 152.378C154.987 152.378 154.933 152.381 154.884 152.378ZM153.989 152.499C153.934 152.508 153.877 152.52 153.822 152.545C153.728 152.56 153.628 152.578 153.531 152.578C153.679 152.545 153.837 152.52 153.989 152.499ZM146.347 154.187C146.287 154.22 146.229 154.241 146.144 154.241H146.135C146.202 154.223 146.281 154.208 146.347 154.187ZM131.438 170.475L131.48 170.457C130.682 170.897 129.617 171.495 128.825 171.956C129.599 171.495 130.655 170.903 131.438 170.475ZM149.318 156.621C149.024 156.739 148.842 156.821 148.596 156.985C148.617 156.988 148.645 156.991 148.669 157C149.088 157.07 149.088 157.07 150.772 156.432C150.808 156.414 150.863 156.399 150.899 156.378C150.153 156.429 149.78 156.478 149.318 156.621ZM177.298 176.721L177.462 176.278C177.49 176.199 177.508 176.141 177.523 176.056L177.298 176.721Z" fill="#FCD205"/>
<path d="M172.661 141.562C172.645 141.537 172.618 141.513 172.6 141.486C172.618 141.513 172.627 141.525 172.648 141.549C172.655 141.555 172.658 141.562 172.661 141.562ZM118.7 138.099C118.646 138.168 118.582 138.232 118.518 138.281L118.564 138.241C118.603 138.196 118.655 138.153 118.7 138.099ZM151.557 129.85C150.653 129.734 148.947 129.546 146.635 129.51C146.547 129.51 146.413 129.507 146.328 129.507C149.166 129.428 151.211 129.598 153.378 130.074C152.698 129.965 152.377 129.932 151.557 129.85ZM138.705 144.299L138.745 144.302C137.828 144.414 136.599 144.621 135.689 144.757C136.59 144.603 137.798 144.423 138.705 144.299ZM179.935 160.457C179.489 156.387 179.237 155.519 178.339 152.269L177.798 150.742C176.487 147.285 175.049 145.07 173.659 142.918C173.216 142.284 173.192 142.25 172.648 141.549C172.627 141.531 172.609 141.504 172.588 141.486H172.6C170.5 138.863 169.58 138.099 167.28 136.141C167.696 136.405 167.696 136.405 168.282 136.866L168.024 136.633C162.106 131.504 156.219 129.91 149.199 129.1C149.949 128.979 156.923 129.209 163.754 133.449C157.111 129.285 150.941 128.435 147.639 128.165C146.85 128.132 145.94 128.096 144.905 128.096C141.916 128.074 137.849 128.621 132.517 130.323L132.539 130.302C132.539 130.302 129.137 131.331 125.981 132.842C125.899 132.888 125.814 132.921 125.741 132.957L125.613 133.021C125.383 133.137 125.173 133.243 124.964 133.349C124.921 133.37 124.888 133.391 124.846 133.413C124.709 133.489 124.569 133.564 124.436 133.643C124.12 133.819 123.808 133.998 123.516 134.187H123.522C123.298 134.326 123.076 134.463 122.846 134.612L122.345 134.97C121.95 135.276 121.422 135.686 121.028 136.005C120.169 136.709 120.142 136.739 118.7 138.099C121.137 135.862 127.99 131.917 139.018 130.678C138.487 131.124 137.855 131.364 136.235 131.774C130.502 133.082 121.853 135.067 117.878 138.942C117.86 138.961 117.829 138.994 117.811 139.003C117.398 139.428 117.046 139.85 115.987 141.106C114.992 142.332 114.934 142.426 113.478 144.63L112.761 145.832C112.728 145.947 112.698 146.117 112.67 146.238C112.777 146.257 112.913 146.269 113.01 146.281C112.185 149.668 112.185 149.668 112.179 149.686C113.481 148.624 113.481 148.624 113.541 148.584C112.774 150.329 112.774 150.329 112.64 150.794C112.649 150.794 112.655 150.77 112.661 150.77C112.537 151.082 112.388 151.51 112.297 151.829C112.379 151.932 112.485 152.078 112.555 152.175C113.18 151.774 113.696 151.237 114.367 150.897L113.593 151.44C114.121 151.213 114.849 150.927 115.389 150.721C114.849 151.422 114.291 152.065 113.76 152.764C114.312 152.43 114.807 151.996 115.417 151.735C115.487 151.804 115.587 151.902 115.653 151.971C116.476 151.865 116.961 151.604 119.289 150.248L120.7 149.437C119.244 150.363 119.046 150.481 118.649 151.149C119.171 151.1 119.171 151.1 122.099 149.707C125.947 147.92 128.436 146.939 135.98 145.164L135.959 145.155C146.993 143.334 146.993 143.334 154.467 143.565C151.785 143.024 151.785 143.024 142.228 143.152C132.381 144.247 128.448 145.741 126.754 146.378C123.975 147.446 123.905 147.419 123.389 147.34C125.78 145.571 136.76 141.741 139.588 141.34C139.515 141.34 130.809 142.581 125.914 145.115C123.134 146.533 119.832 147.504 119.82 147.507C121.083 146.329 122.527 145.343 123.665 144.053C122.548 143.774 122.548 143.774 120.603 144.217C128.196 134.572 169.911 131.941 177.155 151.285C176.706 150.63 172.609 144.867 165.417 141.829C163.638 141.076 163.581 141.012 163.223 140.663C163.32 140.633 163.438 140.569 163.544 140.521C162.597 139.974 157.742 138.469 155.821 138.836C162.728 140.569 173.474 145.65 173.192 148.354C170.278 147.38 168.151 145.049 165.274 144.005C168.521 145.783 173.966 148.76 174.821 151.653C174.73 151.707 174.588 151.792 174.497 151.856C174.172 151.65 173.759 151.346 173.468 151.094C173.462 151.119 173.45 151.128 173.45 151.146C172.797 150.439 168.976 147.458 166.458 146.378C162.898 144.864 159.001 144.539 155.317 143.419C159.32 144.967 163.684 145.498 167.456 147.644C171.963 150.175 175.322 154.691 175.365 154.733C181.352 162.824 178.985 171.095 178.105 174.184L177.364 176.16L178.147 174.102C178.997 171.501 179.07 171.07 179.677 167.832C180.074 164.472 180.053 163.78 179.935 160.457ZM161.18 142.439C160.564 142.147 160.212 141.996 159.775 141.886C159.526 141.813 159.329 141.786 159.041 141.768C159.047 141.768 159.074 141.786 159.092 141.798C159.387 141.971 159.387 141.971 161.065 142.414C161.098 142.426 161.147 142.439 161.18 142.439ZM117.811 139.006V139.003C117.82 139 117.823 138.994 117.829 138.985L117.811 139.006ZM163.805 133.483C163.784 133.467 163.763 133.461 163.754 133.449V133.455L163.805 133.483ZM172.87 141.813C172.837 141.78 172.803 141.741 172.779 141.71C172.794 141.731 172.803 141.744 172.821 141.768L172.87 141.813ZM117.829 138.985L118.518 138.281C118.221 138.578 118.021 138.785 117.829 138.985Z" fill="#F68712"/>
<path d="M175.718 162.372C174.34 167.85 172.686 170.381 170.258 174.081C168.902 176.145 166.216 176.612 164.723 178.5C164.371 178.309 164.262 178.245 163.676 178.567C163.521 177.641 165.011 176.381 163.831 175.808C165.818 171.462 170.337 168.742 171.73 164.002C171.193 164.676 170.805 165.465 170.264 166.148C170.877 164.057 171.818 162.081 172.273 159.947C172.173 159.902 172.061 159.862 171.958 159.817C171.833 160.029 171.682 160.308 171.469 160.694C168.528 167.944 164.668 172.099 159.785 176.09C152.815 181.79 158.848 180.114 158.921 180.09C159.6 179.817 160.189 179.419 160.486 179.243C152.174 188.488 124.37 199.007 111.582 181.07C111.706 181.246 111.849 181.514 111.97 181.699C115.072 186.415 115.072 186.415 122.088 190.755C120.777 190.536 119.839 189.514 118.607 189.128C118.626 189.165 121.618 193.064 130.558 194.084C140.093 195.183 142.8 194.451 145.665 193.665C148.114 193.004 150.314 192.773 150.323 192.773L150.278 192.797C143.234 194.949 143.234 194.949 135.371 195.444C133.845 195.541 132.379 195.222 130.913 194.885C129.517 194.576 128.121 194.257 126.683 194.303C126.683 194.333 126.683 194.391 126.674 194.427L126.586 194.418L126.683 194.448C126.756 194.515 126.756 194.515 131.821 196.4C131.505 196.515 130.006 196.725 123.776 194.051C123.83 194.09 131.244 197.626 135.483 198.045C149.379 199.404 159.37 192.679 169.038 186.169C169.038 186.212 169.02 186.278 169.017 186.333C169.135 186.351 169.284 186.372 169.409 186.388C169.336 186.6 169.336 186.6 168.289 187.844C170.571 186.008 171.736 183.149 174.155 181.416C173.942 182.427 166.404 194.555 149.607 198.448C150.42 198.339 150.675 198.294 151.561 198.063C150.408 198.394 150.378 198.421 149.886 198.582C150.19 198.54 150.19 198.54 151.762 198.227C150.848 198.676 149.783 198.892 147.231 199.408C161.77 196.895 172.437 188.627 177.25 176.105C177.909 173.932 178.179 173.046 178.443 171.674C178.898 167.082 177.359 164.151 175.718 162.372Z" fill="#102D5D"/>
<path d="M117.669 177.232C117.32 177.666 116.792 177.797 116.319 178.646C115.357 178.267 115.19 177.004 115.011 176.455C115.782 176.313 117.59 175.967 118.537 175.821C118.149 176.319 117.873 176.652 117.669 177.232ZM140.475 181.199C139.516 180.652 138.933 179.812 138.542 179.135C138.372 178.844 138.214 178.543 138.059 178.255L137.877 177.915C137.686 177.557 137.446 177.147 137.173 176.783C137.07 176.652 136.94 176.51 136.806 176.37L136.415 175.96C136.299 175.827 136.181 175.709 136.087 175.587C135.993 175.466 135.923 175.36 135.893 175.281C134.184 170.922 133.784 168.452 133.164 164.109C132.846 161.878 131.477 160.07 129.259 157.35C128.983 157.019 128.676 156.625 128.345 156.2C128.121 155.903 127.881 155.605 127.647 155.296C126.916 154.382 126.321 153.702 125.857 153.253C125.062 152.576 124.358 151.984 123.717 151.444C122.816 150.682 122.051 150.036 121.35 149.45C120.015 148.358 118.992 147.593 117.812 146.792C116.167 145.678 114.401 145.119 112.577 145.119C110.711 145.122 109.339 145.723 108.875 146.045C107.306 147.119 106.119 147.784 104.787 148.333C103.828 148.737 102.823 149.062 101.552 149.481C101.145 149.614 100.708 149.757 100.241 149.912C98.7963 150.4 97.7736 151.232 97.0483 151.915C96.8723 152.082 96.7054 152.239 96.5476 152.394C96.3685 152.573 96.2046 152.734 96.0438 152.877C95.71 153.18 95.4824 153.338 95.2821 153.417C95.0575 153.493 94.7085 153.547 94.1957 153.581C93.9316 153.599 93.6585 153.608 93.3884 153.62C93.1972 153.635 93 153.648 92.8179 153.654C91.164 153.748 89.8378 154.683 88.979 155.381C88.5329 155.745 88.1202 156.118 87.7226 156.488L87.5314 156.664C87.0246 157.117 86.6696 157.426 86.3236 157.648C85.1492 158.409 84.0415 158.522 82.8185 158.643C82.1964 158.701 81.5439 158.765 80.855 158.913C80.0266 159.083 79.2466 159.35 78.4667 159.711C77.5867 160.13 76.7005 160.658 75.5928 161.432C75.1194 161.76 74.643 162.1 74.1787 162.443C73.772 162.74 73.3623 163.044 72.9557 163.329C71.1257 164.613 69.5568 165.463 67.8543 165.463C66.17 165.472 64.9774 164.488 64.8135 162.962C64.6679 161.623 65.3537 160.267 66.7436 159.135L67.5053 158.525C68.0759 158.066 68.613 157.639 69.0894 157.223C69.8997 156.528 70.446 155.969 70.8708 155.417C71.9148 154.045 72.1849 152.628 71.7297 150.831C71.326 149.214 70.0818 148.115 67.9271 147.472C67.1624 147.238 66.3825 147.107 65.6481 146.986L65.3962 146.94C65.1716 146.907 64.9683 146.88 64.7893 146.843C64.5556 146.801 64.3887 146.758 64.2946 146.716C63.1262 146.2 60.5892 144.5 60.0824 144.163L59.873 144.03L59.7334 144.23C59.2721 144.898 58.908 145.426 58.6318 147.733C58.3314 150.288 60.4314 153.405 64.0518 153.969C64.2521 154.003 64.419 154.148 64.4767 154.352C64.5252 154.546 64.4554 154.755 64.2946 154.883C60.4648 157.9 59.6545 159.189 59.4512 162.576C59.3268 164.667 60.0672 166.728 61.4693 168.224C63.0079 169.851 65.2354 170.707 67.912 170.707C68.6251 170.707 69.3808 170.64 70.1486 170.528C70.1759 170.516 70.2032 170.516 70.2335 170.516C70.3458 170.516 70.4642 170.555 70.5491 170.628C70.6614 170.713 70.7373 170.85 70.7434 170.989C70.9224 173.344 71.3503 175.253 71.8844 176.103C72.018 176.319 71.9846 176.592 71.7994 176.762C71.6386 176.913 71.3776 177.062 71.0499 177.196C70.2305 177.508 68.9923 177.712 67.7572 177.712C66.9864 177.715 66.4128 178.243 65.9485 179.387C65.7998 179.751 65.6784 180.152 65.5601 180.525L65.5297 180.634C65.463 180.829 65.4114 181.005 65.3507 181.168C65.2961 181.311 65.2414 181.448 65.1838 181.557C65.029 181.827 64.8014 182.103 64.4858 182.388C64.3887 182.467 64.2703 182.513 64.1429 182.513C64.1186 182.513 64.0852 182.507 64.0579 182.507C63.9062 182.476 63.7696 182.385 63.6937 182.249C63.3144 181.569 62.7196 181.135 61.9245 180.965L61.9032 180.959H61.8243C60.6529 180.959 58.6197 181.954 57.8762 183.824C57.8003 183.991 57.6425 184.121 57.4513 184.137L57.3572 184.155C56.4256 184.255 55.8338 184.683 55.503 185.518C55.3634 185.876 55.2724 186.273 55.2117 186.613L55.1601 186.874C55.1085 187.156 55.0539 187.457 54.9841 187.736C54.9204 187.964 54.8415 188.158 54.7201 188.382C54.6594 188.495 54.5987 188.595 54.5441 188.692C54.5016 188.762 54.456 188.826 54.4166 188.895C54.2102 189.284 54.104 189.681 54.274 190.343C54.3468 190.644 54.5926 190.917 54.9902 191.129C55.2906 191.293 55.6669 191.427 56.1282 191.542C56.9506 191.748 57.7517 191.8 57.9096 191.8C58.0218 191.8 58.1372 191.766 58.2434 191.709C58.3223 191.666 58.3951 191.606 58.4801 191.542C58.5711 191.463 58.7046 191.427 58.82 191.427C58.8473 191.427 58.8776 191.427 58.8989 191.43L59.2812 191.502C59.5908 191.56 59.9823 191.639 60.3707 191.721L60.4314 191.733C60.8107 191.803 61.1749 191.876 61.4693 191.933C61.6301 191.961 61.7727 191.985 61.879 192.009C62.0003 192.021 62.0914 192.027 62.146 192.024L62.1521 192.027C63.7696 191.946 64.4524 191.317 64.8985 190.716C65.032 190.537 65.1474 190.364 65.2596 190.176L65.4417 189.861L65.5783 189.624C65.7118 189.405 65.8423 189.196 65.9849 188.999C66.0851 188.862 66.2399 188.789 66.4037 188.789C66.4462 188.789 66.4887 188.789 66.5342 188.801C66.7193 188.85 66.9045 188.886 67.0623 188.917C67.4355 188.974 67.7845 189.011 67.9271 189.02C68.0334 189.02 68.1335 189.032 68.2367 189.032C69.7723 189.032 70.9163 188.176 71.8571 187.366L72.1666 187.108C72.3184 186.98 72.4549 186.862 72.5976 186.744C72.7827 186.58 73.0285 186.379 73.2895 186.216C73.7538 185.906 74.1362 185.76 74.5186 185.763L74.6126 185.766C74.9829 185.785 76.3606 185.888 78.7095 186.249C78.8096 186.273 78.9128 186.282 79.013 186.282C79.544 186.282 80.2178 186.091 81.022 185.739C81.5985 185.475 82.2571 185.12 82.9247 184.704C83.0704 184.607 83.2403 184.525 83.4528 184.428L83.5044 184.407C83.6986 184.322 83.908 184.225 84.1174 184.121C84.4997 183.927 85.0612 183.593 85.5164 183.02C85.7865 182.683 86.1476 181.982 86.4966 181.266L86.879 180.483C87.0914 180.049 87.316 179.587 87.5375 179.132C87.6285 178.956 87.8076 178.85 88.0048 178.844L88.0079 178.85H88.1475C88.8758 178.85 89.7437 178.734 90.5024 178.628C90.8362 178.574 91.164 178.528 91.4766 178.476C92.1776 178.364 92.7784 178.267 93.2245 178.246C93.3338 178.246 93.6282 178.267 94.0409 178.3L94.9725 178.361C96.1409 178.425 97.0999 178.464 97.895 178.452C98.3654 178.452 98.7781 178.443 99.1301 178.419C99.7522 178.376 100.326 178.282 100.79 178.137C100.918 178.1 101.06 178.052 101.2 177.997C101.267 177.967 101.336 177.954 101.409 177.948C101.537 177.948 101.667 178 101.767 178.097C102.019 178.343 102.292 178.601 102.565 178.841C102.732 178.971 102.79 179.19 102.72 179.387C102.653 179.584 102.477 179.721 102.271 179.739C102.171 179.742 102.065 179.754 101.971 179.769C101.646 179.818 101.042 179.945 100.751 180.334C100.647 180.467 100.499 180.531 100.341 180.531C100.274 180.531 100.201 180.519 100.135 180.492C100.065 180.461 99.992 180.434 99.9161 180.416C99.7613 180.37 99.6066 180.361 99.4791 180.361H99.4154H99.2394L98.9753 180.367H98.8327C98.3654 180.367 97.2759 180.361 96.3351 180.519C95.7525 180.616 95.2942 180.756 94.9665 180.947C94.6569 181.114 94.2988 181.436 94.3292 181.954C94.3838 182.926 95.7494 185.545 96.6781 186.464C96.8571 186.653 97.4671 186.838 98.1438 186.838C98.2136 186.838 98.2895 186.832 98.3593 186.829H98.3957C98.5899 186.829 98.7629 186.938 98.8509 187.108C99.8038 188.983 101.452 190.24 102.951 190.24L103.048 190.234C104.477 190.182 108.337 188.789 111.041 187.499C111.081 187.49 111.114 187.481 111.151 187.472C111.239 187.451 111.339 187.439 111.445 187.417C111.606 187.396 111.785 187.375 111.979 187.354L112.249 187.326C112.847 187.25 113.524 187.15 114.018 186.92C114.477 186.692 115.141 185.836 115.706 184.738C115.803 184.561 115.979 184.458 116.167 184.458H116.213C116.422 184.483 116.595 184.625 116.653 184.826C116.722 185.044 116.804 185.244 116.901 185.417C117.363 186.288 118.188 186.728 119.35 186.722C119.414 186.722 119.475 186.722 119.542 186.719C120.343 186.689 121.22 186.425 121.985 186.173L122.415 186.03C123.074 185.806 123.69 185.599 124.267 185.502C124.473 185.463 124.707 185.445 124.977 185.439C125.101 185.439 125.235 185.445 125.368 185.448C125.611 185.463 125.857 185.484 126.106 185.505C126.27 185.514 126.436 185.53 126.603 185.536C126.84 185.554 127.089 185.569 127.347 185.566C128.06 185.569 128.609 185.463 129.104 185.226C129.82 184.929 130.388 184.525 130.755 184.258L130.891 184.158C130.982 184.088 131.089 184.067 131.189 184.058C131.316 184.067 131.435 184.106 131.535 184.188C132.548 185.093 134.727 186.598 137.941 186.592H138.269C139.031 186.565 139.628 186.313 139.95 185.87C140.166 185.587 140.235 185.235 140.144 184.892C140.105 184.753 140.132 184.601 140.208 184.483C140.284 184.361 140.411 184.276 140.557 184.255C141.073 184.158 141.504 183.97 141.816 183.697C142.102 183.442 142.287 183.08 142.29 182.762C142.29 182.549 142.214 182.37 142.05 182.212C141.698 181.888 141.498 181.766 140.475 181.199Z" fill="white"/>
<path d="M131.336 172.61C131.333 172.628 131.248 172.856 131.248 172.856C131.245 172.877 131.169 173.12 131.169 173.12C131.084 173.357 130.953 173.484 130.744 173.533C130.619 173.569 130.51 173.551 130.422 173.484C130.328 173.414 130.273 173.302 130.273 173.175L130.258 172.911L130.161 171.997C130.091 171.575 129.964 171.241 129.767 170.965C129.761 170.962 129.369 170.501 129.369 170.501C129.351 170.486 128.911 169.988 128.911 169.988C128.562 169.636 128.246 169.475 127.922 169.46C127.661 169.539 127.433 169.706 127.178 169.979L126.869 170.373L126.586 170.75C126.486 170.917 126.259 170.82 126.252 170.82C126.252 170.82 126.237 170.807 126.216 170.801C126.207 170.783 126.201 170.756 126.201 170.756C126.131 170.577 126.101 170.404 126.104 170.246C126.104 169.961 126.186 169.703 126.274 169.493L126.517 168.993L126.79 168.413L126.835 168.358C126.911 168.279 126.993 168.137 127.081 167.894L127.16 167.685L127.318 167.275C127.57 166.744 127.931 166.601 128.468 166.826C128.89 167.05 129.148 167.405 129.342 167.721L129.475 167.946L129.645 168.219L129.994 168.665C130.959 169.739 131.427 170.762 131.427 171.815C131.427 172.07 131.396 172.34 131.336 172.61ZM127.697 180.735L127.688 180.75C127.679 180.75 127.661 180.75 127.661 180.75C127.111 180.926 126.483 180.999 125.803 180.962L125.767 180.956C125.77 180.956 125.643 180.905 125.643 180.905L125.512 180.823C125.445 180.765 125.345 180.659 125.403 180.486C125.661 179.715 126.422 178.817 127.394 178.616C127.418 178.616 127.472 178.61 127.472 178.61L127.612 178.616L127.827 178.644C127.934 178.677 128.11 178.759 128.155 179.017C128.176 179.154 128.183 179.32 128.183 179.481C128.183 179.934 128.092 180.434 127.697 180.735ZM116.253 161.074C116.253 161.074 116.247 161.093 116.241 161.105C116.232 161.111 116.229 161.126 116.229 161.126C116.138 161.208 115.989 161.269 115.837 161.169C115.837 161.169 115.816 161.156 115.798 161.144C115.795 161.123 115.786 161.093 115.786 161.093C115.558 159.906 115.288 158.653 114.812 157.484L114.535 157.008L114.426 156.859L114.193 156.516C113.998 156.222 113.819 155.812 114.068 155.335L114.095 155.29C114.311 155.077 114.693 155.056 114.957 155.156L114.991 155.175C115.5 155.517 115.828 156.103 116.068 156.525C116.368 157.229 116.526 158.1 116.526 159.011C116.526 159.706 116.435 160.41 116.253 161.074ZM139.724 182.061C137.939 181.023 137.223 179.053 136.115 177.506C135.727 176.932 135.041 176.568 134.686 176.006C133.402 172.525 132.301 169.047 131.967 165.053C131.694 164.064 131.493 163.059 130.953 162.128C129.342 159.514 127.251 157.129 125.23 154.722C125.045 154.543 125.045 154.519 124.659 154.155L117.597 148.297C116.727 147.642 115.746 147.223 114.766 146.777C113.27 146.212 111.246 146.337 109.792 146.962C108.272 147.763 106.9 148.932 105.298 149.469C102.976 150.516 100.357 150.728 98.3574 152.51C97.1981 153.523 96.2118 155.099 94.482 154.838C92.552 154.75 90.8222 155.463 89.3716 156.662C88.0545 157.845 86.8042 159.256 85.1048 159.584C83.6178 160.213 81.803 159.909 80.2856 160.483C77.873 161.074 75.9642 162.986 73.9158 164.449C71.8613 165.639 69.8948 166.92 67.3335 166.865C65.6613 166.747 64.056 165.59 63.5188 163.985C63.009 162.131 63.5735 160.231 65.0332 158.977C66.5475 157.156 68.9631 156.082 70.1527 153.997C70.7718 152.892 70.6838 151.108 69.8553 150.058C68.2712 148.425 66.0043 148.37 63.9528 147.869C62.6388 147.505 61.6252 146.498 60.4659 145.875C60.0198 146.555 59.8741 147.302 59.9288 148.133C60.1685 150.009 61.6009 151.709 63.3883 152.361C64.4262 152.81 65.6249 152.483 66.6962 152.716C66.9966 152.838 67.291 153.138 67.3213 153.466C67.2606 153.757 67.2333 154.058 66.9663 154.267C65.3002 155.669 63.5431 157.008 62.1441 158.734C60.6571 160.349 60.4811 163.175 61.258 165.205C62.1168 167.521 64.5355 169.047 66.8601 169.342C68.5534 169.609 70.0769 169.16 71.6246 168.826C71.8309 168.826 71.922 169.041 72.013 169.156C72.1617 170.525 71.9523 171.745 72.2528 173.002C72.5198 174.161 72.9082 174.962 73.3301 176.097C73.3877 176.48 73.3301 176.899 73.063 177.202C72.1951 177.855 71.2998 178.301 70.3469 178.723L68.0254 178.868L67.5823 179.084C66.7205 180.1 66.6932 181.138 66.159 182.277C65.4428 183.463 64.1288 184.037 63.0302 184.72C62.6782 185.284 62.2867 185.882 61.7799 186.328C61.3945 186.677 60.9211 186.783 60.4113 186.832C59.6101 187.758 59.4311 189.041 59.2217 190.295C60.5327 190.413 61.9044 191.126 63.185 190.413C64.2866 189.906 64.5233 188.565 65.3548 187.755C66.0103 187.041 66.9966 187.576 67.7705 187.73C68.9328 187.782 69.7673 186.95 70.7475 186.556C71.4303 186.116 71.9887 185.336 72.708 184.89C74.0827 184.231 75.9885 184.583 77.4209 184.856C78.5468 185.148 79.7394 184.968 80.7257 184.528C81.6452 183.955 82.5101 183.242 83.548 183.005C84.4705 182.525 84.9197 181.484 85.3051 180.619C85.6055 179.812 86.3824 179.19 86.3217 178.258C86.0789 178.055 85.8149 177.6 85.4507 177.642C85.0016 178.258 84.6738 178.914 84.1731 179.518C82.0185 182.459 80.3281 182.738 75.9551 182.744C72.7049 182.622 69.7886 183.615 67.558 186.146C67.4093 186.24 67.1969 186.176 67.0786 186.055C66.9966 185.7 67.291 185.102 67.4367 184.835C69.4274 182.003 72.5289 181.351 75.8064 181.284C77.5908 181.163 79.2903 180.865 80.8076 180.088C82.504 179.226 83.6633 177.87 84.3825 176.207C84.7649 174.328 84.9106 172.307 85.387 170.519C85.4477 170.334 85.8908 170.204 86.0334 170.264C86.2185 170.298 86.5766 170.455 86.5796 170.662C86.2458 172.51 85.6571 174.686 86.3763 176.468C87.8026 178.346 90.458 177.327 92.3911 177.239C94.4183 177.059 96.048 177.211 97.9811 177.33C98.934 177.305 99.6411 177.539 100.385 176.941C100.591 176.61 100.676 176.164 100.615 175.809C100.555 175.275 100.102 174.95 100.612 174.504C100.764 174.383 101.207 174.455 101.325 174.61C101.595 175.351 101.717 176.158 102.193 176.814C103.149 178.04 104.548 178.99 105.859 179.679C107.103 180.541 108.153 181.758 108.244 183.281C108.248 184.055 107.528 184.583 106.933 184.947C105.92 185.454 104.824 185.87 103.626 185.752C102.048 184.984 101.632 183.317 100.588 182.094C100.051 181.5 99.2465 181.384 98.4423 181.439C97.5744 181.53 96.7156 181.563 95.9417 181.83C95.7354 182.003 95.6747 182.283 95.702 182.547C96.2391 183.527 96.837 184.48 97.4318 185.46C98.1207 185.882 99.0736 185.226 99.6653 185.964C100.175 186.747 100.506 187.664 101.277 188.261C102.02 188.908 103.158 189.214 104.139 188.799C106.339 188.11 108.548 187.387 110.602 186.283H111.285C112.117 186.201 113.039 186.249 113.637 185.624C114.29 184.677 114.83 183.782 115.331 182.765C115.837 182.082 115.604 181.038 115.391 180.298C114.375 179.038 113.804 177.642 113.27 176.207C112.763 176.052 112.32 175.764 111.753 175.791C111.483 175.906 111.097 175.852 110.948 176.143L113.303 180.802C113.452 181.16 113.634 181.673 113.546 182.143C113.215 183.129 112.712 184.079 111.907 184.799C111.762 184.884 111.58 184.968 111.464 184.765C111.731 183.755 112.205 182.65 112.144 181.487L109.847 177.342C109.583 176.78 109.103 176.27 109.131 175.615C109.125 175.314 109.401 175.105 109.637 174.99C110.648 174.665 111.868 174.716 112.642 173.912C113.658 172.337 113.865 170.786 114.135 168.911C114.193 168.792 114.429 168.565 114.611 168.565C114.79 168.498 114.991 168.759 115.082 168.853C115.379 170.902 114.969 172.984 113.774 174.598C113.719 174.808 113.628 175.075 113.865 175.22C114.997 175.584 116.189 175.22 117.142 174.713C118.368 174.741 119.491 174.446 120.593 174.267C120.717 174.322 120.839 174.446 120.839 174.568C120.092 175.399 119.673 176.319 119.47 177.396C118.578 178.325 117.294 179.129 117.206 180.468C117.355 181.123 117.925 180.498 118.311 180.562C118.49 180.586 118.605 180.738 118.605 180.917L117.716 182.225C117.236 183.005 117.804 183.897 117.804 184.638C118.013 185.239 118.729 185.533 119.355 185.533C120.702 185.478 121.889 184.965 123.081 184.547C124.389 183.976 126.022 184.013 127.454 184.243C128.856 184.158 129.9 183.229 130.935 182.301C131.509 182.307 132.015 182.692 132.398 183.108C134.006 184.835 136.097 185.579 138.449 185.512L138.652 185.396C138.804 185.245 138.746 184.978 138.561 184.862L137.168 184.149C136.185 183.521 134.962 182.689 134.634 181.591C134.331 180.601 133.794 179.533 133.202 178.58C132.99 178.094 132.513 177.715 132.307 177.232C132.358 177.172 132.425 177.084 132.513 177.114C134.067 177.645 134.986 179.172 135.7 180.547C136.841 182.119 138.473 183.46 140.622 183.108L140.798 182.95C140.889 182.835 140.862 182.68 140.798 182.598L139.724 182.061Z" fill="#ED1443"/>
<path d="M60.6461 185.438C61.5717 184.897 62.1634 183.884 62.6459 183.022C62.5519 182.697 62.2272 182.454 61.9571 182.218C61.778 182.069 61.511 182.19 61.3016 182.248C60.643 182.815 59.9633 183.259 59.2501 183.711C58.9466 183.917 59.0711 184.363 59.0073 184.691C59.0073 184.989 59.3654 185.201 59.5445 185.377C59.8753 185.526 60.291 185.553 60.6461 185.438Z" fill="#E21948"/>
<path d="M57.5216 185.526C57.0451 185.765 56.5383 186.215 56.42 186.749C56.2713 187.705 56.4837 188.594 55.7402 189.286C55.7129 189.465 55.5217 189.674 55.7129 189.857C56.3623 190.057 56.9875 190.327 57.7886 190.415C58.1498 189.25 58.4138 187.969 58.8356 186.958V186.664C58.4775 186.215 58.1164 185.644 57.5216 185.526Z" fill="#E21948"/>
<path d="M102.703 182.33C103.297 182.989 103.27 183.993 103.956 184.503C104.848 184.655 105.646 184.297 106.338 183.76C106.727 183.429 106.159 183.013 106.098 182.622C105.71 182.066 105.977 180.925 105.027 180.898C104.068 181.043 103.115 181.077 102.165 181.083L101.895 181.265C101.719 181.823 102.554 181.823 102.703 182.33Z" fill="#E21948"/>
<path d="M199.985 170.478L199.989 170.471C199.982 170.471 199.979 170.478 199.985 170.478Z" fill="#5A5758"/>
<path d="M224.486 140.376C223.57 136.029 219.804 135.623 218.417 135.592C217.716 135.58 217.455 135.847 217.455 135.847C217.288 136.121 217.819 136.476 218.074 136.627C221.803 138.852 218.89 145.332 215.245 151.028C209.883 158.409 207.216 161.738 207.216 161.738C206.563 162.637 206.038 162.309 206.038 161.016V143.168V143.319H199.987V143.168V167.001V168.115C199.987 169.405 201.456 170.473 202.527 170.473H204.59C206.442 170.473 207.549 169.52 208.111 168.673L222.526 147.213C223.069 146.424 225.296 143.298 224.486 140.376Z" fill="#5A5758"/>
<defs>
<linearGradient id="paint0_linear_23_2" x1="125.46" y1="184.101" x2="177.557" y2="184.101" gradientUnits="userSpaceOnUse">
<stop stop-color="#467EC5"/>
<stop offset="0.1" stop-color="#467EC5"/>
<stop offset="0.2" stop-color="#467EC5"/>
<stop offset="0.3" stop-color="#467EC5"/>
<stop offset="0.4" stop-color="#457DC3"/>
<stop offset="0.5" stop-color="#457BC0"/>
<stop offset="0.6" stop-color="#4477BB"/>
<stop offset="0.7" stop-color="#4268A6"/>
<stop offset="0.8" stop-color="#3E558E"/>
<stop offset="0.9" stop-color="#37396F"/>
<stop offset="1" stop-color="#35356D"/>
</linearGradient>
</defs>
</svg>
