<svg width="284" height="284" viewBox="0 0 284 284" fill="none" xmlns="http://www.w3.org/2000/svg">
<rect width="283.5" height="283.5" fill="#1F2021"/>
<path d="M253 122H183.619V161.018H253V122Z" fill="#FF8A00"/>
<path d="M205.182 130.968H209.998V147.895H231.438V152.05H205.182V130.968Z" fill="white"/>
<path d="M176.693 122H107.312V161.018H176.693V122Z" fill="#D4000D"/>
<path d="M139.589 135.124H127.396V130.968H156.604V135.124H144.411V152.05H139.589V135.124Z" fill="white"/>
<path d="M100.381 122H31V161.018H100.381V122Z" fill="#0C75ED"/>
<path d="M50.707 130.968H69.1948C74.8239 130.968 77.9575 133.499 77.9575 137.742C77.9575 141.384 75.6075 143.827 71.6034 144.399L80.6684 152.05H73.7136L65.1915 144.669H55.5281V152.045H50.7119V130.968H50.707ZM68.5641 140.724C71.5448 140.724 72.9885 139.759 72.9885 137.801C72.9885 135.844 71.5448 134.907 68.5641 134.907H55.5281V140.719H68.5641V140.724Z" fill="white"/>
</svg>
