<svg width="284" height="284" viewBox="0 0 284 284" fill="none" xmlns="http://www.w3.org/2000/svg">
<rect width="283.5" height="283.5" fill="#1F2021"/>
<path d="M65.0458 181.367C70.1302 181.367 73.8367 184.176 73.8367 189.099C73.8367 192.814 72.1553 195.623 68.7089 196.616V196.703C70.6444 197.135 71.982 197.998 72.6724 200.288C73.0191 201.325 73.1896 202.837 73.2329 204.649C73.4062 208.15 73.7933 209.659 74.8276 211H70.4307C69.9136 210.482 69.7864 209.401 69.7431 208.712L69.5698 205.168C69.5698 204.78 69.2693 202.359 68.6656 200.763C68.0618 199.208 66.6404 198.302 64.572 198.302H54.9231V210.957H51V181.367H65.0458ZM63.2807 195.018C67.6313 195.018 69.9136 193.463 69.9136 189.747C69.9136 186.507 67.978 184.694 64.7424 184.694H54.9202V195.018H63.2807ZM98.1784 181.367V184.694H88.3562V210.959H84.4331V184.694H74.6109V181.367H98.1784ZM104.127 181.367V207.632H119.764V210.957H100.206V181.367H104.127ZM148.416 181.367V188.019L134.587 203.396H149.107V211H122.737V203.876L136.482 189.015H123.557V181.413H148.416V181.367ZM159.622 181.367L163.199 199.64H163.285L166.859 181.367H174.873L178.365 199.9H178.452L182.112 181.367H191.074L182.803 210.957H173.968L170.782 192.944H170.695L167.593 210.957H158.718L150.704 181.367H159.622ZM217.828 181.367V188.968H202.488V192.64H216.406V199.683H202.49V203.355H218.301V210.957H193.399V181.367H217.828ZM231.14 181.367V210.957H222.051V181.367H231.14ZM137.727 101.792L122.994 104.651V141.523L137.727 138.662V101.792ZM145.091 100.362V137.185L159.871 134.327V97.5007L145.091 100.362Z" fill="#EE0493"/>
<path d="M108.506 86.6066H145.074V72H93.8799V166.98H123.133V152.374H108.506V86.6066ZM159.747 72V86.6066H174.373V152.371H137.762V166.978H189.002V72H159.747Z" fill="#EE0493"/>
</svg>
