<?xml version="1.0" encoding="UTF-8"?>
<svg xmlns="http://www.w3.org/2000/svg" version="1.1" viewBox="0 0 640 640">
  <defs>
    <style>
      .cls-1 {
        fill: #7cc24d;
      }

      .cls-1, .cls-2 {
        fill-rule: evenodd;
      }

      .cls-3 {
        fill: #fff;
      }

      .cls-2 {
        fill: #2bbfdc;
      }
    </style>
  </defs>
  <!-- Generator: Adobe Illustrator 28.7.1, SVG Export Plug-In . SVG Version: 1.2.0 Build 142)  -->
  <g>
    <g id="Vrstva_1">
      <rect class="cls-3" width="640" height="640"/>
      <g>
        <path class="cls-1" d="M190.7,304.5v-24.3c4.2.6,7.9-.1,11.1-2.2v-15.5h33.2v15.5h22.1v26.6h-22.1c-.4,13.3,0,26.6,1.1,39.8,5.6,4.9,11.9,5.7,18.8,2.2,2.9,8.9,2.9,17.7,0,26.6-14.3,6.2-28.3,5.8-42-1.1-4.7-3.8-8-8.6-10-14.4-1.1-17.7-1.5-35.4-1.1-53.1h-11.1Z"/>
        <path class="cls-1" d="M146.4,293.5c-.6,1.7-1.7,3.2-3.3,4.4-1.1-5.9-1.5-11.8-1.1-17.7h-31v95.1c-2.2-32.1-2.9-64.5-2.2-97.4h35.4c-.7,5.7,0,10.8,2.2,15.5Z"/>
        <path class="cls-1" d="M144.2,339.9c-2.2,10.6-2.9,21.7-2.2,33.2h-31v-92.9h31c-.4,5.9,0,11.8,1.1,17.7,1.6-1.2,2.7-2.7,3.3-4.4,5.9-11.5,15.5-16.6,28.8-15.5v33.2c-19,.5-29.3,10.1-31,28.8Z"/>
        <path class="cls-1" d="M201.8,278c-3.1,2.1-6.8,2.8-11.1,2.2v24.3c-2.2-8.4-2.9-17.3-2.2-26.6h13.3Z"/>
        <path class="cls-1" d="M414.2,373.1h-15.5c.7-18.8,0-37.3-2.2-55.3-3-10.1-9.6-13.4-19.9-10-2.7,2-4.5,4.6-5.5,7.7-1.1,19.9-1.5,39.8-1.1,59.7h-33.2c.4-20.7,0-41.3-1.1-62-8.1-8.9-16.2-8.9-24.3,0-1.1,20.6-1.5,41.3-1.1,62h-33.2v-97.4h33.2c-.4,4.5,0,8.9,1.1,13.3,18.4-20.7,36.9-20.7,55.3,0,16.1-17,34.1-19.6,54.2-7.7,2.4,2.9,3.9,6.2,4.4,10-4.5,26.5-8.2,53-11.1,79.7Z"/>
        <path class="cls-2" d="M467.3,278h33.2v31h31v35.4h-31v31h-33.2v-31h-22.1c.9-11.9,2.3-23.7,4.4-35.4h17.7v-31Z"/>
        <path class="cls-1" d="M396.5,317.8c2.2,18,2.9,36.5,2.2,55.3h15.5c-5.4,2.2-11.3,2.9-17.7,2.2v-57.5Z"/>
        <path class="cls-1" d="M144.2,339.9v35.4h-33.2v-2.2h31c-.7-11.5,0-22.6,2.2-33.2Z"/>
      </g>
    </g>
  </g>
</svg>