<?xml version="1.0" encoding="UTF-8"?>
<svg xmlns="http://www.w3.org/2000/svg" version="1.1" viewBox="0 0 640 640">
  <defs>
    <style>
      .cls-1 {
        fill: #9b161b;
      }

      .cls-2 {
        fill: #68bce2;
      }

      .cls-3 {
        fill: #7641a4;
      }

      .cls-4 {
        fill: #ed1c24;
      }

      .cls-5 {
        fill: #fff;
      }

      .cls-6 {
        fill: #f68712;
      }

      .cls-7 {
        fill: #2e3192;
      }

      .cls-8 {
        fill: #80cc28;
      }

      .cls-9 {
        fill: #40b93c;
      }

      .cls-10 {
        fill: #fff200;
      }
    </style>
  </defs>
  <!-- Generator: Adobe Illustrator 28.7.1, SVG Export Plug-In . SVG Version: 1.2.0 Build 142)  -->
  <g>
    <g id="Vrstva_1">
      <rect class="cls-5" width="640" height="640"/>
      <g>
        <g id="Vrstva_1-2" data-name="Vrstva_1">
          <g>
            <path class="cls-8" d="M275.6,231h-44.4v-44.4h44.4v44.4h0Z"/>
            <path class="cls-9" d="M231.2,231h-44.4v-44.4h44.4v44.4h0Z"/>
            <path class="cls-4" d="M364.4,231h-44.4v-44.4h44.4v44.4h0Z"/>
            <path class="cls-1" d="M408.8,231h-44.4v-44.4h44.4v44.4h0Z"/>
            <path class="cls-3" d="M453.2,231h-44.4v-44.4h44.4v44.4h0Z"/>
            <path class="cls-6" d="M231.2,275.4h-44.4v-44.4h44.4v44.4h0Z"/>
            <path class="cls-2" d="M408.8,275.4h-44.4v-44.4h44.4v44.4h0Z"/>
            <path class="cls-10" d="M231.2,319.8h-44.4v-44.4h44.4v44.4h0Z"/>
            <path class="cls-7" d="M408.8,319.8h-44.4v-44.4h44.4v44.4h0Z"/>
            <path d="M92.3,373.2h0c1.4-1.8,2.6-3.1,5.1-3.1s2.4.4,3.6,1.1l-1.9,3.6c-.8-.5-1.3-1-2.4-1-4.3,0-4.5,5.6-4.5,8.6v11.6h-3.9v-23.2h3.9v2.5h0Z"/>
            <path d="M121.2,379.8c-.5-3.4-3.4-6.1-6.8-6.1s-6.6,2.7-7.1,6.1h13.9ZM107.1,383.2c0,4.3,3.1,7.7,7.6,7.7s5.5-2,7-4.8l3.4,1.9c-2.2,4.1-6,6.5-10.7,6.5-6.9,0-11.4-5.3-11.4-11.9s4-12.5,11.2-12.5,11.4,6.2,11,13.1h-18.2Z"/>
            <path d="M132.5,382.1c0,4.5,2.7,8.8,7.6,8.8s7.7-4.1,7.7-8.8-2.9-8.4-7.8-8.4-7.5,4-7.5,8.3M151.6,392.8c0,3.7,0,6.9-2.4,10-2.2,2.8-5.5,4.1-9,4.1-6.5,0-11.3-4.1-11.4-10.6h3.9c0,4.3,3.1,7,7.4,7,6.1,0,7.4-4.5,7.4-9.7v-2.8h0c-1.9,2.4-4.9,3.9-8,3.9-6.8,0-11.1-5.7-11.1-12.1s4.4-12.3,11.2-12.3,6,1.4,7.9,3.9h0v-3.3h4v22h0Z"/>
            <path d="M164,393.9h-3.9v-23.2h3.9v23.2ZM164.9,362c0,1.6-1.3,2.8-2.8,2.8s-2.8-1.2-2.8-2.8,1.3-2.8,2.8-2.8,2.8,1.3,2.8,2.8"/>
            <path d="M174.1,382.3c0,4.7,3.4,8.6,8.2,8.6s8.2-3.9,8.2-8.6-3.4-8.6-8.2-8.6-8.2,3.9-8.2,8.6M170.2,382.4c0-6.8,5.4-12.3,12.2-12.3s12.2,5.5,12.2,12.3-5.4,12.2-12.2,12.2-12.2-5.4-12.2-12.2"/>
            <path d="M203.9,373.5h0c1.6-2.2,3.8-3.4,6.6-3.4,6.4,0,7.9,4.6,7.9,10.1v13.8h-3.9v-13.1c0-3.7-.3-7.1-4.9-7.1s-5.8,5-5.8,9.2v11h-3.9v-23.2h3.9v2.8h0Z"/>
            <path d="M228.1,382.1c0,4.5,2.7,8.8,7.6,8.8s7.7-4.1,7.7-8.8-2.9-8.4-7.8-8.4-7.5,4-7.5,8.3M247.2,393.9h-4v-3.2h0c-2,2.6-4.7,3.9-8,3.9-6.8,0-11.1-5.8-11.1-12.2s4.2-12.3,11.1-12.3,6,1.5,8,3.9h0v-3.3h4v23.2h0Z"/>
            <path d="M258.4,393.9h-3.9v-40.7h3.9v40.7Z"/>
            <path d="M269.7,373.5h0c1.6-2.2,3.8-3.4,6.6-3.4,6.4,0,7.9,4.6,7.9,10.1v13.8h-3.9v-13.1c0-3.7-.3-7.1-4.9-7.1s-5.8,5-5.8,9.2v11h-3.9v-23.2h3.9v2.8h0Z"/>
            <path d="M296.5,393.9h-3.9v-23.2h3.9v23.2ZM297.3,362c0,1.6-1.3,2.8-2.8,2.8s-2.8-1.2-2.8-2.8,1.3-2.8,2.8-2.8,2.8,1.3,2.8,2.8"/>
            <path d="M313.1,393.9h-8.6v-17.1h-2.8v-7h2.8v-7.2h8.6v7.2h4.8v7h-4.8v17.1h0Z"/>
            <path d="M337.5,378.4c-.4-2.3-2.5-3.8-4.8-3.8s-4.6,1.3-5.1,3.8h9.9,0ZM345.5,383.3h-18c0,3.5,1.8,5.3,5.4,5.3s3.1-.6,4.1-2.2h8.2c-1.4,5.7-6.8,8.3-12.3,8.3-8,0-14-4.5-14-12.8s5.5-12.9,13.3-12.9,13.2,5.2,13.2,13.4v.9h0Z"/>
            <path d="M357.9,393.9h-8.6v-39h8.6v39Z"/>
            <path d="M380.4,378.4c-.4-2.3-2.5-3.8-4.8-3.8s-4.6,1.3-5.1,3.8h9.9,0ZM388.3,383.3h-18c0,3.5,1.8,5.3,5.4,5.3s3.1-.6,4.1-2.2h8.2c-1.4,5.7-6.8,8.3-12.3,8.3-8,0-14-4.5-14-12.8s5.5-12.9,13.3-12.9,13.2,5.2,13.2,13.4v.9h0Z"/>
            <path d="M404,382.2l5.7-12.4h9.6l-12.6,24.1h-5.4l-12.6-24.1h9.6l5.8,12.4h0Z"/>
            <path d="M430,393.9h-8.5v-24.1h8.5v24.1h0ZM430.5,360.6c0,2.6-2.2,4.8-4.8,4.8s-4.8-2.2-4.8-4.8,2.2-4.8,4.8-4.8,4.8,2.2,4.8,4.8"/>
            <path d="M457.7,386.8v7.1h-24.4l11.3-17h-9.8v-7.1h24.1l-11.3,17h10.2Z"/>
            <path d="M478.8,378.4c-.4-2.3-2.5-3.8-4.8-3.8s-4.6,1.3-5.1,3.8h9.9,0ZM486.7,383.3h-18c0,3.5,1.8,5.3,5.4,5.3s3.1-.6,4.1-2.2h8.2c-1.4,5.7-6.8,8.3-12.3,8.3-8,0-14-4.5-14-12.8s5.5-12.9,13.3-12.9,13.2,5.2,13.2,13.4v.9h0Z"/>
            <path d="M498.1,391.7c0,1.5-1.2,2.8-2.8,2.8s-2.8-1.3-2.8-2.8,1.2-2.7,2.8-2.7,2.8,1.2,2.8,2.7"/>
            <path d="M523.9,377.6h0c-1.8-2.3-4.1-3.9-7.2-3.9-4.8,0-8.2,3.9-8.2,8.6s3.2,8.6,8,8.6,5.6-1.5,7.5-4h.1v5.3c-2.3,1.5-4.6,2.4-7.4,2.4-7,0-12.3-5.2-12.3-12.2s5.6-12.2,12.4-12.2,5.1.8,7.2,2.3v5.2h0Z"/>
            <path d="M550.9,390.3v3.6h-24l16.7-19.5h-13.6v-3.6h21.5l-16.7,19.5s16,0,16,0Z"/>
          </g>
        </g>
        <g>
          <path d="M256.4,428.6h4v13.2c0,2,0,3.4.1,4,.2,1.1.6,1.9,1.3,2.5.7.6,1.6.9,2.7.9s1.7-.2,2.3-.6c.6-.4,1-1,1.2-1.7.2-.7.3-2.3.3-4.7v-13.5h4v12.8c0,3.3-.2,5.6-.5,7.1-.3,1.5-1.1,2.6-2.4,3.5-1.2.9-2.8,1.4-4.8,1.4s-3.7-.4-4.9-1.1c-1.2-.7-2-1.8-2.5-3.2-.5-1.4-.8-3.9-.8-7.5v-13ZM262.2,427l1.9-5h4.3l-3.8,5h-2.4Z"/>
          <path d="M278.8,448l3.8-.7c.3,1.8,1.4,2.8,3.1,2.8s1.6-.2,2.1-.5c.5-.4.7-.8.7-1.4s0-.7-.3-.9c-.2-.2-.6-.4-1.2-.6-3.1-.8-5.1-1.6-6-2.4-1.1-.9-1.6-2.2-1.6-3.9s.5-3,1.6-3.9c1-1,2.6-1.5,4.5-1.5s3.3.4,4.3,1.1c1,.7,1.7,1.9,2.1,3.6l-3.6.8c-.3-1.4-1.2-2.1-2.7-2.1s-1.6.1-2,.4c-.4.3-.6.6-.6,1.1s.2.7.5,1c.4.3,1.5.7,3.4,1.2,2.1.6,3.6,1.3,4.4,2.2.8.9,1.1,2,1.1,3.4s-.6,3.1-1.8,4.2c-1.2,1.1-2.8,1.7-4.8,1.7s-3.4-.5-4.6-1.4c-1.2-.9-2-2.3-2.3-4Z"/>
          <path d="M305.9,435.3v3.7h-2.6v7.1c0,1.5,0,2.4.1,2.7.2.4.5.7.9.7s.9-.1,1.5-.4l.3,3.6c-.9.5-1.9.7-3,.7s-1.8-.2-2.3-.7c-.6-.5-1-1.1-1.2-2-.2-.6-.2-2-.2-3.9v-7.7h-1.8v-3.7h1.8v-3.5l3.8-2.7v6.2h2.6Z"/>
          <path d="M320.6,447.4l3.8.8c-.5,1.8-1.3,3.1-2.4,3.9-1.1.9-2.4,1.3-3.9,1.3s-3.8-.7-5-2.1c-1.4-1.7-2.1-4-2.1-7s.7-5.3,2.1-7.1c1.2-1.5,2.7-2.2,4.5-2.2s3.7.8,4.9,2.3c1.4,1.8,2,4.3,2,7.7v.5h-9.6c0,1.4.3,2.5.9,3.2s1.3,1.1,2.2,1.1c1.2,0,2.1-.8,2.5-2.5ZM320.8,442.6c0-1.4-.3-2.4-.9-3.1-.6-.7-1.2-1-2-1s-1.5.4-2,1.1c-.6.7-.8,1.8-.8,3.1h5.7Z"/>
          <path d="M344,440.5l-3.8.8c-.3-1.8-1.2-2.8-2.6-2.8s-1.7.4-2.3,1.2c-.6.8-.9,2.1-.9,4s.3,3.6.9,4.4,1.3,1.3,2.3,1.3,1.3-.2,1.8-.7c.5-.5.8-1.4,1-2.6l3.8.8c-.8,4.2-3,6.4-6.7,6.4s-4.1-.9-5.2-2.7c-1.1-1.8-1.7-4-1.7-6.5s.6-5.3,1.9-6.9c1.3-1.6,3-2.4,5.1-2.4s3.1.4,4.1,1.3,1.8,2.3,2.3,4.3Z"/>
          <path d="M350.3,453v-24.3h3.8v12.9l4.5-6.2h4.7l-4.9,6.5,5.3,11.2h-4.1l-3.7-7.9-1.8,2.3v5.6h-3.8Z"/>
          <path d="M368.7,443.9c0-1.7.3-3.3,1-4.7.7-1.4,1.6-2.5,2.7-3.2,1.1-.7,2.4-1.1,3.7-1.1,2.3,0,4.2.9,5.5,2.7,1.3,1.8,2,4,2,6.4s-.3,3.5-1,4.9c-.7,1.5-1.6,2.6-2.7,3.3-1.1.7-2.4,1.1-3.7,1.1-2.1,0-3.9-.8-5.3-2.5-1.4-1.6-2.1-4-2.1-7ZM372.6,444.2c0,1.8.3,3.1,1,4.1.7.9,1.5,1.4,2.5,1.4s1.8-.5,2.5-1.4c.7-.9,1-2.3,1-4.1s-.3-3.1-1-4c-.7-.9-1.5-1.4-2.5-1.4s-1.8.5-2.5,1.4c-.7.9-1,2.3-1,4Z"/>
        </g>
      </g>
    </g>
  </g>
</svg>