<svg width="284" height="284" viewBox="0 0 284 284" fill="none" xmlns="http://www.w3.org/2000/svg">
<rect width="283.5" height="283.5" fill="#FD5A41"/>
<path d="M73.3224 158.251C68.1044 158.251 63.2004 156.235 61.0914 152.858C59.7154 150.654 60.5084 148.85 62.8794 148.205L63.5854 148.013C65.5634 147.475 66.7794 148.125 67.9944 149.375C69.4384 150.861 71.1894 151.658 73.2494 151.658C75.6614 151.658 77.1594 150.623 77.1594 148.953C77.1594 144.144 60.8534 146.973 60.8534 135.397C60.8534 129.637 65.7584 125.892 72.8804 125.892C78.1854 125.892 82.5574 127.552 84.5704 130.686C86.1874 133.203 85.4904 135.033 82.8284 135.572L82.1144 135.717C79.3614 136.275 78.4514 135.058 77.0774 133.925C75.9414 132.988 74.7334 132.492 73.2294 132.492C71.0244 132.492 69.6174 133.492 69.6174 135.057C69.6174 140.592 86.1614 137.036 86.1614 148.532C86.1614 154.443 80.7804 158.252 73.3214 158.252L73.3224 158.251ZM94.4374 157.936C92.0404 157.936 90.7394 156.635 90.7394 154.238V129.876C90.7394 127.479 92.0404 126.178 94.4374 126.178H95.9214C98.3184 126.178 99.6194 127.479 99.6194 129.876V138.736L106.496 128.732C107.72 126.967 109.158 126.177 111.188 126.177H113.196C116.494 126.177 117.809 127.712 115.587 130.642L107.586 141.193L116.144 153.484C118.205 156.443 117.019 157.935 113.833 157.935H111.624C109.581 157.935 108.071 157.014 106.979 155.306L99.6204 143.666V154.237C99.6204 156.634 98.3194 157.935 95.9224 157.935H94.4384L94.4374 157.936ZM133.188 157.935C131.057 157.935 129.693 156.969 128.947 154.965L119.833 130.433C118.891 127.898 120.087 126.179 122.793 126.179H124.721C126.882 126.179 128.223 127.197 128.88 129.263L134.666 147.471L140.452 129.263C141.109 127.197 142.45 126.179 144.611 126.179H146.539C149.245 126.179 150.46 127.894 149.513 130.436L140.373 154.966C139.626 156.97 138.263 157.936 136.132 157.936L133.188 157.935ZM153.337 154.238V129.876C153.337 127.479 154.638 126.178 157.035 126.178H170.975C173.372 126.178 174.673 127.479 174.673 129.876V130.336C174.673 132.733 173.372 134.034 170.975 134.034H162.217V138.742H170.186C172.582 138.742 173.884 139.893 173.884 141.959V142.003C173.884 144.098 172.583 145.235 170.186 145.235H162.217V150.111H170.975C173.372 150.111 174.673 151.412 174.673 153.809V154.239C174.673 156.636 173.372 157.937 170.975 157.937H157.035C154.638 157.937 153.337 156.635 153.337 154.238ZM179.878 154.238V129.876C179.878 127.479 181.179 126.178 183.576 126.178H185.09C187.487 126.178 188.788 127.479 188.788 129.876V150.11H195.082C197.479 150.11 198.78 151.411 198.78 153.808V154.238C198.78 156.635 197.479 157.936 195.082 157.936H183.576C181.179 157.936 179.878 156.635 179.878 154.238ZM214.761 124.067C215.267 124.075 215.451 123.902 215.509 123.442C215.509 123.442 216.187 119.518 216.187 113.5C216.187 110.92 214.291 109.248 211.953 109.248C209.615 109.248 207.719 111.329 207.719 113.5C207.719 119.008 208.396 123.518 208.396 123.518C208.453 123.901 208.599 124.071 209.044 124.065H214.76L214.761 124.067ZM199.765 142.124C199.765 157.987 207.931 157.939 207.931 157.939H219.908C221.662 157.939 223.083 156.517 223.083 154.764C223.083 153.011 221.661 151.589 219.908 151.589H211.515C210.93 151.589 210.457 151.115 210.457 150.531C210.457 149.947 210.931 149.473 211.515 149.473H219.908C221.662 149.473 223.083 148.051 223.083 146.298C223.083 144.545 221.661 143.123 219.908 143.123H211.515C210.93 143.123 210.457 142.649 210.457 142.065C210.457 141.481 210.931 141.007 211.515 141.007H219.908C221.662 141.007 223.083 139.585 223.083 137.832C223.083 136.079 221.661 134.657 219.908 134.657H211.515C210.93 134.657 210.457 134.183 210.457 133.599C210.457 133.015 210.931 132.541 211.515 132.541H219.908C221.662 132.541 223.083 131.119 223.083 129.366C223.083 127.613 221.661 126.191 219.908 126.191H207.087C207.087 126.191 199.766 126.455 199.766 142.131L199.765 142.124Z" fill="white"/>
</svg>
