<?xml version="1.0" encoding="UTF-8"?>
<svg xmlns="http://www.w3.org/2000/svg" xmlns:xlink="http://www.w3.org/1999/xlink" version="1.1" viewBox="0 0 1024 1024">
  <defs>
    <style>
      .cls-1 {
        fill: none;
      }

      .cls-2 {
        fill: #3c3a38;
      }

      .cls-3 {
        fill: #cb0002;
      }

      .cls-4 {
        fill: #ab0000;
      }

      .cls-5 {
        fill: #303030;
      }

      .cls-6 {
        fill: #fff;
      }

      .cls-7 {
        fill: #282828;
      }

      .cls-8 {
        fill: #9d9d9c;
      }

      .cls-9 {
        clip-path: url(#clippath);
      }

      .cls-10 {
        fill: #b2b2b2;
      }
    </style>
    <clipPath id="clippath">
      <rect class="cls-1" x="-257.3" y="-574.8" width="1576.4" height="1024" transform="translate(22.6 102.8) rotate(-11.3)"/>
    </clipPath>
  </defs>
  <!-- Generator: Adobe Illustrator 28.7.1, SVG Export Plug-In . SVG Version: 1.2.0 Build 142)  -->
  <g>
    <g id="Vrstva_1">
      <rect class="cls-7" width="1024" height="1024"/>
      <g class="cls-9">
        <rect class="cls-5" x="0" y="-.4" width="1024" height="1024"/>
      </g>
      <g>
        <g>
          <path class="cls-6" d="M94.8,410.4c-7.5,0-13.6,6.1-13.6,13.6v176c0,7.5,6.1,13.6,13.6,13.6h325.9v-203.1H94.8"/>
          <path class="cls-8" d="M94.8,613.6h328.1v-4.2H94.8c-5.1,0-9.3-4.1-9.3-9.3v-176c0-5.1,4.1-9.3,9.3-9.3h328.1v-4.3H94.8c-7.5,0-13.6,6.1-13.6,13.6v176c0,7.4,6.1,13.5,13.6,13.5"/>
        </g>
        <path class="cls-10" d="M422.9,410.4H94.8c-7.5,0-13.6,6.1-13.6,13.6v125.1c0-4.7,1.5-8.9,4.2-12.3v-112.8c0-5.1,4.1-9.3,9.3-9.3h328.1v-4.2"/>
        <g>
          <path class="cls-4" d="M929.2,410.4h-509.9v203.1h509.9c7.5,0,13.6-6.1,13.6-13.5v-176c0-7.5-6.2-13.6-13.6-13.6"/>
          <path d="M309.8,591.1c2.2,1.1,6.7,2.4,12.3,2.6,9.6.2,14.9-3.5,18.8-12.1l51.8-115.4c-2.1-1.1-6.8-2.4-10.7-2.5-6.7-.2-15.6,1.2-21.3,14.9l-16.7,39.6-32.9-53.5c-2.1-.6-7.3-1.5-11-1.5-11.6,0-18,4.3-24.8,11.6l-31.9,34.9,25.7,40.5c4.7,7.4,11,11.1,21.2,11.1s12.2-1.5,14.8-2.7l-31-46.8,21.9-23.2,36,56.5-21.9,46.2M241.9,547.4c0,8.5-3.3,13.4-20,13.4l-5.9-.4v-112.9c0-8.5,2.9-17.5,19.7-17.5l6.2.6v116.8M207.6,530.4c0,15.8-10.4,27.5-31.4,29.7-15.3,1.6-37.4-.3-47.9-1.5l-.7-5.5c0-13.9,7.5-17.1,14.5-17.1s18.8,1.2,27.4,1.2,12.3-3.2,12.3-6.3-3.8-5.6-11.1-7.1l-20-3.8c-16.7-3.2-25.5-14.7-25.5-26.9s10.5-27.3,31.2-29.6c15.6-1.7,34.6.2,45.1,1.5l.6,5.4c0,13.8-7.3,16.8-14.3,16.8s-13.8-1-23.4-1-13.8,2.7-13.8,6,3.9,4.9,10,5.9l19.1,3.6c19.7,3.7,28,14.8,28,28.5"/>
          <path class="cls-3" d="M929.2,410.4h-509.9v105.4l523.4-21.3v-70.4c0-7.6-6.1-13.6-13.6-13.6"/>
          <path class="cls-6" d="M820.6,554.9c-1-7.9,1.5-12,5.8-12s15.4,5.1,31,5.1,22.9-6.1,22.9-14.1-2.4-9.9-17.4-14.1l-17-4.7c-18.2-5-25.5-14.1-25.5-25.5s11-26.6,36.4-26.6,25.7,2.8,34.2,6.1c.8,7.7-1.5,11.9-5.5,11.9s-14.5-4.7-28.4-4.7-21.1,5.5-21.1,12.8,2.2,9.1,16,13.1l17.2,4.7c19,5.5,26.9,14.5,26.9,26.6s-11.6,27.7-38.9,27.7-27.7-2.8-36.6-6.3"/>
          <path class="cls-6" d="M807.9,466.6l-25.3,86.7c-1.5,5.4-5.5,6.7-11,6.7s-6.3-.6-9.1-1.4l-24.3-77.1-22.9,71.7c-1.8,5.5-5.9,6.7-11,6.7s-6.5-.6-9.3-1.4l-26.9-92c2.2-1.2,6.1-2.4,9.7-2.4s6.5,1.4,7.7,5.5l19.3,72.7h.2l23.9-75.9c2.6-1.4,6.1-2.4,9.7-2.4,5.9,0,9.1,1.5,10.9,7.1l22.1,71.1h.2l18.8-72.7c1.2-4.1,3.3-5.5,7.7-5.5s7.6,1.1,9.7,2.4"/>
          <path class="cls-6" d="M658.2,518.3h-73.5c2.4,18.4,15.2,28.8,34.2,28.8s14.5-1.8,20.4-3.7c4-1.4,6.1-2.2,7.7-2.2,4,0,6.9,3.7,5.9,12.3-8.3,3.7-21.1,7.7-34.5,7.7-29.4,0-49.6-20-49.6-49.4s21.1-48.8,47-48.8,43.3,23.1,43.3,45.7c0,2.9-.3,6.1-.9,9.7M584.8,505.5h59.1c-.6-16.2-11-29.1-28-29.1s-28.5,10.1-31,29.1"/>
          <path class="cls-6" d="M550.8,503.3v50.8c0,3.7-1.9,5.9-8.1,5.9s-5.5-.4-7.1-.8v-53.9c0-19.3-9.7-28.7-23.7-28.7s-23.3,7.9-28.3,17v60.4c0,3.7-1.9,5.9-8.1,5.9s-5.8-.4-7.1-.8v-93.9c1.4-.4,4.4-1,7.1-1,6.1,0,8.1,2.4,8.1,5.9v8.1c6.9-8.3,17.4-15.2,31.6-15.2,19.5,0,35.7,12.3,35.7,40.2"/>
        </g>
        <g>
          <path class="cls-6" d="M170.7,524.1c2.5.5,4.5,1,6.3,1.6h0c-1.7-.6-3.8-1.1-6.3-1.6M186.1,503.6q0,0,.2,0c0,0,0,0-.2,0M185.7,503.4c0,0,.2,0,.2,0,0,0-.2,0-.2,0M185.2,503.3c0,0,.2,0,.2,0,0,0-.2,0-.2,0M184.8,503.1c0,0,.2,0,.3,0,0,0-.2,0-.3,0M183.9,503c.2,0,.6.2.8.2-.2,0-.5-.2-.8-.2M183.5,502.8c.2,0,.2,0,.3,0,0,0-.2,0-.3,0M183.1,502.7c.2,0,.2,0,.3,0,0,0-.2,0-.3,0M181.3,502.3c.6.2,1.1.2,1.7.4-.5-.2-1.1-.3-1.7-.4M180.9,502.3c.2,0,.2,0,.4,0-.2,0-.2,0-.4,0M180.5,502.2c0,0,.2,0,.3,0,0,0-.2,0-.3,0M180.1,502c0,0,.2,0,.3,0-.2,0-.2,0-.3,0M163.9,486.5c-9.4,0-13.3,2.8-13.3,6s3.9,4.9,10,5.9l19.1,3.6c.2,0,.2,0,.4,0-.2,0-.3,0-.4,0l-19.1-3.6c-6.1-1.1-9.9-2.5-9.9-5.9,0-3.3,3.8-5.9,13.2-6M201,465.3c.2,0,.2,0,.4,0l.6,5.4-.6-5.4c-.2,0-.2,0-.4,0M156.3,463.8h0c-20.6,2.3-31.1,14.7-31.1,29.5h0c0-14.8,10.5-27.2,31.1-29.5M170.1,463.2c-4.2,0-8.4.2-12.4.6,4-.4,8.2-.6,12.4-.6M170.1,463.2h.2-.2"/>
          <path class="cls-2" d="M170.1,463.2h0c-4.3,0-8.5.2-12.5.6-.4,0-.8,0-1.2.2-20.7,2.2-31.2,14.6-31.2,29.5s8.9,23.7,25.5,26.9l20,3.8c2.5.5,4.6,1,6.3,1.6l30.1-1.2c-1.9-9.3-8.4-17-20.8-20.9q0,0-.2,0c0,0-.2,0-.2,0,0,0-.2,0-.2,0,0,0-.2,0-.2,0,0,0-.2,0-.2,0h0c-.2,0-.2,0-.3,0h0c-.2,0-.5-.2-.8-.2h0c0,0-.2,0-.3,0h0c0,0-.2,0-.3,0h0c-.6-.2-1.1-.2-1.7-.4h0c-.2,0-.2,0-.4,0h0c0,0-.2,0-.3,0h-.2c0,0-.2,0-.3,0h0c-.2,0-.2,0-.4,0l-19.1-3.6c-6.1-1.1-10-2.5-10-5.9s4-5.8,13.3-6h.5c9.6,0,18,1.1,23.4,1.1s14.3-3,14.3-16.8l-.6-5.4c-.2,0-.2,0-.4,0-7.5-.9-19-2.1-30.6-2.1h-.3"/>
          <path class="cls-6" d="M273.8,511.7h0l6.5,9.8-6.5-9.8M299.9,462.9c-11.6,0-18,4.3-24.8,11.6l-31.9,34.9,31.9-34.9c6.7-7.3,13.2-11.6,24.8-11.6s8.9.9,11.1,1.5l32.9,53.5,16.7-39.6c5.5-13.1,14-14.9,20.6-14.9h.7c3.9,0,8.6,1.4,10.7,2.5l-23.2,51.7h0l23.2-51.7c-2.1-1.1-6.8-2.4-10.7-2.5h-.7c-6.6,0-15,1.7-20.6,14.9l-16.7,39.6-32.9-53.5c-2.2-.6-7.4-1.5-11.1-1.5"/>
          <path class="cls-2" d="M299.9,462.9c-11.6,0-18,4.3-24.8,11.6l-31.9,34.9,8.4,13.2,28.8-1.2-6.5-9.8,21.9-23.2,20.1,31.7,53.5-2.2,23.2-51.7c-2.1-1.1-6.8-2.4-10.7-2.5h-.7c-6.6,0-15,1.7-20.6,14.9l-16.7,39.6-32.9-53.5c-2.1-.7-7.3-1.7-11-1.7"/>
          <path class="cls-2" d="M235.6,430c-16.8,0-19.7,8.9-19.7,17.5v76.6l25.9-1.1v-92.5l-6.3-.6"/>
        </g>
      </g>
    </g>
  </g>
</svg>