<?xml version="1.0" encoding="utf-8"?>
<!-- Generator: Adobe Illustrator 28.3.0, SVG Export Plug-In . SVG Version: 6.00 Build 0)  -->
<svg version="1.1" id="Vrstva_1" xmlns="http://www.w3.org/2000/svg" xmlns:xlink="http://www.w3.org/1999/xlink" x="0px" y="0px"
	 viewBox="0 0 283.5 283.5" style="enable-background:new 0 0 283.5 283.5;" xml:space="preserve">
<style type="text/css">
	.st0{fill:#BEFF00;}
	.st1{fill-rule:evenodd;clip-rule:evenodd;}
</style>
<rect class="st0" width="283.5" height="283.5"/>
<path class="st1" d="M30.1,146.5v4.9h0c3.7,1.2,8.8,1.9,14.3,1.9c10.8,0,15.3-2.2,15.3-7.2c0-6.2-8.7-6.6-15.7-6.9
	c-4.5-0.2-8.3-0.4-8.3-2.1c0-1.4,2.6-2.1,8.8-2.1c4.3,0,8.6,0.6,12.8,1.9l0.2-0.1V132c-4-1.2-8.4-1.8-13.1-1.8
	c-9.5,0-14.5,2.4-14.5,6.9c0,6.3,8.8,6.7,15.7,6.9c4.5,0.2,8.2,0.3,8.2,2.1c0,1.5-2.7,2.5-9.2,2.5c-6,0-10.4-0.7-14.5-2.2
	L30.1,146.5L30.1,146.5z M68.3,141.6v-6.1h10.9c4,0,6,0.6,6,3.1s-2,3.1-6,3.1H68.3z M68.3,152.9v-6.7h11.2c7.5,0,11.5-2.7,11.5-7.6
	c0-4.9-4.1-7.6-11.7-7.6H62.6v22H68.3L68.3,152.9z M121.4,141.8c0-4.3-4-6.9-11.4-6.9c-7.3,0-11.3,2.6-11.3,6.9s4,6.9,11.3,6.9
	C117.4,148.7,121.4,146.1,121.4,141.8z M93,141.8c0-7.2,6.4-11.5,17.1-11.5c10.8,0,17.1,4.2,17.1,11.5s-6.4,11.5-17.1,11.5
	C99.3,153.2,93,149,93,141.8z M135.8,141.2v-5.7h11c3.9,0,5.8,0.6,5.8,2.9s-2,2.8-5.8,2.8L135.8,141.2L135.8,141.2z M135.8,145.7
	h8.8v0l7.4,7.2h7l0.1-0.1l-7.9-7.4c4.7-0.8,7.2-3.3,7.2-7.1c0-4.8-4.1-7.4-11.5-7.4H130v22h5.8L135.8,145.7L135.8,145.7z M218.5,131
	l-12.9,14.3v7.5h-5.8v-7.5l-9-10h-12.7v17.5h-5.8v-17.5h-12.9v-4.5h34.2l9.1,10.3l9.1-10.3h6.6L218.5,131L218.5,131z M245.1,137.1
	l3.6-6.2h4.8l-0.2,0.3l-6.4,10.7h-3.5l-0.1-0.1l-4.5-7.1h-5v7.3h-4.3v-7.3h-5.3v-3.8h17C241.3,130.9,245.1,137.1,245.1,137.1z"/>
</svg>
