<?xml version="1.0" encoding="UTF-8"?>
<svg xmlns="http://www.w3.org/2000/svg" version="1.1" viewBox="0 0 283.5 283.5">
  <defs>
    <style>
      .cls-1 {
        fill: #212224;
      }

      .cls-2 {
        fill: #ee322b;
      }

      .cls-3 {
        fill: #fff;
      }

      .cls-4 {
        fill: #fef9f9;
      }
    </style>
  </defs>
  <!-- Generator: Adobe Illustrator 28.7.1, SVG Export Plug-In . SVG Version: 1.2.0 Build 142)  -->
  <g>
    <g id="Vrstva_1">
      <g id="Layer_2">
        <g id="AMC_Networks_International">
          <g id="sport2">
            <rect class="cls-1" width="283.5" height="283.5"/>
            <g id="logo">
              <path class="cls-2" d="M199.7,124.5v34.5h31.4c5.4,0,9.8-4.4,9.8-9.8h0v-24.7h-41.2Z"/>
              <path class="cls-3" d="M42.5,141.5v17.5h159.1v-34.5H60.3c-9.3,0-17.8,6.6-17.8,17"/>
              <path class="cls-2" d="M56.2,141.7c0,1.9,1.6,3.5,3.5,3.5s3.5-1.6,3.5-3.5-1.6-3.5-3.5-3.5-3.5,1.6-3.5,3.5"/>
              <path class="cls-1" d="M64.9,138.8c.5.9.8,1.9.8,2.9,0,3.2-2.6,5.9-5.8,5.9,0,0,0,0,0,0h-14.5v8.6h14.5c7.9,0,14.4-6.3,14.5-14.2,0-1.1,0-2.1-.3-3.2"/>
              <path class="cls-1" d="M59.8,127.3c-8,0-14.5,6.5-14.5,14.4,0,0,0,0,0,0,0,.7,0,1.5.2,2.2,0,.2,0,.5.2.8h9.1c-1.7-2.8-.8-6.4,2-8,.9-.5,1.9-.8,3-.8h14.5v-8.6"/>
              <path class="cls-1" d="M77.1,141.7h0v14.5h8.6v-14.5h0c0-3.2,2.6-5.9,5.9-5.8,3.2,0,5.9,2.6,5.8,5.9,0,3.2-2.6,5.8-5.9,5.8-1,0-2-.3-2.9-.8v9.1c1,.2,2,.3,3,.3,8,0,14.4-6.5,14.4-14.5,0-8-6.5-14.4-14.5-14.4-8,0-14.4,6.5-14.4,14.4"/>
              <path class="cls-1" d="M108.5,141.8c0,8,6.5,14.4,14.5,14.4s14.4-6.5,14.4-14.5c0-8-6.4-14.4-14.4-14.4-8,0-14.4,6.5-14.4,14.4,0,0,0,0,0,0M117.2,141.8c0-3.2,2.6-5.9,5.9-5.9,3.2,0,5.9,2.6,5.9,5.9s-2.6,5.9-5.9,5.9,0,0,0,0c-3.2,0-5.9-2.6-5.8-5.9"/>
              <path class="cls-1" d="M154,127.2c-7.8.3-14,6.7-14,14.6v14.4h8.7v-14.4c0-3.3,2.6-5.9,5.9-5.9h12.5v-8.7"/>
              <path class="cls-1" d="M170.1,127.3v14.3h0c0,8.1,6.5,14.6,14.6,14.6,5.8,0,11-3.4,13.3-8.7h-13.3c-3.3,0-5.9-2.6-5.9-5.9,0,0,0,0,0,0h0v-14.3"/>
              <path class="cls-1" d="M181.8,135.8h17v-8.6h-17v8.6Z"/>
            </g>
          </g>
        </g>
      </g>
      <path class="cls-4" d="M208.6,126.3c2.8,0,5.7,0,8.5,0,1.3,0,2.6,0,4,0,1.3,0,2.6,0,3.8,0,.5,0,1,0,1.5,0q6,0,8.6,1.9c.2.1.4.3.7.4,2,1.9,2.7,4.3,2.8,7,0,.7,0,1.3,0,2,0,.4,0,.7,0,1.1,0,.7,0,1.5,0,2.2,0,.9,0,1.9,0,2.8,0,.7,0,1.5,0,2.2,0,.5,0,1,0,1.5,0,2.5-.3,5-2,6.9-2.1,1.8-4.5,2.4-7.2,2.4-.2,0-.4,0-.7,0-.7,0-1.5,0-2.2,0-.5,0-1,0-1.5,0-1.3,0-2.7,0-4,0-1.4,0-2.8,0-4.1,0-2.7,0-5.4,0-8.1,0v-9.1q10.2-.1,20.6-.3v-1.8c-3.6,0-7.2-.2-11-.3v-7c.7,0,1.5,0,2.3,0,.7,0,1.4,0,2.2,0,.5,0,1,0,1.5,0,.7,0,1.4,0,2.2,0q.3,0,.7,0t1.9-.3,0-1.6c-.5-.5-1.4-.3-2.1-.3-.2,0-.4,0-.6,0-.7,0-1.3,0-2,0-.4,0-.9,0-1.3,0-1.2,0-2.4,0-3.6,0-1.4,0-2.8,0-4.3,0-2.2,0-4.3,0-6.5,0v-9.1Z"/>
    </g>
  </g>
</svg>