<?xml version="1.0" encoding="UTF-8"?>
<svg xmlns="http://www.w3.org/2000/svg" version="1.1" viewBox="0 0 283.5 283.5">
  <defs>
    <style>
      .cls-1 {
        fill: #fff;
      }
    </style>
  </defs>
  <!-- Generator: Adobe Illustrator 28.7.1, SVG Export Plug-In . SVG Version: 1.2.0 Build 142)  -->
  <g>
    <g id="Vrstva_1">
      <g id="Vrstva_1-2" data-name="Vrstva_1">
        <rect width="283.5" height="283.5"/>
        <g>
          <polygon id="polygon4" class="cls-1" points="149.3 115.6 149.3 127.9 152.2 127.9 152.2 115.6 156.5 115.6 156.5 112.9 145 112.9 145 115.6 149.3 115.6"/>
          <rect id="rect6" class="cls-1" x="159.5" y="112.9" width="3" height="15"/>
          <polygon id="polygon8" class="cls-1" points="176.8 112.9 176.8 122.7 169.4 112.9 166.6 112.9 166.6 127.9 169.6 127.9 169.6 118.2 176.8 127.9 179.7 127.9 179.7 112.9 176.8 112.9"/>
          <path id="path10" class="cls-1" d="M191.5,122.8h2.9c-.5,1.7-2,2.6-3.9,2.6-3.3,0-4.8-2.6-4.8-5s1.7-5.1,4.7-5.1,3.2.9,3.5,2.1l.2.5h2.9l-.2-.6c-.5-2.7-3.2-4.7-6.5-4.7-5,0-7.7,4.1-7.7,7.8s2.7,7.7,7.8,7.7,6.3-2.1,6.9-5.4h1.7v-2.6h-7.4v2.7Z"/>
          <polygon id="polygon12" class="cls-1" points="234.5 118.8 230.7 112.9 227.3 112.9 233 121.8 229.8 127.9 233.1 127.9 240.6 112.9 237.3 112.9 234.5 118.8"/>
          <path id="path14" class="cls-1" d="M209.7,122.2c1.5-.9,2.4-2.6,2.4-4.4,0-2.7-2.3-5-5-5h-5.7v14.9h2.9v-5h2.4l2.3,5h3.3l-2.6-5.6ZM207.3,120.1h-2.9v-4.5h2.9c1.2,0,2.3,1.1,2.3,2.3-.2,1.2-1.1,2.3-2.3,2.3"/>
          <path id="path16" class="cls-1" d="M222.3,113.1h0l-2.7-.2-5.1,15h3.2l1.1-3.3h4.4l1.1,3.3h3.2l-5-14.9ZM219.3,122.1l1.5-4.8,1.5,4.8h-3Z"/>
          <path id="path18" class="cls-1" d="M139.4,119.2l-2.7-.6c-1.1-.3-1.7-.8-1.7-1.7s.9-1.7,2.4-1.7,2.4.8,2.7,1.8h3c-.5-2.6-2.4-4.4-5.9-4.4s-5.3,2-5.3,4.5,1.7,3.6,3.8,4.1l2.7.6c1.4.3,1.8.8,1.8,1.7s-1.1,1.8-2.4,1.8-2.6-.6-3-2h-3.2c.5,2.9,2.9,4.5,6.2,4.5s5.6-1.8,5.6-4.7c-.2-2.1-1.7-3.5-4.1-4.1"/>
          <path id="path24" class="cls-1" d="M79.9,137.2h9v3.5s.6-1.2,2-2.3c1.4-1.2,3.8-2.3,7.1-2.3s5.1.6,7.5,3.2c.8.8,1.4,1.7,2,2.7.6-1.1,1.4-2,2.4-2.9,2-1.8,4.5-3,8-3s5.9.6,8.6,3.3c3,3.2,3.5,5.4,3.5,12.6v17.7h-9.8v-17.4c0-1.4,0-3.2-.6-4.5-.6-1.5-1.8-2.7-4.4-2.7s-4.1,1.2-4.7,2.7c-.8,1.5-.8,3.2-.8,4.1v17.7h-9.8v-17.7c0-.9,0-2.6-.6-4.1-.6-1.5-1.8-2.7-4.2-2.7s-4.1,1.4-4.8,2.9c-.8,1.7-.8,3.3-.8,4.4v17.3h-9.8v-32.4h.2Z"/>
          <path id="path26" class="cls-1" d="M162.8,169.7h-9v-3.5c-1.1,1.7-3.2,4.5-9,4.5-11,0-12.2-8.9-12.2-13.4v-20.1h9.8v17.7c0,3.6.8,6.8,5.1,6.8s5.6-3.5,5.6-6.8v-17.7h9.8v32.4Z"/>
          <path id="path28" class="cls-1" d="M180.9,146.4c0-.8-.2-2.4-3-2.4s-2.7,1.4-2.7,2.1c0,1.5,2.4,2.4,5,3.2,5.6,1.5,11.4,3.2,11.4,10.2s-6,11.4-13.2,11.4-12.3-2.3-13.2-10.8h9.6c.5,3,3.3,3,3.8,3,1.7,0,3.5-.9,3.5-2.6s-2.4-2.6-8.6-5c-4.2-1.4-7.8-4.1-7.8-8.6,0-6.8,5.9-11,12.6-11s11.7,1.7,12.5,10.2h-9.8v.2Z"/>
          <path id="path30" class="cls-1" d="M193.3,137.2h9.8v32.6h-9.8v-32.6Z"/>
          <path id="path32" class="cls-1" d="M77.8,153c.2,7.7-4.8,15-13.2,17.1-9.6,2.6-18.9-3.2-21.2-12.5-2.4-9.3,3-18.6,12.5-21,8.4-2.1,16.5,1.7,20,9l-9.6,2.4c-1.5-2-4.1-3.8-8-2.7-2.3.5-3.9,1.8-5,3.6-.9,1.8-1.2,4.1-.6,6.3,1.4,4.7,5.1,7.2,9.6,6.2,3.9-1.1,5.3-3.8,5.7-5.9l9.8-2.6Z"/>
          <path id="path34" class="cls-1" d="M239.9,153c.2,7.7-4.8,15-13.2,17.1s-18.8-3.3-21.2-12.6c-2.4-9.3,3-18.6,12.5-21,8.4-2.1,16.5,1.7,20,9l-9.6,2.4c-1.5-2-4.1-3.8-8-2.7-2.3.5-3.9,1.8-5,3.6-.9,1.8-1.2,4.1-.6,6.3,1.2,4.7,5.1,7.2,9.5,6.2,3.9-1.1,5.3-3.8,5.7-5.9l9.9-2.4Z"/>
        </g>
      </g>
    </g>
  </g>
</svg>