<?xml version="1.0" encoding="UTF-8"?>
<svg xmlns="http://www.w3.org/2000/svg" version="1.1" viewBox="0 0 283.5 283.5">
  <defs>
    <style>
      .cls-1 {
        fill: #b69862;
      }
    </style>
  </defs>
  <!-- Generator: Adobe Illustrator 28.7.1, SVG Export Plug-In . SVG Version: 1.2.0 Build 142)  -->
  <g>
    <g id="Vrstva_1">
      <g id="Vrstva_1-2" data-name="Vrstva_1">
        <g id="Vrstva_1-2">
          <rect class="cls-1" width="283.5" height="283.5"/>
        </g>
      </g>
      <g>
        <g>
          <polygon points="159.5 119.6 163.1 119.6 163.1 129.8 165.6 129.8 165.6 119.6 169.2 119.6 169.2 117.2 159.5 117.2 159.5 119.6"/>
          <rect x="171.9" y="117.2" width="2.4" height="12.7"/>
          <polygon points="186.4 125.6 180.3 117.2 177.9 117.2 177.9 129.8 180.3 129.8 180.3 121.7 186.4 129.8 188.8 129.8 188.8 117.2 186.4 117.2 186.4 125.6"/>
          <path d="M199,125.6h2.4c-.3,1.5-1.5,2.1-3.3,2.1-2.7,0-4.2-2.1-4.2-4.2s1.5-4.2,3.9-4.2,2.7.6,3,1.8v.3h2.4v-.3c-.3-2.4-2.7-3.9-5.4-3.9-4.2,0-6.3,3.3-6.3,6.6s2.1,6.6,6.6,6.6,5.4-1.8,6-4.5h1.2v-2.4h-6.3s0,2.1,0,2.1Z"/>
          <polygon points="237.9 117.2 235.5 122.3 232.2 117.2 229.5 117.2 234 124.7 231.6 129.8 234.3 129.8 240.6 117.2 237.9 117.2"/>
          <path d="M214.4,125c1.2-.9,2.1-2.1,2.1-3.6,0-2.4-1.8-4.2-4.2-4.2h-4.8v12.7h2.4v-4.2h2.1l1.8,4.2h2.7l-2.1-4.8ZM212.3,123.5h-2.4v-3.9h2.4c.9,0,1.8.9,1.8,1.8s-.6,2.1-1.8,2.1"/>
          <path d="M224.9,117.5h-2.1l-4.5,12.4h2.7l1.2-2.7h3.6l.9,2.7h2.7l-4.5-12.4ZM222.5,125l1.5-3.9,1.2,3.9h-2.7Z"/>
          <path d="M154.7,122.6l-2.4-.6c-.9-.3-1.5-.6-1.5-1.5s.9-1.5,2.1-1.5,2.1.6,2.4,1.5h2.7c-.3-2.1-2.1-3.6-4.8-3.6s-4.5,1.5-4.5,3.9,1.5,3,3.3,3.3l2.1.6c1.2.3,1.5.6,1.5,1.5s-.9,1.5-2.1,1.5-2.1-.6-2.4-1.5h-2.7c.3,2.4,2.1,3.9,5.1,3.9s4.5-1.5,4.5-3.9-1.2-3-3.3-3.6"/>
        </g>
        <g>
          <path d="M86,163.9v-40.1h-.9c-.9,1.5-2.4,2.7-3.9,3.6-1.5.9-3.3,1.5-4.8,1.8h-.3v1.2h.6c.3,0,.6,0,.6.6v33.2c0,.3,0,.6-.6.6h-.6v1.2h11.1v-1.2h-.6c-.3-.3-.6-.3-.6-.9Z"/>
          <path d="M118.2,141.6c-1.5-.9-3-2.1-4.2-3.6h-.9v3.9c-1.2-1.2-2.7-2.1-4.2-3-1.8-.6-3.6-1.2-5.7-1.2s-3.6.3-5.4,1.2c-1.8.6-3.3,1.8-4.5,3s-2.4,2.7-3,4.5-1.2,3.3-1.2,5.4.3,3.9,1.2,5.4c.9,1.8,1.8,3.3,3,4.5s2.7,2.4,4.5,3c1.8.6,3.6,1.2,5.4,1.2s3.9-.3,5.7-1.2c1.5-.6,3-1.8,4.2-3v2.4c0,.3,0,.6-.6.6h-.6v1.2h12.1v-1.2h-.6c-.6,0-.6-.3-.6-.6v-19.3c0-.3,0-.6.6-.6h.6v-1.2h-.3c-1.9,0-3.7-.6-5.5-1.5ZM99.2,159.7c0-1.8-.3-4.2-.3-6.6v-3c0-2.4,0-4.5.3-6.6,0-1.8.6-3.3,1.5-3.9.6-.6,1.2-.9,2.4-.9h0c1.8,0,3.6.3,5.1.9,1.5.6,3,1.8,4.2,3,.3.3.6.9.6,1.5v14.8c0,.6-.3,1.2-.6,1.5-1.2,1.2-2.4,2.1-4.2,3-1.5.6-3.3,1.2-5.1,1.2h0c-.9,0-1.5-.3-2.1-.9-1.2-.6-1.5-2.1-1.8-3.9Z"/>
          <path d="M178.2,163.9v-26.2h-.9v.3c-1.2,1.2-2.7,2.4-4.2,3.6-1.5.9-3.3,1.5-5.1,1.8h-.3v1.2h.6q.3,0,.3.6v19.3c0,.3-.3.6-.3.6h-.6v1.2h11.4v-1.2h-.6q-.3-.6-.3-1.2Z"/>
          <path d="M238.5,144.3h.6v-1.2h-.3c-2.1-.3-3.9-.9-5.4-1.8-1.5-.9-3-2.1-4.2-3.6h-.9v3.9c-1.2-1.2-2.7-2.1-4.2-3-1.8-.6-3.6-1.2-5.7-1.2s-3.6.3-5.4,1.2c-1.8.6-3.3,1.8-4.5,3s-2.4,2.7-3,4.5-1.2,3.3-1.2,5.4.3,3.9,1.2,5.4c.9,1.8,1.8,3.3,3,4.5,1.2,1.2,2.7,2.4,4.5,3,1.8.6,3.6,1.2,5.4,1.2s3.9-.3,5.7-1.2c1.5-.6,3-1.8,4.2-3v2.4c0,.3,0,.6-.6.6h-.6v1.2h12v-1.2h-.6c-.6,0-.6-.3-.6-.6v-19c0-.3,0-.6.6-.6ZM215.9,163.6c-.9-.9-1.2-2.1-1.5-3.9,0-1.8-.3-4.2-.3-6.6v-3c0-2.4,0-4.5.3-6.6,0-1.8.6-3.3,1.5-3.9.6-.6,1.2-.9,2.4-.9h0c1.8,0,3.6.3,5.1.9,1.5.6,3,1.8,4.2,3,.3.3.6.9.6,1.5v14.8c0,.6-.3,1.2-.6,1.5-1.2,1.2-2.4,2.1-4.2,3-1.5.6-3.3,1.2-5.1,1.2h0c-1.2,0-1.8-.3-2.4-.9Z"/>
          <path d="M73,132.2c-1.5-1.2-3.3-2.1-5.1-2.7-1.8-.6-3.9-.9-6-.9s-5.1.6-7.5,1.5-4.2,2.4-6,4.2-3,3.6-3.9,6c-1.2,1.8-1.5,4.5-1.5,6.9s.6,5.1,1.5,7.5,2.4,4.2,3.9,6c1.8,1.8,3.6,3,6,4.2,2.4.9,4.8,1.5,7.5,1.5s4.2-.3,6-.9c1.8-.6,3.6-1.5,5.1-2.7h.3v-1.5l-.6.3c-1.5,1.2-3.3,2.1-5.1,2.7-1.8.6-3.9,1.2-6,1.2h0c-2.1,0-3.6-.3-4.8-.9-1.2-.6-2.1-.9-2.4-1.5-.6-.6-.9-1.2-1.2-2.1-.3-.9-.6-2.1-.6-3.3s-.3-2.4-.3-3.9v-13c0-1.5,0-2.7.3-3.9,0-1.2.3-2.1.6-3,.3-.9.6-1.5,1.2-2.1.3-.6.9-1.2,2.4-1.8,1.2-.6,3-.9,4.8-.9h.3c2.1,0,4.2.3,6,1.2,1.8.6,3.6,1.5,5.1,2.7l.6.6v-1.6h-.6c.3,0,0,0,0,0Z"/>
          <path d="M144.5,154.8c-.6-1.2-1.2-2.1-2.1-3l-2.7-2.7-2.7-2.7c-.9-.9-1.5-1.8-2.1-2.7-.9-.9-.9-1.8-.9-2.7s.3-.9.6-1.5c.6-.3,1.2-.3,1.8-.3.9,0,1.8,0,2.7.3s1.5.6,2.4.9c.3.3.6.3.9.6l.3.3s.3.3.3.6c.3.3.3.6.3,1.2v2.1h.9v-5.7h-.9v1.2l-.3-.3c-.3-.3-.6-.6-.9-.6-.9-.6-1.5-.9-2.7-1.2-.9-.3-2.1-.3-3-.3s-2.4.3-3.3.6c-1.2,0-2.1.3-2.7.9-.9.6-1.5,1.2-1.8,2.1-.6.9-.6,1.8-.6,2.7s.3,2.1.9,3c.6.9,1.5,1.8,2.4,2.7s1.8,1.8,3,2.7c.9.9,2.1,1.8,3,2.7s1.5,1.8,2.1,3c.6.9.9,2.1.9,3.3s0,1.2-.3,1.5l-.9.9c-.3.3-.9.3-1.2.3h-1.2c-.9,0-1.8,0-2.7-.3s-1.5-.6-2.4-.9c-.6-.3-1.2-.9-1.8-1.5l-.6-.6v-.3h-1.2l.3.6c.6.6,1.2,1.5,1.8,1.8.9.6,1.8,1.2,3,1.5,1.2.3,2.4.6,3.6.6s2.4-.3,3.6-.6,2.1-.9,3-1.5,1.5-1.5,2.1-2.4c.6-.9.6-2.1.6-3.3-.5-.9-.8-2-1.5-3h0Z"/>
          <path d="M162.3,151.5l-2.7-2.7-2.7-2.7c-.9-.9-1.5-1.8-2.1-2.7s-.9-1.8-.9-2.4.3-.9.6-1.5c.9-.3,1.2-.3,2.1-.3s1.8,0,2.7.3,1.5.6,2.4.9c.3.3.6.3.9.6l.3.3s.3.3.3.6c.3.3.3.6.3,1.2v2.1h.9v-5.7h-.9v1.2l-.3-.3c-.3-.3-.6-.6-.9-.6-.9-.6-1.5-.9-2.7-1.2-.9-.3-2.1-.3-3-.3s-2.4.3-3.3.6c-1.2,0-2.1.3-3,.9-.9.6-1.5,1.2-1.8,2.1-.6.9-.6,1.8-.6,2.7s.3,2.1.9,3c.6.9,1.5,1.8,2.4,2.7.9.9,1.8,1.8,3,2.7.9.9,2.1,1.8,3,2.7s1.5,1.8,2.1,3c.6.9.9,2.1.9,3.3s0,1.2-.3,1.5l-.9.9c-.3.3-.9.3-1.2.3h-1.2c-.9,0-1.8,0-2.7-.3s-1.5-.6-2.4-.9c-.6-.3-1.2-.9-1.8-1.5l-.6-.6v-.3h-1.2l.3.6c.6.6,1.2,1.5,1.8,1.8.9.6,1.8,1.2,3,1.5,1.2.3,2.4.6,3.6.6s2.4-.3,3.6-.6,2.1-.9,3-1.5,1.5-1.5,2.1-2.4.6-2.1.6-3.3-.3-2.4-.9-3.6c-1.2-.5-1.8-1.5-2.7-2.6Z"/>
          <path d="M195.4,138c-1.8,0-3.6.3-5.4,1.2-1.8.6-3.3,1.8-4.5,3s-2.4,2.7-3,4.5c-.6,1.5-1.2,3.3-1.2,5.1h0v.9h0c0,1.8.6,3.3,1.2,5.1.9,1.8,1.8,3.3,3,4.5s2.7,2.4,4.5,3,3.6,1.2,5.4,1.2c2.7,0,5.4-.9,7.8-2.4h.3v-1.5l-.6.3c-2.1,1.5-4.8,2.1-7.3,2.1s-1.8-.3-2.4-.9c-.9-.9-1.2-2.1-1.5-3.9s-.3-4.2-.3-6.6v-3c0-2.4,0-4.5.3-6.6,0-1.8.6-3.3,1.5-3.9.3-.6,1.2-.9,2.1-.9,2.7,0,5.1.9,7.3,2.1l.6.3v-1.2h-.3c-2.1-1.8-4.8-2.4-7.5-2.4Z"/>
        </g>
      </g>
    </g>
  </g>
</svg>