<?xml version="1.0" encoding="UTF-8"?>
<svg xmlns="http://www.w3.org/2000/svg" version="1.1" viewBox="0 0 283.5 283.5">
  <defs>
    <style>
      .cls-1 {
        fill: #fff;
      }

      .cls-2 {
        fill: #e21e27;
      }
    </style>
  </defs>
  <!-- Generator: Adobe Illustrator 28.7.1, SVG Export Plug-In . SVG Version: 1.2.0 Build 142)  -->
  <g>
    <g id="Vrstva_1">
      <g id="Vrstva_1-2" data-name="Vrstva_1">
        <g id="Vrstva_1-2">
          <g id="Vrstva_1-2-2" data-name="Vrstva_1-2">
            <rect class="cls-2" width="283.5" height="283.5"/>
          </g>
        </g>
        <g>
          <g>
            <polygon class="cls-2" points="159.5 119.6 163.1 119.6 163.1 129.8 165.6 129.8 165.6 119.6 169.2 119.6 169.2 117.2 159.5 117.2 159.5 119.6"/>
            <rect class="cls-2" x="171.9" y="117.2" width="2.4" height="12.7"/>
            <polygon class="cls-2" points="186.4 125.6 180.3 117.2 177.9 117.2 177.9 129.8 180.3 129.8 180.3 121.7 186.4 129.8 188.8 129.8 188.8 117.2 186.4 117.2 186.4 125.6"/>
            <path class="cls-2" d="M199,125.6h2.4c-.3,1.5-1.5,2.1-3.3,2.1-2.7,0-4.2-2.1-4.2-4.2s1.5-4.2,3.9-4.2,2.7.6,3,1.8v.3h2.4v-.3c-.3-2.4-2.7-3.9-5.4-3.9-4.2,0-6.3,3.3-6.3,6.6s2.1,6.6,6.6,6.6,5.4-1.8,6-4.5h1.2v-2.4h-6.3v2.1h0Z"/>
            <polygon class="cls-2" points="237.9 117.2 235.5 122.3 232.2 117.2 229.5 117.2 234 124.7 231.6 129.8 234.3 129.8 240.6 117.2 237.9 117.2"/>
            <path class="cls-2" d="M214.4,125c1.2-.9,2.1-2.1,2.1-3.6,0-2.4-1.8-4.2-4.2-4.2h-4.8v12.7h2.4v-4.2h2.1l1.8,4.2h2.7l-2.1-4.8h0ZM212.3,123.5h-2.4v-3.9h2.4c.9,0,1.8.9,1.8,1.8s-.6,2.1-1.8,2.1"/>
            <path class="cls-2" d="M224.9,117.5h-2.1l-4.5,12.4h2.7l1.2-2.7h3.6l.9,2.7h2.7l-4.5-12.4h0ZM222.5,125l1.5-3.9,1.2,3.9h-2.7Z"/>
            <path class="cls-2" d="M154.7,122.6l-2.4-.6c-.9-.3-1.5-.6-1.5-1.5s.9-1.5,2.1-1.5,2.1.6,2.4,1.5h2.7c-.3-2.1-2.1-3.6-4.8-3.6s-4.5,1.5-4.5,3.9,1.5,3,3.3,3.3l2.1.6c1.2.3,1.5.6,1.5,1.5s-.9,1.5-2.1,1.5-2.1-.6-2.4-1.5h-2.7c.3,2.4,2.1,3.9,5.1,3.9s4.5-1.5,4.5-3.9-1.2-3-3.3-3.6"/>
          </g>
          <g>
            <path class="cls-2" d="M86,163.9v-40.1h-.9c-.9,1.5-2.4,2.7-3.9,3.6-1.5.9-3.3,1.5-4.8,1.8h-.3v1.2h.6c.3,0,.6,0,.6.6v33.2c0,.3,0,.6-.6.6h-.6v1.2h11.1v-1.2h-.6c-.3-.3-.6-.3-.6-.9h0Z"/>
            <path class="cls-2" d="M118.2,141.6c-1.5-.9-3-2.1-4.2-3.6h-.9v3.9c-1.2-1.2-2.7-2.1-4.2-3-1.8-.6-3.6-1.2-5.7-1.2s-3.6.3-5.4,1.2c-1.8.6-3.3,1.8-4.5,3s-2.4,2.7-3,4.5-1.2,3.3-1.2,5.4.3,3.9,1.2,5.4c.9,1.8,1.8,3.3,3,4.5s2.7,2.4,4.5,3,3.6,1.2,5.4,1.2,3.9-.3,5.7-1.2c1.5-.6,3-1.8,4.2-3v2.4c0,.3,0,.6-.6.6h-.6v1.2h12.1v-1.2h-.6c-.6,0-.6-.3-.6-.6v-19.3c0-.3,0-.6.6-.6h.6v-1.2h-.3c-1.9,0-3.7-.6-5.5-1.5h0ZM99.2,159.7c0-1.8-.3-4.2-.3-6.6v-3c0-2.4,0-4.5.3-6.6,0-1.8.6-3.3,1.5-3.9.6-.6,1.2-.9,2.4-.9h0c1.8,0,3.6.3,5.1.9,1.5.6,3,1.8,4.2,3s.6.9.6,1.5v14.8c0,.6-.3,1.2-.6,1.5-1.2,1.2-2.4,2.1-4.2,3-1.5.6-3.3,1.2-5.1,1.2h0c-.9,0-1.5-.3-2.1-.9-1.2-.6-1.5-2.1-1.8-3.9h0Z"/>
            <path class="cls-2" d="M178.2,163.9v-26.2h-.9v.3c-1.2,1.2-2.7,2.4-4.2,3.6-1.5.9-3.3,1.5-5.1,1.8h-.3v1.2h.6c.2,0,.3.2.3.6v19.3c0,.3-.3.6-.3.6h-.6v1.2h11.4v-1.2h-.6c-.2-.4-.3-.8-.3-1.2h0Z"/>
            <path class="cls-2" d="M238.5,144.3h.6v-1.2h-.3c-2.1-.3-3.9-.9-5.4-1.8-1.5-.9-3-2.1-4.2-3.6h-.9v3.9c-1.2-1.2-2.7-2.1-4.2-3-1.8-.6-3.6-1.2-5.7-1.2s-3.6.3-5.4,1.2c-1.8.6-3.3,1.8-4.5,3s-2.4,2.7-3,4.5-1.2,3.3-1.2,5.4.3,3.9,1.2,5.4c.9,1.8,1.8,3.3,3,4.5s2.7,2.4,4.5,3,3.6,1.2,5.4,1.2,3.9-.3,5.7-1.2c1.5-.6,3-1.8,4.2-3v2.4c0,.3,0,.6-.6.6h-.6v1.2h12v-1.2h-.6c-.6,0-.6-.3-.6-.6v-19c0-.3,0-.6.6-.6h0ZM215.9,163.6c-.9-.9-1.2-2.1-1.5-3.9,0-1.8-.3-4.2-.3-6.6v-3c0-2.4,0-4.5.3-6.6,0-1.8.6-3.3,1.5-3.9.6-.6,1.2-.9,2.4-.9h0c1.8,0,3.6.3,5.1.9,1.5.6,3,1.8,4.2,3s.6.9.6,1.5v14.8c0,.6-.3,1.2-.6,1.5-1.2,1.2-2.4,2.1-4.2,3-1.5.6-3.3,1.2-5.1,1.2h0c-1.2,0-1.8-.3-2.4-.9h0Z"/>
            <path class="cls-2" d="M73,132.2c-1.5-1.2-3.3-2.1-5.1-2.7-1.8-.6-3.9-.9-6-.9s-5.1.6-7.5,1.5-4.2,2.4-6,4.2-3,3.6-3.9,6c-1.2,1.8-1.5,4.5-1.5,6.9s.6,5.1,1.5,7.5,2.4,4.2,3.9,6c1.8,1.8,3.6,3,6,4.2,2.4.9,4.8,1.5,7.5,1.5s4.2-.3,6-.9c1.8-.6,3.6-1.5,5.1-2.7h.3v-1.5l-.6.3c-1.5,1.2-3.3,2.1-5.1,2.7-1.8.6-3.9,1.2-6,1.2h0c-2.1,0-3.6-.3-4.8-.9-1.2-.6-2.1-.9-2.4-1.5-.6-.6-.9-1.2-1.2-2.1-.3-.9-.6-2.1-.6-3.3s-.3-2.4-.3-3.9v-13c0-1.5,0-2.7.3-3.9,0-1.2.3-2.1.6-3s.6-1.5,1.2-2.1c.3-.6.9-1.2,2.4-1.8,1.2-.6,3-.9,4.8-.9h.3c2.1,0,4.2.3,6,1.2,1.8.6,3.6,1.5,5.1,2.7l.6.6v-1.6h-.6c.3,0,0,0,0,0v.2Z"/>
            <path class="cls-2" d="M144.5,154.8c-.6-1.2-1.2-2.1-2.1-3l-2.7-2.7-2.7-2.7c-.9-.9-1.5-1.8-2.1-2.7-.9-.9-.9-1.8-.9-2.7s.3-.9.6-1.5c.6-.3,1.2-.3,1.8-.3.9,0,1.8,0,2.7.3s1.5.6,2.4.9c.3.3.6.3.9.6l.3.3s.3.3.3.6c.3.3.3.6.3,1.2v2.1h.9v-5.7h-.9v1.2l-.3-.3c-.3-.3-.6-.6-.9-.6-.9-.6-1.5-.9-2.7-1.2-.9-.3-2.1-.3-3-.3s-2.4.3-3.3.6c-1.2,0-2.1.3-2.7.9-.9.6-1.5,1.2-1.8,2.1-.6.9-.6,1.8-.6,2.7s.3,2.1.9,3c.6.9,1.5,1.8,2.4,2.7s1.8,1.8,3,2.7c.9.9,2.1,1.8,3,2.7s1.5,1.8,2.1,3c.6.9.9,2.1.9,3.3s0,1.2-.3,1.5l-.9.9c-.3.3-.9.3-1.2.3h-1.2c-.9,0-1.8,0-2.7-.3s-1.5-.6-2.4-.9c-.6-.3-1.2-.9-1.8-1.5l-.6-.6v-.3h-1.2l.3.6c.6.6,1.2,1.5,1.8,1.8.9.6,1.8,1.2,3,1.5s2.4.6,3.6.6,2.4-.3,3.6-.6,2.1-.9,3-1.5,1.5-1.5,2.1-2.4.6-2.1.6-3.3c-.5-.9-.8-2-1.5-3h0Z"/>
            <path class="cls-2" d="M162.3,151.5l-2.7-2.7-2.7-2.7c-.9-.9-1.5-1.8-2.1-2.7s-.9-1.8-.9-2.4.3-.9.6-1.5c.9-.3,1.2-.3,2.1-.3s1.8,0,2.7.3,1.5.6,2.4.9c.3.3.6.3.9.6l.3.3s.3.3.3.6c.3.3.3.6.3,1.2v2.1h.9v-5.7h-.9v1.2l-.3-.3c-.3-.3-.6-.6-.9-.6-.9-.6-1.5-.9-2.7-1.2-.9-.3-2.1-.3-3-.3s-2.4.3-3.3.6c-1.2,0-2.1.3-3,.9-.9.6-1.5,1.2-1.8,2.1-.6.9-.6,1.8-.6,2.7s.3,2.1.9,3c.6.9,1.5,1.8,2.4,2.7s1.8,1.8,3,2.7c.9.9,2.1,1.8,3,2.7s1.5,1.8,2.1,3c.6.9.9,2.1.9,3.3s0,1.2-.3,1.5l-.9.9c-.3.3-.9.3-1.2.3h-1.2c-.9,0-1.8,0-2.7-.3s-1.5-.6-2.4-.9c-.6-.3-1.2-.9-1.8-1.5l-.6-.6v-.3h-1.2l.3.6c.6.6,1.2,1.5,1.8,1.8.9.6,1.8,1.2,3,1.5s2.4.6,3.6.6,2.4-.3,3.6-.6,2.1-.9,3-1.5,1.5-1.5,2.1-2.4.6-2.1.6-3.3-.3-2.4-.9-3.6c-1.2-.5-1.8-1.5-2.7-2.6h0Z"/>
            <path class="cls-2" d="M195.4,138c-1.8,0-3.6.3-5.4,1.2-1.8.6-3.3,1.8-4.5,3s-2.4,2.7-3,4.5c-.6,1.5-1.2,3.3-1.2,5.1h0v.9h0c0,1.8.6,3.3,1.2,5.1.9,1.8,1.8,3.3,3,4.5s2.7,2.4,4.5,3,3.6,1.2,5.4,1.2c2.7,0,5.4-.9,7.8-2.4h.3v-1.5l-.6.3c-2.1,1.5-4.8,2.1-7.3,2.1s-1.8-.3-2.4-.9c-.9-.9-1.2-2.1-1.5-3.9s-.3-4.2-.3-6.6v-3c0-2.4,0-4.5.3-6.6,0-1.8.6-3.3,1.5-3.9.3-.6,1.2-.9,2.1-.9,2.7,0,5.1.9,7.3,2.1l.6.3v-1.2h-.3c-2.1-1.8-4.8-2.4-7.5-2.4h0Z"/>
          </g>
        </g>
      </g>
      <g>
        <polygon class="cls-1" points="150 95.6 154.1 95.6 154.1 107.2 156.9 107.2 156.9 95.6 161 95.6 161 93 150 93 150 95.6"/>
        <rect class="cls-1" x="163.8" y="93" width="2.8" height="14.2"/>
        <polygon class="cls-1" points="180.1 102.3 173.2 93 170.5 93 170.5 107.2 173.3 107.2 173.3 97.9 180.2 107.2 182.9 107.2 182.9 93 180.1 93 180.1 102.3"/>
        <path class="cls-1" d="M194.2,102.4h2.6c-.5,1.6-1.8,2.5-3.7,2.5-3.2,0-4.6-2.5-4.6-4.7s1.6-4.8,4.4-4.8,3,.8,3.3,2v.4h2.8v-.6c-.5-2.5-3-4.4-6.2-4.4-4.7,0-7.2,3.8-7.2,7.4s2.5,7.3,7.3,7.3,5.9-1.9,6.6-5.1h1.5v-2.6h-7v2.6Z"/>
        <polygon class="cls-1" points="237.6 93 234.8 98.6 231.3 93 228 93 233.3 101.5 230.5 107.2 233.5 107.2 240.6 93 237.6 93"/>
        <path class="cls-1" d="M211.4,101.8c2.2-1.3,3-4.2,1.6-6.5-.8-1.4-2.4-2.3-4-2.3h-5.5v14.1h2.8v-4.7h2.3l2.1,4.7h3.1l-2.5-5.4ZM209,99.9h-2.7v-4.3h2.7c1.2,0,2.1,1,2.1,2.2,0,1.2-.9,2.1-2.1,2.1"/>
        <path class="cls-1" d="M223.2,93.1h0c0-.1-2.4-.1-2.4-.1l-4.9,14.2h3l1-3.2h4.1l1,3.2h3l-4.9-14ZM220.5,101.7l1.5-4.5,1.5,4.5h-3Z"/>
        <path class="cls-1" d="M144.8,99l-2.6-.6c-1.1-.2-1.6-.7-1.6-1.5s.9-1.6,2.2-1.6,2.3.7,2.6,1.7h2.9c-.5-2.4-2.3-4.1-5.5-4.1s-5,1.8-5,4.3,1.5,3.4,3.6,3.8l2.5.6c1.2.3,1.7.7,1.7,1.6s-.9,1.8-2.3,1.8-2.4-.6-2.8-1.8h-3c.5,2.7,2.7,4.2,5.8,4.2s5.2-1.6,5.2-4.4-1.4-3.4-3.7-3.9"/>
        <path class="cls-1" d="M62.2,122.5l15.5-2.9v43.9h4.1v1.2h-15.6v-4.1c-.9,1.2-2,2.3-3.2,3.2-1.3,1.1-3,1.6-4.9,1.6-2.5,0-4.8-.5-6.7-1.4-1.9-.9-3.5-2.2-4.8-3.9-1.3-1.6-2.3-3.5-2.9-5.5-.6-2-1-4.2-1-6.3,0-2.1.3-4.2,1-6.3.6-2,1.6-3.8,2.9-5.5,1.3-1.6,2.9-2.9,4.8-3.9,1.9-1,4.1-1.5,6.7-1.4,2.1,0,3.9.4,5.2,1.1,1.3.8,2.3,1.7,2.9,2.9v-12.5l-4,.8v-1.2ZM56,152.2c0,2.4,0,4.4.2,5.8.1,1.4.3,2.6.6,3.3.3.8.7,1.3,1.2,1.5.6.3,1.3.4,1.9.4.7,0,1.3-.2,1.9-.5.6-.4,1.2-.8,1.8-1.4.6-.6,1.1-1.2,1.5-1.8.4-.6.8-1.2,1.1-1.8v-19.7c-.7-1.3-1.6-2.4-2.6-3.4-1-1-2.3-1.5-3.7-1.5-.7,0-1.3.2-1.9.5-.5.4-.9,1-1.2,1.8-.3.9-.5,2-.7,3.5-.1,1.5-.2,3.3-.2,5.6v7.6Z"/>
        <path class="cls-1" d="M100.4,177.1c-.9,2.9-2.3,5.3-4.1,7.3-1.8,2-4,3.6-6.5,4.7-2.5,1.1-5.4,1.7-8.6,1.7-2.8,0-5.2-.7-7.2-2-1.9-1.3-2.9-3.2-2.9-5.5,0-1.7.6-3.1,1.8-4.2,1.2-1.1,2.5-1.6,4-1.6s2.9.5,4,1.4c1.1.9,1.6,2.3,1.6,4.1,0,.8-.2,1.5-.5,2.2-.3.6-.8,1.1-1.3,1.6-.5.4-1.1.7-1.7.9-.5.2-1.1.3-1.6.3.8.6,1.8,1,2.8.9.7,0,1.4-.1,2-.3,1.5-.4,2.7-1.5,3.3-2.9.4-.8.6-1.8.6-3v-62.8l-5.6.8v-1.7l21.3-3.3v51.8c0,3.5-.5,6.6-1.4,9.5"/>
        <path class="cls-1" d="M137.2,119.2c2.7.5,5,1.4,6.8,2.7,1.7,1.2,3.1,2.9,3.9,4.9.8,2,1.2,4.5,1.2,7.4v21.9c0,1.7.2,3,.6,3.9.4.9,1.3,1.4,2.7,1.4,1.2,0,2-.4,2.5-1.1.5-.8.8-1.8,1-2.7,0-.6.3-.9.8-.9s.6.3.6.8c0,.8-.1,1.7-.4,2.5-.3,1-.8,1.8-1.6,2.5-.8.8-1.9,1.4-3.4,2-1.5.6-3.4.8-5.9.8-3.5,0-6.3-.5-8.1-1.6-1.9-1.1-3.1-2.3-3.8-3.8-.6.6-1.3,1.2-2,1.8-.9.7-1.8,1.3-2.8,1.8-1.1.6-2.3,1-3.6,1.4-1.5.4-3.1.5-4.6.5-2.6,0-5-.4-6.9-1.1-1.8-.6-3.5-1.7-5-3-1.3-1.2-2.3-2.8-3-4.4-.7-1.7-1-3.5-1-5.4,0-1.8.4-3.7,1-5.4.7-1.8,1.8-3.4,3.2-4.7,1.5-1.5,3.3-2.6,5.3-3.4,2.1-.9,4.6-1.3,7.5-1.3h11.3v-8.3c0-2.5-.4-4.4-1.1-5.8-.8-1.4-2.4-2.1-5-2.1-2.9,0-4.8.2-5.8.6-1,.4-1.6.9-1.6,1.4,0,.4.2.8.7,1,1.3.8,2,2.1,2,3.9,0,.5,0,1.1-.2,1.6-.1.6-.4,1.2-.8,1.7-.5.6-1.1,1-1.7,1.4-.7.4-1.7.6-2.9.6-1.4,0-2.8-.4-3.9-1.3-1.1-.9-1.7-2.3-1.7-4.3,0-2.8,1.5-4.9,4.5-6.3,3-1.4,6.8-2.1,11.4-2.1,4,0,7.3.3,10.1.8M129.1,138.4c-2.9,0-4.9,1.2-6.1,3.5-1.2,2.4-1.8,5.5-1.8,9.3,0,3.9.4,6.7,1.1,8.4.7,1.7,2,2.6,3.7,2.6.4,0,1-.2,1.9-.5.9-.4,1.7-.8,2.5-1.3.8-.5,1.5-1.1,2.1-1.8.6-.7.9-1.3.9-1.9v-18.3h-4.3Z"/>
        <path class="cls-1" d="M197.3,121.7l-23,40.6h9.9c4,0,7.1-1.1,9.1-3.3,2.1-2.2,3.4-5.1,3.9-8.7h1v13.7h-40.1v-2.3l23.6-40.9h-9c-2.8,0-5.5.9-7.7,2.7-2.3,1.8-3.6,4.5-4,8.1h-1v-12.5h37.1v2.6Z"/>
        <path class="cls-1" d="M238.9,121.7l-23,40.6h9.9c4,0,7.1-1.1,9.1-3.3,2.1-2.2,3.4-5.1,3.9-8.7h1v13.7h-40.1v-2.3l23.6-40.9h-9c-2.8,0-5.5.9-7.7,2.7-2.3,1.8-3.6,4.5-4,8.1h-1v-12.5h37.1v2.6Z"/>
        <path class="cls-1" d="M97.9,110c-2.5,2.5-6.6,2.5-9.1,0-1.2-1.2-1.9-2.9-1.9-4.6,0-3.5,2.8-6.4,6.4-6.4,3.5,0,6.4,2.8,6.4,6.4,0,0,0,0,0,0,0,1.7-.6,3.3-1.9,4.5"/>
      </g>
    </g>
  </g>
</svg>