<?xml version="1.0" encoding="UTF-8"?>
<svg xmlns="http://www.w3.org/2000/svg" version="1.1" viewBox="0 0 283.5 283.5">
  <defs>
    <style>
      .cls-1 {
        fill: #fe7e03;
      }

      .cls-2 {
        fill: #fff;
      }
    </style>
  </defs>
  <!-- Generator: Adobe Illustrator 28.7.1, SVG Export Plug-In . SVG Version: 1.2.0 Build 142)  -->
  <g>
    <g id="Vrstva_1">
      <g id="Vrstva_1-2" data-name="Vrstva_1">
        <g id="Vrstva_1-2">
          <g id="Vrstva_1-2-2" data-name="Vrstva_1-2">
            <g id="Vrstva_1-2-2">
              <rect class="cls-1" width="283.5" height="283.5"/>
            </g>
          </g>
        </g>
      </g>
      <g>
        <path class="cls-2" d="M140,60.5c5.4-3,11.8-3.6,17.8-3.5,6.5,0,13.2,2.1,18.2,6.5,4.9,4.2,7.8,10.5,8.7,16.9.5,2.9.3,5.9.4,8.8v60.2h-36.5v-45.5c0-1-.3-2.1-1.2-2.7-1.3-.9-3.2-.3-3.8,1l-28.6,50.2c-1,1.7.5,4,2.5,3.9h75.5c4.6,0,9.3-.2,13.6,1.5,3.5,1.2,6.6,3.8,8.2,7.3,1.5,3.2,1.7,6.8,1.5,10.2-.3,3.9-1.8,7.9-4.9,10.5-3.7,3.1-8.6,4.1-13.3,4.2h-111.6c-4.5,0-9.2-.7-13-3.3-3.6-2.4-6.1-6.5-6.3-10.9-.2-4.1,1-8,2.8-11.6,1.3-2.7,2.9-5.3,4.6-7.8l55.6-86c2.5-3.9,5.7-7.5,9.9-9.7"/>
        <path class="cls-2" d="M148.6,196.8h36.5v7.3c0,3.3-.2,6.5-1.1,9.7-1.1,3.9-3.4,7.7-6.8,9.9-4,2.6-9.1,3.2-13.8,2.6-3.8-.5-7.5-2.3-10-5.2-3.3-3.7-4.6-8.7-4.8-13.6,0-1.3,0-2.2,0-3.5v-7.3h0Z"/>
        <path class="cls-1" d="M108.7,163.9c2.1-.3,4.4,0,6.1,1.2,1.2.8,2.1,2,2.3,3.4,0,.4-.1.7-.5.7-.8,0-1.6,0-2.4,0-.8,0-.9-.6-1.1-1,0-.2-.2-.3-.3-.4-.9-.8-2.2-1-3.4-.9-.8,0-1.8.4-2.1,1.2-.4.9,0,2.1.9,2.5,2.5,1.3,5.6,1.2,7.9,2.9,2,1.4,2.1,4.4.8,6.3-1.1,1.6-3.2,2.4-5.1,2.6-2.3.2-4.7,0-6.7-1.3-1.3-.8-2.2-2.3-2.2-3.8,0-.2,0-.3.4-.3.9,0,1.9,0,2.8,0,.2,0,.3.1.5.4l.3.5c.2.3.3.5.5.7,1.1,1,2.7,1,4.1.8,1-.1,2.1-.6,2.4-1.7.3-.8-.2-1.7-1-2.1-2.5-1.3-5.5-1.3-7.9-2.9-2-1.4-2.2-4.4-.9-6.3,1-1.5,2.8-2.2,4.5-2.4h0Z"/>
        <path class="cls-1" d="M140.4,164.1c2.4-.5,5-.3,7.1,1.1,1.6,1.1,2.6,3,2.8,4.9.2,2.2.2,4.3,0,6.5-.2,1.8-1,3.5-2.5,4.6-1.9,1.4-4.4,1.6-6.7,1.3-2-.2-4-1.3-5-3.2-1-1.9-.9-4.2-.9-6.3,0-1.9,0-4,1-5.8.9-1.6,2.6-2.7,4.3-3.1M141.4,167.1c-1.1.3-1.9,1.3-2.2,2.3-.4,1.4-.2,2.9-.3,4.3,0,1.5,0,3.2.8,4.4,1.1,1.5,3.2,1.7,4.8,1,1.2-.5,1.8-1.7,2-2.9.2-1.5.1-3.1.1-4.6,0-1.3-.2-2.7-1.1-3.7-1-1.1-2.7-1.3-4.1-.9h0Z"/>
        <path class="cls-1" d="M120,164.1c-.5,0-.9,0-1,.5,0,.7,0,1.4,0,2.1,0,.5.3.6.8.6h4.7v14c0,.4,0,.8.5.9.8,0,1.6,0,2.4,0,.6,0,.7-.3.7-.8v-14.2h4.7c.5,0,.7-.1.8-.6,0-.7,0-1.4,0-2.1,0-.5-.5-.5-1-.5h-12.5Z"/>
        <path class="cls-1" d="M153.8,164.9c0-.5.2-.8.7-.8h5.2c2.2,0,4.6,0,6.3,1.4,1.9,1.4,2.2,4.1,1.6,6.3-.5,1.5-1.7,2.5-3.1,3l3.9,6.9c.1.3-.1.5-.5.5-.9,0-1.9,0-2.8,0-.5,0-.6-.3-.9-.9-1.1-2-2.1-3.9-3.2-5.9h-3.5v6.3c0,.3-.1.5-.8.6-.7,0-1.5,0-2.2,0-.4,0-.7-.2-.7-.6v-16.7M157.4,167v5.4h3.4c.9,0,1.1,0,1.7-.2,2.2-.7,2.1-4.4-.1-5-.6-.2-1.2-.2-1.8-.2h-3.2Z"/>
        <path class="cls-1" d="M170.6,164.1c-.5,0-.9,0-1,0-.4,0-.6.4-.4.8l5.9,10.5h0c.3.4.2.7.2,1.1v5.2c0,.4.4.5.8.6.4,0,.8,0,1.1,0,.4,0,.7,0,1.1,0,.3,0,.8-.1.8-.6v-5.2c0-.4,0-.7.2-1.1l5.9-10.5c.2-.4,0-.7-.4-.8-.2,0-1.6,0-2.3,0-.6,0-.7.3-.9.6l-4.3,7.5-4.3-7.5c-.2-.3-.2-.5-.9-.6-.3,0-.9,0-1.4,0h0Z"/>
      </g>
    </g>
  </g>
</svg>