<?xml version="1.0" encoding="UTF-8"?>
<svg xmlns="http://www.w3.org/2000/svg" version="1.1" viewBox="0 0 283.5 283.5">
  <defs>
    <style>
      .cls-1 {
        fill: #edff00;
      }
    </style>
  </defs>
  <!-- Generator: Adobe Illustrator 28.7.1, SVG Export Plug-In . SVG Version: 1.2.0 Build 142)  -->
  <g>
    <g id="Vrstva_1">
      <g id="Vrstva_1-2" data-name="Vrstva_1">
        <g id="Vrstva_1-2">
          <g id="Vrstva_1-2-2" data-name="Vrstva_1-2">
            <rect width="283.5" height="283.5"/>
          </g>
        </g>
      </g>
      <g>
        <path class="cls-1" d="M149.1,205.1c-38.1,0-72.7-9.7-97.2-27.2l-2.4-1.7,31.1-35.6,2,1.3c17.6,11.9,42.8,19.1,67.4,19.1s22.2-3.8,22.2-4.9c0-3.1-7.6-4.9-27.2-6.6-40.8-3.6-87.6-12.5-87.6-50.8s8.6-30.1,24.9-39.4c15.1-8.6,36-13.2,60.6-13.2s62.7,7.6,83.9,20.8l2.6,1.6-29.6,36.1-2-1.2c-15.2-9.2-33.1-13.6-54.7-13.6s-23.8,4.1-23.8,4.1c0,2.9,20.5,4.5,28.2,5.1,41.9,3.5,86.6,10.6,86.6,51s-7.6,31-22.1,40.6c-14.8,9.7-35.9,14.7-62.9,14.7ZM57.4,175.1c23.5,15.9,55.9,24.6,91.7,24.6s79.6-18.2,79.6-50-31.3-41.4-81.7-45.7c-23-1.8-33.1-3.4-33.1-10.5s9-9.5,29.2-9.5,40,4.3,55.6,13.2l22.7-27.7c-20.2-11.7-48.6-18.4-78.4-18.4s-43.7,4.3-58,12.5c-14.6,8.3-22.3,20.3-22.3,34.7,0,26.5,25.5,40.5,82.7,45.5,22.6,1.9,32.1,4,32.1,11.9s-14.7,10.3-27.6,10.3c-24.7,0-50.1-6.9-68.4-18.7l-24.1,27.7Z"/>
        <path class="cls-1" d="M73,230.8c0,4.2-3.7,6.9-10.7,6.9-4.4.2-8.8-1.1-12.5-3.5l3.6-4.1c2.7,1.7,5.8,2.6,9,2.5,2.2,0,3.3-.3,3.3-1s-.7-.9-3.9-1.2c-5.9-.5-11.1-1.9-11.1-6.3s4.6-6.5,10.8-6.5c3.8,0,7.5.8,10.7,2.6l-3.4,4.2c-2.2-1.3-4.8-1.9-7.3-1.8-1.6,0-3.5.2-3.5.9s1.3.8,4,1c6.5.5,11,1.7,11,6.3Z"/>
        <path class="cls-1" d="M95.3,223.7h-7.1v13.2h-7.5v-13.2h-7.1v-5.5h21.7v5.5Z"/>
        <path class="cls-1" d="M112.3,237.1l-4.2-5.1h-3.3v5.1h-7.5v-18.8h13.5c5.2,0,9.4,2.1,9.4,6.8,0,2.8-1.8,5.3-4.5,6l5.1,5.9h-8.5ZM104.8,227.2h5.4c1.5,0,2.5-.5,2.5-1.9s-1-1.9-2.5-1.9h-5.4v3.8Z"/>
        <path class="cls-1" d="M122.9,237.1v-18.8h7.5v18.8h-7.5Z"/>
        <path class="cls-1" d="M148.8,237.1l-4.6-6.6-2.9,2.8v3.8h-7.5v-18.8h7.5v7.3l6.9-7.3h8.9l-7.7,7.6,8.1,11.2h-8.7Z"/>
        <path class="cls-1" d="M179.9,231.8v5.3h-21.2v-18.8h20.9v5.2h-13.6v1.6h10.9v4.7h-10.9v2h13.8Z"/>
        <path class="cls-1" d="M208.6,223.7h-7.1v13.2h-7.5v-13.2h-7.1v-5.5h21.7v5.5h0Z"/>
        <path class="cls-1" d="M216.5,218.2l4.7,11.9,4.7-11.9h7.9l-8.7,18.8h-7.8l-8.7-18.8h8Z"/>
      </g>
    </g>
  </g>
</svg>