<?xml version="1.0" encoding="utf-8"?>
<!-- Generator: Adobe Illustrator 28.0.0, SVG Export Plug-In . SVG Version: 6.00 Build 0)  -->
<svg version="1.1" id="Vrstva_1" xmlns="http://www.w3.org/2000/svg" xmlns:xlink="http://www.w3.org/1999/xlink" x="0px" y="0px"
	 viewBox="0 0 1024 1024" style="enable-background:new 0 0 1024 1024;" xml:space="preserve">
<style type="text/css">
	.st0{fill:#FF0000;}
	.st1{fill:#FFFFFF;}
</style>
<rect class="st0" width="1024" height="1024"/>
<g id="g922">
	<path id="path906" class="st1" d="M150.3,515.6c16.1,0.1,29.2-12.8,29.4-28.9s-12.8-29.2-28.9-29.4c-16.1-0.1-29.2,12.8-29.4,28.9
		c0,0,0,0,0,0.1c-0.2,16,12.7,29.1,28.7,29.3C150.2,515.6,150.3,515.6,150.3,515.6z M150.3,545.5c-16.1-0.2-29.3,12.7-29.5,28.8
		c-0.2,16.1,12.7,29.3,28.8,29.5c16.1,0.2,29.3-12.7,29.5-28.8c0-0.1,0-0.2,0-0.4C179.2,558.7,166.3,545.6,150.3,545.5z"/>
	<g id="g920">
		<path id="path908" class="st1" d="M557.3,454.1c-42.1-0.7-76.9,32.8-77.6,74.9c0,0.7,0,1.5,0,2.2v0.5
			c-1.1,42.6,32.6,78.1,75.3,79.1c42.6,1.1,78.1-32.7,79.1-75.3c0-1.4,0-2.9,0-4.3v-0.4c0.6-41.7-32.7-76.1-74.4-76.7
			C558.9,454.1,558.1,454.1,557.3,454.1z M598.8,531.8c0,25.6-17.9,45.1-41.8,45.1c-11.7,0.1-22.8-5-30.5-13.8
			c-7.6-8.8-11.7-20.1-11.5-31.7v-0.4c0-25.7,17.9-45.1,41.6-45.1c11.7-0.1,22.8,5,30.5,13.8c7.6,8.8,11.7,20.1,11.6,31.7
			L598.8,531.8z"/>
		<path id="path910" class="st1" d="M771.7,506.7c0.6-12.4-3.8-24.5-12.2-33.7c-9.6-10.4-24.8-15.8-45.2-15.8h-59.9v148.2h24
			c5.1,0,9.4-4.1,9.5-9.2v-36.6c0-0.7,0.5-1.3,1.2-1.3c0,0,0,0,0.1,0h15.7c0.5,0,0.9,0.2,1.2,0.7l0.7,1l28.4,45.4h29.1
			c2.8,0,5-2.2,5-5c0-1-0.3-2-0.8-2.8l-26.4-40.9l-1.4-2.2c-0.2-0.3-0.2-0.8,0-1.1c0.1-0.4,0.4-0.7,0.7-0.8l2.4-1.1
			c17.8-7.4,29-25.2,28-44.4L771.7,506.7z M738,509.8c0,13.6-9.7,22-25.3,22h-23.5c-0.7,0-1.3-0.6-1.3-1.3c0,0,0,0,0-0.1v-41.8
			c0-0.7,0.6-1.3,1.3-1.3h23.3c16.2,0,25.5,8,25.5,22V509.8z"/>
		<path id="path912" class="st1" d="M849.7,605.4c5.1,0,9.4-4.1,9.5-9.2v-107c0-0.7,0.5-1.3,1.2-1.3c0,0,0,0,0.1,0h42.7v-21.1
			c0-5.3-4.3-9.5-9.5-9.5H781.8v21.1c0,5.2,4.2,9.5,9.4,9.5c0,0,0,0,0.1,0h33.1c0.7,0,1.3,0.6,1.3,1.3c0,0,0,0,0,0.1v116
			L849.7,605.4z"/>
		<path id="path914" class="st1" d="M315.5,413.1H288c-1.1,0-2.2,0.5-2.9,1.3l-3,3.5c-1.5,1.8-3.7,2.9-6.1,2.8h-0.6
			c-2.4,0-4.6-1-6.1-2.8l-2.9-3.6c-0.7-0.8-1.8-1.3-2.9-1.3H236c-0.2,0-0.4,0.1-0.5,0.3c-0.1,0.2-0.1,0.5,0,0.7l12.2,15.8
			c6,7.7,15.2,12.2,25,12.2h5.3c9.8,0,19-4.5,25-12.2l12.2-15.8c0.2-0.2,0.2-0.5,0-0.7C315.4,413.3,315.4,413.2,315.5,413.1
			L315.5,413.1z"/>
		<path id="path916" class="st1" d="M408.2,561c15.4,0.7,30.5-4.1,42.7-13.4c11.1-9.8,17.2-24.1,16.5-38.9v-0.5
			c0.6-14.1-5-27.8-15.3-37.5c-11.9-9.5-26.8-14.3-42-13.5h-59.2v148.2h24c5.2,0,9.4-4.1,9.6-9.2v-33.8c0-0.7,0.6-1.3,1.3-1.3
			c0,0,0,0,0,0H408.2z M384.5,533.1v-45.5c0-0.7,0.6-1.3,1.3-1.3l0,0h21.3c7-0.4,14,1.8,19.5,6.1c5,4.5,7.8,11.1,7.4,17.9v0.5
			c0,14.5-10.5,23.8-26.8,23.8h-21.5C385.1,534.5,384.5,533.9,384.5,533.1C384.5,533.2,384.5,533.2,384.5,533.1z"/>
		<path id="path918" class="st1" d="M333,560.6c0.6-11.4-4.4-22.4-13.4-29.4c-8.1-6.5-20-11.2-38.5-15.5
			c-18.5-4.3-28.1-7.9-28.1-18.3v-0.7c0-8.2,7.1-13.5,18.3-13.5c11.4,0.3,22.6,3.5,32.5,9.2c4.3,2.4,9.8,1.1,12.6-3l11.4-17
			c-15.9-12.2-35.5-18.4-55.5-17.8c-14.3-0.6-28.2,4.2-39.2,13.4c-9.3,8.4-14.4,20.5-14,33v0.4c0,30.2,23.8,38.4,52.5,45.4
			c21.1,5.1,27.5,9.4,27.5,18.3v0.4c0,8.9-7.6,14.2-20.3,14.2c-14.2-0.1-28.1-4.3-40-12.2c-1.5-1.1-3.2-1.8-5-1.9
			c-2.9,0-5.7,1.3-7.5,3.6l-12.7,16.1c17.8,15,40.5,23,63.8,22.5c34.3,0,55.7-18,55.7-47L333,560.6z"/>
	</g>
</g>
</svg>
