<?xml version="1.0" encoding="UTF-8"?>
<svg xmlns="http://www.w3.org/2000/svg" version="1.1" viewBox="0 0 283.5 283.5">
  <defs>
    <style>
      .cls-1 {
        fill: #00283d;
      }

      .cls-2 {
        fill: #ff860d;
      }

      .cls-3 {
        fill: #ffe103;
      }

      .cls-4 {
        fill: #ffa300;
      }

      .cls-5 {
        fill: #ffc800;
      }
    </style>
  </defs>
  <!-- Generator: Adobe Illustrator 28.7.1, SVG Export Plug-In . SVG Version: 1.2.0 Build 142)  -->
  <g>
    <g id="Vrstva_1">
      <g id="Vrstva_1-2">
        <rect class="cls-1" width="283.5" height="283.5"/>
      </g>
      <g>
        <g>
          <path class="cls-4" d="M117.7,118.1c8.3,1.2,18.1-6.5,25.9-12.4,7.4-5.6,16.5-12.4,23.3-12.3,4.1-.1,7.9,2.3,9.6,6.1-.1-1.3-.7-5.3-1.2-7.1-1.3-5-5.9-8.5-11.1-8.2-8.1,0-17.2,7.1-24.4,12.4-9,6.6-17,13.5-25.6,11.9-4.6-.9-6.6-3-7.2-4.9.3,2.4.6,4.7,1.2,7.1,1.6,4,5.3,6.9,9.6,7.4Z"/>
          <path class="cls-5" d="M153,69.1c-15.5-5.3-32.7.9-41.3,14.8,0,0,1.8,3.9,9.3-2.3,11.7-9.8,17.7-14.2,32-12.5Z"/>
          <path class="cls-3" d="M134.6,79.8c-3.6,2.6-8.8,6.6-12.5,9.1-4.3,2.9-10.5,7.1-13.4,1.6-.6,1.8-1,3.6-1.2,5.4.5,3.4,3.5,5.9,7,5.6,6.5,0,12.5-5.6,21.8-12.4,9.7-7.2,16.5-12,24.4-11,4.6.4,8.9,2.8,11.6,6.7-2.7-4.8-6.5-8.8-11.2-11.8-5.7-3.7-14.8-1.7-26.4,6.8Z"/>
          <path class="cls-2" d="M130.4,133.5c15.5,5.3,32.7-.9,41.3-14.8,0,0-1.8-3.9-9.3,2.3-11.7,9.7-17.7,14.2-32,12.5Z"/>
          <path class="cls-2" d="M148.8,122.7c3.6-2.6,8.8-6.6,12.5-9.1,4.4-2.9,10.5-7.1,13.4-1.6.6-1.8,1-3.6,1.2-5.4-.5-3.4-3.5-5.9-7-5.6-6.5-.1-12.6,5.6-21.9,12.4-9.7,7.2-16.5,11.9-24.4,11-4.6-.4-8.9-2.8-11.6-6.7,2.7,4.8,6.5,8.8,11.2,11.8,5.8,3.7,14.8,1.6,26.4-6.8Z"/>
        </g>
        <g>
          <g>
            <path class="cls-4" d="M108.7,159.9l-.4,4.5c-2-.9-4.3-1.4-6.5-1.5-1.9,0-2.8.4-2.8,1.3s.4,1,1.7,1.2l4,.9c2.8.3,5,2.8,4.8,5.7,0,3.9-2.9,5.9-7.7,5.9-2.5.1-5-.2-7.4-.9l.5-4.6c2.2.9,4.6,1.3,6.9,1.3,2.1,0,2.8-.3,2.9-1.4,0-.8-.4-1.2-2.1-1.5l-4.1-1c-3.1-.8-4.4-2.4-4.4-5.4s2.9-5.6,7.7-5.6c2.4,0,4.6.3,6.8,1Z"/>
            <path class="cls-4" d="M125.9,172.3h-.4c-.5,4-2.3,5.9-6.2,5.9s-6.5-2.7-6.5-7.4v-11.5h5.1v10.9c0,2.2,1.1,3.4,3,3.4,2.8,0,4-1.2,4-3.8v-10.5h5.1v18.3h-4.7l.5-5.3Z"/>
            <path class="cls-4" d="M145.7,158.8c-4,0-5.9,1.9-6.4,5.8h-.4s.5-5.3.5-5.3h-5.3v25h5.4v-5.8l-.4-4.2h.4c.6,2.1,2.5,3.7,5.9,3.7s8-3.9,8-9.6-3.1-9.6-7.7-9.6ZM144,173.5c-2.9,0-4.5-1.8-4.5-5.1s1.5-5.1,4.5-5.1,4.4,1.8,4.4,5.1-1.5,5.1-4.4,5.1Z"/>
            <path class="cls-4" d="M173.1,168.1c0-5.6-3.4-9.3-8.6-9.3s-9,4-9,9.6,3.4,9.6,9.8,9.6,4.7-.5,6.8-1.5l-.4-4.6c-1.9.9-4.1,1.5-6.2,1.5-3.2,0-4.6-1.2-5-3.7h12.5c0-.5,0-1.1,0-1.7ZM160.6,166.6c.4-2.2,1.8-3.4,4-3.4s3.4,1.1,3.7,3.4h-7.7Z"/>
            <path class="cls-4" d="M189.3,159.3l-.4,5.3-1.9-.2c-4.2-.4-5.5,1.8-5.5,5.3v7.7h-5.1v-18.3h4.9l-.5,5.4h.5c.6-4,2.2-5.9,5.2-5.9.9,0,1.9.2,2.8.6Z"/>
          </g>
          <g>
            <path class="cls-4" d="M99.4,190.8c-4,0-5.9,1.9-6.4,5.9h-.4s.5-5.3.5-5.3h-5.3v25h5.4v-5.8l-.4-4.2h.4c.6,2.2,2.5,3.7,5.9,3.7s8-3.9,8-9.6c0-5.9-3.1-9.7-7.7-9.7ZM100.9,204.3c0,0-.2.2-.3.3-.2.1-.3.3-.5.3-.1,0-.3.1-.4.2s-.3,0-.4.1c-.4.1-.9.2-1.5.2s-1,0-1.5-.2c-.2,0-.3,0-.4-.1-.1,0-.3-.1-.4-.2-.2,0-.4-.2-.5-.3-.1,0-.2-.2-.3-.3-.9-.9-1.3-2.2-1.3-3.9,0-3.3,1.5-5.1,4.5-5.1s4.4,1.8,4.4,5.1c0,1.7-.5,3.1-1.3,3.9Z"/>
            <path class="cls-4" d="M118.8,190.8c-5.3,0-9.6,4.4-9.5,9.7,0,5.2,4.3,9.4,9.5,9.5,5.3,0,9.6-4.4,9.5-9.7,0-5.2-4.3-9.4-9.5-9.5ZM118.8,205.4c-3,0-4.5-1.7-4.5-5s1.5-5,4.5-5,4.5,1.8,4.5,5-1.5,5-4.5,5Z"/>
            <path class="cls-4" d="M138,205.1c-1.2,0-1.7-.7-1.7-2v-15.8h-5.1v16.5c0,3.7,1.9,6.1,5.5,6.1,1.3,0,2.7-.3,3.9-.8l-.5-4.5c-.6.3-1.3.5-2.1.5Z"/>
            <path class="cls-4" d="M153.2,198.4l-4-.9c-1.3-.3-1.7-.6-1.7-1.2,0-.9.8-1.3,2.8-1.3,2.2,0,4.4.5,6.5,1.5l.5-4.5c-2.2-.7-4.5-1.1-6.8-1.1-4.8,0-7.7,2.1-7.7,5.6s1.3,4.6,4.4,5.4l4,1c1.6.4,2.1.8,2.1,1.5,0,1-.8,1.4-2.9,1.4-2.4,0-4.7-.4-6.9-1.3l-.5,4.6c2.4.7,4.9,1,7.4.9,4.8,0,7.7-2.1,7.7-5.9.1-2.8-2-5.3-4.8-5.6Z"/>
            <path class="cls-4" d="M174.1,191.2l.3,2.8h-.4c-.8-1.9-2.3-3.3-5.8-3.3-5,0-8.1,3.9-8.1,9.6s3.1,9.6,7.7,9.6,5.9-2.1,6.4-6.2h.4s-.6,5.8-.6,5.8h5.3v-18.3h-5.2ZM169.6,205.5c-2.9,0-4.4-1.8-4.4-5.1s1.5-5.1,4.4-5.1,4.5,1.8,4.5,5.1-1.6,5.1-4.5,5.1Z"/>
            <path class="cls-4" d="M195.6,209.2c-1.4.6-3,.9-4.5.8-.4,0-.7,0-1.1,0-3-.3-5.2-3-4.9-6v-8.1h-2.8v-4.7h2.8v-3.8l5.1-.8v4.6h4.3v4.7h-4.3v6.6c0,2,.6,2.6,2.3,2.6s1.7-.2,2.5-.5l.5,4.6Z"/>
          </g>
        </g>
      </g>
    </g>
  </g>
</svg>