<?xml version="1.0" encoding="UTF-8"?>
<svg xmlns="http://www.w3.org/2000/svg" version="1.1" viewBox="0 0 640 640">
  <defs>
    <style>
      .cls-1 {
        fill: #fff;
      }

      .cls-2 {
        fill: #ffca05;
      }

      .cls-3 {
        fill: #242323;
      }
    </style>
  </defs>
  <!-- Generator: Adobe Illustrator 28.7.1, SVG Export Plug-In . SVG Version: 1.2.0 Build 142)  -->
  <g>
    <g id="Vrstva_1">
      <g id="Vrstva_1-2" data-name="Vrstva_1">
        <g id="Vrstva_1-2">
          <rect class="cls-3" width="640" height="640"/>
          <g>
            <path class="cls-1" d="M156.6,488.2c-49.4,0-79.5-30.2-79.5-78.9v-86.5l54.3-17.5v102c0,19.6,9.2,30.5,25.4,30.5s25.4-11,25.4-30.5v-118.5l54.3-17.4v137.9c0,48.8-30.2,78.9-79.5,78.9h-.3ZM286,350.7h-21.6v-48.8h21.6v-46.7l54.3-17.5v64.2h22v48.8h-22l-.3,133h-54.2l.3-133h0ZM375.1,301.9h58.7l36.7,109.4,36.7-109.4h55.6l-66.2,181.8h-54.6l-66.9-181.8h-.2Z"/>
            <path class="cls-2" d="M77.1,292.9l263.1-84.3v-56.8L77.1,235.9v56.9Z"/>
          </g>
        </g>
      </g>
    </g>
  </g>
</svg>