<svg width="284" height="284" viewBox="0 0 284 284" fill="none" xmlns="http://www.w3.org/2000/svg">
<rect width="283.5" height="283.5" fill="#E00521"/>
<path opacity="0.985" fill-rule="evenodd" clip-rule="evenodd" d="M48.4355 114.182C78.2219 114.182 108.008 114.182 137.795 114.182C137.795 132.561 137.795 150.94 137.795 169.318C108.008 169.318 78.2219 169.318 48.4355 169.318C48.4355 150.94 48.4355 132.561 48.4355 114.182ZM60.6036 127.11C68.7156 127.11 76.8277 127.11 84.9397 127.11C84.9397 129.138 84.9397 131.166 84.9397 133.194C82.0245 133.194 79.1092 133.194 76.1939 133.194C76.1939 140.926 76.1939 148.658 76.1939 156.39C73.9124 156.39 71.6309 156.39 69.3494 156.39C69.3494 148.658 69.3494 140.926 69.3494 133.194C66.4341 133.194 63.5189 133.194 60.6036 133.194C60.6036 131.166 60.6036 129.138 60.6036 127.11ZM92.925 127.11C95.21 127.047 97.4915 127.11 99.7696 127.3C103.996 133.176 108.369 138.943 112.888 144.602C113.078 138.773 113.142 132.942 113.078 127.11C115.36 127.11 117.641 127.11 119.923 127.11C119.923 136.87 119.923 146.63 119.923 156.39C117.627 156.515 115.346 156.388 113.078 156.009C108.757 150.297 104.447 144.593 100.15 138.898C99.7699 144.723 99.6429 150.554 99.7696 156.39C97.488 156.39 95.2065 156.39 92.925 156.39C92.925 146.63 92.925 136.87 92.925 127.11Z" fill="#FEFFFE"/>
<path opacity="0.895" fill-rule="evenodd" clip-rule="evenodd" d="M180.383 123.308C184.626 122.671 186.337 124.445 185.516 128.631C184.406 130.732 182.695 131.429 180.383 130.723C179.559 130.406 178.988 129.835 178.671 129.012C178.054 126.688 178.624 124.786 180.383 123.308Z" fill="#FEFFFE"/>
<path opacity="0.927" fill-rule="evenodd" clip-rule="evenodd" d="M148.822 126.73C153.765 126.73 158.709 126.73 163.652 126.73C163.714 127.752 163.651 128.766 163.462 129.772C162.289 130.126 161.084 130.38 159.849 130.533C159.849 137.884 159.849 145.236 159.849 152.587C161.755 152.65 163.656 152.587 165.553 152.397C165.98 152.302 166.361 152.112 166.694 151.827C167.609 149.46 168.37 147.052 168.975 144.602C170.637 144.589 172.284 144.716 173.919 144.982C173.566 148.915 173.186 152.844 172.778 156.77C164.793 156.77 156.807 156.77 148.822 156.77C148.822 155.629 148.822 154.488 148.822 153.348C149.956 153.172 151.097 153.045 152.244 152.967C152.244 145.489 152.244 138.011 152.244 130.533C151.131 130.399 150.053 130.145 149.012 129.772C148.823 128.766 148.76 127.752 148.822 126.73Z" fill="#FEFFFE"/>
<path opacity="0.942" fill-rule="evenodd" clip-rule="evenodd" d="M182.664 133.575C183.763 133.49 184.777 133.744 185.706 134.335C186.023 140.542 186.213 146.753 186.277 152.967C187.053 153.318 187.877 153.445 188.748 153.348C188.748 154.488 188.748 155.629 188.748 156.77C184.566 156.77 180.383 156.77 176.2 156.77C176.2 155.629 176.2 154.488 176.2 153.348C176.995 153.417 177.756 153.29 178.482 152.967C178.861 148.285 178.988 143.595 178.862 138.898C177.985 138.711 177.098 138.584 176.2 138.518C176.078 137.226 176.205 135.958 176.58 134.715C178.656 134.332 180.684 133.952 182.664 133.575Z" fill="#FEFFFE"/>
<path opacity="0.925" fill-rule="evenodd" clip-rule="evenodd" d="M223.352 133.575C232.418 132.884 236.221 137.067 234.759 146.123C230.576 146.123 226.394 146.123 222.211 146.123C222.105 149.981 223.943 152.136 227.724 152.587C229.58 152.362 231.355 151.856 233.048 151.066C233.342 151.121 233.595 151.248 233.809 151.446C233.98 152.214 234.296 152.911 234.759 153.538C231.273 156.6 227.217 157.74 222.591 156.96C217.035 155.24 214.373 151.438 214.606 145.553C214.438 139.21 217.353 135.217 223.352 133.575ZM224.492 136.617C226.05 136.605 227.001 137.365 227.344 138.898C227.534 140.287 227.597 141.681 227.534 143.081C225.76 143.081 223.985 143.081 222.211 143.081C221.935 140.483 222.695 138.328 224.492 136.617Z" fill="#FEFFFE"/>
<path opacity="0.918" fill-rule="evenodd" clip-rule="evenodd" d="M189.129 133.955C193.312 133.955 197.494 133.955 201.677 133.955C201.677 134.969 201.677 135.983 201.677 136.997C200.8 137.184 199.913 137.311 199.015 137.377C200.432 142.071 201.89 146.761 203.388 151.446C204.601 146.849 205.932 142.286 207.381 137.757C206.634 137.456 205.873 137.203 205.099 136.997C204.727 136.013 204.6 134.999 204.719 133.955C207.888 133.955 211.057 133.955 214.226 133.955C214.345 134.999 214.218 136.013 213.845 136.997C212.851 137.132 212.154 137.639 211.754 138.518C209.573 144.616 207.355 150.7 205.099 156.77C202.945 157.277 200.79 157.277 198.635 156.77C195.415 148.964 192.247 141.359 189.129 133.955Z" fill="#FEFFFE"/>
</svg>
