<svg width="284" height="284" viewBox="0 0 284 284" fill="none" xmlns="http://www.w3.org/2000/svg">
<rect width="283.5" height="283.5" fill="#F4AA00"/>
<g clip-path="url(#clip0_28_2)">
<path d="M255.75 102.265V78.25H27.75V205.25H255.75V181.262H250.2L250.195 199.765H33.2901V83.7351H250.162V102.265H255.75Z" fill="white"/>
<path d="M83.9923 177.054L80.4094 167.114C78.9232 168.543 76.049 170.592 71.3011 170.592C69.1462 170.592 67.1811 169.959 65.7489 168.895C63.7902 167.44 62.6032 165.102 62.6032 162.049C62.6032 159.328 63.4699 156.996 65.2398 155.416C66.6869 154.125 68.7423 153.323 71.3011 153.323C75.0629 153.323 78.3189 155.427 79.8597 156.64L83.1733 146.117C80.9889 144.517 78.5196 143.636 76.2944 143.148C73.7871 142.597 71.5815 142.549 70.4411 142.549C65.0387 142.549 60.2843 144.11 56.7031 147.036C52.5973 150.39 50.0796 155.543 50.0796 162.215C50.0796 166.572 51.1638 170.309 53.0872 173.318C56.5913 178.799 62.9308 181.864 70.4742 181.864C72.8453 181.864 74.8535 181.587 76.5435 181.153C80.8363 180.052 83.0761 177.972 83.9923 177.054Z" fill="white"/>
<path d="M119.654 181.223L111.108 166.744C113.541 165.322 115.059 163.661 116.05 161.687C117.033 159.729 117.404 157.711 117.442 155.266C117.42 152.751 116.796 150.786 115.777 149.106C114.552 147.087 112.872 145.719 110.951 144.806C108.159 143.48 104.998 143.117 101.854 143.117H85.1782V181.223H97.6483V168.52H99.2396L105.303 181.223H119.654ZM104.856 155.818C104.856 156.966 104.477 157.678 103.75 158.248C103.002 158.834 102.299 159.132 100.406 159.132H97.5804V152.505H100.722C101.534 152.505 102.436 152.604 103.145 153.014C103.387 153.154 103.877 153.475 104.208 153.868C104.617 154.351 104.856 154.956 104.856 155.818Z" fill="white"/>
<path d="M132.745 181.223V143.117H120.288V181.223H132.745Z" fill="white"/>
<path d="M180.093 181.223L177.888 143.117H161.903L157.053 163.826L152.257 143.117H136.272L134.067 181.223H146.304L146.745 159.408L151.706 181.222H162.455L167.415 159.408L167.856 181.222L180.093 181.223Z" fill="white"/>
<path d="M208.976 181.223V171.282H193.817V166.864H207.598V157.088H193.817V152.946H208.425V143.116H181.414V181.223H208.976Z" fill="white"/>
<path d="M146.368 124.092V102.277H133.778V124.527C133.778 126.298 133.644 127.619 132.566 128.772C131.581 129.751 130.391 130.141 128.983 130.141C128.142 130.141 126.663 130.006 125.408 128.772C125.023 128.394 124.705 127.865 124.485 127.271C124.265 126.677 124.132 125.702 124.132 124.527V102.277H111.642V124.233C111.642 127.27 111.99 129.614 112.651 131.547C113.313 133.48 114.39 135.137 115.768 136.518C117.147 137.898 118.935 139.003 121.14 139.776C123.345 140.549 125.897 140.98 128.929 140.98C131.96 140.98 134.644 140.549 136.849 139.776C139.054 139.003 140.848 137.898 142.226 136.518C143.604 135.137 144.676 133.48 145.338 131.547C145.999 129.614 146.368 127.129 146.368 124.092Z" fill="white"/>
<path d="M175.458 140.383V130.443H160.3V126.025H174.08V116.25H160.3V112.108H174.907V102.277H147.898V140.383H175.458Z" fill="white"/>
<path d="M77.1328 111.997V102.277H46.7612V111.997H55.6908V140.383H68.1481V111.997H77.1328Z" fill="white"/>
<path d="M112.865 140.383L104.318 125.905C106.751 124.483 108.27 122.822 109.261 120.848C110.244 118.89 110.615 116.872 110.652 114.427C110.631 111.912 110.006 109.947 108.987 108.267C107.763 106.248 106.082 104.88 104.162 103.967C101.369 102.641 98.2089 102.277 95.0641 102.277H78.3887V140.383H90.8587V127.681H92.4499L98.5132 140.383H112.865ZM98.0668 114.979C98.0668 116.127 97.6871 116.839 96.96 117.409C96.2129 117.995 95.5098 118.293 93.6167 118.293H90.7908V111.666H93.9327C94.7448 111.666 95.6461 111.765 96.3557 112.175C96.5974 112.315 97.0869 112.636 97.4186 113.029C97.827 113.512 98.0668 114.117 98.0668 114.979Z" fill="white"/>
</g>
<defs>
<clipPath id="clip0_28_2">
<rect width="228" height="127" fill="white" transform="translate(27.75 78.25)"/>
</clipPath>
</defs>
</svg>
