<svg width="284" height="284" viewBox="0 0 284 284" fill="none" xmlns="http://www.w3.org/2000/svg">
<rect width="283.5" height="283.5" fill="#00B9EC"/>
<path d="M101.337 64L146.904 114.795M124.12 89.3976L61 146.169M71.8313 178.663L122.627 133.096M97.2289 155.88L153.627 219M140.554 157.747L170.807 192.108C176.41 198.084 182.759 198.084 182.759 192.108V108.072M213.012 158.867C213.012 160.254 213.563 161.584 214.544 162.565C215.524 163.545 216.854 164.096 218.241 164.096C219.628 164.096 220.958 163.545 221.938 162.565C222.919 161.584 223.47 160.254 223.47 158.867C223.47 157.481 222.919 156.151 221.938 155.17C220.958 154.189 219.628 153.639 218.241 153.639C216.854 153.639 215.524 154.189 214.544 155.17C213.563 156.151 213.012 157.481 213.012 158.867Z" stroke="white" stroke-width="22.4096" stroke-linecap="round" stroke-linejoin="round"/>
</svg>
