<svg width="284" height="284" viewBox="0 0 284 284" fill="none" xmlns="http://www.w3.org/2000/svg">
<rect width="283.5" height="283.5" fill="#F09D1B"/>
<path d="M215.628 156.508C215.628 156.048 215.617 155.599 215.605 155.139C215.536 154.932 215.605 154.725 215.559 154.518C215.559 154.368 215.548 154.219 215.536 154.069C215.467 153.931 215.536 153.793 215.49 153.655C215.352 152.631 215.237 151.607 215.019 150.583C214.455 147.868 213.029 145.683 210.877 143.968C209.255 142.668 207.391 141.84 205.413 141.265C204.4 140.977 203.365 140.805 202.33 140.621C202.215 140.563 202.088 140.632 201.984 140.575H201.731C201.616 140.517 201.49 140.563 201.363 140.506C201.225 140.506 201.076 140.494 200.938 140.483C200.777 140.437 200.604 140.494 200.443 140.437C199.477 140.437 198.51 140.437 197.544 140.437C197.337 140.506 197.118 140.437 196.911 140.483C196.739 140.483 196.578 140.494 196.405 140.506C196.267 140.563 196.117 140.506 195.991 140.552C195.864 140.552 195.749 140.563 195.623 140.575C195.508 140.632 195.381 140.575 195.266 140.621C193.886 140.793 192.517 140.977 191.159 141.299C188.904 141.829 186.73 142.542 184.763 143.796C183.371 144.682 182.243 145.809 181.484 147.27C181.127 147.949 180.886 148.685 180.644 149.421C180.127 150.928 179.804 152.459 179.609 154.035C179.54 154.092 179.586 154.173 179.574 154.242C179.574 154.161 179.54 154.092 179.494 154.035C179.471 153.943 179.436 153.851 179.413 153.759C179.103 152.205 178.585 150.71 177.906 149.283C176.928 147.236 175.605 145.452 173.868 143.98C172.672 142.968 171.337 142.197 169.876 141.622C168.703 141.173 167.495 140.931 166.252 140.747C166.137 140.701 166.011 140.759 165.907 140.701C165.804 140.701 165.7 140.701 165.597 140.69C165.39 140.632 165.171 140.713 164.964 140.644C164.435 140.644 163.906 140.644 163.376 140.644C163.192 140.713 162.997 140.644 162.813 140.69C162.709 140.69 162.606 140.701 162.502 140.713C162.387 140.747 162.261 140.77 162.145 140.713C162.145 140.598 162.157 140.494 162.169 140.379C162.215 140.264 162.157 140.138 162.215 140.034C162.215 139.953 162.215 139.873 162.226 139.792C162.272 139.677 162.226 139.551 162.272 139.424C162.272 139.321 162.284 139.229 162.295 139.125C162.341 139.01 162.295 138.884 162.341 138.769C162.341 138.665 162.353 138.561 162.364 138.469C162.41 138.354 162.364 138.228 162.41 138.124L162.433 137.814C162.479 137.699 162.422 137.572 162.479 137.469C162.479 137.388 162.479 137.308 162.491 137.215C162.537 137.1 162.491 136.974 162.537 136.859C162.537 136.755 162.548 136.663 162.56 136.56C162.606 136.445 162.56 136.318 162.606 136.203C162.606 136.1 162.617 135.996 162.629 135.893C162.675 135.777 162.617 135.651 162.675 135.547C162.675 135.467 162.675 135.386 162.686 135.294C162.732 135.179 162.686 135.053 162.732 134.938C162.732 134.834 162.744 134.742 162.755 134.639C162.801 134.524 162.755 134.397 162.801 134.282C162.801 134.178 162.813 134.075 162.824 133.971C162.87 133.856 162.824 133.73 162.87 133.626C162.87 133.546 162.87 133.465 162.882 133.385C162.928 133.27 162.882 133.143 162.928 133.016C162.928 132.913 162.939 132.821 162.951 132.717C162.997 132.602 162.951 132.476 162.997 132.361C162.997 132.257 163.008 132.154 163.02 132.062C163.066 131.947 163.02 131.82 163.066 131.717C163.066 131.613 163.077 131.509 163.089 131.406C163.135 131.291 163.077 131.164 163.135 131.061C163.135 130.98 163.135 130.9 163.146 130.808C163.192 130.693 163.146 130.566 163.192 130.451C163.192 130.348 163.204 130.255 163.215 130.152C163.261 130.037 163.215 129.91 163.261 129.795C163.261 129.692 163.273 129.588 163.284 129.485C163.33 129.37 163.273 129.243 163.33 129.14C163.33 129.059 163.33 128.979 163.342 128.886C163.388 128.771 163.342 128.645 163.388 128.53C163.388 128.426 163.399 128.334 163.411 128.231C163.457 128.116 163.411 127.989 163.457 127.874C163.457 127.771 163.468 127.667 163.48 127.563C163.526 127.448 163.48 127.322 163.526 127.218C163.526 127.138 163.526 127.057 163.538 126.977C163.584 126.862 163.538 126.735 163.584 126.609C163.584 126.505 163.595 126.413 163.607 126.31C163.653 126.194 163.607 126.068 163.653 125.953C163.653 125.849 163.664 125.746 163.676 125.654C163.722 125.539 163.676 125.412 163.722 125.309C163.722 125.205 163.733 125.102 163.745 124.998C163.779 124.664 163.779 124.342 163.745 124.009C163.653 123.606 163.561 123.203 163.376 122.835C162.744 121.547 161.685 120.857 160.293 120.626C160.155 120.58 160.006 120.626 159.868 120.58C159.707 120.58 159.534 120.569 159.373 120.557C159.212 120.5 159.039 120.569 158.878 120.511C158.729 120.511 158.591 120.511 158.441 120.5C158.257 120.442 158.073 120.523 157.889 120.454C157.739 120.454 157.601 120.442 157.452 120.431C157.291 120.373 157.118 120.442 156.957 120.385C156.796 120.385 156.623 120.373 156.462 120.362C156.301 120.304 156.129 120.373 155.968 120.316C155.818 120.316 155.68 120.304 155.531 120.293C155.347 120.235 155.151 120.316 154.967 120.247L154.472 120.224C154.288 120.166 154.104 120.247 153.92 120.178C153.77 120.178 153.621 120.178 153.483 120.166C153.299 120.109 153.103 120.189 152.919 120.12C152.735 120.12 152.54 120.109 152.355 120.097C152.171 120.04 151.976 120.12 151.792 120.051C151.608 120.051 151.412 120.04 151.228 120.028C150.837 119.994 150.434 119.994 150.043 120.028C148.168 120.293 146.891 121.65 146.661 123.41C146.603 123.549 146.661 123.698 146.615 123.836L146.592 124.262C146.534 124.423 146.603 124.595 146.546 124.745C146.546 124.872 146.546 124.998 146.534 125.113C146.477 125.274 146.546 125.447 146.488 125.608C146.488 125.746 146.477 125.895 146.465 126.033C146.408 126.194 146.477 126.356 146.419 126.517C146.419 126.643 146.419 126.77 146.408 126.896C146.35 127.057 146.419 127.23 146.362 127.391C146.362 127.529 146.362 127.679 146.35 127.817C146.293 127.978 146.362 128.15 146.304 128.311C146.304 128.449 146.304 128.599 146.293 128.737C146.235 128.921 146.316 129.105 146.247 129.289C146.247 129.439 146.235 129.588 146.224 129.738C146.166 129.899 146.247 130.06 146.178 130.221C146.178 130.371 146.166 130.52 146.155 130.658C146.097 130.819 146.166 130.992 146.109 131.141C146.109 131.291 146.097 131.429 146.086 131.578C146.028 131.74 146.097 131.912 146.04 132.062C146.04 132.211 146.028 132.349 146.017 132.499C145.959 132.66 146.028 132.832 145.971 132.993L145.948 133.431C145.89 133.592 145.959 133.764 145.902 133.925C145.902 134.086 145.89 134.259 145.879 134.42C145.821 134.581 145.89 134.754 145.833 134.903C145.833 135.053 145.821 135.191 145.81 135.34C145.752 135.501 145.821 135.674 145.764 135.835C145.764 135.973 145.764 136.123 145.752 136.261C145.695 136.445 145.775 136.629 145.706 136.813C145.706 136.962 145.695 137.1 145.683 137.25C145.625 137.411 145.695 137.584 145.637 137.745C145.637 137.894 145.637 138.032 145.625 138.182C145.568 138.366 145.648 138.55 145.579 138.734C145.579 138.884 145.568 139.033 145.556 139.171C145.499 139.332 145.568 139.505 145.51 139.666C145.51 139.815 145.499 139.953 145.487 140.103C145.43 140.264 145.499 140.437 145.441 140.598C145.441 140.759 145.43 140.931 145.418 141.092C145.361 141.253 145.43 141.426 145.372 141.576C145.372 141.725 145.361 141.863 145.349 142.013C145.292 142.174 145.361 142.346 145.303 142.507C145.303 142.645 145.303 142.795 145.292 142.933C145.234 143.117 145.315 143.301 145.246 143.485V144.003C145.165 143.853 145.131 143.807 145.108 143.75C144.947 143.094 144.786 142.45 144.636 141.794C144.118 139.528 142.013 138.285 140.034 138.746C137.964 139.217 136.008 140.023 134.271 141.311C134.121 141.426 133.96 141.484 133.776 141.322C133.615 141.196 133.42 141.115 133.235 141.023C132.568 140.713 131.843 140.667 131.119 140.69C130.935 140.759 130.739 140.69 130.555 140.736C130.394 140.736 130.221 140.736 130.06 140.747C129.899 140.805 129.727 140.747 129.566 140.793C129.393 140.793 129.232 140.805 129.059 140.816C128.875 140.885 128.691 140.816 128.507 140.862C128.335 140.862 128.174 140.874 128.001 140.885C127.817 140.954 127.621 140.885 127.449 140.931C127.288 140.931 127.115 140.931 126.954 140.943C126.793 141 126.621 140.943 126.46 140.989C126.287 140.989 126.126 141 125.953 141.012C125.769 141.081 125.585 141.012 125.401 141.058C125.24 141.058 125.068 141.069 124.906 141.081C124.745 141.138 124.573 141.081 124.412 141.127C124.239 141.127 124.078 141.138 123.906 141.15C123.722 141.219 123.526 141.15 123.353 141.196C123.204 141.196 123.054 141.196 122.916 141.207C122.732 141.276 122.548 141.207 122.364 141.253C122.214 141.253 122.076 141.265 121.927 141.276C121.743 141.345 121.559 141.276 121.375 141.322C121.225 141.322 121.087 141.322 120.938 141.334C120.776 141.392 120.604 141.334 120.443 141.38C119.776 141.438 119.12 141.53 118.51 141.84C117.337 142.461 116.692 143.462 116.451 144.808C116.405 144.659 116.37 144.567 116.347 144.475C116.129 143.646 115.703 142.968 115.047 142.415C114.403 141.875 113.655 141.633 112.85 141.507C112.735 141.461 112.608 141.507 112.493 141.461C112.39 141.461 112.298 141.449 112.194 141.438C112.079 141.392 111.953 141.438 111.838 141.392C111.734 141.392 111.631 141.38 111.527 141.369C111.412 141.322 111.286 141.369 111.182 141.322C111.078 141.322 110.975 141.311 110.871 141.299C110.756 141.253 110.63 141.299 110.526 141.253C110.423 141.253 110.319 141.242 110.216 141.23C110.101 141.184 109.974 141.23 109.859 141.184C109.755 141.184 109.652 141.173 109.548 141.161C109.433 141.115 109.307 141.161 109.192 141.115C109.065 141.115 108.95 141.104 108.824 141.092C108.709 141.046 108.582 141.092 108.467 141.046C108.363 141.046 108.26 141.035 108.168 141.023C108.03 140.966 107.88 141.035 107.754 140.977C107.65 140.977 107.547 140.966 107.443 140.954C107.305 140.897 107.156 140.966 107.017 140.908C106.891 140.908 106.776 140.897 106.649 140.885C106.511 140.839 106.362 140.897 106.224 140.839C106.097 140.839 105.982 140.828 105.856 140.816C105.694 140.759 105.522 140.828 105.361 140.77C105.2 140.77 105.027 140.759 104.866 140.747C104.682 140.69 104.487 140.77 104.302 140.701C103.785 140.724 103.267 140.667 102.761 140.759C101.99 140.897 101.346 141.207 100.84 141.84C100.334 142.484 100.172 143.209 100.161 143.991C100.103 144.153 100.172 144.325 100.115 144.486C100.115 144.624 100.103 144.774 100.092 144.912C100.046 145.05 100.092 145.199 100.046 145.337L100.023 145.763C99.9769 145.901 100.023 146.051 99.9769 146.189C99.9769 146.338 99.9654 146.476 99.9539 146.626C99.9079 146.764 99.9539 146.914 99.9079 147.052C99.9079 147.178 99.9079 147.293 99.8964 147.42C99.8388 147.558 99.8964 147.707 99.8504 147.845C99.8504 147.96 99.8504 148.087 99.8389 148.202C99.7813 148.363 99.8619 148.524 99.7928 148.685C99.7928 148.789 99.7928 148.892 99.7813 148.996C99.7238 149.134 99.7813 149.283 99.7353 149.421C99.7353 149.548 99.7238 149.663 99.7123 149.79C99.6548 149.928 99.7238 150.077 99.6663 150.215C99.6663 150.342 99.6548 150.468 99.6433 150.583C99.5973 150.698 99.6433 150.836 99.5973 150.951L99.5743 151.308C99.5167 151.446 99.5858 151.584 99.5282 151.722C99.5282 151.826 99.5282 151.929 99.5167 152.033C99.4592 152.171 99.5282 152.309 99.4707 152.447C99.4707 152.551 99.4707 152.654 99.4592 152.758C99.4017 152.896 99.4707 153.034 99.4132 153.172C99.4132 153.275 99.4017 153.379 99.3902 153.482C99.3442 153.597 99.3902 153.724 99.3442 153.839C99.3442 153.943 99.3327 154.035 99.3212 154.138C99.2636 154.276 99.3327 154.426 99.2751 154.552C99.3097 155.035 99.0451 155.438 98.8495 155.841C98.5044 156.589 98.1247 157.313 97.7221 158.038C97.3309 158.728 96.9053 159.396 96.3416 160.051C96.3416 159.821 96.3646 159.66 96.3646 159.488C96.4221 159.281 96.3416 159.073 96.4106 158.878C96.4106 158.751 96.4221 158.625 96.4336 158.498C96.4796 158.383 96.4336 158.257 96.4796 158.142C96.4681 157.866 96.4796 157.578 96.5602 157.313C96.6177 157.198 96.5602 157.072 96.6062 156.968C96.6062 156.462 96.7327 155.979 96.8018 155.484C97.0203 154.046 97.3079 152.631 97.6416 151.216C97.9752 149.79 98.3203 148.375 98.6654 146.948C98.6999 146.66 98.6999 146.373 98.6654 146.097C98.6424 145.959 98.6194 145.821 98.5849 145.683C98.2513 144.383 97.5035 143.428 96.238 142.922C95.5593 142.657 94.8575 142.496 94.1558 142.312C92.039 141.725 89.9453 141.081 87.817 140.552C87.5294 140.517 87.2418 140.517 86.9657 140.552C85.5507 140.747 84.4693 141.415 83.848 142.738C83.3994 143.692 83.0427 144.693 82.6861 145.694C82.0764 147.42 81.5472 149.168 81.087 150.951C80.7419 152.286 80.4198 153.632 80.1782 154.989C80.0287 155.829 79.8791 156.681 79.8216 157.543C79.7756 157.658 79.8216 157.785 79.7756 157.9C79.7756 158.004 79.7641 158.096 79.7526 158.199C79.695 158.337 79.7641 158.475 79.7065 158.613C79.7295 158.763 79.7065 158.912 79.649 159.05C79.6375 159.188 79.6375 159.315 79.649 159.453C79.649 159.396 79.6375 159.35 79.649 159.292C79.649 159.2 79.649 159.119 79.5915 159.05C79.5915 158.97 79.5915 158.889 79.58 158.809C79.5225 158.694 79.58 158.567 79.534 158.464C79.4534 158.015 79.3844 157.555 79.3844 157.095C79.3269 156.98 79.3844 156.853 79.3384 156.75C79.2579 156.301 79.1888 155.841 79.1888 155.381C79.1313 155.266 79.1888 155.139 79.1428 155.035C79.0623 154.587 78.9933 154.127 78.9933 153.666C78.9358 153.551 78.9933 153.425 78.9473 153.321C78.8667 152.873 78.7977 152.413 78.7977 151.952C78.7402 151.837 78.7977 151.711 78.7517 151.607C78.6712 151.159 78.6021 150.698 78.6021 150.238C78.5446 150.123 78.6021 149.997 78.5561 149.893C78.4756 149.444 78.4066 148.984 78.4066 148.524C78.349 148.409 78.4066 148.283 78.3605 148.179C78.28 147.73 78.211 147.27 78.211 146.81C78.1535 146.695 78.211 146.568 78.165 146.465C78.0844 146.016 78.0154 145.556 78.0154 145.096C77.9579 144.981 78.0154 144.854 77.9694 144.751C77.8889 144.302 77.8198 143.842 77.8198 143.382C77.7623 143.267 77.8198 143.14 77.7738 143.037C77.6933 142.588 77.6243 142.128 77.6243 141.668C77.5668 141.553 77.6243 141.426 77.5783 141.322C77.4977 140.874 77.4287 140.414 77.4287 139.953C77.3712 139.838 77.4287 139.712 77.3827 139.608C77.3022 139.16 77.2331 138.7 77.2331 138.239C77.1756 138.124 77.2331 137.998 77.1871 137.894C77.1066 137.446 77.0376 136.985 77.0376 136.525C76.98 136.41 77.0376 136.284 76.9915 136.18C76.911 135.731 76.842 135.271 76.842 134.811C76.7845 134.696 76.842 134.57 76.796 134.466C76.796 134.385 76.7845 134.305 76.773 134.224C76.75 134.075 76.6694 133.914 76.911 133.879C77.0146 133.879 77.1181 133.868 77.2101 133.856C77.3252 133.799 77.4517 133.856 77.5668 133.81C77.6933 133.81 77.8083 133.799 77.9349 133.787C78.0499 133.73 78.1765 133.787 78.2915 133.741C78.3951 133.741 78.4986 133.73 78.6021 133.718C78.7402 133.649 78.8782 133.718 79.0163 133.672C79.1198 133.672 79.2234 133.661 79.3269 133.649C79.4419 133.592 79.5685 133.649 79.6835 133.603C79.8101 133.603 79.9251 133.592 80.0517 133.58C80.1667 133.523 80.2932 133.58 80.4083 133.534C80.5118 133.534 80.6154 133.523 80.7189 133.511C80.8454 133.442 80.995 133.511 81.1331 133.465C81.2366 133.465 81.3401 133.454 81.4437 133.442C81.5817 133.385 81.7313 133.442 81.8693 133.396C81.9729 133.396 82.0764 133.396 82.1684 133.385C82.3065 133.327 82.456 133.385 82.5941 133.339C82.9507 133.293 83.3303 133.281 83.664 133.143C84.9179 132.637 85.5852 131.682 85.7117 130.348C85.7462 130.037 85.7462 129.738 85.7117 129.427C85.7117 129.197 85.7117 128.967 85.7002 128.737C85.6312 128.553 85.7002 128.357 85.6542 128.173C85.6542 128.024 85.6427 127.886 85.6312 127.736C85.5622 127.575 85.6312 127.402 85.5852 127.253C85.5852 127.115 85.5737 126.965 85.5622 126.827C85.5046 126.689 85.5622 126.54 85.5161 126.402C85.5161 126.275 85.5046 126.16 85.4931 126.033C85.4356 125.895 85.4931 125.746 85.4471 125.608C85.4471 125.481 85.4356 125.355 85.4241 125.228C85.3666 125.09 85.4241 124.941 85.3781 124.814C85.3781 124.687 85.3666 124.572 85.3551 124.446C85.2976 124.308 85.3551 124.158 85.3091 124.02C85.171 122.996 84.7569 122.122 83.9861 121.42C83.3764 120.868 82.6516 120.592 81.8578 120.442C81.5012 120.408 81.1561 120.408 80.7994 120.442C80.5809 120.442 80.3738 120.454 80.1552 120.465C79.9366 120.534 79.695 120.465 79.4764 120.511C79.2464 120.511 79.0163 120.523 78.7862 120.534C78.5561 120.603 78.3145 120.534 78.0959 120.58C77.8889 120.58 77.6703 120.58 77.4632 120.592C77.2331 120.661 77.0031 120.592 76.773 120.638C76.5659 120.638 76.3473 120.649 76.1402 120.661C75.9102 120.73 75.6801 120.661 75.45 120.707C75.2429 120.707 75.0358 120.707 74.8173 120.719C74.5872 120.788 74.3571 120.718 74.127 120.765C73.9199 120.765 73.7129 120.765 73.5058 120.776C73.2987 120.845 73.0801 120.776 72.8731 120.822C72.6545 120.822 72.4474 120.834 72.2288 120.845C72.0102 120.914 71.7686 120.845 71.5501 120.891C71.343 120.891 71.1244 120.903 70.9173 120.914C70.6988 120.983 70.4572 120.914 70.2386 120.96C70.0315 120.96 69.8129 120.972 69.6059 120.983C69.3988 121.052 69.1802 120.983 68.9846 121.029C68.7776 121.029 68.559 121.041 68.3519 121.052C68.1218 121.121 67.8917 121.041 67.6617 121.098C67.4661 121.098 67.282 121.11 67.0864 121.121C66.8679 121.19 66.6263 121.11 66.4077 121.167C66.2006 121.167 65.9935 121.179 65.775 121.19C65.5679 121.259 65.3493 121.19 65.1422 121.236C64.9352 121.236 64.7166 121.248 64.5095 121.259C64.2794 121.328 64.0493 121.248 63.8193 121.305C63.6237 121.305 63.4396 121.305 63.2441 121.317C63.0255 121.386 62.7839 121.305 62.5653 121.363C62.3697 121.363 62.1857 121.374 61.9901 121.386C61.783 121.455 61.5759 121.386 61.3689 121.432C61.1618 121.432 60.9432 121.443 60.7361 121.455C60.5291 121.524 60.322 121.455 60.1149 121.501C59.9078 121.501 59.7008 121.501 59.4937 121.512C59.2866 121.581 59.068 121.512 58.861 121.558C58.6769 121.558 58.4813 121.558 58.2973 121.57C58.0902 121.639 57.8716 121.57 57.676 121.616C57.492 121.616 57.2964 121.627 57.1123 121.639C56.9052 121.708 56.6867 121.639 56.4911 121.685C56.307 121.685 56.1115 121.696 55.9274 121.708C55.7433 121.777 55.5478 121.708 55.3637 121.754C55.1796 121.754 54.984 121.765 54.8 121.777C54.6159 121.846 54.4203 121.777 54.2478 121.823C54.0637 121.823 53.8681 121.834 53.6841 121.846C53.5 121.915 53.3044 121.846 53.1319 121.892C52.9478 121.892 52.7522 121.903 52.5682 121.915C52.3841 121.984 52.1885 121.915 52.0045 121.961C51.8319 121.961 51.6708 121.972 51.4983 121.984C51.3142 122.053 51.1186 121.984 50.9461 122.03C50.7965 122.03 50.647 122.041 50.5089 122.053C50.3479 122.122 50.1868 122.053 50.0257 122.099L49.5886 122.122C49.4505 122.18 49.301 122.122 49.1629 122.168C49.0249 122.203 48.8868 122.226 48.7488 122.26C47.0347 122.64 45.8497 124.181 45.8267 125.803C45.7922 127.978 45.8152 130.163 45.8037 132.338C45.8037 133.062 46.0453 133.718 46.4364 134.305C46.9656 135.11 47.7134 135.628 48.6337 135.916C49.1284 136.065 49.6346 136.019 50.1408 136.042C50.2788 135.985 50.4284 136.042 50.5664 135.996C50.716 135.996 50.854 135.985 51.0036 135.973C51.1647 135.904 51.3372 135.973 51.4983 135.927C51.6248 135.927 51.7514 135.927 51.8779 135.916C52.039 135.847 52.2 135.916 52.3611 135.87C52.4991 135.87 52.6487 135.858 52.7867 135.846C52.9248 135.789 53.0744 135.846 53.2124 135.8C53.362 135.8 53.5 135.789 53.6496 135.777C53.8106 135.708 53.9832 135.777 54.1442 135.731C54.2708 135.731 54.3973 135.731 54.5124 135.72C54.6734 135.651 54.846 135.72 54.9956 135.674C55.1221 135.674 55.2486 135.674 55.3752 135.662C55.5362 135.593 55.6973 135.662 55.8584 135.616C55.9964 135.616 56.146 135.605 56.284 135.593C56.4221 135.536 56.5716 135.593 56.7097 135.547C56.8592 135.547 56.9973 135.536 57.1468 135.524C57.4843 135.478 57.6645 135.59 57.6875 135.858C57.6875 136.111 57.699 136.376 57.7105 136.629C57.7796 136.893 57.699 137.181 57.7566 137.446C57.7566 137.699 57.7681 137.963 57.7796 138.216C57.8486 138.481 57.7681 138.769 57.8256 139.033C57.8256 139.286 57.8371 139.551 57.8486 139.804C57.9176 140.069 57.8371 140.345 57.8946 140.621C57.8946 140.874 57.9061 141.138 57.9176 141.392C57.9866 141.656 57.9061 141.932 57.9636 142.208C57.9636 142.461 57.9751 142.726 57.9866 142.979C58.0557 143.244 57.9751 143.52 58.0327 143.796C58.0327 144.049 58.0442 144.314 58.0557 144.567C58.1247 144.831 58.0442 145.107 58.1017 145.383C58.1017 145.637 58.1132 145.901 58.1247 146.154C58.1937 146.419 58.1132 146.695 58.1707 146.971C58.1707 147.224 58.1822 147.489 58.1937 147.742C58.2627 148.006 58.1822 148.283 58.2397 148.559C58.2397 148.812 58.2512 149.076 58.2627 149.329C58.3318 149.594 58.2512 149.87 58.3088 150.146C58.3088 150.399 58.3203 150.664 58.3318 150.917C58.4008 151.182 58.3203 151.458 58.3778 151.734C58.3778 151.987 58.3893 152.251 58.4008 152.505C58.4698 152.769 58.3893 153.045 58.4468 153.321C58.4468 153.574 58.4583 153.839 58.4698 154.092C58.5388 154.357 58.4583 154.633 58.5158 154.909C58.5158 155.162 58.5273 155.427 58.5388 155.68C58.6079 155.944 58.5273 156.22 58.5849 156.497C58.5849 156.75 58.5964 157.014 58.6079 157.267C58.6769 157.532 58.5964 157.808 58.6539 158.084C58.6539 158.337 58.6654 158.602 58.6769 158.855C58.7459 159.119 58.6654 159.396 58.7229 159.672C58.7229 159.925 58.7344 160.189 58.7459 160.442C58.8149 160.707 58.7344 160.983 58.7919 161.259C58.7919 161.512 58.8034 161.777 58.8149 162.03C58.884 162.295 58.8034 162.571 58.861 162.847C58.907 163.928 58.9645 164.998 59.0105 166.079C59.1025 168.38 59.1831 170.681 59.2981 172.97C59.4017 174.984 60.7131 176.433 62.6573 176.755C63.4281 176.882 64.1874 176.686 64.9467 176.571C69.1572 175.904 73.3677 175.214 77.5783 174.547C79.7526 174.201 81.1791 172.384 80.949 170.209C80.88 169.519 80.7994 168.829 80.7304 168.139C80.6959 168.07 80.7074 168.001 80.7304 167.92C80.7304 167.909 80.6844 167.851 80.7419 167.874C80.7534 167.874 80.7764 167.92 80.7994 167.943C81.4322 169.611 82.3525 171.095 83.6755 172.303C85.8153 174.259 88.3922 175.099 91.2337 175.248C93.8337 175.386 96.3301 174.903 98.7345 173.914C98.907 173.845 99.0105 173.856 99.1601 173.994C99.7238 174.547 100.403 174.915 101.185 175.018C102.289 175.145 103.394 175.237 104.498 175.329C106.718 175.524 108.927 175.685 111.147 175.916C113.782 176.18 115.715 174.512 115.772 171.855C115.795 170.877 115.83 169.899 115.864 168.921C116.014 164.434 116.152 159.948 116.301 155.461C116.393 152.666 116.485 149.87 116.577 147.075C116.658 146.948 116.623 146.81 116.635 146.672C116.635 146.603 116.635 146.545 116.635 146.476C116.635 146.476 116.635 146.499 116.635 146.511C116.635 146.637 116.635 146.752 116.635 146.879C116.635 146.971 116.646 147.063 116.692 147.144C116.727 147.73 116.75 148.306 116.785 148.892C117.061 153.344 117.337 157.785 117.613 162.237C117.831 165.631 118.05 169.025 118.28 172.418C118.418 174.489 120.293 176.088 122.364 175.985C125.884 175.801 129.405 175.639 132.925 175.49C135.145 175.398 136.825 173.684 136.779 171.463C136.756 170.129 136.675 168.806 136.629 167.471C136.503 164.4 136.388 161.34 136.261 158.268C136.261 158.096 136.296 157.946 136.365 157.796C137.354 155.852 138.631 154.127 140.207 152.643C141.024 151.872 141.875 151.124 142.934 150.698C143.681 150.399 144.406 150.066 145.004 149.364C144.97 149.974 144.935 150.503 144.901 151.021C144.671 154.38 144.429 157.739 144.199 161.098C143.98 164.296 143.773 167.483 143.543 170.681C143.394 172.832 144.671 174.593 146.73 174.995C147.374 175.122 148.041 175.156 148.697 175.225C150.607 175.432 152.528 175.639 154.438 175.858C156.106 176.054 157.44 175.513 158.395 174.109C158.499 173.96 158.568 173.937 158.729 174.017C161.421 175.363 164.285 175.778 167.253 175.559C170.624 175.306 173.431 173.856 175.674 171.348C177.768 169.013 178.965 166.229 179.609 163.192C179.643 163.008 179.632 162.789 179.781 162.594C179.954 163.641 180.161 164.641 180.46 165.619C180.92 167.08 181.427 168.53 182.393 169.738C183.854 171.567 185.81 172.694 187.903 173.615C188.686 173.96 189.514 174.201 190.319 174.466C191.274 174.777 192.252 175.007 193.241 175.202C194.058 175.363 194.886 175.501 195.726 175.559C195.841 175.605 195.968 175.547 196.071 175.605C196.152 175.605 196.232 175.605 196.324 175.616C196.462 175.674 196.612 175.616 196.75 175.662C196.9 175.662 197.038 175.674 197.187 175.685C197.371 175.743 197.567 175.662 197.751 175.732C198.154 175.732 198.568 175.731 198.97 175.743C199.12 175.778 199.281 175.778 199.431 175.743C200.017 175.743 200.604 175.731 201.191 175.72C201.432 175.651 201.697 175.731 201.938 175.674L202.376 175.651C202.537 175.582 202.698 175.651 202.859 175.605H203.169C203.284 175.536 203.411 175.593 203.526 175.536C205.206 175.306 206.862 174.972 208.415 174.213C209.922 173.477 211.222 172.476 212.177 171.095C213.684 168.91 214.49 166.425 215.03 163.859C215.214 162.962 215.352 162.042 215.502 161.133C215.559 161.018 215.502 160.891 215.548 160.776C215.548 160.696 215.548 160.615 215.559 160.534C215.605 160.419 215.559 160.293 215.605 160.178C215.605 160.051 215.617 159.936 215.628 159.81C215.686 159.672 215.617 159.522 215.674 159.384C215.674 159.211 215.686 159.05 215.697 158.878C215.755 158.671 215.674 158.452 215.743 158.245C215.743 157.796 215.743 157.348 215.755 156.888C215.79 156.761 215.79 156.623 215.755 156.497L215.628 156.508ZM79.6605 159.787C79.6605 159.706 79.6605 159.626 79.649 159.557C79.672 159.626 79.672 159.706 79.6835 159.775C79.6835 159.775 79.6835 159.775 79.672 159.775L79.6605 159.787ZM116.508 146.327C116.508 146.246 116.508 146.166 116.485 146.097C116.508 146.177 116.508 146.258 116.508 146.338V146.327ZM164.814 162.007C164.745 162.26 164.642 162.283 164.423 162.191C163.998 161.996 163.653 161.719 163.365 161.363C161.973 159.626 161.352 157.658 161.628 155.438C161.777 154.299 162.203 153.954 163.342 154.081C164.504 154.207 164.366 154.058 164.734 155.174C165.114 156.324 165.183 157.52 165.206 158.717C165.183 159.833 165.102 160.937 164.814 162.019V162.007ZM200.178 160.972C200.006 161.42 199.695 161.627 199.235 161.65C198.418 161.708 197.613 161.616 196.808 161.466C196.612 161.432 196.589 161.305 196.543 161.179C196.416 160.707 196.37 160.224 196.382 159.741C196.416 158.349 196.693 156.991 197.268 155.714C197.613 154.943 198.257 154.667 199.085 154.897C199.569 155.035 199.914 155.346 200.19 155.737C200.581 156.289 200.788 156.911 200.823 157.589C200.869 158.763 200.592 159.879 200.19 160.96L200.178 160.972Z" fill="#231F20"/>
<path d="M198.107 128.081C198.107 127.978 198.096 127.886 198.084 127.782C198.027 127.621 198.096 127.46 198.038 127.299C198.038 127.149 198.027 127 198.015 126.862C197.958 126.701 198.027 126.528 197.969 126.367C197.969 126.206 197.958 126.033 197.946 125.872C197.889 125.665 197.969 125.458 197.9 125.251C197.9 124.584 197.9 123.928 197.9 123.261C197.969 123.031 197.9 122.801 197.946 122.571C197.946 122.421 197.958 122.283 197.969 122.134C198.027 121.995 197.969 121.846 198.015 121.719C198.061 120.857 198.188 120.005 198.372 119.165C198.602 118.119 198.89 117.083 199.304 116.094C199.776 114.989 200.328 113.931 201.099 112.999C201.789 112.159 202.594 111.446 203.537 110.894C205.47 109.755 207.587 109.145 209.727 108.593C212.223 107.949 214.777 107.546 217.319 107.19C217.423 107.132 217.561 107.201 217.665 107.144C217.929 107.167 218.182 107.109 218.447 107.063C218.562 107.017 218.688 107.063 218.803 107.017C218.907 107.017 219.011 107.006 219.103 106.994C219.218 106.948 219.344 106.994 219.459 106.948C219.563 106.948 219.655 106.936 219.758 106.925C219.896 106.867 220.046 106.925 220.184 106.879C220.311 106.879 220.426 106.879 220.552 106.867C220.713 106.81 220.886 106.879 221.047 106.821C221.208 106.821 221.38 106.81 221.541 106.798C221.749 106.741 221.967 106.821 222.163 106.752C222.485 106.752 222.807 106.741 223.118 106.729C223.911 106.695 224.705 106.695 225.499 106.729C225.729 106.729 225.959 106.741 226.201 106.752C226.362 106.821 226.534 106.752 226.695 106.798C227.915 106.948 229.111 107.155 230.273 107.604C231.907 108.236 233.253 109.26 234.415 110.56C236.083 112.412 236.785 114.656 237.21 117.037C237.337 117.762 237.417 118.498 237.544 119.223C237.59 119.338 237.544 119.465 237.59 119.58C237.59 119.706 237.601 119.821 237.613 119.948C237.67 120.109 237.601 120.281 237.659 120.442C237.659 120.672 237.659 120.903 237.67 121.133C237.705 121.949 237.705 122.755 237.67 123.572C237.67 123.802 237.659 124.032 237.647 124.262C237.59 124.423 237.647 124.595 237.601 124.756C237.601 124.883 237.59 124.998 237.578 125.125C237.521 125.24 237.578 125.366 237.532 125.481C237.291 127.368 236.946 129.232 236.267 131.015C235.623 132.729 234.737 134.282 233.437 135.582C232.401 136.617 231.147 137.308 229.813 137.86C228.099 138.573 226.304 138.999 224.475 139.321C223.497 139.493 222.508 139.608 221.518 139.746C221.403 139.792 221.277 139.746 221.162 139.792C221.058 139.792 220.955 139.804 220.851 139.815C220.736 139.861 220.61 139.815 220.495 139.861C220.368 139.861 220.242 139.873 220.115 139.884C219.977 139.93 219.827 139.873 219.701 139.93C219.574 139.93 219.448 139.93 219.321 139.942C219.137 140 218.953 139.919 218.769 139.988C218.596 139.988 218.435 140 218.263 140.011C218.033 140.069 217.803 139.988 217.573 140.057C217.273 140.057 216.974 140.069 216.675 140.08C215.732 140.126 214.8 140.092 213.857 140.103C213.5 140.103 213.132 140.126 212.775 140.08C212.476 140.08 212.177 140.069 211.878 140.057C211.671 139.988 211.464 140.057 211.257 140.011C211.073 140.011 210.877 140 210.693 139.988C210.532 139.919 210.359 139.988 210.198 139.942C210.072 139.942 209.945 139.93 209.83 139.919C209.692 139.861 209.543 139.919 209.405 139.873C209.301 139.873 209.197 139.861 209.094 139.85C208.979 139.792 208.852 139.85 208.749 139.804C207.552 139.712 206.379 139.539 205.252 139.125C204.067 138.7 202.997 138.101 202.03 137.273C201.122 136.491 200.42 135.582 199.845 134.57C199.223 133.465 198.786 132.28 198.522 131.038C198.361 130.324 198.257 129.611 198.119 128.886C198.096 128.737 198.142 128.587 198.096 128.426C198.05 128.311 198.096 128.185 198.05 128.07L198.107 128.081Z" fill="#231F20"/>
<path d="M46.9304 128.311C46.9304 127.356 46.9304 126.402 46.9304 125.435C46.9304 124.71 47.2641 124.388 48.0003 124.331C50.9914 124.112 53.994 123.951 56.9966 123.79C58.9983 123.687 61.0001 123.572 62.9903 123.468C66.0619 123.307 69.122 123.157 72.1936 122.996C74.3564 122.881 76.5192 122.778 78.6935 122.674C78.9811 122.663 79.2687 122.628 79.5448 122.628C80.051 122.628 80.4421 122.973 80.4881 123.468C80.6492 125.355 80.8333 127.23 80.9023 129.128C80.9023 129.439 80.8448 129.554 80.4996 129.577C78.4059 129.749 76.3121 129.956 74.2299 130.152C73.6432 130.209 73.0449 130.256 72.4582 130.336C71.9175 130.405 71.6184 130.865 71.6874 131.406C71.906 133.235 72.1131 135.076 72.3202 136.905C72.5273 138.711 72.7458 140.529 72.9529 142.335C73.137 143.957 73.321 145.591 73.5051 147.213C73.6892 148.823 73.8847 150.445 74.0688 152.056C74.2529 153.655 74.4369 155.266 74.621 156.876C74.8281 158.694 75.0467 160.523 75.2537 162.341C75.4378 163.951 75.6219 165.573 75.8059 167.184C75.898 168.001 76.0015 168.818 76.082 169.646C76.1396 170.279 75.829 170.647 75.2077 170.739C72.0671 171.233 68.9379 171.74 65.7973 172.246C64.4053 172.464 63.0248 172.694 61.6328 172.913C60.8275 173.04 60.3903 172.671 60.3558 171.866C60.2638 169.427 60.1718 166.988 60.0682 164.549C59.9647 161.904 59.8496 159.258 59.7346 156.6C59.6196 153.966 59.516 151.32 59.401 148.685C59.2859 146.039 59.1824 143.393 59.0674 140.736C58.9523 138.101 58.8488 135.455 58.7337 132.821C58.7337 132.66 58.7107 132.487 58.6877 132.326C58.6417 131.843 58.2736 131.486 57.7789 131.509C56.9966 131.544 56.2143 131.601 55.4435 131.659C54.1321 131.763 52.8091 131.866 51.4976 131.97C50.4277 132.05 49.3463 132.131 48.2764 132.223C48.1614 132.223 48.0579 132.234 47.9428 132.246C47.3216 132.257 46.9189 131.878 46.9189 131.256C46.9189 130.267 46.9189 129.278 46.9189 128.288L46.9304 128.311Z" fill="#EC1165"/>
<path d="M111.284 157.889C111.169 161.662 111.043 165.435 110.928 169.209C110.905 169.83 110.893 170.44 110.87 171.061C110.847 171.832 110.479 172.177 109.72 172.108C107.453 171.924 105.176 171.717 102.909 171.521C101.977 171.44 101.046 171.371 100.114 171.291C99.4465 171.233 99.1014 170.969 99.0209 170.451C99.0209 170.382 99.0093 170.325 99.0209 170.256C99.0554 169.864 98.9173 169.565 98.5952 169.358C98.2501 169.14 97.9049 169.186 97.5713 169.393C96.3519 170.129 95.0404 170.658 93.6484 171.015C91.5891 171.532 89.5184 171.659 87.4361 171.164C84.3645 170.44 82.4318 168.495 81.4885 165.527C80.9478 163.825 80.7867 162.065 80.8097 160.281C80.8442 156.968 81.4655 153.747 82.3053 150.56C82.938 148.168 83.7203 145.821 84.6636 143.531C84.9512 142.83 85.3194 142.657 86.0441 142.864C88.4025 143.531 90.7608 144.199 93.1192 144.866C93.7864 145.061 94.028 145.464 93.8555 146.131C93.1652 148.8 92.5325 151.481 92.0838 154.207C91.7502 156.232 91.4971 158.257 91.5891 160.316C91.6122 160.891 91.6927 161.455 91.8768 162.007C92.2449 163.157 93.0387 163.583 94.2121 163.261C95.1439 163.008 95.8457 162.41 96.4784 161.719C97.7439 160.339 98.6412 158.705 99.4695 157.037C99.6076 156.761 99.7111 156.474 99.8722 156.209C100.309 155.461 100.447 154.633 100.516 153.782C100.816 150.434 101.103 147.075 101.368 143.727C101.425 142.933 101.437 142.922 102.231 142.956C104.06 143.037 105.877 143.221 107.695 143.405C108.684 143.497 109.662 143.6 110.652 143.692C111.445 143.761 111.767 144.13 111.733 144.912C111.675 146.384 111.618 147.857 111.572 149.329C111.48 152.182 111.388 155.024 111.307 157.877L111.284 157.889Z" fill="#F9A51A"/>
<path d="M117.682 144.992C117.682 144.843 117.682 144.682 117.682 144.532C117.693 144.038 118.015 143.669 118.51 143.635C119.695 143.543 120.88 143.462 122.065 143.382C124.389 143.232 126.724 143.083 129.048 142.933C129.266 142.922 129.485 142.91 129.704 142.91C130.428 142.887 130.785 143.209 130.819 143.934C130.854 144.463 131.142 144.785 131.636 144.854C131.958 144.9 132.223 144.785 132.43 144.555C134.144 142.703 136.284 141.587 138.677 140.908C139.275 140.736 139.77 141 139.919 141.61C140.276 143.002 140.621 144.406 140.966 145.798C141.081 146.246 140.874 146.695 140.448 146.856C137.733 147.891 135.789 149.882 134.029 152.079C133.051 153.287 132.257 154.621 131.579 156.025C131.395 156.405 131.314 156.773 131.337 157.198C131.418 158.337 131.441 159.488 131.487 160.627C131.59 163.215 131.682 165.792 131.774 168.38C131.797 169.082 131.832 169.784 131.878 170.486C131.924 171.245 131.59 171.625 130.842 171.659C128.519 171.774 126.206 171.878 123.882 171.993C122.766 172.05 121.662 172.108 120.558 172.165C119.752 172.211 119.396 171.935 119.327 171.153C119.223 170.037 119.166 168.921 119.097 167.794C118.947 165.493 118.798 163.18 118.648 160.88C118.544 159.315 118.452 157.739 118.36 156.174C118.211 153.851 118.061 151.527 117.923 149.191C117.843 147.799 117.774 146.396 117.705 145.004L117.682 144.992Z" fill="#A5CD39"/>
<path d="M232.93 122.64C232.93 124.009 232.654 126.494 231.802 128.886C231.365 130.129 230.767 131.291 229.893 132.292C228.777 133.557 227.293 134.19 225.751 134.685C223.922 135.271 222.047 135.605 220.149 135.847C217.618 136.169 215.064 136.295 212.51 136.284C210.324 136.261 208.127 136.169 205.964 135.835C202.904 135.352 200.994 133.523 200.028 130.635C199.591 129.335 199.384 127.989 199.28 126.632C199.188 125.389 199.061 124.158 199.107 122.916C199.176 120.914 199.441 118.935 200.074 117.014C200.914 114.437 202.547 112.677 205.124 111.745C207.402 110.917 209.749 110.33 212.13 109.905C215.11 109.375 218.101 108.996 221.138 108.881C222.887 108.823 224.647 108.777 226.361 109.203C229.329 109.939 231.204 111.86 232.067 114.771C232.7 116.876 232.941 119.027 232.941 122.663L232.93 122.64Z" fill="#EC1C24"/>
<path d="M175.054 155.645C174.789 153.183 174.122 150.836 172.856 148.685C171.28 145.993 169.06 144.072 166 143.267C163.446 142.588 160.88 142.68 158.338 143.382C157.59 143.589 157.004 143.14 157.084 142.381C157.211 141.046 157.36 139.712 157.498 138.377C157.705 136.33 157.924 134.282 158.131 132.246C158.315 130.417 158.511 128.587 158.695 126.77C158.798 125.769 158.913 124.78 158.994 123.779C159.04 123.203 158.672 122.812 158.096 122.778C157.395 122.732 156.693 122.686 155.991 122.64C154.496 122.536 153 122.433 151.516 122.341C150.653 122.283 149.779 122.226 148.916 122.191C148.318 122.168 147.961 122.479 147.892 123.065C147.858 123.364 147.846 123.652 147.823 123.951C147.651 126.287 147.478 128.622 147.317 130.957C147.202 132.648 147.087 134.339 146.972 136.031C146.799 138.446 146.627 140.862 146.466 143.278C146.351 145.004 146.236 146.729 146.109 148.444C145.948 150.859 145.775 153.275 145.603 155.691C145.465 157.773 145.327 159.867 145.177 161.95C144.993 164.676 144.798 167.391 144.614 170.117C144.568 170.831 144.901 171.187 145.626 171.268C146.949 171.406 148.272 171.556 149.595 171.705C150.768 171.832 151.93 171.97 153.104 172.073C153.679 172.131 154.058 171.809 154.128 171.245C154.197 170.681 154.266 170.106 154.3 169.542C154.335 169.094 154.496 168.748 154.933 168.599C155.347 168.461 155.704 168.599 156.003 168.921C156.612 169.6 157.337 170.129 158.154 170.532C160.685 171.774 163.377 172.096 166.126 171.625C168.91 171.153 170.993 169.565 172.546 167.253C174.375 164.526 175.065 161.455 175.169 158.579C175.203 157.382 175.157 156.531 175.065 155.691L175.054 155.645ZM165.735 162.456C165.126 164.204 164.435 164.745 162.169 164.308C160.731 164.032 159.707 163.077 158.879 161.915C157.337 159.752 156.635 157.325 156.831 154.679C156.912 153.551 157.245 152.493 157.993 151.619C159.005 150.445 160.34 150.146 161.812 150.261C162.295 150.296 162.767 150.411 163.239 150.503C164.079 150.675 164.688 151.159 165.126 151.883C165.666 152.769 165.942 153.759 166.126 154.759C166.322 155.795 166.402 156.83 166.402 158.165C166.379 159.442 166.264 160.983 165.747 162.467L165.735 162.456Z" fill="#16C0F2"/>
<path d="M210.52 151.423C210.324 150.146 210.002 148.904 209.312 147.788C208.162 145.924 206.482 144.716 204.492 143.899C201.972 142.864 199.338 142.553 196.646 142.622C194.679 142.668 192.746 142.853 190.813 143.244C188.858 143.635 186.948 144.199 185.188 145.176C183.865 145.913 182.737 146.856 182.162 148.317C181.863 149.065 181.587 149.813 181.38 150.595C180.655 153.333 180.402 156.128 180.575 158.958C180.69 160.926 181.035 162.835 181.644 164.711C182.22 166.482 183.255 167.863 184.866 168.817C185.567 169.232 186.281 169.623 187.04 169.933C190.422 171.337 193.942 171.947 197.601 171.924C198.383 171.924 199.165 171.912 199.948 171.855C201.271 171.774 202.571 171.625 203.848 171.233C205.274 170.808 206.551 170.117 207.517 168.944C208.173 168.162 208.622 167.253 209.013 166.321C210.278 163.249 210.739 160.017 210.854 156.727C210.911 154.955 210.796 153.183 210.531 151.435L210.52 151.423ZM201.708 159.407C201.524 160.201 201.305 160.983 200.925 161.708C200.258 162.985 199.177 163.629 197.762 163.779C196.496 163.917 195.254 163.744 194.034 163.48C192.838 163.215 192.228 162.341 191.895 161.236C191.665 160.5 191.584 159.729 191.607 158.958C191.642 156.934 192.09 155.012 192.976 153.172C193.597 151.872 194.656 151.308 196.013 151.09C198.774 150.652 200.983 152.505 201.742 155.105C202.156 156.543 202.041 157.969 201.719 159.407H201.708Z" fill="#B31D8C"/>
<path d="M221.139 132.786C220.241 132.729 219.39 132.694 218.55 132.625C218.01 132.591 217.756 132.372 217.607 131.855C216.871 129.358 216.146 126.862 215.421 124.365C214.903 122.582 214.374 120.811 213.857 119.027C213.626 118.257 213.857 117.843 214.627 117.612C215.26 117.428 215.893 117.233 216.526 117.049C217.158 116.865 217.549 117.049 217.825 117.658C218.631 119.465 219.425 121.271 220.218 123.077C220.402 123.491 220.667 123.756 221.127 123.756C221.599 123.756 221.852 123.468 222.025 123.065C223.014 120.742 224.003 118.418 225.004 116.105C225.315 115.392 225.66 115.22 226.408 115.415C226.592 115.461 226.764 115.507 226.948 115.553C227.627 115.737 227.892 116.232 227.65 116.888C226.879 118.993 226.108 121.087 225.338 123.192C224.256 126.137 223.175 129.082 222.094 132.027C221.898 132.556 221.587 132.786 221.15 132.775L221.139 132.786Z" fill="#FEFEFE"/>
<path d="M205.966 125.895C205.966 124.078 205.966 122.272 205.966 120.454C205.966 119.672 205.621 119.315 204.838 119.338C204.321 119.338 203.803 119.372 203.285 119.384C202.63 119.384 202.25 118.993 202.25 118.337C202.25 117.348 202.365 116.842 203.746 116.853C206.472 116.876 209.199 116.83 211.937 116.819C212.719 116.819 213.064 117.152 213.075 117.934C213.075 118.222 213.075 118.51 213.075 118.797C213.075 118.993 213.029 119.073 212.822 119.073C212.259 119.073 211.706 119.119 211.143 119.142C210.487 119.165 210.107 119.545 210.153 120.189C210.291 122.479 210.452 124.779 210.602 127.069C210.694 128.438 210.786 129.807 210.878 131.187C210.913 131.693 210.579 132.096 210.084 132.165C209.003 132.303 207.922 132.43 206.84 132.533C206.288 132.591 205.874 132.154 205.874 131.567C205.874 129.692 205.874 127.805 205.874 125.93H205.954L205.966 125.895Z" fill="#FEFEFE"/>
</svg>
