<svg width="284" height="284" viewBox="0 0 284 284" fill="none" xmlns="http://www.w3.org/2000/svg">
<rect width="283.5" height="283.5" fill="#0098CC"/>
<g clip-path="url(#clip0_23_82)">
<path d="M45.7088 114.755C51.0736 110.354 57.7992 107.75 64.6832 107.206C65.4601 107.026 66.2587 107.053 67.0487 107.046C66.9076 107.588 66.7687 108.133 66.5973 108.667C64.2057 116.083 61.8271 123.501 59.4355 130.917C51.3579 130.909 43.2803 130.922 35.2048 130.909C35.0811 131.003 34.9596 131.099 34.838 131.195C35.717 131.624 36.4679 132.261 37.2578 132.832C43.1045 137.091 48.9446 141.357 54.7912 145.614C52.2195 153.494 49.6673 161.378 47.1216 169.264C47.0044 169.21 46.77 169.098 46.6528 169.041C40.9017 164.71 36.5612 158.506 34.4799 151.575C32.5137 145.071 32.492 137.964 34.4951 131.466C36.4418 124.923 40.4329 119.034 45.7088 114.755ZM67.0748 107.044C67.7974 107.044 68.5223 107.059 69.2428 107.127C70.0306 107.315 70.8445 107.335 71.6453 107.457C77.9585 108.291 84.0113 110.977 88.8987 115.09C94.3742 119.669 98.387 126.004 100.13 132.961C101.603 138.679 101.566 144.783 100.03 150.486C98.0549 158.031 93.378 164.773 87.1364 169.367C84.5495 161.452 82.019 153.516 79.4017 145.609C86.1012 140.707 92.8029 135.805 99.5111 130.911C91.2469 130.92 82.9804 130.911 74.7162 130.917C72.1488 122.965 69.5857 115.013 67.0748 107.044ZM133.543 123.871C134.467 122.068 136.251 120.695 138.272 120.445C139.908 120.244 141.688 120.371 143.111 121.283C143.589 121.572 144.012 121.939 144.444 122.292C143.849 122.996 143.246 123.696 142.64 124.392C141.592 123.403 140.14 122.703 138.682 123.011C136.867 123.377 135.639 125.267 135.748 127.082C135.745 129.016 137.31 130.952 139.309 130.941C140.642 131.062 141.794 130.272 142.773 129.458C143.348 130.071 143.934 130.677 144.548 131.254C143.675 132.116 142.682 132.921 141.484 133.252C140.069 133.63 138.545 133.628 137.141 133.199C134.912 132.442 133.167 130.34 132.909 127.971C132.751 126.586 132.881 125.118 133.543 123.871ZM149.509 120.725C150.978 120.25 152.582 120.257 154.073 120.627C155.145 120.905 156.046 121.591 156.886 122.289C156.28 122.985 155.696 123.696 155.067 124.37C153.902 123.289 152.209 122.567 150.642 123.14C148.758 123.823 147.795 126.091 148.302 127.988C148.648 129.651 150.191 131.035 151.916 130.946C153.181 130.994 154.273 130.25 155.18 129.445C155.77 130.06 156.356 130.679 156.981 131.259C156.107 132.096 155.141 132.904 153.96 133.243C152.565 133.613 151.07 133.634 149.681 133.234C147.241 132.475 145.381 130.086 145.297 127.505C144.965 124.615 146.781 121.672 149.509 120.725ZM174.593 120.445C176.815 120.075 179.228 120.784 180.767 122.477C182.989 124.831 182.992 128.881 180.815 131.265C178.339 134.17 173.397 134.236 170.801 131.462C168.85 129.456 168.477 126.142 169.864 123.718C170.821 121.963 172.626 120.725 174.593 120.445ZM174.79 123.04C172.396 123.58 171.246 126.621 172.351 128.741C173.176 130.637 175.669 131.493 177.473 130.502C179.61 129.454 180.151 126.374 178.779 124.499C177.902 123.254 176.253 122.67 174.79 123.04ZM111.651 120.59C113.427 120.574 115.202 120.572 116.977 120.585C118.559 120.592 120.198 121.471 120.845 122.972C121.769 124.98 121.179 127.763 119.134 128.822C117.67 129.662 115.942 129.445 114.33 129.467C114.336 130.736 114.314 132.007 114.349 133.276C113.451 133.282 112.554 133.28 111.658 133.28C111.669 129.049 111.677 124.818 111.651 120.59ZM114.327 123.097C114.327 124.387 114.332 125.678 114.327 126.969C115.332 126.921 116.376 127.111 117.355 126.816C118.746 126.378 119.004 124.171 117.743 123.436C116.702 122.86 115.46 123.169 114.327 123.097ZM121.795 120.456C122.867 120.471 123.939 120.465 125.011 120.463C125.953 122.261 126.919 124.046 127.841 125.855C128.653 124.066 129.413 122.257 130.216 120.465C131.214 120.465 132.21 120.469 133.208 120.46C132.06 122.895 130.951 125.348 129.821 127.789C128.909 129.708 128.132 131.976 126.144 133.028C124.951 133.632 123.577 133.339 122.307 133.258C122.314 132.464 122.316 131.67 122.301 130.876C123.154 130.99 124.054 131.112 124.894 130.85C125.639 130.519 126.005 129.734 126.4 129.069C124.833 126.216 123.349 123.318 121.795 120.456ZM158.461 120.592C159.399 120.579 160.339 120.585 161.276 120.583C161.254 122.434 161.32 124.287 161.233 126.137C162.965 124.311 164.657 122.447 166.357 120.59C167.487 120.583 168.62 120.579 169.755 120.585C168.039 122.388 166.326 124.19 164.597 125.978C166.426 128.402 168.171 130.891 170.018 133.302C168.891 133.302 167.765 133.297 166.639 133.302C165.332 131.504 164.015 129.712 162.741 127.892C162.238 128.406 161.738 128.924 161.254 129.456C161.296 130.736 161.265 132.018 161.278 133.297C160.336 133.297 159.397 133.304 158.457 133.291C158.496 129.058 158.487 124.823 158.461 120.59V120.592ZM183.816 120.587C187.002 120.579 190.19 120.587 193.378 120.583C193.385 121.412 193.383 122.241 193.383 123.07H186.59C186.594 123.93 186.59 124.788 186.59 125.647C188.578 125.647 190.568 125.643 192.556 125.647C192.545 126.476 192.547 127.306 192.551 128.137C190.566 128.137 188.578 128.137 186.592 128.137V130.823C188.877 130.823 191.16 130.823 193.446 130.823C193.441 131.648 193.439 132.473 193.452 133.3C190.236 133.3 187.02 133.304 183.805 133.297C183.844 129.06 183.823 124.825 183.816 120.587ZM199.03 120.59C199.958 120.581 200.887 120.583 201.818 120.585C201.799 122.436 201.834 124.289 201.797 126.14C203.524 124.309 205.213 122.436 206.923 120.587C208.053 120.585 209.184 120.581 210.317 120.583C208.594 122.379 206.892 124.199 205.152 125.978C206.988 128.397 208.735 130.885 210.569 133.304C209.449 133.278 208.327 133.339 207.209 133.28C205.853 131.532 204.592 129.703 203.301 127.905C202.791 128.41 202.298 128.929 201.808 129.452C201.823 130.734 201.792 132.016 201.834 133.297C200.894 133.304 199.956 133.306 199.019 133.291C199.066 129.058 199.047 124.823 199.03 120.59ZM211.819 120.585C212.739 120.585 213.664 120.581 214.586 120.592C214.542 123.195 214.595 125.8 214.555 128.404C216.418 125.949 218.275 123.49 220.124 121.023C220.283 120.859 220.409 120.544 220.693 120.59C221.485 120.561 222.277 120.59 223.072 120.59C223.043 124.823 223.032 129.058 223.078 133.289C222.145 133.304 221.212 133.304 220.283 133.289C220.346 130.591 220.268 127.894 220.326 125.197C218.269 127.892 216.25 130.615 214.184 133.3C213.392 133.295 212.602 133.3 211.812 133.291C211.838 129.056 211.825 124.818 211.819 120.581V120.585ZM224.471 120.59C225.402 120.581 226.336 120.576 227.271 120.598C227.243 122.267 227.282 123.939 227.245 125.61C228.957 125.617 230.67 125.617 232.382 125.61C232.351 123.934 232.378 122.259 232.364 120.583C233.3 120.583 234.237 120.583 235.175 120.59C235.147 124.827 235.164 129.067 235.166 133.306C234.231 133.3 233.296 133.3 232.362 133.3C232.38 131.604 232.354 129.909 232.38 128.211C230.67 128.202 228.957 128.2 227.247 128.211C227.273 129.907 227.251 131.602 227.264 133.3C226.336 133.3 225.407 133.3 224.478 133.3C224.484 129.062 224.497 124.825 224.471 120.587V120.59ZM241.805 120.541C244.151 120.036 246.771 120.749 248.385 122.58C250.519 124.917 250.532 128.846 248.448 131.221C246.106 134.052 241.436 134.299 238.734 131.858C236.392 129.856 235.928 126.089 237.569 123.503C238.482 121.972 240.073 120.894 241.805 120.541ZM242.311 123.088C241.228 123.363 240.308 124.164 239.874 125.199C239.003 127.012 239.67 129.474 241.453 130.449C243.001 131.392 245.225 130.974 246.282 129.478C247.437 127.964 247.363 125.652 246.089 124.234C245.175 123.171 243.652 122.729 242.311 123.088ZM188.901 135.993C191.451 135.614 194.183 135.969 196.397 137.358C199.155 139.095 201.024 142.059 201.762 145.218C202.493 148.591 202.363 152.22 201.067 155.441C199.757 158.604 197.176 161.384 193.828 162.303C190.776 163.075 187.334 162.771 184.695 160.945C182.039 159.094 180.277 156.095 179.654 152.927C178.935 149.21 179.235 145.163 181.06 141.801C182.651 138.83 185.52 136.45 188.901 135.993ZM189.32 141.223C187.948 141.624 186.926 142.759 186.271 143.991C185.183 146.04 185.008 148.445 185.199 150.724C185.405 152.759 186.097 154.854 187.605 156.289C188.758 157.405 190.505 157.795 192.035 157.372C193.42 157.042 194.483 155.939 195.158 154.725C196.282 152.713 196.486 150.326 196.328 148.064C196.158 145.951 195.438 143.789 193.897 142.289C192.714 141.125 190.889 140.714 189.32 141.223ZM212.785 135.995C215.539 135.575 218.516 136.034 220.81 137.699C223.751 139.817 225.556 143.31 225.951 146.896C226.31 150.081 226.023 153.441 224.562 156.331C223.171 159.125 220.734 161.498 217.687 162.314C214.701 163.056 211.346 162.776 208.737 161.037C206.298 159.402 204.596 156.786 203.802 153.968C202.867 150.385 202.969 146.463 204.381 143.019C205.833 139.506 208.943 136.518 212.785 135.995ZM213.206 141.228C211.893 141.615 210.894 142.682 210.245 143.859C209.102 145.938 208.9 148.403 209.1 150.733C209.31 152.756 210.002 154.828 211.487 156.265C212.628 157.39 214.369 157.792 215.901 157.383C217.247 157.077 218.308 156.036 218.983 154.861C220.163 152.826 220.396 150.376 220.22 148.066C220.072 145.946 219.328 143.783 217.787 142.28C216.604 141.114 214.773 140.716 213.206 141.228ZM236.662 135.999C239.413 135.575 242.389 136.023 244.687 137.679C247.606 139.766 249.405 143.214 249.846 146.758C250.186 149.834 249.989 153.063 248.667 155.9C247.307 158.877 244.8 161.459 241.594 162.314C238.743 163.021 235.566 162.802 233.007 161.266C230.452 159.724 228.651 157.092 227.792 154.246C226.809 150.801 226.856 147.02 228.046 143.632C229.402 139.867 232.601 136.559 236.662 135.999ZM237.102 141.23C235.613 141.68 234.55 142.969 233.903 144.341C232.955 146.375 232.812 148.692 233.02 150.901C233.261 152.912 233.983 154.968 235.496 156.364C236.909 157.672 239.144 157.893 240.826 156.994C241.985 156.351 242.795 155.218 243.318 154.017C244.283 151.783 244.338 149.254 243.984 146.876C243.663 145.159 242.925 143.463 241.653 142.247C240.472 141.099 238.652 140.72 237.102 141.23ZM172.965 136.47C174.601 135.842 176.379 136.207 178.085 136.117C178.063 144.831 178.067 153.544 178.08 162.257C176.21 162.268 174.339 162.257 172.468 162.264C172.479 155.476 172.455 148.69 172.479 141.901C170.981 142.273 169.484 142.645 167.989 143.024C167.565 141.473 167.231 139.895 166.771 138.353C168.829 137.701 170.905 137.119 172.965 136.47ZM111.662 136.295C118.787 136.299 125.912 136.286 133.039 136.301C133.063 138.056 132.983 139.81 133.046 141.567C130.428 141.571 127.813 141.562 125.198 141.571C125.207 148.467 125.183 155.362 125.209 162.257C123.303 162.27 121.398 162.257 119.493 162.262C119.51 155.366 119.475 148.471 119.51 141.575C116.893 141.558 114.277 141.571 111.66 141.569C111.671 139.81 111.667 138.053 111.662 136.295ZM134.061 136.297C136.151 136.292 138.243 136.297 140.335 136.297C142.612 142.365 144.767 148.482 147.098 154.528C149.277 148.442 151.566 142.398 153.767 136.321C155.818 136.268 157.869 136.305 159.92 136.301C156.43 145.01 152.986 153.734 149.492 162.441C147.816 162.43 146.143 162.452 144.468 162.43C141.017 153.712 137.54 145.003 134.061 136.299V136.297ZM47.2236 169.286C53.8059 164.331 60.4881 159.507 67.1008 154.59C73.7721 159.51 80.4456 164.427 87.1147 169.352C82.3185 172.911 76.5565 175.101 70.6405 175.724C68.6655 176.09 66.645 176.024 64.6506 175.91C64.273 175.827 63.8975 175.748 63.5134 175.713C58.5327 175.188 53.6692 173.545 49.3982 170.912C48.6624 170.454 47.9159 170.008 47.267 169.431L47.2236 169.286Z" fill="white"/>
<path d="M67.0491 107.046L67.0621 107L67.0751 107.044C69.5861 115.013 72.1491 122.965 74.7165 130.917C82.9808 130.909 91.2472 130.92 99.5115 130.911C92.8033 135.805 86.1016 140.707 79.4021 145.609C82.0194 153.516 84.5499 161.452 87.1368 169.367L87.1151 169.352C80.4459 164.427 73.7725 159.51 67.1012 154.59C60.4884 159.507 53.8063 164.331 47.2239 169.286L47.1219 169.264C49.6676 161.378 52.2198 153.494 54.7916 145.614C48.9449 141.357 43.1048 137.091 37.2582 132.832C36.4682 132.261 35.7173 131.624 34.8384 131.195C34.9599 131.099 35.0814 131.003 35.2051 130.909C43.2806 130.922 51.3582 130.909 59.4359 130.917C61.8275 123.501 64.2061 116.083 66.5977 108.667C66.7691 108.133 66.908 107.588 67.0491 107.046Z" fill="#0098CC"/>
</g>
<defs>
<clipPath id="clip0_23_82">
<rect width="217" height="69" fill="white" transform="translate(33 107)"/>
</clipPath>
</defs>
</svg>
