<svg width="284" height="284" viewBox="0 0 284 284" fill="none" xmlns="http://www.w3.org/2000/svg">
<rect width="283.5" height="283.5" fill="#000055"/>
<path d="M68.1086 224.632L67.8584 76.1479L68.2337 72.5202L69.6097 69.3929L71.8613 66.3907C72.6033 65.6316 73.3539 64.881 74.113 64.1391C74.9778 63.2938 75.8535 62.4597 76.7399 61.6372L80.9931 59.5107L86.2469 57.8845L194.076 57.6343L86.4971 200.239L173.436 200.364V224.757L68.1086 224.632Z" fill="white" stroke="white"/>
<path d="M172.453 178.591H130.547L172.578 121.049L172.453 178.591Z" fill="white" stroke="white"/>
<path d="M193.843 225V200.482L217.11 200.607V205.11L216.61 208.488L214.984 211.74L212.107 215.993L208.104 219.871C206.541 220.746 204.956 221.581 203.35 222.373C201.744 223.166 200.117 223.917 198.472 224.625L193.843 225Z" fill="white" stroke="white"/>
<path d="M194.218 57.8771L217.36 57.752L217.235 179.467L193.968 178.966L194.218 57.8771Z" fill="white" stroke="white"/>
</svg>
