<svg width="500" height="500" viewBox="0 0 500 500" fill="none" xmlns="http://www.w3.org/2000/svg">
<g clip-path="url(#clip0_8_195)">
<rect width="500" height="500" fill="white"/>
<rect width="500" height="500" fill="#0A59EF"/>
<g clip-path="url(#clip1_8_195)">
<path d="M339.457 283.121H338.214V264.19H339.457C346.761 264.19 351.21 267.106 351.21 273.965C351.21 280.394 346.101 283.115 339.457 283.115M338.584 248.887H318.201V297.765H343.543C359.68 297.765 371.217 288.554 371.217 274.039C371.217 256.079 357.05 248.887 338.582 248.887" fill="#FDFDFD"/>
<path d="M374.404 248.887V297.763H412.012V284.404H394.56V279.606H409.968V266.904H394.56V262.239H411.429V248.88L374.404 248.887Z" fill="#FDFDFD"/>
<path d="M294.892 275.975L278.009 248.887H258.81V297.752H278V272.078L294.883 297.752H314.008V248.887H294.883L294.892 275.975Z" fill="#FDFDFD"/>
<path d="M166.697 248.887L157.569 270.074L148.336 248.887H166.697ZM166.697 200L157.569 227.648L148.329 200H88V215.46H100.845V248.887H121.568V215.371H133.875L148.329 248.885H129.096L120.191 297.752H139.538L142.39 270.975L151.743 297.752H163.426L172.767 270.975L175.475 297.752H194.825L185.779 248.885H166.697L187.864 200H166.697Z" fill="#FDFDFD"/>
<path d="M224.907 283.465C222.645 283.464 220.434 282.869 218.553 281.754C216.672 280.639 215.206 279.054 214.341 277.2C213.475 275.346 213.249 273.307 213.69 271.339C214.132 269.371 215.221 267.563 216.821 266.144C218.421 264.725 220.459 263.759 222.677 263.367C224.896 262.976 227.196 263.176 229.286 263.944C231.377 264.712 233.163 266.012 234.42 267.68C235.677 269.348 236.349 271.31 236.349 273.316C236.349 274.649 236.053 275.969 235.478 277.2C234.903 278.431 234.06 279.55 232.998 280.492C231.935 281.435 230.674 282.182 229.286 282.692C227.898 283.202 226.41 283.465 224.907 283.465ZM224.907 246.635C224.312 246.635 223.712 246.654 223.136 246.684C226.521 245.603 229.469 243.657 231.607 241.09C233.744 238.524 234.975 235.452 235.144 232.265C235.861 222.178 223.717 216.98 216.93 216.98C208.431 216.98 205.081 218.857 205.081 218.857L206.222 213.711H231.597V200H191.517L186.107 229.065C190.448 228.039 194.887 227.372 199.368 227.074C206.449 226.698 213.659 228.181 213.473 232.322C213.317 235.878 204.687 237.638 197.842 236.393C193.609 235.578 189.479 234.386 185.516 232.835L183.085 245.802C183.085 245.802 196.116 249.801 205.631 249.595C207.486 249.555 209.695 249.447 212.065 249.186C205.364 251.985 200.064 256.878 197.178 262.928C194.292 268.978 194.023 275.76 196.423 281.974C198.823 288.189 203.723 293.4 210.185 296.61C216.647 299.82 224.217 300.803 231.446 299.371C238.674 297.939 245.052 294.192 249.36 288.848C253.668 283.505 255.602 276.94 254.793 270.41C253.983 263.88 250.486 257.844 244.972 253.459C239.458 249.073 232.314 246.646 224.907 246.641" fill="#FDFDFD"/>
</g>
</g>
<defs>
<clipPath id="clip0_8_195">
<rect width="500" height="500" fill="white"/>
</clipPath>
<clipPath id="clip1_8_195">
<rect width="324" height="100" fill="white" transform="translate(88 200)"/>
</clipPath>
</defs>
</svg>
