<svg width="284" height="284" viewBox="0 0 284 284" fill="none" xmlns="http://www.w3.org/2000/svg">
<rect width="283.5" height="283.5" fill="#E04028"/>
<path d="M67.5381 222.56C67.7731 176.388 67.8928 130.216 67.8969 84.0431C67.8971 82.3684 67.8971 80.6938 67.8969 79.0192L70.7678 72.9187L77.2271 65.7416L85.8395 61.4354L147.921 61.0766L93.3754 151.866L75.7917 162.273L67.5381 222.56Z" fill="white" stroke="#E04028"/>
<path d="M180.758 182.548C180.758 187.909 179.7 193.218 177.644 198.171C175.588 203.125 172.574 207.625 168.775 211.416C164.976 215.207 160.466 218.215 155.503 220.266C150.539 222.318 145.219 223.374 139.847 223.374C134.474 223.374 129.155 222.318 124.191 220.266C119.227 218.215 114.717 215.207 110.919 211.416C107.12 207.625 104.106 203.125 102.05 198.171C99.9942 193.218 98.936 187.909 98.936 182.548C98.936 177.186 99.9942 171.878 102.05 166.924C104.106 161.971 107.12 157.47 110.919 153.679C114.717 149.888 119.227 146.881 124.191 144.829C129.155 142.778 134.474 141.722 139.847 141.722C145.219 141.722 150.539 142.778 155.503 144.829C160.466 146.881 164.976 149.888 168.775 153.679C172.574 157.47 175.588 161.971 177.644 166.924C179.7 171.878 180.758 177.186 180.758 182.548Z" fill="white" stroke="#E04028" stroke-width="0.951207"/>
<path d="M67.1792 221.842L99.117 222.022L95.7079 218.254C90.4789 211.209 86.8349 202.994 85.1218 194.39C83.3418 185.449 83.6513 176.1 86.0189 167.297L67.1792 221.842Z" fill="white" stroke="#E04028"/>
<path d="M93.1962 152.045L74.3565 161.376L67 220.945C68.4071 217.489 69.7827 214.02 71.1268 210.538C76.5506 196.49 81.4593 182.243 85.8397 167.835L93.1962 152.045Z" fill="white" stroke="white"/>
<path d="M183.268 222.38L197.443 222.201L201.031 220.945L204.44 219.33L208.029 216.818L211.438 213.05L214.129 208.744L215.924 204.617L216.641 201.208L217 60L166.761 60.5383L127.646 126.388L132.67 125.49L140.744 124.952L147.024 125.132L156.175 126.926L163.711 129.617L171.246 134.103L177.706 138.589L183.806 145.048L187.933 150.61L190.804 155.275L194.034 162.273L196.366 170.347L197.263 177.165C197.321 179.377 197.321 181.591 197.263 183.804C197.204 186.079 197.085 188.353 196.904 190.622L196.007 196.723C195.422 198.581 194.824 200.435 194.213 202.285C193.341 204.925 192.444 207.557 191.522 210.179C190.101 212.559 188.605 214.893 187.036 217.177C185.823 218.942 184.567 220.677 183.268 222.38Z" fill="white" stroke="#E04028"/>
</svg>
