<?xml version="1.0" encoding="UTF-8"?>
<svg xmlns="http://www.w3.org/2000/svg" version="1.1" viewBox="0 0 283.5 283.5">
  <defs>
    <style>
      .cls-1 {
        fill: #e10612;
      }

      .cls-2 {
        fill: #fff;
      }

      .cls-3 {
        fill: #b1b1af;
      }

      .cls-4 {
        fill: #fefdfc;
      }
    </style>
  </defs>
  <!-- Generator: Adobe Illustrator 28.7.1, SVG Export Plug-In . SVG Version: 1.2.0 Build 142)  -->
  <g>
    <g id="Vrstva_1">
      <g id="Vrstva_1-2" data-name="Vrstva_1">
        <rect class="cls-2" width="283.5" height="283.5"/>
      </g>
      <g id="_x34_VPv4y">
        <g>
          <path class="cls-3" d="M25.5,164.7c0-15.2,0-30.5,0-45.7,0-.3,0-.3.3-.3,71.1,0,142.3,0,213.4,0,0,0,0,0,0,0-.2,0-.3,0-.5,0-48.1,0-96.2,0-144.4,0-.4,0-.5,0-.5.5,0,15,0,30,0,45,0,.2,0,.3,0,.5-.2,0-.4,0-.6,0-22.4,0-44.9,0-67.3,0-.2,0-.4,0-.6,0ZM71.2,148.5c-.1,0-.2-.2-.2-.3-.5-1.4-1-2.8-1.5-4.1-2.1-5.7-4.2-11.3-6.3-17,0-.3-.2-.3-.5-.3-9.5,0-18.9,0-28.4,0-.4,0-.4.1-.4.4,0,1.8,0,3.6,0,5.4,0,.3,0,.4.4.4,2.9,0,5.7,0,8.6,0,.4,0,.5.1.5.5,0,7.9,0,15.8,0,23.7,0,.5,0,.5.5.5,1.9,0,3.8,0,5.7,0,.6,0,.6,0,.6-.6,0-7.9,0-15.7,0-23.6,0-.5,0-.5.5-.5,2.4,0,4.7,0,7.1,0,.3,0,.5.1.6.4,1.5,3.7,3,7.4,4.4,11.1,1.8,4.4,3.5,8.8,5.3,13.1,0,.2.2.3.4.3,1.8,0,3.7,0,5.5,0,.2,0,.3,0,.4-.3.2-.4.3-.9.5-1.3,1.4-3.5,2.8-7,4.2-10.5,1.3-3.2,2.6-6.5,3.9-9.7,1.2-3,2.4-6,3.6-9.1.1-.3,0-.4-.2-.4-2.2,0-4.5,0-6.7,0-.2,0-.3,0-.4.3-.7,2-1.5,4-2.2,6.1-1.7,4.7-3.5,9.4-5.2,14.1-.2.5-.3.9-.5,1.4Z"/>
          <path class="cls-4" d="M25.5,164.7c.2,0,.4,0,.6,0,22.4,0,44.9,0,67.3,0,.2,0,.4,0,.6,0,0,0,0,0,0,0,0,0,0,0,0,0,0,0,0,0,0,0,.2,0,.3,0,.5,0,48.1,0,96.2,0,144.3,0q.5,0,.5-.5c0-14.9,0-29.9,0-44.8,0-.2,0-.4,0-.6,0,0,0,0,0,0,6.1,0,12.3,0,18.4,0,.3,0,.3,0,.3.3,0,15.2,0,30.4,0,45.5,0,.3,0,.4-.4.4-70,0-139.9,0-209.9,0s-14.6,0-22,0c-.2,0-.4,0-.3-.2ZM257.1,141.3c0-4.3,0-8.7,0-13,0-.7,0-1.5,0-2.2,0-.3,0-.3-.3-.2-.5.2-1,.3-1.6.5-1.8.6-3.6,1.2-5.4,1.8-1.7.6-3.4,1.1-5.1,1.7-.3,0-.4.2-.4.5,0,1.8,0,3.6,0,5.4,0,.4,0,.4.4.3,1.7-.5,3.3-1,5-1.5.6-.2.6-.2.6.4,0,7.1,0,14.2,0,21.3,0,.3,0,.5.4.5,2,0,3.9,0,5.9,0,.4,0,.5-.1.5-.5,0-5,0-10,0-15Z"/>
          <path class="cls-1" d="M239.2,118.7c0,.2,0,.4,0,.6,0,14.9,0,29.9,0,44.8q0,.5-.5.5c-48.1,0-96.2,0-144.3,0-.2,0-.3,0-.5,0,0,0,0,0,0,0,0,0,0,0,0,0,0-.2,0-.3,0-.5,0-15,0-30,0-45,0-.4,0-.5.5-.5,48.1,0,96.2,0,144.4,0,.2,0,.3,0,.5,0ZM123.6,141.5c.2-.1.3-.2.5-.3.9-.5,1.6-1.2,2.2-2,1-1.4,1.3-2.9,1.3-4.6,0-2.5-1.1-4.5-3.1-5.9-2-1.4-4.2-1.9-6.6-1.9-4.8,0-9.6,0-14.5,0-.3,0-.4,0-.4.4,0,3.9,0,7.7,0,11.6,0,6.2,0,12.4,0,18.6,0,.2,0,.4.3.4,5.2,0,10.5,0,15.7,0,2,0,3.9-.4,5.7-1.3,1.7-.8,3.1-2,3.9-3.8.6-1.3.7-2.6.6-4-.1-2.6-1.2-4.6-3.4-5.9-.7-.4-1.5-.8-2.3-1.1ZM186,145.7s0,0,0,0c-2.5-3.3-5-6.6-7.5-9.8-2.2-3-4.5-5.9-6.7-8.9-.1-.2-.3-.3-.5-.3-1.9,0-3.8,0-5.6,0-.3,0-.3,0-.3.4,0,10.1,0,20.2,0,30.3,0,.3,0,.4.4.4,1.9,0,3.8,0,5.7,0q.6,0,.6-.7c0-6.2,0-12.3,0-18.5,0-.1,0-.3,0-.5,0,0,.1.1.2.2,1.3,1.7,2.5,3.3,3.8,5,3.6,4.7,7.2,9.4,10.8,14.1.1.2.3.3.5.3,1.7,0,3.3,0,5,0,.4,0,.5,0,.5-.5,0-10.1,0-20.1,0-30.2,0-.3-.1-.4-.4-.4-2,0-3.9,0-5.9,0-.4,0-.5,0-.5.5,0,5.8,0,11.6,0,17.4,0,.4,0,.7,0,1.1ZM197.9,141.9c0,1.3,0,2.3.3,3.2,1.1,5.6,4.3,9.6,9.6,11.8,3.3,1.4,6.7,1.6,10.2.9,3.9-.8,7.2-2.7,9.6-5.9,2.9-3.8,3.9-8,3.1-12.7-.9-5-3.6-8.7-8.1-11.2-2.9-1.6-6.1-2.1-9.4-1.9-2.7.2-5.3.9-7.6,2.4-5,3.1-7.4,7.8-7.6,13.3ZM160.8,157.7c-.1-.2-.2-.3-.2-.4-2.3-3.4-4.7-6.8-7-10.2-.3-.5-.3-.5.2-.7.1,0,.2,0,.3-.1,2.3-1,4.1-2.6,5-5,.9-2.1,1-4.4.6-6.6-.4-2.5-1.6-4.5-3.7-5.9-2.2-1.5-4.7-2.1-7.2-2.1-4.8,0-9.5,0-14.3,0-.3,0-.4,0-.4.4,0,10,0,20.1,0,30.1,0,.5,0,.5.5.5,2,0,3.9,0,5.9,0,.4,0,.4-.1.4-.4,0-3,0-6.1,0-9.1,0-.3,0-.4.4-.4,1.5,0,3,0,4.5,0,.3,0,.5.1.7.4,2,3.1,4.1,6.1,6.1,9.2.2.2.3.3.6.3,2,0,3.9,0,5.9,0,.5,0,1,0,1.6,0Z"/>
          <path class="cls-4" d="M71.2,148.5c.2-.5.4-.9.5-1.4,1.7-4.7,3.5-9.4,5.2-14.1.7-2,1.5-4,2.2-6.1,0-.2.2-.3.4-.3,2.2,0,4.5,0,6.7,0,.3,0,.3.1.2.4-1.2,3-2.4,6-3.6,9.1-1.3,3.2-2.6,6.5-3.9,9.7-1.4,3.5-2.8,7-4.2,10.5-.2.4-.4.9-.5,1.3,0,.2-.2.3-.4.3-1.8,0-3.7,0-5.5,0-.2,0-.3,0-.4-.3-1.7-4.4-3.5-8.8-5.3-13.1-1.5-3.7-3-7.4-4.4-11.1-.1-.3-.3-.4-.6-.4-2.4,0-4.7,0-7.1,0-.5,0-.5,0-.5.5,0,7.9,0,15.7,0,23.6,0,.6,0,.6-.6.6-1.9,0-3.8,0-5.7,0-.5,0-.5,0-.5-.5,0-7.9,0-15.8,0-23.7,0-.4,0-.5-.5-.5-2.9,0-5.7,0-8.6,0-.3,0-.4,0-.4-.4,0-1.8,0-3.6,0-5.4,0-.3,0-.4.4-.4,9.5,0,18.9,0,28.4,0,.2,0,.4,0,.5.3,2.1,5.7,4.2,11.3,6.3,17,.5,1.4,1,2.8,1.5,4.1,0,.1,0,.2.2.3Z"/>
          <path class="cls-3" d="M257.1,141.3c0,5,0,10,0,15,0,.4,0,.5-.5.5-2,0-3.9,0-5.9,0-.4,0-.4-.1-.4-.5,0-7.1,0-14.2,0-21.3,0-.6,0-.6-.6-.4-1.7.5-3.3,1-5,1.5-.4.1-.4.1-.4-.3,0-1.8,0-3.6,0-5.4,0-.3.1-.4.4-.5,1.7-.6,3.4-1.1,5.1-1.7,1.8-.6,3.6-1.2,5.4-1.8.5-.2,1-.3,1.6-.5.2,0,.3,0,.3.2,0,.7,0,1.5,0,2.2,0,4.3,0,8.7,0,13Z"/>
          <path class="cls-3" d="M94,164.6s0,0,0,0c0,0,0,0,0,0,0,0,0,0,0,0Z"/>
          <path class="cls-4" d="M123.6,141.5c.8.4,1.6.7,2.3,1.1,2.2,1.4,3.3,3.3,3.4,5.9,0,1.4,0,2.7-.6,4-.8,1.8-2.2,3-3.9,3.8-1.8.8-3.7,1.2-5.7,1.3-5.2.1-10.5,0-15.7,0-.4,0-.3-.2-.3-.4,0-6.2,0-12.4,0-18.6,0-3.9,0-7.7,0-11.6,0-.3,0-.4.4-.4,4.8,0,9.6,0,14.5,0,2.4,0,4.6.5,6.6,1.9,2,1.4,3.1,3.4,3.1,5.9,0,1.7-.3,3.3-1.3,4.6-.6.8-1.4,1.5-2.2,2-.1,0-.3.2-.5.3ZM114.6,144.9c-1.7,0-3.2,0-4.6,0-.3,0-.4,0-.4.4,0,2,0,4.1,0,6.1,0,.3,0,.3.4.3,2.7,0,5.4,0,8.1,0,.9,0,1.8-.1,2.6-.5,2-.9,2.5-3.6.9-5.1-.9-.8-2-1.1-3.1-1.1-1.4-.1-2.9,0-4,0ZM113.1,139.3c.7,0,1.4,0,2.1,0,.9,0,1.9,0,2.8-.2,1.6-.3,2.5-1.2,2.7-2.6.2-1.4-.4-2.6-1.7-3.2-.7-.3-1.5-.5-2.3-.5-2.3,0-4.6,0-6.8,0-.3,0-.3,0-.3.3,0,2,0,3.9,0,5.9,0,.3.1.3.4.3,1.1,0,2.1,0,3.2,0Z"/>
          <path class="cls-4" d="M186,145.7c0-.4,0-.7,0-1.1,0-5.8,0-11.6,0-17.4,0-.4,0-.5.5-.5,2,0,3.9,0,5.9,0,.3,0,.4,0,.4.4,0,10.1,0,20.1,0,30.2,0,.4,0,.5-.5.5-1.7,0-3.3,0-5,0-.2,0-.4,0-.5-.3-3.6-4.7-7.2-9.4-10.8-14.1-1.3-1.7-2.5-3.3-3.8-5,0,0-.1-.1-.2-.2-.1.2,0,.3,0,.5,0,6.2,0,12.3,0,18.5q0,.7-.6.7c-1.9,0-3.8,0-5.7,0-.3,0-.4,0-.4-.4,0-10.1,0-20.2,0-30.3,0-.3,0-.4.3-.4,1.9,0,3.8,0,5.6,0,.2,0,.4,0,.5.3,2.2,3,4.5,5.9,6.7,8.9,2.5,3.3,5,6.6,7.5,9.8,0,0,0,0,0,0Z"/>
          <path class="cls-4" d="M197.9,141.9c.2-5.5,2.6-10.1,7.6-13.3,2.3-1.5,4.9-2.2,7.6-2.4,3.3-.2,6.5.3,9.4,1.9,4.5,2.4,7.2,6.2,8.1,11.2.8,4.6-.2,8.9-3.1,12.7-2.4,3.2-5.7,5.1-9.6,5.9-3.5.7-6.9.5-10.2-.9-5.3-2.2-8.5-6.2-9.6-11.8-.2-.9-.2-1.9-.3-3.2ZM214.2,132.5c-.3,0-.6,0-1,0-2.9.3-5.1,1.7-6.7,4.2-1.3,2.1-1.7,4.4-1.4,6.8.2,2,1,3.8,2.3,5.3,2.1,2.3,4.7,3.3,7.9,3.1,2.7-.2,4.9-1.4,6.5-3.6,1.7-2.3,2.2-4.9,1.8-7.8-.7-4.7-4.5-8-9.3-8Z"/>
          <path class="cls-4" d="M160.8,157.7c-.6,0-1.1,0-1.6,0-2,0-3.9,0-5.9,0-.3,0-.5,0-.6-.3-2-3.1-4.1-6.1-6.1-9.2-.2-.3-.4-.4-.7-.4-1.5,0-3,0-4.5,0-.3,0-.4,0-.4.4,0,3,0,6.1,0,9.1,0,.3,0,.4-.4.4-2,0-3.9,0-5.9,0-.5,0-.5,0-.5-.5,0-10,0-20.1,0-30.1,0-.3,0-.4.4-.4,4.8,0,9.5,0,14.3,0,2.6,0,5.1.6,7.2,2.1,2.1,1.4,3.3,3.4,3.7,5.9.4,2.2.3,4.5-.6,6.6-1,2.4-2.7,4-5,5-.1,0-.2,0-.3.1-.5.2-.5.2-.2.7,2.3,3.4,4.7,6.8,7,10.2,0,0,.1.2.2.4ZM140.9,137.3h0c0,1.4,0,2.7,0,4.1,0,.3,0,.4.4.4,2.2,0,4.5,0,6.7,0,.4,0,.8,0,1.2,0,1.4-.3,2.6-.8,3.3-2.1.6-1.1.7-2.3.4-3.5-.2-1.1-.8-1.9-1.8-2.4-1-.6-2.1-.8-3.2-.8-2.2,0-4.4,0-6.6,0-.3,0-.4,0-.4.4,0,1.4,0,2.7,0,4.1Z"/>
          <path class="cls-1" d="M114.6,144.9c1.1,0,2.6,0,4,0,1.1,0,2.2.3,3.1,1.1,1.5,1.5,1,4.2-.9,5.1-.8.4-1.7.5-2.6.5-2.7,0-5.4,0-8.1,0-.3,0-.4,0-.4-.3,0-2,0-4.1,0-6.1,0-.3.1-.4.4-.4,1.4,0,2.9,0,4.6,0Z"/>
          <path class="cls-1" d="M113.1,139.3c-1.1,0-2.1,0-3.2,0-.3,0-.4,0-.4-.3,0-2,0-3.9,0-5.9,0-.3,0-.3.3-.3,2.3,0,4.6,0,6.8,0,.8,0,1.6.1,2.3.5,1.3.6,2,1.8,1.7,3.2-.2,1.4-1.1,2.3-2.7,2.6-.9.2-1.9.2-2.8.2-.7,0-1.4,0-2.1,0Z"/>
          <path class="cls-1" d="M214.2,132.5c4.8,0,8.6,3.3,9.3,8,.4,2.8,0,5.4-1.8,7.8-1.6,2.2-3.8,3.4-6.5,3.6-3.1.3-5.8-.7-7.9-3.1-1.3-1.5-2.1-3.3-2.3-5.3-.3-2.4,0-4.7,1.4-6.8,1.6-2.5,3.8-3.8,6.7-4.2.4,0,.7,0,1,0Z"/>
          <path class="cls-1" d="M140.9,137.3c0-1.4,0-2.7,0-4.1,0-.3,0-.4.4-.4,2.2,0,4.4,0,6.6,0,1.1,0,2.2.2,3.2.8.9.6,1.6,1.4,1.8,2.4.3,1.2.2,2.4-.4,3.5-.7,1.3-1.9,1.8-3.3,2.1-.4,0-.8,0-1.2,0-2.2,0-4.5,0-6.7,0-.3,0-.4,0-.4-.4,0-1.4,0-2.7,0-4.1h0Z"/>
        </g>
      </g>
    </g>
  </g>
</svg>