<svg width="284" height="284" viewBox="0 0 284 284" fill="none" xmlns="http://www.w3.org/2000/svg">
<rect width="283.5" height="283.5" fill="white"/>
<path d="M47.5668 188.479V170.646H41.541V167.485H57.1001V170.646H51.1V188.479H47.5797H47.5668Z" fill="black"/>
<path d="M64.462 188.479L57.6396 167.485H61.2757L66.6848 184.689L72.0938 167.485H75.7299L68.9075 188.479H64.4749H64.462Z" fill="black"/>
<path d="M84.6338 188.479V167.485H92.651C94.6297 167.485 96.0815 167.947 97.0323 168.872C97.983 169.798 98.4584 171.159 98.4584 172.945C98.4584 173.78 98.3299 174.513 98.073 175.155C97.816 175.798 97.4691 176.312 97.0323 176.723C96.5954 177.134 96.0815 177.416 95.4905 177.558C95.9273 177.673 96.3642 177.853 96.7881 178.085C97.2121 178.329 97.6104 178.65 97.9702 179.061C98.3299 179.472 98.6126 179.986 98.831 180.59C99.0366 181.194 99.1394 181.888 99.1394 182.684C99.1394 184.123 98.8952 185.267 98.4199 186.115C97.9445 186.963 97.2378 187.567 96.3128 187.939C95.3877 188.312 94.2828 188.492 92.9979 188.492H84.6338V188.479ZM88.1285 176.363H92.7153C93.4219 176.363 93.9872 176.106 94.4241 175.579C94.8609 175.052 95.0922 174.371 95.105 173.524C95.1179 172.444 94.8866 171.699 94.4112 171.275C93.923 170.864 93.332 170.646 92.6382 170.646H88.1413V176.363H88.1285ZM88.1285 185.318H92.8823C93.4733 185.318 93.9872 185.215 94.4241 185.01C94.8609 184.804 95.195 184.47 95.4391 183.995C95.6832 183.532 95.7988 182.89 95.7988 182.068C95.7988 181.425 95.6704 180.885 95.4262 180.449C95.1821 180.012 94.8352 179.678 94.3984 179.434C93.9616 179.202 93.4605 179.074 92.8952 179.074H88.1413V185.305L88.1285 185.318Z" fill="black"/>
<path d="M101.67 188.479V167.485H110.201C110.972 167.485 111.717 167.575 112.411 167.755C113.105 167.935 113.721 168.256 114.261 168.731C114.801 169.207 115.225 169.862 115.546 170.71C115.867 171.558 116.008 172.65 116.008 173.999C116.008 175.04 115.906 175.913 115.7 176.607C115.495 177.301 115.212 177.866 114.878 178.303C114.531 178.74 114.158 179.074 113.721 179.318C113.298 179.562 112.874 179.755 112.45 179.896L116.484 188.492H112.925L109.289 180.41H108.364C108.017 180.41 107.644 180.41 107.272 180.397C106.886 180.397 106.527 180.384 106.167 180.372C105.807 180.359 105.473 180.359 105.165 180.359V188.492H101.67V188.479ZM105.165 177.584H109.597C110.008 177.584 110.394 177.532 110.728 177.429C111.075 177.327 111.37 177.134 111.64 176.877C111.91 176.607 112.103 176.247 112.257 175.798C112.398 175.348 112.475 174.757 112.475 174.037C112.475 173.318 112.411 172.765 112.257 172.316C112.115 171.866 111.91 171.532 111.64 171.288C111.37 171.057 111.062 170.89 110.715 170.787C110.368 170.697 109.996 170.646 109.597 170.646H105.165V177.584Z" fill="black"/>
<path d="M118 188.479L124.823 167.485H129.255L136.078 188.479H132.403L130.784 183.494H123.191L121.598 188.479H117.987H118ZM124.026 180.346H129.936L126.981 170.504L124.026 180.346Z" fill="black"/>
<path d="M141.216 188.479V170.646H135.19V167.485H150.75V170.646H144.749V188.479H141.229H141.216Z" fill="black"/>
<path d="M152.587 188.479V167.485H156.082V188.479H152.587Z" fill="black"/>
<path d="M166.219 188.646C165.705 188.646 165.165 188.633 164.587 188.607C164.009 188.582 163.418 188.53 162.827 188.466C162.223 188.402 161.67 188.337 161.131 188.26C160.604 188.196 160.129 188.119 159.705 188.016V185.254C160.231 185.292 160.861 185.331 161.568 185.369C162.274 185.408 163.019 185.434 163.803 185.459C164.574 185.472 165.332 185.485 166.052 185.485C166.81 185.485 167.478 185.421 168.069 185.267C168.66 185.125 169.109 184.868 169.431 184.509C169.752 184.149 169.919 183.635 169.919 182.967V181.965C169.919 181.22 169.713 180.654 169.289 180.256C168.878 179.858 168.261 179.652 167.439 179.652H165.473C163.559 179.652 162.082 179.241 161.054 178.393C160.026 177.558 159.499 176.132 159.499 174.102V173.022C159.499 170.992 160.064 169.528 161.195 168.628C162.326 167.729 163.944 167.279 166.039 167.279C166.758 167.279 167.503 167.318 168.274 167.382C169.045 167.446 169.778 167.523 170.484 167.626C171.191 167.729 171.782 167.832 172.27 167.935V170.697C171.435 170.646 170.484 170.581 169.418 170.53C168.351 170.478 167.349 170.44 166.45 170.44C165.73 170.44 165.088 170.517 164.548 170.671C163.996 170.825 163.585 171.095 163.302 171.481C163.019 171.866 162.878 172.444 162.878 173.202V173.883C162.878 174.783 163.122 175.399 163.598 175.759C164.086 176.119 164.78 176.299 165.692 176.299H167.876C169.109 176.299 170.124 176.53 170.921 176.98C171.718 177.429 172.309 178.059 172.694 178.843C173.08 179.626 173.272 180.526 173.272 181.528V182.864C173.272 184.419 172.964 185.614 172.36 186.449C171.756 187.284 170.921 187.849 169.855 188.158C168.788 188.466 167.581 188.607 166.206 188.607L166.219 188.646Z" fill="black"/>
<path d="M180.776 188.479C179.787 188.479 178.939 188.325 178.233 188.029C177.526 187.721 176.986 187.232 176.627 186.539C176.267 185.845 176.087 184.933 176.087 183.789V167.485H179.582V183.211C179.582 183.738 179.672 184.162 179.864 184.483C180.057 184.804 180.301 185.01 180.622 185.125C180.931 185.241 181.278 185.292 181.663 185.292H188.627V188.479H180.776Z" fill="black"/>
<path d="M190.541 188.479L197.364 167.485H201.796L208.619 188.479H204.944L203.325 183.494H195.732L194.139 188.479H190.516H190.541ZM196.567 180.346H202.477L199.522 170.504L196.567 180.346Z" fill="black"/>
<path d="M214.606 188.479L207.783 167.485H211.419L216.828 184.689L222.237 167.485H225.873L219.051 188.479H214.618H214.606Z" fill="black"/>
<path d="M223.882 188.479L230.705 167.485H235.137L241.96 188.479H238.285L236.666 183.494H229.073L227.48 188.479H223.856H223.882ZM229.908 180.346H235.818L232.863 170.504L229.908 180.346Z" fill="black"/>
<path d="M47.5668 188.479V170.646H41.541V167.485H57.1001V170.646H51.1V188.479H47.5797H47.5668Z" fill="url(#paint0_linear_31_227)"/>
<path d="M64.462 188.479L57.6396 167.485H61.2757L66.6848 184.689L72.0938 167.485H75.7299L68.9075 188.479H64.4749H64.462Z" fill="url(#paint1_linear_31_227)"/>
<path d="M84.6338 188.479V167.485H92.651C94.6297 167.485 96.0815 167.947 97.0323 168.872C97.983 169.798 98.4584 171.159 98.4584 172.945C98.4584 173.78 98.3299 174.513 98.073 175.155C97.816 175.798 97.4691 176.312 97.0323 176.723C96.5954 177.134 96.0815 177.416 95.4905 177.558C95.9273 177.673 96.3642 177.853 96.7881 178.085C97.2121 178.329 97.6104 178.65 97.9702 179.061C98.3299 179.472 98.6126 179.986 98.831 180.59C99.0366 181.194 99.1394 181.888 99.1394 182.684C99.1394 184.123 98.8952 185.267 98.4199 186.115C97.9445 186.963 97.2378 187.567 96.3128 187.939C95.3877 188.312 94.2828 188.492 92.9979 188.492H84.6338V188.479ZM88.1285 176.363H92.7153C93.4219 176.363 93.9872 176.106 94.4241 175.579C94.8609 175.052 95.0922 174.371 95.105 173.524C95.1179 172.444 94.8866 171.699 94.4112 171.275C93.923 170.864 93.332 170.646 92.6382 170.646H88.1413V176.363H88.1285ZM88.1285 185.318H92.8823C93.4733 185.318 93.9872 185.215 94.4241 185.01C94.8609 184.804 95.195 184.47 95.4391 183.995C95.6832 183.532 95.7988 182.89 95.7988 182.068C95.7988 181.425 95.6704 180.885 95.4262 180.449C95.1821 180.012 94.8352 179.678 94.3984 179.434C93.9616 179.202 93.4605 179.074 92.8952 179.074H88.1413V185.305L88.1285 185.318Z" fill="url(#paint2_linear_31_227)"/>
<path d="M101.67 188.479V167.485H110.201C110.972 167.485 111.717 167.575 112.411 167.755C113.105 167.935 113.721 168.256 114.261 168.731C114.801 169.207 115.225 169.862 115.546 170.71C115.867 171.558 116.008 172.65 116.008 173.999C116.008 175.04 115.906 175.913 115.7 176.607C115.495 177.301 115.212 177.866 114.878 178.303C114.531 178.74 114.158 179.074 113.721 179.318C113.298 179.562 112.874 179.755 112.45 179.896L116.484 188.492H112.925L109.289 180.41H108.364C108.017 180.41 107.644 180.41 107.272 180.397C106.886 180.397 106.527 180.384 106.167 180.372C105.807 180.359 105.473 180.359 105.165 180.359V188.492H101.67V188.479ZM105.165 177.584H109.597C110.008 177.584 110.394 177.532 110.728 177.429C111.075 177.327 111.37 177.134 111.64 176.877C111.91 176.607 112.103 176.247 112.257 175.798C112.398 175.348 112.475 174.757 112.475 174.037C112.475 173.318 112.411 172.765 112.257 172.316C112.115 171.866 111.91 171.532 111.64 171.288C111.37 171.057 111.062 170.89 110.715 170.787C110.368 170.697 109.996 170.646 109.597 170.646H105.165V177.584Z" fill="url(#paint3_linear_31_227)"/>
<path d="M118 188.479L124.823 167.485H129.255L136.078 188.479H132.403L130.784 183.494H123.191L121.598 188.479H117.987H118ZM124.026 180.346H129.936L126.981 170.504L124.026 180.346Z" fill="url(#paint4_linear_31_227)"/>
<path d="M141.216 188.479V170.646H135.19V167.485H150.75V170.646H144.749V188.479H141.229H141.216Z" fill="url(#paint5_linear_31_227)"/>
<path d="M152.587 188.479V167.485H156.082V188.479H152.587Z" fill="url(#paint6_linear_31_227)"/>
<path d="M166.219 188.646C165.705 188.646 165.165 188.633 164.587 188.607C164.009 188.582 163.418 188.53 162.827 188.466C162.223 188.402 161.67 188.337 161.131 188.26C160.604 188.196 160.129 188.119 159.705 188.016V185.254C160.231 185.292 160.861 185.331 161.568 185.369C162.274 185.408 163.019 185.434 163.803 185.459C164.574 185.472 165.332 185.485 166.052 185.485C166.81 185.485 167.478 185.421 168.069 185.267C168.66 185.125 169.109 184.868 169.431 184.509C169.752 184.149 169.919 183.635 169.919 182.967V181.965C169.919 181.22 169.713 180.654 169.289 180.256C168.878 179.858 168.261 179.652 167.439 179.652H165.473C163.559 179.652 162.082 179.241 161.054 178.393C160.026 177.558 159.499 176.132 159.499 174.102V173.022C159.499 170.992 160.064 169.528 161.195 168.628C162.326 167.729 163.944 167.279 166.039 167.279C166.758 167.279 167.503 167.318 168.274 167.382C169.045 167.446 169.778 167.523 170.484 167.626C171.191 167.729 171.782 167.832 172.27 167.935V170.697C171.435 170.646 170.484 170.581 169.418 170.53C168.351 170.478 167.349 170.44 166.45 170.44C165.73 170.44 165.088 170.517 164.548 170.671C163.996 170.825 163.585 171.095 163.302 171.481C163.019 171.866 162.878 172.444 162.878 173.202V173.883C162.878 174.783 163.122 175.399 163.598 175.759C164.086 176.119 164.78 176.299 165.692 176.299H167.876C169.109 176.299 170.124 176.53 170.921 176.98C171.718 177.429 172.309 178.059 172.694 178.843C173.08 179.626 173.272 180.526 173.272 181.528V182.864C173.272 184.419 172.964 185.614 172.36 186.449C171.756 187.284 170.921 187.849 169.855 188.158C168.788 188.466 167.581 188.607 166.206 188.607L166.219 188.646Z" fill="url(#paint7_linear_31_227)"/>
<path d="M180.776 188.479C179.787 188.479 178.939 188.325 178.233 188.029C177.526 187.721 176.986 187.232 176.627 186.539C176.267 185.845 176.087 184.933 176.087 183.789V167.485H179.582V183.211C179.582 183.738 179.672 184.162 179.864 184.483C180.057 184.804 180.301 185.01 180.622 185.125C180.931 185.241 181.278 185.292 181.663 185.292H188.627V188.479H180.776Z" fill="url(#paint8_linear_31_227)"/>
<path d="M190.541 188.479L197.364 167.485H201.796L208.619 188.479H204.944L203.325 183.494H195.732L194.139 188.479H190.516H190.541ZM196.567 180.346H202.477L199.522 170.504L196.567 180.346Z" fill="url(#paint9_linear_31_227)"/>
<path d="M214.606 188.479L207.783 167.485H211.419L216.828 184.689L222.237 167.485H225.873L219.051 188.479H214.618H214.606Z" fill="url(#paint10_linear_31_227)"/>
<path d="M223.882 188.479L230.705 167.485H235.137L241.96 188.479H238.285L236.666 183.494H229.073L227.48 188.479H223.856H223.882ZM229.908 180.346H235.818L232.863 170.504L229.908 180.346Z" fill="url(#paint11_linear_31_227)"/>
<path d="M138.634 99.8393H117.075V121.399H138.634V99.8393Z" fill="#303062"/>
<mask id="mask0_31_227" style="mask-type:luminance" maskUnits="userSpaceOnUse" x="117" y="99" width="22" height="23">
<path d="M138.634 99.8393H117.075V121.399H138.634V99.8393Z" fill="white"/>
</mask>
<g mask="url(#mask0_31_227)">
<path d="M141.075 163.669C162.831 163.669 180.468 146.032 180.468 124.276C180.468 102.521 162.831 84.884 141.075 84.884C119.319 84.884 101.683 102.521 101.683 124.276C101.683 146.032 119.319 163.669 141.075 163.669Z" fill="url(#paint12_radial_31_227)"/>
</g>
<path d="M165.192 126.165H143.633V147.724H165.192V126.165Z" fill="#303062"/>
<mask id="mask1_31_227" style="mask-type:luminance" maskUnits="userSpaceOnUse" x="143" y="126" width="23" height="22">
<path d="M165.191 126.165H143.632V147.724H165.191V126.165Z" fill="white"/>
</mask>
<g mask="url(#mask1_31_227)">
<path d="M141.075 163.669C162.831 163.669 180.468 146.032 180.468 124.277C180.468 102.521 162.831 84.884 141.075 84.884C119.319 84.884 101.683 102.521 101.683 124.277C101.683 146.032 119.319 163.669 141.075 163.669Z" fill="url(#paint13_radial_31_227)"/>
</g>
<path d="M170.19 94.8542H143.633V121.411H170.19V94.8542Z" fill="#60091A"/>
<mask id="mask2_31_227" style="mask-type:luminance" maskUnits="userSpaceOnUse" x="143" y="94" width="28" height="28">
<path d="M170.189 94.8542H143.632V121.411H170.189V94.8542Z" fill="white"/>
</mask>
<g mask="url(#mask2_31_227)">
<path d="M141.076 165.943C164.088 165.943 182.742 147.288 182.742 124.276C182.742 101.265 164.088 82.6099 141.076 82.6099C118.064 82.6099 99.4092 101.265 99.4092 124.276C99.4092 147.288 118.064 165.943 141.076 165.943Z" fill="url(#paint14_radial_31_227)"/>
</g>
<path d="M138.648 126.165H112.091V152.722H138.648V126.165Z" fill="#302F61"/>
<mask id="mask3_31_227" style="mask-type:luminance" maskUnits="userSpaceOnUse" x="112" y="126" width="27" height="27">
<path d="M138.647 126.165H112.09V152.722H138.647V126.165Z" fill="white"/>
</mask>
<g mask="url(#mask3_31_227)">
<path d="M141.076 163.669C162.832 163.669 180.469 146.032 180.469 124.277C180.469 102.521 162.832 84.884 141.076 84.884C119.32 84.884 101.684 102.521 101.684 124.277C101.684 146.032 119.32 163.669 141.076 163.669Z" fill="url(#paint15_radial_31_227)"/>
</g>
<defs>
<linearGradient id="paint0_linear_31_227" x1="49.327" y1="188.646" x2="49.327" y2="167.305" gradientUnits="userSpaceOnUse">
<stop stop-color="#505A9E"/>
<stop offset="1" stop-color="#36377A"/>
</linearGradient>
<linearGradient id="paint1_linear_31_227" x1="66.6848" y1="9461.46" x2="66.6848" y2="9461.46" gradientUnits="userSpaceOnUse">
<stop stop-color="#505A9E"/>
<stop offset="1" stop-color="#36377A"/>
</linearGradient>
<linearGradient id="paint2_linear_31_227" x1="91.893" y1="9461.46" x2="91.893" y2="9461.46" gradientUnits="userSpaceOnUse">
<stop stop-color="#505A9E"/>
<stop offset="1" stop-color="#36377A"/>
</linearGradient>
<linearGradient id="paint3_linear_31_227" x1="109.083" y1="188.646" x2="109.083" y2="167.305" gradientUnits="userSpaceOnUse">
<stop stop-color="#505A9E"/>
<stop offset="1" stop-color="#36377A"/>
</linearGradient>
<linearGradient id="paint4_linear_31_227" x1="127.045" y1="9461.46" x2="127.045" y2="9461.46" gradientUnits="userSpaceOnUse">
<stop stop-color="#505A9E"/>
<stop offset="1" stop-color="#36377A"/>
</linearGradient>
<linearGradient id="paint5_linear_31_227" x1="142.964" y1="9461.46" x2="142.964" y2="9461.46" gradientUnits="userSpaceOnUse">
<stop stop-color="#505A9E"/>
<stop offset="1" stop-color="#36377A"/>
</linearGradient>
<linearGradient id="paint6_linear_31_227" x1="154.334" y1="9461.46" x2="154.334" y2="9461.46" gradientUnits="userSpaceOnUse">
<stop stop-color="#505A9E"/>
<stop offset="1" stop-color="#36377A"/>
</linearGradient>
<linearGradient id="paint7_linear_31_227" x1="166.386" y1="188.646" x2="166.386" y2="167.305" gradientUnits="userSpaceOnUse">
<stop stop-color="#505A9E"/>
<stop offset="1" stop-color="#36377A"/>
</linearGradient>
<linearGradient id="paint8_linear_31_227" x1="182.357" y1="9461.46" x2="182.357" y2="167.305" gradientUnits="userSpaceOnUse">
<stop stop-color="#505A9E"/>
<stop offset="1" stop-color="#36377A"/>
</linearGradient>
<linearGradient id="paint9_linear_31_227" x1="199.586" y1="9461.46" x2="199.586" y2="9461.46" gradientUnits="userSpaceOnUse">
<stop stop-color="#505A9E"/>
<stop offset="1" stop-color="#36377A"/>
</linearGradient>
<linearGradient id="paint10_linear_31_227" x1="216.815" y1="9461.46" x2="216.815" y2="9461.46" gradientUnits="userSpaceOnUse">
<stop stop-color="#505A9E"/>
<stop offset="1" stop-color="#36377A"/>
</linearGradient>
<linearGradient id="paint11_linear_31_227" x1="232.927" y1="9461.46" x2="232.927" y2="9461.46" gradientUnits="userSpaceOnUse">
<stop stop-color="#505A9E"/>
<stop offset="1" stop-color="#36377A"/>
</linearGradient>
<radialGradient id="paint12_radial_31_227" cx="0" cy="0" r="1" gradientUnits="userSpaceOnUse" gradientTransform="translate(141.075 124.276) scale(39.3925 39.3925)">
<stop stop-color="#475FA5"/>
<stop offset="1" stop-color="#475EAF" stop-opacity="0"/>
</radialGradient>
<radialGradient id="paint13_radial_31_227" cx="0" cy="0" r="1" gradientUnits="userSpaceOnUse" gradientTransform="translate(141.075 124.276) scale(39.3925 39.3925)">
<stop stop-color="#475FA5"/>
<stop offset="1" stop-color="#475EAF" stop-opacity="0"/>
</radialGradient>
<radialGradient id="paint14_radial_31_227" cx="0" cy="0" r="1" gradientUnits="userSpaceOnUse" gradientTransform="translate(141.076 124.276) scale(41.6666 41.6666)">
<stop stop-color="#FF1A2D"/>
<stop offset="0.08" stop-color="#F91A2D"/>
<stop offset="0.41" stop-color="#E21A2D"/>
<stop offset="0.73" stop-color="#D41A2D"/>
<stop offset="1" stop-color="#CF1A2D"/>
</radialGradient>
<radialGradient id="paint15_radial_31_227" cx="0" cy="0" r="1" gradientUnits="userSpaceOnUse" gradientTransform="translate(141.076 124.276) scale(39.3925 39.3925)">
<stop stop-color="#475FA5"/>
<stop offset="1" stop-color="#475EAF" stop-opacity="0"/>
</radialGradient>
</defs>
</svg>
