<svg width="500" height="500" viewBox="0 0 500 500" fill="none" xmlns="http://www.w3.org/2000/svg">
<g clip-path="url(#clip0_8_104)">
<rect width="500" height="500" fill="white"/>
<rect width="500" height="500" fill="#04437B"/>
<path d="M241.393 139.447C243.34 140.939 244.55 142.755 245.666 144.886C245.741 146.833 245.772 148.765 245.771 150.713C245.774 151.324 245.777 151.934 245.779 152.564C245.787 154.623 245.79 156.682 245.793 158.741C245.797 160.213 245.802 161.684 245.807 163.156C245.822 168.005 245.829 172.855 245.836 177.704C245.839 179.375 245.842 181.046 245.845 182.717C245.859 190.577 245.869 198.437 245.875 206.297C245.882 215.352 245.9 224.406 245.929 233.46C245.951 240.466 245.961 247.472 245.963 254.479C245.965 258.658 245.971 262.838 245.989 267.017C246.006 270.96 246.009 274.902 246.002 278.845C246.001 280.282 246.006 281.719 246.016 283.156C246.09 294.658 245.227 306.329 240.102 316.927C239.733 317.723 239.733 317.723 239.356 318.536C237.341 322.778 235.026 326.722 232.134 330.481C231.712 331.033 231.291 331.585 230.857 332.154C219.402 346.446 204.784 355.764 186.549 360.394C186.099 360.521 185.649 360.649 185.185 360.78C180.254 362.035 175.265 361.983 170.2 361.968C168.672 361.966 167.144 361.982 165.616 361.999C147.532 362.08 131.123 356.018 117.461 344.758C116.937 344.356 116.414 343.955 115.875 343.541C103.975 334.11 93.5032 318.135 91.65 303.288C91.5065 299.597 91.5065 299.597 93.1552 297.552C95.6368 295.81 97.1666 295.683 100.233 295.639C101.342 295.613 101.342 295.613 102.473 295.586C104.944 295.841 106.222 296.438 108.202 297.849C109.626 299.888 109.626 299.888 109.932 302.087C110.37 304.847 111.298 307.093 112.564 309.576C112.898 310.241 112.898 310.241 113.239 310.919C116.774 317.81 121.079 323.643 126.72 329.121C127.363 329.748 127.363 329.748 128.019 330.388C139.498 340.726 155.043 345.29 170.593 344.925C186.178 344.267 199.668 338.178 210.766 327.762C211.265 327.295 211.763 326.828 212.277 326.346C224.05 314.539 227.797 299.173 227.401 283.315C227.042 276.005 225.026 268.983 221.45 262.497C221.187 261.999 220.925 261.5 220.654 260.986C213.627 248.207 201.619 238.447 187.262 233.944C184.195 233.15 181.122 232.477 178.002 231.905C177.316 231.779 176.629 231.652 175.921 231.522C160.481 229.428 145.228 233.53 132.67 242.235C121.267 250.5 114.406 261.498 110.244 274.437C109.275 277.037 107.954 278.932 105.352 280.173C96.947 280.976 96.947 280.976 93.9314 279.43C92.2728 277.694 91.8283 276.211 91.6583 273.906C91.8335 271.116 92.4043 268.6 93.2442 265.939C93.4793 265.191 93.4793 265.191 93.7191 264.428C99.8182 245.986 113.651 231.333 131.336 222.26C148.65 213.749 169.965 210.81 188.97 216.093C189.816 216.375 190.663 216.658 191.535 216.948C191.984 217.094 192.434 217.24 192.896 217.39C202.487 220.555 211.067 225.191 218.748 231.502C221.276 233.522 223.136 234.401 226.436 234.624C227.335 232.907 227.241 231.722 227.246 229.799C227.25 229.065 227.254 228.331 227.258 227.575C227.259 226.766 227.259 225.958 227.26 225.124C227.264 224.275 227.267 223.426 227.271 222.551C227.279 220.702 227.285 218.853 227.29 217.004C227.297 214.078 227.312 211.153 227.328 208.227C227.372 199.907 227.41 191.588 227.434 183.268C227.447 178.674 227.467 174.081 227.496 169.488C227.511 167.057 227.522 164.627 227.524 162.197C227.526 159.483 227.544 156.771 227.563 154.057C227.56 152.853 227.56 152.853 227.557 151.623C227.63 144.782 227.63 144.782 229.997 141.486C233.44 138.508 237.036 138.236 241.393 139.447Z" fill="white"/>
<path d="M402.159 224.449C405.479 227.47 407.98 230.246 408.406 234.695C408.421 236.177 408.351 237.622 408.244 239.099C402.447 239.241 396.854 238.821 391.107 238.125C390.312 238.034 389.518 237.942 388.7 237.848C382.387 237.107 382.387 237.107 379.607 236.389C380.083 238.417 380.083 238.417 381.416 239.138C385.063 240.778 388.738 242.088 392.583 243.248C393.412 243.504 393.412 243.504 394.258 243.764C395.327 244.093 396.397 244.421 397.467 244.747C399.393 245.335 401.313 245.942 403.232 246.551C402.315 249.227 401.516 250.543 398.937 251.97C386.805 253.762 373.285 249.271 363.141 243.163C360.076 240.983 357.482 238.56 354.908 235.881C350.108 231.793 343.979 230.67 337.703 230.742C323.602 232.034 309.958 240.906 300.948 250.758C292.643 261.055 288.449 272.789 288.503 285.695C288.499 286.846 288.499 286.846 288.495 288.02C288.49 289.675 288.488 291.33 288.489 292.985C288.49 295.605 288.48 298.224 288.468 300.844C288.435 308.289 288.417 315.733 288.413 323.177C288.41 327.74 288.392 332.303 288.366 336.866C288.359 338.602 288.357 340.338 288.361 342.075C288.366 344.499 288.354 346.922 288.338 349.346C288.343 350.062 288.349 350.778 288.355 351.516C288.307 355.549 288.032 358.011 285.106 361.041C281.391 362.213 277.52 362.141 273.651 361.719C271.462 360.595 270.465 359.077 269.356 356.976C269.285 355.983 269.259 354.986 269.255 353.989C269.251 353.361 269.247 352.733 269.243 352.085C269.242 351.393 269.241 350.702 269.24 349.989C269.237 349.262 269.233 348.534 269.229 347.785C269.219 345.366 269.214 342.946 269.21 340.527C269.206 338.842 269.202 337.157 269.198 335.471C269.191 332.38 269.187 329.289 269.185 326.198C269.181 321.231 269.165 316.265 269.142 311.299C269.129 307.81 269.125 304.322 269.124 300.833C269.122 299.172 269.116 297.51 269.107 295.849C268.976 271.132 274.992 250.844 293.473 232.875C318.802 209.096 373.415 201.44 402.159 224.449Z" fill="white"/>
<path d="M366.076 290.984C366.557 290.981 367.038 290.977 367.534 290.973C368.55 290.969 369.567 290.97 370.583 290.976C372.135 290.981 373.686 290.962 375.238 290.94C376.226 290.939 377.215 290.94 378.204 290.942C379.102 290.941 380 290.939 380.925 290.938C383.246 291.278 383.246 291.278 384.97 292.368C386.482 294.535 386.426 295.961 386.378 298.548C386.369 299.426 386.36 300.303 386.35 301.207C386.326 302.131 386.302 303.054 386.278 303.977C386.263 304.911 386.25 305.845 386.239 306.779C386.205 309.063 386.158 311.346 386.099 313.629C386.711 313.615 387.323 313.601 387.953 313.586C390.23 313.54 392.506 313.506 394.782 313.48C395.766 313.467 396.75 313.448 397.734 313.425C399.151 313.392 400.568 313.378 401.985 313.364C402.836 313.35 403.688 313.336 404.566 313.321C406.789 313.629 406.789 313.629 408.494 314.701C410.054 316.924 410.001 318.464 409.997 321.124C409.998 321.582 409.999 322.039 410 322.51C409.999 323.474 409.991 324.438 409.976 325.402C409.955 326.877 409.961 328.35 409.97 329.825C409.966 330.763 409.96 331.701 409.952 332.639C409.945 333.49 409.938 334.342 409.931 335.22C409.643 337.335 409.643 337.335 408.859 338.632C406.777 339.76 404.991 339.594 402.612 339.565C402.14 339.562 401.668 339.559 401.181 339.556C399.676 339.545 398.172 339.519 396.667 339.494C395.646 339.483 394.625 339.474 393.603 339.466C391.102 339.443 388.601 339.408 386.099 339.367C386.111 339.971 386.122 340.576 386.133 341.2C386.17 343.445 386.197 345.691 386.217 347.936C386.228 348.908 386.242 349.88 386.261 350.851C386.287 352.248 386.299 353.645 386.308 355.043C386.32 355.883 386.331 356.724 386.342 357.59C386.099 359.686 386.099 359.686 385.348 360.975C383.203 362.122 381.047 362.007 378.65 361.988C378.134 361.99 377.618 361.991 377.086 361.993C375.996 361.995 374.907 361.991 373.817 361.983C372.146 361.972 370.476 361.983 368.805 361.996C367.747 361.994 366.688 361.992 365.63 361.988C365.129 361.992 364.628 361.996 364.112 362C362.705 361.981 362.705 361.981 360.416 361.718C358.666 359.226 358.823 358.01 358.849 355.043C358.851 354.594 358.853 354.146 358.855 353.685C358.863 352.256 358.881 350.828 358.9 349.399C358.907 348.43 358.913 347.46 358.919 346.49C358.935 344.116 358.959 341.741 358.989 339.367C358.352 339.377 357.714 339.388 357.058 339.399C354.692 339.433 352.327 339.459 349.962 339.478C348.938 339.488 347.915 339.502 346.891 339.52C345.42 339.545 343.948 339.556 342.476 339.565C341.591 339.576 340.705 339.586 339.793 339.597C337.585 339.367 337.585 339.367 336.226 338.644C335.005 336.596 335.18 334.777 335.186 332.443C335.186 331.968 335.185 331.493 335.185 331.003C335.187 330.001 335.193 328.998 335.205 327.996C335.222 326.459 335.22 324.922 335.215 323.385C335.246 315.85 335.246 315.85 336.872 314.306C339.064 314.152 339.064 314.152 341.849 314.174C342.338 314.176 342.827 314.178 343.331 314.18C344.894 314.187 346.457 314.204 348.02 314.222C349.079 314.228 350.138 314.235 351.197 314.24C353.794 314.255 356.391 314.278 358.989 314.306C358.977 313.681 358.966 313.055 358.955 312.411C358.918 310.09 358.891 307.769 358.871 305.447C358.86 304.443 358.846 303.438 358.827 302.434C358.801 300.989 358.789 299.546 358.78 298.101C358.768 297.232 358.757 296.363 358.746 295.468C358.989 293.31 358.989 293.31 359.763 292.013C361.858 290.886 363.683 291.002 366.076 290.984Z" fill="#CC1512"/>
<path d="M98.068 138.145C98.5585 138.14 99.049 138.134 99.5544 138.128C101.172 138.112 102.79 138.111 104.408 138.112C105.535 138.107 106.662 138.102 107.789 138.096C110.151 138.087 112.512 138.086 114.873 138.09C117.896 138.094 120.918 138.073 123.941 138.046C126.268 138.028 128.596 138.026 130.923 138.029C132.038 138.027 133.152 138.021 134.266 138.009C135.826 137.994 137.384 138 138.944 138.012C139.831 138.011 140.718 138.009 141.631 138.008C145.191 138.652 146.697 140.681 148.709 143.407C149.042 143.942 149.375 144.477 149.717 145.028C150.103 145.642 150.489 146.255 150.887 146.886C151.293 147.541 151.699 148.196 152.117 148.871C152.999 150.273 153.882 151.673 154.766 153.074C155.223 153.8 155.681 154.526 156.152 155.274C158.543 159.043 160.989 162.779 163.44 166.512C163.895 167.208 164.35 167.904 164.818 168.621C165.245 169.27 165.672 169.92 166.111 170.589C166.486 171.161 166.861 171.732 167.247 172.321C168.261 173.801 169.334 175.211 170.466 176.611C170.725 176.187 170.983 175.762 171.25 175.325C176.824 166.19 182.417 157.068 188.18 148.04C189.002 146.742 189.806 145.436 190.605 144.126C191.033 143.442 191.462 142.758 191.903 142.054C192.249 141.489 192.595 140.923 192.952 140.341C194.439 138.745 195.47 138.572 197.676 138.432C199.332 139.156 199.332 139.156 200.54 140.477C201.039 144.107 199.734 146.346 197.721 149.297C197.124 150.207 196.527 151.117 195.931 152.027C195.624 152.488 195.318 152.948 195.002 153.423C193.605 155.536 192.262 157.679 190.918 159.822C190.521 160.452 190.521 160.452 190.115 161.094C188.417 163.787 186.746 166.493 185.087 169.208C183.569 171.684 182.033 174.149 180.491 176.611C180.125 177.197 179.76 177.783 179.383 178.386C178.242 180.202 177.086 182.008 175.926 183.812C175.568 184.385 175.21 184.958 174.841 185.548C174.5 186.073 174.158 186.598 173.806 187.138C173.506 187.607 173.207 188.076 172.899 188.559C172.403 189.057 172.403 189.057 171.898 189.565C169.034 189.565 169.034 189.565 167.719 188.321C165.495 185.213 163.457 182.009 161.426 178.784C160.525 177.363 159.623 175.943 158.721 174.523C158.281 173.83 157.841 173.136 157.387 172.422C156.326 170.758 155.256 169.101 154.173 167.45C153.881 167.004 153.589 166.558 153.288 166.099C152.718 165.24 152.14 164.386 151.554 163.537C149.592 160.661 148.081 157.767 146.722 154.589C144.458 150.536 144.458 150.536 141.108 147.295C138.116 146.635 135.281 146.775 132.23 146.954C131.431 146.978 130.632 147.003 129.809 147.028C127.844 147.092 125.885 147.182 123.923 147.295C123.919 147.794 123.914 148.294 123.91 148.808C123.869 153.513 123.817 158.218 123.754 162.923C123.722 165.341 123.694 167.76 123.675 170.179C123.653 172.96 123.613 175.74 123.573 178.52C123.566 179.824 123.566 179.824 123.559 181.155C123.545 181.96 123.531 182.765 123.516 183.595C123.508 184.305 123.501 185.015 123.492 185.746C123.207 187.519 123.207 187.519 122.273 188.774C120.261 190.084 118.397 189.768 116.046 189.565C114.147 187.756 114.424 186.891 114.397 184.365C114.379 183.16 114.379 183.16 114.361 181.931C114.355 181.06 114.349 180.19 114.343 179.293C114.324 177.934 114.306 176.576 114.287 175.218C114.262 173.312 114.244 171.406 114.226 169.501C114.193 166.163 114.154 162.825 114.109 159.487C114.086 157.709 114.067 155.93 114.052 154.152C114.042 153.351 114.032 152.55 114.022 151.725C114.016 151.016 114.009 150.307 114.002 149.576C114.086 148.005 114.086 148.005 113.182 147.295C111.732 147.212 110.279 147.172 108.827 147.151C107.938 147.132 107.048 147.112 106.132 147.092C104.247 147.057 102.362 147.027 100.476 147.002C99.1383 146.97 99.1383 146.97 97.7731 146.938C96.9527 146.924 96.1323 146.911 95.287 146.897C92.9374 146.587 91.9191 146.17 90.2685 144.568C89.9105 142.522 89.9105 142.522 90.2685 140.477C92.637 138.136 94.7599 138.167 98.068 138.145Z" fill="#C81E1B"/>
<path d="M372.507 221.621C380.861 221.21 380.861 221.21 384.687 223.819C385.159 224.303 385.632 224.787 386.119 225.285C385.94 226.797 385.94 226.797 385.403 228.217C382.839 229.528 380.127 229.282 377.402 228.509C375.108 227.662 373.537 227.071 371.791 225.285C372.06 223.361 372.06 223.361 372.507 221.621Z" fill="#04437B"/>
</g>
<defs>
<clipPath id="clip0_8_104">
<rect width="500" height="500" fill="white"/>
</clipPath>
</defs>
</svg>
