<svg width="2500" height="2500" viewBox="0 0 2500 2500" fill="none" xmlns="http://www.w3.org/2000/svg">
<rect width="2500" height="2500" fill="white"/>
<g filter="url(#filter0_f_15_194)">
<path d="M429.178 963.089C423.717 1163.59 545.338 1531.23 638.153 1694.05C1106.45 1810.46 1347.4 1792.36 1948.92 1690.92C2170.08 1574.06 2041.06 992.867 1947.38 777.519C1668.3 651.045 811.475 768.737 429.178 963.089Z" fill="url(#paint0_linear_15_194)"/>
</g>
<path d="M798.616 972.371V1031.18C798.616 1042.61 793.758 1047.5 782.274 1047.5H776.557C748.78 1047.5 735.746 1063.04 735.746 1096.51C735.746 1129.19 748.78 1144.74 776.557 1144.74H782.274C793.758 1144.74 798.616 1149.63 798.616 1161.05V1277.87C798.616 1394.68 845.178 1454.29 936.684 1454.29C999.596 1454.29 1033.89 1432.25 1033.89 1391.44C1033.89 1371.81 1024.87 1362.01 1007.73 1362.01C1001.16 1362.01 994.696 1362.77 986.529 1363.64C975.103 1365.3 964.477 1366.08 956.294 1366.08C920.333 1366.08 902.373 1338.33 902.373 1283.61V1161.05C902.373 1149.63 907.299 1144.74 918.716 1144.74H946.485C975.103 1144.74 987.287 1129.19 987.287 1094.85C987.287 1063.04 974.253 1047.5 946.485 1047.5H918.716C906.457 1047.5 902.373 1043.45 902.373 1031.18V972.371C902.373 944.611 886.03 931.518 849.253 931.518C814.951 931.518 798.616 944.611 798.616 972.371ZM1260.18 1103.89L1205.46 1261.5C1203.81 1268.04 1199.69 1271.33 1194.78 1271.33C1189.11 1271.33 1185.78 1268.04 1183.38 1261.5L1128.67 1103.89C1112.33 1056.49 1100.89 1045.06 1067.36 1045.06C1036.32 1045.06 1020.02 1057.32 1020.02 1080.19C1020.02 1085.91 1020.79 1090 1024.06 1098.16L1132.72 1391.44C1149.06 1436.34 1162.16 1447.79 1194.78 1447.79C1227.44 1447.79 1240.52 1436.34 1256.87 1391.44L1365.53 1098.16C1368.8 1088.36 1369.6 1085.91 1369.6 1080.19C1369.6 1057.32 1353.28 1045.06 1322.23 1045.06C1288.74 1045.06 1276.52 1056.49 1260.18 1103.89ZM1370.44 1308.95C1370.44 1474.75 1452.13 1567.85 1597.52 1567.85C1686.54 1567.85 1753.52 1530.28 1753.52 1481.27C1753.52 1462.5 1743.75 1450.2 1729.89 1450.2C1724.12 1450.2 1718.43 1451.89 1705.33 1456.78C1666.96 1472.29 1645.71 1477.17 1614.67 1477.17C1527.25 1477.17 1474.15 1427.38 1474.15 1346.48C1474.15 1338.33 1478.24 1334.23 1488.02 1334.23H1693.09C1747.82 1334.23 1764.18 1315.46 1764.18 1253.35C1764.18 1129.19 1689.79 1045.87 1578.73 1045.87C1448.83 1045.87 1370.44 1144.74 1370.44 1308.95ZM1475.83 1240.28C1475.83 1170.07 1515.04 1121.06 1573 1121.06C1631.78 1121.06 1664.51 1161.85 1664.51 1237.01C1664.51 1247.68 1661.22 1251.72 1651.45 1251.72H1488.85C1480.69 1251.72 1475.83 1247.68 1475.83 1240.28Z" fill="white"/>
<defs>
<filter id="filter0_f_15_194" x="147.612" y="443.612" width="2204.7" height="1612.15" filterUnits="userSpaceOnUse" color-interpolation-filters="sRGB">
<feFlood flood-opacity="0" result="BackgroundImageFix"/>
<feBlend mode="normal" in="SourceGraphic" in2="BackgroundImageFix" result="shape"/>
<feGaussianBlur stdDeviation="140.694" result="effect1_foregroundBlur_15_194"/>
</filter>
<linearGradient id="paint0_linear_15_194" x1="1648.12" y1="886.575" x2="993.043" y2="1546.52" gradientUnits="userSpaceOnUse">
<stop stop-color="#2DC5FB"/>
<stop offset="1" stop-color="#0040C0"/>
</linearGradient>
</defs>
</svg>
