<svg width="284" height="284" viewBox="0 0 284 284" fill="none" xmlns="http://www.w3.org/2000/svg">
<rect width="283.5" height="283.5" fill="black"/>
<path d="M95.972 160.259H105.409V161.955C105.409 163.586 107.04 164.362 110.289 164.362C113.028 164.362 114.392 163.708 114.392 162.41C114.392 160.325 112.174 160.004 107.816 158.64C102.936 157.076 97.1364 154.603 97.1364 147.894C97.1364 140.02 105.077 137.802 111.52 137.802C116.732 137.802 124.339 139.621 124.339 145.088V149.646H114.902V148.149C114.902 147.106 113.926 146.33 111.52 146.33C109.701 146.33 108.326 146.718 108.326 148.027C108.326 150.045 110.999 150.821 114.181 151.675C119.194 153.039 125.57 155.124 125.57 162.089C125.57 169.641 118.285 172.89 110.278 172.89C104.289 172.89 95.9609 170.284 95.9609 164.75V160.259H95.972Z" fill="#FFFAFA"/>
<path d="M146.43 137.791C156.456 137.791 162.056 144.689 162.056 154.004C162.056 154.525 161.989 155.368 161.923 156.089L161.79 157.386H140.509C141.351 161.745 144.678 163.575 148.316 163.575C150.855 163.575 153.129 162.732 154.892 161.944C155.934 161.49 156.91 160.968 157.753 160.381L161.856 168.188C160.747 169.031 159.45 169.818 158.019 170.528C155.48 171.77 152.031 172.868 147.406 172.868C135.429 172.868 128.986 164.207 128.986 155.291C128.986 145.465 135.618 137.78 146.43 137.78V137.791ZM150.401 151.198C150.401 148.526 148.704 146.252 146.164 146.252C142.848 146.252 141.351 148.592 140.764 151.198H150.401Z" fill="#FFFAFA"/>
<path d="M165.781 163.963H170.017V148.082C170.017 147.173 169.562 146.718 168.586 146.718H165.459V138.578H176.072C179.133 138.578 180.763 140.075 180.763 142.349V143.979C180.763 144.046 180.763 144.179 180.696 144.234H180.829C182.593 141.628 185.775 137.791 191.442 137.791C195.091 137.791 198.54 139.421 200.17 144.101H200.303C202.122 140.453 206.158 137.791 211.37 137.791C217.104 137.791 221.917 141.107 221.917 150.356V163.963H226.153V172.103H210.661V152.252C210.661 149.712 210.206 148.016 208.055 148.016C203.175 148.016 201.611 152.707 201.611 158.24V163.974H205.848V172.114H190.355V152.263C190.355 149.723 189.901 148.027 187.749 148.027C182.604 148.027 181.306 153.494 181.306 158.895V163.974H185.542V172.114H165.814V163.974L165.781 163.963Z" fill="#FFFAFA"/>
<path d="M59.3645 117.408H57.2686V115.556H59.42V110.632H61.771V115.556H64.7652V117.408H61.771V123.263C61.771 125.814 63.501 126.125 64.4436 126.125C64.7874 126.125 65.0092 126.102 65.0092 126.102V128.11C65.0092 128.11 64.6654 128.154 64.1442 128.154C62.5583 128.154 59.3756 127.655 59.3756 123.485V117.408H59.3645Z" fill="#FFFAFA"/>
<path d="M81.322 115.257C84.8818 115.257 86.7337 117.874 86.7337 121.112C86.7337 121.434 86.6561 122.021 86.6561 122.021H77.5182C77.6624 124.794 79.6142 126.269 81.8432 126.269C84.0722 126.269 85.5693 124.86 85.5693 124.86L86.5563 126.613C86.5563 126.613 84.6822 128.343 81.6879 128.343C77.7622 128.343 75.0674 125.504 75.0674 121.8C75.0674 117.818 77.7622 115.257 81.322 115.257ZM84.2607 120.491C84.1831 118.295 82.8524 117.153 81.2665 117.153C79.4367 117.153 77.9507 118.384 77.6069 120.491H84.2497H84.2607Z" fill="#FFFAFA"/>
<path d="M99.6314 112.462H97.5576V110.61H102.027V124.35C102.027 125.415 102.271 126.125 103.358 126.125C103.757 126.125 104.023 126.102 104.023 126.102L104.001 128.076C104.001 128.076 103.502 128.121 102.936 128.121C101.162 128.121 99.6203 127.4 99.6203 124.483V112.451L99.6314 112.462Z" fill="#FFFAFA"/>
<path d="M121.101 115.257C124.661 115.257 126.513 117.874 126.513 121.112C126.513 121.434 126.435 122.021 126.435 122.021H117.298C117.442 124.794 119.393 126.269 121.622 126.269C123.852 126.269 125.349 124.86 125.349 124.86L126.336 126.613C126.336 126.613 124.461 128.343 121.467 128.343C117.541 128.343 114.847 125.504 114.847 121.8C114.847 117.818 117.541 115.257 121.101 115.257ZM124.04 120.491C123.962 118.295 122.632 117.153 121.046 117.153C119.216 117.153 117.73 118.384 117.386 120.491H124.029H124.04Z" fill="#FFFAFA"/>
<path d="M133.61 115.556H139.222V117.408H137.614L140.253 124.694C140.453 125.237 140.53 125.858 140.53 125.858H140.608C140.608 125.858 140.686 125.237 140.885 124.694L143.558 117.408H141.95V115.556H147.539V117.408H145.986L141.939 128.054H139.244L135.218 117.408H133.633V115.556H133.61Z" fill="#FFFAFA"/>
<path d="M157.064 126.202H158.894V117.408H157.02V115.556H161.3V126.202H163.108V128.054H157.075V126.202H157.064ZM161.145 110.61H163.884L160.823 113.749H158.572L161.145 110.61Z" fill="#FFFAFA"/>
<path d="M181.905 118.129C182.271 117.685 182.592 117.408 182.592 117.408V117.364C182.592 117.364 182.071 117.408 181.583 117.408H177.236V119.415H175.14V115.556H185.498V117.142L178.656 125.493C178.29 125.936 177.968 126.18 177.968 126.18V126.224C177.968 126.224 178.467 126.202 178.955 126.202H183.579V124.195H185.675V128.054H175.029V126.468L181.927 118.118L181.905 118.129Z" fill="#FFFAFA"/>
<path d="M197.121 126.202H199.073V117.408H196.999V115.556H201.468V126.202H203.442V128.054H197.121V126.202ZM199.028 110.61H201.546V113.061H199.028V110.61Z" fill="#FFFAFA"/>
<path d="M221.262 120.38H222.05V119.914C222.05 117.94 220.918 117.242 219.377 117.242C217.403 117.242 215.795 118.451 215.795 118.451L214.83 116.743C214.83 116.743 216.66 115.257 219.577 115.257C222.759 115.257 224.445 116.909 224.445 120.081V125.67C224.445 126.036 224.645 126.213 224.988 126.213H226.253V128.065H223.757C222.648 128.065 222.205 127.522 222.205 126.701V126.524C222.205 126.025 222.305 125.714 222.305 125.714H222.26C222.26 125.714 221.173 128.354 218.135 128.354C216.061 128.354 213.987 127.145 213.987 124.572C213.987 120.646 219.199 120.369 221.273 120.369L221.262 120.38ZM218.645 126.513C220.774 126.513 222.083 124.339 222.083 122.465V121.944H221.462C220.331 121.944 216.394 121.988 216.394 124.395C216.394 125.504 217.203 126.524 218.645 126.524V126.513Z" fill="#FFFAFA"/>
<path d="M75.0229 172.868C65.2196 172.868 57.2461 164.894 57.2461 155.091C57.2461 145.288 65.2196 137.314 75.0229 137.314C84.8262 137.314 92.7997 145.288 92.7997 155.091C92.7997 164.894 84.8262 172.868 75.0229 172.868ZM75.0229 146.108C70.0769 146.108 66.0513 150.134 66.0513 155.08C66.0513 160.026 70.0769 164.051 75.0229 164.051C79.9689 164.051 83.9944 160.026 83.9944 155.08C83.9944 150.134 79.9689 146.108 75.0229 146.108Z" fill="#FFFAFA"/>
</svg>
