<?xml version="1.0" encoding="UTF-8"?>
<svg id="Vrstva_1" data-name="Vrstva 1" xmlns="http://www.w3.org/2000/svg" xmlns:xlink="http://www.w3.org/1999/xlink" version="1.1" viewBox="0 0 1024 1024">
  <defs>
    <style>
      .cls-1 {
        fill: #fdec00;
      }

      .cls-1, .cls-2, .cls-3, .cls-4 {
        stroke-width: 0px;
      }

      .cls-2 {
        fill: url(#Nepojmenovaný_přechod_5);
      }

      .cls-3 {
        isolation: isolate;
        opacity: .9;
      }

      .cls-3, .cls-4 {
        fill: #fff;
      }
    </style>
    <linearGradient id="Nepojmenovaný_přechod_5" data-name="Nepojmenovaný přechod 5" x1="1084.6" y1="592.5" x2="-60.6" y2="431.5" gradientUnits="userSpaceOnUse">
      <stop offset="0" stop-color="#0a5493"/>
      <stop offset="1" stop-color="#1290d3"/>
    </linearGradient>
  </defs>
  <rect class="cls-2" width="1024" height="1024"/>
  <g id="Logo">
    <g id="Group_358" data-name="Group 358">
      <g id="RIK">
        <path id="Path_249" data-name="Path 249" class="cls-4" d="M432.4,582.9c-2.1,16.9.1,33.1.9,50-31.8-1.1-63.5-4.7-96.2-.2-1.5-1.1-.9-3.8-1-6.1-4.3-75.8-7.5-151.6-4.5-227.6.2-4.1-.7-8.4,5.6-9.7,57-12.1,113.3-12.7,168.1,9.9,17.6,7.3,33.4,17.5,45.1,32.9,16.7,22,23.7,46.3,13.9,73.2-6.9,18.8-22.3,30.3-38.3,40.9-2.4,1.6-5,3-8.4,5.1,18.1,26,39.2,49.2,57.5,75.3-4.7,2.1-9.1,1.9-13.2,2-30.1,1.2-60.2,2.2-90.4,1.7-6.5,0-10.9-2.2-14.3-8-7.9-13.4-16.5-26.3-24.7-39.5h0ZM424.5,488.4c.7,5.8,1.2,11.7,2,17.5.5,3.5,2.2,5.1,6.1,4.1,10-2.2,19.1-7.2,26.4-14.4,4.9-4.9,6.4-12.4,3.7-18.8-2.5-7-7.6-10.4-14.9-10.7-5.2-.2-10.4,0-15.6-.2-4.3,0-6.6,1.6-6.9,6.2-.4,5.4-1,10.8-.8,16.2h0Z"/>
        <path id="Path_250" data-name="Path 250" class="cls-4" d="M581.5,629.1c1-46.3,1.9-90.9,2.9-136.3,24.5-1.5,48.3-.3,71.6,1.3v135h-74.5Z"/>
        <path id="Path_251" data-name="Path 251" class="cls-4" d="M758.9,573.6c1.1,18.3,2.1,35.1,3.2,52.5l-81.6,4.3c.6-80.7-5.3-160.9.3-241.7l83.9-3.3c-2.2,37-4.3,73.9-6.5,112.3,23.8-24.9,46.7-48.9,70.1-73.5,13.3,24,26.3,47.4,39.7,71.7-17.6,15.7-37.1,29.2-55.9,44.7,24,25.3,47.9,50.6,72.3,76.3-6.1,2.3-11.9,2.4-17.6,3.2-19.5,2.8-39.1,4.9-58.7,6.4-10.8.8-18.1-2.6-23.6-11.9-7.9-13.4-16.4-26.4-25.6-41.1h0Z"/>
        <path id="Path_252" data-name="Path 252" class="cls-1" d="M583.3,436.5c-.2-21.6,17.2-39.3,38.8-39.5.2,0,.5,0,.7,0,21.9-.1,39.8,17.5,39.9,39.5.1,21.9-17.5,39.8-39.5,39.9-21.9.1-39.8-17.5-39.9-39.5,0-.2,0-.3,0-.5h0Z"/>
      </g>
      <g id="WHITE_I" data-name="WHITE I">
        <rect id="PASIK-2" class="cls-4" x="267.1" y="324.3" width="11.5" height="375.4"/>
        <g id="I">
          <path id="Path_258" data-name="Path 258" class="cls-4" d="M187,602.7h6.8c1,0,1.7-.8,1.7-1.7v-41.2l-41.9,31.1c9.4,7.8,21.2,12,33.4,11.9h0Z"/>
          <path id="Path_259" data-name="Path 259" class="cls-3" d="M153.6,590.8l41.9-31.1v-2.2l-47.7,27.2c1.7,2.2,3.7,4.2,5.8,6h0Z"/>
          <path id="Path_260" data-name="Path 260" class="cls-4" d="M192.5,452.2c-.5,0-1,.1-1.4.4l-41.8,23.9c-.5.3-.8.6-1.1,1.1-.8,1.4-.3,3.2,1.1,3.9l41.8,23.8c.4.2.9.4,1.4.4,1.6,0,2.9-1.3,2.9-2.9h0v-47.7c0-.5-.1-1-.4-1.4-.5-.9-1.5-1.5-2.5-1.5h0Z"/>
          <path id="Path_261" data-name="Path 261" class="cls-4" d="M224.5,536l-46.6-26.6-33.9-19.3c-.4-.2-.9-.4-1.4-.4h0c-.2,0-.4,0-.6,0-1.3.3-2.3,1.5-2.3,2.8v69.5c0,4.1.7,8.2,2.1,12,.2.7.5,1.4.8,2.1,0,.1,0,.2.1.4.3.7.6,1.4,1,2h0c1.1,2.2,2.5,4.3,4,6.2h0l47.7-27.2,29-16.6c.5-.3.8-.6,1.1-1.1.8-1.4.3-3.2-1.1-3.9h0Z"/>
          <path id="Path_262" data-name="Path 262" class="cls-4" d="M163,452.2c15.2,2.4,29.5-7.9,31.9-23.1s-7.9-29.5-23.1-31.9c-15.2-2.4-29.5,7.9-31.9,23.1-.1.7-.2,1.5-.3,2.2-1.1,14.5,9,27.4,23.3,29.7Z"/>
        </g>
      </g>
    </g>
  </g>
</svg>