<svg width="284" height="284" viewBox="0 0 284 284" fill="none" xmlns="http://www.w3.org/2000/svg">
<rect width="283.5" height="283.5" fill="white"/>
<path d="M119.103 171.378C118.274 171.107 117.174 170.406 116.616 169.721C115.373 168.206 115.102 166.406 115.645 164.605C117.86 157.975 120.06 151.345 122.275 144.858V113.094C121.718 111.579 121.303 110.05 120.76 108.678C119.103 103.563 117.302 98.4617 115.645 93.4891C114.673 90.5885 116.331 87.6878 118.688 86.7162C117.445 85.0587 115.373 83.9584 113.444 83.2583C101.013 87.1306 91.4821 95.0038 85.1236 106.878C81.3942 113.779 79.7366 121.238 79.5938 128.983C79.7366 132.712 80.0081 136.442 80.9798 140.028C85.2665 157.704 97.2834 170.135 113.158 174.693C115.087 174.422 117.445 173.307 119.103 171.378ZM101.556 97.0614C101.556 94.718 103.07 92.7747 105.428 92.2317C107.643 91.6744 110.129 92.9176 111.229 95.2752C114.13 101.348 117.174 107.292 120.074 113.365C120.632 114.465 121.175 115.437 121.589 116.537C122.146 117.509 121.732 118.338 120.903 119.023C120.074 119.709 119.246 119.295 118.688 118.609C117.174 116.952 115.788 115.437 114.273 113.779C110.401 109.364 106.543 105.077 102.813 100.662C101.985 99.5619 101.427 98.4474 101.57 97.0757L101.556 97.0614ZM90.9249 107.006C91.0678 105.206 92.4395 103.549 94.5114 102.863C94.9258 102.72 95.3402 102.72 95.6116 102.72C96.9977 102.577 98.0979 103.134 99.0696 103.82C103.628 107.821 108.186 111.836 112.887 115.837C114.273 117.08 115.645 118.18 116.888 119.424C117.988 120.524 118.274 121.224 117.574 122.181C116.888 123.01 116.059 123.153 114.816 122.596C107.914 119.138 100.87 115.694 93.9541 112.236C91.8822 111.265 90.782 109.336 90.9106 106.992L90.9249 107.006ZM86.924 117.637C88.4386 116.251 90.239 116.123 92.3109 116.809C99.6268 119.295 106.814 121.781 114.13 124.267C115.645 124.825 116.059 125.368 115.931 126.482C115.788 127.454 114.959 127.997 113.444 127.868H112.887C108.472 127.597 104.042 127.182 99.6268 126.897C96.5833 126.754 93.554 126.482 90.3676 126.339C88.2957 126.196 86.2238 124.953 85.5379 123.024C84.8521 121.224 85.2665 119.152 86.924 117.637ZM86.2381 139.328C84.8521 137.528 84.8521 135.327 86.2381 133.384C87.2097 132.141 88.5815 131.455 90.1104 131.312C97.7121 130.755 105.442 130.34 113.873 129.797C114.845 129.797 115.673 130.212 115.945 131.312C116.088 132.412 115.53 133.112 113.73 133.655C106.543 136.142 99.3696 138.485 92.3252 140.971C89.9818 141.657 87.6241 141.114 86.2524 139.314L86.2381 139.328ZM93.554 154.389C91.8965 153.417 91.0678 151.902 90.9249 150.245C90.9249 147.759 92.168 146.372 94.097 145.415C100.999 141.957 108.043 138.514 114.959 135.199C116.202 134.641 117.031 134.641 117.588 135.47C118.145 136.299 118.002 137.27 117.031 138.228C112.201 142.514 107.229 146.787 102.385 151.074C101.141 152.174 99.8983 153.417 98.5123 154.389C96.8548 155.36 95.1973 155.36 93.5398 154.389H93.554ZM105.843 165.577C103.914 165.434 102.256 163.919 101.699 161.847C101.556 161.433 101.556 161.019 101.427 160.604C101.427 159.218 101.985 158.118 102.813 157.146C107.929 151.345 113.03 145.401 118.288 139.6C118.845 138.914 119.531 138.356 120.503 138.628C121.746 139.042 122.16 140.142 121.475 141.671C119.674 145.401 117.745 149.13 115.945 152.86C114.287 156.175 112.773 159.347 111.115 162.662C110.143 164.591 108.214 165.705 105.871 165.563L105.843 165.577Z" fill="#E92428"/>
<path d="M130.006 82.1437V175.793H127.105C126.005 175.793 124.205 175.936 121.718 176.351C119.646 176.765 117.16 176.908 114.402 176.908V175.25C117.303 174.836 119.646 173.036 121.59 169.592C123.519 166.277 124.49 159.918 124.49 150.388V104.806C124.49 91.9602 121.175 84.5014 114.545 82.701V81.0435C117.446 81.4578 122.561 81.8722 130.02 82.1437H130.006ZM136.907 175.793H134.978V82.1437C137.736 82.1437 140.508 82.0008 143.68 81.7293C147.138 81.315 150.039 81.0435 152.239 81.0435C158.455 81.0435 163.013 83.5297 166.057 88.5023C169.1 93.4748 170.615 99.5476 170.615 106.735C170.615 119.023 166.614 126.897 158.741 130.212C162.613 130.898 165.928 132.426 168.543 134.77C171.444 137.256 175.73 142.372 181.389 150.102C190.234 161.847 197.278 167.649 202.937 167.649C204.037 167.649 205.151 167.091 206.394 166.134L206.666 167.792C204.866 170.835 202.379 172.35 199.207 172.35C195.749 172.35 192.163 170.692 188.433 167.234C184.975 164.062 179.731 157.704 172.687 148.444C164.256 137.113 156.112 131.455 148.239 131.455C153.211 133.527 159.841 140.3 168.129 151.759C174.073 159.775 178.76 165.705 182.361 169.306C185.947 173.036 189.405 174.836 192.72 174.836V175.665C191.205 176.351 189.676 176.765 188.162 176.765C183.747 176.765 180.017 175.379 176.831 172.35C175.173 170.692 172.958 168.349 170.344 165.034C167.714 161.719 164.542 157.432 160.813 152.331C155.426 144.729 151.425 139.628 148.796 136.856C146.038 134.098 143.266 132.155 140.651 131.055V152.045C140.651 166.134 143.823 173.864 150.325 175.108V176.765C144.938 176.079 140.523 175.793 136.922 175.793H136.907ZM140.637 106.592V125.925C143.266 126.754 146.167 127.311 149.339 127.311C159.427 127.311 164.528 120.409 164.528 106.592C164.528 93.6034 159.555 87.1163 149.467 87.1163C146.295 87.1163 143.666 87.945 141.866 89.7454C141.037 91.8173 140.623 97.4757 140.623 106.592H140.637ZM171.158 125.654C174.059 119.581 175.573 112.808 175.573 105.492C175.573 98.8618 173.916 92.0888 170.458 85.3301C178.188 89.6168 182.06 96.5184 182.06 105.778C182.06 115.037 178.474 121.938 171.144 125.668L171.158 125.654Z" fill="black"/>
<path d="M104.457 54.5089C70.8919 69.0122 47.4009 101.748 47.4009 140.571C47.4009 147.758 47.258 148.716 49.7443 161.29C57.346 188.639 82.4803 210.187 111.358 216.545C81.2514 204.386 59.9752 174.965 59.9752 140.571C59.9752 95.4038 96.712 58.6527 141.894 58.6527C157.783 58.6527 172.701 63.2109 185.261 71.0841C170.486 57.9668 151.01 50.0936 129.734 50.0936C120.76 50.0936 112.187 51.6083 104.457 54.5089Z" fill="#234797"/>
<path d="M163.027 48.579C191.205 59.6244 213.167 84.0727 219.797 114.194C222.14 122.624 223.669 131.326 223.669 140.571C223.669 177.308 198.12 207.701 166.199 219.446C155.011 224.276 142.579 226.348 129.591 226.348C111.501 226.348 94.5114 221.104 80.1367 211.987C96.7119 226.348 118.26 234.921 141.751 234.921C193.819 234.921 236.1 192.654 236.1 140.571C236.1 95.8182 204.879 58.2383 163.027 48.579Z" fill="#1A8A4A"/>
<path d="M102.943 194.583L102.672 193.897C102.114 192.797 101.7 191.968 101.014 191.411C102.4 190.725 103.229 189.339 103.229 187.953C103.229 186.439 102.129 185.196 100.6 184.781C99.6281 184.51 99.0852 184.51 97.9706 184.51H93.9697V186.167H95.2129V195.698H93.9697V197.355H99.0852V195.698L97.5705 195.555V192.097H98.2564C99.0852 192.097 99.3567 192.24 99.6424 192.783C99.9139 193.197 100.2 193.883 100.614 194.712C101.171 195.684 101.586 196.784 102 197.198L102.143 197.341H105.187V195.541H103.672C103.529 195.684 103.115 194.855 102.986 194.569L102.943 194.583ZM100.871 188.368C100.871 189.196 100.314 190.582 98.1135 190.582H97.5563V186.167H98.2421C99.0709 186.167 100.871 186.439 100.871 188.382V188.368Z" fill="black"/>
<path d="M119.103 185.324C118.131 184.638 117.031 184.352 115.788 184.352C114.273 184.352 113.159 184.767 112.059 185.453C110.673 186.424 109.301 188.353 109.301 191.111C109.301 193.183 109.858 194.841 111.101 195.941C112.201 197.041 113.587 197.598 115.245 197.598C117.045 197.598 118.417 197.041 119.66 195.941C121.046 194.555 121.732 192.626 121.732 190.554C121.589 188.339 120.632 186.41 119.103 185.31V185.324ZM115.374 195.955C114.688 195.955 113.573 195.812 112.887 194.855C112.059 193.883 111.644 192.783 111.644 190.983C111.644 188.496 112.744 187.396 113.159 186.982C113.845 186.424 114.545 186.153 115.502 186.153C116.46 186.153 117.303 186.424 117.988 187.125C118.817 187.953 119.232 189.339 119.232 190.997C119.232 192.654 118.817 193.897 117.988 194.869C117.303 195.555 116.474 195.969 115.359 195.969L115.374 195.955Z" fill="black"/>
<path d="M140.794 186.296H142.037V184.495H138.165L138.022 184.767C137.336 186.424 136.636 188.225 135.807 190.154C135.393 191.397 134.836 192.64 134.421 193.74C133.593 191.811 132.907 189.868 132.207 188.082C131.792 186.839 131.235 185.738 130.821 184.767L130.678 184.495H126.677V186.296H128.063V195.969H126.82V197.77H131.649V195.969H129.992V188.511C131.092 191.268 132.207 193.897 133.45 196.798L133.593 197.07H134.979L135.122 196.798C136.222 194.312 137.336 191.683 138.579 188.653V195.841H137.065V197.641H142.18V195.984H140.794C140.794 192.669 140.794 189.211 140.794 186.31V186.296Z" fill="black"/>
<path d="M156.255 192.24C155.283 189.611 154.326 186.71 153.497 184.51L153.354 184.238H151.697L151.554 184.51C150.996 186.024 150.31 187.825 149.625 189.625C148.796 191.697 147.967 193.912 147.281 195.698H146.038V197.355H151.011V195.698H149.496L149.639 195.426C149.91 194.869 150.053 194.183 150.325 193.626H154.326C154.469 194.183 154.74 194.726 154.883 195.141L155.026 195.698H153.64V197.355H158.755V195.698H157.512C157.098 194.726 156.683 193.483 156.269 192.24H156.255ZM153.768 191.968H150.868C151.139 191.283 151.425 190.454 151.697 189.625C151.968 189.068 152.111 188.525 152.254 187.968C152.811 189.354 153.354 190.725 153.768 191.968Z" fill="black"/>
<path d="M175.316 184.495H170.344V186.153H172.144V193.755C170.486 191.268 168.557 188.368 166.071 184.638L165.928 184.495H162.613V186.153H163.999V195.684H162.756V197.484H167.872V195.684H166.071V188.225C168.286 191.54 170.629 194.855 172.43 197.341L172.573 197.484H172.844C173.259 197.484 173.673 197.341 173.944 197.213L174.216 197.07V186.024H175.459V184.781L175.316 184.51V184.495Z" fill="black"/>
<path d="M190.648 195.826C190.234 194.726 189.819 193.483 189.405 192.24C188.433 189.611 187.476 186.71 186.647 184.51L186.504 184.238H184.847L184.704 184.51C184.147 186.024 183.461 187.825 182.775 189.625C181.946 191.697 181.117 193.912 180.432 195.841H179.188V197.498H184.161V195.841H182.646L182.789 195.569C183.061 195.012 183.204 194.326 183.475 193.769H187.476C187.619 194.326 187.89 194.869 188.033 195.283L188.176 195.841H186.79V197.498H191.906V195.841H190.662L190.648 195.826ZM186.919 191.954H184.018C184.29 191.268 184.575 190.44 184.847 189.611C185.118 189.054 185.261 188.511 185.533 187.81C185.947 189.325 186.362 190.711 186.919 191.954Z" fill="black"/>
</svg>
