<?xml version="1.0" encoding="UTF-8"?>
<svg xmlns="http://www.w3.org/2000/svg" xmlns:xlink="http://www.w3.org/1999/xlink" version="1.1" viewBox="0 0 283.5 283.5">
  <defs>
    <style>
      .cls-1 {
        fill: none;
      }

      .cls-2 {
        fill: #db0a33;
      }

      .cls-3 {
        clip-path: url(#clippath-1);
      }

      .cls-4 {
        clip-path: url(#clippath-3);
      }

      .cls-5 {
        clip-path: url(#clippath-2);
      }

      .cls-6 {
        fill: #ffd500;
      }

      .cls-7 {
        fill: #191919;
      }

      .cls-8 {
        clip-path: url(#clippath);
      }
    </style>
    <clipPath id="clippath">
      <rect class="cls-1" x="56.9" y="83.9" width="169.6" height="115.6"/>
    </clipPath>
    <clipPath id="clippath-1">
      <rect class="cls-1" x="56.9" y="83.9" width="169.6" height="115.6"/>
    </clipPath>
    <clipPath id="clippath-2">
      <rect class="cls-1" x="56.9" y="83.9" width="169.6" height="115.6"/>
    </clipPath>
    <clipPath id="clippath-3">
      <rect class="cls-1" x="56.9" y="83.9" width="169.6" height="115.6"/>
    </clipPath>
  </defs>
  <!-- Generator: Adobe Illustrator 28.7.1, SVG Export Plug-In . SVG Version: 1.2.0 Build 142)  -->
  <g>
    <g id="Vrstva_1">
      <rect class="cls-7" width="283.5" height="283.5"/>
      <g>
        <g class="cls-8">
          <path class="cls-2" d="M87.5,174.1c-4.6.9-8,1.1-12.5,1.1-11,0-18.1-4.3-18.1-12.9v-63.2h12.1v11.6h18.5v11.1h-18.5v38.3c0,2.5,2.4,3.8,7.8,3.8s6.7-.3,10.6-1.3v11.4Z"/>
        </g>
        <g class="cls-3">
          <path class="cls-2" d="M114.7,174c-4.4,0-6.8-.4-7.7-6.7l-11.2-56.5h12.4l9.5,49.7c.1,2.1.4,3.3,1.3,3.3h1.6c.8,0,1.1-1.1,1.3-3.3l9.5-49.7h12.4l-11.2,56.5c-.9,6.3-3.3,6.7-7.7,6.7h-10Z"/>
        </g>
        <g class="cls-5">
          <path class="cls-2" d="M189,111.3v10.5c-5.3-1.3-10.5-1.5-15.7-1.5-8.3,0-10.7,1.3-10.7,3.5v9c0,2.4,1.9,3.8,8.8,3.8,14.8,0,18.6,4.7,18.6,13v12.8c0,9-5.6,12.9-21.5,12.9s-11.6-.6-17.2-1.6v-10.7c5.9,1.3,11.2,1.8,16.4,1.8,7.7,0,10.1-1.3,10.1-3.7v-11.1c0-2.3-2-3.7-9-3.7-14.8,0-18.4-4-18.4-12.4v-11.2c0-9,5.4-13,22-13,6.1,0,11.8.8,16.6,1.8"/>
        </g>
        <g class="cls-4">
          <path class="cls-6" d="M201,184c5.6-.4,9.2-4.6,9.2-10.2v-64.1c0-5.6-3.7-9.8-9.2-10.2l5-15.6c12.5,2,20.5,12,20.5,24.7v66.2c0,12.7-8,22.7-20.5,24.7l-5-15.6Z"/>
        </g>
      </g>
    </g>
  </g>
</svg>