<?xml version="1.0" encoding="UTF-8"?>
<svg xmlns="http://www.w3.org/2000/svg" xmlns:xlink="http://www.w3.org/1999/xlink" version="1.1" viewBox="0 0 283.5 283.5">
  <defs>
    <style>
      .cls-1 {
        fill: url(#Nepojmenovaný_přechod_5-4);
      }

      .cls-2 {
        fill: url(#Nepojmenovaný_přechod_5-2);
      }

      .cls-3 {
        fill: url(#Nepojmenovaný_přechod_5-3);
      }

      .cls-4 {
        fill: url(#Nepojmenovaný_přechod_5-5);
      }

      .cls-5 {
        fill: url(#Nepojmenovaný_přechod_16-3);
      }

      .cls-6 {
        fill: url(#Nepojmenovaný_přechod_16-2);
      }

      .cls-7 {
        fill: url(#Nepojmenovaný_přechod_16-5);
      }

      .cls-8 {
        fill: url(#Nepojmenovaný_přechod_16-4);
      }

      .cls-9 {
        fill: url(#Nepojmenovaný_přechod_11-2);
      }

      .cls-10 {
        fill: url(#Nepojmenovaný_přechod_11-3);
      }

      .cls-11 {
        fill: url(#Nepojmenovaný_přechod_11-4);
      }

      .cls-12 {
        fill: url(#Nepojmenovaný_přechod_16);
      }

      .cls-13 {
        fill: url(#Nepojmenovaný_přechod_11);
      }

      .cls-14 {
        fill: url(#Nepojmenovaný_přechod_6);
      }

      .cls-15 {
        fill: url(#Nepojmenovaný_přechod_5);
      }

      .cls-16 {
        fill: url(#Nepojmenovaný_přechod_8);
      }

      .cls-17 {
        fill: #171721;
      }
    </style>
    <linearGradient id="Nepojmenovaný_přechod_5" data-name="Nepojmenovaný přechod 5" x1="91" y1="110" x2="121.5" y2="200.2" gradientTransform="translate(0 286) scale(1 -1)" gradientUnits="userSpaceOnUse">
      <stop offset="0" stop-color="#999"/>
      <stop offset=".2" stop-color="#9b9b9b"/>
      <stop offset=".3" stop-color="#a3a3a3"/>
      <stop offset=".4" stop-color="#b2b2b2"/>
      <stop offset=".5" stop-color="#c6c6c6"/>
      <stop offset=".5" stop-color="#ccc"/>
      <stop offset=".6" stop-color="#ccc"/>
      <stop offset="1" stop-color="#ccc"/>
    </linearGradient>
    <linearGradient id="Nepojmenovaný_přechod_5-2" data-name="Nepojmenovaný přechod 5" x1="119.2" y1="106.9" x2="147.4" y2="199.5" xlink:href="#Nepojmenovaný_přechod_5"/>
    <linearGradient id="Nepojmenovaný_přechod_5-3" data-name="Nepojmenovaný přechod 5" x1="191.9" y1="107.1" x2="205.3" y2="189.4" xlink:href="#Nepojmenovaný_přechod_5"/>
    <linearGradient id="Nepojmenovaný_přechod_5-4" data-name="Nepojmenovaný přechod 5" x1="155.7" y1="109.5" x2="177.5" y2="191.4" xlink:href="#Nepojmenovaný_přechod_5"/>
    <linearGradient id="Nepojmenovaný_přechod_5-5" data-name="Nepojmenovaný přechod 5" x1="228.9" y1="109.8" x2="231" y2="182.3" xlink:href="#Nepojmenovaný_přechod_5"/>
    <linearGradient id="Nepojmenovaný_přechod_6" data-name="Nepojmenovaný přechod 6" x1="54.5" y1="149" x2="146.3" y2="124.9" gradientTransform="translate(0 286) scale(1 -1)" gradientUnits="userSpaceOnUse">
      <stop offset="0" stop-color="#333"/>
      <stop offset=".3" stop-color="#999"/>
    </linearGradient>
    <linearGradient id="Nepojmenovaný_přechod_11" data-name="Nepojmenovaný přechod 11" x1="47.2" y1="130.6" x2="66" y2="101.3" gradientTransform="translate(0 286) scale(1 -1)" gradientUnits="userSpaceOnUse">
      <stop offset="0" stop-color="#333"/>
      <stop offset=".3" stop-color="#999"/>
    </linearGradient>
    <linearGradient id="Nepojmenovaný_přechod_8" data-name="Nepojmenovaný přechod 8" x1="50.1" y1="125.8" x2="44" y2="135.7" gradientTransform="translate(0 286) scale(1 -1)" gradientUnits="userSpaceOnUse">
      <stop offset="0" stop-color="#333"/>
      <stop offset="1" stop-color="#1a1a1a"/>
    </linearGradient>
    <linearGradient id="Nepojmenovaný_přechod_11-2" data-name="Nepojmenovaný přechod 11" x1="45.3" y1="163.5" x2="65.1" y2="95.5" xlink:href="#Nepojmenovaný_přechod_11"/>
    <linearGradient id="Nepojmenovaný_přechod_11-3" data-name="Nepojmenovaný přechod 11" x1="48.1" y1="127.2" x2="57.6" y2="192.9" xlink:href="#Nepojmenovaný_přechod_11"/>
    <linearGradient id="Nepojmenovaný_přechod_11-4" data-name="Nepojmenovaný přechod 11" x1="37.3" y1="156.1" x2="92" y2="211.5" xlink:href="#Nepojmenovaný_přechod_11"/>
    <linearGradient id="Nepojmenovaný_přechod_16" data-name="Nepojmenovaný přechod 16" x1="97.3" y1="109" x2="111.6" y2="203.2" gradientTransform="translate(0 286) scale(1 -1)" gradientUnits="userSpaceOnUse">
      <stop offset="0" stop-color="#1a1a1a"/>
      <stop offset="0" stop-color="#272727"/>
      <stop offset=".1" stop-color="#4c4c4c"/>
      <stop offset=".3" stop-color="#878787"/>
      <stop offset=".3" stop-color="#b3b3b3"/>
      <stop offset=".4" stop-color="#a9a9a9"/>
      <stop offset=".5" stop-color="#909090"/>
      <stop offset=".7" stop-color="#676767"/>
      <stop offset=".9" stop-color="#2f2f2f"/>
      <stop offset="1" stop-color="#000"/>
    </linearGradient>
    <linearGradient id="Nepojmenovaný_přechod_16-2" data-name="Nepojmenovaný přechod 16" x1="126.6" y1="105.9" x2="140.5" y2="201.6" xlink:href="#Nepojmenovaný_přechod_16"/>
    <linearGradient id="Nepojmenovaný_přechod_16-3" data-name="Nepojmenovaný přechod 16" x1="189.9" y1="94.8" x2="207.1" y2="200.5" xlink:href="#Nepojmenovaný_přechod_16"/>
    <linearGradient id="Nepojmenovaný_přechod_16-4" data-name="Nepojmenovaný přechod 16" x1="157.9" y1="98.1" x2="175.2" y2="202.3" xlink:href="#Nepojmenovaný_přechod_16"/>
    <linearGradient id="Nepojmenovaný_přechod_16-5" data-name="Nepojmenovaný přechod 16" x1="228.5" y1="96.1" x2="231.3" y2="191.7" xlink:href="#Nepojmenovaný_přechod_16"/>
  </defs>
  <!-- Generator: Adobe Illustrator 28.7.1, SVG Export Plug-In . SVG Version: 1.2.0 Build 142)  -->
  <g>
    <g id="Vrstva_1">
      <g id="Vrstva_1-2" data-name="Vrstva_1">
        <rect class="cls-17" x="-.8" width="285" height="285"/>
        <g>
          <g id="LOGO_SPARK">
            <path class="cls-15" d="M106.5,122.4v5.5h9.9s0-7.5,0-7.5c0-1.6-.3-3.2-.9-4.8-.6-1.6-1.5-3-2.7-4.3-1.2-1.3-2.6-2.3-4.4-3.1-1.7-.8-3.6-1.2-5.7-1.2s-4,.4-5.7,1.2c-1.7.8-3.1,1.9-4.3,3.1-1.2,1.3-2.1,2.7-2.7,4.3-.6,1.6-.9,3.2-.9,4.8v4.7c0,2.4.3,4.6.8,6.4.5,1.8,1.2,3.5,2.1,5,.9,1.5,1.9,2.8,2.9,3.9,1,1,2,2.1,3.2,3.1h0c1.2.9,2.2,1.8,3.1,2.8h0c1.7,1.5,3,3.1,3.9,4.9.9,1.8,1.3,3.8,1.3,6.1v5c0,1-.3,1.8-1.1,2.7-.7.8-1.6,1.2-2.8,1.2s-2-.3-2.5-.9c-.6-.7-.9-1.6-1.1-2.7h0c0,0,0-.1,0-.1-.2-.5-.2-1.1-.2-1.6s.1-5.3.1-5.3v-.9s-9.9,0-9.9,0v7.7c0,1.6.3,3.2.9,4.8.6,1.6,1.5,3,2.7,4.3,1.2,1.3,2.6,2.3,4.3,3.1,1.7.8,3.6,1.1,5.7,1.1s4-.4,5.7-1.1c1.7-.8,3.2-1.8,4.4-3.1,1.2-1.3,2.1-2.7,2.7-4.3.6-1.6.9-3.2.9-4.8v-5c0-2.5-.3-4.7-.8-6.5-.5-1.9-1.2-3.5-2.1-5-.9-1.4-1.9-2.7-3-3.8-1-1-2.1-2.1-3.3-3.1l-3.2-2.8c-.4-.5-.9-1-1.3-1.5-.4-.5-.9-1-1.3-1.5-.8-1.1-1.4-2.3-1.9-3.6-.5-1.3-.7-2.7-.7-4.4v-4.7c0-1.1.3-2,1-2.8.6-.8,1.5-1.2,2.7-1.2s2.1.3,2.6.9c.6.7.9,1.6,1.1,2.8,0,.3.1.6.1.9,0,.4,0,.7,0,1.1v.3h0Z"/>
            <path class="cls-2" d="M146.4,115.5c-.6-1.6-1.5-3-2.7-4.3-1.2-1.3-2.6-2.3-4.3-3.1-1.7-.8-3.6-1.2-5.7-1.2s-4,.4-5.7,1.2c-1.7.8-3.2,1.9-4.4,3.1-1.2,1.3-2.1,2.7-2.7,4.3-.6,1.6-.9,3.2-.9,4.8v54.5h9.9v-12.1c2.6-.6,5-1.5,7-2.8,2.3-1.4,4.2-3.1,5.7-5.1,1.5-2,2.7-4.2,3.5-6.5.8-2.3,1.2-4.7,1.2-7v-21.1c0-1.6-.3-3.2-.9-4.8h0ZM137.5,141.4c0,.3,0,.6,0,1,0,0,0,.2,0,.3,0,.2,0,.4,0,.6,0,.1,0,.3,0,.4,0,.2,0,.3-.1.5,0,.2-.1.4-.2.6,0,0,0,.2,0,.3,0,.3-.2.5-.3.8,0,0,0,0,0,0,0,.2-.2.5-.3.7-.2.4-.4.9-.7,1.3-.1.2-.3.4-.4.6,0,0,0,0,0,0h0c-.3.5-.6.9-1,1.3,0,0,0,0,0,0-.1.2-.3.3-.4.5-1.2,1.2-2.5,2.1-3.8,2.5v-32.5c0-1.1.3-2,1.1-2.8.7-.8,1.6-1.2,2.8-1.2s2,.4,2.6,1.2c.7.8,1.1,1.8,1.1,2.8v21.1Z"/>
            <path class="cls-3" d="M209.9,115.4c-.6-1.6-1.5-3-2.7-4.3-1.2-1.3-2.6-2.3-4.3-3.1-1.7-.8-3.6-1.1-5.6-1.1s-4,.4-5.7,1.1c-1.7.8-3.2,1.8-4.4,3.1-1.2,1.3-2.1,2.7-2.7,4.3-.6,1.6-.9,3.2-.9,4.8v54.7h9.9v-16.3c2.2,1,4,2.4,5.3,4.4,1.5,2.4,2.3,4.7,2.3,7.1v4.7h9.9v-4.7c0-3.3-.8-6.7-2.4-9.9-1.4-2.9-3.5-5.4-6.1-7.4,2.7-2,4.7-4.5,6.1-7.4,1.6-3.2,2.4-6.5,2.4-9.8v-15.4c0-1.6-.3-3.2-.9-4.8h0ZM200.9,135.6c0,.1,0,.3,0,.4,0,.4,0,.9-.1,1.3,0,.2,0,.4-.1.6,0,0,0,.2,0,.2,0,.2,0,.3-.1.5,0,.2,0,.3-.1.5-.4,1.4-1.1,2.7-2,3.9-.1.2-.3.4-.5.6-1.2,1.5-2.7,2.6-4.6,3.4v-26.8c0-1,.3-1.8,1.1-2.7.7-.8,1.6-1.2,2.8-1.2s2,.4,2.6,1.2c.7.8,1.1,1.7,1.1,2.7v15.4h0Z"/>
            <path class="cls-1" d="M177.4,120.9c0-1.6-.3-3.2-.9-4.8-.6-1.6-1.5-3-2.7-4.3-1.2-1.3-2.7-2.3-4.4-3.1-1.7-.8-3.6-1.1-5.7-1.1h-7.8v9.5h7.8c1.2,0,2.1.4,2.8,1.2.7.8,1.1,1.7,1.1,2.7v4.4c-2.6.6-5,1.5-7.1,2.8-2.2,1.4-4.1,3.1-5.7,5.1-1.5,2-2.7,4.2-3.5,6.5-.8,2.3-1.2,4.7-1.2,7v15.5c0,1.6.3,3.2.9,4.8.6,1.6,1.5,3,2.7,4.3,1.2,1.3,2.7,2.3,4.4,3.1,1.7.8,3.6,1.1,5.7,1.1s4-.4,5.7-1.1c1.7-.8,3.1-1.8,4.3-3.1,1.2-1.3,2.1-2.7,2.7-4.3.6-1.6.9-3.2.9-4.8v-41.3h0ZM167.5,162.2c0,1-.3,1.8-1.1,2.7-.7.8-1.6,1.2-2.6,1.2s-2.1-.4-2.8-1.2c-.7-.8-1.1-1.7-1.1-2.7v-15.5c0-.4,0-.8,0-1.2,0,0,0,0,0,0,0-.3,0-.7.1-1,0-.2,0-.3.1-.5.3-1.2.7-2.3,1.3-3.3,0,0,0,0,0-.1,0,0,0-.2.2-.3.1-.2.3-.5.4-.7,0,0,0,0,0,0,0-.1.2-.3.3-.4.1-.2.2-.3.4-.5,0,0,0,0,0,0,.2-.2.4-.5.6-.7,0,0,.1-.2.2-.2,0,0,0,0,.1,0,0,0,0,0,0,0,.3-.3.6-.5,1-.8,0,0,0,0,0,0,0,0,0,0,.1,0,.2-.2.5-.3.8-.5,0,0,.2-.1.3-.2,0,0,0,0,0,0,.4-.2.7-.4,1.1-.6,0,0,0,0,.1,0v26.9h0Z"/>
            <path class="cls-4" d="M243.6,135v-27.4h-9.9v27.4c0,.4,0,.7,0,1.1,0,.1,0,.2,0,.3,0,.2,0,.4-.1.7-.4,2.4-1.5,4.5-3,6.2,0,.1-.2.2-.3.3-.2.2-.5.4-.7.7-.3.3-.6.5-.9.7-.2.1-.4.3-.6.4-.2.1-.4.3-.6.4-.3.2-.7.4-1,.5,0,0-.2,0-.3.1v-38.8h-9.9v67.3h9.9v-18h3.9c1.1,0,2,.4,2.6,1.2.7.8,1.1,1.7,1.1,2.7v14.1h9.9v-11.1c0-2.7-.3-5.3-1-7.9-.7-2.5-2.3-4.5-4.9-6.1,1.8-1.9,3.3-4.1,4.2-6.5,1.1-2.7,1.7-5.5,1.7-8.3h0Z"/>
          </g>
          <g>
            <rect id="PASIK" class="cls-14" x="71.1" y="95.8" width="2.8" height="91.8"/>
            <g id="I">
              <path class="cls-13" d="M51.5,163.9h1.7c.2,0,.4-.2.4-.4v-10.1l-10.2,7.6c2.1,1.8,5,2.9,8.2,2.9Z"/>
              <path class="cls-16" d="M43.3,161l10.2-7.6v-.5l-11.7,6.7c.4.5.9,1,1.4,1.5Z"/>
              <path class="cls-9" d="M52.8,127.1c-.1,0-.2,0-.3,0l-10.2,5.8c-.1,0-.2.2-.3.3-.2.3,0,.8.3,1l10.2,5.8c.1,0,.2,0,.4,0,.4,0,.7-.3.7-.7v-11.7c0-.1,0-.2,0-.3-.1-.2-.4-.4-.6-.4Z"/>
              <path class="cls-10" d="M60.6,147.6l-11.4-6.5-8.3-4.7c-.1,0-.2,0-.3,0h0s0,0-.1,0c-.3,0-.6.4-.6.7v17c0,1,.2,2,.5,2.9,0,.2.1.3.2.5,0,0,0,0,0,0,0,.2.2.3.2.5,0,0,0,0,0,0,.3.5.6,1,1,1.5h0s11.7-6.7,11.7-6.7l7.1-4.1c.1,0,.2-.2.3-.3.2-.3,0-.8-.3-1h0Z"/>
              <path class="cls-11" d="M45.6,127.1c3.7.6,7.2-1.9,7.8-5.6.6-3.7-1.9-7.2-5.6-7.8-.4,0-.7,0-1.1,0-3.3,0-6.2,2.4-6.7,5.7-.6,3.7,1.9,7.2,5.6,7.8Z"/>
            </g>
          </g>
          <g id="LOGO_SPARK-2">
            <path class="cls-12" d="M106.5,122.4v5.5h9.9s0-7.5,0-7.5c0-1.6-.3-3.2-.9-4.8-.6-1.6-1.5-3-2.7-4.3-1.2-1.3-2.6-2.3-4.4-3.1-1.7-.8-3.6-1.2-5.7-1.2s-4,.4-5.7,1.2c-1.7.8-3.1,1.9-4.3,3.1-1.2,1.3-2.1,2.7-2.7,4.3-.6,1.6-.9,3.2-.9,4.8v4.7c0,2.4.3,4.6.8,6.4.5,1.8,1.2,3.5,2.1,5,.9,1.5,1.9,2.8,2.9,3.9,1,1,2,2.1,3.2,3.1h0c1.2.9,2.2,1.8,3.1,2.8h0c1.7,1.5,3,3.1,3.9,4.9.9,1.8,1.3,3.8,1.3,6.1v5c0,1-.3,1.8-1.1,2.7-.7.8-1.6,1.2-2.8,1.2s-2-.3-2.5-.9c-.6-.7-.9-1.6-1.1-2.7h0c0,0,0-.1,0-.1-.2-.5-.2-1.1-.2-1.6s.1-5.3.1-5.3v-.9s-9.9,0-9.9,0v7.7c0,1.6.3,3.2.9,4.8.6,1.6,1.5,3,2.7,4.3,1.2,1.3,2.6,2.3,4.3,3.1,1.7.8,3.6,1.1,5.7,1.1s4-.4,5.7-1.1c1.7-.8,3.2-1.8,4.4-3.1,1.2-1.3,2.1-2.7,2.7-4.3.6-1.6.9-3.2.9-4.8v-5c0-2.5-.3-4.7-.8-6.5-.5-1.9-1.2-3.5-2.1-5-.9-1.4-1.9-2.7-3-3.8-1-1-2.1-2.1-3.3-3.1l-3.2-2.8c-.4-.5-.9-1-1.3-1.5-.4-.5-.9-1-1.3-1.5-.8-1.1-1.4-2.3-1.9-3.6-.5-1.3-.7-2.7-.7-4.4v-4.7c0-1.1.3-2,1-2.8.6-.8,1.5-1.2,2.7-1.2s2.1.3,2.6.9c.6.7.9,1.6,1.1,2.8,0,.3.1.6.1.9,0,.4,0,.7,0,1.1v.3h0Z"/>
            <path class="cls-6" d="M146.4,115.5c-.6-1.6-1.5-3-2.7-4.3-1.2-1.3-2.6-2.3-4.3-3.1-1.7-.8-3.6-1.2-5.7-1.2s-4,.4-5.7,1.2c-1.7.8-3.2,1.9-4.4,3.1-1.2,1.3-2.1,2.7-2.7,4.3-.6,1.6-.9,3.2-.9,4.8v54.5h9.9v-12.1c2.6-.6,5-1.5,7-2.8,2.3-1.4,4.2-3.1,5.7-5.1,1.5-2,2.7-4.2,3.5-6.5.8-2.3,1.2-4.7,1.2-7v-21.1c0-1.6-.3-3.2-.9-4.8h0ZM137.5,141.4c0,.3,0,.6,0,1,0,0,0,.2,0,.3,0,.2,0,.4,0,.6,0,.1,0,.3,0,.4,0,.2,0,.3-.1.5,0,.2-.1.4-.2.6,0,0,0,.2,0,.3,0,.3-.2.5-.3.8,0,0,0,0,0,0,0,.2-.2.5-.3.7-.2.4-.4.9-.7,1.3-.1.2-.3.4-.4.6,0,0,0,0,0,0h0c-.3.5-.6.9-1,1.3,0,0,0,0,0,0-.1.2-.3.3-.4.5-1.2,1.2-2.5,2.1-3.8,2.5v-32.5c0-1.1.3-2,1.1-2.8.7-.8,1.6-1.2,2.8-1.2s2,.4,2.6,1.2c.7.8,1.1,1.8,1.1,2.8v21.1Z"/>
            <path class="cls-5" d="M209.9,115.4c-.6-1.6-1.5-3-2.7-4.3-1.2-1.3-2.6-2.3-4.3-3.1-1.7-.8-3.6-1.1-5.6-1.1s-4,.4-5.7,1.1c-1.7.8-3.2,1.8-4.4,3.1-1.2,1.3-2.1,2.7-2.7,4.3-.6,1.6-.9,3.2-.9,4.8v54.7h9.9v-16.3c2.2,1,4,2.4,5.3,4.4,1.5,2.4,2.3,4.7,2.3,7.1v4.7h9.9v-4.7c0-3.3-.8-6.7-2.4-9.9-1.4-2.9-3.5-5.4-6.1-7.4,2.7-2,4.7-4.5,6.1-7.4,1.6-3.2,2.4-6.5,2.4-9.8v-15.4c0-1.6-.3-3.2-.9-4.8h0ZM200.9,135.6c0,.1,0,.3,0,.4,0,.4,0,.9-.1,1.3,0,.2,0,.4-.1.6,0,0,0,.2,0,.2,0,.2,0,.3-.1.5,0,.2,0,.3-.1.5-.4,1.4-1.1,2.7-2,3.9-.1.2-.3.4-.5.6-1.2,1.5-2.7,2.6-4.6,3.4v-26.8c0-1,.3-1.8,1.1-2.7.7-.8,1.6-1.2,2.8-1.2s2,.4,2.6,1.2c.7.8,1.1,1.7,1.1,2.7v15.4h0Z"/>
            <path class="cls-8" d="M177.4,120.9c0-1.6-.3-3.2-.9-4.8-.6-1.6-1.5-3-2.7-4.3-1.2-1.3-2.7-2.3-4.4-3.1-1.7-.8-3.6-1.1-5.7-1.1h-7.8v9.5h7.8c1.2,0,2.1.4,2.8,1.2.7.8,1.1,1.7,1.1,2.7v4.4c-2.6.6-5,1.5-7.1,2.8-2.2,1.4-4.1,3.1-5.7,5.1-1.5,2-2.7,4.2-3.5,6.5-.8,2.3-1.2,4.7-1.2,7v15.5c0,1.6.3,3.2.9,4.8.6,1.6,1.5,3,2.7,4.3,1.2,1.3,2.7,2.3,4.4,3.1,1.7.8,3.6,1.1,5.7,1.1s4-.4,5.7-1.1c1.7-.8,3.1-1.8,4.3-3.1,1.2-1.3,2.1-2.7,2.7-4.3.6-1.6.9-3.2.9-4.8v-41.3h0ZM167.5,162.2c0,1-.3,1.8-1.1,2.7-.7.8-1.6,1.2-2.6,1.2s-2.1-.4-2.8-1.2c-.7-.8-1.1-1.7-1.1-2.7v-15.5c0-.4,0-.8,0-1.2,0,0,0,0,0,0,0-.3,0-.7.1-1,0-.2,0-.3.1-.5.3-1.2.7-2.3,1.3-3.3,0,0,0,0,0-.1,0,0,0-.2.2-.3.1-.2.3-.5.4-.7,0,0,0,0,0,0,0-.1.2-.3.3-.4.1-.2.2-.3.4-.5,0,0,0,0,0,0,.2-.2.4-.5.6-.7,0,0,.1-.2.2-.2,0,0,0,0,.1,0,0,0,0,0,0,0,.3-.3.6-.5,1-.8,0,0,0,0,0,0,0,0,0,0,.1,0,.2-.2.5-.3.8-.5,0,0,.2-.1.3-.2,0,0,0,0,0,0,.4-.2.7-.4,1.1-.6,0,0,0,0,.1,0v26.9h0Z"/>
            <path class="cls-7" d="M243.6,135v-27.4h-9.9v27.4c0,.4,0,.7,0,1.1,0,.1,0,.2,0,.3,0,.2,0,.4-.1.7-.4,2.4-1.5,4.5-3,6.2,0,.1-.2.2-.3.3-.2.2-.5.4-.7.7-.3.3-.6.5-.9.7-.2.1-.4.3-.6.4-.2.1-.4.3-.6.4-.3.2-.7.4-1,.5,0,0-.2,0-.3.1v-38.8h-9.9v67.3h9.9v-18h3.9c1.1,0,2,.4,2.6,1.2.7.8,1.1,1.7,1.1,2.7v14.1h9.9v-11.1c0-2.7-.3-5.3-1-7.9-.7-2.5-2.3-4.5-4.9-6.1,1.8-1.9,3.3-4.1,4.2-6.5,1.1-2.7,1.7-5.5,1.7-8.3h0Z"/>
          </g>
        </g>
      </g>
    </g>
  </g>
</svg>