<svg width="284" height="284" viewBox="0 0 284 284" fill="none" xmlns="http://www.w3.org/2000/svg">
<g clip-path="url(#clip0_2_42)">
<path d="M283.5 0H0V283.5H283.5V0Z" fill="#336699"/>
<path d="M246.285 97L238.366 104.238L204.738 162.012L193.735 126.854C193.735 126.854 190.491 125.845 188.87 125.342L194.424 143.502L176.329 163.859L198.134 156.938L203.103 173.169L215.994 150.431L240.522 141.841L223.882 136.522L246.285 97ZM232.69 109.335L208.364 131.391L201.082 129.131L206.994 145.529L232.69 109.335ZM41.102 127.239C39.2724 127.244 37.957 127.285 38.0011 127.392L51.3614 159.689L63.9566 159.691L78.227 127.392L69.733 127.388L60.6604 150.698L51.6403 127.388C51.6403 127.388 45.127 127.227 41.102 127.239ZM157.203 127.387C153.799 127.387 151.076 127.388 151.076 127.388V159.691C151.076 159.691 161.973 159.693 167.421 159.691C172.4 159.687 177.445 158.156 181.374 155.051C184.163 152.862 186.279 149.773 187.098 146.307C187.895 142.898 187.713 139.159 186.117 136.002C184.756 133.288 182.347 131.223 179.647 129.904C175.862 128.053 171.595 127.405 167.414 127.39C164.691 127.387 160.607 127.387 157.203 127.387ZM80.024 127.388V159.691H92.4599V127.388L80.024 127.388ZM107.592 127.388L93.9421 127.392L107.315 159.691L119.91 159.689L134.185 127.392L125.683 127.388C125.683 127.388 116.344 150.622 116.608 150.698L107.592 127.388ZM135.902 127.388V159.691L148.338 159.693V127.388L135.902 127.388ZM164.343 132.3C166.409 132.288 168.525 132.472 170.345 133.525C172.61 134.746 174.019 137.142 174.453 139.629C174.874 142.047 174.73 144.54 174.292 146.945C173.797 149.517 172.553 152.14 170.226 153.522C168.211 154.78 165.76 154.828 163.462 154.776V132.316C163.754 132.308 164.048 132.302 164.343 132.3Z" fill="white"/>
</g>
<defs>
<clipPath id="clip0_2_42">
<rect width="283.5" height="283.5" fill="white"/>
</clipPath>
</defs>
</svg>
