<svg width="284" height="284" viewBox="0 0 284 284" fill="none" xmlns="http://www.w3.org/2000/svg">
<g clip-path="url(#clip0_3_74)">
<path d="M283.5 0H0V283.5H283.5V0Z" fill="white"/>
<path opacity="0.946" fill-rule="evenodd" clip-rule="evenodd" d="M49 122.013C55.4626 122.013 61.9253 122.013 68.3879 122.013C68.3879 122.412 68.3879 122.812 68.3879 123.212C66.4511 123.145 64.5191 123.212 62.5915 123.412C66.1933 132.719 69.891 141.98 73.6846 151.194C77.4774 141.881 81.3083 132.586 85.1774 123.312C83.6466 123.212 82.1141 123.179 80.5803 123.212C80.5803 122.812 80.5803 122.412 80.5803 122.013C84.3779 122.013 88.1756 122.013 91.9732 122.013C91.9732 122.412 91.9732 122.812 91.9732 123.212C90.2359 123.146 88.5036 123.212 86.7764 123.412C81.4464 136.204 76.1165 148.996 70.7864 161.788C70.3477 162.041 69.9148 162.041 69.4872 161.788C64.3125 148.973 59.0823 136.181 53.797 123.412C52.2036 123.212 50.6046 123.146 49 123.212C49 122.812 49 122.412 49 122.013Z" fill="black"/>
<path opacity="0.979" fill-rule="evenodd" clip-rule="evenodd" d="M93.1725 122.013C99.5685 122.013 105.965 122.013 112.361 122.013C112.361 122.412 112.361 122.812 112.361 123.212C110.628 123.212 108.896 123.212 107.164 123.212C107.164 135.737 107.164 148.263 107.164 160.788C108.896 160.788 110.628 160.788 112.361 160.788C112.361 161.188 112.361 161.588 112.361 161.988C105.965 161.988 99.5685 161.988 93.1725 161.988C93.1725 161.588 93.1725 161.188 93.1725 160.788C94.9048 160.788 96.6369 160.788 98.3692 160.788C98.3692 148.263 98.3692 135.737 98.3692 123.212C96.6369 123.212 94.9048 123.212 93.1725 123.212C93.1725 122.812 93.1725 122.412 93.1725 122.013Z" fill="black"/>
<path opacity="0.95" fill-rule="evenodd" clip-rule="evenodd" d="M113.76 122.013C120.156 122.013 126.552 122.013 132.948 122.013C132.948 122.412 132.948 122.812 132.948 123.212C131.41 123.146 129.877 123.212 128.351 123.412C131.343 128.235 134.374 133.032 137.445 137.803C141.523 133.043 145.554 128.246 149.537 123.412C148.145 123.212 146.746 123.146 145.34 123.212C145.34 122.812 145.34 122.412 145.34 122.013C148.938 122.013 152.536 122.013 156.133 122.013C156.133 122.412 156.133 122.812 156.133 123.212C154.6 123.179 153.067 123.212 151.536 123.312C147.136 128.644 142.739 133.974 138.344 139.302C142.782 146.411 147.246 153.507 151.736 160.588C153.196 160.788 154.662 160.855 156.133 160.788C156.133 161.188 156.133 161.588 156.133 161.988C149.471 161.988 142.808 161.988 136.146 161.988C136.146 161.588 136.146 161.188 136.146 160.788C137.879 160.822 139.612 160.788 141.343 160.688C138.311 155.925 135.28 151.161 132.248 146.397C128.194 151.143 124.163 155.906 120.156 160.688C121.753 160.788 123.352 160.822 124.953 160.788C124.953 161.188 124.953 161.588 124.953 161.988C121.222 161.988 117.491 161.988 113.76 161.988C113.76 161.588 113.76 161.188 113.76 160.788C115.227 160.822 116.693 160.788 118.157 160.688C122.592 155.488 126.989 150.258 131.349 144.998C126.818 137.803 122.288 130.607 117.757 123.412C116.431 123.212 115.099 123.146 113.76 123.212C113.76 122.812 113.76 122.412 113.76 122.013Z" fill="black"/>
<path opacity="0.962" fill-rule="evenodd" clip-rule="evenodd" d="M157.333 122.013C169.525 122.013 181.717 122.013 193.91 122.013C193.91 125.344 193.91 128.675 193.91 132.006C193.439 132.039 192.972 132.006 192.511 131.906C190.258 127.257 186.593 124.392 181.517 123.312C178.12 123.212 174.722 123.178 171.324 123.212C171.324 128.742 171.324 134.271 171.324 139.801C173.057 139.835 174.79 139.801 176.521 139.702C178.661 139.36 180.16 138.194 181.018 136.204C181.512 134.822 181.945 133.423 182.317 132.006C182.696 131.813 183.096 131.747 183.516 131.806C183.516 137.736 183.516 143.666 183.516 149.595C183.096 149.655 182.696 149.589 182.317 149.395C181.793 146.782 180.66 144.483 178.919 142.5C178.129 141.938 177.263 141.538 176.321 141.301C174.656 141.201 172.991 141.167 171.324 141.201C171.324 147.73 171.324 154.259 171.324 160.788C174.722 160.822 178.12 160.788 181.517 160.688C186.46 159.744 189.825 156.912 191.611 152.194C191.932 151.266 192.231 150.333 192.511 149.395C192.959 149.201 193.425 149.134 193.91 149.196C193.91 153.46 193.91 157.724 193.91 161.988C181.717 161.988 169.525 161.988 157.333 161.988C157.333 161.588 157.333 161.188 157.333 160.788C159.065 160.788 160.797 160.788 162.529 160.788C162.529 148.263 162.529 135.737 162.529 123.212C160.797 123.212 159.065 123.212 157.333 123.212C157.333 122.812 157.333 122.412 157.333 122.013Z" fill="black"/>
<path opacity="0.953" fill-rule="evenodd" clip-rule="evenodd" d="M195.109 122.013C199.774 121.979 204.437 122.013 209.1 122.112C215.274 130.752 221.371 139.446 227.389 148.196C227.489 139.868 227.523 131.54 227.489 123.212C225.624 123.212 223.757 123.212 221.892 123.212C221.892 122.812 221.892 122.412 221.892 122.013C225.824 122.013 229.753 122.013 233.685 122.013C233.685 122.412 233.685 122.812 233.685 123.212C232.086 123.212 230.487 123.212 228.888 123.212C228.888 136.137 228.888 149.062 228.888 161.988C228.018 162.021 227.153 161.987 226.289 161.888C217.921 150.114 209.626 138.288 201.405 126.41C201.305 137.869 201.271 149.329 201.305 160.788C203.238 160.788 205.169 160.788 207.101 160.788C207.101 161.188 207.101 161.588 207.101 161.988C203.104 161.988 199.106 161.988 195.109 161.988C195.109 161.588 195.109 161.188 195.109 160.788C196.708 160.788 198.307 160.788 199.906 160.788C199.906 148.263 199.906 135.737 199.906 123.212C198.307 123.212 196.708 123.212 195.109 123.212C195.109 122.812 195.109 122.412 195.109 122.013Z" fill="black"/>
</g>
<defs>
<clipPath id="clip0_3_74">
<rect width="283.5" height="283.5" fill="white"/>
</clipPath>
</defs>
</svg>
