<?xml version="1.0" encoding="utf-8"?>
<!-- Generator: Adobe Illustrator 28.0.0, SVG Export Plug-In . SVG Version: 6.00 Build 0)  -->
<svg version="1.1" id="Vrstva_1" xmlns="http://www.w3.org/2000/svg" xmlns:xlink="http://www.w3.org/1999/xlink" x="0px" y="0px"
	 viewBox="0 0 283.5 283.5" style="enable-background:new 0 0 283.5 283.5;" xml:space="preserve">
<style type="text/css">
	.st0{fill:#1B2932;}
	.st1{fill:#FFFFFF;}
</style>
<rect y="0" class="st0" width="283.5" height="283.5"/>
<g id="_x33_rRZjb.tif">
	<g>
	</g>
</g>
<g id="KhFXpY.tif">
	<g>
		<path class="st1" d="M191.2,90.9c0,4.6-0.3,9.2-0.7,13.8c-0.3,3.3-0.8,6.6-1.4,9.9c-0.2,1.1-0.4,2.1-0.6,3.2
			c-0.1,0.4,0,0.6,0.5,0.5c11.7-1.3,21.2,2.7,28.2,12.2c2.9,3.9,4.6,8.5,5.1,13.3c1,9.3-1.7,17.3-8.1,24.1c-1.4,1.5-3,2.7-4.7,3.9
			c-4,2.7-8.3,4.3-13.1,4.8c-5.9,0.6-11.5-0.4-16.8-3.1c-3.8-2-7-4.7-9.6-8.1c-0.5-0.6-0.5-0.6-0.9,0c-1.1,1.7-2.3,3.4-3.5,5.1
			c-1.5,2.1-3.1,4.1-4.6,6.2c-0.9,1.2-2,2.3-3,3.5c-2.9,3.6-6.1,6.9-9.3,10.1c-6.5,6.3-13.5,11.9-20.9,16.9c-1,0.7-1.9,0.7-2.9,0
			c-7.6-5.1-14.8-10.8-21.3-17.3c-11.9-11.6-21.5-24.9-28.7-39.9c-4.6-9.5-8-19.4-10.3-29.7c-0.8-3.3-1.4-6.7-1.9-10.1
			c-0.4-2.7-0.7-5.4-0.9-8.2c-0.4-4.8-0.6-9.6-0.5-14.4c0.1-4.7,0.6-9.4,1.5-14c0.1-0.7,0.4-1.1,1.1-1.2c1.8-0.4,3.6-0.9,5.4-1.3
			c2-0.5,4-1,5.9-1.6c0.3-0.1,0.5-0.3,0.6-0.6c0.5-2.1,1.1-4.2,1.6-6.3c0.1-0.6,0.4-0.9,1-1c3.9-1,7.7-2.1,11.6-3.1
			c0.4-0.1,0.6-0.3,0.6-0.7c0.4-1.9,0.9-3.7,1.3-5.6c0.2-1.1,0.4-1.3,1.5-1.5c4.3-0.8,8.6-1.6,12.8-2.4c3.2-0.6,6.4-1.2,9.7-1.8
			c3.3-0.6,6.5-1.2,9.8-1.8c0.6-0.1,1.2,0,1.8,0.2c6.2,1.2,12.4,2.3,18.7,3.5c3.9,0.7,7.9,1.5,11.8,2.2c0.5,0.1,1,0.2,1.5,0.3
			c0.6,0.1,0.9,0.5,1.1,1.1c0.4,2,0.9,4,1.4,6c0.1,0.4,0.3,0.6,0.7,0.7c3.8,1,7.6,2,11.4,3c0.7,0.2,1.1,0.5,1.2,1.2c0.5,2,1,4,1.5,6
			c0.1,0.5,0.3,0.7,0.8,0.8c3.7,1,7.4,2,11.1,2.9c0.7,0.2,1,0.5,1.1,1.2c0.6,3.3,1,6.6,1.3,9.9C191.2,86.1,191.1,88.5,191.2,90.9z
			 M121.3,124.9C121.3,124.9,121.3,124.9,121.3,124.9c0-11.3,0-22.7,0-34c0-8.5,0-16.9,0-25.4c0-0.5,0-1-0.7-0.9
			c-2.8,0.3-5.5,0.9-8.3,1.5c-0.5,0.1-0.7,0.4-0.8,0.9c0,0.3,0,0.7,0,1c0,7.3,0.1,14.6,0.1,21.8c0.1,15.3,0.1,30.6,0.2,45.9
			c0,4.5,0.1,9,0.4,13.5c0,0.3,0,0.7-0.4,0.7c-0.4,0.1-0.4-0.3-0.5-0.5c-1.3-3.8-2.3-7.7-3.2-11.6c-1.5-6.7-2.6-13.4-3.4-20.2
			c-0.7-5.8-1.2-11.7-1.5-17.6c-0.3-5.9-0.5-11.7-0.5-17.6c0-4,0-8.1,0.1-12.1c0-0.8-0.2-1-0.9-0.7c-2.8,1.2-5.6,2.5-8.2,4.2
			c-0.5,0.4-0.8,0.8-0.8,1.4c0,2.4-0.1,4.8-0.1,7.3c0,6,0.1,12,0.5,17.9c0.2,2.9,0.3,5.8,0.6,8.7c0.4,4.5,0.9,9.1,1.6,13.6
			c0.7,4.4,1.4,8.9,2.4,13.2c0.1,0.6,0,1-0.5,1.3c-0.4,0.2-0.7,0.5-1.1,0.7c-1,0.6-1.4,0.5-1.9-0.5c-1.5-3.2-2.6-6.5-3.7-9.8
			c-1-3.1-1.8-6.2-2.4-9.4c-0.7-3.4-1.3-6.7-1.8-10.1c-0.4-2.5-0.7-5-0.9-7.6c-0.3-3.6-0.6-7.2-0.7-10.8c-0.1-2.5-0.2-5-0.2-7.5
			c0-0.3,0-0.7-0.4-0.9c-0.3-0.1-0.5,0.1-0.7,0.2c-2.7,2.5-5.2,5-7.5,7.9c-0.5,0.7-0.8,1.4-0.8,2.3c0.1,2.6,0.3,5.2,0.5,7.8
			c0.6,6.2,1.6,12.3,2.9,18.3c2,8.8,4.5,17.4,8.2,25.6c1,2.2,2.1,4.5,3.3,6.6c0.9,1.5,2.2,1.9,3.6,1c2-1.3,4-2.5,6-3.8
			c0.7-0.5,0.7-0.5,1,0.4c2.8,9.3,6.6,18.3,11.7,26.6c2.3,3.7,4.9,7.3,7.8,10.6c0.1,0.2,0.3,0.4,0.5,0.3c0.3-0.1,0.2-0.4,0.2-0.6
			C121.3,164.6,121.3,144.7,121.3,124.9z M162.9,104.9c0.1-0.2,0.2-0.3,0.3-0.4c2.8-3.2,4.6-6.9,5.3-11.1c1.1-6.1-0.2-11.6-4.3-16.3
			c-3.2-3.7-7.3-6.2-11.8-8.1c-6.6-2.7-13.5-3.9-20.5-4.5c-0.8-0.1-0.9,0-0.9,0.9c0,39.5,0,79,0,118.6c0,0.3-0.1,0.7,0.2,0.8
			c0.3,0.2,0.6-0.2,0.8-0.4c0,0,0.1-0.1,0.1-0.1c5.7-5.3,11.1-10.7,16.3-16.5c5.5-6.2,10.7-12.8,15.1-19.9c0.2-0.4,0.4-0.8,0.4-1.3
			c-0.1-1.3,0.1-2.6,0.3-3.9c1.1-6.2,3.7-11.6,8.1-16.1c0.2-0.2,0.4-0.4,0.4-0.7c0.2-1.5,0.5-3,0.5-4.5c0.1-2.1,0-4.2-0.4-6.3
			c-0.6-3-1.9-5.6-4.3-7.6C166.9,106.4,165,105.5,162.9,104.9z M201.5,147.7c0,0-0.1,0-0.1,0c-0.1-0.2-0.2-0.5-0.2-0.7
			c-1.2-3.7-2.4-7.4-3.6-11c-0.1-0.4-0.3-0.5-0.7-0.5c-7.3,0-14.6,0-21.9,0c-0.4,0-0.6,0.1-0.6,0.6c0,1.7,0,3.3,0,5
			c0,0.4,0.1,0.6,0.5,0.5c1.1,0,2.1,0,3.2,0c0.6,0,0.8,0.2,0.7,0.8c0,5.4,0,10.8,0,16.2c0,0.7,0.2,0.8,0.8,0.8c2.1,0,4.2,0,6.4,0
			c0.7,0,0.8-0.2,0.8-0.8c0-5.4,0-10.9,0-16.3c0-0.5,0.1-0.7,0.7-0.7c1.2,0,2.5,0,3.7,0c0.4,0,0.6,0.1,0.8,0.5
			c2.2,5.7,4.4,11.4,6.6,17.1c0.2,0.4,0.4,0.6,0.8,0.6c1.6,0,3.3,0,4.9,0c0.5,0,0.7-0.2,0.9-0.6c2.3-6.4,4.7-12.9,7-19.3
			c0.5-1.4,1-2.9,1.6-4.3c-0.1,0-0.2-0.1-0.3-0.1c-2.6,0-5.1,0-7.7,0c-0.4,0-0.5,0.2-0.6,0.5C204,139.9,202.7,143.8,201.5,147.7z"/>
		<path class="st1" d="M195.7,220.9c2.3,0,4.6,0,6.9,0c1.6,0,3.2,0,4.8,0c1.2,0,1.2,0,1.5,1.1c0.5,1.6,1.1,3.1,1.6,4.7
			c0.6,2.1,1.5,4.1,2.1,6.3c0.1,0.2,0.1,0.5,0.4,0.5c0.3,0,0.2-0.3,0.2-0.5c0.2-0.8,0.5-1.5,0.7-2.2c0.4-1.1,0.8-2.3,1.2-3.4
			c0.6-1.6,1.1-3.2,1.7-4.8c0.1-0.4,0.3-0.7,0.4-1.1c0-0.3,0.3-0.5,0.6-0.5c1.3,0,2.6,0,3.8,0c0.4,0,0.5,0.1,0.3,0.5
			c-0.6,1-0.7,2.2-1.2,3.2c-0.7,1.5-1.2,3-1.8,4.6c-0.5,1.3-1.1,2.6-1.5,3.9c-0.3,0.9-0.8,1.8-1.1,2.7c-0.3,0.7-0.6,1.5-0.8,2.2
			c-0.2,0.6-0.5,0.8-1.1,0.8c-1.2,0-2.4,0-3.6,0c-0.3,0-0.5-0.1-0.6-0.4c-0.8-1.8-1.4-3.6-2.1-5.4c-0.6-1.6-1.3-3.2-1.8-4.9
			c-0.3-0.9-0.7-1.7-1-2.6c-0.4-1.1-0.8-2.2-1.2-3.3c0,0,0-0.1,0-0.1c-0.2-0.2-0.2-0.6-0.4-0.6c-0.3,0.1-0.1,0.5-0.1,0.7
			c0,0.7,0,1.4,0,2.1c0,0.4-0.1,0.6-0.6,0.6c-1.3,0-2.7,0-4,0c-0.6,0-0.7,0.1-0.7,0.7c0,4.2,0,8.3,0,12.5c0,0.6-0.2,0.7-0.7,0.7
			c-1.1,0-2.1,0-3.2,0c-0.6,0-0.7-0.1-0.7-0.7c0-4.2,0-8.3,0-12.5c0-0.6-0.2-0.8-0.8-0.8c-1.3,0.1-2.6,0-4,0c-0.4,0-0.5-0.1-0.5-0.5
			c0-1,0-2,0-2.9c0-0.4,0.2-0.5,0.5-0.5C191,221,193.3,220.9,195.7,220.9z"/>
		<path class="st1" d="M64.1,220.9c0.5,0,0.9,0,1.4,0c1.1,0,1.2,0,1.4,1c0.2,1.5,0.8,2.9,1.1,4.3c0.4,1.4,0.7,2.8,1.1,4.3
			c0.3,0.9,0.5,1.7,0.7,2.6c0,0.2,0,0.4,0.3,0.4c0.3,0,0.2-0.3,0.2-0.4c0.3-1,0.5-2,0.8-3c0.2-0.6,0.2-1.3,0.4-1.9
			c0.3-1,0.6-2,0.9-3c0.3-1,0.6-2.1,0.8-3.1c0.2-1,0.3-1.1,1.3-1.1c1,0,2,0,2.9,0c0.4,0,0.6,0,0.7,0.5c0.4,1.6,0.9,3.2,1.3,4.9
			c0.4,1.8,1,3.5,1.5,5.3c0.2,0.6,0.1,1.2,0.4,1.7c0.1,0.1,0.1,0.2,0.2,0.2c0.1,0,0.2-0.1,0.2-0.2c0.2-0.8,0.4-1.5,0.6-2.3
			c0.3-1.1,0.6-2.1,0.9-3.2c0.2-0.5,0.3-1.1,0.4-1.6c0.2-1.1,0.7-2.1,0.9-3.2c0.1-0.6,0.2-1.1,0.5-1.7c0.1-0.3,0.2-0.4,0.5-0.4
			c1.3,0,2.5,0,3.8,0c0.4,0,0.5,0,0.4,0.5c-0.5,1.5-1,3-1.6,4.5c-0.3,0.8-0.7,1.7-0.8,2.6c-0.1,0.7-0.5,1.3-0.7,2
			c-0.3,0.9-0.6,1.9-0.9,2.8c-0.6,1.7-1.1,3.4-1.7,5.1c-0.1,0.3-0.3,0.3-0.6,0.3c-1.3,0-2.6,0-3.9,0c-0.6,0-0.6-0.4-0.7-0.8
			c-0.4-1.5-0.9-3-1.2-4.5c-0.2-1-0.6-1.9-0.8-2.9c-0.2-1.1-0.6-2.2-0.9-3.3c0-0.1-0.1-0.2-0.2-0.2c-0.1,0-0.1,0.2-0.2,0.3
			c-0.3,1.3-0.6,2.5-1,3.8c-0.6,1.7-0.9,3.5-1.5,5.2c-0.2,0.6-0.4,1.2-0.5,1.9c0,0.4-0.2,0.6-0.7,0.6c-1.3,0-2.6,0-3.8,0
			c-0.4,0-0.6-0.1-0.7-0.5c-0.3-1.3-0.7-2.5-1.2-3.7c-0.3-0.8-0.5-1.6-0.8-2.4c-0.3-0.8-0.6-1.7-0.9-2.5c-0.2-0.7-0.5-1.5-0.7-2.2
			c-0.3-0.8-0.6-1.6-0.8-2.4c-0.3-1.2-0.7-2.3-1.2-3.4c-0.2-0.6,0-0.7,0.6-0.7C62.9,221,63.5,220.9,64.1,220.9z"/>
		<path class="st1" d="M128.4,229.8c0-2.7,0-5.5,0-8.2c0-0.5,0.1-0.7,0.6-0.7c1,0,2,0,2.9,0c0.3,0,0.5,0.1,0.8,0.4
			c0.4,0.7,1,1.3,1.5,1.9c1.2,1.7,2.6,3.4,3.8,5.1c0.7,1,1.5,1.8,2.1,2.8c0.1,0.1,0.2,0.3,0.4,0.2c0.2-0.1,0.1-0.3,0.1-0.5
			c0-3.1,0-6.2,0-9.2c0-0.6,0.2-0.8,0.8-0.8c1,0.1,2,0,2.9,0c0.4,0,0.5,0.1,0.5,0.6c0,5.6,0,11.1,0,16.7c0,0.5-0.2,0.6-0.6,0.6
			c-1,0-2,0-3,0c-0.4,0-0.7-0.2-0.9-0.5c-0.8-1.3-1.8-2.4-2.7-3.6c-1.2-1.7-2.6-3.2-3.7-5c-0.2-0.4-0.6-0.7-0.9-1.1
			c0-0.1-0.2-0.1-0.2-0.1c-0.1,0-0.1,0.2-0.1,0.3c0,0.5,0,0.9,0,1.4c0,2.7,0,5.3,0,8c0,0.5-0.1,0.7-0.7,0.7c-1,0-2,0-3,0
			c-0.5,0-0.6-0.2-0.6-0.7C128.4,235.3,128.4,232.6,128.4,229.8z"/>
		<path class="st1" d="M165.5,229.9c0-2.8,0-5.5,0-8.3c0-0.5,0.1-0.7,0.6-0.7c2.7,0,5.5,0,8.2,0c2,0.1,3.9,0.7,5.3,2.3
			c0.7,0.8,1.2,1.8,1.2,2.9c0,0.5,0,1.1,0,1.6c0,2.2-0.9,3.8-2.7,5c-0.3,0.2-0.4,0.4-0.2,0.6c0.8,0.9,1.3,2.1,2,3.1
			c0.5,0.6,0.9,1.3,1.3,1.9c0.3,0.4-0.1,0.4-0.3,0.4c-1,0-2,0-3,0c-1.8,0-1.8,0-2.6-1.6c-0.5-0.9-0.9-1.9-1.4-2.8
			c-0.2-0.3-0.4-0.5-0.8-0.5c-0.8,0-1.6,0-2.3,0c-0.4,0-0.6,0.2-0.6,0.6c0,1.3,0,2.5,0,3.8c0,0.5-0.1,0.6-0.6,0.6
			c-1.2,0-2.4,0-3.6,0c-0.4,0-0.6-0.1-0.6-0.6C165.5,235.4,165.5,232.6,165.5,229.9z M170.2,227.3c0,0.8,0,1.5,0,2.3
			c0,0.4,0.1,0.6,0.6,0.6c1,0,2.1,0,3.1,0c1.3,0,1.9-0.5,2.4-1.7c0.8-2.3-0.5-3.8-2.7-3.9c-0.9-0.1-1.8,0-2.7,0
			c-0.6,0-0.8,0.2-0.8,0.8C170.2,226,170.2,226.7,170.2,227.3z"/>
		<path class="st1" d="M109.9,229.8c0-2.7,0-5.5,0-8.2c0-0.5,0.1-0.7,0.6-0.7c2.6,0,5.2,0,7.9,0c1.9,0,3.7,0.5,5.1,1.8
			c0.8,0.7,1.3,1.6,1.6,2.7c0.5,1.7,0.3,3.3-0.4,4.9c-0.4,1-1.3,1.7-2.1,2.4c-0.3,0.3-0.3,0.5-0.1,0.8c1,1.6,2,3.1,3,4.7
			c0.1,0.1,0.2,0.2,0.2,0.4c-0.1,0.2-0.3,0.1-0.4,0.1c-1.4,0-2.8,0-4.2,0c-0.8,0-0.7-0.6-1-1c-0.7-1.1-1.2-2.4-1.9-3.5
			c-0.2-0.3-0.5-0.4-0.8-0.4c-0.7,0-1.4,0-2.1,0c-0.5,0-0.7,0.2-0.7,0.7c0,1.2,0,2.4,0,3.6c0,0.4-0.1,0.6-0.6,0.6
			c-1.2,0-2.4,0-3.6,0c-0.5,0-0.6-0.2-0.6-0.6C109.9,235.4,109.9,232.6,109.9,229.8C109.9,229.8,109.9,229.8,109.9,229.8z
			 M114.6,227.4C114.6,227.4,114.6,227.4,114.6,227.4c0,0.7,0,1.4,0,2.1c0,0.6,0.2,0.7,0.7,0.7c1,0,2,0,3,0c2.6-0.2,3.1-2.2,2.3-4.1
			c-0.4-1.1-1.6-1.3-2.6-1.4c-0.9-0.1-1.8,0-2.7,0c-0.5,0-0.7,0.2-0.7,0.8C114.6,226,114.6,226.7,114.6,227.4z"/>
		<path class="st1" d="M148.3,229.8c0-2.8,0-5.6,0-8.3c0-0.5,0.2-0.5,0.6-0.5c4.3,0,8.7,0,13,0c0.4,0,0.5,0.1,0.5,0.5
			c0,0.9,0,1.7,0,2.6c0,0.5-0.1,0.6-0.6,0.6c-2.7,0-5.3,0-8,0c-0.6,0-0.8,0.2-0.8,0.7c0,0.7,0,1.4,0,2.1c0,0.5,0.1,0.7,0.6,0.7
			c2.4,0,4.8,0,7.2,0c0.5,0,0.7,0.2,0.7,0.7c0,0.8,0,1.6,0,2.5c0,0.5-0.1,0.7-0.7,0.7c-2.4,0-4.7,0-7.1,0c-0.5,0-0.7,0.1-0.7,0.7
			c0,0.6,0.1,1.2,0,1.8c-0.1,0.7,0.2,0.8,0.9,0.8c2.7,0,5.4,0,8.1,0c0.5,0,0.8,0.1,0.7,0.7c-0.1,0.8,0,1.6,0,2.3
			c0,0.5-0.2,0.6-0.6,0.6c-4.4,0-8.8,0-13.1,0c-0.3,0-0.6,0-0.6-0.5C148.3,235.4,148.3,232.6,148.3,229.8
			C148.3,229.8,148.3,229.8,148.3,229.8z"/>
		<path class="st1" d="M105.7,238.8c-0.6,0-1.2-0.1-1.8,0c-0.5,0.1-0.8-0.2-0.9-0.6c-0.2-0.7-0.5-1.3-0.7-2
			c-0.1-0.4-0.3-0.5-0.7-0.5c-2.3,0-4.5,0-6.8,0c-0.3,0-0.5,0.1-0.6,0.4c-0.3,0.8-0.7,1.5-0.9,2.3c-0.1,0.4-0.4,0.5-0.7,0.5
			c-1.2,0-2.5,0-3.7,0c-0.3,0-0.5,0.1-0.3-0.5c0.6-1.7,1.4-3.4,2.1-5c0.6-1.4,1.3-2.8,1.9-4.2c0.8-1.9,1.7-3.8,2.4-5.7
			c0.2-0.6,0.6-1.1,0.8-1.8c0.1-0.4,0.4-0.6,0.9-0.6c1.2,0.1,2.4,0,3.6,0c0.4,0,0.6,0.1,0.7,0.5c1,2.5,2.1,4.9,3.1,7.4
			c0.9,2.1,1.7,4.2,2.7,6.4c0.4,1,0.8,2.1,1.3,3.1c0.2,0.4,0,0.5-0.3,0.5C107.1,238.8,106.4,238.8,105.7,238.8
			C105.7,238.8,105.7,238.8,105.7,238.8z M98.2,232.2C98.2,232.2,98.2,232.1,98.2,232.2c0.6,0,1.3,0,1.9,0c0.3,0,0.7-0.1,0.5-0.5
			c-0.4-0.7-0.5-1.5-0.8-2.3c-0.4-0.9-0.8-1.9-1.1-2.9c-0.1-0.2-0.1-0.4-0.3-0.5c-0.3,0-0.3,0.2-0.4,0.4c-0.3,0.8-0.6,1.6-0.9,2.3
			c-0.4,0.8-0.6,1.7-1,2.5c-0.3,0.6-0.1,0.9,0.6,0.9C97.2,232.2,97.7,232.2,98.2,232.2z"/>
		<path class="st1" d="M140.7,161.3c-0.1-0.2-0.1-0.4-0.1-0.6c0-12.3,0-24.7,0-37c0-0.5,0.1-0.9,0.6-1.2c3-2.1,6-4.2,9.3-6
			c2.1-1.1,4.3-2.1,6.7-2.1c2.4,0,4.2,1.1,5.1,3.4c0.8,2.1,0.8,4.4,0.5,6.6c-0.8,5.2-3,9.9-5.5,14.4c-4,7.2-8.9,13.6-14.3,19.8
			C142.3,159.5,141.5,160.4,140.7,161.3C140.7,161.3,140.7,161.3,140.7,161.3z"/>
		<path class="st1" d="M140.6,111.4c0-0.4,0-0.7,0-1c0-11.2,0-22.4,0-33.6c0-1,0-1,1-0.9c4.6,0.4,8.9,1.7,12.6,4.6
			c2.5,1.9,4.3,4.3,4.6,7.5c0.3,2.8-0.4,5.4-1.6,7.9c-1.7,3.6-4.3,6.5-7.3,9c-2.8,2.4-5.8,4.4-8.9,6.3
			C140.9,111.2,140.8,111.2,140.6,111.4z"/>
	</g>
</g>
</svg>
