<?xml version="1.0" encoding="UTF-8"?>
<svg id="Vrstva_1" data-name="Vrstva 1" xmlns="http://www.w3.org/2000/svg" version="1.1" viewBox="0 0 1024 1024">
  <defs>
    <style>
      .cls-1 {
        fill: #ff5032;
      }

      .cls-1, .cls-2 {
        stroke-width: 0px;
      }

      .cls-2 {
        fill: #231f20;
      }
    </style>
  </defs>
  <rect class="cls-2" width="1024" height="1024"/>
  <g>
    <g>
      <g>
        <path class="cls-1" d="M521.4,469.2l-52.1,104.1c-7.3,14.8-28.7,14.8-36,0l-52.1-104.1c-6.8-13.5,3.1-29.5,18.4-29.5h0c7.7,0,14.7,4.2,18.1,11.1l33.7,67.4,33.7-67.4c3.4-6.8,10.4-11.1,18.1-11.1h0c15.1,0,25.1,16,18.2,29.5Z"/>
        <path class="cls-1" d="M625.3,469.2l-52.1,104.1c-7.3,14.8-28.7,14.8-36,0l-52.1-104.1c-6.8-13.5,3.1-29.5,18.4-29.5h0c7.7,0,14.7,4.2,18.1,11.1l33.7,67.4,33.5-67.4c3.4-6.8,10.4-11.1,18.1-11.1h0c15.3,0,25.1,16,18.4,29.5Z"/>
      </g>
      <g>
        <path class="cls-1" d="M711.6,460.1c0,2.9-.7,6-2.1,9.1l-52.1,104.1c-7.3,14.8-28.7,14.8-36,0h0c-2.9-5.9-2.9-12.9,0-18.9l18.1-36,6.5-13,27-54.6c3.4-6.8,10.4-11.1,18.1-11.1,11.9,0,20.5,9.8,20.5,20.4Z"/>
        <path class="cls-1" d="M761.1,554.3c2.9,5.9,2.9,12.9,0,18.9h0c-7.3,14.8-28.7,14.8-36,0l-52.1-104.1c-6.8-13.5,3.1-29.5,18.4-29.5s7.5,1.1,10.6,2.9c3.1,2,5.7,4.7,7.5,8.1l33.7,67.4,17.9,36.2Z"/>
      </g>
      <path class="cls-1" d="M919.1,460.2v51.6c0,20-8.1,38.1-21.2,51.1s-31.3,21.2-51.1,21.2c-39.9,0-72.3-32.4-72.3-72.3v-51.6c0-5.7,2.3-10.7,6-14.5,3.7-3.7,8.8-6,14.5-6,11.2,0,20.5,9.1,20.5,20.5v52.1c0,17.4,14,31.4,31.4,31.4s31.4-14,31.4-31.4v-52.1c0-5.7,2.3-10.7,6-14.5,3.7-3.7,8.8-6,14.5-6,11.1.2,20.2,9.3,20.2,20.5Z"/>
    </g>
    <path class="cls-1" d="M298.2,505.8h0c.2,42.5-34,77-76.4,77.2-48.4.2-87.8-39.1-87.9-87.6,0-49,35.3-90.1,81.9-98.4-61.6.8-111.1,51.3-110.9,113.2.2,64.6,52.8,117.1,117.2,116.8,64.5-.2,116.6-52.9,116.3-117.6-.2-48.5-39.6-87.8-87.9-87.6-41.8.2-75.7,34.4-75.6,76.5.2,27.5,22.5,49.7,49.8,49.7s11.6-1.1,16.8-2.9h-.8c-21.3,0-38.8-17.3-38.8-38.8-.2-26.7,21.3-48.4,48-48.5,26.5-.2,48.2,21.3,48.2,48"/>
  </g>
</svg>