<svg width="284" height="284" viewBox="0 0 284 284" fill="none" xmlns="http://www.w3.org/2000/svg">
<rect width="283.5" height="283.5" fill="#003480"/>
<g clip-path="url(#clip0_16_433)">
<path d="M186.179 164.974L212.023 155.717V116.703L173.257 130.81V140.508L186.179 135.659V164.974Z" fill="white"/>
<path d="M197.347 94.0004C182.016 94.0004 167.342 101.495 158.581 114.279L165.371 119.128C172.598 108.768 184.425 102.377 197.128 102.377C218.373 102.597 235.456 120.01 235.237 141.391V141.611C235.456 162.992 218.592 180.405 197.566 180.625C184.643 180.846 172.597 174.453 165.37 163.873L158.361 168.723C167.122 181.507 181.359 189.001 196.69 189.001C222.753 189.222 243.779 168.061 243.998 141.832C244.217 115.602 223.191 94.2211 197.347 94.0004Z" fill="white"/>
<path d="M137.557 119.569C132.957 119.569 129.891 119.569 127.482 119.789H123.539H123.32V162.991H124.853C128.139 162.991 132.081 163.212 136.023 163.212C150.697 163.212 158.801 155.497 158.801 141.17C158.801 126.843 151.574 119.348 137.557 119.569ZM136.899 155.717C135.147 155.717 133.614 155.717 132.081 155.497V127.063C133.395 127.063 135.147 126.842 136.899 126.842C145.441 126.842 149.602 131.692 149.602 141.39C149.602 151.088 145.66 155.717 136.899 155.717Z" fill="white"/>
<path d="M64.4061 120.01L53.6742 119.789L39 163.211H47.7608L50.608 154.394H66.8156L69.6628 163.211H79.2999L64.4061 120.01ZM52.7979 146.901L56.9592 133.676C57.6163 131.912 58.0544 129.929 58.4924 127.945C58.9304 129.488 59.3684 131.472 60.0255 133.676L64.1868 146.901H52.7979Z" fill="white"/>
<path d="M108.426 148.223C107.769 147.121 106.893 146.019 106.455 145.137C111.712 143.594 115.435 138.525 115.216 132.794C115.216 124.197 109.741 119.569 99.6655 119.569C95.0662 119.569 91.124 119.569 88.0573 119.789H84.334V163.211H92.8755V146.68H97.6939L107.331 163.211H117.625L108.426 148.223ZM92.8758 126.843H99.0083C103.827 126.843 106.017 128.827 106.017 133.014C106.017 137.202 103.608 139.186 98.7893 139.186H92.8758V126.843Z" fill="white"/>
</g>
<defs>
<clipPath id="clip0_16_433">
<rect width="205" height="95" fill="white" transform="translate(39 94)"/>
</clipPath>
</defs>
</svg>
