<?xml version="1.0" encoding="UTF-8"?>
<svg xmlns="http://www.w3.org/2000/svg" xmlns:xlink="http://www.w3.org/1999/xlink" version="1.1" viewBox="0 0 283.5 283.5">
  <defs>
    <style>
      .cls-1 {
        fill: #881a78;
      }

      .cls-2 {
        fill: #e0308a;
      }

      .cls-3 {
        fill: #6f5183;
      }

      .cls-4 {
        fill: #781a72;
      }

      .cls-5 {
        fill: #a21980;
      }

      .cls-6 {
        fill: #96197c;
      }

      .cls-7 {
        fill: #a2187f;
      }

      .cls-8 {
        fill: #5c1867;
      }

      .cls-9 {
        fill: #fff;
      }

      .cls-10 {
        fill: url(#Nepojmenovaný_přechod_4);
      }

      .cls-11 {
        fill: #811a75;
      }

      .cls-12 {
        fill: #6e196e;
      }

      .cls-13 {
        fill: #631a6a;
      }

      .cls-14 {
        fill: #4d1860;
      }

      .cls-15 {
        fill: #781972;
      }
    </style>
    <linearGradient id="Nepojmenovaný_přechod_4" data-name="Nepojmenovaný přechod 4" x1="0" y1="141.8" x2="283.5" y2="141.8" gradientUnits="userSpaceOnUse">
      <stop offset="0" stop-color="#070013"/>
      <stop offset="1" stop-color="#1d1259"/>
    </linearGradient>
  </defs>
  <!-- Generator: Adobe Illustrator 28.7.1, SVG Export Plug-In . SVG Version: 1.2.0 Build 142)  -->
  <g>
    <g id="Vrstva_1">
      <g id="Vrstva_1-2-2">
        <rect class="cls-10" width="283.5" height="283.5"/>
      </g>
      <g>
        <path class="cls-2" d="M78.9,175.4c-.6-.4-1.2-.9-1.8-1.3,1.8,0,2-.1,2.4-1.8.2-.9.3-1.8.5-2.7.1-1,.2-2,.4-3,.2-.8.3-1.7.5-2.5.2-1,.3-2,.5-3,.1-.7.2-1.5.3-2.2.2-.6.4-1.3.5-1.9,1-4.5,2-9,3-13.5.3-1.5,1.3-2.5,2.9-2.7,2.1-.3,4.1-.6,6.2-.8,1.5-.2,3.1-.2,4.6-.4-.6.7-1.4,1.4-1.7,2.2-.6,1.6-.8,3.3-1.2,5-.3,1.4-.6,2.8-.9,4.2-.5,2.3-1,4.7-1.5,7-.7,3.9-1.4,7.9-2.1,11.8,0,.2,0,.5-.1.7-.2,1.8-1.1,2.8-2.9,3.2-2.7.5-5.4,1-8,1.5-.2,0-.3,0-.5.2h-1.2Z"/>
        <path class="cls-9" d="M221.9,175.4c-.1,0-.2-.2-.3-.2-3-1.2-4.4-4-3.7-7.1.7-2.8,3.6-4.7,6.6-4.3,4.6.6,7,4.9,4.9,8.8-.6,1.1-1.6,1.9-2.7,2.4-.2.1-.5.2-.7.3h-4ZM221.2,169.6c0,1.7,1.1,2.9,2.8,2.9,1.5,0,2.6-1.3,2.6-2.9,0-1.6-1.1-2.8-2.7-2.8-1.7,0-2.8,1.1-2.8,2.8Z"/>
        <path class="cls-9" d="M205.3,175.2c0-2.5,0-5,0-7.4,0-1.2,0-2.5,0-3.7,2.1,0,4.2-.2,6.2,0,3.6.4,5.6,4.2,4.2,7.8-.7,1.9-2.1,3-4.2,3.3-.1,0-.2.1-.3.2h-.3c-.3,0-.5-.2-.8-.2-1.6,0-3.1,0-4.7,0ZM208.6,172.2c1.4,0,2.8.3,3.7-1.1.6-.9.5-2.3-.1-3.1-.7-.9-2.1-1.2-3.6-.8v5.1Z"/>
        <path class="cls-9" d="M192.3,175.4v-11.3c1.4-.5,2.2-.3,3.1.8,1.2,1.5,2.4,3,3.8,4.6v-5.5c1,0,1.9,0,2.9,0,.2,0,.5.3.5.5,0,3.4,0,6.9,0,10.3,0,.2-.2.4-.3.6h-2c-1.5-1.8-3-3.6-4.6-5.6,0,1.7,0,3.2,0,4.7,0,.3-.2.6-.2.9h-3Z"/>
        <path class="cls-9" d="M167.5,175.4c0-.2,0-.3,0-.5,0-3.6,0-7.2,0-10.9.4,0,.8,0,1.1,0,1.8,0,3.6,0,5.3,0,1.6,0,2.8,1.1,3.2,2.6.5,1.7.2,3.3-1.1,4.5-.2.1-.3.3-.6.4.6,1,1.1,2,1.6,3,.1.2,0,.5.1.8h-3.3c-.4-.8-.9-1.5-1.2-2.4-.4-1-1-1.1-1.9-.9,0,.6,0,1.2,0,1.7,0,.5-.2,1-.2,1.5h-3ZM170.7,166.7v2.8c.7,0,1.3,0,1.9,0,.9,0,1.4-.7,1.4-1.4,0-.8-.6-1.3-1.5-1.4-.6,0-1.2,0-1.8,0Z"/>
        <path class="cls-9" d="M155.1,175.4c0-.2-.2-.4-.2-.6,0-3.4,0-6.9,0-10.3,0-.1,0-.2,0-.4.4,0,.9,0,1.3,0,1.6,0,3.1,0,4.7,0,1.9,0,3.2,1,3.7,2.6.6,1.9,0,3.6-1.5,4.8,0,0-.1.1-.2.2.6,1,1.1,2,1.7,3,0,.2,0,.5,0,.7h-3.2c-.4-.8-.8-1.6-1.3-2.4-.5-1-.7-1.1-1.9-.7,0,.3,0,.7,0,1.1,0,.7-.1,1.4-.2,2.1h-3ZM158.3,169.5c.7,0,1.4,0,2,0,.7,0,1.2-.6,1.2-1.3,0-.7-.4-1.3-1.1-1.4-.7,0-1.4,0-2.1,0v2.8Z"/>
        <path class="cls-9" d="M178.7,175.4c0-.3,0-.6.2-.9,1.3-3.3,2.7-6.6,4-9.9.2-.5.5-.7,1-.7,2.1,0,2.1,0,2.8,1.9,1.2,2.9,2.4,5.8,3.6,8.8,0,.2,0,.6,0,.8h-3c-.2-1.6-1.3-1.8-2.6-1.6-.2,0-.5,0-.7,0-.9-.1-1.6,0-1.7,1.1,0,.2-.2.3-.3.5h-3.2ZM184.6,167.8c-.5,1.3-.9,2.3-1.3,3.4h2.6c-.4-1.1-.8-2.2-1.3-3.4Z"/>
        <path class="cls-9" d="M141.4,175.4c.3-1,.7-1.9,1-2.9,1-2.6,2.1-5.1,3.1-7.7.3-.7.6-1.1,1.3-.8,0,0,.1,0,.2,0,1.5-.4,2,.5,2.4,1.7,1.1,3,2.4,5.9,3.6,8.9,0,.2,0,.6,0,.8h-3.2c0-.2-.2-.5-.3-.7-.1-.8-.5-1-1.3-.9-.7,0-1.3,0-2,0-.8,0-1.3.2-1.5,1,0,.2-.2.4-.4.6h-3.2ZM146,171.3h2.6c-.4-1.1-.8-2.2-1.3-3.4-.5,1.2-.9,2.3-1.3,3.4Z"/>
        <path class="cls-9" d="M235.1,175.4c-1-2.3-1.9-4.7-2.9-7-.6-1.4-1.1-2.8-1.7-4.4,1.2,0,2.3,0,3.4,0,.2,0,.3.4.4.6.7,1.9,1.4,3.8,2.1,5.9.3-.8.5-1.4.7-2,.5-1.3.9-2.6,1.4-3.9.2-.6.5-.7,1-.7.9,0,1.7,0,2.6,0v1c-.1.2-.2.4-.3.7-1.2,3-2.4,6.1-3.7,9.1-.1.3-.4.5-.5.8h-2.5Z"/>
        <path class="cls-3" d="M137.5,175.2s0,0,0,.1h-6.9c0,0,0-.1,0-.2,2.3,0,4.6,0,6.9,0Z"/>
        <path class="cls-9" d="M205.3,175.2c1.6,0,3.1,0,4.7,0,.3,0,.5.1.8.2h-5.5c0,0,0-.1,0-.2Z"/>
        <path class="cls-9" d="M181.7,137c1-2.9,2-5.8,3.1-8.7,1.6-4.5,3.1-9,4.7-13.5.3-.7.7-1.1,1.5-1.1,3.4,0,6.9,0,10.3,0,1,0,1.1.2.8,1.1-5,12.6-10,25.1-15,37.7-.3.8-.8,1.1-1.6,1.1-2.5,0-5.1,0-7.6,0-.8,0-1.3-.3-1.6-1.1-3.5-8.9-7-17.7-10.5-26.6-.5-1.3-.5-1.4-2-1.4-2.8,0-5.6,0-8.4,0q-1.4,0-1.4,1.4c0,8.6,0,17.2,0,25.8,0,1.5-.3,1.8-1.7,1.8-2.8,0-5.6,0-8.4,0-1.6,0-1.6,0-1.6-1.6,0-8.6,0-17.2,0-25.7,0-.2,0-.4,0-.6,0-.8-.3-1.1-1.1-1.1-3.1,0-6.2,0-9.3,0-1.1,0-1.2,0-1.2-1.2,0-2.9,0-5.7,0-8.6,0-.8.3-1.1,1.1-1.1,13.5,0,27,0,40.5,0,.8,0,1.2.4,1.4,1.1,2.5,7.2,5,14.4,7.6,21.5,0,.2.2.4.3.6,0,0,.1,0,.2,0Z"/>
        <path class="cls-2" d="M66.3,155.9c-3,.8-6.1,1.4-9.1,2.3-3.2.9-6.4,2-9.5,3-2,.6-3.1.2-3.8-1.7-.8-2.1-1.6-4.2-2.3-6.3-.4-1-.2-2,.6-2.9.4,1.5.6,1.8,1.6,1.4,1.8-.6,3.6-1.4,5.4-2.1,1.6-.5,3.1-1,4.7-1.6.6-.2,1.1-.3,1.7-.5,4.9-1.2,9.7-2.5,14.6-3.7,1.7-.4,2.9.2,3.8,1.7.3.6.6,1.2,1,1.8,1.3,2.3,2.5,4.6,3.8,6.9-.9-.1-1.8-.5-2.7-.3-2.9.5-5.7,1.2-8.6,1.8-.3,0-.7.2-1,.3Z"/>
        <path class="cls-2" d="M101.2,127.7c1.7.9,3.3,1.8,5,2.7,4.4,2.5,8.9,4.9,13.3,7.4,1.9,1.1,2.4,2.3,1.9,4.4,0,.4-.2.9-.3,1.3-.3,1.2-.5,2.4-.8,3.6-.2,1-.8,1.7-1.8,2,0-.6,0-1.1-.6-1.5-1.6-1-3.3-2-4.9-3-.9-.6-1.9-1.1-2.8-1.7-.8-.4-1.6-.9-2.3-1.3-.7-.4-1.4-.8-2.2-1.2-.7-.4-1.3-.8-2-1.2-.2,0-.3-.1-.5-.2-.2-.2-.5-.4-.7-.5-3.1-1.6-6.3-3.2-9.4-4.8-.8-.4-1.6-.7-2.3-1.2-1.1-.6-1.9-1.6-1.5-2.9.7-2.5,1.6-4.9,2.4-7.3.1.2.2.4.3.6.3.8.9,1.1,1.7,1.2.7.3,1.3.6,2,1,.7.3,1.5.7,2.2,1,1.2.6,2.3,1.1,3.5,1.7Z"/>
        <path class="cls-2" d="M76.2,117.9c1.6-.9,3.2-1.8,4.8-2.7,4.4-2.5,9-4.8,13.8-6.6,1.7-.6,3.2-.6,4.9,0,1.7.7,3.5,1.4,5.3,2.1,1.3.5,1.7,1.4,1.2,2.8,0-.2-.1-.3-.2-.5-.5-.6-1-.3-1.5-.1-3.8,1.7-7.5,3.4-11.3,5.2-.2.1-.4.3-.6.5-.3.1-.6.2-.8.3-3.8,2.3-7.6,4.6-11.3,6.9-1.1.7-2.3,1.2-3.6.8-3.3-1-6.5-2.1-9.8-3.2.3,0,.6-.1.9-.2,1.1,0,1.9-.7,2.7-1.3.4-.3.9-.5,1.3-.8,1.5-1.1,3-2.1,4.4-3.2Z"/>
        <path class="cls-2" d="M56.8,133.2c-.5-2.4-1.1-4.9-1.6-7.3-.3-1.3-.3-2.6-.5-4,0-1,.2-1.8,1-2.3,1.7-1.3,3.5-2.6,5.2-3.8.8-.5,1.7-.8,2.7-.6,0,0,0,0,0,.1-1.1.1-1.8.8-1.6,1.6.5,1.9,1.1,3.9,1.6,5.8.1.4.2.8.3,1.2,1.1,2.9,2.3,5.7,3.4,8.6.7,1.7.5,2.8-.9,4-1.7,1.6-3.5,3.2-5.2,4.8-.6.6-1.3,1.2-1.9,1.8,0-.1,0-.3,0-.4,0,0,.1-.2.2-.3.5-1.4-.3-2.6-.8-3.7-.6-1.8-1.2-3.7-1.8-5.5Z"/>
        <path class="cls-9" d="M137.5,175.2h-6.9c0-2.7,0-5.4,0-8.1,0-1,0-2,0-3.1.8,0,1.6,0,2.4,0,1.2,0,2.5,0,3.7,0,1.5,0,2.7.7,3.1,1.8.5,1.3,0,2.5-1.2,3.6,1.5.9,2.1,2.2,1.6,3.8-.4,1.2-1.3,1.9-2.6,2ZM133.9,173c.7,0,1.3,0,2,0,.7,0,1.1-.4,1.1-1.1,0-.7-.4-1.2-1.1-1.2-.6,0-1.3,0-2,0v2.3ZM133.9,168.5c.7,0,1.3,0,1.9-.1.6,0,1-.5,1-1.1,0-.7-.5-1-1.1-1.1-.6,0-1.2,0-1.8,0v2.3Z"/>
        <path class="cls-13" d="M66.3,155.9c.3,0,.7-.2,1-.3.2.2.5.4.7.5,1.8.3,3.7.6,5.5.9,2.5.4,5,.9,7.5,1.3.2.2.3.3.5.5-.1.7-.2,1.5-.3,2.2-2.7-.4-5.5-.8-8.2-1.3-1.7-.3-3.3-.5-5-.7-.6-1-1.1-2-1.7-3.1Z"/>
        <path class="cls-15" d="M68.1,159c1.7.2,3.3.5,5,.7,2.7.4,5.5.8,8.2,1.3-.2,1-.3,2-.5,3-2.2-.4-4.4-.8-6.6-1.2-1.4-.2-2.9-.4-4.3-.7l-1.8-3.2Z"/>
        <path class="cls-8" d="M103.5,139.2c.7.4,1.3.8,2,1.2-.2.4-.2.8-.5,1.1-2.9,2.9-5.7,5.8-8.6,8.6-.2.2-.4.5-.6.8-.2,0-.4,0-.7,0,.3-1.4.6-2.8.9-4.2.2-.1.4-.2.6-.3,2.3-2.2,4.5-4.4,6.8-6.7.1-.1.1-.4.2-.5Z"/>
        <path class="cls-4" d="M59.3,142.8c0,.1,0,.3,0,.4-.8.8-1.6,1.6-2.3,2.5-2.1-1.2-4.1-2.4-6.2-3.6-.5-.3-.9-.8-1.4-1.2.8-.8,1.6-1.7,2.3-2.5.3.2.5.5.8.7,1.8,1.1,3.6,2.2,5.5,3.2.4.2.9.3,1.3.4Z"/>
        <path class="cls-1" d="M49.4,140.9c.5.4.9.8,1.4,1.2,2,1.2,4.1,2.4,6.2,3.6-.5.7-1,1.3-1.5,2-.6.2-1.1.3-1.7.5-.1-.2-.2-.4-.4-.5-1.2-.7-2.4-1.3-3.5-2-1-.6-1.9-1.2-2.8-1.9l2.4-2.8Z"/>
        <path class="cls-12" d="M95.8,150.9c.2-.3.4-.6.6-.8,2.9-2.9,5.8-5.7,8.6-8.6.3-.3.3-.7.5-1.1.7.4,1.4.8,2.2,1.2-.2.3-.3.7-.5.9-2.3,2.3-4.7,4.7-7,7-.2.3-.4.6-.5,1-1.3.1-2.6.3-3.9.4Z"/>
        <path class="cls-5" d="M112.9,144.6c1.6,1,3.3,2,4.9,3,.6.4.7.9.6,1.5-.3,0-.6.3-.9.3-3.1.1-6.2.3-9.3.4,1.3-1.4,2.7-2.7,4-4.1.3-.3.5-.7.7-1.1Z"/>
        <path class="cls-1" d="M112.9,144.6c-.2.4-.4.8-.7,1.1-1.3,1.4-2.7,2.7-4,4.1-1.6.1-3.1.2-4.7.3.3-.4.5-.9.9-1.3,1.7-1.7,3.4-3.4,5.2-5.2.2-.2.3-.5.5-.7.9.6,1.9,1.1,2.8,1.7Z"/>
        <path class="cls-11" d="M110,142.9c-.2.2-.3.5-.5.7-1.7,1.7-3.5,3.4-5.2,5.2-.4.4-.6.8-.9,1.3-1.3.1-2.6.2-3.8.3.2-.3.3-.7.5-1,2.3-2.3,4.7-4.7,7-7,.2-.2.3-.6.5-.9.8.4,1.6.9,2.3,1.3Z"/>
        <path class="cls-1" d="M69.8,162.2c1.4.2,2.9.4,4.3.7,2.2.4,4.4.8,6.6,1.2-.2.8-.3,1.7-.5,2.5-1.3-.2-2.6-.4-3.8-.6-1.6-.2-3.3-.5-4.9-.8-.6-1-1.1-2-1.7-3Z"/>
        <path class="cls-6" d="M47.1,143.7c.9.6,1.9,1.3,2.8,1.9,1.2.7,2.4,1.3,3.5,2,.2,0,.3.3.4.5-1.6.5-3.1,1-4.7,1.6-.1-.2-.2-.4-.4-.5-1.4-.8-2.7-1.6-4.1-2.4.8-1,1.7-2.1,2.5-3.1Z"/>
        <path class="cls-13" d="M59.3,142.8c-.4-.1-.9-.2-1.3-.4-1.8-1-3.7-2.1-5.5-3.2-.3-.2-.5-.5-.8-.7.7-.8,1.5-1.5,2.2-2.3,1.4.9,2.9,1.8,4.3,2.7.1,0,.3,0,.4,0,.6,1.2,1.3,2.3.8,3.7,0,.1-.1.2-.2.3Z"/>
        <path class="cls-8" d="M106,113c0,.2.1.3.2.5-.2.6-.4,1.1-.6,1.7-.4.2-.8.3-1.2.5-3.2,1.8-6.3,3.7-9.5,5.5-1.1.6-2.1,1.2-3.2,1.7-.1-.2-.2-.4-.3-.6.1-.4.2-.8.4-1.3.3,0,.7-.1.9-.3,1.5-.9,3.1-1.8,4.6-2.7,2.9-1.7,5.8-3.4,8.7-5.1Z"/>
        <path class="cls-12" d="M91.8,122.9c1.1-.6,2.1-1.1,3.2-1.7,3.2-1.8,6.3-3.7,9.5-5.5.4-.2.8-.3,1.2-.5-.3.8-.6,1.7-1,2.5-.3,0-.7.1-.9.3-2.5,1.4-5,2.8-7.5,4.3-.9.6-1.8,1.2-2.7,1.8-.8-.1-1.4-.4-1.7-1.2Z"/>
        <path class="cls-6" d="M71.5,165.2c1.6.3,3.3.5,4.9.8,1.3.2,2.6.4,3.8.6-.1,1-.2,2-.4,3-.4,0-.7,0-1.1-.1-1.7-.2-3.5-.5-5.2-.7-.7-1.2-1.4-2.3-2.1-3.5Z"/>
        <path class="cls-11" d="M93.5,124.1c.9-.6,1.8-1.3,2.7-1.8,2.5-1.5,5-2.9,7.5-4.3.3-.2.6-.2.9-.3-.4.9-.7,1.8-1.1,2.7-.3,0-.7.1-.9.3-1.6.9-3.2,1.8-4.8,2.7-.8.5-1.6,1.1-2.3,1.7-.7-.3-1.3-.6-2-1Z"/>
        <path class="cls-7" d="M73.6,168.7c1.7.2,3.5.5,5.2.7.4,0,.7,0,1.1.1-.2.9-.3,1.8-.5,2.7-.4,1.7-.6,1.9-2.4,1.8-1.2-1.8-2.3-3.6-3.5-5.3Z"/>
        <path class="cls-7" d="M44.6,146.8c1.4.8,2.8,1.6,4.1,2.4.2,0,.3.3.4.5-1.8.7-3.6,1.5-5.4,2.1-1,.3-1.2,0-1.6-1.4.8-1.2,1.7-2.4,2.5-3.5Z"/>
        <path class="cls-6" d="M76.2,117.9c-1.5,1.1-3,2.1-4.4,3.2-.4.3-.8.5-1.3.8,0-1.8,0-3.7,0-5.5,1.9.5,3.8,1,5.7,1.5Z"/>
        <path class="cls-12" d="M67.9,123.2c-.3,0-.6.1-.9.2-.5-.1-1-.2-1.5-.4,0-2.5.1-5,.2-7.5.7.1,1.5.2,2.2.4,0,2.5,0,4.9,0,7.4Z"/>
        <path class="cls-11" d="M67.9,123.2c0-2.5,0-4.9,0-7.4.9.2,1.8.4,2.7.5,0,1.8,0,3.7,0,5.5-.8.7-1.6,1.3-2.7,1.3Z"/>
        <path class="cls-6" d="M95.5,125c.8-.6,1.5-1.2,2.3-1.7,1.6-.9,3.2-1.8,4.8-2.7.3-.2.6-.2.9-.3-.3,1-.6,1.9-.9,2.9-.2,0-.4,0-.5,0-1.4.8-2.7,1.6-4.1,2.4-.2,0-.3.3-.4.4-.7-.3-1.5-.7-2.2-1Z"/>
        <path class="cls-8" d="M65.7,115.5c0,2.5-.1,5-.2,7.5-.5-.1-1-.2-1.5-.3,0-2.2,0-4.4,0-6.6,0-.3-.2-.5-.3-.8,0,0,0,0,0-.1.7,0,1.3.2,2,.3Z"/>
        <path class="cls-14" d="M58.7,138.7c-.1,0-.3,0-.4,0-1.4-.9-2.9-1.8-4.3-2.7,1-1,1.9-1.9,2.9-2.9.6,1.8,1.2,3.7,1.8,5.5Z"/>
        <path class="cls-5" d="M97.7,126c.1-.1.2-.3.4-.4,1.3-.8,2.7-1.6,4.1-2.4.1,0,.3,0,.5,0-.5,1.5-1,3-1.4,4.5-1.2-.6-2.3-1.1-3.5-1.7Z"/>
        <path class="cls-14" d="M98.9,139.6c1.4-.2,2.8-.4,4.2-.5.2,0,.3.1.5.2,0,.2,0,.4-.2.5-2.3,2.2-4.5,4.4-6.8,6.7-.1.1-.4.2-.6.3.4-1.7.6-3.4,1.2-5,.3-.8,1.1-1.5,1.7-2.2Z"/>
        <path class="cls-14" d="M78.6,154.2c.8,1.4,1.7,2.8,2.5,4.1-2.5-.4-5-.9-7.5-1.3-1.8-.3-3.7-.6-5.5-.9-.3,0-.5-.3-.7-.5,2.8-.6,5.7-1.3,8.6-1.8.9-.1,1.8.2,2.7.3Z"/>
        <path class="cls-14" d="M91.8,121c.3-.8.5-1.7.8-2.5.2-.2.4-.4.6-.5,3.8-1.7,7.5-3.5,11.3-5.2.5-.2,1-.5,1.5.1-2.9,1.7-5.8,3.4-8.7,5.1-1.5.9-3.1,1.8-4.6,2.7-.3.2-.6.2-.9.3Z"/>
        <path class="cls-14" d="M64,122.7c-.1,0-.2,0-.3,0-.6-1.9-1.2-3.8-1.6-5.8-.2-.8.5-1.5,1.6-1.6.1.3.3.5.3.8,0,2.2,0,4.4,0,6.6Z"/>
      </g>
    </g>
  </g>
</svg>